<svg xmlns="http://www.w3.org/2000/svg" width="24" height="24" viewBox="0 0 24 24"><defs><style>.cls-1{fill:#aecbfa}.cls-2{fill:#669df6}.cls-3{fill:#4285f4}</style></defs><title>Icon_24px_VirtualPrivateCloud_Color</title><g data-name="Product Icons"><rect width="6" height="6" x="16" y="2" class="cls-1"/><rect width="3" height="6" x="19" y="2" class="cls-2"/><rect width="6" height="6" x="16" y="16" class="cls-1"/><rect width="3" height="6" x="19" y="16" class="cls-2"/><rect width="6" height="6" x="2" y="2" class="cls-1"/><rect width="3" height="6" x="5" y="2" class="cls-2"/><rect width="6" height="6" x="2" y="16" class="cls-1"/><rect width="3" height="6" x="5" y="16" class="cls-2"/><rect width="8" height="2" x="8" y="4" class="cls-2"/><rect width="8" height="2" x="8" y="18" class="cls-2"/><rect width="2" height="8" x="18" y="8" class="cls-2"/><rect width="2" height="8" x="4" y="8" class="cls-2"/><rect width="2" height="2" x="4" y="8" class="cls-3"/><rect width="2" height="2" x="18" y="8" class="cls-3"/><rect width="2" height="2" x="8" y="4" class="cls-3"/><rect width="2" height="2" x="8" y="18" class="cls-3"/></g></svg>