<svg xmlns="http://www.w3.org/2000/svg" id="b9ca928b-2484-469e-887a-b914e6d20206" width="18" height="18" viewBox="0 0 18 18"><defs><linearGradient id="e042fd95-47e9-47d7-a97e-6414df5d5c10" x1="13.23" x2="8.6" y1="12.83" y2="4.06" gradientUnits="userSpaceOnUse"><stop offset="0" stop-color="#1988d9"/><stop offset=".9" stop-color="#54aef0"/></linearGradient><linearGradient id="ebbd60b7-1e21-4536-af03-7974490dde86" x1="11.23" x2="14.44" y1="10.28" y2="15.8" gradientUnits="userSpaceOnUse"><stop offset=".1" stop-color="#54aef0"/><stop offset=".29" stop-color="#4fabee"/><stop offset=".51" stop-color="#41a2e9"/><stop offset=".74" stop-color="#2a93e0"/><stop offset=".88" stop-color="#1988d9"/></linearGradient></defs><title>Icon-identity-224</title><g><polygon fill="#50e6ff" points=".99 10 8.9 15.14 16.96 9.98 17.97 11.16 8.9 17 -.03 11.16 .99 10"/><polygon fill="#fff" points="1.58 9.34 8.9 .62 16.37 9.35 8.9 14.07 1.58 9.34"/><polygon fill="#50e6ff" points="8.9 .62 8.9 14.07 1.58 9.34 8.9 .62"/><polygon fill="url(#e042fd95-47e9-47d7-a97e-6414df5d5c10)" points="8.9 .62 8.9 14.07 16.37 9.35 8.9 .62"/><polygon fill="#53b1e0" points="8.9 7.57 16.37 9.35 8.9 14.07 8.9 7.57"/><polygon fill="#9cebff" points="8.9 14.07 1.58 9.34 8.9 7.57 8.9 14.07"/><polygon fill="url(#ebbd60b7-1e21-4536-af03-7974490dde86)" points="8.9 17 17.97 11.16 16.96 9.98 8.9 15.14 8.9 17"/><path fill="#f04049" d="M13.52,17.38l0,0C17.9,14.24,18,12.45,18,11.89c0-.8-.08-2.88-2.17-3a2.27,2.27,0,0,0-2.33,1.52A2.26,2.26,0,0,0,11.2,8.85C9.11,9,9,11.09,9,11.89c0,.56.13,2.35,4.47,5.46"/><path fill="#fff" d="M18,11.57H16a.17.17,0,0,0-.14.08l-.63,1.07a.08.08,0,0,1-.14,0L14.14,11a.16.16,0,0,0-.3,0L13,13.6a.08.08,0,0,1-.15,0l-.76-1.75a.16.16,0,0,0-.29,0l-1,1.82a.16.16,0,0,1-.15.09H9.69a7.13,7.13,0,0,0,.48.65H11a.17.17,0,0,0,.14-.09L11.85,13l1,2.19a.16.16,0,0,0,.3,0l1-2.93L15,13.92a.16.16,0,0,0,.28,0l1-1.62a.17.17,0,0,1,.14-.08H18"/></g></svg>