<svg xmlns="http://www.w3.org/2000/svg" id="e43c77ce-4ab9-446f-aa74-c41429bb9cbb" width="18" height="18" viewBox="0 0 18 18"><defs><linearGradient id="b371e9d4-03ce-4242-9f79-d5a269ffcb88" x1="8.21" x2="12.34" y1="5.16" y2="11.42" gradientUnits="userSpaceOnUse"><stop offset="0" stop-color="#f9a11f"/><stop offset=".02" stop-color="#f89f1f"/><stop offset=".39" stop-color="#f28721"/><stop offset=".72" stop-color="#ed7823"/><stop offset="1" stop-color="#ec7323"/></linearGradient><linearGradient id="a1794fd5-e1a9-408f-9605-810ce38ab87a" x1="11.09" x2="16.27" y1="11.03" y2="18.1" href="#b371e9d4-03ce-4242-9f79-d5a269ffcb88"/></defs><title>Icon-identity-231</title><polygon fill="#faa21d" points="1.01 10.19 8.93 15.33 16.99 10.17 18 11.35 8.93 17.19 0 11.35 1.01 10.19"/><polygon fill="#fff" points="1.61 9.53 8.93 .81 16.4 9.54 8.93 14.26 1.61 9.53"/><polygon fill="#f78d1e" points="8.93 .81 8.93 14.26 1.61 9.53 8.93 .81"/><polygon fill="url(#b371e9d4-03ce-4242-9f79-d5a269ffcb88)" points="8.93 .81 8.93 14.26 16.4 9.54 8.93 .81"/><polygon fill="#f78d1e" points="8.93 7.76 16.4 9.54 8.93 14.26 8.93 7.76"/><polygon fill="#faa21d" points="8.93 14.26 1.61 9.53 8.93 7.76 8.93 14.26"/><polygon fill="url(#a1794fd5-e1a9-408f-9605-810ce38ab87a)" points="8.93 17.19 18 11.35 16.99 10.17 8.93 15.33 8.93 17.19"/></svg>