<svg xmlns="http://www.w3.org/2000/svg" xmlns:xlink="http://www.w3.org/1999/xlink" id="Layer_1" width="24" height="24" x="0" y="0" baseProfile="tiny" overflow="visible" version="1.1" viewBox="0 0 24 24" xml:space="preserve"><g><rect width="24" height="24" y="0" fill="none"/><polygon fill="#85A4E6" fill-rule="evenodd" points=".8 5.9 3.7 .8 9.5 .8 12.4 5.9 9.5 10.9 3.7 10.9"/><polygon fill="#5C85DE" fill-rule="evenodd" points="11.4 7.7 8.5 2.6 9.5 .7 12.4 5.9"/><polygon id="Shape-Copy_00000019646383529055310330000009913415011964925323_" fill="#3367D6" fill-rule="evenodd" points="2.7 9.3 8.5 9.3 10.5 5.9 11.4 7.7 9.5 10.9 3.7 11"/><polygon fill="#85A4E6" fill-rule="evenodd" points="11.2 11.9 14.2 6.8 20 6.8 22.9 11.9 20 16.9 14.2 16.9"/><polygon id="Shape-Copy_00000133527958483064390410000012377415375428947900_" fill="#5C85DE" fill-rule="evenodd" points="21.9 13.7 19 8.6 20 6.7 22.9 11.9"/><polygon id="Shape-Copy_00000176019471624316745960000001248137580190207128_" fill="#3367D6" fill-rule="evenodd" points="13.2 15.3 19 15.3 21 11.9 21.9 13.7 20 16.9 14.2 17"/><polygon fill="#85A4E6" fill-rule="evenodd" points=".8 17.9 3.7 12.8 9.5 12.8 12.4 17.9 9.5 22.9 3.7 22.9"/><polygon id="Shape-Copy_00000096041779745201399360000017167964797373102485_" fill="#5C85DE" fill-rule="evenodd" points="11.4 19.7 8.5 14.6 9.5 12.7 12.4 17.9"/><polygon id="Shape-Copy_00000049204188488742950820000010444321201512143025_" fill="#3367D6" fill-rule="evenodd" points="2.7 21.3 8.5 21.3 10.5 17.9 11.4 19.7 9.5 22.9 3.7 23"/></g></svg>