<svg xmlns="http://www.w3.org/2000/svg" width="24" height="24" viewBox="0 0 24 24"><defs><style>.cls-1{fill:#669df6}.cls-2{fill:#4285f4}</style></defs><title>Icon_24px_Quotas_Color</title><g data-name="Product Icons"><g data-name="colored-32/quotas"><g><path d="M6,2H4V20.58A1.31,1.31,0,0,0,5.29,22H18.73A1.29,1.29,0,0,0,20,20.58V2l-2,.14V20H6Z" class="cls-1"/><path id="Path-2" d="M12,22h6.73A1.29,1.29,0,0,0,20,20.58V2H18V20H12v2Z" class="cls-2" data-name="Path"/><rect id="Rectangle-328" width="10" height="7" x="7" y="12" class="cls-1"/><rect id="Rectangle-328-2" width="5" height="7" x="12" y="12" class="cls-2" data-name="Rectangle-328"/></g></g><rect width="1" height="3" x="7" y="3" class="cls-1"/><rect width=".5" height="3" x="7.5" y="3" class="cls-2"/><rect width="1" height="3" x="10" y="3" class="cls-1"/><rect width="1" height="3" x="13" y="3" class="cls-1"/><rect width="1" height="3" x="16" y="3" class="cls-1"/><rect width=".5" height="3" x="10.5" y="3" class="cls-2"/><rect width=".5" height="3" x="13.5" y="3" class="cls-2"/><rect width=".5" height="3" x="16.5" y="3" class="cls-2"/></g></svg>