<svg xmlns="http://www.w3.org/2000/svg" xmlns:xlink="http://www.w3.org/1999/xlink" id="Layer_1" enable-background="new 0 0 50 50" version="1.1" viewBox="0 0 50 50" xml:space="preserve"><g><path fill="#656766" d="M39.14734,49H10.8526c-1.92544,0-3.48632-1.56087-3.48632-3.48632V4.48632 C7.36629,2.56088,8.92716,1,10.8526,1h28.29473c1.92544,0,3.48632,1.56088,3.48632,3.48632v41.02737 C42.63366,47.43913,41.07278,49,39.14734,49z"/><path fill="#4E4C4D" d="M33.77866,35.75837c0,5.46169-4.99837,9.74841-10.66491,8.57496 c-3.33184-0.68998-6.02128-3.39069-6.70137-6.72456c-0.30998-1.51954-0.22741-2.99221,0.16623-4.33204 c0.90659-3.08573,0.71366-6.45931-1.16862-9.06712c-1.69364-2.34646-2.54784-5.3425-2.12148-8.5431 c0.70616-5.30107,5.08464-9.5657,10.4024-10.13264C30.81897,4.77393,36.8222,10.33885,36.8222,17.2933 c0,2.62111-0.8518,5.04362-2.29322,7.00536c-1.85162,2.52001-2.16754,5.7397-1.18914,8.70983 C33.62476,33.87344,33.77866,34.79826,33.77866,35.75837z"/><circle cx="25" cy="17.299" r="7.515" fill="#D2D2D2"/><circle cx="25" cy="35.751" r="6.019" fill="#D2D2D2"/><g><g><circle cx="39.9" cy="4.002" r=".784" fill="#4E4C4D"/><circle cx="39.9" cy="25" r=".784" fill="#4E4C4D"/><circle cx="39.9" cy="45.998" r=".784" fill="#4E4C4D"/></g><g><circle cx="10.1" cy="4.002" r=".784" fill="#4E4C4D"/><circle cx="10.1" cy="25" r=".784" fill="#4E4C4D"/><circle cx="10.1" cy="45.998" r=".784" fill="#4E4C4D"/></g></g></g></svg>