<svg xmlns="http://www.w3.org/2000/svg" xmlns:xlink="http://www.w3.org/1999/xlink" id="Layer_1" version="1.1" viewBox="0 0 50 50" xml:space="preserve" style="enable-background:new 0 0 50 50"><style type="text/css">.st0{fill:#b7c5fd}.st1{fill:#9aadfd}.st2{fill:#fff}.st3{fill:#3955d1}.st4{fill:#4466fb}.st5{fill:#aabafd}.st6{fill:#798ffe}.st7{fill:#6bb5fb}.st8{enable-background:new}.st9{fill:#1b2a4f}</style><g><g><path d="M40.92025,1.0683c-0.18382-0.10684-0.4383-0.09191-0.71893,0.07011L8.41569,19.48986 c-0.55993,0.32328-1.01141,1.10526-1.00958,1.74605l0.05425,26.27869c0.00089,0.31801,0.11328,0.54198,0.29469,0.64742 l1.32443,0.76966c-0.18143-0.10542-0.29379-0.32939-0.29471-0.64742L8.73051,22.00557 c-0.00181-0.64079,0.44968-1.42277,1.00961-1.74605L41.52575,1.90807c0.28063-0.16202,0.53511-0.17692,0.71893-0.07011 L40.92025,1.0683z" class="st0"/><g><path d="M41.52575,1.90808c0.55766-0.32196,1.01209-0.063,1.0139,0.57779l0.05424,26.27869 c0.00182,0.6408-0.44967,1.42278-1.00732,1.74475L9.80094,48.86075c-0.55993,0.32328-1.01436,0.06432-1.01618-0.57648 L8.73052,22.00558c-0.00182-0.6408,0.44966-1.42278,1.00959-1.74606L41.52575,1.90808z" class="st1"/></g><g><g><polygon points="41.285 5.693 41.33 29.204 10.049 47.263 10.005 23.753" class="st2"/></g></g><g><g><path d="M37.43862,5.67588c0.2864-0.16535,0.51958-0.03247,0.52052,0.29663 C37.96007,6.3016,37.7284,6.70114,37.442,6.8665c-0.2849,0.16449-0.51808,0.03333-0.51901-0.29577 C36.92205,6.24163,37.15372,5.84037,37.43862,5.67588z" class="st2"/></g><g><path d="M40.76449,3.75607c0.2864-0.16535,0.51958-0.03247,0.52051,0.29663 c0.00093,0.3291-0.23074,0.72864-0.51714,0.89399c-0.2849,0.16449-0.51808,0.03333-0.51901-0.29577 C40.24792,4.32182,40.47959,3.92056,40.76449,3.75607z" class="st2"/></g><g><path d="M39.10155,4.71578c0.2864-0.16535,0.51958-0.03247,0.52052,0.29663 c0.00093,0.3291-0.23074,0.72864-0.51714,0.89399c-0.2864,0.16536-0.51808,0.03333-0.51901-0.29577 C38.58499,5.28154,38.81515,4.88114,39.10155,4.71578z" class="st2"/></g></g></g><g><g><g><path d="M16.17335,26.35378l3.16917-0.45514c-0.47799,1.74807-1.70967,3.50637-3.15815,4.34265L16.17335,26.35378z" class="st3"/></g><g><path d="M18.83965,22.43209c0.44771,0.39862,0.71431,1.07131,0.71686,1.96842 c0.00137,0.48449-0.07598,0.99122-0.21398,1.49813l-3.16917,0.45514L18.83965,22.43209z" class="st4"/></g><g><path d="M13.00417,26.80893l3.16918-0.45515l0.01102,3.88751c-1.86811,1.07856-3.3881,0.21235-3.39419-1.93424 C12.78882,27.82488,12.86416,27.31699,13.00417,26.80893z" class="st5"/></g><g><path d="M16.16233,22.46627l0.01102,3.88751l-3.16918,0.45515 C13.48216,25.06085,14.71383,23.30256,16.16233,22.46627z" class="st6"/></g><g><path d="M16.16233,22.46627c1.08738-0.6278,2.05739-0.59574,2.67732-0.03418l-2.6663,3.92168L16.16233,22.46627z" class="st7"/></g><g><path d="M25.25067,17.21911l0.00436,1.53692c-0.87555,0.5055-1.62019,1.56931-1.91019,2.62604l-1.25231,0.17969 C22.57051,19.81369,23.8042,18.05423,25.25067,17.21911z" class="st6"/></g><g><path d="M25.25067,17.21911c1.08939-0.62896,2.0574-0.59575,2.67934-0.03534l-1.05445,1.54917 c-0.37681-0.33739-0.96286-0.35661-1.62053,0.0231L25.25067,17.21911z" class="st7"/></g><g><path d="M27.17855,20.83117l1.25231-0.17969c-0.47799,1.74807-1.70967,3.50637-3.15815,4.34265l-0.00436-1.53692 C26.1439,22.95172,26.88855,21.88791,27.17855,20.83117z" class="st3"/></g><g><path d="M27.93001,17.18377c0.44568,0.39979,0.7123,1.07247,0.71485,1.96958 c0.00137,0.48449-0.07399,0.99007-0.214,1.49813l-1.25231,0.17969c0.084-0.30623,0.1296-0.61351,0.12877-0.9056 c-0.00154-0.54244-0.16232-0.94883-0.43176-1.19264L27.93001,17.18377z" class="st4"/></g><g><path d="M22.09252,21.56176l1.25231-0.17969c-0.084,0.30623-0.1296,0.61351-0.12877,0.9056 c0.00368,1.29816,0.92256,1.8218,2.05229,1.16955l0.00436,1.53692c-1.8681,1.07855-3.3881,0.21235-3.39419-1.93424 C21.87716,22.57772,21.95452,22.06867,22.09252,21.56176z" class="st5"/></g><g><path d="M34.46854,12.04577c0.91601-0.48706,1.77681-0.49876,2.37019-0.03099l-0.85522,1.25767 c-0.3888-0.28867-0.92426-0.28137-1.51143,0.02048L34.46854,12.04577z" class="st7"/></g><g><path d="M36.99472,12.15691c0.39923,0.40571,0.61118,1.03565,0.6134,1.8215 c0.00114,0.40336-0.05422,0.83469-0.16409,1.28124l-1.016,0.14543c0.06388-0.27836,0.09747-0.54852,0.09675-0.8012 c-0.00144-0.50767-0.13396-0.91877-0.38528-1.18929L36.99472,12.15691z" class="st4"/></g><g><path d="M34.21435,12.19253l0.00354,1.24716c-0.80479,0.51805-1.5274,1.51109-1.85384,2.54706l-1.01599,0.14773 C31.83652,14.51504,32.95365,12.97845,34.21435,12.19253z" class="st6"/></g><g><path d="M31.25805,16.46044l1.01598-0.14773c-0.06387,0.27835-0.09745,0.54852-0.09674,0.80119 c0.00377,1.32829,0.90459,1.89719,2.05472,1.30978l0.00354,1.24716c-1.72912,0.92168-3.13392,0.06095-3.13957-1.93265 C31.09484,17.33484,31.14818,16.90467,31.25805,16.46044z" class="st5"/></g><g><path d="M36.33802,15.7287l1.01802-0.14658c-0.48845,1.61944-1.6076,3.1572-2.8663,3.94196l-0.00354-1.24716 C35.29099,17.75655,36.01159,16.76468,36.33802,15.7287z" class="st3"/></g></g></g><g><g class="st8"><g><polygon points="16.687 37.75 16.699 40.786 15.651 41.39 15.639 38.355" class="st7"/></g><g><polygon points="17.727 35.381 17.746 40.181 16.699 40.786 16.68 35.986" class="st4"/></g></g><g><polygon points="20.382 37.707 20.39 38.654 19.343 39.259 19.334 38.312" class="st7"/></g><g><polygon points="21.422 36.033 21.437 38.05 20.39 38.654 20.375 36.637" class="st4"/></g><g><polygon points="25.099 28.976 25.129 35.918 24.081 36.523 24.052 29.581" class="st4"/></g><g><polygon points="24.059 32.04 24.081 36.523 23.034 37.128 23.012 32.645" class="st7"/></g><g class="st8"><g><polygon points="27.757 32.538 27.773 34.392 26.725 34.997 26.71 33.143" class="st7"/></g><g><polygon points="28.798 30.857 28.82 33.787 27.773 34.392 27.75 31.462" class="st4"/></g></g><g><polygon points="30.163 33.015 30.163 33.106 13.9 42.495 13.9 41.96 13.608 42.133 13.608 42.036 13.9 41.869 13.9 41.341 13.608 41.515 13.608 41.411 13.9 41.244 13.9 40.716 13.608 40.882 13.608 40.792 13.9 40.625 13.9 40.09 13.608 40.257 13.608 40.16 13.9 39.986 13.893 39.465 13.601 39.638 13.601 39.534 13.893 39.36 13.893 38.839 13.601 39.013 13.601 38.909 13.893 38.742 13.893 38.214 13.601 38.374 13.601 38.29 13.893 38.116 13.893 37.595 13.601 37.755 13.601 37.658 13.893 37.484 13.893 36.963 13.601 37.13 13.601 37.025 13.893 36.865 13.886 36.33 13.594 36.504 13.594 36.4 13.886 36.24 13.886 35.705 13.594 35.872 13.594 35.781 13.886 35.614 13.886 35.086 13.594 35.253 13.594 35.149 13.886 34.975 13.886 34.454 13.594 34.628 13.594 34.53 13.976 34.308 13.997 42.349" class="st9"/></g></g><g><g><polygon points="39.284 24.997 39.286 25.782 32.568 29.661 32.565 28.876" class="st1"/></g><g><polygon points="35.599 28.834 35.602 29.613 32.572 31.362 32.57 30.583" class="st1"/></g><g><polygon points="37.435 24.361 37.437 25.146 32.563 27.96 32.561 27.175" class="st1"/></g><g><polygon points="39.275 21.594 39.277 22.379 32.558 26.259 32.556 25.473" class="st1"/></g></g></g></svg>