<svg xmlns="http://www.w3.org/2000/svg" xmlns:xlink="http://www.w3.org/1999/xlink" id="Layer_1" version="1.1" viewBox="0 0 50 50" xml:space="preserve" style="enable-background:new 0 0 50 50"><style type="text/css">.st0{fill:#b7c5fd}.st1{fill:#9aadfd}.st2{fill:#fff}.st3{fill:#3955d1}.st4{fill:#4466fb}.st7{fill:#6bb5fb}.st8{enable-background:new}.st9{fill:#1b2a4f}.st11{fill:#384e85}.st12{fill:#2e4277}.st13{fill:#d9ddf6}.st17{fill:#8ca1fd}</style><g><g><g><g><path d="M22.45862,37.09455l-0.00506,1.17267c-0.00048,0.20247-0.13353,0.40445-0.39915,0.55872l-5.96655,3.46751 c-0.53485,0.31069-1.40474,0.31094-1.94297,0l-6.0056-3.46727c-0.27092-0.15643-0.40614-0.36155-0.40566-0.56667 l0.00506-1.17146c0,0.2044,0.13522,0.40928,0.40542,0.56522l6.0056,3.46751c0.53847,0.3107,1.40836,0.3107,1.94321-0.00024 l5.96655-3.46727C22.32509,37.49877,22.45814,37.29678,22.45862,37.09455z" class="st12"/><path d="M22.0531,36.52785c0.53831,0.31079,0.54115,0.81458,0.00633,1.12538l-5.96659,3.4674 c-0.53481,0.3108-1.4047,0.31089-1.94301,0.0001L8.1442,37.65339c-0.53831-0.31079-0.541-0.81467-0.00618-1.12547 l5.96659-3.46741c0.53481-0.3108,1.40455-0.3108,1.94286-0.00001L22.0531,36.52785z" class="st11"/><g><path d="M19.71953,36.84168c0.23812,0.13748,0.23921,0.36027,0.00264,0.49775l-4.1788,2.42845 c-0.23657,0.13748-0.62119,0.13758-0.85931,0.0001l-4.20613-2.42841c-0.23812-0.13748-0.23937-0.36036-0.0028-0.49784 l4.1788-2.42846c0.23657-0.13748,0.62135-0.13748,0.85947,0L19.71953,36.84168z" class="st12"/></g></g></g></g><g><g><g class="st8"><g><polygon points="10.349 3.348 10.347 6.582 7.736 8.1 7.738 4.865" class="st3"/></g><g><polygon points="7.738 4.865 7.736 8.1 5.105 6.581 5.107 3.347" class="st4"/></g><g><polygon points="10.349 3.348 7.738 4.865 5.107 3.347 7.718 1.829" class="st7"/></g></g></g></g><g><g><g><g><polygon points="14.654 25.927 14.717 26.006 15.096 25.797 13.56 23.917 14.582 23.788 14.621 23.766 14.685 23.844 15.063 23.636 13.522 21.747 14.589 21.612 14.628 21.59 14.691 21.669 15.07 21.46 13.528 19.572 14.595 19.436 14.634 19.415 14.698 19.493 15.076 19.285 13.535 17.396 14.602 17.261 14.641 17.239 14.704 17.318 15.083 17.109 13.541 15.22 14.608 15.085 14.647 15.063 14.711 15.142 15.089 14.933 13.548 13.045 14.615 12.91 14.654 12.888 14.717 12.966 15.096 12.758 13.45 10.742 13.072 10.95 14.547 12.758 13.377 12.906 12.999 13.115 13.268 13.08 13.102 13.171 14.541 14.933 13.371 15.082 12.992 15.29 13.261 15.256 13.096 15.347 14.534 17.109 13.364 17.257 12.986 17.466 13.255 17.432 13.089 17.522 14.528 19.285 13.358 19.433 12.979 19.641 13.248 19.607 13.083 19.698 14.521 21.46 13.351 21.608 12.973 21.817 13.242 21.783 13.076 21.874 14.515 23.636 13.382 23.78 13.004 23.987 13.096 23.976 13.072 23.989 14.547 25.797 13.377 25.945 12.999 26.154 13.268 26.12 13.102 26.211 14.541 27.973 13.371 28.121 12.992 28.33 13.261 28.295 13.096 28.386 14.534 30.148 13.364 30.297 12.986 30.505 13.255 30.471 13.089 30.562 14.528 32.324 13.358 32.472 12.979 32.681 13.248 32.647 13.083 32.737 14.521 34.499 13.351 34.648 12.973 34.856 13.242 34.822 13.076 34.913 14.515 36.675 13.382 36.819 13.004 37.027 14.582 36.827 14.621 36.805 14.685 36.884 15.063 36.675 13.522 34.787 14.589 34.651 14.628 34.63 14.691 34.708 15.07 34.499 13.528 32.611 14.595 32.476 14.634 32.454 14.698 32.532 15.076 32.324 13.535 30.435 14.602 30.3 14.641 30.278 14.704 30.357 15.083 30.148 13.541 28.26 14.608 28.125 14.647 28.103 14.711 28.181 15.089 27.973 13.548 26.084 14.615 25.949" class="st11"/><polygon points="16.912 34.856 16.643 34.822 16.809 34.913 15.369 36.675 16.503 36.819 16.881 37.027 15.303 36.827 15.264 36.805 15.2 36.883 14.822 36.675 16.364 34.786 15.297 34.651 15.257 34.629 15.194 34.708 14.815 34.499 16.358 32.611 15.29 32.476 15.251 32.454 15.187 32.533 14.809 32.324 16.35 30.436 15.283 30.3 15.244 30.279 15.18 30.357 14.802 30.149 16.344 28.26 15.277 28.125 15.238 28.103 15.174 28.181 14.796 27.973 16.338 26.084 15.271 25.949 15.231 25.927 15.168 26.006 14.789 25.797 16.325 23.917 15.303 23.788 15.264 23.766 15.2 23.845 14.822 23.635 16.364 21.747 15.297 21.612 15.257 21.59 15.194 21.669 14.815 21.46 16.358 19.572 15.29 19.436 15.251 19.415 15.187 19.493 14.809 19.285 16.35 17.396 15.283 17.261 15.244 17.239 15.18 17.317 14.802 17.109 16.344 15.22 15.277 15.086 15.238 15.064 15.174 15.142 14.796 14.933 16.338 13.045 15.271 12.91 15.231 12.888 15.168 12.967 14.789 12.757 16.436 10.742 16.814 10.95 15.338 12.757 16.508 12.906 16.886 13.114 16.617 13.08 16.783 13.171 15.344 14.933 16.514 15.082 16.893 15.29 16.624 15.256 16.789 15.347 15.35 17.109 16.521 17.257 16.899 17.466 16.63 17.432 16.795 17.523 15.357 19.285 16.528 19.432 16.906 19.642 16.637 19.607 16.802 19.698 15.364 21.46 16.534 21.608 16.912 21.817 16.643 21.783 16.809 21.873 15.369 23.635 16.503 23.779 16.881 23.988 16.79 23.976 16.814 23.989 15.338 25.797 16.508 25.946 16.886 26.154 16.617 26.12 16.783 26.211 15.344 27.973 16.514 28.121 16.893 28.33 16.624 28.296 16.789 28.386 15.35 30.149 16.521 30.296 16.899 30.505 16.63 30.471 16.795 30.561 15.357 32.324 16.528 32.472 16.906 32.68 16.637 32.646 16.802 32.737 15.364 34.499 16.534 34.648" class="st11"/><g><g><g><g class="st8"><g><polygon points="14.718 26.006 13.103 26.211 14.711 28.181 13.096 28.386 14.704 30.356 13.09 30.562 14.698 32.532 13.083 32.738 14.692 34.708 13.077 34.913 14.685 36.883 13.032 37.093 13.004 37.027 14.582 36.827 12.972 34.856 14.588 34.651 12.979 32.68 14.595 32.476 12.986 30.505 14.602 30.3 12.993 28.33 14.608 28.125 12.999 26.154 14.614 25.949 13.065 24.05 13.032 24.054 13.004 23.988 14.582 23.788 12.972 21.817 14.588 21.612 12.979 19.642 14.595 19.436 12.986 17.466 14.602 17.261 12.993 15.29 14.608 15.085 12.999 13.115 14.614 12.91 13.043 10.985 13.071 10.95 14.718 12.966 13.103 13.172 14.711 15.142 13.096 15.347 14.704 17.317 13.09 17.523 14.698 19.493 13.083 19.698 14.692 21.668 13.077 21.874 14.685 23.844 13.114 24.043" class="st9"/></g></g></g></g><g><g><g class="st8"><g><polygon points="16.912 34.856 15.303 36.827 16.881 37.027 16.853 37.093 15.2 36.883 16.809 34.913 15.193 34.708 16.802 32.738 15.187 32.532 16.795 30.562 15.18 30.356 16.789 28.386 15.174 28.181 16.782 26.211 15.167 26.006 16.77 24.043 15.2 23.844 16.809 21.874 15.193 21.668 16.802 19.698 15.187 19.493 16.795 17.523 15.18 17.317 16.789 15.347 15.174 15.142 16.782 13.172 15.167 12.966 16.814 10.95 16.842 10.985 15.271 12.91 16.887 13.115 15.277 15.085 16.892 15.29 15.284 17.261 16.899 17.466 15.29 19.436 16.906 19.642 15.297 21.612 16.912 21.817 15.303 23.788 16.881 23.988 16.853 24.054 16.821 24.05 15.271 25.949 16.887 26.154 15.277 28.125 16.892 28.33 15.284 30.3 16.899 30.505 15.29 32.476 16.906 32.68 15.297 34.651" class="st9"/></g></g></g></g></g><g><g><g><g class="st8"><g><polygon points="14.636 23.638 14.943 23.494 15.249 23.637 14.943 23.781" class="st11"/></g></g></g><g><g class="st8"><g><polygon points="16.453 22.783 16.759 22.639 17.066 22.782 16.76 22.926" class="st11"/></g><g><polygon points="16.759 24.272 16.759 37.703 16.45 37.56 16.45 24.129" class="st12"/></g></g></g><g><g class="st8"><g><polygon points="13.432 22.783 13.126 22.639 12.819 22.782 13.125 22.926" class="st11"/></g></g></g></g></g><g><g><g class="st8"><g><polygon points="15.251 10.598 15.251 38.634 14.942 38.783 14.942 10.741" class="st9"/></g><g><polygon points="14.636 10.599 14.943 10.454 15.249 10.598 14.943 10.742" class="st11"/></g><g><polygon points="14.942 10.741 14.942 38.783 14.633 38.634 14.64 10.598" class="st12"/></g></g></g><g><g class="st8"><g><polygon points="17.068 9.745 17.068 37.56 16.759 37.703 16.759 9.888" class="st9"/></g><g><polygon points="16.453 9.744 16.759 9.599 17.066 9.743 16.76 9.887" class="st11"/></g><g><polygon points="16.759 9.888 16.759 24.272 16.45 24.129 16.45 9.745" class="st12"/></g></g></g><g><g class="st8"><g><polygon points="13.124 9.888 13.124 37.703 12.822 37.56 12.822 9.745" class="st9"/></g><g><polygon points="13.432 9.744 13.126 9.599 12.819 9.743 13.125 9.887" class="st11"/></g><g><polygon points="13.433 9.745 13.433 37.56 13.124 37.703 13.124 9.888" class="st12"/></g></g></g></g></g></g></g><g><g><g class="st8"><polygon points="14.955 9.197 14.952 12.035 18.121 10.193 18.123 7.355" class="st17"/><g><polygon points="14.955 9.197 14.952 12.035 11.761 10.192 11.763 7.354" class="st0"/></g><g><polygon points="18.123 7.355 14.955 9.197 11.763 7.354 14.931 5.513" class="st13"/></g></g></g></g></g><g><path d="M23.11566,15.23344c0.12156-0.07065,0.28984-0.06078,0.47541,0.04636l21.01912,12.13539 c0.37027,0.21378,0.66882,0.73088,0.66761,1.15462l-0.03587,17.3775c-0.00059,0.21029-0.07491,0.3584-0.19487,0.42813 l-0.87581,0.50896c0.11997-0.06971,0.19428-0.21782,0.19488-0.42813l0.03587-17.3775 c0.00119-0.42374-0.29736-0.94085-0.66763-1.15462L22.71525,15.78876c-0.18557-0.10714-0.35385-0.117-0.47541-0.04636 L23.11566,15.23344z" class="st0"/><g><path d="M22.71526,15.78876c-0.36877-0.21291-0.66927-0.04166-0.67047,0.38208l-0.03587,17.3775 c-0.0012,0.42374,0.29735,0.94085,0.66612,1.15376L43.69415,46.8375c0.37027,0.21378,0.67078,0.04253,0.67197-0.38121 l0.03587-17.3775c0.0012-0.42374-0.29735-0.94085-0.66762-1.15463L22.71526,15.78876z" class="st1"/></g><g><g><polygon points="22.874 18.292 22.845 33.839 43.53 45.781 43.559 30.234" class="st13"/></g></g><g><g><path d="M25.41798,18.28033c-0.18939-0.10934-0.34359-0.02147-0.3442,0.19615 c-0.00062,0.21762,0.15258,0.48183,0.34197,0.59118c0.1884,0.10877,0.34259,0.02204,0.34321-0.19559 C25.75958,18.65444,25.60638,18.3891,25.41798,18.28033z" class="st2"/></g><g><path d="M23.21866,17.0108c-0.18939-0.10934-0.34359-0.02147-0.3442,0.19615 c-0.00062,0.21762,0.15258,0.48183,0.34197,0.59117c0.1884,0.10877,0.34259,0.02204,0.34321-0.19558 C23.56026,17.38492,23.40706,17.11957,23.21866,17.0108z" class="st2"/></g><g><path d="M24.31832,17.64544c-0.18939-0.10934-0.34359-0.02147-0.3442,0.19615 c-0.00062,0.21762,0.15258,0.48183,0.34197,0.59117c0.18939,0.10935,0.34259,0.02204,0.34321-0.19558 C24.65992,18.01956,24.50772,17.75478,24.31832,17.64544z" class="st2"/></g></g></g><g><g><g><g><g class="st8"><g><path d="M32.60081,25.22895l0.25019,0.14539c0.15643-0.04904,0.29627-0.03769,0.40577,0.02595l-0.25019-0.14539 C32.89708,25.19126,32.75725,25.1799,32.60081,25.22895z" class="st11"/><polygon points="32.474 26.002 32.468 23.669 32.846 23.451 32.596 23.305 32.217 23.524 32.223 25.856" class="st11"/></g></g></g><g><path d="M33.12336,26.15359c-0.0004-0.14393-0.05146-0.24519-0.13359-0.29291l-0.2502-0.1454 c0.08216,0.04775,0.13319,0.14898,0.13359,0.29291c0.00055,0.19019-0.09212,0.40373-0.22391,0.57278 c0.07315,0.06232,0.13967,0.13544,0.19312,0.22184C33.0076,26.62745,33.12397,26.37209,33.12336,26.15359z" class="st13"/></g><g><path d="M33.50074,25.9357c-0.0013-0.45444-0.27889-0.67763-0.64973-0.56134l-0.00484-1.92362l-0.3785,0.21852 l0.00599,2.33251l0.18924-0.10929c0.25271-0.1459,0.45963-0.02926,0.46046,0.26112 c0.00064,0.2185-0.11574,0.47385-0.28099,0.64921c0.06546,0.10583,0.10684,0.22042,0.127,0.3347 C33.28066,26.81775,33.5019,26.34286,33.50074,25.9357z" class="st9"/></g></g><g><g class="st8"><g><path d="M33.19012,27.35506l-0.33029,0.19344c-0.0802,0.0472-0.19347,0.03775-0.31612-0.03303 c-0.24537-0.14155-0.44353-0.48598-0.43883-0.7691c0-0.13682,0.0472-0.2312,0.1274-0.27837l0.33029-0.19347 c-0.0802,0.0472-0.1274,0.14157-0.1274,0.2784c0,0.28309,0.19816,0.62755,0.44353,0.7691 C33.00138,27.39281,33.10989,27.40223,33.19012,27.35506z" class="st13"/><path d="M39.11047,30.07537l-0.00945,4.18047c-0.00472,0.21233-0.07548,0.36332-0.19816,0.42936l-0.33029,0.19347 c0.11796-0.06607,0.19347-0.21706,0.19347-0.42939l0.01414-4.18047c0-0.42464-0.29726-0.94367-0.67-1.16073l-11.12353-6.42202 c-0.18402-0.10379-0.35388-0.11324-0.47656-0.04245l0.33501-0.19347c0.12268-0.07079,0.28781-0.06134,0.47184,0.04248 l11.12353,6.42202C38.81321,29.13169,39.11047,29.6507,39.11047,30.07537z" class="st7"/></g><g><path d="M38.10859,29.10968c0.37353,0.21566,0.67076,0.73403,0.66956,1.15981l-0.01184,4.17815 c-0.00122,0.42922-0.3004,0.59981-0.67394,0.38414l-11.1227-6.42169c-0.36755-0.21221-0.66786-0.72891-0.66665-1.15813 l0.01184-4.17816c0.00121-0.42578,0.30347-0.59803,0.67102-0.38583L38.10859,29.10968z M32.54411,27.51626 c0.24706,0.14264,0.44353,0.02381,0.44432-0.25655c0.00079-0.28045-0.19439-0.61851-0.44144-0.76115 c-0.24399-0.14087-0.44344-0.03064-0.44423,0.24981C32.10197,27.02873,32.30013,27.37539,32.54411,27.51626" class="st4"/></g></g></g><path d="M32.64925,26.58096c-0.06944,0.08905-0.14635,0.16925-0.23353,0.21959 c-0.06652,0.03839-0.13063,0.05722-0.18938,0.0601l0.0091-0.00921l-0.2502-0.1454l-0.35313,0.35779 c0.04245,0.10379,0.10753,0.18002,0.18875,0.22722l0.2502,0.1454c-0.08121-0.0472-0.1463-0.12343-0.18875-0.22722 l0.31252-0.31667l0.14434,0.08389c0.08519,0.0495,0.20263,0.04112,0.32672-0.03053 c0.06258-0.03611,0.12211-0.08545,0.17648-0.14313C32.78893,26.7164,32.7224,26.64328,32.64925,26.58096z" class="st11"/><path d="M32.6659,26.94596c-0.18926,0.10926-0.36301,0.07133-0.43045-0.09452l-0.35316,0.35779 c0.12346,0.30175,0.43809,0.37055,0.78485,0.17034c0.10693-0.06174,0.2083-0.14558,0.30224-0.24208 c-0.02016-0.11427-0.06154-0.22886-0.127-0.3347C32.78801,26.86048,32.72848,26.90981,32.6659,26.94596z" class="st9"/></g><g><g><polygon points="27.222 25.393 27.206 27.86 38.077 34.136 38.092 31.67" class="st2"/></g></g><g><g><g><path d="M37.79149,29.92321c-0.16717-0.09652-0.30327-0.01895-0.30382,0.17314s0.13468,0.4253,0.30185,0.52181 c0.16629,0.09601,0.30239,0.01945,0.30294-0.17264S37.95779,30.01922,37.79149,29.92321z" class="st2"/></g><g><path d="M35.85022,28.80264c-0.16717-0.09652-0.30327-0.01895-0.30382,0.17314s0.13468,0.4253,0.30185,0.52181 c0.16629,0.09601,0.30239,0.01945,0.30294-0.17264C36.15173,29.13286,36.01651,28.89865,35.85022,28.80264z" class="st2"/></g><g><path d="M36.82085,29.36281c-0.16717-0.09652-0.30327-0.01895-0.30382,0.17314s0.13468,0.4253,0.30185,0.52181 s0.30239,0.01945,0.30294-0.17264S36.98803,29.45933,36.82085,29.36281z" class="st2"/></g></g></g></g><g><g><g><g><g><g><g class="st8"><g><polygon points="33.703 23.04 34.414 22.627 33.496 24.257 32.785 24.67" class="st9"/></g><g><polygon points="33.082 21.555 33.792 21.142 34.414 22.627 33.703 23.04" class="st9"/></g><g><polygon points="31.518 20.652 32.228 20.239 33.792 21.142 33.082 21.555" class="st11"/></g><g><polygon points="33.082 21.555 33.703 23.04 32.785 24.67 31.794 24.098 30.89 21.416 31.518 20.652" class="st12"/></g></g></g></g><g><g class="st8"><path d="M32.9235,18.19823c0.01891,0.01937,0.01891,0.03782,0,0.07564v2.63007 c0,0.03782-0.01891,0.07472-0.05662,0.11346c-0.11335,0.05627-0.26451,0.05627-0.35895,0 c-0.05673-0.03874-0.07564-0.07564-0.07564-0.11346v-2.68633c0-0.03782,0.01891-0.07564,0.07564-0.11346 c0.09444-0.05627,0.2456-0.05627,0.35895,0C32.9235,18.14197,32.94241,18.16042,32.9235,18.19823z" class="st12"/></g></g></g></g></g></g><g><g><polygon points="32.886 17.786 33.792 17.259 33.79 18.187 32.884 18.714" class="st9"/></g><g><polygon points="4.725 1.527 5.631 1 33.792 17.259 32.886 17.786" class="st11"/></g><g><polygon points="32.886 17.786 32.884 18.714 4.722 2.455 4.725 1.527" class="st12"/></g></g><g><g><g class="st8"><g><path d="M27.20478,43.6504v1.14552c0,0.10543-0.0703,0.20383-0.20383,0.28816l-3.41545,1.98177 c-0.27409,0.15463-0.71684,0.15463-0.99792,0l-3.42952-1.98177c-0.14056-0.08433-0.21082-0.18976-0.21082-0.29519 l0.00699-1.14552c0,0.10543,0.0703,0.21087,0.20383,0.2952l3.43655,1.97478c0.27405,0.16162,0.72383,0.16162,0.99089,0.00703 l3.41545-1.98885C27.14151,43.85423,27.20478,43.75584,27.20478,43.6504z" class="st4"/></g><g><path d="M26.99587,43.35734c0.27818,0.16061,0.27965,0.41967,0.00772,0.57769l-3.41466,1.98438 c-0.27193,0.15803-0.71917,0.15802-0.99735-0.00259l-3.43252-1.98176c-0.27371-0.15803-0.27518-0.41708-0.00325-0.57511 l3.41466-1.98438c0.27192-0.15802,0.71917-0.15802,0.99288,0L26.99587,43.35734z" class="st7"/></g><g><polygon points="23.526 42.497 24.34 44.343 21.152 43.877" class="st2"/></g></g></g></g><g><g><g class="st8"><g><path d="M36.66872,45.46858v1.14552c0,0.10543-0.0703,0.20383-0.20383,0.28816l-3.41545,1.98177 c-0.27409,0.15463-0.71684,0.15463-0.99792,0L28.622,46.90226c-0.14056-0.08433-0.21082-0.18976-0.21082-0.2952 l0.00699-1.14552c0,0.10543,0.0703,0.21087,0.20383,0.29519l3.43655,1.97478c0.27405,0.16162,0.72383,0.16162,0.99089,0.00703 l3.41545-1.98885C36.60545,45.67241,36.66872,45.57401,36.66872,45.46858z" class="st17"/></g><g><path d="M36.45982,45.17552c0.27818,0.16061,0.27965,0.41967,0.00772,0.57769l-3.41466,1.98438 c-0.27193,0.15803-0.71917,0.15802-0.99735-0.00258l-3.43252-1.98177c-0.27371-0.15802-0.27518-0.41708-0.00325-0.57511 l3.41466-1.98438c0.27193-0.15802,0.71917-0.15802,0.99288,0L36.45982,45.17552z" class="st0"/></g></g></g></g><g><path d="M27.84153,30.8412l-2.8033-1.6185c-0.35728-0.20621-0.80388,0.05108-0.80466,0.46356l-0.00537,2.79812 c-0.00072,0.38406,0.20385,0.73918,0.53644,0.93118l2.8033,1.6185c0.35728,0.20628,0.80388-0.05101,0.80466-0.46356 l0.00537-2.79812C28.37869,31.38838,28.17412,31.0332,27.84153,30.8412z" class="st7"/><path d="M34.13926,34.47722l-2.8033-1.6185c-0.35728-0.20621-0.80388,0.05108-0.80467,0.46356l-0.00537,2.79813 c-0.00072,0.38406,0.20385,0.73918,0.53644,0.93118l2.8033,1.6185c0.35728,0.20628,0.80388-0.05101,0.80466-0.46356 l0.00537-2.79812C34.67642,35.02441,34.47185,34.66922,34.13926,34.47722z" class="st4"/><path d="M40.43699,38.11325l-2.8033-1.6185c-0.35728-0.20621-0.80388,0.05107-0.80467,0.46356l-0.00537,2.79812 c-0.00072,0.38406,0.20385,0.73918,0.53644,0.93118l2.8033,1.6185c0.35728,0.20627,0.80388-0.05101,0.80467-0.46356 l0.00537-2.79813C40.97415,38.66043,40.76958,38.30525,40.43699,38.11325z" class="st3"/></g></g></svg>