<svg xmlns="http://www.w3.org/2000/svg" xmlns:xlink="http://www.w3.org/1999/xlink" id="Layer_1" version="1.1" viewBox="0 0 50 50" xml:space="preserve" style="enable-background:new 0 0 50 50"><style type="text/css">.st0{fill:#b7c5fd}.st1{fill:#9aadfd}.st2{fill:#fff}.st4{fill:#4466fb}.st5{fill:#aabafd}.st7{fill:#6bb5fb}.st8{enable-background:new}.st17{fill:#8ca1fd}</style><g><g><g><g><polygon points="42.899 1.65 42.976 28.866 8.163 48.966 8.086 21.75" class="st0"/></g><g><polygon points="42.892 1.654 41.837 1.034 7.024 21.127 7.105 48.343 8.163 48.965 8.086 21.75" class="st1"/></g><g><g class="st8"><g><polygon points="25.484 22.329 42.976 28.866 8.163 48.966" class="st5"/></g><g><polygon points="25.478 20 42.976 28.866 25.484 22.329 8.163 48.966 42.938 28.866 8.163 48.966" class="st17"/></g></g></g><g><g><polygon points="42.899 1.65 25.578 28.287 8.086 21.75" class="st0"/></g><g><polygon points="42.899 1.65 25.584 30.383 8.086 21.75 25.578 28.287" class="st5"/></g></g></g><g><g><path d="M31.71483,2.17866c-1.31689-0.77021-3.15544-0.67073-5.16792,0.49694 c-4.0001,2.33549-7.23014,7.90087-7.20527,12.52211c0,2.2859,0.79508,3.90077,2.11196,4.64626l-1.12907-0.65661 c-1.31674-0.74549-2.11181-2.36036-2.11181-4.64611c-0.02487-4.62139,3.20502-10.18677,7.20512-12.52226 c2.03736-1.1428,3.85118-1.26715,5.16792-0.49694L31.71483,2.17866z" class="st7"/></g><g><g><ellipse cx="26.581" cy="11.013" class="st4" rx="10.219" ry="5.919" transform="matrix(0.50245 -0.86461 0.86461 0.50245 3.70372 28.4616)"/></g><g><g><path d="M27.1367,6.97641c1.85592-1.07152,3.09955-0.18279,3.10515,1.79229 c0.00499,1.76162-0.8672,3.17026-1.69145,3.64614c-0.55191,0.31864-0.86699,0.05839-0.89718-0.39955l-0.00022-0.07668 c-0.3429,0.76261-0.93146,1.53213-1.55912,1.89451c-0.91443,0.52795-1.50633,0.12236-1.50943-0.97191 c-0.00445-1.57095,1.14267-3.49953,2.30059-4.16806c0.63848-0.36863,1.07247-0.22269,1.26142,0.15397l0.12607-0.77444 l0.66734-0.38529l-0.55044,3.38387c-0.01064,0.07257-0.02117,0.18037-0.02098,0.24876 c0.00106,0.37305,0.20908,0.46676,0.46519,0.3189c0.38237-0.22076,1.06814-1.11283,1.06372-2.67134 c-0.00525-1.85281-1.11828-2.55537-2.79023-1.59007c-1.90462,1.09963-3.52058,3.96733-3.5146,6.0792 c0.00512,1.80513,1.18861,2.5127,2.81908,1.57135c0.698-0.40299,1.2961-0.99534,1.82527-1.68697l0.17759,0.19224 c-0.60834,0.80377-1.31462,1.47103-2.04148,1.89068c-1.78738,1.03195-3.11743,0.24916-3.12309-1.74872 C23.24298,11.23806,25.0932,8.15622,27.1367,6.97641z M27.74852,11.22541l0.28052-1.7334 c-0.10741-0.28882-0.4334-0.57598-1.01417-0.24068c-0.98117,0.56648-1.72484,2.06076-1.72174,3.15504 c0.00205,0.7233,0.36608,1.04455,1.00456,0.67593C26.96503,12.69701,27.4649,11.86453,27.74852,11.22541" class="st2"/></g></g></g></g></g></g></svg>