<svg xmlns="http://www.w3.org/2000/svg" xmlns:xlink="http://www.w3.org/1999/xlink" id="Layer_1" version="1.1" viewBox="0 0 50 50" xml:space="preserve" style="enable-background:new 0 0 50 50"><style type="text/css">.st0{fill:#b7c5fd}.st3{fill:#3955d1}.st4{fill:#4466fb}.st7{fill:#6bb5fb}.st8{enable-background:new}.st13{fill:#d9ddf6}</style><g><g><g><path d="M41.4398,28.69398c-0.62628-2.02285-0.35862-4.87265-1.64568-9.46048 c-0.85253-3.03888-3.83714-3.51923-3.83714-3.51923c2.5117,1.90525,0.40184,3.55971,0.40184,3.55971 c-1.70803,0.65112-1.77503-0.13418-2.07642-6.57061c-0.30145-6.43632-4.28109-4.83351-4.28109-4.83351 c1.95172,1.35906,0.36938,3.91845,0.36938,3.91845c-1.59246,2.15511-1.36086,3.49655-1.36086,3.49655 c-3.96667-3.15113-1.21604-6.61569-1.21604-6.61569c-3.93776,0.7536-2.60587,6.5495-2.60587,6.5495 c-3.35865-1.72449-2.25841-4.15796-2.89545-7.98446c-0.63693-3.82644-2.82473-3.08878-2.82473-3.08878 c1.62992,2.18071-0.88527,3.00828-0.88527,3.00828c-0.30186-0.88056-0.7244-1.7916-1.81091-2.86998 C15.68498,3.20537,15.84597,1,15.84597,1c-0.76465,0.92686-1.46893,3.17631-0.74458,4.20362 c0.7244,1.02736,0.88539,2.94506,0.88539,2.94506c0,3.37895-2.63593,2.32582-2.63593,2.32582 c-2.51519-2.33024-1.14683-5.39779-1.14683-5.39779c-2.92802,1.38668-1.94271,6.10259-1.94271,6.10259 c-2.03431,1.76543-1.61514,3.27839-1.38593,3.78451l30.07534,17.36404C41.6857,32.38676,41.4398,28.69398,41.4398,28.69398z" class="st0"/><g><g><polygon points="38.246 30.55 38.194 49 8.554 31.888 8.607 13.438" class="st13"/><g class="st8"><g><polygon points="10.861 30.783 10.854 33.216 8.554 31.888 8.561 29.455" class="st4"/></g><g><polygon points="10.88 24.373 10.873 26.805 8.573 25.477 8.58 23.045" class="st4"/></g><g><polygon points="13.918 29.34 13.911 31.767 8.564 28.68 8.57 26.253" class="st4"/></g><g><polygon points="16.961 34.305 16.954 36.737 11.525 33.603 11.532 31.17" class="st4"/></g><g><polygon points="10.898 17.968 10.891 20.4 8.591 19.072 8.598 16.64" class="st4"/></g><g><polygon points="13.936 22.93 13.929 25.362 8.582 22.275 8.589 19.843" class="st4"/></g><g><polygon points="11.543 27.192 11.55 24.76 16.979 27.894 16.972 30.327" class="st4"/></g><g><polygon points="20.017 32.862 20.01 35.289 14.586 32.157 14.593 29.73" class="st4"/></g><g><polygon points="23.06 37.826 23.054 40.259 17.624 37.124 17.631 34.692" class="st4"/></g><polygon points="11.8 11.582 41.44 28.694 38.246 30.55 8.607 13.438" class="st13"/><g><polygon points="8.607 13.438 11.8 11.582 17.148 14.669 13.954 16.525" class="st7"/></g><g><polygon points="13.954 16.525 13.947 18.952 8.6 15.864 8.607 13.438" class="st4"/></g><g><polygon points="16.997 21.49 16.99 23.922 11.561 20.787 11.568 18.355" class="st4"/></g><g><polygon points="14.604 25.752 14.611 23.32 20.035 26.451 20.029 28.884" class="st4"/></g><g><polygon points="23.097 25.011 23.09 27.443 17.661 24.309 17.667 21.876" class="st4"/></g><g><polygon points="26.14 29.976 26.133 32.408 20.704 29.273 20.711 26.841" class="st4"/></g><g><polygon points="32.214 42.334 26.785 39.2 26.792 36.773 32.221 39.908" class="st4"/></g><g><polygon points="29.196 28.533 29.189 30.965 23.76 27.83 23.767 25.398" class="st4"/></g><g><polygon points="26.803 32.795 26.81 30.363 32.239 33.497 32.232 35.93" class="st4"/></g><g><polygon points="35.278 38.459 35.271 40.891 29.846 37.76 29.853 35.327" class="st4"/></g><g><polygon points="35.296 32.054 35.289 34.487 29.864 31.355 29.871 28.922" class="st4"/></g><g><polygon points="17.649 28.281 23.079 31.416 23.072 33.848 17.642 30.714" class="st4"/></g><g><polygon points="26.115 38.813 20.685 35.678 20.692 33.252 26.122 36.386" class="st4"/></g><g><polygon points="29.16 41.348 29.153 43.78 23.724 40.646 23.731 38.213" class="st4"/></g><g><polygon points="20.054 20.046 20.047 22.473 14.622 19.341 14.629 16.915" class="st4"/></g><g><polygon points="14.629 16.915 17.823 15.059 23.247 18.191 20.054 20.046" class="st7"/></g><g><polygon points="29.178 34.938 29.171 37.37 23.742 34.235 23.749 31.803" class="st4"/></g><g><polygon points="35.259 44.87 35.253 47.302 29.828 44.17 29.835 41.738" class="st4"/></g><g><polygon points="38.201 46.568 38.194 49 35.928 47.692 35.935 45.259" class="st4"/></g><g><polygon points="26.158 23.571 26.151 25.998 20.722 22.863 20.729 20.436" class="st4"/></g><g><polygon points="20.729 20.436 23.922 18.58 29.352 21.715 26.158 23.571" class="st7"/></g><g><polygon points="38.21 43.365 38.203 45.792 32.885 42.721 32.891 40.295" class="st4"/></g><g><polygon points="38.219 40.157 38.212 42.59 35.946 41.281 35.953 38.849" class="st4"/></g><g><polygon points="26.828 23.958 30.022 22.102 35.451 25.236 32.258 27.092" class="st7"/></g><g><polygon points="32.258 27.092 32.251 29.519 26.821 26.385 26.828 23.958" class="st4"/></g><g><polygon points="38.228 36.955 38.221 39.387 32.903 36.317 32.91 33.884" class="st4"/></g><g><polygon points="38.237 33.752 38.23 36.185 35.964 34.876 35.971 32.444" class="st4"/></g><g><polygon points="32.928 27.479 36.121 25.623 41.44 28.694 38.246 30.55" class="st7"/></g><g><polygon points="38.246 30.55 38.239 32.977 32.921 29.906 32.928 27.479" class="st4"/></g><polygon points="41.44 28.694 41.387 47.144 38.194 49 38.246 30.55" class="st13"/></g></g><g><g><polygon points="38.201 46.568 41.394 44.712 41.387 47.144 38.194 49" class="st3"/></g><g><polygon points="38.21 43.365 41.403 41.509 41.397 43.936 38.203 45.792" class="st3"/></g><g><polygon points="38.219 40.157 41.413 38.301 41.406 40.734 38.212 42.59" class="st3"/></g><g><polygon points="38.228 36.955 41.422 35.099 41.415 37.531 38.221 39.387" class="st3"/></g><g><polygon points="38.237 33.752 41.431 31.896 41.424 34.329 38.23 36.185" class="st3"/></g><g><polygon points="38.246 30.55 41.44 28.694 41.433 31.121 38.239 32.977" class="st3"/></g></g></g><path d="M38.24615,30.54991l3.19361-1.85593c0,0-1.90662-9.80438-4.4852-11.89377 c0,0,0.06855,3.43675-0.99061,5.30163S38.24615,30.54991,38.24615,30.54991z" class="st0"/><path d="M8.6068,13.52631c-0.07126-0.44468-0.07927-1.29022,1.05503-2.27458 c0.30412-0.26393,0.44158-0.67179,0.35921-1.06597c-0.00136-0.00662-0.37811-0.80537,0.13669-1.76072 c0.29012,0.63762,0.4589,1.4937,1.11089,2.09775c0.09994,0.09262,0.2161,0.16605,0.34262,0.21659 c0.09805,0.03921,0.62054,0.23465,1.2798,0.23465c0.67536-0.00005,2.87895-0.25916,2.87895-3.59168 c0-0.03102-0.0013-0.06198-0.0039-0.09289c-0.01361-0.1622-0.41136-1.24287-0.78673-2.29827 c0.52748,0.6745,1.05207,1.25154,1.22512,1.75631c0.15781,0.46046,0.58854,0.75074,1.05041,0.75074 c0.11507,0,0.2321-0.018,0.34728-0.05591c0.16084-0.05293,1.91766-0.73757,2.41233-1.9921 c0.09685,0.2885,0.17814,0.62347,0.24072,0.99938c0.16198,0.97292-0.18169,2.04579-0.14102,2.88931 c0.11285,2.34035,0.21941,4.55098,3.23903,6.10138c0.16008,0.08221,0.33405,0.12261,0.50709,0.12261 c0.2424,0,0.48318-0.07923,0.68209-0.23405c0.34104-0.26529,0.49722-0.70421,0.40048-1.1253 c-0.07804-0.34538,0.09228-1.33432,0.0804-2.05654c0.3514,0.93957,0.76091,2.28196,1.96831,3.24111 c0.21486,0.17066,0.48166,0.26523,0.74565,0.26523c0.19408,0,0.38665-0.05108,0.55617-0.16052 c0.39403-0.25428,0.5937-0.68811,0.48849-1.14227c-0.00423-0.15021,0.01735-1.12953,1.15458-2.66859 c0.01822-0.02462,0.03536-0.05,0.05146-0.07603c0.44603-0.72146,0.9176-1.98065,0.73068-3.20649 c0.05515,0.04799,0.1083,0.10081,0.15949,0.15851c0.38855,0.43763,0.87178,1.38815,0.96744,3.431 c0.13031,2.78231,0.21296,4.40923,0.39647,5.49321c0.09729,0.57466,0.39354,2.32343,2.01747,2.32343 c0.00016,0,0.00016,0,0.00038,0c0.33519-0.00005,0.69516-0.08031,1.16716-0.26024 c0.10428-0.03975,0.20195-0.09501,0.28975-0.16382c0.12603-0.09886,1.18937-1.18498,1.2378-2.58132 c0.06551,0.15585,0.14682,0.52692,0.2138,0.71417c0.85529,2.39122,0.49955,3.64585,0.15547,4.85922 c-0.2526,0.89076-0.51382,1.81194-0.17071,2.92027l0.05309,0.17104c0.23487,0.75568,0.58974,1.89762,0.76685,2.94923 c0.25471,1.51217,0.30454,2.0931,0.27309,2.13577C38.24035,30.55778,8.6068,13.52631,8.6068,13.52631z" class="st13"/></g></g></g></svg>