<svg xmlns="http://www.w3.org/2000/svg" xmlns:xlink="http://www.w3.org/1999/xlink" id="Layer_1" version="1.1" viewBox="0 0 50 50" xml:space="preserve" style="enable-background:new 0 0 50 50"><style type="text/css">.st0{fill:#b7c5fd}.st1{fill:#9aadfd}.st2{fill:#fff}.st4{fill:#4466fb}.st6{fill:#798ffe}.st7{fill:#6bb5fb}.st8{enable-background:new}.st11{fill:#384e85}</style><g><g><g><g><g><g><g><path d="M47.05795,37.41581L29.77653,47.45867c-0.36626,0.21365-0.95634,0.21365-1.3226,0.0034L2.19542,32.29974 c-0.36626-0.21025-0.36626-0.55278,0-0.76643l17.28141-10.04284c0.36287-0.21026,0.95294-0.21026,1.3192,0L47.05455,36.6494 C47.42081,36.86305,47.42421,37.20555,47.05795,37.41581z" class="st0"/></g><g><path d="M26.26471,38.08479c0.20825,0.12023,0.20703,0.31612,0.00012,0.43636l-4.29602,2.49657 c-0.2069,0.12024-0.54507,0.12159-0.75332,0.00135l-8.46573-4.8877c-0.20825-0.12023-0.20702-0.31612-0.00012-0.43636 l4.29602-2.49657c0.2069-0.12024,0.54507-0.12159,0.75332-0.00135L26.26471,38.08479z" class="st1"/></g><g><path d="M47.32925,37.03599l-0.0034,1.38364c0,0.13566-0.09155,0.27469-0.2713,0.37982L29.77314,48.84231 c-0.36626,0.21025-0.95634,0.21025-1.3226,0L2.19202,33.68338c-0.18312-0.10513-0.27469-0.24416-0.27469-0.38661 l0.00339-1.38025c0,0.13905,0.09155,0.27808,0.27469,0.38321l26.25852,15.16233 c0.36626,0.21025,0.95634,0.21025,1.3226-0.0034l17.28142-10.04286C47.24107,37.31068,47.32925,37.17505,47.32925,37.03599z" class="st1"/></g></g><g><g><path d="M46.72729,16.43427c0.36591,0.21126,0.66158,0.72336,0.66039,1.14384l-0.04681,18.47405 c-0.00119,0.41798-0.29879,0.59005-0.66471,0.3788L20.79604,21.49047c-0.36591-0.21126-0.66157-0.72585-0.66039-1.14384 l0.04681-18.47405c0.00119-0.42047,0.29879-0.59005,0.66471-0.3788L46.72729,16.43427z" class="st1"/></g><g><path d="M33.76173,9.74253c0.3175,0.18331,0.56921,0.62347,0.56819,0.98415 c-0.00102,0.36069-0.25441,0.50922-0.5719,0.32592c-0.31389-0.18123-0.56562-0.62139-0.56459-0.98207 C33.19444,9.70984,33.44783,9.5613,33.76173,9.74253z" class="st4"/></g><g><path d="M48.08267,17.17545l-0.04749,18.47334c0,0.20686-0.07462,0.35608-0.1933,0.42391l-0.69411,0.40365 c0.11871-0.06781,0.1933-0.21703,0.1933-0.42391l0.04748-18.47332c0-0.42053-0.29504-0.9326-0.6613-1.14625L20.84702,1.49407 c-0.18314-0.10513-0.34931-0.11529-0.47139-0.04748l0.69411-0.40365c0.11869-0.06783,0.28825-0.05767,0.47137,0.04746 l25.88026,14.94219C47.78763,16.24285,48.08267,16.75493,48.08267,17.17545z" class="st0"/></g><g><polygon points="46.454 19.152 46.409 35.2 21.07 20.572 21.115 4.525" class="st2"/></g></g></g></g></g><g><g><g><polygon points="43.251 25.129 43.249 26.085 31.138 19.093 31.141 18.137" class="st7"/></g><g class="st8"><g><polygon points="43.239 29.333 43.237 30.289 31.126 23.297 31.129 22.341" class="st7"/></g><g><polygon points="43.245 27.239 43.243 28.18 31.132 21.188 31.135 20.247" class="st7"/></g><g><polygon points="43.27 19.141 43.259 23.148 23.33 11.642 23.341 7.635" class="st4"/></g></g><g><polygon points="29.754 17.337 29.739 22.496 23.308 18.783 23.322 13.623" class="st6"/></g></g><g><polygon points="37.705 25.606 40.462 27.481 39.784 27.867 40.767 29.569 39.603 30.226 38.62 28.524 37.942 28.91" class="st11"/></g></g></g><g><g><polygon points="30.002 32.254 28.521 33.114 26.831 32.138 28.312 31.278" class="st11"/></g><g><polygon points="28.134 33.339 26.653 34.2 24.963 33.224 26.444 32.363" class="st11"/></g><g class="st8"><g><polygon points="22.389 23.531 20.903 24.394 19.213 23.418 20.699 22.555" class="st11"/></g><g><polygon points="24.659 24.841 23.173 25.704 21.483 24.728 22.968 23.865" class="st11"/></g><g><polygon points="21.364 25.102 19.878 25.966 17.345 24.504 18.831 23.64" class="st11"/></g><g><polygon points="26.928 26.151 25.443 27.015 23.753 26.039 25.238 25.176" class="st11"/></g><g><polygon points="23.633 26.413 22.148 27.276 20.458 26.3 21.943 25.437" class="st11"/></g><g><polygon points="16.785 26.787 15.305 27.647 13.614 26.672 15.095 25.811" class="st11"/></g><g><polygon points="20.923 27.012 19.442 27.872 15.482 25.586 16.963 24.726" class="st11"/></g><g><polygon points="29.198 27.462 27.712 28.325 26.022 27.349 27.508 26.486" class="st11"/></g><g><polygon points="25.903 27.723 24.417 28.587 22.727 27.611 24.213 26.748" class="st11"/></g><g><polygon points="19.055 28.097 17.574 28.958 15.884 27.982 17.365 27.122" class="st11"/></g><g><polygon points="23.193 28.322 21.712 29.183 20.022 28.207 21.502 27.347" class="st11"/></g><g><polygon points="31.468 28.772 29.982 29.636 28.292 28.66 29.778 27.796" class="st11"/></g><g><polygon points="28.173 29.034 26.687 29.897 24.997 28.921 26.483 28.058" class="st11"/></g><g><polygon points="17.187 29.183 15.706 30.043 11.747 27.757 13.227 26.897" class="st11"/></g><g><polygon points="21.325 29.408 19.844 30.268 18.154 29.292 19.635 28.432" class="st11"/></g><g><polygon points="25.462 29.633 23.982 30.493 22.291 29.517 23.772 28.657" class="st11"/></g><g><polygon points="33.737 30.083 32.252 30.946 30.562 29.97 32.047 29.107" class="st11"/></g><g><polygon points="30.442 30.344 28.957 31.207 27.272 30.235 28.757 29.371" class="st11"/></g><g><polygon points="23.594 30.718 22.114 31.579 20.424 30.603 21.904 29.742" class="st11"/></g><g><polygon points="27.732 30.943 26.251 31.804 24.561 30.828 26.042 29.967" class="st11"/></g><g><polygon points="25.864 32.029 24.383 32.889 22.693 31.913 24.174 31.053" class="st11"/></g><g><polygon points="26.363 34.481 24.883 35.341 16.286 30.378 17.767 29.517" class="st11"/></g></g><g><polygon points="33.075 38.356 31.594 39.216 29.904 38.24 31.385 37.38" class="st11"/></g><g><polygon points="30.805 37.045 29.325 37.906 27.635 36.93 29.115 36.07" class="st11"/></g><g><polygon points="28.536 35.735 27.055 36.595 25.365 35.62 26.846 34.759" class="st11"/></g><g><polygon points="30.404 34.649 28.923 35.51 27.233 34.534 28.713 33.674" class="st11"/></g><g><polygon points="32.271 33.564 30.791 34.424 29.101 33.449 30.581 32.588" class="st11"/></g><g><polygon points="34.987 32.968 33.501 33.831 31.811 32.855 33.297 31.992" class="st11"/></g><g><polygon points="36.007 31.393 34.522 32.256 32.831 31.281 34.317 30.417" class="st11"/></g><g><polygon points="42.816 35.324 41.331 36.188 39.645 35.215 41.131 34.351" class="st11"/></g><g><polygon points="43.223 37.723 41.737 38.586 38.62 36.787 40.106 35.923" class="st11"/></g><g><polygon points="34.943 37.27 33.462 38.131 31.772 37.155 33.253 36.295" class="st11"/></g><g><polygon points="41.355 38.808 39.874 39.669 35.915 37.383 37.395 36.522" class="st11"/></g><g><polygon points="36.811 36.185 35.33 37.045 33.64 36.07 35.121 35.209" class="st11"/></g><g><polygon points="39.526 35.589 38.041 36.452 36.35 35.476 37.836 34.613" class="st11"/></g><g><polygon points="40.547 34.014 39.061 34.877 37.371 33.901 38.856 33.038" class="st11"/></g><g><polygon points="34.541 34.874 33.06 35.735 31.37 34.759 32.851 33.899" class="st11"/></g><g><polygon points="37.256 34.278 35.771 35.142 34.081 34.166 35.566 33.302" class="st11"/></g><g><polygon points="38.277 32.703 36.791 33.567 35.101 32.591 36.587 31.728" class="st11"/></g><g><polygon points="45.091 36.638 43.605 37.501 41.915 36.525 43.401 35.662" class="st11"/></g><g><polygon points="32.717 31.657 31.231 32.521 29.541 31.545 31.027 30.682" class="st11"/></g><g><polygon points="35.345 39.666 33.864 40.527 32.179 39.554 33.66 38.693" class="st11"/></g><g><polygon points="39.487 39.894 36.139 41.84 34.449 40.864 37.797 38.918" class="st11"/></g></g></g></svg>