<svg xmlns="http://www.w3.org/2000/svg" xmlns:xlink="http://www.w3.org/1999/xlink" id="Layer_1" version="1.1" viewBox="0 0 50 50" xml:space="preserve" style="enable-background:new 0 0 50 50"><style type="text/css">.st0{fill:#b7c5fd}.st1{fill:#9aadfd}.st2{fill:#fff}.st5{fill:#aabafd}.st8{enable-background:new}.st11{fill:#384e85}.st12{fill:#2e4277}.st17{fill:#8ca1fd}</style><g><g><g><g><g><g><g><path d="M4.97986,38.486l15.68488,9.11506c0.33243,0.19391,0.86799,0.19391,1.20041,0.00308L45.6978,33.84258 c0.33242-0.19083,0.33242-0.50171,0-0.69562l-15.68489-9.11504c-0.32934-0.19083-0.8649-0.19083-1.19733,0L4.98294,37.7904 C4.65051,37.98431,4.64743,38.29517,4.97986,38.486z" class="st0"/></g><g><path d="M22.97457,39.73228c-0.20498,0.11834-0.20377,0.31115-0.00012,0.4295l4.22851,2.45734 c0.20364,0.11835,0.53651,0.11968,0.74149,0.00134l8.3327-4.81089c0.20498-0.11834,0.20377-0.31116,0.00012-0.4295 l-4.22851-2.45734c-0.20365-0.11835-0.53651-0.11967-0.74149-0.00133L22.97457,39.73228z" class="st1"/></g><g><path d="M4.73362,38.14127l0.00308,1.25581c0,0.12313,0.08309,0.24932,0.24623,0.34473l15.68489,9.11506 c0.33242,0.19083,0.86799,0.19083,1.20041,0l23.83264-13.75849c0.1662-0.09541,0.24931-0.2216,0.24931-0.35089 l-0.00308-1.25273c0,0.12621-0.08309,0.2524-0.24931,0.34781L21.86515,47.60415 c-0.33242,0.19083-0.86799,0.19083-1.20041-0.00308L4.97986,38.486C4.81365,38.39059,4.73362,38.26748,4.73362,38.14127z" class="st1"/></g></g><g><g><path d="M28.76918,7.13196c0.33211-0.19174,0.60221-0.03783,0.6033,0.3438l0.04249,15.51799 c0.00108,0.37937-0.26727,0.84642-0.59938,1.03816L5.32637,37.59214c-0.33211,0.19175-0.60222,0.03557-0.6033-0.3438 L4.68059,21.73035c-0.00108-0.38163,0.26727-0.84642,0.59938-1.03817L28.76918,7.13196z" class="st12"/></g><g><path d="M4.04981,21.36488l0.0431,15.51735c0,0.18775,0.06772,0.32318,0.17545,0.38475l0.62998,0.36636 c-0.10774-0.06154-0.17545-0.19698-0.17545-0.38475l-0.0431-15.51733c0-0.38168,0.26778-0.84644,0.60021-1.04035 L28.76931,7.13222c0.16622-0.09542,0.31704-0.10464,0.42784-0.0431l-0.62998-0.36636 c-0.10772-0.06156-0.26162-0.05234-0.42782,0.04308L4.65001,20.32761C4.31759,20.51844,4.04981,20.98322,4.04981,21.36488z" class="st11"/></g><g><polygon points="5.528 21.51 5.569 36.475 28.567 23.198 28.526 8.233" class="st2"/></g></g></g><g><g><polygon points="9.79 37.361 8.284 38.236 7.636 37.861 9.141 36.986" class="st11"/></g><g><polygon points="25.989 27.947 24.481 28.823 23.832 28.449 25.34 27.573" class="st11"/></g><g><polygon points="30.038 25.594 28.531 26.47 27.882 26.095 29.39 25.219" class="st11"/></g><g><polygon points="27.336 31.072 25.831 31.947 24.492 31.174 25.998 30.299" class="st11"/></g><g><polygon points="34.762 30.668 33.254 31.544 31.913 30.77 33.421 29.894" class="st11"/></g><g><polygon points="36.788 29.49 35.28 30.366 32.251 28.618 33.759 27.742" class="st11"/></g><g class="st8"><g><polygon points="31.726 26.568 28.946 28.184 27.606 27.409 30.385 25.794" class="st11"/></g><g><polygon points="28.43 28.484 26.923 29.36 25.582 28.586 27.089 27.709" class="st11"/></g><g><polygon points="33.412 27.541 29.878 29.595 28.54 28.822 32.073 26.769" class="st11"/></g><g><polygon points="29.362 29.895 27.855 30.771 26.516 29.998 28.023 29.122" class="st11"/></g><g><polygon points="31.05 30.869 29.542 31.745 28.202 30.971 29.709 30.095" class="st11"/></g></g><g><polygon points="26.404 29.661 24.897 30.537 23.556 29.763 25.064 28.887" class="st11"/></g><g><polygon points="23.963 29.124 22.457 29.999 21.809 29.625 23.314 28.75" class="st11"/></g><g><polygon points="21.939 30.301 20.431 31.177 19.783 30.802 21.29 29.926" class="st11"/></g><g><polygon points="22.951 35.576 21.443 36.452 20.102 35.678 21.61 34.802" class="st11"/></g><g class="st8"><g><polygon points="19.913 31.478 18.407 32.353 17.759 31.978 19.264 31.103" class="st11"/></g><g><polygon points="22.355 32.014 20.849 32.889 19.508 32.115 21.014 31.24" class="st11"/></g><g><polygon points="17.889 32.654 16.382 33.53 15.733 33.156 17.241 32.28" class="st11"/></g><g><polygon points="20.331 33.19 18.823 34.066 17.483 33.292 18.99 32.416" class="st11"/></g><g><polygon points="23.287 33.426 21.781 34.3 20.442 33.528 21.948 32.653" class="st11"/></g><g><polygon points="15.865 33.83 14.358 34.706 13.709 34.332 15.217 33.456" class="st11"/></g><g><polygon points="18.307 34.367 16.799 35.243 15.459 34.469 16.966 33.592" class="st11"/></g><g><polygon points="24.974 34.4 23.469 35.275 22.128 34.501 23.634 33.626" class="st11"/></g><g><polygon points="21.263 34.602 19.755 35.478 18.417 34.705 19.924 33.829" class="st11"/></g><g><polygon points="13.839 35.007 12.332 35.883 11.683 35.509 13.191 34.633" class="st11"/></g><g><polygon points="16.281 35.544 14.774 36.42 13.433 35.646 14.94 34.77" class="st11"/></g><g><polygon points="19.239 35.778 17.731 36.654 16.393 35.881 17.9 35.005" class="st11"/></g><g><polygon points="14.257 36.72 12.75 37.596 11.409 36.822 12.917 35.946" class="st11"/></g><g><polygon points="20.927 36.752 19.419 37.628 18.079 36.854 19.586 35.978" class="st11"/></g><g><polygon points="17.213 36.955 15.706 37.831 14.367 37.058 15.874 36.182" class="st11"/></g><g><polygon points="18.901 37.93 17.393 38.806 16.053 38.032 17.56 37.156" class="st11"/></g><g><polygon points="26.749 35.324 19.081 39.78 17.74 39.006 25.408 34.55" class="st11"/></g><g><polygon points="16.877 39.106 15.37 39.982 14.029 39.208 15.536 38.332" class="st11"/></g><g><polygon points="15.189 38.131 11.658 40.183 10.319 39.411 13.851 37.358" class="st11"/></g><g><polygon points="14.851 40.283 13.346 41.158 12.005 40.384 13.51 39.509" class="st11"/></g><g><polygon points="18.565 40.08 15.034 42.132 13.693 41.358 17.224 39.306" class="st11"/></g></g><g><polygon points="11.816 36.183 10.308 37.06 9.66 36.685 11.167 35.809" class="st11"/></g><g><polygon points="28.012 26.771 26.505 27.647 25.856 27.273 27.364 26.397" class="st11"/></g><g><polygon points="24.38 30.837 22.873 31.713 21.532 30.939 23.04 30.063" class="st11"/></g><g><polygon points="28.688 34.197 27.181 35.073 25.84 34.299 27.347 33.423" class="st11"/></g><g><polygon points="27 33.223 25.493 34.099 24.152 33.325 25.66 32.449" class="st11"/></g><g><polygon points="25.312 32.248 23.805 33.124 22.466 32.352 23.974 31.475" class="st11"/></g><g><polygon points="32.738 31.844 31.23 32.72 29.89 31.946 31.397 31.07" class="st11"/></g><g><polygon points="30.712 33.021 29.206 33.896 27.866 33.122 29.371 32.247" class="st11"/></g><g><polygon points="12.231 37.897 9.972 39.21 8.631 38.436 10.891 37.123" class="st11"/></g></g></g></g><g><g><polygon points="27.221 1.346 27.264 16.64 7.701 27.935 7.658 12.641" class="st0"/></g><g><polygon points="27.217 1.348 26.624 1 7.061 12.291 7.106 27.585 7.701 27.934 7.658 12.641" class="st1"/></g><g><g class="st8"><g><polygon points="17.435 12.966 27.264 16.64 7.701 27.935" class="st5"/></g><g><polygon points="17.431 11.658 27.264 16.64 17.435 12.966 7.701 27.935 27.242 16.64 7.701 27.935" class="st17"/></g></g></g><g><g><polygon points="27.221 1.346 17.487 16.314 7.658 12.641" class="st0"/></g><g><polygon points="27.221 1.346 17.491 17.492 7.658 12.641 17.487 16.314" class="st5"/></g></g></g></g></g></svg>