<svg xmlns="http://www.w3.org/2000/svg" xmlns:xlink="http://www.w3.org/1999/xlink" id="Layer_1" version="1.1" viewBox="0 0 50 50" xml:space="preserve" style="enable-background:new 0 0 50 50"><style type="text/css">.st0{fill:#b7c5fd}.st1{fill:#9aadfd}.st2{fill:#fff}.st3{fill:#3955d1}.st4{fill:#4466fb}.st6{fill:#798ffe}.st7{fill:#6bb5fb}.st8{enable-background:new}.st9{fill:#1b2a4f}.st11{fill:#384e85}.st12{fill:#2e4277}.st17{fill:#8ca1fd}.st19{opacity:.3;fill:#4466fb}.st20{opacity:.2}</style><g><g><g><g><g class="st8"><g><path d="M22.79856,4.77778l0.58218-0.33836c0.20838-0.24806,0.44991-0.45349,0.72207-0.61165L23.52063,4.1661 C23.24845,4.32426,23.00692,4.52969,22.79856,4.77778z" class="st6"/><path d="M28.98487,2.12936c-0.77216-0.44583-1.55741-0.71579-2.30955-0.7624 c-0.65607-0.04051-1.22966,0.0929-1.70844,0.37113l-0.58221,0.33833c0.47878-0.27821,1.05236-0.41164,1.70844-0.37113 c0.75214,0.04661,1.53739,0.31658,2.30957,0.7624c1.48899,0.85974,3.05355,2.57993,3.95511,4.48759l0.60838-0.2886 C32.06465,4.75905,30.47388,2.9891,28.98487,2.12936z" class="st0"/><polygon points="34.038 6.022 33.429 6.311 34.02 11.954 34.628 11.665" class="st0"/></g><g><path d="M28.40268,2.46772c1.48901,0.85973,3.05356,2.57991,3.95511,4.48756l1.07125-0.64485l0.59047,5.64294 l-4.11529-3.51482l0.86424-0.51981c-0.84912-1.4519-2.02658-2.66418-3.23545-3.36207 c-0.77036-0.44474-1.5539-0.71451-2.30426-0.76143c-1.02732-0.06197-1.85508,0.29781-2.4302,0.98254 c0.28288-1.95217,1.4697-3.18516,3.29457-3.07246C26.84526,1.75192,27.63051,2.02188,28.40268,2.46772z" class="st1"/></g></g></g></g></g><g><g><g><g><g><polygon points="15.845 11.586 24.524 6.997 24.514 28.196 15.834 33.24" class="st9"/></g><g><polygon points="7.385 7.157 16.064 2.113 24.524 6.997 15.845 12.041" class="st11"/></g><g><polygon points="15.845 12.041 15.834 33.24 7.374 28.356 7.385 7.157" class="st12"/><g><polygon points="8.406 8.338 7.896 8.043 7.886 28.06 15.323 32.354 15.323 31.716 8.397 27.716" class="st11"/><polygon points="8.406 8.338 8.397 27.716 15.323 31.716 15.333 12.336" class="st9"/></g></g></g><g><polygon points="14.81 13.061 14.803 15.358 9.097 12.064 9.104 9.767" class="st12"/><g><g><g><polygon points="10.483 11.239 10.689 11.119 10.681 12.597 10.475 12.716" class="st3"/></g><g><polygon points="10.121 11.03 10.328 10.91 10.689 11.119 10.483 11.239" class="st7"/></g><polygon points="10.483 11.239 10.475 12.716 10.114 12.508 10.121 11.03" class="st4"/></g><g><g><polygon points="11.22 11.665 11.427 11.545 11.419 13.022 11.213 13.142" class="st3"/></g><g><polygon points="10.859 11.456 11.065 11.336 11.427 11.545 11.22 11.665" class="st7"/></g><polygon points="11.22 11.665 11.213 13.142 10.851 12.933 10.859 11.456" class="st4"/></g><g><g><polygon points="11.958 12.09 12.164 11.971 12.157 13.448 11.95 13.568" class="st3"/></g><g><polygon points="11.596 11.882 11.803 11.762 12.164 11.971 11.958 12.09" class="st7"/></g><polygon points="11.958 12.09 11.95 13.568 11.589 13.359 11.596 11.882" class="st4"/></g><g><g><polygon points="12.695 12.516 12.902 12.396 12.894 13.874 12.688 13.994" class="st3"/></g><g><polygon points="12.334 12.307 12.54 12.188 12.902 12.396 12.695 12.516" class="st7"/></g><polygon points="12.695 12.516 12.688 13.994 12.326 13.785 12.334 12.307" class="st4"/></g><g><g><polygon points="13.433 12.942 13.639 12.822 13.632 14.3 13.425 14.42" class="st3"/></g><g><polygon points="13.071 12.733 13.278 12.613 13.639 12.822 13.433 12.942" class="st7"/></g><polygon points="13.433 12.942 13.425 14.42 13.064 14.211 13.071 12.733" class="st4"/></g><g><g><polygon points="14.17 13.368 14.377 13.248 14.369 14.726 14.163 14.845" class="st3"/></g><g><polygon points="13.809 13.159 14.015 13.039 14.377 13.248 14.17 13.368" class="st7"/></g><polygon points="14.17 13.368 14.163 14.845 13.801 14.637 13.809 13.159" class="st4"/></g><g><g><polygon points="9.745 10.813 9.951 10.693 9.944 12.171 9.738 12.291" class="st3"/></g><g><polygon points="9.384 10.604 9.59 10.484 9.951 10.693 9.745 10.813" class="st7"/></g><polygon points="9.745 10.813 9.738 12.291 9.376 12.082 9.384 10.604" class="st4"/></g></g></g><g><polygon points="14.81 16.117 14.803 18.413 9.097 15.119 9.104 12.822" class="st12"/><g><g><g><polygon points="10.483 14.294 10.689 14.175 10.681 15.652 10.475 15.772" class="st3"/></g><g><polygon points="10.121 14.086 10.328 13.966 10.689 14.175 10.483 14.294" class="st7"/></g><polygon points="10.483 14.294 10.475 15.772 10.114 15.563 10.121 14.086" class="st4"/></g><g><g><polygon points="11.22 14.72 11.427 14.6 11.419 16.078 11.213 16.198" class="st3"/></g><g><polygon points="10.859 14.511 11.065 14.392 11.427 14.6 11.22 14.72" class="st7"/></g><polygon points="11.22 14.72 11.213 16.198 10.851 15.989 10.859 14.511" class="st4"/></g><g><g><polygon points="11.958 15.146 12.164 15.026 12.157 16.504 11.95 16.624" class="st3"/></g><g><polygon points="11.596 14.937 11.803 14.817 12.164 15.026 11.958 15.146" class="st7"/></g><polygon points="11.958 15.146 11.95 16.624 11.589 16.415 11.596 14.937" class="st4"/></g><g><g><polygon points="12.695 15.572 12.902 15.452 12.894 16.93 12.688 17.049" class="st3"/></g><g><polygon points="12.334 15.363 12.54 15.243 12.902 15.452 12.695 15.572" class="st7"/></g><polygon points="12.695 15.572 12.688 17.049 12.326 16.841 12.334 15.363" class="st4"/></g><g><g><polygon points="13.433 15.998 13.639 15.878 13.632 17.355 13.425 17.475" class="st3"/></g><g><polygon points="13.071 15.789 13.278 15.669 13.639 15.878 13.433 15.998" class="st7"/></g><polygon points="13.433 15.998 13.425 17.475 13.064 17.266 13.071 15.789" class="st4"/></g><g><g><polygon points="14.17 16.423 14.377 16.304 14.369 17.781 14.163 17.901" class="st3"/></g><g><polygon points="13.809 16.215 14.015 16.095 14.377 16.304 14.17 16.423" class="st7"/></g><polygon points="14.17 16.423 14.163 17.901 13.801 17.692 13.809 16.215" class="st4"/></g><g><g><polygon points="9.745 13.869 9.951 13.749 9.944 15.226 9.738 15.346" class="st3"/></g><g><polygon points="9.384 13.66 9.59 13.54 9.951 13.749 9.745 13.869" class="st7"/></g><polygon points="9.745 13.869 9.738 15.346 9.376 15.137 9.384 13.66" class="st4"/></g></g></g><g><polygon points="14.81 19.172 14.803 21.469 9.097 18.175 9.104 15.878" class="st12"/><g><g><g><polygon points="10.483 17.35 10.689 17.23 10.681 18.708 10.475 18.828" class="st3"/></g><g><polygon points="10.121 17.141 10.328 17.021 10.689 17.23 10.483 17.35" class="st7"/></g><polygon points="10.483 17.35 10.475 18.828 10.114 18.619 10.121 17.141" class="st4"/></g><g><g><polygon points="11.22 17.776 11.427 17.656 11.419 19.134 11.213 19.253" class="st3"/></g><g><polygon points="10.859 17.567 11.065 17.447 11.427 17.656 11.22 17.776" class="st7"/></g><polygon points="11.22 17.776 11.213 19.253 10.851 19.045 10.859 17.567" class="st4"/></g><g><g><polygon points="11.958 18.201 12.164 18.082 12.157 19.559 11.95 19.679" class="st3"/></g><g><polygon points="11.596 17.993 11.803 17.873 12.164 18.082 11.958 18.201" class="st7"/></g><polygon points="11.958 18.201 11.95 19.679 11.589 19.47 11.596 17.993" class="st4"/></g><g><g><polygon points="12.695 18.627 12.902 18.508 12.894 19.985 12.688 20.105" class="st3"/></g><g><polygon points="12.334 18.419 12.54 18.299 12.902 18.508 12.695 18.627" class="st7"/></g><polygon points="12.695 18.627 12.688 20.105 12.326 19.896 12.334 18.419" class="st4"/></g><g><g><polygon points="13.433 19.053 13.639 18.933 13.632 20.411 13.425 20.531" class="st3"/></g><g><polygon points="13.071 18.844 13.278 18.725 13.639 18.933 13.433 19.053" class="st7"/></g><polygon points="13.433 19.053 13.425 20.531 13.064 20.322 13.071 18.844" class="st4"/></g><g><g><polygon points="14.17 19.479 14.377 19.359 14.369 20.837 14.163 20.957" class="st3"/></g><g><polygon points="13.809 19.27 14.015 19.15 14.377 19.359 14.17 19.479" class="st7"/></g><polygon points="14.17 19.479 14.163 20.957 13.801 20.748 13.809 19.27" class="st4"/></g><g><g><polygon points="9.745 16.924 9.951 16.804 9.944 18.282 9.738 18.402" class="st3"/></g><g><polygon points="9.384 16.715 9.59 16.596 9.951 16.804 9.745 16.924" class="st7"/></g><polygon points="9.745 16.924 9.738 18.402 9.376 18.193 9.384 16.715" class="st4"/></g></g></g><g><polygon points="14.81 22.228 14.803 24.525 9.097 21.23 9.104 18.933" class="st12"/><g><g><g><polygon points="10.483 20.405 10.689 20.286 10.681 21.763 10.475 21.883" class="st3"/></g><g><polygon points="10.121 20.197 10.328 20.077 10.689 20.286 10.483 20.405" class="st7"/></g><polygon points="10.483 20.405 10.475 21.883 10.114 21.674 10.121 20.197" class="st4"/></g><g><g><polygon points="11.22 20.831 11.427 20.711 11.419 22.189 11.213 22.309" class="st3"/></g><g><polygon points="10.859 20.623 11.065 20.503 11.427 20.711 11.22 20.831" class="st7"/></g><polygon points="11.22 20.831 11.213 22.309 10.851 22.1 10.859 20.623" class="st4"/></g><g><g><polygon points="11.958 21.257 12.164 21.137 12.157 22.615 11.95 22.735" class="st3"/></g><g><polygon points="11.596 21.048 11.803 20.929 12.164 21.137 11.958 21.257" class="st7"/></g><polygon points="11.958 21.257 11.95 22.735 11.589 22.526 11.596 21.048" class="st4"/></g><g><g><polygon points="12.695 21.683 12.902 21.563 12.894 23.041 12.688 23.16" class="st3"/></g><g><polygon points="12.334 21.474 12.54 21.354 12.902 21.563 12.695 21.683" class="st7"/></g><polygon points="12.695 21.683 12.688 23.16 12.326 22.952 12.334 21.474" class="st4"/></g><g><g><polygon points="13.433 22.109 13.639 21.989 13.632 23.466 13.425 23.586" class="st3"/></g><g><polygon points="13.071 21.9 13.278 21.78 13.639 21.989 13.433 22.109" class="st7"/></g><polygon points="13.433 22.109 13.425 23.586 13.064 23.378 13.071 21.9" class="st4"/></g><g><g><polygon points="14.17 22.534 14.377 22.415 14.369 23.892 14.163 24.012" class="st3"/></g><g><polygon points="13.809 22.326 14.015 22.206 14.377 22.415 14.17 22.534" class="st7"/></g><polygon points="14.17 22.534 14.163 24.012 13.801 23.803 13.809 22.326" class="st4"/></g><g><g><polygon points="9.745 19.98 9.951 19.86 9.944 21.337 9.738 21.457" class="st3"/></g><g><polygon points="9.384 19.771 9.59 19.651 9.951 19.86 9.745 19.98" class="st7"/></g><polygon points="9.745 19.98 9.738 21.457 9.376 21.249 9.384 19.771" class="st4"/></g></g></g><g><polygon points="14.81 25.283 14.803 27.58 9.097 24.286 9.104 21.989" class="st12"/><g><g><g><polygon points="10.483 23.461 10.689 23.341 10.681 24.819 10.475 24.939" class="st3"/></g><g><polygon points="10.121 23.252 10.328 23.133 10.689 23.341 10.483 23.461" class="st7"/></g><polygon points="10.483 23.461 10.475 24.939 10.114 24.73 10.121 23.252" class="st4"/></g><g><g><polygon points="11.22 23.887 11.427 23.767 11.419 25.245 11.213 25.364" class="st3"/></g><g><polygon points="10.859 23.678 11.065 23.558 11.427 23.767 11.22 23.887" class="st7"/></g><polygon points="11.22 23.887 11.213 25.364 10.851 25.156 10.859 23.678" class="st4"/></g><g><g><polygon points="11.958 24.313 12.164 24.193 12.157 25.67 11.95 25.79" class="st3"/></g><g><polygon points="11.596 24.104 11.803 23.984 12.164 24.193 11.958 24.313" class="st7"/></g><polygon points="11.958 24.313 11.95 25.79 11.589 25.582 11.596 24.104" class="st4"/></g><g><g><polygon points="12.695 24.738 12.902 24.619 12.894 26.096 12.688 26.216" class="st3"/></g><g><polygon points="12.334 24.53 12.54 24.41 12.902 24.619 12.695 24.738" class="st7"/></g><polygon points="12.695 24.738 12.688 26.216 12.326 26.007 12.334 24.53" class="st4"/></g><g><g><polygon points="13.433 25.164 13.639 25.044 13.632 26.522 13.425 26.642" class="st3"/></g><g><polygon points="13.071 24.956 13.278 24.836 13.639 25.044 13.433 25.164" class="st7"/></g><polygon points="13.433 25.164 13.425 26.642 13.064 26.433 13.071 24.956" class="st4"/></g><g><g><polygon points="14.17 25.59 14.377 25.47 14.369 26.948 14.163 27.068" class="st3"/></g><g><polygon points="13.809 25.381 14.015 25.262 14.377 25.47 14.17 25.59" class="st7"/></g><polygon points="14.17 25.59 14.163 27.068 13.801 26.859 13.809 25.381" class="st4"/></g><g><g><polygon points="9.745 23.035 9.951 22.915 9.944 24.393 9.738 24.513" class="st3"/></g><g><polygon points="9.384 22.826 9.59 22.707 9.951 22.915 9.745 23.035" class="st7"/></g><polygon points="9.745 23.035 9.738 24.513 9.376 24.304 9.384 22.826" class="st4"/></g></g></g><g><polygon points="14.81 28.339 14.803 30.636 9.097 27.341 9.104 25.044" class="st12"/><g><g><g><polygon points="10.483 26.517 10.689 26.397 10.681 27.874 10.475 27.994" class="st3"/></g><g><polygon points="10.121 26.308 10.328 26.188 10.689 26.397 10.483 26.517" class="st7"/></g><polygon points="10.483 26.517 10.475 27.994 10.114 27.785 10.121 26.308" class="st4"/></g><g><g><polygon points="11.22 26.942 11.427 26.823 11.419 28.3 11.213 28.42" class="st3"/></g><g><polygon points="10.859 26.734 11.065 26.614 11.427 26.823 11.22 26.942" class="st7"/></g><polygon points="11.22 26.942 11.213 28.42 10.851 28.211 10.859 26.734" class="st4"/></g><g><g><polygon points="11.958 27.368 12.164 27.248 12.157 28.726 11.95 28.846" class="st3"/></g><g><polygon points="11.596 27.159 11.803 27.04 12.164 27.248 11.958 27.368" class="st7"/></g><polygon points="11.958 27.368 11.95 28.846 11.589 28.637 11.596 27.159" class="st4"/></g><g><g><polygon points="12.695 27.794 12.902 27.674 12.894 29.152 12.688 29.272" class="st3"/></g><g><polygon points="12.334 27.585 12.54 27.465 12.902 27.674 12.695 27.794" class="st7"/></g><polygon points="12.695 27.794 12.688 29.272 12.326 29.063 12.334 27.585" class="st4"/></g><g><g><polygon points="13.433 28.22 13.639 28.1 13.632 29.578 13.425 29.697" class="st3"/></g><g><polygon points="13.071 28.011 13.278 27.891 13.639 28.1 13.433 28.22" class="st7"/></g><polygon points="13.433 28.22 13.425 29.697 13.064 29.489 13.071 28.011" class="st4"/></g><g><g><polygon points="14.17 28.646 14.377 28.526 14.369 30.003 14.163 30.123" class="st3"/></g><g><polygon points="13.809 28.437 14.015 28.317 14.377 28.526 14.17 28.646" class="st7"/></g><polygon points="14.17 28.646 14.163 30.123 13.801 29.915 13.809 28.437" class="st4"/></g><g><g><polygon points="9.745 26.091 9.951 25.971 9.944 27.449 9.738 27.568" class="st3"/></g><g><polygon points="9.384 25.882 9.59 25.762 9.951 25.971 9.745 26.091" class="st7"/></g><polygon points="9.745 26.091 9.738 27.568 9.376 27.36 9.384 25.882" class="st4"/></g></g></g><path d="M22.49034,27.72435c-0.03049,0.0176-0.0556,0.06109-0.0555,0.09613 c0.0001,0.0358,0.02537,0.0502,0.05586,0.03259l1.3549-0.78225c0.03049-0.0176,0.0556-0.06109,0.0555-0.09689 c-0.0001-0.03504-0.02537-0.04944-0.05586-0.03184L22.49034,27.72435z" class="st11"/><path d="M22.48949,27.42577c-0.03049,0.0176-0.0556,0.06109-0.0555,0.09689 c0.0001,0.03504,0.02537,0.04944,0.05586,0.03184l1.3549-0.78225c0.03049-0.0176,0.0556-0.0611,0.0555-0.09613 c-0.0001-0.0358-0.02537-0.0502-0.05586-0.03259L22.48949,27.42577z" class="st11"/><path d="M22.48865,27.12795c-0.03049,0.0176-0.0556,0.06033-0.0555,0.09613 c0.0001,0.03504,0.02537,0.04944,0.05586,0.03183l1.3549-0.78225c0.03049-0.0176,0.0556-0.06109,0.0555-0.09613 c-0.0001-0.0358-0.02537-0.04944-0.05586-0.03184L22.48865,27.12795z" class="st11"/><path d="M22.4878,26.82937c-0.03049,0.0176-0.0556,0.06032-0.0555,0.09613 c0.0001,0.03504,0.02537,0.04944,0.05586,0.03183l1.3549-0.78225c0.03049-0.0176,0.0556-0.06109,0.0555-0.09613 c-0.0001-0.0358-0.02537-0.04944-0.05586-0.03183L22.4878,26.82937z" class="st11"/><path d="M22.48611,26.23221c-0.03049,0.0176-0.0556,0.06033-0.0555,0.09613 c0.0001,0.03504,0.02537,0.04944,0.05586,0.03184l1.3549-0.78225c0.03049-0.0176,0.0556-0.06109,0.0555-0.09613 c-0.0001-0.0358-0.02537-0.04944-0.05586-0.03183L22.48611,26.23221z" class="st11"/><path d="M22.48696,26.53079c-0.03049,0.0176-0.0556,0.06033-0.0555,0.09613 c0.0001,0.03504,0.02537,0.04944,0.05586,0.03183l1.3549-0.78225c0.03049-0.0176,0.0556-0.06109,0.0555-0.09613 c-0.0001-0.0358-0.02537-0.04944-0.05586-0.03183L22.48696,26.53079z" class="st11"/><path d="M22.49034,25.00661c-0.03049,0.0176-0.0556,0.06109-0.0555,0.09613 c0.0001,0.0358,0.02537,0.0502,0.05586,0.03259l1.3549-0.78225c0.03049-0.0176,0.0556-0.06109,0.0555-0.09689 c-0.0001-0.03504-0.02537-0.04944-0.05586-0.03184L22.49034,25.00661z" class="st11"/><path d="M22.48949,24.70803c-0.03049,0.0176-0.0556,0.06109-0.0555,0.09689 c0.0001,0.03504,0.02537,0.04944,0.05586,0.03184l1.3549-0.78225c0.03049-0.0176,0.0556-0.0611,0.0555-0.09613 c-0.0001-0.0358-0.02537-0.0502-0.05586-0.03259L22.48949,24.70803z" class="st11"/><path d="M22.48865,24.41021c-0.03049,0.0176-0.0556,0.06033-0.0555,0.09613 c0.0001,0.03504,0.02537,0.04944,0.05586,0.03183l1.3549-0.78225c0.03049-0.0176,0.0556-0.06109,0.0555-0.09613 c-0.0001-0.0358-0.02537-0.04944-0.05586-0.03184L22.48865,24.41021z" class="st11"/><path d="M22.4878,24.11163c-0.03049,0.0176-0.0556,0.06033-0.0555,0.09613 c0.0001,0.03504,0.02537,0.04944,0.05586,0.03183l1.3549-0.78225c0.03049-0.0176,0.0556-0.06109,0.0555-0.09613 c-0.0001-0.0358-0.02537-0.04944-0.05586-0.03183L22.4878,24.11163z" class="st11"/><path d="M22.48611,23.51447c-0.03049,0.0176-0.0556,0.06033-0.0555,0.09613 c0.0001,0.03504,0.02537,0.04944,0.05586,0.03184l1.3549-0.78225c0.03049-0.0176,0.0556-0.0611,0.0555-0.09613 c-0.0001-0.0358-0.02537-0.04944-0.05586-0.03183L22.48611,23.51447z" class="st11"/><path d="M22.48696,23.81305c-0.03049,0.0176-0.0556,0.06033-0.0555,0.09613 c0.0001,0.03504,0.02537,0.04944,0.05586,0.03183l1.3549-0.78225c0.03049-0.0176,0.0556-0.06109,0.0555-0.09613 c-0.0001-0.0358-0.02537-0.04944-0.05586-0.03183L22.48696,23.81305z" class="st11"/><path d="M22.49034,22.28886c-0.03049,0.0176-0.0556,0.06109-0.0555,0.09613 c0.0001,0.0358,0.02537,0.0502,0.05586,0.03259l1.3549-0.78225c0.03049-0.0176,0.0556-0.06109,0.0555-0.09689 c-0.0001-0.03504-0.02537-0.04944-0.05586-0.03184L22.49034,22.28886z" class="st11"/><path d="M22.48949,21.99029c-0.03049,0.0176-0.0556,0.06109-0.0555,0.09689 c0.0001,0.03504,0.02537,0.04944,0.05586,0.03184l1.3549-0.78225c0.03049-0.0176,0.0556-0.0611,0.0555-0.09613 c-0.0001-0.0358-0.02537-0.0502-0.05586-0.03259L22.48949,21.99029z" class="st11"/><path d="M22.48865,21.69246c-0.03049,0.0176-0.0556,0.06033-0.0555,0.09613 c0.0001,0.03504,0.02537,0.04944,0.05586,0.03183l1.3549-0.78225c0.03049-0.0176,0.0556-0.06109,0.0555-0.09613 c-0.0001-0.0358-0.02537-0.04944-0.05586-0.03184L22.48865,21.69246z" class="st11"/><path d="M22.4878,21.39389c-0.03049,0.0176-0.0556,0.06033-0.0555,0.09613 c0.0001,0.03504,0.02537,0.04944,0.05586,0.03183l1.3549-0.78225c0.03049-0.0176,0.0556-0.06109,0.0555-0.09613 c-0.0001-0.0358-0.02537-0.04944-0.05586-0.03183L22.4878,21.39389z" class="st11"/><path d="M22.48611,20.79672c-0.03049,0.0176-0.0556,0.06033-0.0555,0.09613 c0.0001,0.03504,0.02537,0.04944,0.05586,0.03184l1.3549-0.78225c0.03049-0.0176,0.0556-0.0611,0.0555-0.09613 c-0.0001-0.0358-0.02537-0.04944-0.05586-0.03183L22.48611,20.79672z" class="st11"/><path d="M22.48696,21.09531c-0.03049,0.0176-0.0556,0.06033-0.0555,0.09613 c0.0001,0.03504,0.02537,0.04944,0.05586,0.03183l1.3549-0.78225c0.03049-0.0176,0.0556-0.06109,0.0555-0.09613 c-0.0001-0.0358-0.02537-0.04944-0.05586-0.03183L22.48696,21.09531z" class="st11"/><path d="M22.49034,19.57112c-0.03049,0.0176-0.0556,0.06109-0.0555,0.09613 c0.0001,0.0358,0.02537,0.0502,0.05586,0.03259l1.3549-0.78225c0.03049-0.0176,0.0556-0.06109,0.0555-0.09689 c-0.0001-0.03504-0.02537-0.04944-0.05586-0.03184L22.49034,19.57112z" class="st11"/><path d="M22.48949,19.27254c-0.03049,0.0176-0.0556,0.06109-0.0555,0.09689 c0.0001,0.03504,0.02537,0.04944,0.05586,0.03184l1.3549-0.78225c0.03049-0.0176,0.0556-0.06109,0.0555-0.09613 c-0.0001-0.0358-0.02537-0.0502-0.05586-0.03259L22.48949,19.27254z" class="st11"/><path d="M22.48865,18.97472c-0.03049,0.0176-0.0556,0.06033-0.0555,0.09613 c0.0001,0.03504,0.02537,0.04944,0.05586,0.03183l1.3549-0.78225c0.03049-0.0176,0.0556-0.06109,0.0555-0.09613 c-0.0001-0.0358-0.02537-0.04944-0.05586-0.03184L22.48865,18.97472z" class="st11"/><path d="M22.4878,18.67614c-0.03049,0.0176-0.0556,0.06032-0.0555,0.09613 c0.0001,0.03504,0.02537,0.04944,0.05586,0.03183l1.3549-0.78225c0.03049-0.0176,0.0556-0.06109,0.0555-0.09613 c-0.0001-0.0358-0.02537-0.04944-0.05586-0.03183L22.4878,18.67614z" class="st11"/><path d="M22.48611,18.07898c-0.03049,0.0176-0.0556,0.06033-0.0555,0.09613 c0.0001,0.03504,0.02537,0.04944,0.05586,0.03184l1.3549-0.78225c0.03049-0.0176,0.0556-0.0611,0.0555-0.09613 c-0.0001-0.0358-0.02537-0.04944-0.05586-0.03183L22.48611,18.07898z" class="st11"/><path d="M22.48696,18.37756c-0.03049,0.0176-0.0556,0.06033-0.0555,0.09613 c0.0001,0.03504,0.02537,0.04944,0.05586,0.03183l1.3549-0.78225c0.03049-0.0176,0.0556-0.06109,0.0555-0.09613 c-0.0001-0.0358-0.02537-0.04944-0.05586-0.03183L22.48696,18.37756z" class="st11"/><path d="M22.49034,16.85337c-0.03049,0.0176-0.0556,0.06109-0.0555,0.09613 c0.0001,0.0358,0.02537,0.0502,0.05586,0.03259l1.3549-0.78225c0.03049-0.0176,0.0556-0.06109,0.0555-0.09689 c-0.0001-0.03504-0.02537-0.04944-0.05586-0.03184L22.49034,16.85337z" class="st11"/><path d="M22.48949,16.5548c-0.03049,0.0176-0.0556,0.06109-0.0555,0.09689 c0.0001,0.03504,0.02537,0.04944,0.05586,0.03184l1.3549-0.78225c0.03049-0.0176,0.0556-0.0611,0.0555-0.09613 c-0.0001-0.0358-0.02537-0.0502-0.05586-0.03259L22.48949,16.5548z" class="st11"/><path d="M22.48865,16.25698c-0.03049,0.0176-0.0556,0.06033-0.0555,0.09613 c0.0001,0.03504,0.02537,0.04944,0.05586,0.03183l1.3549-0.78225c0.03049-0.0176,0.0556-0.06109,0.0555-0.09613 c-0.0001-0.0358-0.02537-0.04944-0.05586-0.03184L22.48865,16.25698z" class="st11"/><path d="M22.4878,15.9584c-0.03049,0.0176-0.0556,0.06032-0.0555,0.09613 c0.0001,0.03504,0.02537,0.04944,0.05586,0.03183l1.3549-0.78225c0.03049-0.0176,0.0556-0.06109,0.0555-0.09613 c-0.0001-0.0358-0.02537-0.04944-0.05586-0.03183L22.4878,15.9584z" class="st11"/><path d="M22.48611,15.36124c-0.03049,0.0176-0.0556,0.06033-0.0555,0.09613 c0.0001,0.03504,0.02537,0.04944,0.05586,0.03184l1.3549-0.78225c0.03049-0.0176,0.0556-0.0611,0.0555-0.09613 c-0.0001-0.0358-0.02537-0.04944-0.05586-0.03183L22.48611,15.36124z" class="st11"/><path d="M22.48696,15.65982c-0.03049,0.0176-0.0556,0.06033-0.0555,0.09613 c0.0001,0.03504,0.02537,0.04944,0.05586,0.03183l1.3549-0.78225c0.03049-0.0176,0.0556-0.06109,0.0555-0.09613 c-0.0001-0.0358-0.02537-0.04944-0.05586-0.03183L22.48696,15.65982z" class="st11"/><path d="M22.49034,14.13563c-0.03049,0.0176-0.0556,0.06109-0.0555,0.09613 c0.0001,0.0358,0.02537,0.0502,0.05586,0.03259l1.3549-0.78225c0.03049-0.0176,0.0556-0.06109,0.0555-0.09689 c-0.0001-0.03504-0.02537-0.04944-0.05586-0.03184L22.49034,14.13563z" class="st11"/><path d="M22.48949,13.83706c-0.03049,0.0176-0.0556,0.06109-0.0555,0.09689 c0.0001,0.03504,0.02537,0.04944,0.05586,0.03184l1.3549-0.78225c0.03049-0.0176,0.0556-0.0611,0.0555-0.09613 c-0.0001-0.0358-0.02537-0.0502-0.05586-0.03259L22.48949,13.83706z" class="st11"/><path d="M22.48865,13.53923c-0.03049,0.0176-0.0556,0.06033-0.0555,0.09613 c0.0001,0.03504,0.02537,0.04944,0.05586,0.03183l1.3549-0.78225c0.03049-0.0176,0.0556-0.06109,0.0555-0.09613 c-0.0001-0.0358-0.02537-0.04944-0.05586-0.03184L22.48865,13.53923z" class="st11"/><path d="M22.4878,13.24066c-0.03049,0.0176-0.0556,0.06032-0.0555,0.09613 c0.0001,0.03504,0.02537,0.04944,0.05586,0.03183l1.3549-0.78225c0.03049-0.0176,0.0556-0.06109,0.0555-0.09613 c-0.0001-0.0358-0.02537-0.04944-0.05586-0.03183L22.4878,13.24066z" class="st11"/><path d="M22.48611,12.64349c-0.03049,0.0176-0.0556,0.06033-0.0555,0.09613 c0.0001,0.03504,0.02537,0.04944,0.05586,0.03184l1.3549-0.78225c0.03049-0.0176,0.0556-0.0611,0.0555-0.09613 c-0.0001-0.0358-0.02537-0.04944-0.05586-0.03183L22.48611,12.64349z" class="st11"/><path d="M22.48696,12.94208c-0.03049,0.0176-0.0556,0.06033-0.0555,0.09613 c0.0001,0.03504,0.02537,0.04944,0.05586,0.03183l1.3549-0.78225c0.03049-0.0176,0.0556-0.06109,0.0555-0.09613 c-0.0001-0.0358-0.02537-0.04944-0.05586-0.03183L22.48696,12.94208z" class="st11"/><path d="M22.49034,11.41789c-0.03049,0.0176-0.0556,0.06109-0.0555,0.09613 c0.0001,0.0358,0.02537,0.0502,0.05586,0.03259l1.3549-0.78225c0.03049-0.0176,0.0556-0.06109,0.0555-0.09689 c-0.0001-0.03504-0.02537-0.04944-0.05586-0.03184L22.49034,11.41789z" class="st11"/><path d="M22.48949,11.11931c-0.03049,0.0176-0.0556,0.06109-0.0555,0.09689 c0.0001,0.03504,0.02537,0.04944,0.05586,0.03184l1.3549-0.78225c0.03049-0.0176,0.0556-0.0611,0.0555-0.09613 c-0.0001-0.0358-0.02537-0.0502-0.05586-0.03259L22.48949,11.11931z" class="st11"/><path d="M22.48865,10.82149c-0.03049,0.0176-0.0556,0.06033-0.0555,0.09613 c0.0001,0.03504,0.02537,0.04944,0.05586,0.03183l1.3549-0.78225c0.03049-0.0176,0.0556-0.06109,0.0555-0.09613 c-0.0001-0.0358-0.02537-0.04944-0.05586-0.03184L22.48865,10.82149z" class="st11"/><path d="M22.4878,10.52291c-0.03049,0.0176-0.0556,0.06032-0.0555,0.09613 c0.0001,0.03504,0.02537,0.04944,0.05586,0.03183l1.3549-0.78225c0.03049-0.0176,0.0556-0.06109,0.0555-0.09613 c-0.0001-0.0358-0.02537-0.04944-0.05586-0.03183L22.4878,10.52291z" class="st11"/><path d="M22.48611,9.92575c-0.03049,0.0176-0.0556,0.06033-0.0555,0.09613 c0.0001,0.03504,0.02537,0.04944,0.05586,0.03184l1.3549-0.78225c0.03049-0.0176,0.0556-0.0611,0.0555-0.09613 c-0.0001-0.0358-0.02537-0.04944-0.05586-0.03183L22.48611,9.92575z" class="st11"/><path d="M22.48696,10.22433c-0.03049,0.0176-0.0556,0.06033-0.0555,0.09613 c0.0001,0.03504,0.02537,0.04944,0.05586,0.03183l1.3549-0.78225c0.03049-0.0176,0.0556-0.06109,0.0555-0.09613 c-0.0001-0.0358-0.02537-0.04944-0.05586-0.03183L22.48696,10.22433z" class="st11"/><g><g><g><g><g><g><g><g><g><g><polygon points="15.026 12.517 15.845 12.041 15.834 33.24 15.015 33.716" class="st9"/></g><g><polygon points="6.566 7.633 7.385 7.157 15.845 12.041 15.026 12.517" class="st9"/></g><path d="M6.56824,7.6353L6.55622,28.83295l8.45736,4.88208l0.01205-21.19765L6.56824,7.6353z M14.03614,31.10681l-6.60522-3.81319L7.43669,8.70547l6.61107,3.81319L14.03614,31.10681z" class="st12"/></g></g><polygon points="7.439 8.704 7.43 28.095 14.035 31.909 14.045 12.517" class="st19"/></g></g></g></g></g></g><g><polygon points="8.986 28.994 14.038 26.174 14.038 25.515 8.311 28.604" class="st19"/><polygon points="7.43 28.095 7.561 28.171 14.039 24.781 14.039 23.113 7.431 26.554" class="st19"/><polygon points="14.042 18.629 7.433 21.269 7.433 21.929 14.041 19.288" class="st19"/><polygon points="14.043 16.227 7.434 18.867 7.434 20.536 14.042 17.896" class="st19"/><polygon points="13.252 12.06 7.437 14.383 7.436 15.043 13.927 12.449" class="st19"/><polygon points="10.794 10.641 7.438 11.981 7.437 13.65 12.502 11.626" class="st19"/></g></g><g><g><g class="st8"><g><path d="M14.82428,22.98304l-0.37144,0.21352c-0.02647,0.01588-0.04941,0.01676-0.06705,0.00705 l-0.21616-0.12528l0.00088,0.17381c0.00088,0.08823,0.03176,0.15087,0.08294,0.18087l-0.31145-0.18087 c-0.05029-0.02999-0.08205-0.09175-0.08205-0.18087l-0.00265-1.47058c-0.00088-0.17911,0.12529-0.39703,0.28057-0.48614 l0.37144-0.21439l0.31057,0.17998l-0.37056,0.2144c-0.15617,0.08999-0.28145,0.30792-0.28145,0.48702l0.00177,1.21913 l0.34321-0.19851L14.82428,22.98304z" class="st0"/></g></g></g><g><path d="M14.82012,21.08056l0.00061,0.21555l-0.37122,0.21432c-0.05182,0.02992-0.09337,0.10253-0.0932,0.16208 l0.00267,1.47098c0.00017,0.05955,0.04199,0.08338,0.09381,0.05346l0.37122-0.21432l0.00061,0.2162l-0.37122,0.21432 c-0.15547,0.08976-0.28207,0.01697-0.28257-0.16103l-0.00267-1.47099c-0.00051-0.17865,0.12526-0.39649,0.28074-0.48625 L14.82012,21.08056z" class="st6"/></g></g></g><g><g><g><g><g><g><g><polygon points="35.335 22.598 44.014 18.235 44.003 39.434 35.324 44.478" class="st9"/></g><g><polygon points="26.874 18.394 35.554 13.35 44.014 18.235 35.335 23.279" class="st11"/></g><g><polygon points="35.335 23.279 35.324 44.478 26.864 39.593 26.874 18.394" class="st12"/><g><polygon points="27.896 19.575 27.385 19.28 27.375 39.298 34.813 43.592 34.813 42.953 27.887 38.954" class="st11"/><polygon points="27.896 19.575 27.887 38.954 34.813 42.953 34.823 23.574" class="st9"/></g></g></g><g><polygon points="34.3 24.298 34.293 26.595 28.587 23.301 28.594 21.004" class="st12"/><g><g><g><polygon points="29.973 22.476 30.179 22.356 30.171 23.834 29.965 23.954" class="st3"/></g><g><polygon points="29.611 22.268 29.817 22.148 30.179 22.356 29.973 22.476" class="st7"/></g><polygon points="29.973 22.476 29.965 23.954 29.604 23.745 29.611 22.268" class="st4"/></g><g><g><polygon points="30.71 22.902 30.916 22.782 30.909 24.26 30.703 24.38" class="st3"/></g><g><polygon points="30.349 22.693 30.555 22.574 30.916 22.782 30.71 22.902" class="st7"/></g><polygon points="30.71 22.902 30.703 24.38 30.341 24.171 30.349 22.693" class="st4"/></g><g><g><polygon points="31.448 23.328 31.654 23.208 31.646 24.686 31.44 24.806" class="st3"/></g><g><polygon points="31.086 23.119 31.292 22.999 31.654 23.208 31.448 23.328" class="st7"/></g><polygon points="31.448 23.328 31.44 24.806 31.079 24.597 31.086 23.119" class="st4"/></g><g><g><polygon points="32.185 23.754 32.391 23.634 32.384 25.112 32.178 25.231" class="st3"/></g><g><polygon points="31.824 23.545 32.03 23.425 32.391 23.634 32.185 23.754" class="st7"/></g><polygon points="32.185 23.754 32.178 25.231 31.816 25.023 31.824 23.545" class="st4"/></g><g><g><polygon points="32.923 24.18 33.129 24.06 33.121 25.537 32.915 25.657" class="st3"/></g><g><polygon points="32.561 23.971 32.767 23.851 33.129 24.06 32.923 24.18" class="st7"/></g><polygon points="32.923 24.18 32.915 25.657 32.554 25.448 32.561 23.971" class="st4"/></g><g><g><polygon points="33.66 24.605 33.866 24.486 33.859 25.963 33.653 26.083" class="st3"/></g><g><polygon points="33.299 24.397 33.505 24.277 33.866 24.486 33.66 24.605" class="st7"/></g><polygon points="33.66 24.605 33.653 26.083 33.291 25.874 33.299 24.397" class="st4"/></g><g><g><polygon points="29.235 22.05 29.441 21.931 29.434 23.408 29.227 23.528" class="st3"/></g><g><polygon points="28.874 21.842 29.08 21.722 29.441 21.931 29.235 22.05" class="st7"/></g><polygon points="29.235 22.05 29.227 23.528 28.866 23.319 28.874 21.842" class="st4"/></g></g></g><g><polygon points="34.3 27.354 34.293 29.651 28.587 26.357 28.594 24.06" class="st12"/><g><g><g><polygon points="29.973 25.532 30.179 25.412 30.171 26.89 29.965 27.01" class="st3"/></g><g><polygon points="29.611 25.323 29.817 25.203 30.179 25.412 29.973 25.532" class="st7"/></g><polygon points="29.973 25.532 29.965 27.01 29.604 26.801 29.611 25.323" class="st4"/></g><g><g><polygon points="30.71 25.958 30.916 25.838 30.909 27.316 30.703 27.435" class="st3"/></g><g><polygon points="30.349 25.749 30.555 25.629 30.916 25.838 30.71 25.958" class="st7"/></g><polygon points="30.71 25.958 30.703 27.435 30.341 27.227 30.349 25.749" class="st4"/></g><g><g><polygon points="31.448 26.384 31.654 26.264 31.646 27.741 31.44 27.861" class="st3"/></g><g><polygon points="31.086 26.175 31.292 26.055 31.654 26.264 31.448 26.384" class="st7"/></g><polygon points="31.448 26.384 31.44 27.861 31.079 27.652 31.086 26.175" class="st4"/></g><g><g><polygon points="32.185 26.809 32.391 26.69 32.384 28.167 32.178 28.287" class="st3"/></g><g><polygon points="31.824 26.601 32.03 26.481 32.391 26.69 32.185 26.809" class="st7"/></g><polygon points="32.185 26.809 32.178 28.287 31.816 28.078 31.824 26.601" class="st4"/></g><g><g><polygon points="32.923 27.235 33.129 27.115 33.121 28.593 32.915 28.713" class="st3"/></g><g><polygon points="32.561 27.026 32.767 26.907 33.129 27.115 32.923 27.235" class="st7"/></g><polygon points="32.923 27.235 32.915 28.713 32.554 28.504 32.561 27.026" class="st4"/></g><g><g><polygon points="33.66 27.661 33.866 27.541 33.859 29.019 33.653 29.139" class="st3"/></g><g><polygon points="33.299 27.452 33.505 27.332 33.866 27.541 33.66 27.661" class="st7"/></g><polygon points="33.66 27.661 33.653 29.139 33.291 28.93 33.299 27.452" class="st4"/></g><g><g><polygon points="29.235 25.106 29.441 24.986 29.434 26.464 29.227 26.584" class="st3"/></g><g><polygon points="28.874 24.897 29.08 24.778 29.441 24.986 29.235 25.106" class="st7"/></g><polygon points="29.235 25.106 29.227 26.584 28.866 26.375 28.874 24.897" class="st4"/></g></g></g><g><polygon points="34.3 30.41 34.293 32.707 28.587 29.412 28.594 27.115" class="st12"/><g><g><g><polygon points="29.973 28.587 30.179 28.468 30.171 29.945 29.965 30.065" class="st3"/></g><g><polygon points="29.611 28.379 29.817 28.259 30.179 28.468 29.973 28.587" class="st7"/></g><polygon points="29.973 28.587 29.965 30.065 29.604 29.856 29.611 28.379" class="st4"/></g><g><g><polygon points="30.71 29.013 30.916 28.893 30.909 30.371 30.703 30.491" class="st3"/></g><g><polygon points="30.349 28.805 30.555 28.685 30.916 28.893 30.71 29.013" class="st7"/></g><polygon points="30.71 29.013 30.703 30.491 30.341 30.282 30.349 28.805" class="st4"/></g><g><g><polygon points="31.448 29.439 31.654 29.319 31.646 30.797 31.44 30.917" class="st3"/></g><g><polygon points="31.086 29.23 31.292 29.111 31.654 29.319 31.448 29.439" class="st7"/></g><polygon points="31.448 29.439 31.44 30.917 31.079 30.708 31.086 29.23" class="st4"/></g><g><g><polygon points="32.185 29.865 32.391 29.745 32.384 31.223 32.178 31.343" class="st3"/></g><g><polygon points="31.824 29.656 32.03 29.536 32.391 29.745 32.185 29.865" class="st7"/></g><polygon points="32.185 29.865 32.178 31.343 31.816 31.134 31.824 29.656" class="st4"/></g><g><g><polygon points="32.923 30.291 33.129 30.171 33.121 31.649 32.915 31.768" class="st3"/></g><g><polygon points="32.561 30.082 32.767 29.962 33.129 30.171 32.923 30.291" class="st7"/></g><polygon points="32.923 30.291 32.915 31.768 32.554 31.56 32.561 30.082" class="st4"/></g><g><g><polygon points="33.66 30.717 33.866 30.597 33.859 32.074 33.653 32.194" class="st3"/></g><g><polygon points="33.299 30.508 33.505 30.388 33.866 30.597 33.66 30.717" class="st7"/></g><polygon points="33.66 30.717 33.653 32.194 33.291 31.985 33.299 30.508" class="st4"/></g><g><g><polygon points="29.235 28.162 29.441 28.042 29.434 29.519 29.227 29.639" class="st3"/></g><g><polygon points="28.874 27.953 29.08 27.833 29.441 28.042 29.235 28.162" class="st7"/></g><polygon points="29.235 28.162 29.227 29.639 28.866 29.431 28.874 27.953" class="st4"/></g></g></g><g><polygon points="34.3 33.465 34.293 35.762 28.587 32.468 28.594 30.171" class="st12"/><g><g><g><polygon points="29.973 31.643 30.179 31.523 30.171 33.001 29.965 33.121" class="st3"/></g><g><polygon points="29.611 31.434 29.817 31.315 30.179 31.523 29.973 31.643" class="st7"/></g><polygon points="29.973 31.643 29.965 33.121 29.604 32.912 29.611 31.434" class="st4"/></g><g><g><polygon points="30.71 32.069 30.916 31.949 30.909 33.427 30.703 33.547" class="st3"/></g><g><polygon points="30.349 31.86 30.555 31.74 30.916 31.949 30.71 32.069" class="st7"/></g><polygon points="30.71 32.069 30.703 33.547 30.341 33.338 30.349 31.86" class="st4"/></g><g><g><polygon points="31.448 32.495 31.654 32.375 31.646 33.853 31.44 33.972" class="st3"/></g><g><polygon points="31.086 32.286 31.292 32.166 31.654 32.375 31.448 32.495" class="st7"/></g><polygon points="31.448 32.495 31.44 33.972 31.079 33.764 31.086 32.286" class="st4"/></g><g><g><polygon points="32.185 32.92 32.391 32.801 32.384 34.278 32.178 34.398" class="st3"/></g><g><polygon points="31.824 32.712 32.03 32.592 32.391 32.801 32.185 32.92" class="st7"/></g><polygon points="32.185 32.92 32.178 34.398 31.816 34.189 31.824 32.712" class="st4"/></g><g><g><polygon points="32.923 33.346 33.129 33.227 33.121 34.704 32.915 34.824" class="st3"/></g><g><polygon points="32.561 33.138 32.767 33.018 33.129 33.227 32.923 33.346" class="st7"/></g><polygon points="32.923 33.346 32.915 34.824 32.554 34.615 32.561 33.138" class="st4"/></g><g><g><polygon points="33.66 33.772 33.866 33.652 33.859 35.13 33.653 35.25" class="st3"/></g><g><polygon points="33.299 33.563 33.505 33.444 33.866 33.652 33.66 33.772" class="st7"/></g><polygon points="33.66 33.772 33.653 35.25 33.291 35.041 33.299 33.563" class="st4"/></g><g><g><polygon points="29.235 31.217 29.441 31.097 29.434 32.575 29.227 32.695" class="st3"/></g><g><polygon points="28.874 31.009 29.08 30.889 29.441 31.097 29.235 31.217" class="st7"/></g><polygon points="29.235 31.217 29.227 32.695 28.866 32.486 28.874 31.009" class="st4"/></g></g></g><g><polygon points="34.3 36.521 34.293 38.818 28.587 35.523 28.594 33.227" class="st12"/><g><g><g><polygon points="29.973 34.699 30.179 34.579 30.171 36.056 29.965 36.176" class="st3"/></g><g><polygon points="29.611 34.49 29.817 34.37 30.179 34.579 29.973 34.699" class="st7"/></g><polygon points="29.973 34.699 29.965 36.176 29.604 35.968 29.611 34.49" class="st4"/></g><g><g><polygon points="30.71 35.124 30.916 35.005 30.909 36.482 30.703 36.602" class="st3"/></g><g><polygon points="30.349 34.916 30.555 34.796 30.916 35.005 30.71 35.124" class="st7"/></g><polygon points="30.71 35.124 30.703 36.602 30.341 36.393 30.349 34.916" class="st4"/></g><g><g><polygon points="31.448 35.55 31.654 35.43 31.646 36.908 31.44 37.028" class="st3"/></g><g><polygon points="31.086 35.342 31.292 35.222 31.654 35.43 31.448 35.55" class="st7"/></g><polygon points="31.448 35.55 31.44 37.028 31.079 36.819 31.086 35.342" class="st4"/></g><g><g><polygon points="32.185 35.976 32.391 35.856 32.384 37.334 32.178 37.454" class="st3"/></g><g><polygon points="31.824 35.767 32.03 35.648 32.391 35.856 32.185 35.976" class="st7"/></g><polygon points="32.185 35.976 32.178 37.454 31.816 37.245 31.824 35.767" class="st4"/></g><g><g><polygon points="32.923 36.402 33.129 36.282 33.121 37.76 32.915 37.88" class="st3"/></g><g><polygon points="32.561 36.193 32.767 36.073 33.129 36.282 32.923 36.402" class="st7"/></g><polygon points="32.923 36.402 32.915 37.88 32.554 37.671 32.561 36.193" class="st4"/></g><g><g><polygon points="33.66 36.828 33.866 36.708 33.859 38.186 33.653 38.305" class="st3"/></g><g><polygon points="33.299 36.619 33.505 36.499 33.866 36.708 33.66 36.828" class="st7"/></g><polygon points="33.66 36.828 33.653 38.305 33.291 38.097 33.299 36.619" class="st4"/></g><g><g><polygon points="29.235 34.273 29.441 34.153 29.434 35.631 29.227 35.75" class="st3"/></g><g><polygon points="28.874 34.064 29.08 33.944 29.441 34.153 29.235 34.273" class="st7"/></g><polygon points="29.235 34.273 29.227 35.75 28.866 35.542 28.874 34.064" class="st4"/></g></g></g><g><polygon points="34.3 39.576 34.293 41.873 28.587 38.579 28.594 36.282" class="st12"/><g><g><g><polygon points="29.973 37.754 30.179 37.634 30.171 39.112 29.965 39.232" class="st3"/></g><g><polygon points="29.611 37.546 29.817 37.426 30.179 37.634 29.973 37.754" class="st7"/></g><polygon points="29.973 37.754 29.965 39.232 29.604 39.023 29.611 37.546" class="st4"/></g><g><g><polygon points="30.71 38.18 30.916 38.06 30.909 39.538 30.703 39.658" class="st3"/></g><g><polygon points="30.349 37.971 30.555 37.852 30.916 38.06 30.71 38.18" class="st7"/></g><polygon points="30.71 38.18 30.703 39.658 30.341 39.449 30.349 37.971" class="st4"/></g><g><g><polygon points="31.448 38.606 31.654 38.486 31.646 39.964 31.44 40.084" class="st3"/></g><g><polygon points="31.086 38.397 31.292 38.277 31.654 38.486 31.448 38.606" class="st7"/></g><polygon points="31.448 38.606 31.44 40.084 31.079 39.875 31.086 38.397" class="st4"/></g><g><g><polygon points="32.185 39.032 32.391 38.912 32.384 40.389 32.178 40.509" class="st3"/></g><g><polygon points="31.824 38.823 32.03 38.703 32.391 38.912 32.185 39.032" class="st7"/></g><polygon points="32.185 39.032 32.178 40.509 31.816 40.301 31.824 38.823" class="st4"/></g><g><g><polygon points="32.923 39.457 33.129 39.338 33.121 40.815 32.915 40.935" class="st3"/></g><g><polygon points="32.561 39.249 32.767 39.129 33.129 39.338 32.923 39.457" class="st7"/></g><polygon points="32.923 39.457 32.915 40.935 32.554 40.726 32.561 39.249" class="st4"/></g><g><g><polygon points="33.66 39.883 33.866 39.763 33.859 41.241 33.653 41.361" class="st3"/></g><g><polygon points="33.299 39.675 33.505 39.555 33.866 39.763 33.66 39.883" class="st7"/></g><polygon points="33.66 39.883 33.653 41.361 33.291 41.152 33.299 39.675" class="st4"/></g><g><g><polygon points="29.235 37.328 29.441 37.209 29.434 38.686 29.227 38.806" class="st3"/></g><g><polygon points="28.874 37.12 29.08 37 29.441 37.209 29.235 37.328" class="st7"/></g><polygon points="29.235 37.328 29.227 38.806 28.866 38.597 28.874 37.12" class="st4"/></g></g></g></g></g></g><g><g><g><path d="M41.98018,38.96202c-0.03049,0.0176-0.0556,0.06109-0.0555,0.09613 c0.0001,0.0358,0.02537,0.0502,0.05587,0.03259l1.35491-0.78226c0.03049-0.0176,0.0556-0.06109,0.0555-0.09689 c-0.0001-0.03504-0.02537-0.04944-0.05587-0.03184L41.98018,38.96202z" class="st11"/></g><g><path d="M41.97933,38.66344c-0.03049,0.0176-0.0556,0.06109-0.0555,0.09689 c0.0001,0.03504,0.02537,0.04945,0.05586,0.03184l1.35491-0.78226c0.03049-0.0176,0.0556-0.0611,0.0555-0.09613 c-0.0001-0.0358-0.02537-0.0502-0.05586-0.03259L41.97933,38.66344z" class="st11"/></g><g><path d="M41.97849,38.36562c-0.03049,0.0176-0.0556,0.06033-0.0555,0.09613 c0.0001,0.03504,0.02537,0.04944,0.05586,0.03183l1.35491-0.78226c0.03049-0.0176,0.0556-0.06109,0.0555-0.09613 c-0.0001-0.0358-0.02537-0.04944-0.05586-0.03184L41.97849,38.36562z" class="st11"/></g><g><path d="M41.97764,38.06704c-0.03049,0.0176-0.0556,0.06032-0.0555,0.09613 c0.0001,0.03504,0.02537,0.04944,0.05586,0.03183l1.35491-0.78226c0.03049-0.0176,0.0556-0.06109,0.0555-0.09613 c-0.0001-0.0358-0.02537-0.04944-0.05587-0.03183L41.97764,38.06704z" class="st11"/></g><g><path d="M41.97594,37.46987c-0.03049,0.0176-0.0556,0.06033-0.0555,0.09613 c0.0001,0.03504,0.02537,0.04944,0.05586,0.03184l1.35491-0.78226c0.03049-0.0176,0.0556-0.0611,0.0555-0.09613 c-0.0001-0.0358-0.02537-0.04944-0.05587-0.03183L41.97594,37.46987z" class="st11"/></g><g><path d="M41.97679,37.76846c-0.03049,0.0176-0.0556,0.06033-0.0555,0.09613 c0.0001,0.03504,0.02537,0.04944,0.05586,0.03183l1.35491-0.78226c0.03049-0.0176,0.0556-0.06109,0.0555-0.09613 c-0.0001-0.0358-0.02537-0.04944-0.05587-0.03183L41.97679,37.76846z" class="st11"/></g></g><g><g><path d="M41.98018,36.24425c-0.03049,0.0176-0.0556,0.0611-0.0555,0.09613 c0.0001,0.0358,0.02537,0.0502,0.05587,0.03259l1.35491-0.78226c0.03049-0.0176,0.0556-0.06109,0.0555-0.09689 c-0.0001-0.03504-0.02537-0.04944-0.05587-0.03184L41.98018,36.24425z" class="st11"/></g><g><path d="M41.97933,35.94567c-0.03049,0.0176-0.0556,0.06109-0.0555,0.09689 c0.0001,0.03504,0.02537,0.04944,0.05586,0.03184l1.35491-0.78226c0.03049-0.0176,0.0556-0.0611,0.0555-0.09613 c-0.0001-0.0358-0.02537-0.05019-0.05586-0.03259L41.97933,35.94567z" class="st11"/></g><g><path d="M41.97849,35.64785c-0.03049,0.0176-0.0556,0.06033-0.0555,0.09613 c0.0001,0.03504,0.02537,0.04944,0.05586,0.03183l1.35491-0.78226c0.03049-0.0176,0.0556-0.06109,0.0555-0.09613 c-0.0001-0.0358-0.02537-0.04944-0.05586-0.03184L41.97849,35.64785z" class="st11"/></g><g><path d="M41.97764,35.34927c-0.03049,0.0176-0.0556,0.06033-0.0555,0.09613 c0.0001,0.03504,0.02537,0.04944,0.05586,0.03183l1.35491-0.78226c0.03049-0.0176,0.0556-0.06109,0.0555-0.09613 c-0.0001-0.0358-0.02537-0.04944-0.05587-0.03183L41.97764,35.34927z" class="st11"/></g><g><path d="M41.97594,34.7521c-0.03049,0.0176-0.0556,0.06033-0.0555,0.09613 c0.0001,0.03504,0.02537,0.04945,0.05586,0.03184l1.35491-0.78226c0.03049-0.0176,0.0556-0.0611,0.0555-0.09613 c-0.0001-0.0358-0.02537-0.04944-0.05587-0.03183L41.97594,34.7521z" class="st11"/></g><g><path d="M41.97679,35.05069c-0.03049,0.0176-0.0556,0.06033-0.0555,0.09613 c0.0001,0.03504,0.02537,0.04944,0.05586,0.03183l1.35491-0.78226c0.03049-0.0176,0.0556-0.06109,0.0555-0.09613 c-0.0001-0.0358-0.02537-0.04944-0.05587-0.03183L41.97679,35.05069z" class="st11"/></g></g><g><g><path d="M41.98018,33.52649c-0.03049,0.0176-0.0556,0.0611-0.0555,0.09613 c0.0001,0.0358,0.02537,0.0502,0.05587,0.03259l1.35491-0.78226c0.03049-0.0176,0.0556-0.06109,0.0555-0.09689 c-0.0001-0.03504-0.02537-0.04944-0.05587-0.03184L41.98018,33.52649z" class="st11"/></g><g><path d="M41.97933,33.22791c-0.03049,0.0176-0.0556,0.06109-0.0555,0.09689 c0.0001,0.03504,0.02537,0.04944,0.05586,0.03184l1.35491-0.78226c0.03049-0.0176,0.0556-0.0611,0.0555-0.09613 c-0.0001-0.0358-0.02537-0.0502-0.05586-0.03259L41.97933,33.22791z" class="st11"/></g><g><path d="M41.97849,32.93008c-0.03049,0.0176-0.0556,0.06033-0.0555,0.09613 c0.0001,0.03504,0.02537,0.04944,0.05586,0.03183l1.35491-0.78226c0.03049-0.0176,0.0556-0.06109,0.0555-0.09613 c-0.0001-0.0358-0.02537-0.04944-0.05586-0.03184L41.97849,32.93008z" class="st11"/></g><g><path d="M41.97764,32.6315c-0.03049,0.0176-0.0556,0.06033-0.0555,0.09613 c0.0001,0.03504,0.02537,0.04944,0.05586,0.03183l1.35491-0.78226c0.03049-0.0176,0.0556-0.06109,0.0555-0.09613 c-0.0001-0.0358-0.02537-0.04944-0.05587-0.03183L41.97764,32.6315z" class="st11"/></g><g><path d="M41.97594,32.03434c-0.03049,0.0176-0.0556,0.06033-0.0555,0.09613 c0.0001,0.03504,0.02537,0.04944,0.05586,0.03184l1.35491-0.78226c0.03049-0.0176,0.0556-0.06109,0.0555-0.09613 c-0.0001-0.0358-0.02537-0.04944-0.05587-0.03183L41.97594,32.03434z" class="st11"/></g><g><path d="M41.97679,32.33292c-0.03049,0.0176-0.0556,0.06033-0.0555,0.09613 c0.0001,0.03504,0.02537,0.04944,0.05586,0.03183l1.35491-0.78226c0.03049-0.0176,0.0556-0.06109,0.0555-0.09613 c-0.0001-0.0358-0.02537-0.04944-0.05587-0.03183L41.97679,32.33292z" class="st11"/></g></g><g><g><path d="M41.98018,30.80872c-0.03049,0.0176-0.0556,0.0611-0.0555,0.09613 c0.0001,0.0358,0.02537,0.0502,0.05587,0.03259l1.35491-0.78226c0.03049-0.0176,0.0556-0.06109,0.0555-0.09689 c-0.0001-0.03504-0.02537-0.04944-0.05587-0.03184L41.98018,30.80872z" class="st11"/></g><g><path d="M41.97933,30.51014c-0.03049,0.0176-0.0556,0.06109-0.0555,0.09689 c0.0001,0.03504,0.02537,0.04944,0.05586,0.03184l1.35491-0.78226c0.03049-0.0176,0.0556-0.0611,0.0555-0.09613 c-0.0001-0.0358-0.02537-0.0502-0.05586-0.03259L41.97933,30.51014z" class="st11"/></g><g><path d="M41.97849,30.21231c-0.03049,0.0176-0.0556,0.06033-0.0555,0.09613 c0.0001,0.03504,0.02537,0.04944,0.05586,0.03183l1.35491-0.78226c0.03049-0.0176,0.0556-0.06109,0.0555-0.09613 c-0.0001-0.0358-0.02537-0.04944-0.05586-0.03184L41.97849,30.21231z" class="st11"/></g><g><path d="M41.97764,29.91374c-0.03049,0.0176-0.0556,0.06033-0.0555,0.09613 c0.0001,0.03504,0.02537,0.04944,0.05586,0.03183l1.35491-0.78226c0.03049-0.0176,0.0556-0.06109,0.0555-0.09613 c-0.0001-0.0358-0.02537-0.04944-0.05587-0.03183L41.97764,29.91374z" class="st11"/></g><g><path d="M41.97594,29.31657c-0.03049,0.0176-0.0556,0.06033-0.0555,0.09613 c0.0001,0.03504,0.02537,0.04944,0.05586,0.03184l1.35491-0.78226c0.03049-0.0176,0.0556-0.0611,0.0555-0.09613 c-0.0001-0.0358-0.02537-0.04944-0.05587-0.03183L41.97594,29.31657z" class="st11"/></g><g><path d="M41.97679,29.61515c-0.03049,0.0176-0.0556,0.06033-0.0555,0.09613 c0.0001,0.03504,0.02537,0.04944,0.05586,0.03183l1.35491-0.78226c0.03049-0.0176,0.0556-0.06109,0.0555-0.09613 c-0.0001-0.0358-0.02537-0.04944-0.05587-0.03183L41.97679,29.61515z" class="st11"/></g></g><g><g><path d="M41.98018,28.09095c-0.03049,0.0176-0.0556,0.06109-0.0555,0.09613 c0.0001,0.0358,0.02537,0.0502,0.05587,0.03259l1.35491-0.78226c0.03049-0.0176,0.0556-0.06109,0.0555-0.09689 c-0.0001-0.03504-0.02537-0.04944-0.05587-0.03184L41.98018,28.09095z" class="st11"/></g><g><path d="M41.97933,27.79237c-0.03049,0.0176-0.0556,0.06109-0.0555,0.09689 c0.0001,0.03504,0.02537,0.04944,0.05586,0.03184l1.35491-0.78226c0.03049-0.0176,0.0556-0.06109,0.0555-0.09613 c-0.0001-0.0358-0.02537-0.0502-0.05586-0.03259L41.97933,27.79237z" class="st11"/></g><g><path d="M41.97849,27.49455c-0.03049,0.0176-0.0556,0.06033-0.0555,0.09613 c0.0001,0.03504,0.02537,0.04944,0.05586,0.03183l1.35491-0.78226c0.03049-0.0176,0.0556-0.06109,0.0555-0.09613 c-0.0001-0.0358-0.02537-0.04944-0.05586-0.03184L41.97849,27.49455z" class="st11"/></g><g><path d="M41.97764,27.19597c-0.03049,0.0176-0.0556,0.06033-0.0555,0.09613 c0.0001,0.03504,0.02537,0.04944,0.05586,0.03183l1.35491-0.78226c0.03049-0.0176,0.0556-0.06109,0.0555-0.09613 c-0.0001-0.0358-0.02537-0.04944-0.05587-0.03183L41.97764,27.19597z" class="st11"/></g><g><path d="M41.97594,26.5988c-0.03049,0.0176-0.0556,0.06033-0.0555,0.09613 c0.0001,0.03504,0.02537,0.04944,0.05586,0.03184l1.35491-0.78226c0.03049-0.0176,0.0556-0.0611,0.0555-0.09613 c-0.0001-0.0358-0.02537-0.04944-0.05587-0.03183L41.97594,26.5988z" class="st11"/></g><g><path d="M41.97679,26.89738c-0.03049,0.0176-0.0556,0.06033-0.0555,0.09613 c0.0001,0.03504,0.02537,0.04944,0.05586,0.03183l1.35491-0.78226c0.03049-0.0176,0.0556-0.06109,0.0555-0.09613 c-0.0001-0.0358-0.02537-0.04944-0.05587-0.03183L41.97679,26.89738z" class="st11"/></g></g><g><g><path d="M41.98018,25.37318c-0.03049,0.0176-0.0556,0.06109-0.0555,0.09613 c0.0001,0.0358,0.02537,0.0502,0.05587,0.03259l1.35491-0.78226c0.03049-0.0176,0.0556-0.06109,0.0555-0.09689 c-0.0001-0.03504-0.02537-0.04944-0.05587-0.03184L41.98018,25.37318z" class="st11"/></g><g><path d="M41.97933,25.07461c-0.03049,0.0176-0.0556,0.06109-0.0555,0.09689 c0.0001,0.03504,0.02537,0.04944,0.05586,0.03184l1.35491-0.78226c0.03049-0.0176,0.0556-0.0611,0.0555-0.09613 c-0.0001-0.0358-0.02537-0.0502-0.05586-0.03259L41.97933,25.07461z" class="st11"/></g><g><path d="M41.97849,24.77678c-0.03049,0.0176-0.0556,0.06033-0.0555,0.09613 c0.0001,0.03504,0.02537,0.04944,0.05586,0.03183l1.35491-0.78226c0.03049-0.0176,0.0556-0.06109,0.0555-0.09613 c-0.0001-0.0358-0.02537-0.04944-0.05586-0.03184L41.97849,24.77678z" class="st11"/></g><g><path d="M41.97764,24.4782c-0.03049,0.0176-0.0556,0.06032-0.0555,0.09613 c0.0001,0.03504,0.02537,0.04944,0.05586,0.03183l1.35491-0.78226c0.03049-0.0176,0.0556-0.06109,0.0555-0.09613 c-0.0001-0.0358-0.02537-0.04944-0.05587-0.03183L41.97764,24.4782z" class="st11"/></g><g><path d="M41.97594,23.88103c-0.03049,0.0176-0.0556,0.06033-0.0555,0.09613 c0.0001,0.03504,0.02537,0.04944,0.05586,0.03184l1.35491-0.78226c0.03049-0.0176,0.0556-0.0611,0.0555-0.09613 c-0.0001-0.0358-0.02537-0.04944-0.05587-0.03183L41.97594,23.88103z" class="st11"/></g><g><path d="M41.97679,24.17962c-0.03049,0.0176-0.0556,0.06033-0.0555,0.09613 c0.0001,0.03504,0.02537,0.04944,0.05586,0.03183l1.35491-0.78226c0.03049-0.0176,0.0556-0.06109,0.0555-0.09613 c-0.0001-0.0358-0.02537-0.04944-0.05587-0.03183L41.97679,24.17962z" class="st11"/></g></g><g><g><path d="M41.98018,22.65542c-0.03049,0.0176-0.0556,0.06109-0.0555,0.09613 c0.0001,0.0358,0.02537,0.0502,0.05587,0.03259l1.35491-0.78226c0.03049-0.0176,0.0556-0.06109,0.0555-0.09689 c-0.0001-0.03504-0.02537-0.04944-0.05587-0.03184L41.98018,22.65542z" class="st11"/></g><g><path d="M41.97933,22.35684c-0.03049,0.0176-0.0556,0.06109-0.0555,0.09689 c0.0001,0.03504,0.02537,0.04944,0.05586,0.03184l1.35491-0.78226c0.03049-0.0176,0.0556-0.0611,0.0555-0.09613 c-0.0001-0.0358-0.02537-0.0502-0.05586-0.03259L41.97933,22.35684z" class="st11"/></g><g><path d="M41.97849,22.05901c-0.03049,0.0176-0.0556,0.06033-0.0555,0.09613 c0.0001,0.03504,0.02537,0.04944,0.05586,0.03183l1.35491-0.78226c0.03049-0.0176,0.0556-0.06109,0.0555-0.09613 c-0.0001-0.0358-0.02537-0.04944-0.05586-0.03184L41.97849,22.05901z" class="st11"/></g><g><path d="M41.97764,21.76044c-0.03049,0.0176-0.0556,0.06032-0.0555,0.09613 c0.0001,0.03504,0.02537,0.04944,0.05586,0.03183l1.35491-0.78226c0.03049-0.0176,0.0556-0.06109,0.0555-0.09613 c-0.0001-0.0358-0.02537-0.04944-0.05587-0.03183L41.97764,21.76044z" class="st11"/></g><g><path d="M41.97594,21.16327c-0.03049,0.0176-0.0556,0.06033-0.0555,0.09613 c0.0001,0.03504,0.02537,0.04944,0.05586,0.03184l1.35491-0.78226c0.03049-0.0176,0.0556-0.0611,0.0555-0.09613 c-0.0001-0.0358-0.02537-0.04944-0.05587-0.03183L41.97594,21.16327z" class="st11"/></g><g><path d="M41.97679,21.46185c-0.03049,0.0176-0.0556,0.06033-0.0555,0.09613 c0.0001,0.03504,0.02537,0.04944,0.05586,0.03183l1.35491-0.78226c0.03049-0.0176,0.0556-0.06109,0.0555-0.09613 c-0.0001-0.0358-0.02537-0.04944-0.05587-0.03183L41.97679,21.46185z" class="st11"/></g></g></g></g></g></g><g><g><path d="M17.74071,29.02591c-0.00643,0.32756-0.23125,0.72577-0.51385,0.88634 c-0.0835,0.05139-0.17339,0.07707-0.25046,0.07707c-0.05782,0-0.1156-0.01286-0.16057-0.04496 c-0.1156-0.06421-0.18628-0.1991-0.18628-0.37253c0-0.32752,0.22482-0.71934,0.51381-0.8863 c0.14775-0.08993,0.30189-0.09636,0.41749-0.03214C17.67646,28.72406,17.74071,28.85248,17.74071,29.02591z" class="st17"/></g></g><g><g><g><g><g><polygon points="26.877 28.161 26.41 27.89 26.421 49.089 26.888 49.36" class="st12"/></g><g><polygon points="35.337 23.276 34.87 23.005 26.41 27.89 26.877 28.161" class="st11"/></g><path d="M26.87715,28.16096l0.01211,21.19779l8.45732-4.88203l-0.01207-21.19779L26.87715,28.16096z M27.89651,28.1623l6.42167-3.70368l0.00602,19.37686l-6.41557,3.70369L27.89651,28.1623z" class="st9"/><g><g><g class="st8"><g><path d="M27.08705,38.27683l0.38721,0.22258c0.02759,0.01656,0.0515,0.01747,0.06989,0.00735l0.22533-0.1306 l-0.00092,0.18118c-0.00092,0.09197-0.03311,0.15728-0.08645,0.18855l0.32466-0.18855 c0.05243-0.03127,0.08554-0.09565,0.08554-0.18854l0.00276-1.53298c0.00091-0.18671-0.13061-0.41387-0.29247-0.50677 l-0.38721-0.22349l-0.32374,0.18762l0.38628,0.22349c0.16279,0.09381,0.29339,0.32099,0.29339,0.50769l-0.00184,1.27086 l-0.35777-0.20694L27.08705,38.27683z" class="st0"/></g></g></g><g><path d="M27.09138,36.29363l-0.00064,0.22469l0.38697,0.22342c0.05402,0.03119,0.09733,0.10688,0.09715,0.16896 l-0.00278,1.5334c-0.00018,0.06208-0.04377,0.08692-0.09779,0.05573l-0.38697-0.22342l-0.00064,0.22537l0.38697,0.22342 c0.16207,0.09357,0.29403,0.01769,0.29456-0.16786l0.00278-1.5334c0.00053-0.18623-0.13058-0.41332-0.29265-0.50689 L27.09138,36.29363z" class="st6"/></g></g></g></g><polygon points="34.315 24.457 34.325 43.836 27.91 47.54 27.9 28.161" class="st19"/></g><g class="st20"><polygon points="34.316 25.07 27.901 31.39 27.902 33.341 34.316 25.686" class="st2"/><polygon points="34.317 27.869 27.903 35.524 27.904 37.475 34.32 31.264" class="st2"/><polygon points="34.32 34.772 27.906 40.123 27.907 42.107 34.321 35.97" class="st2"/><polygon points="27.908 44.29 27.909 46.157 34.324 40.063 34.322 38.154" class="st2"/></g></g></g></g></svg>