<svg xmlns="http://www.w3.org/2000/svg" xmlns:xlink="http://www.w3.org/1999/xlink" id="Layer_1" version="1.1" viewBox="0 0 50 50" xml:space="preserve" style="enable-background:new 0 0 50 50"><style type="text/css">.st3{fill:#3955d1}.st4{fill:#4466fb}.st7{fill:#6bb5fb}.st8{enable-background:new}.st9{fill:#1b2a4f}.st11{fill:#384e85}.st12{fill:#2e4277}</style><g><g><g><polygon points="37.012 6.818 36.227 6.362 36.227 35.434 37.012 35.889" class="st4"/></g><g><polygon points="37.012 35.889 37.797 35.433 37.715 6.409 37.012 6.818" class="st3"/></g></g><g><g class="st8"><g><polygon points="43.097 37.384 43.094 38.511 25.046 49 25.049 47.873" class="st3"/></g><g><polygon points="25.049 47.873 25.046 49 14.25 42.767 14.253 41.64" class="st4"/></g><g><polygon points="43.097 37.384 25.049 47.873 14.253 41.64 32.301 31.151" class="st7"/></g></g></g><g><g class="st8"><g><polygon points="32.455 26.298 31.671 25.842 31.685 30.8 32.469 31.256" class="st4"/></g><g><polygon points="32.439 20.634 31.655 20.178 31.669 25.136 32.453 25.592" class="st4"/></g><g><polygon points="32.423 14.97 31.639 14.514 31.653 19.472 32.437 19.928" class="st4"/></g><g><polygon points="32.469 31.256 31.685 30.8 14.865 40.579 15.649 41.035" class="st7"/></g><g><polygon points="32.407 9.307 31.623 8.851 31.637 13.809 32.421 14.265" class="st4"/></g><g><polygon points="32.453 25.592 31.669 25.136 14.849 34.916 15.633 35.371" class="st7"/></g><g><polygon points="32.391 3.643 31.607 3.187 31.621 8.146 32.405 8.601" class="st4"/></g><g><polygon points="32.437 19.928 31.653 19.472 14.833 29.252 15.617 29.708" class="st7"/></g><g><polygon points="32.421 14.265 31.637 13.809 14.817 23.589 15.601 24.045" class="st7"/></g><g><polygon points="32.405 8.601 31.621 8.146 14.801 17.925 15.585 18.381" class="st7"/></g><g><polygon points="33.003 2.583 32.219 2.127 14.17 12.616 14.955 13.072" class="st7"/></g><g><path d="M33.08548,31.60685L15.03699,42.09549L14.9547,13.07157L33.0032,2.58293L33.08548,31.60685z M15.60096,24.04462l16.82021-9.77949l-0.01406-4.9581l-16.8202,9.77949L15.60096,24.04462 M15.64913,41.03517l16.82021-9.77949 l-0.01406-4.9581l-16.8202,9.77948L15.64913,41.03517 M15.61701,29.70754l16.82021-9.77949l-0.01406-4.9581l-16.82021,9.77949 L15.61701,29.70754 M15.5849,18.38083l16.82021-9.77949l-0.01406-4.9581l-16.82021,9.77949L15.5849,18.38083 M15.63307,35.37138 l16.82021-9.77949l-0.01406-4.9581l-16.82021,9.77949L15.63307,35.37138" class="st3"/></g><g><polygon points="14.955 13.072 14.17 12.616 14.253 41.64 15.037 42.095" class="st4"/></g></g></g><g><g><g class="st8"><g><polygon points="39.426 33.273 17.698 45.899 6.902 39.666 28.63 27.039" class="st7"/></g></g></g><g><polygon points="17.698 45.899 17.694 47.027 6.898 40.794 6.902 39.666" class="st4"/></g><polygon points="39.426 33.273 39.422 34.4 17.694 47.027 17.698 45.899" class="st3"/></g><g><g><g class="st8"><g><path d="M30.38312,35.54442l-9.78485-5.64989c-0.06382-0.03695-0.12428-0.04031-0.16795-0.01679l-11.83721,6.8793 c0.04367-0.02351,0.10413-0.02015,0.17131,0.01679l9.78148,5.64988c0.07746,0.04369,0.14343,0.12709,0.1871,0.21845 l11.83676-6.87904C30.5261,35.67194,30.46029,35.58794,30.38312,35.54442z" class="st11"/><path d="M18.77768,44.73807c0,0.07391-0.02688,0.12765-0.06718,0.15116l11.83721-6.87928 c0.04031-0.02351,0.06718-0.07725,0.06718-0.15116l0.00672-1.90456c0-0.06075-0.02136-0.12746-0.05185-0.1911 l-11.83676,6.87904c0.03018,0.06314,0.0514,0.12957,0.0514,0.19135L18.77768,44.73807z" class="st12"/></g><g><path d="M18.54653,42.42322c0.13082,0.07553,0.2377,0.26066,0.23728,0.41097l-0.00539,1.90247 c-0.00043,0.1528-0.10801,0.21164-0.23883,0.13611L8.75581,39.2241c-0.13082-0.07553-0.23771-0.25819-0.23728-0.41099 l0.00539-1.90247c0.00043-0.15031,0.10801-0.21162,0.23883-0.13609L18.54653,42.42322z" class="st9"/></g></g></g><g><g><polygon points="18.43 42.762 18.42 44.392 8.88 38.882 8.88 37.252" class="st11"/></g></g><g><polygon points="16.719 42.316 16.717 42.873 11.118 39.64 11.119 39.083" class="st7"/></g><g><polygon points="10.702 39.254 10.701 39.663 9.116 38.748 9.117 38.339" class="st9"/></g><g><path d="M17.69319,42.61681c0.2595,0.14982,0.46899,0.51266,0.46814,0.81084 c-0.00084,0.2982-0.2117,0.41835-0.4712,0.26852c-0.26164-0.15106-0.47113-0.51389-0.47028-0.81209 C17.22069,42.58591,17.43155,42.46576,17.69319,42.61681z" class="st7"/></g><g><polygon points="10.704 38.582 10.703 38.991 9.118 38.076 9.119 37.666" class="st9"/></g></g><g><g><g class="st8"><g><polygon points="39.426 21.85 21.377 32.338 10.581 26.105 28.63 15.616" class="st7"/></g></g></g><g><polygon points="21.377 32.338 21.374 33.465 10.578 27.232 10.581 26.105" class="st4"/></g><polygon points="39.426 21.85 39.422 22.977 21.374 33.465 21.377 32.338" class="st3"/></g><g><g><g class="st8"><g><path d="M33.64131,21.97938l-9.78485-5.64989c-0.06382-0.03695-0.12428-0.04031-0.16795-0.01679L11.8513,23.192 c0.04367-0.02352,0.10413-0.02015,0.17131,0.01679l9.78148,5.64989c0.07746,0.04369,0.14343,0.12709,0.1871,0.21845 l11.83676-6.87903C33.78429,22.1069,33.71848,22.0229,33.64131,21.97938z" class="st11"/><path d="M22.03588,31.17303c0,0.07391-0.02688,0.12764-0.06718,0.15116l11.83721-6.87928 c0.04031-0.02352,0.06718-0.07725,0.06718-0.15116l0.00673-1.90456c0-0.06075-0.02136-0.12746-0.05185-0.1911L21.9912,29.07712 c0.03018,0.06315,0.0514,0.12957,0.0514,0.19134L22.03588,31.17303z" class="st12"/></g><g><path d="M21.80472,28.85818c0.13082,0.07553,0.2377,0.26066,0.23728,0.41097l-0.00539,1.90247 c-0.00043,0.1528-0.10801,0.21164-0.23883,0.13611L12.014,25.65906c-0.13082-0.07553-0.23771-0.25819-0.23728-0.41099 l0.00539-1.90247c0.00043-0.15031,0.10801-0.21162,0.23883-0.13609L21.80472,28.85818z" class="st9"/></g></g></g><g><g><polygon points="21.688 29.197 21.678 30.827 12.138 25.317 12.138 23.687" class="st11"/></g></g><g><polygon points="19.977 28.751 19.975 29.308 14.376 26.075 14.377 25.518" class="st7"/></g><g><polygon points="13.96 25.689 13.959 26.098 12.374 25.183 12.375 24.774" class="st9"/></g><g><path d="M20.95138,29.05177c0.2595,0.14982,0.46899,0.51266,0.46814,0.81084 c-0.00084,0.2982-0.2117,0.41835-0.4712,0.26853c-0.26164-0.15106-0.47113-0.5139-0.47028-0.81209 C20.47889,29.02086,20.68974,28.90071,20.95138,29.05177z" class="st7"/></g><g><polygon points="13.962 25.016 13.961 25.426 12.376 24.511 12.377 24.101" class="st9"/></g></g><g><g class="st8"><g><polygon points="42.467 32.075 41.683 31.619 41.697 36.577 42.481 37.033" class="st4"/></g><g><polygon points="42.451 26.411 41.667 25.955 41.681 30.913 42.465 31.369" class="st4"/></g><g><polygon points="42.435 20.747 41.651 20.292 41.665 25.25 42.449 25.705" class="st4"/></g><g><polygon points="42.481 37.033 41.697 36.577 24.877 46.357 25.661 46.813" class="st7"/></g><g><polygon points="42.419 15.084 41.635 14.629 41.649 19.587 42.433 20.042" class="st4"/></g><g><polygon points="42.465 31.369 41.681 30.913 24.861 40.693 25.645 41.149" class="st7"/></g><g><polygon points="42.403 9.421 41.619 8.965 41.633 13.923 42.417 14.379" class="st4"/></g><g><polygon points="42.449 25.705 41.665 25.25 24.845 35.029 25.629 35.485" class="st7"/></g><g><polygon points="42.433 20.042 41.649 19.587 24.828 29.366 25.613 29.822" class="st7"/></g><g><polygon points="42.417 14.379 41.633 13.923 24.812 23.702 25.597 24.158" class="st7"/></g><g><polygon points="43.015 8.36 42.231 7.905 24.182 18.393 24.967 18.849" class="st7"/></g><g><path d="M43.0217,7.23731L24.97165,17.71729l0.08002,30.15997l18.04999-10.48999L43.0217,7.23731z M42.4017,9.4173 l0.01996,4.95996l-16.82001,9.78003l-0.01996-4.96002L42.4017,9.4173z M42.42166,15.08728l0.01001,4.96002l-16.82001,9.76996 l-0.01001-4.94995L42.42166,15.08728z M42.43167,20.74732l0.02002,4.95996l-16.82001,9.78003l-0.02002-4.96002 L42.43167,20.74732z M25.63169,36.18732l16.82001-9.78003l0.01001,4.96002L25.6417,41.14728L25.63169,36.18732z M25.66165,46.81726L25.6517,41.8573l16.81994-9.78003l0.01001,4.96002L25.66165,46.81726z" class="st3"/></g><g><polygon points="24.967 18.849 24.182 18.393 24.265 47.417 25.049 47.873" class="st4"/></g></g></g><g><g><g class="st8"><g><polygon points="43.018 7.233 24.97 17.722 14.174 11.489 32.222 1" class="st7"/></g></g></g><g><g><polygon points="40.404 6.739 38.792 6.907 37.409 6.109 37.697 5.176" class="st4"/></g><g><polygon points="40.404 6.739 39.012 7.548 36.305 5.985 37.697 5.176 37.409 6.109 38.792 6.907" class="st3"/></g><g><polygon points="35.122 3.69 33.511 3.858 32.128 3.06 32.416 2.127" class="st4"/></g><g><polygon points="35.122 3.69 33.731 4.499 31.024 2.936 32.416 2.127 32.128 3.06 33.511 3.858" class="st3"/></g></g><g><polygon points="24.97 17.722 24.967 18.849 14.17 12.616 14.174 11.489" class="st4"/></g></g></g></svg>