<svg xmlns="http://www.w3.org/2000/svg" xmlns:xlink="http://www.w3.org/1999/xlink" id="Layer_1" version="1.1" viewBox="0 0 50 50" xml:space="preserve" style="enable-background:new 0 0 50 50"><style type="text/css">.st0{fill:#b7c5fd}.st3{fill:#3955d1}.st4{fill:#4466fb}.st6{fill:#798ffe}.st7{fill:#6bb5fb}.st8{enable-background:new}.st9{fill:#1b2a4f}.st11{fill:#384e85}.st12{fill:#2e4277}.st19{opacity:.3;fill:#4466fb}</style><g><g><g><polygon points="25.543 15.388 38.726 8.419 38.71 40.616 25.527 48.277" class="st9"/></g><g><polygon points="12.694 8.661 25.876 1 38.726 8.419 25.543 16.08" class="st11"/></g><g><polygon points="25.543 16.08 25.527 48.277 12.677 40.858 12.694 8.661" class="st12"/><g><polygon points="14.245 10.454 13.47 10.007 13.454 40.41 24.75 46.932 24.751 45.962 14.231 39.888" class="st11"/><polygon points="14.245 10.454 14.231 39.888 24.751 45.962 24.766 16.528" class="st9"/></g></g></g><g><polygon points="23.972 17.628 23.961 21.117 15.294 16.113 15.305 12.625" class="st12"/><g><g><g><polygon points="17.399 14.861 17.712 14.679 17.701 16.923 17.388 17.105" class="st3"/></g><g><polygon points="16.85 14.544 17.163 14.362 17.712 14.679 17.399 14.861" class="st7"/></g><polygon points="17.399 14.861 17.388 17.105 16.839 16.788 16.85 14.544" class="st4"/></g><g><g><polygon points="18.519 15.507 18.832 15.325 18.821 17.57 18.508 17.752" class="st3"/></g><g><polygon points="17.97 15.19 18.283 15.008 18.832 15.325 18.519 15.507" class="st7"/></g><polygon points="18.519 15.507 18.508 17.752 17.959 17.435 17.97 15.19" class="st4"/></g><g><g><polygon points="19.64 16.154 19.953 15.972 19.941 18.216 19.628 18.398" class="st3"/></g><g><polygon points="19.091 15.837 19.404 15.655 19.953 15.972 19.64 16.154" class="st7"/></g><polygon points="19.64 16.154 19.628 18.398 19.079 18.081 19.091 15.837" class="st4"/></g><g><g><polygon points="20.76 16.801 21.073 16.619 21.061 18.863 20.748 19.045" class="st3"/></g><g><polygon points="20.211 16.484 20.524 16.302 21.073 16.619 20.76 16.801" class="st7"/></g><polygon points="20.76 16.801 20.748 19.045 20.199 18.728 20.211 16.484" class="st4"/></g><g><g><polygon points="21.88 17.448 22.193 17.266 22.182 19.51 21.868 19.692" class="st3"/></g><g><polygon points="21.331 17.131 21.644 16.949 22.193 17.266 21.88 17.448" class="st7"/></g><polygon points="21.88 17.448 21.868 19.692 21.319 19.375 21.331 17.131" class="st4"/></g><g><g><polygon points="23 18.094 23.313 17.912 23.302 20.157 22.989 20.339" class="st3"/></g><g><polygon points="22.451 17.777 22.764 17.595 23.313 17.912 23 18.094" class="st7"/></g><polygon points="23 18.094 22.989 20.339 22.44 20.022 22.451 17.777" class="st4"/></g><g><g><polygon points="16.279 14.214 16.592 14.032 16.581 16.276 16.268 16.458" class="st3"/></g><g><polygon points="15.73 13.897 16.043 13.715 16.592 14.032 16.279 14.214" class="st7"/></g><polygon points="16.279 14.214 16.268 16.458 15.719 16.141 15.73 13.897" class="st4"/></g></g></g><g><polygon points="23.972 22.269 23.961 25.758 15.294 20.754 15.305 17.266" class="st12"/><g><g><g><polygon points="17.399 19.501 17.712 19.32 17.701 21.564 17.388 21.746" class="st3"/></g><g><polygon points="16.85 19.184 17.163 19.003 17.712 19.32 17.399 19.501" class="st7"/></g><polygon points="17.399 19.501 17.388 21.746 16.839 21.429 16.85 19.184" class="st4"/></g><g><g><polygon points="18.519 20.148 18.832 19.966 18.821 22.211 18.508 22.392" class="st3"/></g><g><polygon points="17.97 19.831 18.283 19.649 18.832 19.966 18.519 20.148" class="st7"/></g><polygon points="18.519 20.148 18.508 22.392 17.959 22.076 17.97 19.831" class="st4"/></g><g><g><polygon points="19.64 20.795 19.953 20.613 19.941 22.857 19.628 23.039" class="st3"/></g><g><polygon points="19.091 20.478 19.404 20.296 19.953 20.613 19.64 20.795" class="st7"/></g><polygon points="19.64 20.795 19.628 23.039 19.079 22.722 19.091 20.478" class="st4"/></g><g><g><polygon points="20.76 21.442 21.073 21.26 21.061 23.504 20.748 23.686" class="st3"/></g><g><polygon points="20.211 21.125 20.524 20.943 21.073 21.26 20.76 21.442" class="st7"/></g><polygon points="20.76 21.442 20.748 23.686 20.199 23.369 20.211 21.125" class="st4"/></g><g><g><polygon points="21.88 22.088 22.193 21.906 22.182 24.151 21.868 24.333" class="st3"/></g><g><polygon points="21.331 21.771 21.644 21.589 22.193 21.906 21.88 22.088" class="st7"/></g><polygon points="21.88 22.088 21.868 24.333 21.319 24.016 21.331 21.771" class="st4"/></g><g><g><polygon points="23 22.735 23.313 22.553 23.302 24.797 22.989 24.979" class="st3"/></g><g><polygon points="22.451 22.418 22.764 22.236 23.313 22.553 23 22.735" class="st7"/></g><polygon points="23 22.735 22.989 24.979 22.44 24.662 22.451 22.418" class="st4"/></g><g><g><polygon points="16.279 18.855 16.592 18.673 16.581 20.917 16.268 21.099" class="st3"/></g><g><polygon points="15.73 18.538 16.043 18.356 16.592 18.673 16.279 18.855" class="st7"/></g><polygon points="16.279 18.855 16.268 21.099 15.719 20.782 15.73 18.538" class="st4"/></g></g></g><g><polygon points="23.972 26.91 23.961 30.399 15.294 25.395 15.305 21.906" class="st12"/><g><g><g><polygon points="17.399 24.142 17.712 23.96 17.701 26.205 17.388 26.387" class="st3"/></g><g><polygon points="16.85 23.825 17.163 23.643 17.712 23.96 17.399 24.142" class="st7"/></g><polygon points="17.399 24.142 17.388 26.387 16.839 26.07 16.85 23.825" class="st4"/></g><g><g><polygon points="18.519 24.789 18.832 24.607 18.821 26.851 18.508 27.033" class="st3"/></g><g><polygon points="17.97 24.472 18.283 24.29 18.832 24.607 18.519 24.789" class="st7"/></g><polygon points="18.519 24.789 18.508 27.033 17.959 26.716 17.97 24.472" class="st4"/></g><g><g><polygon points="19.64 25.436 19.953 25.254 19.941 27.498 19.628 27.68" class="st3"/></g><g><polygon points="19.091 25.119 19.404 24.937 19.953 25.254 19.64 25.436" class="st7"/></g><polygon points="19.64 25.436 19.628 27.68 19.079 27.363 19.091 25.119" class="st4"/></g><g><g><polygon points="20.76 26.083 21.073 25.901 21.061 28.145 20.748 28.327" class="st3"/></g><g><polygon points="20.211 25.766 20.524 25.584 21.073 25.901 20.76 26.083" class="st7"/></g><polygon points="20.76 26.083 20.748 28.327 20.199 28.01 20.211 25.766" class="st4"/></g><g><g><polygon points="21.88 26.729 22.193 26.547 22.182 28.792 21.868 28.974" class="st3"/></g><g><polygon points="21.331 26.412 21.644 26.23 22.193 26.547 21.88 26.729" class="st7"/></g><polygon points="21.88 26.729 21.868 28.974 21.319 28.657 21.331 26.412" class="st4"/></g><g><g><polygon points="23 27.376 23.313 27.194 23.302 29.438 22.989 29.62" class="st3"/></g><g><polygon points="22.451 27.059 22.764 26.877 23.313 27.194 23 27.376" class="st7"/></g><polygon points="23 27.376 22.989 29.62 22.44 29.303 22.451 27.059" class="st4"/></g><g><g><polygon points="16.279 23.496 16.592 23.314 16.581 25.558 16.268 25.74" class="st3"/></g><g><polygon points="15.73 23.179 16.043 22.997 16.592 23.314 16.279 23.496" class="st7"/></g><polygon points="16.279 23.496 16.268 25.74 15.719 25.423 15.73 23.179" class="st4"/></g></g></g><g><polygon points="23.972 31.551 23.961 35.04 15.294 30.036 15.305 26.547" class="st12"/><g><g><g><polygon points="17.399 28.783 17.712 28.601 17.701 30.846 17.388 31.028" class="st3"/></g><g><polygon points="16.85 28.466 17.163 28.284 17.712 28.601 17.399 28.783" class="st7"/></g><polygon points="17.399 28.783 17.388 31.028 16.839 30.711 16.85 28.466" class="st4"/></g><g><g><polygon points="18.519 29.43 18.832 29.248 18.821 31.492 18.508 31.674" class="st3"/></g><g><polygon points="17.97 29.113 18.283 28.931 18.832 29.248 18.519 29.43" class="st7"/></g><polygon points="18.519 29.43 18.508 31.674 17.959 31.357 17.97 29.113" class="st4"/></g><g><g><polygon points="19.64 30.077 19.953 29.895 19.941 32.139 19.628 32.321" class="st3"/></g><g><polygon points="19.091 29.76 19.404 29.578 19.953 29.895 19.64 30.077" class="st7"/></g><polygon points="19.64 30.077 19.628 32.321 19.079 32.004 19.091 29.76" class="st4"/></g><g><g><polygon points="20.76 30.724 21.073 30.542 21.061 32.786 20.748 32.968" class="st3"/></g><g><polygon points="20.211 30.407 20.524 30.225 21.073 30.542 20.76 30.724" class="st7"/></g><polygon points="20.76 30.724 20.748 32.968 20.199 32.651 20.211 30.407" class="st4"/></g><g><g><polygon points="21.88 31.37 22.193 31.188 22.182 33.433 21.868 33.615" class="st3"/></g><g><polygon points="21.331 31.053 21.644 30.871 22.193 31.188 21.88 31.37" class="st7"/></g><polygon points="21.88 31.37 21.868 33.615 21.319 33.298 21.331 31.053" class="st4"/></g><g><g><polygon points="23 32.017 23.313 31.835 23.302 34.079 22.989 34.261" class="st3"/></g><g><polygon points="22.451 31.7 22.764 31.518 23.313 31.835 23 32.017" class="st7"/></g><polygon points="23 32.017 22.989 34.261 22.44 33.944 22.451 31.7" class="st4"/></g><g><g><polygon points="16.279 28.137 16.592 27.955 16.581 30.199 16.268 30.381" class="st3"/></g><g><polygon points="15.73 27.82 16.043 27.638 16.592 27.955 16.279 28.137" class="st7"/></g><polygon points="16.279 28.137 16.268 30.381 15.719 30.064 15.73 27.82" class="st4"/></g></g></g><g><polygon points="23.972 36.192 23.961 39.681 15.294 34.677 15.305 31.188" class="st12"/><g><g><g><polygon points="17.399 33.424 17.712 33.242 17.701 35.487 17.388 35.668" class="st3"/></g><g><polygon points="16.85 33.107 17.163 32.925 17.712 33.242 17.399 33.424" class="st7"/></g><polygon points="17.399 33.424 17.388 35.668 16.839 35.352 16.85 33.107" class="st4"/></g><g><g><polygon points="18.519 34.071 18.832 33.889 18.821 36.133 18.508 36.315" class="st3"/></g><g><polygon points="17.97 33.754 18.283 33.572 18.832 33.889 18.519 34.071" class="st7"/></g><polygon points="18.519 34.071 18.508 36.315 17.959 35.998 17.97 33.754" class="st4"/></g><g><g><polygon points="19.64 34.718 19.953 34.536 19.941 36.78 19.628 36.962" class="st3"/></g><g><polygon points="19.091 34.401 19.404 34.219 19.953 34.536 19.64 34.718" class="st7"/></g><polygon points="19.64 34.718 19.628 36.962 19.079 36.645 19.091 34.401" class="st4"/></g><g><g><polygon points="20.76 35.364 21.073 35.182 21.061 37.427 20.748 37.609" class="st3"/></g><g><polygon points="20.211 35.047 20.524 34.865 21.073 35.182 20.76 35.364" class="st7"/></g><polygon points="20.76 35.364 20.748 37.609 20.199 37.292 20.211 35.047" class="st4"/></g><g><g><polygon points="21.88 36.011 22.193 35.829 22.182 38.073 21.868 38.255" class="st3"/></g><g><polygon points="21.331 35.694 21.644 35.512 22.193 35.829 21.88 36.011" class="st7"/></g><polygon points="21.88 36.011 21.868 38.255 21.319 37.938 21.331 35.694" class="st4"/></g><g><g><polygon points="23 36.658 23.313 36.476 23.302 38.72 22.989 38.902" class="st3"/></g><g><polygon points="22.451 36.341 22.764 36.159 23.313 36.476 23 36.658" class="st7"/></g><polygon points="23 36.658 22.989 38.902 22.44 38.585 22.451 36.341" class="st4"/></g><g><g><polygon points="16.279 32.777 16.592 32.596 16.581 34.84 16.268 35.022" class="st3"/></g><g><polygon points="15.73 32.46 16.043 32.279 16.592 32.596 16.279 32.777" class="st7"/></g><polygon points="16.279 32.777 16.268 35.022 15.719 34.705 15.73 32.46" class="st4"/></g></g></g><g><polygon points="23.972 40.833 23.961 44.321 15.294 39.318 15.305 35.829" class="st12"/><g><g><g><polygon points="17.399 38.065 17.712 37.883 17.701 40.127 17.388 40.309" class="st3"/></g><g><polygon points="16.85 37.748 17.163 37.566 17.712 37.883 17.399 38.065" class="st7"/></g><polygon points="17.399 38.065 17.388 40.309 16.839 39.992 16.85 37.748" class="st4"/></g><g><g><polygon points="18.519 38.712 18.832 38.53 18.821 40.774 18.508 40.956" class="st3"/></g><g><polygon points="17.97 38.395 18.283 38.213 18.832 38.53 18.519 38.712" class="st7"/></g><polygon points="18.519 38.712 18.508 40.956 17.959 40.639 17.97 38.395" class="st4"/></g><g><g><polygon points="19.64 39.359 19.953 39.177 19.941 41.421 19.628 41.603" class="st3"/></g><g><polygon points="19.091 39.042 19.404 38.86 19.953 39.177 19.64 39.359" class="st7"/></g><polygon points="19.64 39.359 19.628 41.603 19.079 41.286 19.091 39.042" class="st4"/></g><g><g><polygon points="20.76 40.005 21.073 39.823 21.061 42.068 20.748 42.25" class="st3"/></g><g><polygon points="20.211 39.688 20.524 39.506 21.073 39.823 20.76 40.005" class="st7"/></g><polygon points="20.76 40.005 20.748 42.25 20.199 41.933 20.211 39.688" class="st4"/></g><g><g><polygon points="21.88 40.652 22.193 40.47 22.182 42.714 21.868 42.896" class="st3"/></g><g><polygon points="21.331 40.335 21.644 40.153 22.193 40.47 21.88 40.652" class="st7"/></g><polygon points="21.88 40.652 21.868 42.896 21.319 42.579 21.331 40.335" class="st4"/></g><g><g><polygon points="23 41.299 23.313 41.117 23.302 43.361 22.989 43.543" class="st3"/></g><g><polygon points="22.451 40.982 22.764 40.8 23.313 41.117 23 41.299" class="st7"/></g><polygon points="23 41.299 22.989 43.543 22.44 43.226 22.451 40.982" class="st4"/></g><g><g><polygon points="16.279 37.418 16.592 37.236 16.581 39.481 16.268 39.663" class="st3"/></g><g><polygon points="15.73 37.101 16.043 36.919 16.592 37.236 16.279 37.418" class="st7"/></g><polygon points="16.279 37.418 16.268 39.663 15.719 39.346 15.73 37.101" class="st4"/></g></g></g><path d="M35.63664,39.89954c-0.04631,0.02674-0.08444,0.09279-0.08429,0.14601 c0.00015,0.05437,0.03853,0.07624,0.08485,0.0495l2.05787-1.18811c0.04631-0.02674,0.08445-0.09278,0.08429-0.14716 c-0.00015-0.05322-0.03854-0.07509-0.08485-0.04836L35.63664,39.89954z" class="st11"/><path d="M35.63535,39.44605c-0.04631,0.02674-0.08444,0.09278-0.08429,0.14715 c0.00015,0.05322,0.03853,0.0751,0.08484,0.04836l2.05787-1.18811c0.04631-0.02674,0.08445-0.09279,0.0843-0.14601 c-0.00016-0.05437-0.03854-0.07624-0.08485-0.0495L35.63535,39.44605z" class="st11"/><path d="M35.63407,38.9937c-0.04631,0.02674-0.08445,0.09163-0.08429,0.14601 c0.00015,0.05322,0.03853,0.07509,0.08484,0.04835l2.05787-1.18811c0.04631-0.02674,0.08445-0.09278,0.0843-0.146 c-0.00016-0.05438-0.03854-0.0751-0.08485-0.04836L35.63407,38.9937z" class="st11"/><path d="M35.63279,38.54021c-0.04631,0.02674-0.08445,0.09162-0.08429,0.146 c0.00015,0.05322,0.03853,0.07509,0.08485,0.04835l2.05787-1.18811c0.04631-0.02674,0.08445-0.09279,0.0843-0.146 c-0.00016-0.05438-0.03854-0.07509-0.08485-0.04835L35.63279,38.54021z" class="st11"/><path d="M35.63021,37.63322c-0.04631,0.02674-0.08445,0.09163-0.08429,0.146 c0.00015,0.05322,0.03853,0.0751,0.08485,0.04836l2.05787-1.18811c0.04631-0.02674,0.08445-0.09279,0.0843-0.14601 c-0.00016-0.05437-0.03854-0.07509-0.08485-0.04835L35.63021,37.63322z" class="st11"/><path d="M35.6315,38.08672c-0.04631,0.02674-0.08445,0.09163-0.08429,0.146 c0.00015,0.05322,0.03853,0.07509,0.08485,0.04835l2.05787-1.18811c0.04631-0.02674,0.08445-0.09278,0.0843-0.146 c-0.00016-0.05437-0.03854-0.07508-0.08485-0.04835L35.6315,38.08672z" class="st11"/><path d="M35.63664,35.77172c-0.04631,0.02674-0.08444,0.09279-0.08429,0.14601 c0.00015,0.05437,0.03853,0.07624,0.08485,0.0495l2.05787-1.18811c0.04631-0.02674,0.08445-0.09279,0.08429-0.14716 c-0.00015-0.05322-0.03854-0.0751-0.08485-0.04836L35.63664,35.77172z" class="st11"/><path d="M35.63535,35.31823c-0.04631,0.02674-0.08444,0.09278-0.08429,0.14715 c0.00015,0.05322,0.03853,0.0751,0.08484,0.04836l2.05787-1.18811c0.04631-0.02674,0.08445-0.09279,0.0843-0.14601 c-0.00016-0.05437-0.03854-0.07624-0.08485-0.0495L35.63535,35.31823z" class="st11"/><path d="M35.63407,34.86589c-0.04631,0.02674-0.08445,0.09163-0.08429,0.14601 c0.00015,0.05322,0.03853,0.07509,0.08484,0.04835l2.05787-1.18811c0.04631-0.02674,0.08445-0.09278,0.0843-0.146 c-0.00016-0.05438-0.03854-0.0751-0.08485-0.04836L35.63407,34.86589z" class="st11"/><path d="M35.63279,34.4124c-0.04631,0.02674-0.08445,0.09162-0.08429,0.146 c0.00015,0.05322,0.03853,0.07509,0.08485,0.04835l2.05787-1.18811c0.04631-0.02674,0.08445-0.09278,0.0843-0.146 c-0.00016-0.05438-0.03854-0.07508-0.08485-0.04835L35.63279,34.4124z" class="st11"/><path d="M35.63021,33.5054c-0.04631,0.02674-0.08445,0.09163-0.08429,0.146 c0.00015,0.05322,0.03853,0.0751,0.08485,0.04836l2.05787-1.18811c0.04631-0.02674,0.08445-0.0928,0.0843-0.14601 c-0.00016-0.05437-0.03854-0.07509-0.08485-0.04835L35.63021,33.5054z" class="st11"/><path d="M35.6315,33.9589c-0.04631,0.02674-0.08445,0.09163-0.08429,0.146 c0.00015,0.05322,0.03853,0.07509,0.08485,0.04835l2.05787-1.18811c0.04631-0.02674,0.08445-0.09278,0.0843-0.146 c-0.00016-0.05437-0.03854-0.07509-0.08485-0.04835L35.6315,33.9589z" class="st11"/><path d="M35.63664,31.6439c-0.04631,0.02674-0.08444,0.09279-0.08429,0.14601 c0.00015,0.05437,0.03853,0.07624,0.08485,0.0495l2.05787-1.18811c0.04631-0.02674,0.08445-0.09279,0.08429-0.14716 c-0.00015-0.05322-0.03854-0.07509-0.08485-0.04836L35.63664,31.6439z" class="st11"/><path d="M35.63535,31.19041c-0.04631,0.02674-0.08444,0.09278-0.08429,0.14715 c0.00015,0.05322,0.03853,0.0751,0.08484,0.04836l2.05787-1.18811c0.04631-0.02674,0.08445-0.09279,0.0843-0.14601 c-0.00016-0.05437-0.03854-0.07624-0.08485-0.0495L35.63535,31.19041z" class="st11"/><path d="M35.63407,30.73807c-0.04631,0.02674-0.08445,0.09163-0.08429,0.14601 c0.00015,0.05322,0.03853,0.07509,0.08484,0.04835l2.05787-1.18811c0.04631-0.02674,0.08445-0.09278,0.0843-0.146 c-0.00016-0.05438-0.03854-0.07509-0.08485-0.04836L35.63407,30.73807z" class="st11"/><path d="M35.63279,30.28458c-0.04631,0.02674-0.08445,0.09162-0.08429,0.146 c0.00015,0.05322,0.03853,0.07509,0.08485,0.04835l2.05787-1.18811c0.04631-0.02674,0.08445-0.09278,0.0843-0.146 c-0.00016-0.05438-0.03854-0.07509-0.08485-0.04835L35.63279,30.28458z" class="st11"/><path d="M35.63021,29.37758c-0.04631,0.02674-0.08445,0.09163-0.08429,0.146 c0.00015,0.05322,0.03853,0.0751,0.08485,0.04836l2.05787-1.18811c0.04631-0.02674,0.08445-0.09279,0.0843-0.14601 c-0.00016-0.05437-0.03854-0.07509-0.08485-0.04835L35.63021,29.37758z" class="st11"/><path d="M35.6315,29.83108c-0.04631,0.02674-0.08445,0.09163-0.08429,0.146 c0.00015,0.05322,0.03853,0.07509,0.08485,0.04835l2.05787-1.18811c0.04631-0.02674,0.08445-0.09279,0.0843-0.146 c-0.00016-0.05437-0.03854-0.07508-0.08485-0.04835L35.6315,29.83108z" class="st11"/><path d="M35.63664,27.51608c-0.04631,0.02674-0.08444,0.09279-0.08429,0.14601 c0.00015,0.05437,0.03853,0.07624,0.08485,0.0495l2.05787-1.18811c0.04631-0.02674,0.08445-0.09278,0.08429-0.14716 c-0.00015-0.05322-0.03854-0.07509-0.08485-0.04836L35.63664,27.51608z" class="st11"/><path d="M35.63535,27.06259c-0.04631,0.02674-0.08444,0.09278-0.08429,0.14715 c0.00015,0.05322,0.03853,0.0751,0.08484,0.04836l2.05787-1.18811c0.04631-0.02674,0.08445-0.09279,0.0843-0.14601 c-0.00016-0.05437-0.03854-0.07624-0.08485-0.0495L35.63535,27.06259z" class="st11"/><path d="M35.63407,26.61025c-0.04631,0.02674-0.08445,0.09163-0.08429,0.14601 c0.00015,0.05322,0.03853,0.07509,0.08484,0.04835l2.05787-1.18811c0.04631-0.02674,0.08445-0.09279,0.0843-0.146 c-0.00016-0.05438-0.03854-0.07509-0.08485-0.04836L35.63407,26.61025z" class="st11"/><path d="M35.63279,26.15676c-0.04631,0.02674-0.08445,0.09162-0.08429,0.146 c0.00015,0.05322,0.03853,0.07509,0.08485,0.04835l2.05787-1.18811c0.04631-0.02674,0.08445-0.09279,0.0843-0.146 c-0.00016-0.05438-0.03854-0.07509-0.08485-0.04835L35.63279,26.15676z" class="st11"/><path d="M35.63021,25.24976c-0.04631,0.02674-0.08445,0.09163-0.08429,0.146 c0.00015,0.05322,0.03853,0.0751,0.08485,0.04836l2.05787-1.18811c0.04631-0.02674,0.08445-0.09279,0.0843-0.14601 c-0.00016-0.05437-0.03854-0.07509-0.08485-0.04835L35.63021,25.24976z" class="st11"/><path d="M35.6315,25.70326c-0.04631,0.02674-0.08445,0.09163-0.08429,0.146 c0.00015,0.05322,0.03853,0.07509,0.08485,0.04835l2.05787-1.18811c0.04631-0.02674,0.08445-0.09278,0.0843-0.146 c-0.00016-0.05437-0.03854-0.07509-0.08485-0.04835L35.6315,25.70326z" class="st11"/><path d="M35.63664,23.38826c-0.04631,0.02674-0.08444,0.09279-0.08429,0.14601 c0.00015,0.05437,0.03853,0.07624,0.08485,0.0495l2.05787-1.18811c0.04631-0.02674,0.08445-0.09279,0.08429-0.14716 c-0.00015-0.05322-0.03854-0.07509-0.08485-0.04836L35.63664,23.38826z" class="st11"/><path d="M35.63535,22.93477c-0.04631,0.02674-0.08444,0.09278-0.08429,0.14715 c0.00015,0.05322,0.03853,0.0751,0.08484,0.04836l2.05787-1.18811c0.04631-0.02674,0.08445-0.09279,0.0843-0.14601 c-0.00016-0.05437-0.03854-0.07624-0.08485-0.0495L35.63535,22.93477z" class="st11"/><path d="M35.63407,22.48243c-0.04631,0.02674-0.08445,0.09163-0.08429,0.14601 c0.00015,0.05322,0.03853,0.07509,0.08484,0.04835l2.05787-1.18811c0.04631-0.02674,0.08445-0.09278,0.0843-0.146 c-0.00016-0.05438-0.03854-0.07509-0.08485-0.04836L35.63407,22.48243z" class="st11"/><path d="M35.63279,22.02894c-0.04631,0.02674-0.08445,0.09162-0.08429,0.146 c0.00015,0.05322,0.03853,0.07509,0.08485,0.04835l2.05787-1.18811c0.04631-0.02674,0.08445-0.09279,0.0843-0.146 c-0.00016-0.05438-0.03854-0.07509-0.08485-0.04835L35.63279,22.02894z" class="st11"/><path d="M35.63021,21.12195c-0.04631,0.02674-0.08445,0.09163-0.08429,0.146 c0.00015,0.05322,0.03853,0.0751,0.08485,0.04836l2.05787-1.18811c0.04631-0.02674,0.08445-0.09279,0.0843-0.14601 c-0.00016-0.05437-0.03854-0.07509-0.08485-0.04835L35.63021,21.12195z" class="st11"/><path d="M35.6315,21.57544c-0.04631,0.02674-0.08445,0.09163-0.08429,0.146 c0.00015,0.05322,0.03853,0.07509,0.08485,0.04835l2.05787-1.18811c0.04631-0.02674,0.08445-0.09279,0.0843-0.146 c-0.00016-0.05437-0.03854-0.07508-0.08485-0.04835L35.6315,21.57544z" class="st11"/><path d="M35.63664,19.26045c-0.04631,0.02674-0.08444,0.09279-0.08429,0.14601 c0.00015,0.05437,0.03853,0.07624,0.08485,0.0495l2.05787-1.18811c0.04631-0.02674,0.08445-0.09278,0.08429-0.14716 c-0.00015-0.05322-0.03854-0.07509-0.08485-0.04836L35.63664,19.26045z" class="st11"/><path d="M35.63535,18.80696c-0.04631,0.02674-0.08444,0.09278-0.08429,0.14715 c0.00015,0.05322,0.03853,0.0751,0.08484,0.04836l2.05787-1.18811c0.04631-0.02674,0.08445-0.09279,0.0843-0.14601 c-0.00016-0.05437-0.03854-0.07624-0.08485-0.0495L35.63535,18.80696z" class="st11"/><path d="M35.63407,18.35461c-0.04631,0.02674-0.08445,0.09163-0.08429,0.14601 c0.00015,0.05322,0.03853,0.07509,0.08484,0.04835l2.05787-1.18811c0.04631-0.02674,0.08445-0.09279,0.0843-0.146 c-0.00016-0.05438-0.03854-0.07509-0.08485-0.04836L35.63407,18.35461z" class="st11"/><path d="M35.63279,17.90112c-0.04631,0.02674-0.08445,0.09162-0.08429,0.146 c0.00015,0.05322,0.03853,0.07509,0.08485,0.04835l2.05787-1.18811c0.04631-0.02674,0.08445-0.09279,0.0843-0.146 c-0.00016-0.05438-0.03854-0.07509-0.08485-0.04835L35.63279,17.90112z" class="st11"/><path d="M35.63021,16.99413c-0.04631,0.02674-0.08445,0.09163-0.08429,0.146 c0.00015,0.05322,0.03853,0.0751,0.08485,0.04836l2.05787-1.18811c0.04631-0.02674,0.08445-0.09279,0.0843-0.14601 c-0.00016-0.05437-0.03854-0.07509-0.08485-0.04835L35.63021,16.99413z" class="st11"/><path d="M35.6315,17.44763c-0.04631,0.02674-0.08445,0.09163-0.08429,0.146 c0.00015,0.05322,0.03853,0.07509,0.08485,0.04835l2.05787-1.18811c0.04631-0.02674,0.08445-0.09278,0.0843-0.146 c-0.00016-0.05437-0.03854-0.07509-0.08485-0.04835L35.6315,17.44763z" class="st11"/><path d="M35.63664,15.13263c-0.04631,0.02674-0.08444,0.09279-0.08429,0.14601 c0.00015,0.05437,0.03853,0.07624,0.08485,0.0495l2.05787-1.18811c0.04631-0.02674,0.08445-0.09279,0.08429-0.14716 c-0.00015-0.05322-0.03854-0.07509-0.08485-0.04836L35.63664,15.13263z" class="st11"/><path d="M35.63535,14.67914c-0.04631,0.02674-0.08444,0.09278-0.08429,0.14715 c0.00015,0.05322,0.03853,0.0751,0.08484,0.04836l2.05787-1.18811c0.04631-0.02674,0.08445-0.09279,0.0843-0.14601 c-0.00016-0.05437-0.03854-0.07624-0.08485-0.0495L35.63535,14.67914z" class="st11"/><path d="M35.63407,14.22679c-0.04631,0.02674-0.08445,0.09163-0.08429,0.14601 c0.00015,0.05322,0.03853,0.07509,0.08484,0.04835l2.05787-1.18811c0.04631-0.02674,0.08445-0.09279,0.0843-0.146 c-0.00016-0.05438-0.03854-0.07509-0.08485-0.04836L35.63407,14.22679z" class="st11"/><path d="M35.63279,13.7733c-0.04631,0.02674-0.08445,0.09162-0.08429,0.146 c0.00015,0.05322,0.03853,0.07509,0.08485,0.04835l2.05787-1.18811c0.04631-0.02674,0.08445-0.09279,0.0843-0.146 c-0.00016-0.05438-0.03854-0.07509-0.08485-0.04835L35.63279,13.7733z" class="st11"/><path d="M35.63021,12.86631c-0.04631,0.02674-0.08445,0.09163-0.08429,0.146 c0.00015,0.05322,0.03853,0.0751,0.08485,0.04836l2.05787-1.18811c0.04631-0.02674,0.08445-0.09279,0.0843-0.14601 c-0.00016-0.05437-0.03854-0.07509-0.08485-0.04835L35.63021,12.86631z" class="st11"/><path d="M35.6315,13.31981c-0.04631,0.02674-0.08445,0.09163-0.08429,0.146 c0.00015,0.05322,0.03853,0.07509,0.08485,0.04835l2.05787-1.18811c0.04631-0.02674,0.08445-0.09279,0.0843-0.146 c-0.00016-0.05437-0.03854-0.07509-0.08485-0.04835L35.6315,13.31981z" class="st11"/><g><g><g><g><g><g><g><g><g><g><polygon points="24.299 16.803 25.543 16.08 25.527 48.277 24.283 49" class="st9"/></g><g><polygon points="11.45 9.384 12.694 8.661 25.543 16.08 24.299 16.803" class="st9"/></g><path d="M11.45351,9.38748l-0.01825,32.19585l12.84537,7.4151l0.01831-32.19585L11.45351,9.38748z M22.79607,45.03695l-10.03228-5.79163l0.00877-28.23243l10.04116,5.79163L22.79607,45.03695z" class="st12"/></g></g><polygon points="12.777 11.011 12.763 40.463 22.795 46.255 22.809 16.803" class="st19"/></g></g></g></g></g></g><g><polygon points="15.126 41.828 22.799 37.545 22.799 36.543 14.101 41.236" class="st19"/><polygon points="12.763 40.463 12.961 40.578 22.8 35.43 22.801 32.895 12.764 38.122" class="st19"/><polygon points="22.805 26.085 12.767 30.095 12.767 31.097 22.804 27.087" class="st19"/><polygon points="22.806 22.437 12.769 26.447 12.768 28.981 22.805 24.971" class="st19"/><polygon points="21.605 16.107 12.772 19.636 12.772 20.638 22.631 16.699" class="st19"/><polygon points="17.871 13.952 12.774 15.988 12.773 18.523 20.465 15.449" class="st19"/></g></g><g><g><g class="st8"><g><path d="M23.99312,32.69825l-0.56416,0.3243c-0.0402,0.02412-0.07504,0.02545-0.10184,0.01071l-0.32831-0.19028 l0.00134,0.26399c0.00133,0.134,0.04824,0.22915,0.12597,0.27472l-0.47304-0.27472 c-0.07638-0.04556-0.12462-0.13936-0.12462-0.27471l-0.00402-2.23357c-0.00133-0.27204,0.19029-0.60302,0.42614-0.73837 l0.56416-0.32563l0.4717,0.27337l-0.56282,0.32563c-0.23719,0.13669-0.42748,0.46768-0.42748,0.73971l0.00268,1.85166 l0.52127-0.30151L23.99312,32.69825z" class="st0"/></g></g></g><g><path d="M23.9868,29.80869l0.00093,0.32738L23.4239,30.4616c-0.07871,0.04545-0.14181,0.15573-0.14156,0.24618 l0.00406,2.23419c0.00026,0.09045,0.06377,0.12664,0.14248,0.0812l0.56383-0.32552l0.00093,0.32837l-0.56383,0.32553 c-0.23614,0.13633-0.42841,0.02578-0.42918-0.24458l-0.00406-2.23419c-0.00077-0.27134,0.19025-0.60221,0.42639-0.73854 L23.9868,29.80869z" class="st6"/></g></g></g></svg>