<svg xmlns="http://www.w3.org/2000/svg" xmlns:xlink="http://www.w3.org/1999/xlink" id="Layer_1" version="1.1" viewBox="0 0 50 50" xml:space="preserve" style="enable-background:new 0 0 50 50"><style type="text/css">.st0{fill:none}.st1{fill:#b7c5fd}.st4{fill:#3955d1}.st5{fill:#4466fb}.st7{fill:#798ffe}.st8{fill:#6bb5fb}.st9{enable-background:new}.st10{fill:#1b2a4f}.st11{fill:url(#SVGID_1_)}.st12{fill:url(#SVGID_2_)}.st14{fill:url(#SVGID_3_)}.st15{fill:url(#SVGID_4_)}.st16{fill:url(#SVGID_5_)}.st17{fill:url(#SVGID_6_)}.st18{fill:url(#SVGID_7_)}.st19{fill:#384e85}.st20{fill:#2e4277}.st21{fill:#d9ddf6}.st22{fill:url(#SVGID_8_)}.st23{fill:url(#SVGID_9_)}.st24{fill:url(#SVGID_10_)}.st25{fill:url(#SVGID_11_)}.st26{fill:url(#SVGID_12_)}.st27{fill:url(#SVGID_13_)}.st28{fill:url(#SVGID_14_)}.st29{fill:url(#SVGID_15_)}.st30{fill:url(#SVGID_16_)}.st31{fill:url(#SVGID_17_)}.st32{fill:url(#SVGID_18_)}.st33{fill:url(#SVGID_19_)}.st34{fill:url(#SVGID_20_)}.st35{fill:url(#SVGID_21_)}.st36{fill:url(#SVGID_22_)}.st37{fill:url(#SVGID_23_)}.st38{fill:url(#SVGID_24_)}.st39{fill:url(#SVGID_25_)}.st41{fill:url(#SVGID_26_)}.st42{fill:url(#SVGID_27_)}.st43{fill:url(#SVGID_28_)}</style><pattern id="Unnamed_Pattern_12" width="32.252" height="32.252" x="-210" y="-280" patternUnits="userSpaceOnUse" viewBox="0 -32.252 32.252 32.252" style="overflow:visible"><g><rect width="32.252" height="32.252" y="-32.252" class="st0"/><g><rect width="32.252" height="32.252" x="0" y="-32.252" class="st1"/></g></g></pattern><g><g><g><path d="M12.43444,11.06738l0.01023,28.26536c0.00098,0.40934,0.26997,0.81771,0.80699,1.12959l12.06292,7.01047 c1.08134,0.62815,2.84005,0.62864,3.92822,0l14.63645-8.45023c0.54774-0.31627,0.82112-0.73096,0.82015-1.14567L44.68917,9.61398 C44.68917,10.02722,12.43542,11.47624,12.43444,11.06738z" class="st20"/><path d="M13.24138,12.19692l12.06295,7.01002c0.55296,0.32143,1.28205,0.47341,2.00905,0.4662v28.26671 c-0.72344,0.00554-1.44846-0.14749-1.9988-0.46714l-12.06295-7.01044c-0.53697-0.31181-0.80602-0.72021-0.80696-1.12954 l-0.01024-28.26536C12.43547,11.4762,12.70442,11.88459,13.24138,12.19692z" class="st10"/><path d="M13.25432,9.92165c-1.08834,0.62835-1.09407,1.64688-0.01281,2.27524l12.06301,7.01025 c1.08127,0.62836,2.83996,0.62855,3.9283,0.0002l14.63651-8.45039c1.08834-0.62835,1.09376-1.64705,0.0125-2.27542 L31.81882,1.47128c-1.08126-0.62836-2.83965-0.62837-3.92799-0.00002L13.25432,9.92165z" class="st19"/><path d="M17.97223,10.55613c-0.48142,0.27795-0.48363,0.72837-0.00534,1.00632l8.44852,4.90974 c0.47829,0.27795,1.2559,0.27814,1.73732,0.0002l10.99837-6.34991c0.48142-0.27795,0.48396-0.72856,0.00567-1.00651 l-8.44852-4.90974c-0.47829-0.27795-1.25622-0.27796-1.73765-0.00001L17.97223,10.55613z" class="st20"/><g><g><g><path d="M30.30571,20.69552l12.5487-7.2453c0.2599-0.15006,0.58478,0.03751,0.58478,0.33761v23.11607 c0,0.27856-0.14861,0.53596-0.38985,0.67524l-12.54869,7.24488c-0.2599,0.15005-0.58477-0.03751-0.58477-0.33762V21.37075 C29.91587,21.0922,30.06448,20.8348,30.30571,20.69552z" class="st5"/><pattern id="SVGID_1_" patternTransform="matrix(-0.04873 0 0 0.04873 -8082.28662 -7365.27832)" xlink:href="#Unnamed_Pattern_12"/><path d="M42.1995,15.27502c-0.23801,0.13742-0.42997,0.46991-0.4292,0.74341s0.19399,0.38397,0.43201,0.24655 c0.23802-0.13742,0.43029-0.47045,0.42952-0.74395C42.63105,15.24753,42.43752,15.1376,42.1995,15.27502z" class="st11"/><pattern id="SVGID_2_" patternTransform="matrix(-0.04873 0 0 0.04873 -8082.28662 -7365.27832)" xlink:href="#Unnamed_Pattern_12"/><path d="M40.81186,16.07618c-0.23771,0.13724-0.42998,0.46991-0.42921,0.74341 c0.00077,0.2735,0.19431,0.38379,0.43201,0.24654c0.23801-0.13741,0.43029-0.47045,0.42952-0.74395 C41.2434,16.04869,41.04987,15.93876,40.81186,16.07618z" class="st12"/><pattern id="SVGID_3_" patternTransform="matrix(-0.04873 0 0 0.04873 -8082.28662 -7365.27832)" xlink:href="#Unnamed_Pattern_12"/><path d="M39.42421,16.87734c-0.23771,0.13724-0.42998,0.46991-0.42921,0.74341s0.19431,0.38379,0.43201,0.24655 c0.23802-0.13742,0.43029-0.47045,0.42952-0.74395C39.85575,16.84985,39.66222,16.73992,39.42421,16.87734z" class="st14"/><pattern id="SVGID_4_" patternTransform="matrix(-0.04873 0 0 0.04873 -8082.28662 -7361.85303)" xlink:href="#Unnamed_Pattern_12"/><path d="M42.1995,18.70023c-0.23801,0.13742-0.42997,0.46991-0.4292,0.74341 c0.00077,0.2735,0.19399,0.38397,0.43201,0.24655c0.23802-0.13742,0.43029-0.47045,0.42952-0.74395 C42.63105,18.67274,42.43752,18.56281,42.1995,18.70023z" class="st15"/><pattern id="SVGID_5_" patternTransform="matrix(-0.04873 0 0 0.04873 -8082.28662 -7361.85303)" xlink:href="#Unnamed_Pattern_12"/><path d="M40.81186,19.50138c-0.23771,0.13724-0.42998,0.46991-0.42921,0.74341s0.19431,0.38379,0.43201,0.24655 c0.23801-0.13742,0.43029-0.47045,0.42952-0.74395C41.2434,19.4739,41.04987,19.36397,40.81186,19.50138z" class="st16"/><pattern id="SVGID_6_" patternTransform="matrix(-0.04873 0 0 0.04873 -8082.28662 -7361.85303)" xlink:href="#Unnamed_Pattern_12"/><path d="M39.42421,20.30254c-0.23771,0.13724-0.42998,0.46991-0.42921,0.74341 c0.00077,0.2735,0.19431,0.38379,0.43201,0.24655c0.23802-0.13742,0.43029-0.47045,0.42952-0.74395 C39.85575,20.27505,39.66222,20.16512,39.42421,20.30254z" class="st17"/><pattern id="SVGID_7_" patternTransform="matrix(-0.04873 0 0 0.04873 -8084.78125 -7344.46533)" xlink:href="#Unnamed_Pattern_12"/><polygon points="31.171 21.44 34.389 19.582 34.389 20.8 31.171 22.659" class="st18"/><pattern id="SVGID_8_" patternTransform="matrix(-0.04873 0 0 0.04873 -8084.78125 -7341.04053)" xlink:href="#Unnamed_Pattern_12"/><polygon points="31.171 24.865 34.389 23.007 34.389 24.226 31.171 26.084" class="st22"/></g></g><g><g><path d="M25.1896,21.3403c0.33242,0.19192,0.60112,0.65734,0.60004,1.03931l-0.01201,23.65437 c-0.00108,0.38198-0.27154,0.53611-0.60396,0.34418c-0.33242-0.19192-0.60113-0.65733-0.60004-1.03931l0.01201-23.65437 C24.58672,21.3025,24.85718,21.14837,25.1896,21.3403z" class="st19"/><path d="M24.85664,45.19009l0.01201-23.65437c0.00032-0.11381,0.02471-0.2072,0.06737-0.27744 c-0.20612-0.00887-0.3496,0.14825-0.35039,0.42619l-0.01201,23.65437c-0.00108,0.38198,0.26762,0.84739,0.60004,1.03932 c0.23338,0.13474,0.43606,0.09873,0.53659-0.06675c-0.07716-0.00332-0.16304-0.02973-0.25358-0.08201 C25.12426,46.03748,24.85556,45.57207,24.85664,45.19009z" class="st7"/></g><g><path d="M14.77074,15.28571c0.33242,0.19192,0.60112,0.65734,0.60004,1.03931L15.35877,39.9794 c-0.00108,0.38198-0.27154,0.5361-0.60396,0.34418c-0.33242-0.19193-0.60112-0.65734-0.60004-1.03931l0.01201-23.65437 C14.16786,15.24791,14.43832,15.09379,14.77074,15.28571z" class="st19"/><path d="M14.43778,39.13551l0.01202-23.65437c0.00032-0.11381,0.02471-0.20721,0.06737-0.27744 c-0.20612-0.00886-0.3496,0.14825-0.35039,0.42619l-0.01201,23.65437c-0.00108,0.38198,0.26762,0.84739,0.60004,1.03931 c0.23338,0.13474,0.43606,0.09873,0.53659-0.06675c-0.07716-0.00332-0.16304-0.02973-0.25358-0.08201 C14.7054,39.98289,14.4367,39.51749,14.43778,39.13551z" class="st7"/></g><g><path d="M17.37546,16.79936c0.33242,0.19192,0.60113,0.65734,0.60004,1.03931l-0.01201,23.65437 c-0.00108,0.38198-0.27154,0.53611-0.60396,0.34418c-0.33242-0.19193-0.60112-0.65733-0.60004-1.03931l0.01201-23.65437 C16.77258,16.76156,17.04304,16.60743,17.37546,16.79936z" class="st19"/><path d="M17.04249,40.64915l0.01201-23.65437c0.00032-0.11381,0.02471-0.2072,0.06737-0.27744 c-0.20612-0.00886-0.3496,0.14825-0.35039,0.42619l-0.01201,23.65437c-0.00108,0.38198,0.26762,0.84739,0.60004,1.03931 c0.23338,0.13474,0.43606,0.09873,0.53659-0.06675c-0.07716-0.00332-0.16304-0.02974-0.25358-0.08201 C17.31011,41.49654,17.04141,41.03113,17.04249,40.64915z" class="st7"/></g><g><path d="M19.98017,18.31301c0.33242,0.19192,0.60113,0.65734,0.60004,1.03931L20.5682,43.00669 c-0.00108,0.38198-0.27154,0.5361-0.60396,0.34418c-0.33242-0.19193-0.60113-0.65734-0.60004-1.03931l0.01201-23.65437 C19.37729,18.27521,19.64775,18.12108,19.98017,18.31301z" class="st19"/><path d="M19.64721,42.1628l0.01201-23.65437c0.00032-0.11381,0.02471-0.2072,0.06737-0.27744 c-0.20612-0.00886-0.3496,0.14825-0.35039,0.42619L19.3642,42.31156c-0.00108,0.38198,0.26762,0.84739,0.60004,1.03931 c0.23338,0.13474,0.43606,0.09873,0.53659-0.06675c-0.07716-0.00332-0.16304-0.02973-0.25358-0.08201 C19.91483,43.01019,19.64613,42.54478,19.64721,42.1628z" class="st7"/></g><g><path d="M22.58489,19.82665c0.33242,0.19192,0.60112,0.65734,0.60004,1.03931l-0.01201,23.65437 c-0.00108,0.38198-0.27154,0.5361-0.60396,0.34418c-0.33242-0.19193-0.60113-0.65733-0.60004-1.03931l0.01201-23.65437 C21.98201,19.78885,22.25247,19.63473,22.58489,19.82665z" class="st19"/><path d="M22.25192,43.67645l0.01201-23.65437c0.00032-0.11381,0.02471-0.2072,0.06737-0.27744 c-0.20612-0.00886-0.3496,0.14825-0.35039,0.42619L21.96891,43.8252c-0.00108,0.38198,0.26762,0.84739,0.60004,1.03931 c0.23338,0.13474,0.43606,0.09873,0.53659-0.06675c-0.07716-0.00332-0.16304-0.02974-0.25358-0.08201 C22.51954,44.52384,22.25084,44.05843,22.25192,43.67645z" class="st7"/></g></g></g></g><g><pattern id="SVGID_9_" patternTransform="matrix(-0.04873 0 0 0.04873 -8082.28662 -7358.42773)" xlink:href="#Unnamed_Pattern_12"/><path d="M42.1995,22.12543c-0.23801,0.13742-0.42997,0.46991-0.4292,0.74341s0.19399,0.38397,0.43201,0.24655 c0.23802-0.13742,0.43029-0.47045,0.42952-0.74395C42.63105,22.09794,42.43752,21.98801,42.1995,22.12543z" class="st23"/><pattern id="SVGID_10_" patternTransform="matrix(-0.04873 0 0 0.04873 -8082.28662 -7358.42773)" xlink:href="#Unnamed_Pattern_12"/><path d="M40.81186,22.92659c-0.23771,0.13724-0.42998,0.46991-0.42921,0.74341 c0.00077,0.2735,0.19431,0.38379,0.43201,0.24655c0.23801-0.13742,0.43029-0.47045,0.42952-0.74395 C41.2434,22.8991,41.04987,22.78917,40.81186,22.92659z" class="st24"/><pattern id="SVGID_11_" patternTransform="matrix(-0.04873 0 0 0.04873 -8082.28662 -7358.42773)" xlink:href="#Unnamed_Pattern_12"/><path d="M39.42421,23.72775c-0.23771,0.13724-0.42998,0.46991-0.42921,0.74341s0.19431,0.38379,0.43201,0.24655 c0.23802-0.13742,0.43029-0.47045,0.42952-0.74395C39.85575,23.70026,39.66222,23.59033,39.42421,23.72775z" class="st25"/><pattern id="SVGID_12_" patternTransform="matrix(-0.04873 0 0 0.04873 -8084.78125 -7337.61523)" xlink:href="#Unnamed_Pattern_12"/><polygon points="31.171 28.29 34.389 26.432 34.389 27.651 31.171 29.509" class="st26"/></g><g><pattern id="SVGID_13_" patternTransform="matrix(-0.04873 0 0 0.04873 -8082.28662 -7355.00244)" xlink:href="#Unnamed_Pattern_12"/><path d="M42.1995,25.55064c-0.23801,0.13742-0.42997,0.46991-0.4292,0.74341 c0.00077,0.2735,0.19399,0.38397,0.43201,0.24655c0.23802-0.13742,0.43029-0.47045,0.42952-0.74395 C42.63105,25.52314,42.43752,25.41322,42.1995,25.55064z" class="st27"/><pattern id="SVGID_14_" patternTransform="matrix(-0.04873 0 0 0.04873 -8082.28662 -7355.00244)" xlink:href="#Unnamed_Pattern_12"/><path d="M40.81186,26.35179c-0.23771,0.13724-0.42998,0.46991-0.42921,0.74341s0.19431,0.38379,0.43201,0.24655 c0.23801-0.13742,0.43029-0.47045,0.42952-0.74395C41.2434,26.3243,41.04987,26.21438,40.81186,26.35179z" class="st28"/><pattern id="SVGID_15_" patternTransform="matrix(-0.04873 0 0 0.04873 -8082.28662 -7355.00244)" xlink:href="#Unnamed_Pattern_12"/><path d="M39.42421,27.15295c-0.23771,0.13724-0.42998,0.46991-0.42921,0.74341s0.19431,0.38379,0.43201,0.24655 c0.23802-0.13742,0.43029-0.47045,0.42952-0.74395C39.85575,27.12546,39.66222,27.01553,39.42421,27.15295z" class="st29"/><pattern id="SVGID_16_" patternTransform="matrix(-0.04873 0 0 0.04873 -8084.78125 -7334.18994)" xlink:href="#Unnamed_Pattern_12"/><polygon points="31.171 31.715 34.389 29.857 34.389 31.076 31.171 32.934" class="st30"/></g><g><pattern id="SVGID_17_" patternTransform="matrix(-0.04873 0 0 0.04873 -8082.28662 -7351.57764)" xlink:href="#Unnamed_Pattern_12"/><path d="M42.1995,28.97584c-0.23801,0.13742-0.42997,0.46991-0.4292,0.74341s0.19399,0.38397,0.43201,0.24655 c0.23802-0.13742,0.43029-0.47045,0.42952-0.74395C42.63105,28.94835,42.43752,28.83842,42.1995,28.97584z" class="st31"/><pattern id="SVGID_18_" patternTransform="matrix(-0.04873 0 0 0.04873 -8082.28662 -7351.57764)" xlink:href="#Unnamed_Pattern_12"/><path d="M40.81186,29.777c-0.23771,0.13724-0.42998,0.46991-0.42921,0.74341s0.19431,0.38379,0.43201,0.24655 c0.23801-0.13742,0.43029-0.47045,0.42952-0.74395C41.2434,29.74951,41.04987,29.63958,40.81186,29.777z" class="st32"/><pattern id="SVGID_19_" patternTransform="matrix(-0.04873 0 0 0.04873 -8082.28662 -7351.57764)" xlink:href="#Unnamed_Pattern_12"/><path d="M39.42421,30.57816c-0.23771,0.13724-0.42998,0.46991-0.42921,0.74341 c0.00077,0.2735,0.19431,0.38378,0.43201,0.24654c0.23802-0.13742,0.43029-0.47045,0.42952-0.74395 C39.85575,30.55067,39.66222,30.44074,39.42421,30.57816z" class="st33"/><pattern id="SVGID_20_" patternTransform="matrix(-0.04873 0 0 0.04873 -8084.78125 -7330.76465)" xlink:href="#Unnamed_Pattern_12"/><polygon points="31.171 35.141 34.389 33.282 34.389 34.501 31.171 36.359" class="st34"/></g><g><pattern id="SVGID_21_" patternTransform="matrix(-0.04873 0 0 0.04873 -8082.28662 -7348.15234)" xlink:href="#Unnamed_Pattern_12"/><path d="M42.1995,32.40104c-0.23801,0.13742-0.42997,0.46991-0.4292,0.74341s0.19399,0.38396,0.43201,0.24655 c0.23802-0.13742,0.43029-0.47045,0.42952-0.74395C42.63105,32.37355,42.43752,32.26363,42.1995,32.40104z" class="st35"/><pattern id="SVGID_22_" patternTransform="matrix(-0.04873 0 0 0.04873 -8082.28662 -7348.15234)" xlink:href="#Unnamed_Pattern_12"/><path d="M40.81186,33.2022c-0.23771,0.13724-0.42998,0.46991-0.42921,0.74341s0.19431,0.38379,0.43201,0.24654 c0.23801-0.13742,0.43029-0.47045,0.42952-0.74395C41.2434,33.17471,41.04987,33.06479,40.81186,33.2022z" class="st36"/><pattern id="SVGID_23_" patternTransform="matrix(-0.04873 0 0 0.04873 -8082.28662 -7348.15234)" xlink:href="#Unnamed_Pattern_12"/><path d="M39.42421,34.00336c-0.23771,0.13724-0.42998,0.46991-0.42921,0.74341s0.19431,0.38379,0.43201,0.24654 c0.23802-0.13742,0.43029-0.47045,0.42952-0.74395C39.85575,33.97587,39.66222,33.86594,39.42421,34.00336z" class="st37"/><pattern id="SVGID_24_" patternTransform="matrix(-0.04873 0 0 0.04873 -8084.78125 -7327.33936)" xlink:href="#Unnamed_Pattern_12"/><polygon points="31.171 38.566 34.389 36.708 34.389 37.926 31.171 39.785" class="st38"/></g><g><pattern id="SVGID_25_" patternTransform="matrix(-0.04873 0 0 0.04873 -8082.28662 -7344.72705)" xlink:href="#Unnamed_Pattern_12"/><path d="M42.1995,35.82625c-0.23801,0.13742-0.42997,0.46991-0.4292,0.74341s0.19399,0.38397,0.43201,0.24655 c0.23802-0.13742,0.43029-0.47045,0.42952-0.74395C42.63105,35.79876,42.43752,35.68883,42.1995,35.82625z" class="st39"/><pattern id="SVGID_26_" patternTransform="matrix(-0.04873 0 0 0.04873 -8082.28662 -7344.72705)" xlink:href="#Unnamed_Pattern_12"/><path d="M40.81186,36.62741c-0.23771,0.13724-0.42998,0.46991-0.42921,0.74341 c0.00077,0.2735,0.19431,0.38379,0.43201,0.24655c0.23801-0.13742,0.43029-0.47045,0.42952-0.74395 C41.2434,36.59991,41.04987,36.48999,40.81186,36.62741z" class="st41"/><pattern id="SVGID_27_" patternTransform="matrix(-0.04873 0 0 0.04873 -8082.28662 -7344.72705)" xlink:href="#Unnamed_Pattern_12"/><path d="M39.42421,37.42857c-0.23771,0.13724-0.42998,0.46991-0.42921,0.74341s0.19431,0.38379,0.43201,0.24654 c0.23802-0.13742,0.43029-0.47045,0.42952-0.74395C39.85575,37.40108,39.66222,37.29115,39.42421,37.42857z" class="st42"/><pattern id="SVGID_28_" patternTransform="matrix(-0.04873 0 0 0.04873 -8084.78125 -7323.91455)" xlink:href="#Unnamed_Pattern_12"/><polygon points="31.171 41.991 34.389 40.133 34.389 41.352 31.171 43.21" class="st43"/></g></g><g><g><g><path d="M26.23495,36.07345c-0.39868-1.28772-0.22829-3.10186-1.04762-6.02242 c-0.54271-1.93451-2.44267-2.2403-2.44267-2.2403c1.59892,1.21286,0.2558,2.26607,0.2558,2.26607 c-1.08731,0.41449-1.12996-0.08542-1.32182-4.18277c-0.1919-4.09728-2.72529-3.07695-2.72529-3.07695 c1.24244,0.86516,0.23515,2.49443,0.23515,2.49443c-1.01374,1.37192-0.86631,2.22586-0.86631,2.22586 c-2.52513-2.00597-0.77411-4.21146-0.77411-4.21146c-2.50673,0.47973-1.65886,4.16933-1.65886,4.16933 c-2.13807-1.09779-1.43767-2.64691-1.84321-5.0828c-0.40546-2.43586-1.79818-1.96628-1.79818-1.96628 c1.03758,1.38821-0.56355,1.91504-0.56355,1.91504c-0.19216-0.56056-0.46114-1.14051-1.15281-1.82699 c-0.6917-0.68648-0.58921-2.09038-0.58921-2.09038c-0.48677,0.59003-0.9351,2.022-0.47399,2.67597 c0.46114,0.65401,0.56363,1.87479,0.56363,1.87479c0,2.15099-1.678,1.48059-1.678,1.48059 c-1.60114-1.4834-0.73006-3.43616-0.73006-3.43616c-1.86394,0.88275-1.2367,3.88483-1.2367,3.88483 c-1.29502,1.12385-1.02818,2.08698-0.88226,2.40917l19.14557,11.05372C26.39149,38.42423,26.23495,36.07345,26.23495,36.07345z" class="st1"/><g><g><polygon points="24.202 37.255 24.169 49 5.301 38.107 5.334 26.361" class="st21"/><g class="st9"><g><polygon points="6.769 37.403 6.765 38.952 5.301 38.107 5.305 36.558" class="st5"/></g><g><polygon points="6.781 33.323 6.776 34.871 5.312 34.026 5.317 32.477" class="st5"/></g><g><polygon points="8.715 36.485 8.71 38.03 5.306 36.064 5.311 34.52" class="st5"/></g><g><polygon points="10.652 39.645 10.648 41.194 7.191 39.198 7.196 37.65" class="st5"/></g><g><polygon points="6.792 29.245 6.788 30.794 5.324 29.948 5.328 28.4" class="st5"/></g><g><polygon points="8.726 32.404 8.722 33.952 5.318 31.987 5.322 30.439" class="st5"/></g><g><polygon points="7.203 35.117 7.207 33.569 10.664 35.564 10.659 37.113" class="st5"/></g><g><polygon points="12.598 38.727 12.593 40.271 9.14 38.278 9.145 36.733" class="st5"/></g><g><polygon points="14.535 41.887 14.53 43.435 11.074 41.44 11.079 39.892" class="st5"/></g><polygon points="7.367 25.18 26.235 36.073 24.202 37.255 5.334 26.361" class="st21"/><g><polygon points="5.334 26.361 7.367 25.18 10.771 27.145 8.738 28.327" class="st8"/></g><g><polygon points="8.738 28.327 8.734 29.872 5.33 27.906 5.334 26.361" class="st5"/></g><g><polygon points="10.675 31.487 10.671 33.036 7.215 31.04 7.219 29.492" class="st5"/></g><g><polygon points="9.152 34.201 9.156 32.652 12.609 34.646 12.605 36.194" class="st5"/></g><g><polygon points="14.558 33.729 14.554 35.277 11.097 33.282 11.102 31.734" class="st5"/></g><g><polygon points="16.495 36.889 16.491 38.438 13.035 36.442 13.039 34.894" class="st5"/></g><g><polygon points="20.362 44.757 16.906 42.761 16.91 41.217 20.367 43.212" class="st5"/></g><g><polygon points="18.441 35.971 18.436 37.519 14.98 35.524 14.985 33.975" class="st5"/></g><g><polygon points="16.917 38.684 16.922 37.136 20.378 39.131 20.374 40.68" class="st5"/></g><g><polygon points="22.312 42.29 22.308 43.838 18.855 41.845 18.859 40.296" class="st5"/></g><g><polygon points="22.324 38.213 22.319 39.761 18.866 37.767 18.871 36.219" class="st5"/></g><g><polygon points="11.09 35.811 14.546 37.806 14.542 39.355 11.086 37.359" class="st5"/></g><g><polygon points="16.479 42.515 13.023 40.52 13.027 38.975 16.484 40.97" class="st5"/></g><g><polygon points="18.418 44.129 18.413 45.677 14.957 43.682 14.962 42.133" class="st5"/></g><g><polygon points="12.621 30.569 12.616 32.113 9.163 30.12 9.168 28.575" class="st5"/></g><g><polygon points="9.168 28.575 11.201 27.393 14.654 29.387 12.621 30.569" class="st8"/></g><g><polygon points="18.429 40.048 18.425 41.596 14.969 39.601 14.973 38.053" class="st5"/></g><g><polygon points="22.301 46.371 22.296 47.919 18.843 45.925 18.847 44.377" class="st5"/></g><g><polygon points="24.173 47.452 24.169 49 22.726 48.167 22.73 46.619" class="st5"/></g><g><polygon points="16.507 32.812 16.502 34.357 13.046 32.362 13.051 30.817" class="st5"/></g><g><polygon points="13.051 30.817 15.084 29.635 18.54 31.631 16.507 32.812" class="st8"/></g><g><polygon points="24.179 45.413 24.174 46.958 20.789 45.003 20.793 43.458" class="st5"/></g><g><polygon points="24.185 43.371 24.18 44.919 22.738 44.086 22.742 42.538" class="st5"/></g><g><polygon points="16.933 33.058 18.966 31.877 22.423 33.872 20.39 35.054" class="st8"/></g><g><polygon points="20.39 35.054 20.385 36.599 16.929 34.603 16.933 33.058" class="st5"/></g><g><polygon points="24.19 41.332 24.186 42.881 20.8 40.926 20.805 39.377" class="st5"/></g><g><polygon points="24.196 39.294 24.192 40.842 22.749 40.009 22.753 38.461" class="st5"/></g><g><polygon points="20.816 35.3 22.849 34.119 26.235 36.073 24.202 37.255" class="st8"/></g><g><polygon points="24.202 37.255 24.198 38.8 20.812 36.845 20.816 35.3" class="st5"/></g><polygon points="26.235 36.073 26.202 47.819 24.169 49 24.202 37.255" class="st21"/></g></g><g><g><polygon points="24.173 47.452 26.206 46.27 26.202 47.819 24.169 49" class="st4"/></g><g><polygon points="24.179 45.413 26.212 44.232 26.207 45.776 24.174 46.958" class="st4"/></g><g><polygon points="24.185 43.371 26.218 42.189 26.213 43.738 24.18 44.919" class="st4"/></g><g><polygon points="24.19 41.332 26.223 40.151 26.219 41.699 24.186 42.881" class="st4"/></g><g><polygon points="24.196 39.294 26.229 38.112 26.225 39.66 24.192 40.842" class="st4"/></g><g><polygon points="24.202 37.255 26.235 36.073 26.231 37.618 24.198 38.8" class="st4"/></g></g></g><path d="M24.20192,37.25491l2.03301-1.18146c0,0-1.21373-6.24134-2.85522-7.57142 c0,0,0.04363,2.18779-0.63061,3.37495C22.07486,33.06414,24.20192,37.25491,24.20192,37.25491z" class="st1"/><path d="M5.33389,26.41791c-0.04536-0.28308-0.05046-0.82134,0.67162-1.44797 c0.1936-0.16802,0.28111-0.42765,0.22867-0.67859c-0.00086-0.00421-0.2407-0.51269,0.08702-1.12085 c0.18469,0.4059,0.29213,0.95087,0.70718,1.3354c0.06362,0.05896,0.13757,0.1057,0.21811,0.13788 c0.06241,0.02496,0.39503,0.14937,0.8147,0.14937c0.42993-0.00003,1.8327-0.16498,1.8327-2.28641 c0-0.01975-0.00083-0.03946-0.00249-0.05914c-0.00866-0.10325-0.26187-0.79119-0.50082-1.46305 c0.33579,0.42938,0.66974,0.79672,0.77989,1.11804c0.10046,0.29312,0.37466,0.47791,0.66868,0.47791 c0.07325,0,0.14775-0.01146,0.22107-0.03559c0.10239-0.03369,1.22076-0.46953,1.53566-1.26814 c0.06166,0.18365,0.1134,0.39689,0.15324,0.63619c0.10312,0.61935-0.11566,1.30232-0.08977,1.8393 c0.07184,1.48984,0.13967,2.8971,2.06192,3.88406c0.10191,0.05233,0.21265,0.07805,0.32281,0.07805 c0.15431,0,0.30758-0.05044,0.43421-0.14899c0.2171-0.16888,0.31653-0.44829,0.25494-0.71635 c-0.04968-0.21987,0.05874-0.84941,0.05118-1.30916c0.2237,0.59812,0.48438,1.45267,1.253,2.06325 c0.13677,0.10864,0.30662,0.16884,0.47467,0.16884c0.12355,0,0.24614-0.03252,0.35405-0.10218 c0.25083-0.16187,0.37794-0.43804,0.31097-0.72716c-0.00269-0.09562,0.01105-0.71904,0.73499-1.69879 c0.0116-0.01567,0.02251-0.03183,0.03276-0.0484c0.28394-0.45927,0.58414-1.26085,0.46514-2.04121 c0.03511,0.03055,0.06894,0.06418,0.10153,0.10091c0.24734,0.27859,0.55496,0.88368,0.61586,2.18413 c0.08295,1.77118,0.13556,2.80686,0.25239,3.4969c0.06193,0.36582,0.25052,1.47906,1.2843,1.47906c0.0001,0,0.0001,0,0.00024,0 c0.21338-0.00003,0.44253-0.05112,0.743-0.16567c0.06639-0.0253,0.12856-0.06048,0.18445-0.10429 c0.08023-0.06293,0.75714-0.75434,0.78797-1.64323c0.0417,0.09921,0.09347,0.33543,0.1361,0.45463 c0.54447,1.52222,0.31801,2.3209,0.09897,3.09332c-0.1608,0.56704-0.32709,1.15346-0.10867,1.859l0.0338,0.10888 c0.14951,0.48106,0.37542,1.208,0.48816,1.87744c0.16215,0.96263,0.19386,1.33244,0.17384,1.3596 C24.19823,37.25992,5.33389,26.41791,5.33389,26.41791z" class="st21"/></g></g></g></g></svg>