<svg xmlns="http://www.w3.org/2000/svg" xmlns:xlink="http://www.w3.org/1999/xlink" id="Layer_1" version="1.1" viewBox="0 0 50 50" xml:space="preserve" style="enable-background:new 0 0 50 50"><style type="text/css">.st0{fill:#b7c5fd}.st2{fill:#fff}.st3{fill:#3955d1}.st4{fill:#4466fb}.st5{fill:#aabafd}.st7{fill:#6bb5fb}.st8{enable-background:new}.st9{fill:#1b2a4f}.st11{fill:#384e85}.st12{fill:#2e4277}.st13{fill:#d9ddf6}</style><g><g><g><g><polygon points="7.452 37.562 24.693 27.543 42.566 37.862 25.326 47.881" class="st13"/></g><g><g><polygon points="25.326 47.881 42.566 37.862 42.548 38.981 25.307 49" class="st5"/></g><g><polygon points="25.326 47.881 25.307 49 7.434 38.681 7.452 37.562" class="st0"/></g></g></g><g><g><g><g><g><polygon points="24.7 16.701 38.654 9.021 38.64 38.289 25.239 46.077" class="st9"/></g><g><g><g><polygon points="32.863 39.086 32.865 39.723 37.289 37.169 37.287 36.532" class="st11"/></g><g><polygon points="32.85 34.683 32.852 35.32 37.277 32.766 37.275 32.129" class="st11"/></g><g><polygon points="32.853 35.784 32.855 36.421 37.28 33.866 37.278 33.229" class="st11"/></g><g><polygon points="32.856 36.885 32.858 37.522 37.283 34.967 37.281 34.33" class="st11"/></g><g><polygon points="32.86 37.986 32.861 38.622 37.286 36.068 37.284 35.431" class="st11"/></g></g><g><g><polygon points="32.863 19.695 32.865 20.332 37.289 17.778 37.287 17.141" class="st11"/></g><g><polygon points="32.85 15.292 32.852 15.929 37.277 13.375 37.275 12.738" class="st11"/></g><g><polygon points="32.853 16.393 32.855 17.03 37.28 14.475 37.278 13.839" class="st11"/></g><g><polygon points="32.856 17.494 32.858 18.131 37.283 15.576 37.281 14.939" class="st11"/></g><g><polygon points="32.86 18.595 32.861 19.232 37.286 16.677 37.284 16.04" class="st11"/></g></g></g><g><polygon points="25.253 16.701 25.239 46.077 11.346 38.055 11.36 8.788" class="st12"/></g></g><g><g><g><polygon points="24.127 17.772 24.7 17.439 24.688 20.553 24.114 20.886" class="st4"/></g><g><polygon points="11.911 10.72 12.485 10.386 24.7 17.439 24.127 17.772" class="st0"/></g><g><polygon points="24.127 17.772 24.114 20.886 11.899 13.833 11.911 10.72" class="st0"/><polygon points="24.127 17.772 24.114 20.886 11.899 13.833 11.911 10.72" class="st7"/></g></g><g><g><polygon points="13.556 12.514 13.554 12.939 12.699 12.445 12.7 12.02" class="st11"/></g><g><polygon points="14.798 13.231 14.796 13.656 13.942 13.163 13.944 12.738" class="st11"/></g><g><polygon points="23.005 17.969 23.004 18.395 22.148 17.901 22.15 17.475" class="st11"/></g><g><ellipse cx="22.838" cy="19.174" class="st2" rx=".132" ry=".228" transform="matrix(0.8646 -0.50245 0.50245 0.8646 -6.54203 14.07138)"/></g><g><path d="M22.28868,18.67086c0.09039,0.05219,0.16152,0.17721,0.16123,0.27926 c-0.00029,0.10205-0.07189,0.14467-0.16228,0.09248c-0.08881-0.05127-0.15993-0.1763-0.15964-0.27834 C22.12827,18.6622,22.19988,18.61959,22.28868,18.67086z" class="st2"/></g><g><ellipse cx="21.739" cy="18.54" class="st2" rx=".132" ry=".228" transform="matrix(0.8646 -0.50245 0.50245 0.8646 -6.37202 13.43328)"/></g><g><ellipse cx="21.189" cy="18.222" class="st2" rx=".132" ry=".228" transform="matrix(0.8646 -0.50245 0.50245 0.8646 -6.2869 13.11377)"/></g></g><path d="M12.32702,11.35818l-0.0736-0.04233l-0.00914,2.29064l-0.00048,0.0279l11.4542,6.61298l0.0736,0.04233 l0.00914-2.29064l0.00048-0.0279L12.32702,11.35818z M23.67347,20.12038L12.34289,13.5786l0.00866-2.09342l11.33057,6.54179 L23.67347,20.12038z" class="st4"/></g><g><g><g><polygon points="24.127 22.454 24.7 22.12 24.688 25.234 24.114 25.567" class="st4"/></g><g><polygon points="11.911 15.401 12.485 15.067 24.7 22.12 24.127 22.454" class="st0"/></g><g><polygon points="24.127 22.454 24.114 25.567 11.899 18.514 11.911 15.401" class="st0"/><polygon points="24.127 22.454 24.114 25.567 11.899 18.514 11.911 15.401" class="st7"/></g></g><g><g><polygon points="13.556 17.195 13.554 17.62 12.699 17.126 12.7 16.701" class="st11"/></g><g><polygon points="14.798 17.912 14.796 18.337 13.942 17.844 13.944 17.419" class="st11"/></g><g><polygon points="23.005 22.651 23.004 23.076 22.148 22.582 22.15 22.157" class="st11"/></g><g><ellipse cx="22.838" cy="23.856" class="st2" rx=".132" ry=".228" transform="matrix(0.8646 -0.50245 0.50245 0.8646 -8.8941 14.70519)"/></g><g><path d="M22.28868,23.35203c0.09039,0.05219,0.16152,0.17721,0.16123,0.27926 c-0.00029,0.10205-0.07189,0.14467-0.16228,0.09248c-0.08881-0.05127-0.15993-0.1763-0.15964-0.27835 C22.12827,23.34338,22.19988,23.30076,22.28868,23.35203z" class="st2"/></g><g><ellipse cx="21.739" cy="23.221" class="st2" rx=".132" ry=".228" transform="matrix(0.8646 -0.50245 0.50245 0.8646 -8.72409 14.06709)"/></g><g><ellipse cx="21.189" cy="22.903" class="st2" rx=".132" ry=".228" transform="matrix(0.8646 -0.50245 0.50245 0.8646 -8.63897 13.74758)"/></g></g><path d="M12.32702,16.03936l-0.0736-0.04233l-0.00914,2.29064l-0.00048,0.0279l11.4542,6.61298l0.0736,0.04233 l0.00914-2.29064l0.00048-0.0279L12.32702,16.03936z M23.67347,24.80156l-11.33057-6.54179l0.00866-2.09342l11.33057,6.54178 L23.67347,24.80156z" class="st4"/></g><g><g><g><polygon points="24.127 27.135 24.7 26.801 24.688 29.915 24.114 30.248" class="st4"/></g><g><polygon points="11.911 20.082 12.485 19.749 24.7 26.801 24.127 27.135" class="st0"/></g><g><polygon points="24.127 27.135 24.114 30.248 11.899 23.196 11.911 20.082" class="st0"/><polygon points="24.127 27.135 24.114 30.248 11.899 23.196 11.911 20.082" class="st7"/></g></g><g><g><polygon points="13.556 21.876 13.554 22.301 12.699 21.807 12.7 21.382" class="st11"/></g><g><polygon points="14.798 22.593 14.796 23.018 13.942 22.526 13.944 22.1" class="st11"/></g><g><polygon points="23.005 27.332 23.004 27.757 22.148 27.263 22.15 26.838" class="st11"/></g><g><ellipse cx="22.838" cy="28.537" class="st2" rx=".132" ry=".228" transform="matrix(0.8646 -0.50245 0.50245 0.8646 -11.24617 15.339)"/></g><g><path d="M22.28868,28.03321c0.09039,0.05219,0.16152,0.17721,0.16123,0.27926 c-0.00029,0.10205-0.07189,0.14467-0.16228,0.09248c-0.08881-0.05127-0.15993-0.1763-0.15964-0.27835 C22.12827,28.02455,22.19988,27.98194,22.28868,28.03321z" class="st2"/></g><g><ellipse cx="21.739" cy="27.902" class="st2" rx=".132" ry=".228" transform="matrix(0.8646 -0.50245 0.50245 0.8646 -11.07617 14.7009)"/></g><g><ellipse cx="21.189" cy="27.585" class="st2" rx=".132" ry=".228" transform="matrix(0.8646 -0.50245 0.50245 0.8646 -10.99104 14.38139)"/></g></g><path d="M12.32702,20.72053l-0.0736-0.04233l-0.00914,2.29064l-0.00048,0.0279l11.4542,6.61298l0.0736,0.04233 l0.00914-2.29064l0.00048-0.0279L12.32702,20.72053z M23.67347,29.48273l-11.33057-6.54179l0.00866-2.09342l11.33057,6.54179 L23.67347,29.48273z" class="st4"/></g><g><g><g><polygon points="24.127 31.816 24.7 31.483 24.688 34.596 24.114 34.93" class="st4"/></g><g><polygon points="11.911 24.763 12.485 24.43 24.7 31.483 24.127 31.816" class="st0"/></g><g><polygon points="24.127 31.816 24.114 34.93 11.899 27.877 11.911 24.763" class="st0"/><polygon points="24.127 31.816 24.114 34.93 11.899 27.877 11.911 24.763" class="st7"/></g></g><g><g><polygon points="13.556 26.557 13.554 26.983 12.699 26.489 12.7 26.063" class="st11"/></g><g><polygon points="14.798 27.274 14.796 27.7 13.942 27.207 13.944 26.781" class="st11"/></g><g><polygon points="23.005 32.013 23.004 32.438 22.148 31.944 22.15 31.519" class="st11"/></g><g><ellipse cx="22.838" cy="33.218" class="st2" rx=".132" ry=".228" transform="matrix(0.8646 -0.50245 0.50245 0.8646 -13.59825 15.97281)"/></g><g><path d="M22.28868,32.71438c0.09039,0.05219,0.16152,0.17721,0.16123,0.27926 c-0.00029,0.10205-0.07189,0.14467-0.16228,0.09248c-0.08881-0.05127-0.15993-0.1763-0.15964-0.27834 C22.12827,32.70572,22.19988,32.66311,22.28868,32.71438z" class="st2"/></g><g><ellipse cx="21.739" cy="32.583" class="st2" rx=".132" ry=".228" transform="matrix(0.8646 -0.50245 0.50245 0.8646 -13.42824 15.33471)"/></g><g><ellipse cx="21.189" cy="32.266" class="st2" rx=".132" ry=".228" transform="matrix(0.8646 -0.50245 0.50245 0.8646 -13.34311 15.0152)"/></g></g><path d="M12.32702,25.40171l-0.0736-0.04233l-0.00914,2.29064l-0.00048,0.0279l11.4542,6.61298l0.0736,0.04233 l0.00914-2.29064l0.00048-0.0279L12.32702,25.40171z M23.67347,34.1639l-11.33057-6.54178l0.00866-2.09342l11.33057,6.54179 L23.67347,34.1639z" class="st4"/></g><g><g><g><polygon points="24.127 36.497 24.7 36.164 24.688 39.277 24.114 39.611" class="st4"/></g><g><polygon points="11.911 29.444 12.485 29.111 24.7 36.164 24.127 36.497" class="st0"/></g><g><polygon points="24.127 36.497 24.114 39.611 11.899 32.558 11.911 29.444" class="st0"/><polygon points="24.127 36.497 24.114 39.611 11.899 32.558 11.911 29.444" class="st7"/></g></g><g><g><polygon points="13.556 31.238 13.554 31.664 12.699 31.17 12.7 30.744" class="st11"/></g><g><polygon points="14.798 31.955 14.796 32.381 13.942 31.888 13.944 31.463" class="st11"/></g><g><polygon points="23.005 36.694 23.004 37.119 22.148 36.626 22.15 36.2" class="st11"/></g><g><ellipse cx="22.838" cy="37.899" class="st2" rx=".132" ry=".228" transform="matrix(0.8646 -0.50245 0.50245 0.8646 -15.95032 16.60662)"/></g><g><path d="M22.28868,37.39555c0.09039,0.05219,0.16152,0.17721,0.16123,0.27926 c-0.00029,0.10204-0.07189,0.14467-0.16228,0.09248c-0.08881-0.05127-0.15993-0.1763-0.15964-0.27835 C22.12827,37.3869,22.19988,37.34428,22.28868,37.39555z" class="st2"/></g><g><ellipse cx="21.739" cy="37.265" class="st2" rx=".132" ry=".228" transform="matrix(0.8646 -0.50245 0.50245 0.8646 -15.78031 15.96852)"/></g><g><ellipse cx="21.189" cy="36.947" class="st2" rx=".132" ry=".228" transform="matrix(0.8646 -0.50245 0.50245 0.8646 -15.69518 15.64901)"/></g></g><path d="M12.32702,30.08288l-0.0736-0.04233l-0.00914,2.29064l-0.00048,0.0279l11.4542,6.61298l0.0736,0.04233 l0.00914-2.29064l0.00048-0.0279L12.32702,30.08288z M23.67347,38.84508l-11.33057-6.54179l0.00866-2.09342l11.33057,6.54178 L23.67347,38.84508z" class="st4"/></g><g><g><polygon points="23.395 40.085 23.395 42.02 23.386 43.811 22.589 43.346 22.589 41.563 22.598 39.62" class="st9"/><polygon points="14.305 34.828 15.102 35.294 15.093 37.237 15.093 39.02 14.287 38.554 14.296 36.772" class="st9"/><polygon points="16.338 36.01 16.759 36.252 16.75 38.187 16.75 39.978 16.329 39.736 15.944 39.512 15.953 37.73 15.962 35.787" class="st9"/><polygon points="19.275 37.703 20.081 38.169 20.072 40.112 20.072 41.895 19.266 41.429 19.266 39.647" class="st9"/><polygon points="21.308 38.876 21.738 39.127 21.738 41.062 21.729 42.853 21.299 42.602 20.932 42.387 20.932 40.605 20.941 38.661" class="st9"/><polygon points="17.618 36.745 18.416 37.211 18.416 39.145 18.407 40.936 17.609 40.471 17.609 38.688" class="st9"/><polygon points="12.639 33.879 13.445 34.336 13.436 36.279 13.436 38.061 12.63 37.605 12.639 35.813" class="st9"/></g></g></g></g><g><g><g class="st8"><g><path d="M31.66984,38.60616c-0.00719,0.00723-0.6431,0.96109-0.37573,2.92664 c0.55639,4.14059-1.07669,7.64527-5.99054,6.11332l-0.19508-0.05778l-0.19512-0.16623 c-4.90656-4.14059-6.5108-9.51687-5.93271-12.9999c0.2746-1.66201-0.35407-3.33126-0.35407-3.34573l-0.39743-1.01887 l2.6737-0.65038l0.44079,0.44802c0.32519,0.33242,0.6648,0.59978,1.00445,0.8021 c1.25012,0.71543,2.2401,0.35412,2.24733,0.35412l0.56366-0.20959l0.55639,0.85992 c0.00723,0.00723,0.99722,1.51029,2.24014,2.22568c0.33961,0.20231,0.67926,0.32518,1.01164,0.36854l0.4336,0.05778 l2.66646,3.73597L31.66984,38.60616z" class="st0"/></g><g><path d="M33.21872,37.37748l-2.66404-3.73619L30.11681,33.584c-0.32325-0.04093-0.667-0.16777-1.01076-0.36422 c-1.23993-0.72019-2.22616-2.21796-2.23437-2.22612l-0.56062-0.86349l-0.56062,0.21281l-0.0123,0.0041 c-0.12275,0.03678-1.06805,0.31099-2.23432-0.36422c-0.34376-0.1964-0.68336-0.4665-1.0108-0.79799l-0.43783-0.45014 l-2.6722,0.65474l-1.14528,0.66608l2.66514-0.6483l0.44079,0.44802c0.32519,0.33242,0.6648,0.59978,1.00445,0.8021 c1.25012,0.71543,2.2401,0.35412,2.24733,0.35412l0.56366-0.20959l0.55639,0.85992 c0.00723,0.00723,0.99722,1.51029,2.24014,2.22568c0.33961,0.20231,0.67926,0.32518,1.01164,0.36854l0.4336,0.05778 l2.66646,3.73597l-0.39747,0.55639c-0.00719,0.00723-0.6431,0.96109-0.37573,2.92664 c0.34706,2.58293-0.15847,4.91772-1.7803,5.93748l1.05729-0.61116c1.69823-0.99029,2.23022-3.36377,1.8742-5.99918 c-0.2619-1.96422,0.37238-2.91773,0.37648-2.92593L33.21872,37.37748z" class="st13"/></g><g><path d="M25.15279,32.10036c0.06004,0.09338,1.2007,1.86754,2.799,2.79033 c0.41884,0.24182,0.86499,0.41875,1.32399,0.4802l1.63958,2.29984c-0.04033,0.05595-0.8066,1.11907-0.48108,3.5323 c0.44851,3.33827-0.71537,6.78909-5.32249,5.35609c-4.60016-3.88282-5.74071-8.66411-5.27477-11.47442 c0.33812-2.03008-0.41963-3.97308-0.45951-4.07535l1.64724-0.40219c0.45852,0.46835,0.9043,0.8063,1.32341,1.04828 C23.94691,32.57846,25.09249,32.12426,25.15279,32.10036z" class="st3"/></g></g></g><g><g><path d="M26.68672,39.06992c0.35229,0.2034,0.63547,0.69061,0.63433,1.09541l-0.00859,3.0295 c-0.00113,0.39826-0.28615,0.5607-0.63844,0.35731l-3.40921-1.96831c-0.35229-0.2034-0.63546-0.69389-0.63433-1.09214 l0.00859-3.0295c0.00115-0.40481,0.28616-0.56397,0.63845-0.36057L26.68672,39.06992z M25.18821,40.67025 c0.18209,0.0103,0.30767-0.12318,0.30836-0.36478c0.00094-0.33298-0.23126-0.73191-0.51821-0.89758 c-0.28694-0.16566-0.52066-0.03574-0.5216,0.29725c-0.00069,0.24159,0.12374,0.51941,0.3053,0.71907l-0.00251,0.88469 l0.42616,0.24604L25.18821,40.67025" class="st2"/></g><g><path d="M25.0002,35.27369c0.01463,0.00844,0.02921,0.01706,0.04388,0.02594 c0.9062,0.55262,1.64229,1.88663,1.63923,2.9672l-0.00227,0.79981l-0.554-0.31985l0.00227-0.79981 c0.00209-0.73779-0.49333-1.6451-1.10692-2.02225c-0.01058-0.00644-0.02119-0.01273-0.03175-0.01883 c-0.29826-0.17221-0.58418-0.20415-0.79887-0.09124c-0.22515,0.12179-0.34827,0.3875-0.34928,0.74334l-0.00246,0.86837 l-0.55684-0.32149l0.00246-0.86837c0.0015-0.52885,0.18473-0.92009,0.52104-1.10196 C24.1295,34.96322,24.55576,35.0171,25.0002,35.27369z" class="st2"/></g></g></g></g></g><g><polygon points="11.36 8.788 24.761 1 38.654 9.021 25.253 16.809" class="st11"/></g><g><path d="M34.39031,8.39916c0.48353,0.27917,0.48574,0.73156,0.00536,1.01073l-8.48551,4.93124 c-0.48038,0.27917-1.2614,0.27936-1.74493,0.0002L15.6242,9.41016c-0.48353-0.27917-0.48608-0.73175-0.00569-1.01092 L24.10403,3.468c0.48038-0.27917,1.26173-0.27917,1.74525-0.00001L34.39031,8.39916z" class="st9"/></g></g></svg>