<svg xmlns="http://www.w3.org/2000/svg" xmlns:xlink="http://www.w3.org/1999/xlink" id="Layer_1" version="1.1" viewBox="0 0 50 50" xml:space="preserve" style="enable-background:new 0 0 50 50"><style type="text/css">.st3{fill:#3955d1}.st4{fill:#4466fb}.st7{fill:#6bb5fb}.st9{fill:#1b2a4f}.st11{fill:#384e85}.st12{fill:#2e4277}</style><g><g><g><g><polygon points="13.69 11.819 13.618 42.778 12.574 43.385 11.775 39.011 12.647 12.036" class="st12"/><path d="M10.25868,41.44482l0.07199-30.95815c-0.00085,0.30113,0.96989,0.67184,2.31618,1.54949l-0.07291,31.34841 C11.22766,42.50693,10.25782,41.74597,10.25868,41.44482z" class="st11"/><polygon points="21.105 16.1 21.033 47.058 13.618 42.778 13.69 11.819" class="st9"/><polygon points="21.105 18.008 21.097 18.958 13.682 14.678 13.69 13.727" class="st3"/><polygon points="21.105 20.468 21.097 21.419 13.682 17.138 13.69 16.188" class="st3"/><polygon points="21.105 22.929 21.097 23.879 13.682 19.598 13.69 18.648" class="st3"/><polygon points="21.105 25.389 21.097 26.339 13.682 22.059 13.69 21.108" class="st3"/><polygon points="21.105 27.849 21.097 28.8 13.682 24.519 13.69 23.569" class="st3"/><g><polygon points="19.205 29.272 19.2 29.869 14.935 27.407 14.941 26.81" class="st12"/><polygon points="19.205 30.677 19.2 31.275 14.935 28.813 14.941 28.215" class="st12"/><polygon points="19.205 33.489 19.2 34.086 14.935 31.624 14.941 31.027" class="st12"/><polygon points="19.205 32.083 19.2 32.68 14.935 30.218 14.941 29.621" class="st12"/><polygon points="19.205 36.3 19.2 36.897 14.935 34.435 14.941 33.838" class="st12"/><polygon points="19.205 34.894 19.2 35.492 14.935 33.03 14.941 32.432" class="st12"/><polygon points="19.205 37.706 19.2 38.303 14.935 35.841 14.941 35.244" class="st12"/></g><g><polygon points="39.741 8.619 39.669 39.577 23.515 48.965 23.276 17.744" class="st12"/><path d="M23.58758,17.61696l-0.0729,31.34841c-0.32465,0.18867-1.79373-0.41421-3.51934-1.3042l0.07199-30.95815 C21.79293,17.59299,23.26293,17.80562,23.58758,17.61696z" class="st11"/></g><g><g><polygon points="13.69 13.727 13.682 14.678 12.638 15.285 12.646 14.334" class="st4"/></g><g><polygon points="13.69 16.188 13.682 17.138 12.638 17.745 12.646 16.795" class="st4"/></g><g><polygon points="13.69 18.648 13.682 19.598 12.638 20.205 12.646 19.255" class="st4"/></g><g><polygon points="13.69 21.108 13.682 22.059 12.638 22.666 12.646 21.715" class="st4"/></g><g><polygon points="13.69 23.569 13.682 24.519 12.638 25.126 12.646 24.176" class="st4"/></g><g><path d="M10.32257,13.34479l0.0081-0.95026c-0.00085,0.30113,0.96898,1.06209,2.31527,1.93974l-0.00811,0.95027 C11.29155,14.40689,10.32172,13.64593,10.32257,13.34479z" class="st7"/></g><g><path d="M10.32257,15.80514l0.0081-0.95026c-0.00085,0.30113,0.96898,1.06209,2.31527,1.93974l-0.00811,0.95027 C11.29155,16.86724,10.32172,16.10629,10.32257,15.80514z" class="st7"/></g><g><path d="M10.32257,18.26549l0.0081-0.95026c-0.00085,0.30113,0.96898,1.06209,2.31527,1.93974l-0.00811,0.95027 C11.29155,19.3276,10.32172,18.56664,10.32257,18.26549z" class="st7"/></g><g><path d="M10.32257,20.72585l0.0081-0.95026c-0.00085,0.30113,0.96898,1.06209,2.31527,1.93974l-0.00811,0.95027 C11.29155,21.78795,10.32172,21.02699,10.32257,20.72585z" class="st7"/></g><g><path d="M10.32257,23.1862l0.0081-0.95026c-0.00085,0.30113,0.96898,1.06209,2.31527,1.93974l-0.00811,0.95027 C11.29155,24.2483,10.32172,23.48735,10.32257,23.1862z" class="st7"/></g><g><path d="M23.58667,19.91506l-0.008,0.91519c-0.32465,0.18867-1.79384-0.37913-3.51945-1.26912l0.0081-0.95026 C21.79293,19.50085,23.26202,20.10373,23.58667,19.91506z" class="st7"/></g><g><path d="M23.58667,22.37541l-0.008,0.91519c-0.32465,0.18867-1.79384-0.37913-3.51945-1.26912l0.0081-0.95026 C21.79293,21.9612,23.26202,22.56408,23.58667,22.37541z" class="st7"/></g><g><path d="M23.58667,24.83577l-0.008,0.91519c-0.32465,0.18866-1.79384-0.37913-3.51945-1.26912l0.0081-0.95026 C21.79293,24.42155,23.26202,25.02443,23.58667,24.83577z" class="st7"/></g><g><path d="M23.58667,27.29612l-0.008,0.91519c-0.32465,0.18866-1.79384-0.37913-3.51945-1.26912l0.0081-0.95026 C21.79293,26.88191,23.26202,27.48479,23.58667,27.29612z" class="st7"/></g><g><path d="M23.58667,29.75647l-0.008,0.91519c-0.32465,0.18867-1.79384-0.37913-3.51945-1.26912l0.0081-0.95026 C21.79293,29.34226,23.26202,29.94514,23.58667,29.75647z" class="st7"/></g></g></g><g><g><g><g><polygon points="38.574 38.475 38.152 38.717 38.14 35.656 38.562 35.414" class="st9"/></g><g><polygon points="37.777 38.933 37.352 39.177 37.339 36.116 37.765 35.872" class="st9"/></g><g><polygon points="36.977 39.392 36.555 39.634 36.542 36.573 36.964 36.331" class="st9"/></g><g><polygon points="36.18 39.85 35.758 40.092 35.745 37.031 36.167 36.789" class="st9"/></g><g><polygon points="35.383 40.308 34.958 40.552 34.945 37.491 35.371 37.247" class="st9"/></g></g><g><g><polygon points="31.108 42.756 30.686 42.998 30.673 39.936 31.095 39.694" class="st9"/></g><g><polygon points="30.311 43.213 29.885 43.457 29.873 40.396 30.298 40.152" class="st9"/></g><g><polygon points="29.51 43.673 29.088 43.915 29.076 40.854 29.498 40.612" class="st9"/></g><g><polygon points="28.714 44.131 28.292 44.373 28.279 41.312 28.701 41.07" class="st9"/></g><g><polygon points="27.917 44.589 27.491 44.833 27.478 41.772 27.904 41.528" class="st9"/></g></g></g><g><g><g><polygon points="38.574 32.819 38.152 33.061 38.14 30 38.562 29.758" class="st9"/></g><g><polygon points="37.777 33.277 37.352 33.521 37.339 30.46 37.765 30.216" class="st9"/></g><g><polygon points="36.977 33.737 36.555 33.978 36.542 30.917 36.964 30.675" class="st9"/></g><g><polygon points="36.18 34.194 35.758 34.436 35.745 31.375 36.167 31.133" class="st9"/></g><g><polygon points="35.383 34.652 34.958 34.896 34.945 31.835 35.371 31.591" class="st9"/></g></g><g><g><polygon points="31.108 37.1 30.686 37.342 30.673 34.28 31.095 34.039" class="st9"/></g><g><polygon points="30.311 37.557 29.885 37.801 29.873 34.74 30.298 34.496" class="st9"/></g><g><polygon points="29.51 38.017 29.088 38.259 29.076 35.198 29.498 34.956" class="st9"/></g><g><polygon points="28.714 38.475 28.292 38.717 28.279 35.656 28.701 35.414" class="st9"/></g><g><polygon points="27.917 38.933 27.491 39.177 27.478 36.116 27.904 35.872" class="st9"/></g></g></g></g></g></g><path d="M39.74132,8.61915l-16.15465,9.38806c-0.32465,0.18866-1.79374-0.41421-3.51934-1.3042l1.03745-0.6029 l-7.41435-4.28068l-1.04449,0.60699c-1.53505-1.0007-2.58067-1.8497-2.25603-2.03836L26.54457,1L39.74132,8.61915z" class="st11"/></g></svg>