<svg xmlns="http://www.w3.org/2000/svg" xmlns:xlink="http://www.w3.org/1999/xlink" id="Layer_1" version="1.1" viewBox="0 0 50 50" xml:space="preserve" style="enable-background:new 0 0 50 50"><style type="text/css">.st0{fill:none}.st1{fill:#b7c5fd}.st2{fill:#9aadfd}.st3{fill:#fff}.st4{fill:#3955d1}.st5{fill:#4466fb}.st6{fill:#aabafd}.st7{fill:#798ffe}.st8{fill:#6bb5fb}.st9{enable-background:new}.st10{fill:#1b2a4f}.st11{fill:url(#SVGID_1_)}.st12{fill:url(#SVGID_2_)}.st14{fill:url(#SVGID_3_)}.st15{fill:url(#SVGID_4_)}.st16{fill:url(#SVGID_5_)}.st17{fill:url(#SVGID_6_)}.st18{fill:url(#SVGID_7_)}.st19{fill:#384e85}.st20{fill:#2e4277}.st21{fill:#d9ddf6}.st22{fill:url(#SVGID_8_)}.st23{fill:url(#SVGID_9_)}.st24{fill:url(#SVGID_10_)}.st25{fill:url(#SVGID_11_)}.st26{fill:url(#SVGID_12_)}.st27{fill:url(#SVGID_13_)}.st28{fill:url(#SVGID_14_)}.st29{fill:url(#SVGID_15_)}.st30{fill:url(#SVGID_16_)}.st40{fill:#535d88}</style><pattern id="Unnamed_Pattern_12" width="32.252" height="32.252" x="-70" y="-70" patternUnits="userSpaceOnUse" viewBox="0 -32.252 32.252 32.252" style="overflow:visible"><g><rect width="32.252" height="32.252" y="-32.252" class="st0"/><g><rect width="32.252" height="32.252" x="0" y="-32.252" class="st1"/></g></g></pattern><g><g><g><g><g><path d="M47.90341,38.46857l-13.65167,7.93348c-0.32263,0.1882-0.84242,0.1882-1.16505,0.00299L9.95608,33.04885 c-0.32263-0.18521-0.32263-0.48693,0-0.67513l13.65167-7.93347c0.31964-0.18521,0.83943-0.18521,1.16206,0l23.13061,13.3532 C48.22306,37.98166,48.22605,38.28336,47.90341,38.46857z" class="st19"/></g><g><path d="M27.76556,36.65399c0.18389,0.10617,0.18281,0.27914,0.00011,0.38532l-3.79351,2.20454 c-0.1827,0.10617-0.48132,0.10737-0.66521,0.0012l-7.47549-4.31598c-0.18389-0.10617-0.1828-0.27914-0.00011-0.38531 l3.79351-2.20455c0.1827-0.10617,0.48132-0.10736,0.66521-0.0012L27.76556,36.65399z" class="st20"/></g><g><path d="M48.1424,38.134l-0.00299,1.21882c0,0.1195-0.08065,0.24197-0.23898,0.33458l-13.65167,7.93348 c-0.32263,0.18521-0.84242,0.18521-1.16505,0L9.95309,34.26767c-0.16131-0.09261-0.24197-0.21508-0.24197-0.34055 l0.00299-1.21583c0,0.12249,0.08064,0.24496,0.24197,0.33757l23.13061,13.35619 c0.32263,0.18521,0.84242,0.18521,1.16505-0.00299l13.65167-7.93348C48.06472,38.37597,48.1424,38.25648,48.1424,38.134z" class="st10"/></g><g><g><polygon points="27.378 28.045 26.945 28.297 25.897 27.693 26.331 27.44" class="st7"/></g><g><polygon points="21.669 29.734 20.71 30.292 18.255 28.875 19.214 28.317" class="st7"/></g><g><polygon points="21.469 28.22 20.51 28.777 19.463 28.173 20.422 27.615" class="st7"/></g><g><polygon points="22.877 29.032 21.917 29.59 20.87 28.985 21.83 28.428" class="st7"/></g><g><polygon points="24.084 28.331 23.125 28.888 20.67 27.471 21.63 26.913" class="st7"/></g><g><polygon points="25.49 29.142 24.531 29.7 23.484 29.095 24.443 28.538" class="st7"/></g><g><polygon points="27.22 28.744 26.262 29.3 25.215 28.696 26.173 28.139" class="st7"/></g><g><polygon points="25.814 27.932 24.856 28.489 23.809 27.884 24.767 27.327" class="st7"/></g><g><polygon points="25.973 27.233 25.539 27.485 24.492 26.881 24.925 26.629" class="st7"/></g><g><polygon points="24.406 27.119 23.449 27.676 21.878 26.769 22.836 26.212" class="st7"/></g><g><polygon points="24.565 26.421 24.131 26.673 23.084 26.068 23.518 25.816" class="st7"/></g><g><polygon points="33.005 31.294 32.572 31.546 31.524 30.941 31.958 30.689" class="st7"/></g><g><polygon points="32.847 31.993 31.889 32.549 30.842 31.944 31.8 31.388" class="st7"/></g><g><polygon points="31.441 31.181 30.483 31.737 29.436 31.133 30.394 30.576" class="st7"/></g><g><polygon points="27.096 31.469 26.137 32.026 25.09 31.421 26.049 30.864" class="st7"/></g><g><polygon points="28.504 32.281 27.544 32.839 26.497 32.234 27.457 31.677" class="st7"/></g><g class="st9"><g><polygon points="28.786 28.858 28.352 29.11 27.305 28.505 27.739 28.253" class="st7"/></g><g><polygon points="30.192 29.669 29.758 29.921 28.711 29.317 29.145 29.065" class="st7"/></g><g><polygon points="28.627 29.556 27.67 30.113 26.623 29.508 27.58 28.952" class="st7"/></g><g><polygon points="26.898 29.955 25.939 30.512 24.891 29.908 25.851 29.35" class="st7"/></g><g><polygon points="30.033 30.368 29.076 30.925 28.029 30.32 28.986 29.764" class="st7"/></g><g><polygon points="25.69 30.657 24.731 31.214 23.684 30.61 24.643 30.052" class="st7"/></g><g><polygon points="28.304 30.767 27.344 31.324 26.297 30.72 27.257 30.162" class="st7"/></g><g><polygon points="28.702 33.795 27.744 34.351 21.07 30.498 22.028 29.941" class="st7"/></g></g><g><polygon points="31.6 30.482 31.166 30.734 30.119 30.13 30.552 29.878" class="st7"/></g><g><polygon points="34.413 32.107 33.979 32.359 32.93 31.753 33.364 31.501" class="st7"/></g><g><polygon points="37.225 33.73 36.791 33.982 35.744 33.377 36.178 33.125" class="st7"/></g><g class="st9"><g><polygon points="29.711 31.579 28.752 32.137 27.705 31.532 28.664 30.975" class="st7"/></g><g><polygon points="31.117 32.391 30.158 32.949 29.111 32.344 30.07 31.786" class="st7"/></g></g><g><polygon points="32.525 33.204 31.566 33.761 30.517 33.156 31.476 32.598" class="st7"/></g><g><polygon points="34.253 32.804 33.295 33.361 32.25 32.757 33.207 32.201" class="st7"/></g><g><polygon points="33.931 34.015 32.971 34.573 31.924 33.968 32.884 33.411" class="st7"/></g><g><polygon points="32.921 36.231 31.962 36.788 30.915 36.184 31.874 35.626" class="st7"/></g><g><polygon points="34.129 35.529 33.17 36.086 32.122 35.482 33.082 34.924" class="st7"/></g><g><polygon points="36.744 35.64 35.785 36.197 33.33 34.78 34.29 34.223" class="st7"/></g><g class="st9"><g><polygon points="38.632 34.543 38.199 34.795 37.152 34.19 37.585 33.938" class="st7"/></g><g><polygon points="37.95 34.939 36.993 35.495 35.062 34.38 36.019 33.824" class="st7"/></g></g><g><polygon points="35.66 33.617 34.703 34.173 33.656 33.569 34.613 33.012" class="st7"/></g><g><polygon points="35.819 32.918 35.385 33.17 34.338 32.566 34.772 32.314" class="st7"/></g><g><polygon points="40.768 37.963 39.809 38.52 38.762 37.916 39.721 37.358" class="st7"/></g><g><polygon points="43.582 39.587 42.622 40.145 41.575 39.54 42.534 38.983" class="st7"/></g><g><polygon points="36.945 38.554 35.986 39.111 34.938 38.507 35.898 37.949" class="st7"/></g><g class="st9"><g><polygon points="41.248 36.053 40.815 36.305 39.768 35.7 40.201 35.448" class="st7"/></g><g><polygon points="40.566 36.449 39.609 37.006 38.562 36.401 39.519 35.845" class="st7"/></g><g><polygon points="42.656 36.866 42.222 37.118 41.175 36.513 41.609 36.261" class="st7"/></g><g><polygon points="39.36 37.15 38.401 37.708 37.354 37.103 38.313 36.546" class="st7"/></g><g><polygon points="41.974 37.262 41.016 37.819 39.969 37.214 40.927 36.658" class="st7"/></g><g><polygon points="38.153 37.852 37.193 38.41 36.146 37.805 37.106 37.247" class="st7"/></g><g><polygon points="43.38 38.074 42.422 38.63 41.375 38.026 42.333 37.469" class="st7"/></g><g><polygon points="39.56 38.665 38.601 39.222 37.554 38.618 38.513 38.06" class="st7"/></g><g><polygon points="42.174 38.775 41.215 39.332 40.167 38.728 41.127 38.17" class="st7"/></g><g><polygon points="40.966 39.476 40.007 40.034 38.96 39.429 39.919 38.872" class="st7"/></g></g><g><polygon points="24.283 29.844 23.323 30.402 22.276 29.797 23.235 29.24" class="st7"/></g><g><polygon points="30.11 34.607 29.15 35.165 28.101 34.559 29.061 34.002" class="st7"/></g><g><polygon points="31.317 33.906 30.358 34.463 29.309 33.858 30.268 33.3" class="st7"/></g><g><polygon points="31.515 35.419 30.556 35.977 29.509 35.372 30.468 34.815" class="st7"/></g><g><polygon points="32.723 34.717 31.764 35.275 30.717 34.67 31.676 34.113" class="st7"/></g><g><polygon points="29.91 33.093 28.95 33.65 27.903 33.046 28.862 32.488" class="st7"/></g><g><polygon points="34.329 37.044 33.37 37.601 32.322 36.996 33.282 36.439" class="st7"/></g><g><polygon points="44.788 38.886 43.83 39.443 42.783 38.838 43.74 38.282" class="st7"/></g><g><polygon points="45.47 38.49 45.036 38.742 43.989 38.138 44.423 37.885" class="st7"/></g><g><polygon points="44.062 37.677 43.628 37.929 42.581 37.325 43.015 37.073" class="st7"/></g><g><polygon points="38.353 39.367 37.393 39.924 36.346 39.32 37.305 38.762" class="st7"/></g><g><polygon points="42.374 40.289 40.207 41.549 39.16 40.944 41.327 39.685" class="st7"/></g><g><polygon points="39.758 40.178 38.799 40.736 37.752 40.131 38.711 39.574" class="st7"/></g></g></g><g><g><path d="M47.61214,19.98635c0.32232,0.18609,0.58277,0.6372,0.58172,1.00758l-0.04124,16.27343 c-0.00105,0.36819-0.2632,0.51977-0.58553,0.33367L24.76981,24.44025c-0.32232-0.18609-0.58277-0.63939-0.58172-1.00758 l0.04124-16.27343c0.00105-0.37039,0.2632-0.51977,0.58553-0.33367L47.61214,19.98635z" class="st10"/></g><g><path d="M48.80607,20.63923l-0.04183,16.2728c0,0.18222-0.06573,0.31366-0.17028,0.37341l-0.61143,0.35557 c0.10457-0.05973,0.17028-0.19117,0.17028-0.37341l0.04182-16.27278c0-0.37044-0.25989-0.82151-0.58252-1.00971 L24.81473,6.82582c-0.16133-0.09261-0.3077-0.10156-0.41524-0.04183l0.61143-0.35557 c0.10455-0.05975,0.25391-0.0508,0.41522,0.04181l22.79741,13.16229C48.54617,19.81773,48.80607,20.26881,48.80607,20.63923z" class="st19"/></g><g><polygon points="47.371 20.795 47.331 36.517 25.011 23.631 25.051 7.91" class="st21"/></g></g></g><g><path d="M44.76154,16.10297L44.725,28.50055c-0.00059,0.20351-0.07235,0.34658-0.18801,0.41376l0.79913-0.4644 c0.11566-0.06719,0.18742-0.21025,0.18801-0.41376l0.03653-12.39758L44.76154,16.10297z" class="st5"/><g><path d="M44.76155,16.10296l-0.03655,12.39759c-0.00116,0.40926-0.29022,0.57399-0.64494,0.36919l-16.62408-9.59792 c-0.35617-0.20563-0.64335-0.70305-0.64219-1.11232l0.03655-12.39759L44.76155,16.10296z" class="st8"/><polygon points="27.547 6.974 27.515 18.496 44.025 28.028 44.059 16.507" class="st3"/></g><g class="st9"><g><path d="M45.56818,13.66178l-0.00507,1.97769l-0.80077,0.46122l0.00507-1.97264 c0-0.41052-0.28889-0.90718-0.64366-1.10989L27.50032,3.41912c-0.17737-0.10137-0.33956-0.11151-0.45614-0.04563 l0.7957-0.46626c0.12166-0.06589,0.28381-0.05577,0.46122,0.0456l16.62343,9.59902 C45.2793,12.75967,45.56818,13.25634,45.56818,13.66178z" class="st19"/></g><g><path d="M44.12608,13.01721c0.35472,0.2048,0.6419,0.70222,0.64075,1.10982l-0.00528,1.97594L26.85033,5.76192 l0.00528-1.97594c0.00115-0.4076,0.29022-0.57233,0.64638-0.36669L44.12608,13.01721z" class="st20"/></g></g></g><g><g><path d="M43.54557,13.32846c-0.24413-0.14095-0.4429-0.02768-0.44369,0.25285 c-0.0008,0.28053,0.19668,0.6211,0.44081,0.76205c0.24286,0.14021,0.44162,0.02841,0.44241-0.25212 C43.9859,13.81071,43.78843,13.46867,43.54557,13.32846z" class="st1"/></g><g><path d="M40.71055,11.69199c-0.24413-0.14095-0.4429-0.02768-0.4437,0.25285 c-0.00079,0.28053,0.19669,0.6211,0.44082,0.76205c0.24286,0.14021,0.44162,0.02841,0.44241-0.25212 C41.15088,12.17424,40.95341,11.8322,40.71055,11.69199z" class="st1"/></g><g><path d="M42.12806,12.51006c-0.24413-0.14095-0.4429-0.02768-0.44369,0.25285s0.19668,0.6211,0.44081,0.76205 c0.24414,0.14095,0.44162,0.02841,0.44241-0.25212C42.56839,12.99232,42.3722,12.65101,42.12806,12.51006z" class="st1"/></g></g><g><g><g><path d="M30.55533,13.15458l0.67448,1.16824c-0.80102,0.25046-1.39467,0.9142-1.65561,1.92579l-0.13794-0.07964 C29.47139,14.81732,29.88617,13.79569,30.55533,13.15458z" class="st21"/></g><g><path d="M34.94025,13.0981l-0.00669,2.35958c-0.28869-0.23258-0.58529-0.43976-0.8898-0.61558 c-1.05925-0.61156-2.0364-0.76234-2.81394-0.51929l-0.67448-1.16824C31.5591,12.19142,33.14436,12.09719,34.94025,13.0981z" class="st1"/></g><g class="st9"><g><path d="M39.34763,17.99716c0.75693,1.5064,1.22158,3.12265,1.25124,4.61654l-2.10811-1.21712 c-0.15933-0.8139-0.44633-1.6446-0.82991-2.43521L39.34763,17.99716z" class="st2"/></g><g><path d="M35.03918,13.14923c1.74115,1.00525,3.2897,2.82192,4.30845,4.84793l-1.68678,0.96422 c-0.66609-1.3641-1.62447-2.61836-2.72728-3.5037l0.00669-2.35958C34.97149,13.11614,35.00534,13.12969,35.03918,13.14923z" class="st6"/></g></g></g><g><path d="M38.53792,16.74378l-3.98383,2.65817c0.1095,0.38205,0.05022,0.72442-0.17533,0.85296 c-0.15079,0.08592-0.34787,0.05878-0.54501-0.05503c-0.1978-0.1142-0.39568-0.31565-0.547-0.57775 c-0.30012-0.51983-0.29852-1.08264,0.00356-1.25479c0.15067-0.08586,0.34855-0.05841,0.54563,0.05537 c0.09532,0.05503,0.19042,0.13022,0.27996,0.22259L38.53792,16.74378z" class="st40"/></g></g></g><g><path d="M20.03366,8.11863l-0.00598,16.50433c-0.00057,0.23902-0.15764,0.47747-0.47121,0.65957L12.51286,29.376 c-0.6314,0.36678-1.65833,0.36706-2.29371,0l-8.54632-4.93415c-0.31983-0.18467-0.47946-0.42682-0.47889-0.66896L1.19991,7.26998 c0,0.24129,0.15963,0.48316,0.4786,0.66726l8.54632,4.93443c0.63567,0.36678,1.66259,0.36678,2.294-0.00028l7.04362-4.09317 C19.87602,8.59581,20.03309,8.35736,20.03366,8.11863z" class="st5"/><path d="M19.55493,7.44963c0.63549,0.3669,0.63883,0.96162,0.00748,1.32853l-7.04367,4.09334 c-0.63136,0.36691-1.65827,0.36701-2.29376,0.00012L1.67861,7.93737c-0.63549-0.3669-0.63866-0.96173-0.0073-1.32863 L8.71499,2.5154c0.63136-0.36691,1.65809-0.36691,2.29358-0.00001L19.55493,7.44963z" class="st8"/><path d="M16.80011,7.82011c0.2811,0.1623,0.28239,0.4253,0.00312,0.5876l-4.93315,2.86683 c-0.27928,0.1623-0.73333,0.16241-1.01443,0.00011L4.43362,7.56689C4.15252,7.4046,4.15104,7.14148,4.43031,6.97919 l4.93315-2.86683c0.27928-0.1623,0.73352-0.1623,1.01462,0L16.80011,7.82011z" class="st5"/><g><g><g><path d="M9.59851,13.74056L2.27124,9.50999c-0.15176-0.08762-0.34146,0.0219-0.34146,0.19714v1.49763 c0,0.16265,0.08678,0.31295,0.22764,0.39428l7.32727,4.23034c0.15176,0.08762,0.34145-0.02191,0.34145-0.19714v-1.4974 C9.82614,13.97219,9.73937,13.82189,9.59851,13.74056z" class="st4"/><pattern id="SVGID_1_" patternTransform="matrix(0.02845 0 0 0.02845 -7776.48633 -7663.5166)" xlink:href="#Unnamed_Pattern_12"/><path d="M2.65364,10.5755c0.13898,0.08024,0.25107,0.27438,0.25061,0.43408s-0.11327,0.2242-0.25225,0.14396 c-0.13898-0.08024-0.25125-0.2747-0.2508-0.4344C2.40166,10.55945,2.51467,10.49526,2.65364,10.5755z" class="st11"/><pattern id="SVGID_2_" patternTransform="matrix(0.02845 0 0 0.02845 -7776.48633 -7663.5166)" xlink:href="#Unnamed_Pattern_12"/><path d="M3.4639,11.0433c0.1388,0.08014,0.25107,0.27439,0.25062,0.43408 c-0.00045,0.1597-0.11346,0.2241-0.25225,0.14396c-0.13898-0.08024-0.25125-0.2747-0.2508-0.4344 S3.32492,10.96306,3.4639,11.0433z" class="st12"/><pattern id="SVGID_3_" patternTransform="matrix(0.02845 0 0 0.02845 -7776.48633 -7663.5166)" xlink:href="#Unnamed_Pattern_12"/><path d="M4.27416,11.5111c0.1388,0.08014,0.25107,0.27439,0.25062,0.43408 c-0.00045,0.1597-0.11346,0.22409-0.25225,0.14396c-0.13898-0.08024-0.25125-0.2747-0.2508-0.4344 C4.02218,11.49505,4.13518,11.43086,4.27416,11.5111z" class="st14"/><pattern id="SVGID_4_" patternTransform="matrix(0.02845 0 0 0.02845 -7775.02979 -7651.36377)" xlink:href="#Unnamed_Pattern_12"/><polygon points="9.093 14.175 7.214 13.09 7.214 13.802 9.093 14.887" class="st15"/></g></g><g><g><path d="M12.58584,14.11706c-0.1941,0.11206-0.351,0.38382-0.35037,0.60686l0.00701,1.81195 c0.00063,0.22304,0.15856,0.31303,0.35266,0.20097c0.1941-0.11207,0.351-0.38382,0.35037-0.60686l-0.00701-1.81195 C12.93786,14.09499,12.77994,14.00499,12.58584,14.11706z" class="st10"/><path d="M12.78026,16.04311l-0.00702-1.81195c-0.00019-0.06646-0.01443-0.12099-0.03934-0.162 c0.12035-0.00518,0.20413,0.08657,0.20459,0.24886l0.00701,1.81195c0.00063,0.22304-0.15626,0.4948-0.35037,0.60686 c-0.13627,0.07867-0.25462,0.05765-0.31332-0.03897c0.04505-0.00194,0.0952-0.01736,0.14806-0.04789 C12.62399,16.53791,12.78089,16.26615,12.78026,16.04311z" class="st8"/></g><g><path d="M18.66948,10.58174c-0.1941,0.11207-0.351,0.38382-0.35037,0.60686l0.00701,1.81195 c0.00063,0.22304,0.15856,0.31303,0.35266,0.20097s0.351-0.38382,0.35037-0.60686l-0.00701-1.81195 C19.02151,10.55967,18.86359,10.46967,18.66948,10.58174z" class="st10"/><path d="M18.8639,12.5078l-0.00702-1.81195c-0.00019-0.06646-0.01443-0.12099-0.03934-0.162 c0.12035-0.00518,0.20413,0.08657,0.20459,0.24885l0.00701,1.81195c0.00063,0.22304-0.15627,0.4948-0.35037,0.60686 c-0.13627,0.07867-0.25462,0.05765-0.31332-0.03897c0.04505-0.00194,0.0952-0.01736,0.14807-0.04788 C18.70764,13.00259,18.86453,12.73084,18.8639,12.5078z" class="st8"/></g><g><path d="M17.14857,11.46557c-0.1941,0.11207-0.351,0.38382-0.35037,0.60686l0.00701,1.81195 c0.00063,0.22304,0.15856,0.31304,0.35266,0.20097c0.1941-0.11207,0.351-0.38382,0.35037-0.60686l-0.00701-1.81195 C17.5006,11.4435,17.34268,11.3535,17.14857,11.46557z" class="st10"/><path d="M17.34299,13.39163l-0.00702-1.81195c-0.00019-0.06646-0.01443-0.12099-0.03934-0.162 c0.12036-0.00518,0.20413,0.08657,0.20459,0.24885l0.00701,1.81195c0.00063,0.22304-0.15626,0.4948-0.35037,0.60686 c-0.13627,0.07868-0.25462,0.05765-0.31332-0.03897c0.04505-0.00194,0.0952-0.01736,0.14806-0.04789 C17.18673,13.88642,17.34362,13.61467,17.34299,13.39163z" class="st8"/></g><g><path d="M15.62766,12.3494c-0.1941,0.11207-0.351,0.38382-0.35037,0.60686l0.00701,1.81195 c0.00063,0.22304,0.15856,0.31303,0.35266,0.20097c0.1941-0.11207,0.351-0.38382,0.35037-0.60686l-0.00701-1.81195 C15.97969,12.32733,15.82176,12.23733,15.62766,12.3494z" class="st10"/><path d="M15.82208,14.27546l-0.00702-1.81195c-0.00019-0.06646-0.01443-0.12099-0.03934-0.162 c0.12035-0.00518,0.20413,0.08657,0.20459,0.24886l0.00701,1.81195c0.00063,0.22304-0.15626,0.4948-0.35037,0.60686 c-0.13627,0.07867-0.25462,0.05765-0.31332-0.03897c0.04505-0.00194,0.0952-0.01736,0.14806-0.04789 C15.66582,14.77025,15.82271,14.4985,15.82208,14.27546z" class="st8"/></g><g><path d="M14.10675,13.23323c-0.1941,0.11207-0.351,0.38382-0.35037,0.60686l0.00701,1.81195 c0.00063,0.22304,0.15856,0.31304,0.35266,0.20097c0.1941-0.11207,0.351-0.38382,0.35037-0.60686l-0.00701-1.81195 C14.45878,13.21116,14.30085,13.12116,14.10675,13.23323z" class="st10"/><path d="M14.30117,15.15929l-0.00702-1.81195c-0.00019-0.06645-0.01443-0.12099-0.03934-0.162 c0.12035-0.00518,0.20413,0.08657,0.20459,0.24885l0.00701,1.81195c0.00063,0.22304-0.15626,0.4948-0.35037,0.60686 c-0.13627,0.07868-0.25462,0.05765-0.31332-0.03897c0.04505-0.00194,0.0952-0.01736,0.14807-0.04789 C14.14491,15.65408,14.3018,15.38233,14.30117,15.15929z" class="st8"/></g></g></g><g><g><g><path d="M9.59851,17.65696l-7.32727-4.23058c-0.15176-0.08762-0.34146,0.0219-0.34146,0.19714v1.49763 c0,0.16265,0.08678,0.31295,0.22764,0.39428l7.32727,4.23034c0.15176,0.08762,0.34145-0.0219,0.34145-0.19714v-1.49739 C9.82614,17.88858,9.73937,17.73829,9.59851,17.65696z" class="st4"/><pattern id="SVGID_5_" patternTransform="matrix(0.02845 0 0 0.02845 -7776.48633 -7659.6001)" xlink:href="#Unnamed_Pattern_12"/><path d="M2.65364,14.4919c0.13898,0.08024,0.25107,0.27438,0.25061,0.43408s-0.11327,0.2242-0.25225,0.14396 c-0.13898-0.08024-0.25125-0.2747-0.2508-0.4344C2.40166,14.47584,2.51467,14.41166,2.65364,14.4919z" class="st16"/><pattern id="SVGID_6_" patternTransform="matrix(0.02845 0 0 0.02845 -7776.48633 -7659.6001)" xlink:href="#Unnamed_Pattern_12"/><path d="M3.4639,14.9597c0.1388,0.08014,0.25107,0.27439,0.25062,0.43408 c-0.00045,0.1597-0.11346,0.2241-0.25225,0.14396c-0.13898-0.08024-0.25125-0.2747-0.2508-0.4344 S3.32492,14.87946,3.4639,14.9597z" class="st17"/><pattern id="SVGID_7_" patternTransform="matrix(0.02845 0 0 0.02845 -7776.48633 -7659.6001)" xlink:href="#Unnamed_Pattern_12"/><path d="M4.27416,15.4275c0.1388,0.08014,0.25107,0.27439,0.25062,0.43408 c-0.00045,0.1597-0.11346,0.2241-0.25225,0.14396c-0.13898-0.08024-0.25125-0.2747-0.2508-0.4344 C4.02218,15.41145,4.13518,15.34726,4.27416,15.4275z" class="st18"/><pattern id="SVGID_8_" patternTransform="matrix(0.02845 0 0 0.02845 -7775.02979 -7647.44727)" xlink:href="#Unnamed_Pattern_12"/><polygon points="9.093 18.092 7.214 17.007 7.214 17.718 9.093 18.803" class="st22"/></g></g><g><g><path d="M12.58584,18.03345c-0.1941,0.11207-0.351,0.38382-0.35037,0.60686l0.00701,1.81195 c0.00063,0.22304,0.15856,0.31303,0.35266,0.20097c0.1941-0.11206,0.351-0.38382,0.35037-0.60686l-0.00701-1.81195 C12.93786,18.01138,12.77994,17.92138,12.58584,18.03345z" class="st10"/><path d="M12.78026,19.95951l-0.00702-1.81195c-0.00019-0.06646-0.01443-0.12099-0.03934-0.162 c0.12035-0.00518,0.20413,0.08657,0.20459,0.24886l0.00701,1.81195c0.00063,0.22304-0.15626,0.4948-0.35037,0.60686 c-0.13627,0.07867-0.25462,0.05765-0.31332-0.03897c0.04505-0.00194,0.0952-0.01736,0.14806-0.04789 C12.62399,20.45431,12.78089,20.18255,12.78026,19.95951z" class="st8"/></g><g><path d="M18.66948,14.49814c-0.1941,0.11207-0.351,0.38382-0.35037,0.60686l0.00701,1.81195 c0.00063,0.22304,0.15856,0.31304,0.35266,0.20097s0.351-0.38382,0.35037-0.60686l-0.00701-1.81195 C19.02151,14.47607,18.86359,14.38607,18.66948,14.49814z" class="st10"/><path d="M18.8639,16.42419l-0.00702-1.81195c-0.00019-0.06646-0.01443-0.12099-0.03934-0.162 c0.12035-0.00518,0.20413,0.08657,0.20459,0.24886l0.00701,1.81195c0.00063,0.22304-0.15627,0.4948-0.35037,0.60686 c-0.13627,0.07868-0.25462,0.05765-0.31332-0.03897c0.04505-0.00194,0.0952-0.01736,0.14807-0.04789 C18.70764,16.91899,18.86453,16.64724,18.8639,16.42419z" class="st8"/></g><g><path d="M17.14857,15.38197c-0.1941,0.11207-0.351,0.38382-0.35037,0.60686l0.00701,1.81195 c0.00063,0.22304,0.15856,0.31303,0.35266,0.20097c0.1941-0.11207,0.351-0.38382,0.35037-0.60686l-0.00701-1.81195 C17.5006,15.3599,17.34268,15.2699,17.14857,15.38197z" class="st10"/><path d="M17.34299,17.30802l-0.00702-1.81195c-0.00019-0.06646-0.01443-0.12099-0.03934-0.162 c0.12036-0.00518,0.20413,0.08657,0.20459,0.24885l0.00701,1.81195c0.00063,0.22304-0.15626,0.4948-0.35037,0.60686 c-0.13627,0.07867-0.25462,0.05765-0.31332-0.03897c0.04505-0.00194,0.0952-0.01736,0.14806-0.04789 C17.18673,17.80282,17.34362,17.53106,17.34299,17.30802z" class="st8"/></g><g><path d="M15.62766,16.26579c-0.1941,0.11206-0.351,0.38382-0.35037,0.60686l0.00701,1.81195 c0.00063,0.22304,0.15856,0.31303,0.35266,0.20097c0.1941-0.11207,0.351-0.38382,0.35037-0.60686l-0.00701-1.81195 C15.97969,16.24372,15.82176,16.15373,15.62766,16.26579z" class="st10"/><path d="M15.82208,18.19185l-0.00702-1.81195c-0.00019-0.06645-0.01443-0.12099-0.03934-0.16199 c0.12035-0.00518,0.20413,0.08657,0.20459,0.24885l0.00701,1.81195c0.00063,0.22304-0.15626,0.4948-0.35037,0.60686 c-0.13627,0.07867-0.25462,0.05765-0.31332-0.03897c0.04505-0.00194,0.0952-0.01736,0.14806-0.04789 C15.66582,18.68665,15.82271,18.41489,15.82208,18.19185z" class="st8"/></g><g><path d="M14.10675,17.14962c-0.1941,0.11206-0.351,0.38382-0.35037,0.60686l0.00701,1.81195 c0.00063,0.22304,0.15856,0.31303,0.35266,0.20097c0.1941-0.11207,0.351-0.38382,0.35037-0.60686l-0.00701-1.81195 C14.45878,17.12755,14.30085,17.03756,14.10675,17.14962z" class="st10"/><path d="M14.30117,19.07568l-0.00702-1.81195c-0.00019-0.06646-0.01443-0.12099-0.03934-0.162 c0.12035-0.00517,0.20413,0.08657,0.20459,0.24886l0.00701,1.81195c0.00063,0.22304-0.15626,0.4948-0.35037,0.60686 c-0.13627,0.07867-0.25462,0.05765-0.31332-0.03897c0.04505-0.00194,0.0952-0.01736,0.14807-0.04789 C14.14491,19.57048,14.3018,19.29872,14.30117,19.07568z" class="st8"/></g></g></g><g><g><g><path d="M9.59851,21.57336l-7.32727-4.23058c-0.15176-0.08762-0.34146,0.0219-0.34146,0.19713v1.49763 c0,0.16265,0.08678,0.31295,0.22764,0.39428l7.32727,4.23034c0.15176,0.08762,0.34145-0.02191,0.34145-0.19714v-1.49739 C9.82614,21.80498,9.73937,21.65468,9.59851,21.57336z" class="st4"/><pattern id="SVGID_9_" patternTransform="matrix(0.02845 0 0 0.02845 -7776.48633 -7655.68359)" xlink:href="#Unnamed_Pattern_12"/><path d="M2.65364,18.40829c0.13898,0.08024,0.25107,0.27438,0.25061,0.43408 c-0.00045,0.1597-0.11327,0.2242-0.25225,0.14396c-0.13898-0.08024-0.25125-0.2747-0.2508-0.4344 C2.40166,18.39224,2.51467,18.32805,2.65364,18.40829z" class="st23"/><pattern id="SVGID_10_" patternTransform="matrix(0.02845 0 0 0.02845 -7776.48633 -7655.68359)" xlink:href="#Unnamed_Pattern_12"/><path d="M3.4639,18.87609c0.1388,0.08014,0.25107,0.27439,0.25062,0.43408s-0.11346,0.22409-0.25225,0.14396 c-0.13898-0.08024-0.25125-0.2747-0.2508-0.43439C3.21192,18.86004,3.32492,18.79585,3.4639,18.87609z" class="st24"/><pattern id="SVGID_11_" patternTransform="matrix(0.02845 0 0 0.02845 -7776.48633 -7655.68359)" xlink:href="#Unnamed_Pattern_12"/><path d="M4.27416,19.3439c0.1388,0.08013,0.25107,0.27438,0.25062,0.43408 c-0.00045,0.1597-0.11346,0.22409-0.25225,0.14396c-0.13898-0.08024-0.25125-0.2747-0.2508-0.43439 C4.02218,19.32784,4.13518,19.26366,4.27416,19.3439z" class="st25"/><pattern id="SVGID_12_" patternTransform="matrix(0.02845 0 0 0.02845 -7775.02979 -7643.53125)" xlink:href="#Unnamed_Pattern_12"/><polygon points="9.093 22.008 7.214 20.923 7.214 21.635 9.093 22.72" class="st26"/></g></g><g><g><path d="M12.58584,21.94985c-0.1941,0.11206-0.351,0.38382-0.35037,0.60686l0.00701,1.81195 c0.00063,0.22304,0.15856,0.31303,0.35266,0.20097c0.1941-0.11207,0.351-0.38382,0.35037-0.60686l-0.00701-1.81195 C12.93786,21.92778,12.77994,21.83778,12.58584,21.94985z" class="st10"/><path d="M12.78026,23.87591l-0.00702-1.81195c-0.00019-0.06646-0.01443-0.12099-0.03934-0.162 c0.12035-0.00518,0.20413,0.08657,0.20459,0.24886l0.00701,1.81195c0.00063,0.22304-0.15626,0.4948-0.35037,0.60686 c-0.13627,0.07867-0.25462,0.05765-0.31332-0.03897c0.04505-0.00194,0.0952-0.01736,0.14806-0.04789 C12.62399,24.3707,12.78089,24.09895,12.78026,23.87591z" class="st8"/></g><g><path d="M18.66948,18.41453c-0.1941,0.11206-0.351,0.38382-0.35037,0.60686l0.00701,1.81195 c0.00063,0.22304,0.15856,0.31303,0.35266,0.20097c0.1941-0.11207,0.351-0.38382,0.35037-0.60686l-0.00701-1.81195 C19.02151,18.39246,18.86359,18.30247,18.66948,18.41453z" class="st10"/><path d="M18.8639,20.34059l-0.00702-1.81195c-0.00019-0.06646-0.01443-0.12099-0.03934-0.16199 c0.12035-0.00518,0.20413,0.08657,0.20459,0.24885l0.00701,1.81195c0.00063,0.22304-0.15627,0.4948-0.35037,0.60686 c-0.13627,0.07867-0.25462,0.05765-0.31332-0.03897c0.04505-0.00194,0.0952-0.01736,0.14807-0.04789 C18.70764,20.83539,18.86453,20.56363,18.8639,20.34059z" class="st8"/></g><g><path d="M17.14857,19.29836c-0.1941,0.11207-0.351,0.38382-0.35037,0.60686l0.00701,1.81195 c0.00063,0.22304,0.15856,0.31303,0.35266,0.20097c0.1941-0.11207,0.351-0.38382,0.35037-0.60686l-0.00701-1.81195 C17.5006,19.27629,17.34268,19.1863,17.14857,19.29836z" class="st10"/><path d="M17.34299,21.22442l-0.00702-1.81195c-0.00019-0.06646-0.01443-0.12099-0.03934-0.162 c0.12036-0.00517,0.20413,0.08657,0.20459,0.24886l0.00701,1.81195c0.00063,0.22304-0.15626,0.4948-0.35037,0.60686 c-0.13627,0.07867-0.25462,0.05765-0.31332-0.03897c0.04505-0.00194,0.0952-0.01736,0.14806-0.04789 C17.18673,21.71922,17.34362,21.44746,17.34299,21.22442z" class="st8"/></g><g><path d="M15.62766,20.18219c-0.1941,0.11207-0.351,0.38382-0.35037,0.60686L15.2843,22.601 c0.00063,0.22304,0.15856,0.31304,0.35266,0.20097s0.351-0.38382,0.35037-0.60686l-0.00701-1.81195 C15.97969,20.16012,15.82176,20.07012,15.62766,20.18219z" class="st10"/><path d="M15.82208,22.10825l-0.00702-1.81195c-0.00019-0.06646-0.01443-0.12099-0.03934-0.162 c0.12035-0.00518,0.20413,0.08657,0.20459,0.24886l0.00701,1.81195c0.00063,0.22304-0.15626,0.4948-0.35037,0.60686 c-0.13627,0.07868-0.25462,0.05765-0.31332-0.03897c0.04505-0.00194,0.0952-0.01736,0.14806-0.04789 C15.66582,22.60304,15.82271,22.33129,15.82208,22.10825z" class="st8"/></g><g><path d="M14.10675,21.06602c-0.1941,0.11207-0.351,0.38382-0.35037,0.60686l0.00701,1.81195 c0.00063,0.22304,0.15856,0.31304,0.35266,0.20097c0.1941-0.11207,0.351-0.38382,0.35037-0.60686l-0.00701-1.81195 C14.45878,21.04395,14.30085,20.95395,14.10675,21.06602z" class="st10"/><path d="M14.30117,22.99208l-0.00702-1.81195c-0.00019-0.06646-0.01443-0.12099-0.03934-0.162 c0.12035-0.00518,0.20413,0.08657,0.20459,0.24886l0.00701,1.81195c0.00063,0.22304-0.15626,0.4948-0.35037,0.60686 c-0.13627,0.07868-0.25462,0.05765-0.31332-0.03897c0.04505-0.00194,0.0952-0.01736,0.14807-0.04789 C14.14491,23.48687,14.3018,23.21512,14.30117,22.99208z" class="st8"/></g></g></g><g><g><g><path d="M9.59851,25.48975l-7.32727-4.23058c-0.15176-0.08762-0.34146,0.0219-0.34146,0.19714v1.49763 c0,0.16265,0.08678,0.31295,0.22764,0.39428l7.32727,4.23034c0.15176,0.08762,0.34145-0.0219,0.34145-0.19714v-1.49739 C9.82614,25.72138,9.73937,25.57108,9.59851,25.48975z" class="st4"/><pattern id="SVGID_13_" patternTransform="matrix(0.02845 0 0 0.02845 -7776.48633 -7651.76758)" xlink:href="#Unnamed_Pattern_12"/><path d="M2.65364,22.32469c0.13898,0.08024,0.25107,0.27438,0.25061,0.43408s-0.11327,0.2242-0.25225,0.14396 c-0.13898-0.08024-0.25125-0.2747-0.2508-0.4344C2.40166,22.30864,2.51467,22.24445,2.65364,22.32469z" class="st27"/><pattern id="SVGID_14_" patternTransform="matrix(0.02845 0 0 0.02845 -7776.48633 -7651.76758)" xlink:href="#Unnamed_Pattern_12"/><path d="M3.4639,22.79249c0.1388,0.08014,0.25107,0.27439,0.25062,0.43408 c-0.00045,0.1597-0.11346,0.2241-0.25225,0.14396c-0.13898-0.08024-0.25125-0.2747-0.2508-0.4344 S3.32492,22.71225,3.4639,22.79249z" class="st28"/><pattern id="SVGID_15_" patternTransform="matrix(0.02845 0 0 0.02845 -7776.48633 -7651.76758)" xlink:href="#Unnamed_Pattern_12"/><path d="M4.27416,23.26029c0.1388,0.08014,0.25107,0.27439,0.25062,0.43408 c-0.00045,0.1597-0.11346,0.22409-0.25225,0.14396c-0.13898-0.08024-0.25125-0.2747-0.2508-0.4344 C4.02218,23.24424,4.13518,23.18005,4.27416,23.26029z" class="st29"/><pattern id="SVGID_16_" patternTransform="matrix(0.02845 0 0 0.02845 -7775.02979 -7639.61475)" xlink:href="#Unnamed_Pattern_12"/><polygon points="9.093 25.924 7.214 24.839 7.214 25.551 9.093 26.636" class="st30"/></g></g><g><g><path d="M12.58584,25.86624c-0.1941,0.11207-0.351,0.38382-0.35037,0.60686l0.00701,1.81195 c0.00063,0.22304,0.15856,0.31303,0.35266,0.20097c0.1941-0.11207,0.351-0.38382,0.35037-0.60686l-0.00701-1.81195 C12.93786,25.84417,12.77994,25.75418,12.58584,25.86624z" class="st10"/><path d="M12.78026,27.7923l-0.00702-1.81195c-0.00019-0.06646-0.01443-0.12099-0.03934-0.162 c0.12035-0.00517,0.20413,0.08657,0.20459,0.24886l0.00701,1.81195c0.00063,0.22304-0.15626,0.4948-0.35037,0.60686 c-0.13627,0.07867-0.25462,0.05765-0.31332-0.03897c0.04505-0.00194,0.0952-0.01736,0.14806-0.04789 C12.62399,28.2871,12.78089,28.01534,12.78026,27.7923z" class="st8"/></g><g><path d="M18.66948,22.33093c-0.1941,0.11207-0.351,0.38382-0.35037,0.60686l0.00701,1.81195 c0.00063,0.22304,0.15856,0.31304,0.35266,0.20097s0.351-0.38382,0.35037-0.60686l-0.00701-1.81195 C19.02151,22.30886,18.86359,22.21886,18.66948,22.33093z" class="st10"/><path d="M18.8639,24.25699l-0.00702-1.81195c-0.00019-0.06646-0.01443-0.12099-0.03934-0.162 c0.12035-0.00518,0.20413,0.08657,0.20459,0.24886l0.00701,1.81195c0.00063,0.22304-0.15627,0.4948-0.35037,0.60686 c-0.13627,0.07868-0.25462,0.05765-0.31332-0.03897c0.04505-0.00194,0.0952-0.01736,0.14807-0.04789 C18.70764,24.75178,18.86453,24.48003,18.8639,24.25699z" class="st8"/></g><g><path d="M17.14857,23.21476c-0.1941,0.11207-0.351,0.38382-0.35037,0.60686l0.00701,1.81195 c0.00063,0.22304,0.15856,0.31304,0.35266,0.20097s0.351-0.38382,0.35037-0.60686l-0.00701-1.81195 C17.5006,23.19269,17.34268,23.10269,17.14857,23.21476z" class="st10"/><path d="M17.34299,25.14082l-0.00702-1.81195c-0.00019-0.06646-0.01443-0.12099-0.03934-0.162 c0.12036-0.00518,0.20413,0.08657,0.20459,0.24886l0.00701,1.81195c0.00063,0.22304-0.15626,0.4948-0.35037,0.60686 c-0.13627,0.07868-0.25462,0.05765-0.31332-0.03897c0.04505-0.00194,0.0952-0.01736,0.14806-0.04789 C17.18673,25.63561,17.34362,25.36386,17.34299,25.14082z" class="st8"/></g><g><path d="M15.62766,24.09859c-0.1941,0.11206-0.351,0.38382-0.35037,0.60686l0.00701,1.81195 c0.00063,0.22304,0.15856,0.31303,0.35266,0.20097c0.1941-0.11207,0.351-0.38382,0.35037-0.60686l-0.00701-1.81195 C15.97969,24.07652,15.82176,23.98652,15.62766,24.09859z" class="st10"/><path d="M15.82208,26.02464l-0.00702-1.81195c-0.00019-0.06646-0.01443-0.12099-0.03934-0.162 c0.12035-0.00518,0.20413,0.08657,0.20459,0.24885l0.00701,1.81195c0.00063,0.22304-0.15626,0.4948-0.35037,0.60686 c-0.13627,0.07867-0.25462,0.05765-0.31332-0.03897c0.04505-0.00194,0.0952-0.01736,0.14806-0.04788 C15.66582,26.51944,15.82271,26.24768,15.82208,26.02464z" class="st8"/></g><g><path d="M14.10675,24.98242c-0.1941,0.11206-0.351,0.38382-0.35037,0.60686l0.00701,1.81195 c0.00063,0.22304,0.15856,0.31303,0.35266,0.20097c0.1941-0.11207,0.351-0.38382,0.35037-0.60686l-0.00701-1.81195 C14.45878,24.96035,14.30085,24.87035,14.10675,24.98242z" class="st10"/><path d="M14.30117,26.90847l-0.00702-1.81195c-0.00019-0.06646-0.01443-0.12099-0.03934-0.16199 c0.12035-0.00518,0.20413,0.08657,0.20459,0.24885l0.00701,1.81195c0.00063,0.22304-0.15626,0.4948-0.35037,0.60686 c-0.13627,0.07867-0.25462,0.05765-0.31332-0.03897c0.04505-0.00194,0.0952-0.01736,0.14807-0.04789 C14.14491,27.40327,14.3018,27.13151,14.30117,26.90847z" class="st8"/></g></g></g></g></g></svg>