<svg xmlns="http://www.w3.org/2000/svg" xmlns:xlink="http://www.w3.org/1999/xlink" id="Layer_1" width="24" height="24" x="0" y="0" baseProfile="tiny" overflow="visible" version="1.1" viewBox="0 0 24 24" xml:space="preserve"><g><g transform="translate(0.999853, 3.000000)"><polygon id="Fill-1" fill="#5C85DE" fill-rule="evenodd" points="1 1.7 21 1.7 21 -.7 1 -.7"/><polygon id="Fill-2" fill="#3367D6" fill-rule="evenodd" points="18.5 18.8 21 18.8 21 11.4 18.5 11.4"/><polygon id="Fill-3" fill="#3367D6" fill-rule="evenodd" points="11 11.4 11 16.3 3.5 16.3 3.5 11.4 1 11.4 1 18.8 13.5 18.8 13.5 11.4"/><path id="Fill-4" fill="#5C85DE" fill-rule="evenodd" d="M1,2.9L-0.2,9v2.4H1h12.5h5H21h1.2V9L21,2.9H1z M3.1,5.3H19L19.7,9H2.3 L3.1,5.3z"/></g></g></svg>