<svg xmlns="http://www.w3.org/2000/svg" xmlns:xhtml="http://www.w3.org/1999/xhtml" xmlns:xlink="http://www.w3.org/1999/xlink" class="export-svg-preview" preserveAspectRatio="xMidYMid" viewBox="-1 -1 22 24"><g><g data-svg-item-container-id="jr3DHIP_j" style="opacity:1;mix-blend-mode:normal"><g><g data-svg-item-container-id="RIXzydH6B" style="opacity:1;mix-blend-mode:normal"><g><g mode="edit" style="opacity:1"><path fill="none" stroke="rgba(30,30,30,1.0)" stroke-width="2" d="M 0 2.24 L 3.71 0" transform="translate(-2.6204934240962245,-0.008391474456340031) rotate(0) matrix(1,0,0,1,4.347477538432997,10.344092347483585)" style="stroke-linejoin:round"/></g></g></g><g data-svg-item-container-id="fce9pntr_" style="opacity:1;mix-blend-mode:normal"><g><g mode="edit" style="opacity:1"><path fill="none" stroke="rgba(30,30,30,1.0)" stroke-width="2" d="M 0 2.24 L 3.71 0" transform="translate(-2.6204934240962245,-0.008391474456340031) rotate(0) matrix(1,0,0,1,14.760618412530619,3.809256599035039)" style="stroke-linejoin:round"/></g></g></g><g data-svg-item-container-id="zxT6BL0nL" style="opacity:1;mix-blend-mode:normal"><g><g mode="edit" style="opacity:1"><path fill="none" stroke="rgba(30,30,30,1.0)" stroke-width="2" d="M 0 0 L 5.13 1.64" transform="translate(-2.6204934240962245,-0.008391474456340031) rotate(0) matrix(1,0,0,1,2.6204934240962245,5.386046077588986)" style="stroke-linejoin:round"/></g></g></g><g data-svg-item-container-id="RLx3Hj10k" style="opacity:1;mix-blend-mode:normal"><g><g mode="edit" style="opacity:1"><path fill="none" stroke="rgba(30,30,30,1.0)" stroke-width="2" d="M 0.26 4.78 L 0 0" transform="translate(-2.6204934240962245,-0.008391474456340031) rotate(0) matrix(1,0,0,1,10.705975655277257,0.008391474456340031)" style="stroke-linejoin:round"/></g></g></g><g data-svg-item-container-id="cpq41KLXQ" style="opacity:1;mix-blend-mode:normal"><g><g mode="edit" style="opacity:1"><path fill="none" stroke="rgba(30,30,30,1.0)" stroke-width="2" d="M 0 1.23 L 2.75 15.33 L 12.46 13.9 L 12.21 6.12 L 4.46 6.22 L 2.95 0.71 A 1.63 1.63 0 0 0 0 1.23 Z" transform="translate(-2.6204934240962245,-0.008391474456340031) rotate(0) matrix(1,0,0,1,10.230905261624855,6.88251806162959)" style="stroke-linejoin:round"/></g></g></g></g></g></g></svg>