<svg xmlns="http://www.w3.org/2000/svg" xmlns:xhtml="http://www.w3.org/1999/xhtml" xmlns:xlink="http://www.w3.org/1999/xlink" class="export-svg-preview" preserveAspectRatio="xMidYMid" viewBox="-2 -2 37 26"><g><g data-item-id="C0JX5HGeO" data-svg-item-container-id="C0JX5HGeO" style="opacity:1;mix-blend-mode:normal"><g><g data-item-id="2zxrhSNpO" data-svg-item-container-id="2zxrhSNpO" style="opacity:1;mix-blend-mode:normal"><g><g mode="edit" style="opacity:1"><path fill="none" stroke="rgba(30,30,30,1.0)" stroke-width="2" d="M 7 0 L 0 0 L 0 7" transform="translate(-4,-3) rotate(0) matrix(6.123233995736766e-17,1,-1,6.123233995736766e-17,37,3)" style="stroke-linejoin:round"/></g></g></g><g data-item-id="f1XbUL5Ps" data-svg-item-container-id="f1XbUL5Ps" style="opacity:1;mix-blend-mode:normal"><g><g mode="edit" style="opacity:1"><path fill="none" stroke="rgba(30,30,30,1.0)" stroke-width="2" d="M 7 0 L 0 0 L 0 7" transform="translate(-4,-3) rotate(0) matrix(1,0,0,1,4,3)" style="stroke-linejoin:round"/></g></g></g><g data-item-id="dd3ao5TIAT" data-svg-item-container-id="dd3ao5TIAT" style="opacity:1;mix-blend-mode:normal"><g><g mode="edit" style="opacity:1"><path fill="none" stroke="rgba(30,30,30,1.0)" stroke-width="2" d="M 7 0 L 0 0 L 0 7" transform="translate(-4,-3) rotate(0) matrix(-1,-1.2246467991473532e-16,1.2246467991473532e-16,-1,37,25)" style="stroke-linejoin:round"/></g></g></g><g data-item-id="Zc0m_mhew" data-svg-item-container-id="Zc0m_mhew" style="opacity:1;mix-blend-mode:normal"><g><g mode="edit" style="opacity:1"><path fill="none" stroke="rgba(30,30,30,1.0)" stroke-width="2" d="M 7 0 L 0 0 L 0 7" transform="translate(-4,-3) rotate(0) matrix(6.123233995736766e-17,-1,1,6.123233995736766e-17,4,25)" style="stroke-linejoin:round"/></g></g></g></g></g></g></svg>