<svg xmlns="http://www.w3.org/2000/svg" width="24" height="24" viewBox="0 0 24 24"><defs><style>.cls-1{fill:#669df6}.cls-2{fill:#4285f4}.cls-3{fill:#aecbfa}</style></defs><title>Icon_24px_AdvancedSolutionsLab_Color</title><g data-name="Product Icons"><path d="M12,12.29,3.75,7.35,12,2.58l8.24,4.67ZM5.27,7.36l6.72,4,6.72-4.11L12,3.47Z" class="cls-1"/><path d="M12,21.44,3.72,15.89,12,11.3l8.15,4.64Zm-6.8-5.5L12,20.5,18.7,16,12,12.18Z" class="cls-1"/><rect width=".77" height="15.52" x="7.81" y="6.35" class="cls-2" transform="translate(-5.78 5.7) rotate(-28.8)"/><rect width="15.4" height=".77" x="7.99" y="13.84" class="cls-2" transform="translate(-4.27 21.3) rotate(-61.7)"/><rect width="14.76" height=".77" x=".87" y="9.1" class="cls-2" transform="translate(-4.09 11.89) rotate(-60)"/><rect width=".77" height="14.95" x="15.36" y="2.04" class="cls-2" transform="translate(-2.65 9.05) rotate(-29.69)"/><rect width=".77" height="17.94" x="11.64" y="2.96" class="cls-2"/><rect width=".77" height="8.66" x="4.06" y="7.43" class="cls-2"/><rect width=".77" height="8.66" x="19.03" y="7.34" class="cls-2"/><circle cx="12.03" cy="3.07" r="1.07" class="cls-3"/><circle cx="19.42" cy="7.34" r="1.07" class="cls-3"/><circle cx="4.58" cy="7.34" r="1.07" class="cls-3"/><circle cx="12.03" cy="11.93" r="1.68" class="cls-3"/><circle cx="19.42" cy="15.94" r="1.07" class="cls-3"/><circle cx="4.58" cy="15.94" r="1.07" class="cls-3"/><circle cx="12.03" cy="20.93" r="1.07" class="cls-3"/><path d="M12,12.29,3.75,7.35,12,2.58l8.24,4.67ZM5.27,7.36l6.72,4,6.72-4.11L12,3.47Z" class="cls-3"/><path d="M12,21.44,3.72,15.89,12,11.3l8.15,4.64Zm-6.8-5.5L12,20.5,18.7,16,12,12.18Z" class="cls-3"/><rect width=".77" height="15.52" x="7.81" y="6.35" class="cls-3" transform="translate(-5.78 5.7) rotate(-28.8)"/><rect width="15.4" height=".77" x="7.99" y="13.84" class="cls-3" transform="translate(-4.27 21.3) rotate(-61.7)"/><rect width="14.76" height=".77" x=".87" y="9.1" class="cls-3" transform="translate(-4.09 11.89) rotate(-60)"/><rect width=".77" height="14.95" x="15.36" y="2.04" class="cls-3" transform="translate(-2.65 9.05) rotate(-29.69)"/><rect width=".77" height="17.94" x="11.64" y="2.96" class="cls-3"/><rect width=".77" height="8.66" x="4.06" y="7.43" class="cls-3"/><rect width=".77" height="8.66" x="19.03" y="7.34" class="cls-3"/><circle cx="12.03" cy="3.07" r="1.07" class="cls-1"/><circle cx="19.42" cy="7.34" r="1.07" class="cls-1"/><circle cx="4.58" cy="7.34" r="1.07" class="cls-1"/><circle cx="12.03" cy="11.93" r="1.68" class="cls-1"/><circle cx="19.42" cy="15.94" r="1.07" class="cls-1"/><circle cx="4.58" cy="15.94" r="1.07" class="cls-1"/><circle cx="12.03" cy="20.93" r="1.07" class="cls-1"/></g></svg>