<svg xmlns="http://www.w3.org/2000/svg" xmlns:xlink="http://www.w3.org/1999/xlink" id="Layer_1" width="24" height="24" x="0" style="enable-background:new 0 0 24 24" y="0" version="1.1" viewBox="0 0 24 24" xml:space="preserve"><style type="text/css">.st0{fill:#febc00}.st1{fill:#ee3c2b}.st2{fill:#2baa4f}.st3{fill:#3982f8}</style><polygon points="6 15.8 12 5.3 18 15.8 23 20.8 23.2 21 23.2 21 12 1.6 .8 21 .8 21 1 20.8" class="st0"/><g><g><polygon points="12 9.7 1 20.8 5.6 18.7 12 12.3 18.4 18.7 23 20.8" class="st1"/></g></g><polygon points="6 20.6 1.8 22.4 22.2 22.4 18 20.6" class="st2"/><polygon points="23 20.8 12 15.8 1 20.8 0 22.4 1.8 22.4 12 17.8 22.2 22.4 24 22.4" class="st3"/></svg>