<svg width="600" height="1800"><g transform="matrix(1,0,0,1,20,20)"><path fill="none" stroke="#000" stroke-linejoin="round" stroke-width="12" d="M 100 160 L 50 80 L 100 0 L 200 0 L 250 80"/><circle cx="100" cy="160" r="20" fill="#000" stroke="none" stroke-width="0"/><circle cx="250" cy="80" r="20" fill="#000" stroke="none" stroke-width="0"/><path fill="none" stroke="#000" stroke-linejoin="round" stroke-width="12" d="M 150 80 L 200 160 L 150 240 L 50 240 L 0 160"/><circle cx="0" cy="160" r="20" fill="#000" stroke="none" stroke-width="0"/><circle cx="150" cy="80" r="20" fill="#000" stroke="none" stroke-width="0"/></g><g transform="translate(320,20)"><path fill="none" stroke="#000" stroke-linejoin="round" stroke-width="12" d="M 100 160 L 50 80 L 100 0 L 200 0 L 250 80"/><circle cx="100" cy="160" r="20" fill="#000" stroke="none" stroke-width="0"/><circle cx="250" cy="80" r="20" fill="#000" stroke="none" stroke-width="0"/><path fill="none" stroke="gray" stroke-linejoin="round" stroke-width="12" d="M 150 80 L 200 160 L 150 240 L 50 240 L 0 160"/><circle cx="0" cy="160" r="20" fill="gray" stroke="none" stroke-width="0"/><circle cx="150" cy="80" r="20" fill="gray" stroke="none" stroke-width="0"/></g><g transform="translate(320,320)"><path fill="none" stroke="#000" stroke-width="24" d="M 100 160 L 50 80 L 100 0 L 200 0 L 250 80"/><circle cx="100" cy="160" r="24" fill="#000" stroke="none" stroke-width="0"/><circle cx="250" cy="80" r="24" fill="#000" stroke="none" stroke-width="0"/><path fill="none" stroke="gray" stroke-width="24" d="M 150 80 L 200 160 L 150 240 L 50 240 L 0 160"/><circle cx="0" cy="160" r="24" fill="gray" stroke="none" stroke-width="0"/><circle cx="150" cy="80" r="24" fill="gray" stroke="none" stroke-width="0"/></g><g transform="matrix(1,0,0,1,30,320)"><path fill="none" stroke="#054789" stroke-width="24" d="M 100 160 L 50 80 L 100 0 L 200 0 L 250 80"/><circle cx="100" cy="160" r="24" fill="#054789" stroke="none" stroke-width="0"/><circle cx="250" cy="80" r="24" fill="#054789" stroke="none" stroke-width="0"/><path fill="none" stroke="#6bafe0" stroke-width="24" d="M 150 80 L 200 160 L 150 240 L 50 240 L 0 160"/><circle cx="0" cy="160" r="24" fill="#6bafe0" stroke="none" stroke-width="0"/><circle cx="150" cy="80" r="24" fill="#6bafe0" stroke="none" stroke-width="0"/></g><g transform="matrix(1,0,0,1,20,640)"><path fill="none" stroke="#000" stroke-width="12" d="M 100 160 L 50 80 L 100 0 L 200 0 L 250 80"/><circle cx="100" cy="160" r="20" fill="#000" stroke="none" stroke-width="0"/><circle cx="250" cy="80" r="20" fill="#000" stroke="none" stroke-width="0"/><path fill="none" stroke="#000" stroke-dasharray="1 32" stroke-linecap="round" stroke-width="12" d="M 150 80 L 200 160 L 150 240 L 50 240 L 0 160"/><circle cx="0" cy="160" r="20" fill="#000" stroke="none" stroke-width="0"/><circle cx="150" cy="80" r="20" fill="#000" stroke="none" stroke-width="0"/></g></svg>