<svg xmlns="http://www.w3.org/2000/svg" xmlns:xlink="http://www.w3.org/1999/xlink" id="Layer_1" version="1.1" viewBox="0 0 50 50" xml:space="preserve" style="enable-background:new 0 0 50 50"><style type="text/css">.st0{fill:#b7c5fd}.st3{fill:#3955d1}.st4{fill:#4466fb}.st7{fill:#6bb5fb}.st8{enable-background:new}.st9{fill:#1b2a4f}.st11{fill:#384e85}.st12{fill:#2e4277}.st13{fill:#d9ddf6}.st17{fill:#8ca1fd}</style><g><g><g><g><g><g><g class="st8"><g><path d="M49,27.3898l-0.0059,3.58433c0,0.17098-0.11791,0.34193-0.34193,0.47751L28.76158,43.00636 c-0.45395,0.26526-1.20262,0.26526-1.66837,0l-14.68506-8.48328c-0.23582-0.12971-0.34784-0.30656-0.34784-0.48341 l0.0059-3.58432c0,0.17685,0.11791,0.35374,0.34784,0.48932l8.64833,4.99326l0.0059-1.99846 c0-0.12381,0.08254-0.24763,0.24169-0.33603l1.29696-0.75461c0.32423-0.18865,0.84892-0.18865,1.17315,0 c0.15918,0.09435,0.24172,0.21812,0.24172,0.34193l-0.0059,2.39938c0,0.12381-0.08254,0.24169-0.24173,0.33603 l-1.29693,0.75457c-0.0236,0.0118-0.04717,0.0236-0.07078,0.02947l4.69264,2.71184 c0.46571,0.26529,1.21442,0.26529,1.67427,0l19.88468-11.55472C48.88209,27.73764,49,27.56079,49,27.3898z" class="st9"/></g><g><path d="M48.65807,27.86732L28.77338,39.42204c-0.45985,0.26529-1.20856,0.26529-1.67427,0l-14.68506-8.47738 c-0.45985-0.27119-0.45985-0.70154-0.0059-0.96683l19.88468-11.55468c0.45985-0.27119,1.20265-0.27119,1.66837,0 l14.68506,8.47738C49.11201,27.16582,49.11791,27.60206,48.65807,27.86732z" class="st12"/></g><g><path d="M48.65807,27.45469L28.77339,39.00941c-0.45985,0.2653-1.20856,0.2653-1.67427,0l-14.68506-8.47738 c-0.13813-0.08146-0.23097-0.17775-0.28591-0.27904c-0.12777,0.23453-0.03623,0.50166,0.28591,0.69164l14.68506,8.47738 c0.46571,0.26529,1.21442,0.26529,1.67427,0L48.65807,27.8673c0.31916-0.18412,0.40969-0.44981,0.28173-0.68423 C48.88529,27.28245,48.79397,27.37629,48.65807,27.45469z" class="st11"/></g></g></g><g><path d="M23.45699,32.82584c0.32369,0.18689,0.32915,0.48895,0.00382,0.67801l-1.2976,0.75408 c-0.32159,0.18689-0.84683,0.18689-1.17052,0.00001c-0.3237-0.18689-0.32542-0.49113-0.00383-0.67802l1.2976-0.75408 C22.61179,32.63678,23.13329,32.63895,23.45699,32.82584z" class="st7"/></g></g><g><g><g><g><polygon points="18.824 22.742 17.361 21.891 16.182 22.572 17.645 23.422" class="st13"/></g><g><g><polygon points="17.606 22.372 17.349 22.223 17.143 22.342 17.399 22.491" class="st11"/></g><g><polygon points="18.325 22.79 18.069 22.641 17.863 22.761 18.119 22.909" class="st11"/></g></g><g><polygon points="17.645 23.422 17.649 24.068 18.828 23.388 18.824 22.742" class="st17"/></g></g><g><g><g><g><polygon points="16.249 24.343 14.319 23.221 14.324 24.073 16.255 25.195" class="st9"/></g><g><polygon points="18.045 23.306 16.114 22.184 14.319 23.221 16.249 24.343" class="st11"/></g><g><polygon points="16.249 24.343 16.255 25.195 18.051 24.159 18.045 23.306" class="st12"/></g></g></g></g></g><g><g><g><polygon points="20.95 37.182 18.718 35.885 18.724 36.87 20.957 38.168" class="st12"/></g><g><g><g><polygon points="20.593 37.203 19.155 36.367 18.11 36.971 19.548 37.806" class="st13"/></g><g><polygon points="19.548 37.806 19.552 38.441 20.597 37.838 20.593 37.203" class="st17"/></g></g><g><g><polygon points="18.57 38.488 16.673 37.386 16.678 38.224 18.575 39.326" class="st12"/></g><g><polygon points="20.334 37.47 18.437 36.367 16.673 37.386 18.57 38.488" class="st11"/></g><g><polygon points="18.57 38.488 18.575 39.326 20.34 38.307 20.334 37.47" class="st9"/></g></g></g></g></g><g><g class="st8"><g><path d="M15.75681,39.82056l2.22956-1.29496l-0.00246,0.40358l-2.2271,1.29496 c-0.62642,0.36396-1.6465,0.36396-2.27538,0L1.47538,33.2935C1.15846,33.11029,1,32.87011,1,32.62996l0.00248-0.40606 c0,0.24016,0.15598,0.48281,0.4729,0.66355l12.00605,6.93311C14.11031,40.18204,15.13287,40.18204,15.75681,39.82056z" class="st17"/><path d="M15.70649,24.31666l-0.00248,0.40358l-13.3571,7.76115 c-0.07181,0.0421-0.10894,0.09657-0.10894,0.15104l0.00248-0.40358c0-0.05448,0.03465-0.10894,0.10646-0.15104 L15.70649,24.31666z" class="st17"/></g><g><path d="M15.70536,24.31543L2.34751,32.07817c-0.14448,0.08396-0.14372,0.22087,0.00013,0.30392 l12.00548,6.93137c0.14543,0.08397,0.38178,0.08396,0.52627,0l2.22873-1.2952l0.87734,0.50653l-2.22873,1.2952 c-0.62507,0.36325-1.64609,0.36325-2.27525,0.00001L1.47601,32.88863c-0.62916-0.36325-0.63249-0.95466-0.00742-1.31791 l13.35785-7.76274L15.70536,24.31543z" class="st0"/></g></g></g></g></g></g></g><g><g><path d="M22.50218,15.60048c-0.01396,5.1593,3.61149,11.44108,8.10147,14.02767 c1.12248,0.64839,2.18922,1.00397,3.16532,1.09461c0.86452,0.08366,1.6593-0.05579,2.34258-0.38345 c0.98303-0.57171,1.96611-1.14342,2.94914-1.71513c-0.68324,0.33468-1.47806,0.46716-2.34956,0.38349 c-0.96912-0.0837-2.03582-0.43924-3.15834-1.08767c-4.48993-2.59356-8.12236-8.87535-8.10146-14.02767 c0-1.2898,0.23009-2.38441,0.64843-3.26987c0.40434-0.86452,0.99699-1.51989,1.71509-1.9382l-2.94217,1.70815 c-0.72512,0.42528-1.31772,1.08065-1.72211,1.94517C22.73226,13.21607,22.50218,14.31766,22.50218,15.60048z" class="st3"/><path d="M31.77841,10.38856c-4.48701-2.59058-8.14009-0.5139-8.15471,4.64199 c-0.01462,5.15591,3.61477,11.43712,8.10178,14.0277c4.48699,2.59057,8.13562,0.51132,8.15024-4.64459 C39.89034,19.25776,36.2654,12.97913,31.77841,10.38856z" class="st4"/><path d="M23.92445,8.76095c1.72211-0.99699,4.10652-0.85754,6.73498,0.66235 c5.229,3.01889,9.44706,10.33252,9.42616,16.3354c-0.00698,2.98404-1.05976,5.08258-2.75395,6.06565l2.37093-1.32391 c1.70117-0.99001,2.75395-3.08859,2.76093-6.07263c0.02089-6.00288-4.20414-13.31651-9.42616-16.3354 c-2.62842-1.51989-5.01287-1.65934-6.73494-0.65537L23.92445,8.76095z" class="st13"/><g><g><path d="M31.2867,20.41554l0.01185,0.37341l-0.57317-0.33092l0.0139-0.35774 c0.0795,0.09991,0.17224,0.18447,0.27146,0.24175C31.11183,20.4004,31.20601,20.42349,31.2867,20.41554z" class="st13"/></g><g><path d="M31.01344,19.38916c0.1626,0.09388,0.28819,0.3161,0.28767,0.49827 c-0.00051,0.18218-0.12695,0.25889-0.28955,0.16502c-0.15854-0.09153-0.28413-0.31376-0.28362-0.49594 C30.72846,19.37434,30.8549,19.29763,31.01344,19.38916z" class="st7"/></g><g><path d="M31.25126,19.29917c-0.07133-0.08135-0.15166-0.15035-0.237-0.19962 c-0.08358-0.04826-0.16269-0.07169-0.23326-0.07282l0.1069-2.7512l0.27235,0.15724L31.25126,19.29917z" class="st13"/></g><g><path d="M30.56943,19.81891c0.03663,0.08303,0.0827,0.16324,0.13587,0.23663l-0.6517,0.38425l-0.14585-0.25732 L30.56943,19.81891z" class="st11"/></g><g><path d="M30.51507,19.20285c-0.02497,0.05709-0.03893,0.12691-0.03916,0.20814 c-0.00024,0.08342,0.01361,0.17081,0.03876,0.25781l-0.35653-0.19797l0.00136-0.48112L30.51507,19.20285z" class="st13"/></g><g class="st8"><g><path d="M31.52252,19.80675c0.01999,0.07684,0.03083,0.15329,0.03062,0.22617 c-0.00021,0.07497-0.01174,0.14006-0.03266,0.19436c-0.04312,0.11196-0.12643,0.17768-0.23377,0.18826 c-0.08069,0.00795-0.17488-0.01514-0.27596-0.0735c-0.09922-0.05729-0.19195-0.14184-0.27146-0.24175 c-0.01163-0.01462-0.02295-0.02952-0.03398-0.04475c-0.05317-0.07339-0.09924-0.15359-0.13587-0.23663 c-0.02177-0.04934-0.04016-0.09964-0.05476-0.15011c-0.02515-0.087-0.039-0.17438-0.03876-0.25781 c0.00023-0.08123,0.0142-0.15105,0.03916-0.20814c0.05029-0.11503,0.14561-0.17804,0.26593-0.17612 c0.07057,0.00113,0.14968,0.02456,0.23326,0.07282c0.08534,0.04927,0.16567,0.11827,0.237,0.19962 c0.02806,0.03201,0.05466,0.06597,0.07968,0.10136c0.0474,0.06704,0.08885,0.13926,0.12273,0.21375 C31.48241,19.67749,31.50575,19.74224,31.52252,19.80675z M31.01156,20.05244 c0.16259,0.09387,0.28903,0.01716,0.28955-0.16502c0.00052-0.18216-0.12508-0.40439-0.28767-0.49826 c-0.15854-0.09153-0.28498-0.01482-0.2855,0.16735C30.72742,19.73867,30.85302,19.9609,31.01156,20.05244" class="st4"/></g><g><path d="M31.52252,19.80675l4.35614,2.61123l-0.00065,0.22888l-4.35753-2.41958 c0.02093-0.05429,0.03245-0.11939,0.03266-0.19436C31.55335,19.96005,31.5425,19.88359,31.52252,19.80675z" class="st13"/></g><g><path d="M34.47109,17.67524l0.06888,0.1193l-3.0863,1.81973c-0.03389-0.07449-0.07534-0.14671-0.12273-0.21375 L34.47109,17.67524z" class="st11"/></g></g><g><polygon points="31.88 11.741 31.876 13.067 31.661 12.943 31.665 11.616" class="st13"/></g><g><polygon points="31.838 26.506 31.835 27.828 31.619 27.703 31.623 26.381" class="st13"/></g><g><polygon points="28.361 10.729 28.935 12.206 28.748 12.225 28.174 10.742" class="st13"/></g><g><polygon points="34.752 27.224 35.326 28.702 35.134 28.717 34.564 27.242" class="st13"/></g><g><polygon points="25.751 12.123 26.749 13.363 26.639 13.515 25.645 12.277" class="st13"/></g><g><polygon points="36.86 25.934 37.854 27.167 37.748 27.321 36.75 26.085" class="st13"/></g><g><polygon points="25.903 16.224 25.902 16.472 24.747 15.805 24.748 15.558" class="st13"/></g><g><polygon points="38.752 23.643 38.751 23.891 37.597 23.224 37.598 22.977" class="st13"/></g><g><polygon points="26.621 20.022 26.73 20.3 25.728 20.381 25.623 20.105" class="st13"/></g><g><polygon points="37.772 19.063 37.877 19.339 36.879 19.427 36.77 19.149" class="st13"/></g><g><polygon points="28.715 23.739 28.902 23.973 28.321 24.784 28.135 24.55" class="st13"/></g><g><polygon points="35.174 14.662 35.365 14.894 34.784 15.71 34.598 15.476" class="st13"/></g></g><path d="M40.08748,25.75792c-0.01702,6.005-4.2641,8.42524-9.49001,5.40807 c-5.22594-3.01719-9.44986-10.32817-9.43284-16.33318c0.01702-6.00498,4.26854-8.4278,9.49448-5.4106 C35.88502,12.43939,40.1045,19.75294,40.08748,25.75792z M30.60182,29.63151c4.48699,2.59057,8.13561,0.51131,8.15022-4.6446 c0.01462-5.1559-3.61031-11.43453-8.0973-14.02509c-4.48702-2.59058-8.1401-0.51391-8.15472,4.64199 C22.48542,20.75972,26.1148,27.04093,30.60182,29.63151" class="st7"/></g></g></g></svg>