<svg xmlns="http://www.w3.org/2000/svg" xmlns:xlink="http://www.w3.org/1999/xlink" id="Layer_1" version="1.1" viewBox="0 0 50 50" xml:space="preserve" style="enable-background:new 0 0 50 50"><style type="text/css">.st0{fill:#b7c5fd}.st1{fill:#9aadfd}.st2{fill:#fff}.st3{fill:#3955d1}.st4{fill:#4466fb}.st5{fill:#aabafd}.st7{fill:#6bb5fb}.st8{enable-background:new}.st9{fill:#1b2a4f}.st11{fill:#384e85}.st12{fill:#2e4277}.st13{fill:#d9ddf6}</style><g><g><path d="M37.39108,36.81255v0.56578c-0.00141,0.38881-0.25547,0.77482-0.765,1.07099 c-1.02326,0.59515-2.69081,0.59515-3.7211,0l-4.2573-2.4578c-0.51935-0.30039-0.77762-0.69201-0.77622-1.08503V34.3393 c0,0.39302,0.25827,0.78605,0.77622,1.08502l4.2587,2.45781c1.03029,0.59515,2.69643,0.59515,3.7211,0 C37.13561,37.58736,37.39108,37.19995,37.39108,36.81255z" class="st9"/><g><path d="M36.6151,35.72717c1.03061,0.59502,1.03605,1.56053,0.01213,2.15556 c-1.02391,0.59504-2.69077,0.59504-3.72139,0.00002l-4.25778-2.45823c-1.03062-0.59503-1.03515-1.56001-0.01124-2.15505 c1.02392-0.59504,2.68987-0.59556,3.72049-0.00053L36.6151,35.72717z" class="st11"/></g><g><g><polygon points="34.947 32.528 35.797 32.034 35.788 36.315 34.937 36.809" class="st9"/></g><g><polygon points="34.947 32.528 34.937 36.809 30.614 34.313 30.624 30.032" class="st12"/></g></g><g><g><g><g><g><g><path d="M42.952,37.18893l-0.00315,1.57542c-0.0014,0.49556-0.34965,0.69402-0.78092,0.44503l-17.14209-9.89699 c-0.43127-0.24899-0.77725-0.84827-0.77585-1.34383l0.00315-1.57543L42.952,37.18893z" class="st7"/></g><g><path d="M42.2089,24.88754c0.43127,0.24899,0.77724,0.85229,0.77585,1.34383L42.952,37.18893L24.25314,26.39313 l0.03275-10.95756c0.00139-0.49153,0.34965-0.69402,0.78092-0.44503L42.2089,24.88754z" class="st9"/><g><polygon points="42.449 25.642 42.422 36.883 24.788 26.701 24.821 15.467" class="st2"/></g></g></g></g></g></g></g></g><g><g><g class="st8"><g><path d="M40.96437,45.16728c0,0.27763-0.19369,0.61337-0.43582,0.75542l-0.52945,0.30346L22.21097,35.88904 l0.52943-0.30347c0.24213-0.13884,0.43907-0.47781,0.43584-0.75544c0-0.13558-0.04843-0.23243-0.12591-0.27763 l17.78814,10.33712C40.91594,44.93483,40.96437,45.03167,40.96437,45.16728z" class="st7"/></g><g><polygon points="40 46.475 22.213 36.138 22.212 35.89 39.999 46.227" class="st4"/></g><g><polygon points="35.065 48.072 17.278 37.736 17.277 37.489 35.064 47.826" class="st4"/></g><g><path d="M40.99021,44.62813c-0.11945-0.07101-0.2841-0.06134-0.46488,0.0452l-5.46143,3.1512L17.27574,37.48738 l5.46143-3.1512c0.18079-0.10652,0.34543-0.11622,0.46488-0.04519L40.99021,44.62813z" class="st7"/></g><g><path d="M40.52531,44.67188c0.35964-0.20764,0.65256-0.04071,0.65373,0.3718 c0.00117,0.41252-0.28985,0.91732-0.64949,1.12496l-0.5298,0.30588l-0.0007-0.24736l0.5298-0.30588 c0.24105-0.13917,0.43635-0.4767,0.43557-0.75368c-0.00079-0.27625-0.19735-0.38827-0.43841-0.2491l-5.46124,3.15374 l-0.0007-0.24662L40.52531,44.67188z" class="st3"/></g></g></g><g><g><polygon points="23.567 35.331 23.11 35.598 22.332 35.149 22.79 34.883" class="st12"/></g><g><polygon points="24.615 35.936 24.157 36.202 23.379 35.753 23.837 35.487" class="st12"/></g><g><polygon points="25.662 36.541 25.204 36.807 24.427 36.358 24.885 36.092" class="st12"/></g><g><polygon points="26.709 37.145 26.251 37.412 25.47 36.96 25.928 36.694" class="st12"/></g><g><polygon points="23.294 35.943 22.504 36.402 21.336 35.728 22.125 35.269" class="st12"/></g><g><polygon points="24.341 36.548 23.552 37.007 22.77 36.555 23.559 36.097" class="st12"/></g><g><polygon points="25.388 37.153 24.599 37.611 23.817 37.16 24.606 36.701" class="st12"/></g><g><polygon points="26.435 37.757 25.646 38.216 24.864 37.765 25.654 37.306" class="st12"/></g><g><polygon points="27.757 37.75 27.299 38.016 26.517 37.565 26.975 37.299" class="st12"/></g><g><polygon points="27.483 38.362 26.693 38.821 25.912 38.369 26.701 37.911" class="st12"/></g><g><polygon points="22.954 36.901 22.167 37.359 20.342 36.305 21.129 35.848" class="st12"/></g><g><polygon points="24.001 37.506 23.214 37.964 22.432 37.512 23.219 37.055" class="st12"/></g><g><polygon points="25.048 38.111 24.261 38.568 23.479 38.117 24.267 37.659" class="st12"/></g><g><polygon points="26.096 38.715 25.308 39.173 24.527 38.721 25.314 38.264" class="st12"/></g><g><polygon points="22.225 37.632 21.436 38.091 19.346 36.884 20.135 36.425" class="st12"/></g><g><polygon points="23.273 38.237 22.483 38.696 21.706 38.247 22.495 37.788" class="st12"/></g><g><polygon points="24.269 38.812 23.48 39.271 22.698 38.82 23.487 38.361" class="st12"/></g><g><polygon points="25.261 39.385 24.472 39.844 23.692 39.394 24.481 38.935" class="st12"/></g><g><polygon points="28.804 38.355 28.346 38.621 27.564 38.17 28.022 37.903" class="st12"/></g><g><polygon points="28.53 38.967 27.741 39.425 26.959 38.974 27.748 38.515" class="st12"/></g><g><polygon points="27.143 39.32 26.356 39.778 25.574 39.326 26.361 38.869" class="st12"/></g><g><polygon points="26.255 39.959 25.466 40.418 24.684 39.966 25.473 39.508" class="st12"/></g><g><polygon points="29.851 38.959 29.393 39.226 28.612 38.774 29.07 38.508" class="st12"/></g><g><polygon points="30.899 39.564 30.441 39.83 29.659 39.379 30.117 39.113" class="st12"/></g><g><polygon points="31.946 40.169 31.488 40.435 30.706 39.984 31.164 39.717" class="st12"/></g><g><polygon points="32.993 40.773 32.535 41.04 31.754 40.588 32.212 40.322" class="st12"/></g><g><polygon points="34.041 41.378 33.583 41.644 32.801 41.193 33.259 40.927" class="st12"/></g><g><polygon points="29.577 39.571 28.788 40.03 28.006 39.579 28.796 39.12" class="st12"/></g><g><polygon points="30.625 40.176 29.835 40.635 29.054 40.183 29.843 39.725" class="st12"/></g><g><polygon points="33.376 41.764 32.586 42.223 30.101 40.788 30.89 40.329" class="st12"/></g><g><polygon points="28.19 39.925 27.403 40.382 26.621 39.931 27.409 39.473" class="st12"/></g><g><polygon points="29.238 40.529 28.45 40.987 27.669 40.535 28.456 40.078" class="st12"/></g><g><polygon points="30.285 41.134 29.498 41.592 28.716 41.14 29.503 40.683" class="st12"/></g><g><polygon points="32.38 42.343 31.592 42.801 29.763 41.745 30.55 41.287" class="st12"/></g><g><polygon points="30.338 42.316 29.549 42.775 28.767 42.324 29.556 41.865" class="st12"/></g><g><polygon points="36.341 42.706 35.883 42.973 35.102 42.521 35.559 42.255" class="st12"/></g><g><polygon points="35.676 43.093 34.887 43.551 34.105 43.1 34.895 42.641" class="st12"/></g><g><polygon points="34.68 43.672 33.893 44.129 33.111 43.678 33.898 43.22" class="st12"/></g><g><polygon points="33.686 44.249 32.897 44.708 32.115 44.257 32.904 43.798" class="st12"/></g><g><polygon points="37.389 43.311 36.931 43.577 36.149 43.126 36.607 42.86" class="st12"/></g><g><polygon points="36.724 43.697 35.934 44.156 35.153 43.705 35.942 43.246" class="st12"/></g><g><polygon points="35.728 44.276 34.94 44.734 34.159 44.282 34.946 43.825" class="st12"/></g><g><polygon points="34.733 44.854 33.944 45.313 33.162 44.861 33.952 44.403" class="st12"/></g><g><polygon points="33.737 45.433 32.948 45.892 31.119 44.836 31.908 44.377" class="st12"/></g><g><polygon points="38.432 43.913 37.974 44.179 37.196 43.73 37.654 43.464" class="st12"/></g><g><polygon points="39.479 44.518 39.021 44.784 38.243 44.335 38.701 44.069" class="st12"/></g><g><polygon points="27.249 40.533 26.46 40.992 25.678 40.54 26.468 40.082" class="st12"/></g><g><polygon points="28.244 41.107 27.454 41.566 26.672 41.114 27.462 40.656" class="st12"/></g><g><polygon points="19.916 37.453 19.127 37.912 18.345 37.461 19.134 37.002" class="st12"/></g><g><polygon points="20.964 38.058 20.174 38.517 19.392 38.065 20.182 37.607" class="st12"/></g><g><polygon points="22.011 38.663 21.221 39.121 20.44 38.67 21.229 38.211" class="st12"/></g><g><polygon points="26.245 41.107 25.455 41.566 21.487 39.275 22.276 38.816" class="st12"/></g><g><polygon points="27.247 41.686 26.458 42.145 25.676 41.693 26.466 41.235" class="st12"/></g><g><polygon points="28.295 42.291 27.505 42.749 26.724 42.298 27.513 41.839" class="st12"/></g><g><polygon points="29.342 42.895 28.553 43.354 27.771 42.903 28.56 42.444" class="st12"/></g><g><polygon points="30.389 43.5 29.6 43.959 28.818 43.507 29.608 43.049" class="st12"/></g><g><polygon points="37.767 44.3 36.977 44.758 36.2 44.309 36.989 43.851" class="st12"/></g><g><polygon points="36.771 44.879 35.983 45.336 35.206 44.887 35.993 44.43" class="st12"/></g><g><polygon points="35.777 45.456 34.987 45.915 34.21 45.466 34.999 45.007" class="st12"/></g><g><polygon points="34.78 46.035 33.991 46.494 33.214 46.045 34.003 45.586" class="st12"/></g><g><polygon points="38.814 44.904 38.025 45.363 37.247 44.914 38.037 44.455" class="st12"/></g><g><polygon points="37.818 45.483 37.031 45.941 36.253 45.492 37.04 45.034" class="st12"/></g><g><polygon points="36.824 46.061 35.038 47.099 34.261 46.65 36.046 45.612" class="st12"/></g></g></g><g><path d="M43.7248,25.80019c0-0.49068-0.3397-1.09459-0.76997-1.34372l-17.14368-9.89669 c-0.21893-0.12831-0.41519-0.13585-0.55863-0.06041l-0.73976,0.43786c0.14334-0.08303,0.33206-0.07544,0.55858,0.05287 l17.13609,9.89664c0.43032,0.24913,0.77756,0.85305,0.77756,1.34377L42.952,37.1889l0.73977-0.42709L43.7248,25.80019z" class="st11"/><path d="M42.952,37.1889l-0.00471,1.57282c0,0.24913-0.08303,0.42273-0.22647,0.50581l0.7473-0.43785 c0.1359-0.07549,0.21893-0.24913,0.21893-0.49822l0.00471-1.56964L42.952,37.1889z" class="st3"/></g><g><path d="M32.77983,31.97394c0.28275,0.16325,0.51377,0.55804,0.51286,0.88293 c-0.00092,0.3249-0.23344,0.4574-0.51619,0.29415c-0.28274-0.16323-0.50911-0.56068-0.50819-0.88557 C32.26923,31.94055,32.4971,31.8107,32.77983,31.97394z" class="st4"/></g><g><g><g><g><g class="st8"><g><polygon points="20.089 30.603 20.086 31.779 16.044 34.128 16.046 32.953" class="st5"/></g><g><polygon points="16.046 32.953 16.044 34.128 11.971 31.777 11.974 30.601" class="st0"/></g><g><polygon points="20.089 30.603 16.046 32.953 11.974 30.601 16.016 28.252" class="st13"/></g></g></g><g><polygon points="15.758 19.697 15.818 19.771 16.176 19.574 14.725 17.799 15.69 17.677 15.727 17.656 15.788 17.73 16.144 17.533 14.689 15.75 15.697 15.622 15.734 15.602 15.794 15.676 16.151 15.479 14.695 13.696 15.702 13.568 15.739 13.548 15.8 13.622 16.157 13.425 14.701 11.642 15.709 11.514 15.746 11.493 15.806 11.568 16.163 11.371 14.707 9.587 15.715 9.46 15.752 9.439 15.812 9.513 16.169 9.316 14.714 7.533 15.721 7.406 15.758 7.385 15.818 7.459 16.176 7.262 14.621 5.359 14.264 5.555 15.658 7.262 14.552 7.402 14.196 7.599 14.449 7.567 14.293 7.653 15.652 9.316 14.546 9.456 14.189 9.653 14.443 9.621 14.287 9.707 15.645 11.371 14.54 11.511 14.183 11.707 14.437 11.675 14.281 11.761 15.639 13.425 14.534 13.565 14.177 13.762 14.431 13.729 14.275 13.815 15.633 15.479 14.528 15.619 14.171 15.816 14.425 15.784 14.269 15.869 15.627 17.533 14.557 17.669 14.201 17.865 14.287 17.854 14.264 17.867 15.658 19.574 14.552 19.714 14.196 19.911 14.449 19.879 14.293 19.965 15.652 21.628 14.546 21.768 14.189 21.965 14.443 21.933 14.287 22.019 15.645 23.683 14.54 23.823 14.183 24.019 14.437 23.987 14.281 24.073 15.639 25.737 14.534 25.877 14.177 26.074 14.431 26.041 14.275 26.127 15.633 27.791 14.528 27.931 14.171 28.128 14.425 28.096 14.269 28.181 15.627 29.845 14.557 29.981 14.201 30.177 15.69 29.989 15.727 29.968 15.788 30.042 16.144 29.845 14.689 28.062 15.697 27.934 15.734 27.914 15.794 27.988 16.151 27.791 14.695 26.008 15.702 25.88 15.739 25.86 15.8 25.934 16.157 25.737 14.701 23.954 15.709 23.826 15.746 23.805 15.806 23.88 16.163 23.683 14.707 21.899 15.715 21.772 15.752 21.751 15.812 21.825 16.169 21.628 14.714 19.845 15.721 19.718" class="st11"/><polygon points="17.891 28.128 17.636 28.096 17.793 28.181 16.434 29.845 17.504 29.981 17.861 30.177 16.371 29.988 16.334 29.968 16.273 30.042 15.916 29.845 17.372 28.062 16.365 27.934 16.328 27.914 16.268 27.988 15.91 27.791 17.367 26.008 16.359 25.88 16.322 25.86 16.262 25.934 15.905 25.737 17.36 23.954 16.352 23.826 16.315 23.806 16.255 23.88 15.898 23.683 17.354 21.899 16.347 21.772 16.31 21.751 16.249 21.825 15.892 21.629 17.348 19.845 16.34 19.717 16.303 19.697 16.243 19.771 15.886 19.574 17.336 17.799 16.371 17.677 16.334 17.656 16.273 17.73 15.916 17.533 17.372 15.75 16.365 15.622 16.328 15.602 16.268 15.676 15.91 15.479 17.367 13.696 16.359 13.568 16.322 13.548 16.262 13.622 15.905 13.425 17.36 11.641 16.352 11.514 16.315 11.493 16.255 11.567 15.898 11.371 17.354 9.587 16.347 9.46 16.31 9.44 16.249 9.513 15.892 9.316 17.348 7.533 16.34 7.406 16.303 7.385 16.243 7.459 15.886 7.262 17.44 5.359 17.797 5.555 16.404 7.262 17.509 7.402 17.865 7.599 17.612 7.566 17.768 7.652 16.409 9.316 17.515 9.456 17.873 9.653 17.618 9.621 17.774 9.707 16.416 11.371 17.521 11.511 17.878 11.707 17.624 11.675 17.78 11.761 16.422 13.425 17.527 13.564 17.884 13.762 17.631 13.73 17.786 13.815 16.428 15.479 17.534 15.619 17.891 15.816 17.636 15.784 17.793 15.869 16.434 17.533 17.504 17.669 17.861 17.865 17.775 17.854 17.797 17.867 16.404 19.574 17.509 19.714 17.865 19.911 17.612 19.879 17.768 19.965 16.409 21.629 17.515 21.768 17.873 21.965 17.618 21.933 17.774 22.019 16.416 23.683 17.521 23.822 17.878 24.02 17.624 23.988 17.78 24.073 16.422 25.737 17.527 25.877 17.884 26.073 17.631 26.041 17.786 26.127 16.428 27.791 17.534 27.931" class="st11"/><g><g><g><g class="st8"><g><polygon points="15.819 19.771 14.294 19.965 15.812 21.825 14.287 22.019 15.806 23.879 14.281 24.073 15.8 25.933 14.275 26.128 15.794 27.988 14.269 28.181 15.788 30.042 14.227 30.24 14.2 30.178 15.69 29.988 14.17 28.128 15.696 27.934 14.177 26.073 15.703 25.88 14.183 24.02 15.709 23.826 14.189 21.965 15.714 21.772 14.196 19.911 15.721 19.717 14.257 17.924 14.227 17.928 14.2 17.865 15.69 17.677 14.17 15.816 15.696 15.622 14.177 13.762 15.703 13.568 14.183 11.707 15.709 11.514 14.189 9.653 15.714 9.459 14.196 7.599 15.721 7.406 14.238 5.588 14.264 5.555 15.819 7.459 14.294 7.653 15.812 9.513 14.287 9.707 15.806 11.567 14.281 11.761 15.8 13.622 14.275 13.815 15.794 15.675 14.269 15.87 15.788 17.73 14.305 17.918" class="st9"/></g></g></g></g><g><g><g class="st8"><g><polygon points="17.891 28.128 16.371 29.988 17.861 30.178 17.834 30.24 16.273 30.042 17.793 28.181 16.267 27.988 17.786 26.128 16.262 25.933 17.78 24.073 16.255 23.879 17.774 22.019 16.249 21.825 17.767 19.965 16.243 19.771 17.757 17.918 16.273 17.73 17.793 15.87 16.267 15.675 17.786 13.815 16.262 13.622 17.78 11.761 16.255 11.567 17.774 9.707 16.249 9.513 17.767 7.653 16.243 7.459 17.797 5.555 17.825 5.588 16.34 7.406 17.866 7.599 16.347 9.459 17.872 9.653 16.353 11.514 17.878 11.707 16.359 13.568 17.884 13.762 16.365 15.622 17.891 15.816 16.371 17.677 17.861 17.865 17.834 17.928 17.805 17.924 16.34 19.717 17.866 19.911 16.347 21.772 17.872 21.965 16.353 23.826 17.878 24.02 16.359 25.88 17.884 26.073 16.365 27.934" class="st9"/></g></g></g></g></g><g><g><g><g class="st8"><g><polygon points="15.742 17.535 16.031 17.399 16.32 17.535 16.031 17.671" class="st11"/></g></g></g><g><g class="st8"><g><polygon points="17.456 16.728 17.745 16.592 18.035 16.728 17.746 16.864" class="st11"/></g><g><polygon points="17.746 18.134 17.746 30.816 17.454 30.681 17.454 17.999" class="st12"/></g></g></g><g><g class="st8"><g><polygon points="14.605 16.728 14.316 16.592 14.026 16.728 14.315 16.864" class="st11"/></g></g></g></g></g><g><g><g class="st8"><g><polygon points="16.322 5.223 16.322 31.695 16.03 31.836 16.03 5.358" class="st9"/></g><g><polygon points="15.742 5.223 16.031 5.087 16.32 5.223 16.031 5.359" class="st11"/></g><g><polygon points="16.03 5.358 16.03 31.836 15.738 31.695 15.745 5.223" class="st12"/></g></g></g><g><g class="st8"><g><polygon points="18.038 4.418 18.038 30.681 17.746 30.816 17.746 4.553" class="st9"/></g><g><polygon points="17.456 4.416 17.745 4.28 18.035 4.416 17.746 4.552" class="st11"/></g><g><polygon points="17.746 4.553 17.746 18.134 17.454 17.999 17.454 4.418" class="st12"/></g></g></g><g><g class="st8"><g><polygon points="14.314 4.553 14.314 30.816 14.029 30.681 14.029 4.418" class="st9"/></g><g><polygon points="14.605 4.416 14.316 4.28 14.026 4.416 14.315 4.552" class="st11"/></g><g><polygon points="14.606 4.418 14.606 30.681 14.314 30.816 14.314 4.553" class="st12"/></g></g></g></g></g></g></g><g><g><g class="st8"><g><polygon points="18.505 2.397 18.504 4.605 16.038 6.038 16.04 3.829" class="st5"/></g><g><polygon points="16.04 3.829 16.038 6.038 13.554 4.604 13.556 2.395" class="st0"/></g><g><polygon points="18.505 2.397 16.04 3.829 13.556 2.395 16.021 .963" class="st13"/></g></g></g></g></g><g><g><g><g class="st8"><g><path d="M32.78014,15.55936l0.35369,0.20554c0.22115-0.06933,0.41883-0.05328,0.57364,0.03668l-0.3537-0.20554 C33.19897,15.50608,33.00128,15.49002,32.78014,15.55936z" class="st11"/><polygon points="32.6 16.652 32.592 13.354 33.127 13.046 32.773 12.84 32.238 13.149 32.247 16.446" class="st11"/></g></g></g><g><path d="M33.51886,16.86651c-0.00057-0.20348-0.07275-0.34662-0.18886-0.41408l-0.35371-0.20555 c0.11615,0.0675,0.18829,0.2106,0.18886,0.41408c0.00077,0.26886-0.13024,0.57074-0.31654,0.80972 c0.10341,0.0881,0.19745,0.19147,0.27301,0.31361C33.35519,17.53638,33.51971,17.17539,33.51886,16.86651z" class="st13"/></g><g><path d="M34.05235,16.55848c-0.00183-0.64244-0.39425-0.95795-0.9185-0.79356L33.127,13.04554l-0.53508,0.30892 l0.00846,3.29741l0.26752-0.1545c0.35725-0.20625,0.64976-0.04136,0.65094,0.36913 c0.0009,0.30888-0.16362,0.66988-0.39723,0.91777c0.09254,0.14962,0.15104,0.31161,0.17954,0.47315 C33.74123,17.80541,34.05397,17.13407,34.05235,16.55848z" class="st9"/></g></g><g><g class="st8"><g><path d="M33.61323,18.56499l-0.46693,0.27346c-0.11338,0.06673-0.2735,0.05337-0.4469-0.0467 c-0.34687-0.2001-0.62701-0.68702-0.62037-1.08726c0-0.19342,0.06673-0.32684,0.18011-0.39352l0.46693-0.2735 c-0.11338,0.06673-0.18011,0.20014-0.18011,0.39356c0,0.4002,0.28014,0.88716,0.62701,1.08726 C33.34641,18.61837,33.49981,18.63168,33.61323,18.56499z" class="st13"/><path d="M37.35524,19.73897l-0.01336,5.90984c-0.00668,0.30017-0.1067,0.51362-0.28014,0.60698l-0.46692,0.2735 c0.16676-0.09339,0.2735-0.30685,0.2735-0.60702l0.01999-5.90984c0-0.6003-0.42023-1.33405-0.94717-1.6409l-6.47016-3.73533 c-0.26015-0.14673-0.50027-0.16008-0.6737-0.06001l0.4736-0.2735c0.17343-0.10007,0.40688-0.08672,0.66702,0.06005 l6.47016,3.73533C36.93501,18.40491,37.35524,19.13863,37.35524,19.73897z" class="st13"/></g><g><path d="M35.93889,18.3738c0.52806,0.30487,0.94825,1.03768,0.94654,1.6396l-0.01675,5.90657 c-0.00172,0.60678-0.42467,0.84793-0.95273,0.54306l-6.46898-3.73487c-0.5196-0.29999-0.94414-1.03045-0.94242-1.63723 l0.01674-5.90657c0.00171-0.60192,0.42901-0.84543,0.94861-0.54544L35.93889,18.3738z M32.69998,18.79288 c0.34925,0.20164,0.62701,0.03366,0.62813-0.36268c0.00113-0.39646-0.2748-0.87438-0.62405-1.07602 c-0.34492-0.19914-0.62687-0.04331-0.62799,0.35315C32.07494,18.10367,32.35506,18.59374,32.69998,18.79288" class="st0"/></g><g><g><polygon points="31.197 19.876 31.195 20.478 30.245 20.537 31.191 21.705 31.19 22.311 29.757 20.545 29.758 19.984" class="st11"/></g><g><polygon points="33.444 21.173 34.877 22.939 34.875 23.5 33.437 23.609 33.439 23.002 34.388 22.929 33.442 21.775" class="st11"/></g><g><polygon points="33.194 20.366 31.944 23.409 31.44 23.118 32.69 20.075" class="st11"/></g></g></g></g><path d="M32.84861,17.47067c-0.09816,0.12588-0.2069,0.23927-0.33013,0.31043 c-0.09405,0.05427-0.18467,0.08089-0.26772,0.08496l0.01286-0.01303l-0.3537-0.20555l-0.49921,0.50581 c0.06001,0.14673,0.15202,0.25449,0.26683,0.32122l0.3537,0.20555c-0.11481-0.06673-0.20682-0.17449-0.26683-0.32122 l0.44181-0.44767l0.20405,0.1186c0.12043,0.06998,0.28645,0.05814,0.46188-0.04316 c0.08847-0.05105,0.17262-0.12079,0.24948-0.20234C33.04607,17.66214,32.95202,17.55877,32.84861,17.47067z" class="st11"/><path d="M32.87215,17.98666c-0.26756,0.15446-0.51318,0.10084-0.60852-0.13362l-0.49925,0.50581 c0.17453,0.42658,0.61931,0.52384,1.10953,0.24081c0.15116-0.08729,0.29447-0.2058,0.42727-0.34223 c-0.0285-0.16154-0.087-0.32354-0.17954-0.47315C33.04477,17.86582,32.96061,17.93556,32.87215,17.98666z" class="st9"/></g><g class="st8"><g><polygon points="33.811 13.875 34.947 13.215 34.943 14.346 33.807 15.006" class="st9"/></g><g><polygon points="16.722 4.009 17.858 3.349 34.947 13.215 33.811 13.875" class="st11"/></g><g><polygon points="33.811 13.875 33.807 15.006 16.719 5.14 16.722 4.009" class="st12"/></g></g><g><g><path d="M38.67532,30.61989c0.1641,0.09474,0.29675,0.32449,0.29621,0.51307l-0.00665,2.34461 c-0.00053,0.18859-0.13405,0.26466-0.29815,0.16993l-2.04044-1.17805c-0.16413-0.09476-0.29232-0.32193-0.29179-0.51052 l0.00665-2.34462c0.00053-0.18859,0.1296-0.26723,0.29372-0.17248L38.67532,30.61989z" class="st4"/></g><g><path d="M34.31498,28.10245c0.16412,0.09476,0.29677,0.3245,0.29624,0.51309l-0.00665,2.34461 c-0.00054,0.18859-0.13405,0.26467-0.29818,0.16991l-2.04041-1.17803c-0.1597-0.09221-0.29235-0.32195-0.29182-0.51054 l0.00665-2.34462c0.00053-0.18859,0.13405-0.26466,0.29375-0.17246L34.31498,28.10245z" class="st11"/></g><g><path d="M29.95467,25.58502c0.16413,0.09476,0.29677,0.3245,0.29624,0.51309l-0.00665,2.34461 c-0.00053,0.18859-0.13405,0.26466-0.29817,0.16991l-2.04044-1.17805c-0.16413-0.09476-0.29232-0.32193-0.29179-0.51052 l0.00665-2.34462c0.00053-0.18859,0.1296-0.26723,0.29372-0.17248L29.95467,25.58502z" class="st1"/></g></g><g><g><g class="st8"><g><path d="M15.82351,41.3617v1.32458c0,0.12191-0.08129,0.23569-0.23569,0.3332l-3.94933,2.29155 c-0.31693,0.1788-0.82889,0.1788-1.15391,0l-3.9656-2.29155c-0.16253-0.09751-0.24378-0.21942-0.24378-0.34134l0.00808-1.32458 c0,0.12191,0.08129,0.24382,0.23569,0.34134l3.97373,2.28347c0.31688,0.18689,0.83698,0.18689,1.14578,0.00814l3.94933-2.29974 C15.75035,41.59739,15.82351,41.48362,15.82351,41.3617z" class="st0"/></g><g><path d="M15.58196,41.02283c0.32167,0.18571,0.32336,0.48527,0.00893,0.668l-3.94842,2.29457 c-0.31443,0.18273-0.83158,0.18272-1.15325-0.00299l-3.96907-2.29154c-0.31649-0.18273-0.31819-0.48228-0.00376-0.66501 l3.94842-2.29457c0.31443-0.18273,0.83158-0.18273,1.14808,0L15.58196,41.02283z" class="st13"/></g></g></g><g><g class="st8"><g><path d="M12.52198,40.38527c0.63169,0.36471,1.02467,0.86824,1.0281,1.42352 c-0.00025,0.06588-0.09503,0.12096-0.20814,0.12096c-0.05966,0-0.11334-0.01377-0.15177-0.03595 c-0.03842-0.02218-0.06159-0.05278-0.06023-0.08644c-0.0043-0.48724-0.34984-0.92912-0.90461-1.24942 c-0.55477-0.3203-1.31876-0.519-2.15994-0.5199c-0.05966,0-0.11007-0.01188-0.14935-0.03456 C9.87739,39.98116,9.8536,39.9502,9.8534,39.91564c-0.00037-0.06552,0.09441-0.12059,0.20814-0.12096 C11.01987,39.79468,11.89029,40.02057,12.52198,40.38527z" class="st11"/></g><g><path d="M11.8292,40.78815c0.47792,0.27593,0.77481,0.65706,0.77717,1.07789 c0.00038,0.0684-0.09192,0.12204-0.21062,0.12239c-0.05687-0.00018-0.10915-0.01404-0.14726-0.03604 c-0.03811-0.022-0.06205-0.05215-0.06224-0.08491c-0.00199-0.35351-0.25239-0.67426-0.65448-0.9064 c-0.40209-0.23215-0.95586-0.37569-1.5646-0.37479c-0.05966,0-0.11319-0.01368-0.15184-0.036 c-0.03928-0.02268-0.05995-0.05184-0.06015-0.0864C9.7548,40.39478,9.84709,40.34114,9.9658,40.3415 C10.69232,40.3415,11.35127,40.51222,11.8292,40.78815z" class="st11"/></g><g><path d="M11.13463,41.19143c0.34044,0.19655,0.52649,0.45898,0.52805,0.73473 c0.00037,0.06551-0.09441,0.12059-0.21062,0.12239c-0.05811-0.0009-0.11024-0.01467-0.14828-0.03663 c-0.03803-0.02196-0.06197-0.0521-0.06372-0.08577c-0.00119-0.21203-0.16157-0.41029-0.41315-0.55555 c-0.25159-0.14525-0.59439-0.2375-0.96044-0.2375c-0.05656-0.0018-0.11009-0.01548-0.14625-0.03636 c-0.03866-0.02232-0.06307-0.05364-0.06574-0.08604c0.00273-0.06732,0.09751-0.12239,0.21062-0.1224 C10.34364,40.88976,10.79419,40.99488,11.13463,41.19143z" class="st11"/></g></g><g class="st8"><g><path d="M10.33676,41.65509c0.24504,0.14147,0.24882,0.37114,0.00289,0.51406 c-0.24345,0.14148-0.64244,0.14148-0.88748,0c-0.24753-0.14291-0.24572-0.37223-0.00227-0.5137 C9.69583,41.51254,10.08923,41.51218,10.33676,41.65509z" class="st11"/></g></g></g></g><g><g><g class="st8"><g><path d="M27.40381,44.95398v1.32458c0,0.12191-0.08129,0.23569-0.23569,0.3332l-3.94933,2.29155 c-0.31693,0.1788-0.82889,0.1788-1.15391,0l-3.9656-2.29155c-0.16253-0.09751-0.24378-0.21943-0.24378-0.34134l0.00809-1.32458 c0,0.12191,0.08129,0.24383,0.23569,0.34134l3.97373,2.28347c0.31688,0.18689,0.83698,0.18689,1.14577,0.00813l3.94933-2.29974 C27.33065,45.18967,27.40381,45.07589,27.40381,44.95398z" class="st9"/></g><g><path d="M27.16226,44.61511c0.32167,0.18571,0.32336,0.48527,0.00893,0.668l-3.94842,2.29457 c-0.31443,0.18273-0.83158,0.18273-1.15325-0.00299l-3.96907-2.29154c-0.31649-0.18273-0.31819-0.48228-0.00376-0.66501 l3.94842-2.29457c0.31443-0.18273,0.83158-0.18272,1.14808,0L27.16226,44.61511z" class="st11"/></g></g></g></g></g></svg>