<svg xmlns="http://www.w3.org/2000/svg" xmlns:xlink="http://www.w3.org/1999/xlink" id="Layer_1" version="1.1" viewBox="0 0 50 50" xml:space="preserve" style="enable-background:new 0 0 50 50"><style type="text/css">.st5{fill:#aabafd}.st8{enable-background:new}.st9{fill:#1b2a4f}.st11{fill:#384e85}.st12{fill:#2e4277}</style><g><g><g><g><g><g class="st8"><g><polygon points="23.003 19.234 40.908 9.019 40.887 38.595 22.982 49" class="st9"/></g><g><polygon points="23.003 19.234 22.982 49 9.092 40.981 9.113 11.405" class="st12"/></g></g><g><polygon points="22.025 31.083 22.017 33.403 10.058 26.498 10.066 24.179" class="st11"/><polygon points="10.048 30.833 22.007 37.738 22 40.059 10.041 33.155" class="st11"/><polygon points="10.048 37.832 22.007 44.736 22 47.403 10.041 40.499" class="st11"/><polygon points="10.555 40.203 10.559 38.719 21.494 45.032 21.49 46.516" class="st12"/><polygon points="10.056 27.507 22.015 34.412 22.007 36.731 10.051 29.827" class="st11"/><polygon points="18.719 36.478 19.341 37.173 21.294 38.3 21.293 38.675 19.341 37.548 18.716 37.525 13.327 34.413 12.706 33.717 10.754 32.59 10.755 32.216 12.708 33.343 13.33 33.366" class="st5"/><polygon points="18.719 36.478 19.341 37.173 21.294 38.3 21.293 38.675 19.341 37.548 18.716 37.525 13.327 34.413 12.706 33.717 10.754 32.59 10.755 32.216 12.708 33.343 13.33 33.366" class="st5"/><polygon points="18.728 33.15 19.35 33.847 21.303 34.974 21.301 35.347 19.35 34.221 18.725 34.199 13.336 31.087 12.714 30.39 10.763 29.263 10.764 28.89 12.717 30.017 13.339 30.039" class="st5"/><polygon points="18.737 29.823 19.358 30.519 21.311 31.647 21.31 32.021 19.359 30.894 18.734 30.871 13.345 27.76 12.723 27.063 10.771 25.937 10.773 25.562 12.725 26.69 13.348 26.711" class="st5"/><g><polygon points="10.08 18.578 22.039 25.482 22.027 29.945 10.068 23.04" class="st11"/><polygon points="22.054 19.799 22.042 24.261 10.083 17.357 10.095 12.894" class="st11"/></g><g><g><polygon points="18.197 23.883 18.193 25.251 17.002 24.563 17.005 23.195" class="st12"/></g><g><polygon points="18.206 20.06 18.202 21.427 17.011 20.739 17.015 19.372" class="st12"/></g><polygon points="11.657 20.107 11.653 21.475 10.461 20.787 10.465 19.419" class="st12"/><polygon points="11.651 21.966 11.647 23.334 10.456 22.646 10.46 21.279" class="st12"/><polygon points="13.286 22.91 13.282 24.278 12.092 23.591 12.096 22.223" class="st12"/><polygon points="13.291 21.051 13.287 22.419 12.097 21.732 12.101 20.364" class="st12"/><polygon points="14.921 23.854 14.917 25.222 13.727 24.535 13.731 23.167" class="st12"/><polygon points="14.926 21.995 14.922 23.363 13.732 22.675 13.736 21.308" class="st12"/><polygon points="16.556 24.798 16.552 26.166 15.361 25.478 15.365 24.111" class="st12"/><polygon points="16.561 22.939 16.557 24.306 15.367 23.619 15.371 22.252" class="st12"/><polygon points="18.192 25.742 18.188 27.11 16.996 26.422 17 25.055" class="st12"/><polygon points="14.935 18.171 14.931 19.539 13.741 18.852 13.745 17.484" class="st12"/><polygon points="19.826 26.686 19.822 28.054 18.632 27.367 18.636 25.999" class="st12"/><path d="M20.95207,27.56052c0.22058,0.12735,0.40027,0.4373,0.39955,0.69205 c-0.00072,0.25476-0.18158,0.35654-0.40216,0.22919c-0.2217-0.128-0.4014-0.43794-0.40067-0.69271 C20.54951,27.5343,20.73037,27.43252,20.95207,27.56052z" class="st5"/><polygon points="14.941 16.311 14.937 17.678 13.746 16.991 13.75 15.624" class="st12"/><polygon points="19.832 24.827 19.828 26.195 18.637 25.508 18.641 24.14" class="st12"/><polygon points="19.841 21.003 19.837 22.371 18.647 21.684 18.65 20.316" class="st12"/><polygon points="18.211 18.199 18.207 19.567 17.016 18.879 17.02 17.511" class="st12"/><polygon points="19.846 19.143 19.842 20.511 18.652 19.823 18.656 18.456" class="st12"/><g><polygon points="11.671 14.423 11.667 15.791 10.476 15.103 10.48 13.735" class="st12"/></g><g><polygon points="11.666 16.284 11.662 17.651 10.47 16.963 10.474 15.596" class="st12"/></g><g><polygon points="13.306 15.367 13.302 16.735 12.112 16.047 12.115 14.68" class="st12"/></g><g><polygon points="13.3 17.227 13.297 18.595 12.106 17.908 12.11 16.54" class="st12"/></g><g><polygon points="16.57 19.115 16.566 20.483 15.376 19.796 15.38 18.428" class="st12"/></g><g><polygon points="16.575 17.255 16.571 18.622 15.381 17.935 15.385 16.567" class="st12"/></g><g><path d="M20.97176,20.01713c0.22058,0.12735,0.40027,0.4373,0.39955,0.69205 c-0.00072,0.25476-0.18158,0.35653-0.40216,0.22918c-0.2217-0.128-0.4014-0.43794-0.40067-0.6927 C20.5692,19.99091,20.75006,19.88913,20.97176,20.01713z" class="st5"/></g><g><path d="M20.96649,21.87632c0.22058,0.12736,0.40027,0.4373,0.39955,0.69205 c-0.00072,0.25475-0.18158,0.35653-0.40216,0.22918c-0.2217-0.128-0.4014-0.43795-0.40067-0.6927 C20.56393,21.8501,20.74479,21.74832,20.96649,21.87632z" class="st5"/></g><g><path d="M20.95735,25.70005c0.22058,0.12735,0.40027,0.43858,0.39955,0.69333 c-0.00072,0.25347-0.18158,0.35654-0.40216,0.22919c-0.2217-0.128-0.40139-0.43924-0.40067-0.69271 C20.55478,25.67511,20.73565,25.57205,20.95735,25.70005z" class="st5"/></g></g></g><g><path d="M39.13066,37.10177l-6.16256,3.55796c-0.18221,0.1052-0.32953,0.35938-0.32893,0.56876 c0.00058,0.20842,0.14885,0.29291,0.33107,0.1877l6.16256-3.55795c0.18221-0.1052,0.32868-0.35986,0.32809-0.56827 C39.4603,37.08059,39.31288,36.99657,39.13066,37.10177z" class="st12"/><path d="M32.95817,36.05151l6.16256-3.55797c0.18222-0.1052,0.32868-0.35889,0.32808-0.56827 c-0.00058-0.20841-0.148-0.29339-0.33022-0.18819l-6.16257,3.55795c-0.18222,0.10521-0.32951,0.36036-0.32893,0.56876 C32.62769,36.07317,32.77596,36.1567,32.95817,36.05151z" class="st12"/><path d="M32.95817,34.26312l6.16256-3.55796c0.18222-0.1052,0.32868-0.35889,0.32808-0.56827 c-0.00058-0.20842-0.148-0.29339-0.33022-0.18819l-6.16257,3.55795c-0.18222,0.1052-0.32951,0.36034-0.32893,0.56876 C32.62769,34.28479,32.77596,34.36833,32.95817,34.26312z" class="st12"/><path d="M32.95817,32.47475l6.16256-3.55795c0.18222-0.1052,0.32868-0.35889,0.32808-0.56828 c-0.00058-0.20841-0.148-0.29339-0.33022-0.18818l-6.16257,3.55795c-0.18222,0.1052-0.32951,0.36034-0.32893,0.56876 C32.62769,32.49642,32.77596,32.57995,32.95817,32.47475z" class="st12"/><path d="M32.9622,37.84005l6.16256-3.55796c0.18221-0.1052,0.32868-0.35986,0.32809-0.56827 c-0.0006-0.20939-0.14802-0.2934-0.33023-0.18819l-6.16257,3.55795c-0.18222,0.1052-0.32951,0.35939-0.32893,0.56876 C32.63171,37.86076,32.77998,37.94525,32.9622,37.84005z" class="st12"/><path d="M32.96622,39.62764l6.16256-3.55796c0.18221-0.10521,0.32868-0.35889,0.32809-0.56828 c-0.0006-0.20841-0.14802-0.29339-0.33023-0.18819l-6.16257,3.55797c-0.18222,0.1052-0.32952,0.36034-0.32893,0.56875 C32.63573,39.64931,32.784,39.73284,32.96622,39.62764z" class="st12"/></g></g><polygon points="10.056 34.159 22.015 41.064 22.007 43.383 10.051 36.479" class="st11"/><polygon points="18.719 39.804 19.341 40.499 21.294 41.626 21.293 42.001 19.341 40.874 18.716 40.851 13.327 37.739 12.706 37.043 10.754 35.916 10.755 35.542 12.708 36.669 13.33 36.692" class="st5"/></g></g></g><g><polygon points="9.113 11.405 27.018 1 40.908 9.019 23.003 19.424" class="st11"/></g></g></svg>