<svg xmlns="http://www.w3.org/2000/svg" xmlns:xlink="http://www.w3.org/1999/xlink" id="Layer_1" version="1.1" viewBox="0 0 50 50" xml:space="preserve" style="enable-background:new 0 0 50 50"><style type="text/css">.st0{fill:none}.st1{fill:#b7c5fd}.st7{fill:#798ffe}.st8{fill:#6bb5fb}.st10{fill:#1b2a4f}.st11{fill:url(#SVGID_1_)}.st12{fill:url(#SVGID_2_)}.st14{fill:url(#SVGID_3_)}.st15{fill:url(#SVGID_4_)}.st16{fill:url(#SVGID_5_)}.st17{fill:url(#SVGID_6_)}.st18{fill:url(#SVGID_7_)}.st19{fill:#384e85}.st20{fill:#2e4277}.st22{fill:url(#SVGID_8_)}.st23{fill:url(#SVGID_9_)}.st59{fill:#8ca1fd}</style><pattern id="Unnamed_Pattern_12" width="32.252" height="32.252" x="-280" y="-350" patternUnits="userSpaceOnUse" viewBox="0 -32.252 32.252 32.252" style="overflow:visible"><g><rect width="32.252" height="32.252" y="-32.252" class="st0"/><g><rect width="32.252" height="32.252" x="0" y="-32.252" class="st1"/></g></g></pattern><g><g><g><polygon points="11.084 32.203 12.706 31.26 38.921 46.395 37.298 47.338" class="st1"/></g><g><polygon points="37.298 47.338 37.294 49 11.079 33.865 11.084 32.203" class="st59"/></g><g><g><polygon points="26.673 41.261 28.896 39.969 28.889 42.245 26.666 43.537" class="st10"/></g><g><polygon points="20.435 37.66 22.658 36.368 28.896 39.969 26.673 41.261" class="st19"/></g><g><polygon points="26.673 41.261 26.666 43.537 20.429 39.936 20.435 37.66" class="st20"/></g></g><g><g><polygon points="37.298 47.338 38.921 46.395 38.916 48.057 37.294 49" class="st7"/></g><g><polygon points="26.96 41.37 28.583 40.427 38.921 46.395 37.298 47.338" class="st1"/></g><g><polygon points="37.298 47.338 37.294 49 26.956 43.031 26.96 41.37" class="st59"/></g></g><g><g><polygon points="23.186 23.978 23.24 38.986 25.029 40.003 24.971 23.978" class="st1"/></g><g><polygon points="24.971 23.978 25.029 40.003 26.806 38.976 26.751 23.978" class="st59"/></g></g></g><g><g><g><path d="M38.79904,25.87545L38.7875,31.2183c-0.0011,0.46147-0.30436,0.92185-0.90976,1.27345l-3.65482,2.16333 c-1.21906,0.70815-3.20175,0.70869-4.4285,0l-15.74066-9.08773c-0.6175-0.35654-0.92569-0.82406-0.9246-1.29158l0.01154-5.34009 c0,0.46587,16.66471,10.37657,16.66471,10.37657c1.2273,0.70814,3.20999,0.70814,4.42906-0.00055 C34.23446,29.31168,38.79794,26.33638,38.79904,25.87545z" class="st20"/><path d="M28.59615,29.89869l-13.38703-7.72934c-0.293-0.16917-0.65926,0.04228-0.65926,0.38061v1.76793 c0,0.31404,0.16754,0.60422,0.43951,0.76124L28.37638,32.808c0.293,0.16916,0.65925-0.04229,0.65925-0.38062v-1.76747 C29.03563,30.34588,28.8681,30.05571,28.59615,29.89869z" class="st19"/><path d="M37.87474,24.58381c1.22695,0.70838,1.23341,1.85662,0.01443,2.565l-3.65492,2.16309 c-1.21897,0.70839-3.20165,0.7086-4.42859,0.00022l-15.74074-9.08792c-1.22695-0.70838-1.23306-1.85682-0.01409-2.56521 l3.65492-2.16309c1.21897-0.70839,3.2013-0.7084,4.42825-0.00002L37.87474,24.58381z" class="st10"/><pattern id="SVGID_1_" patternTransform="matrix(0.05494 0 0 0.05494 -7304.65918 -7141.04248)" xlink:href="#Unnamed_Pattern_12"/><path d="M15.94744,23.66476c0.26833,0.15492,0.48474,0.52976,0.48386,0.83809 c-0.00087,0.30833-0.2187,0.43287-0.48703,0.27795s-0.48509-0.53036-0.48422-0.8387 C15.46093,23.63376,15.67911,23.50984,15.94744,23.66476z" class="st11"/><pattern id="SVGID_2_" patternTransform="matrix(0.05494 0 0 0.05494 -7304.65918 -7141.04248)" xlink:href="#Unnamed_Pattern_12"/><path d="M17.51181,24.56795c0.26798,0.15472,0.48474,0.52976,0.48387,0.83809 c-0.00087,0.30833-0.21905,0.43266-0.48703,0.27794c-0.26832-0.15492-0.48509-0.53036-0.48421-0.83869 C17.0253,24.53696,17.24348,24.41303,17.51181,24.56795z" class="st12"/><pattern id="SVGID_3_" patternTransform="matrix(0.05494 0 0 0.05494 -7304.65918 -7141.04248)" xlink:href="#Unnamed_Pattern_12"/><path d="M19.07618,25.47114c0.26798,0.15472,0.48474,0.52976,0.48387,0.83809 c-0.00088,0.30833-0.21905,0.43266-0.48703,0.27794c-0.26833-0.15492-0.48509-0.53036-0.48421-0.83869 C18.58968,25.44015,18.80785,25.31622,19.07618,25.47114z" class="st14"/><polygon points="27.62 30.299 23.992 28.204 23.992 29.578 27.62 31.673" class="st8"/></g><g><path d="M38.79904,18.89315l-0.01154,5.34284c-0.0011,0.46147-0.30436,0.92185-0.90976,1.27345l-3.65482,2.16333 c-1.21906,0.70815-3.20175,0.70869-4.4285,0l-15.74066-9.08773c-0.6175-0.35654-0.92569-0.82406-0.9246-1.29158l0.01154-5.34009 c0,0.46587,16.66471,10.37656,16.66471,10.37656c1.2273,0.70815,3.20999,0.70815,4.42906-0.00055 C34.23446,22.32938,38.79794,19.35407,38.79904,18.89315z" class="st20"/><path d="M28.59615,22.91638l-13.38703-7.72934c-0.293-0.16917-0.65926,0.04228-0.65926,0.38061v1.76793 c0,0.31404,0.16754,0.60422,0.43951,0.76124l13.38702,7.72888c0.293,0.16916,0.65925-0.04229,0.65925-0.38062v-1.76747 C29.03563,23.36358,28.8681,23.0734,28.59615,22.91638z" class="st19"/><path d="M37.87474,17.6015c1.22695,0.70838,1.23341,1.85662,0.01443,2.565l-3.65492,2.16309 c-1.21897,0.70839-3.20165,0.7086-4.42859,0.00022L14.06493,13.2419c-1.22695-0.70838-1.23306-1.85682-0.01409-2.56521 l3.65492-2.16309c1.21897-0.70839,3.2013-0.7084,4.42825-0.00002L37.87474,17.6015z" class="st10"/><pattern id="SVGID_4_" patternTransform="matrix(0.05494 0 0 0.05494 -7304.65918 -7148.0249)" xlink:href="#Unnamed_Pattern_12"/><path d="M15.94744,16.68245c0.26833,0.15492,0.48474,0.52976,0.48386,0.83809 c-0.00087,0.30833-0.2187,0.43287-0.48703,0.27795c-0.26833-0.15492-0.48509-0.53037-0.48422-0.8387 C15.46093,16.65146,15.67911,16.52753,15.94744,16.68245z" class="st15"/><pattern id="SVGID_5_" patternTransform="matrix(0.05494 0 0 0.05494 -7304.65918 -7148.0249)" xlink:href="#Unnamed_Pattern_12"/><path d="M17.51181,17.58564c0.26798,0.15472,0.48474,0.52976,0.48387,0.83809 c-0.00087,0.30833-0.21905,0.43266-0.48703,0.27794c-0.26832-0.15492-0.48509-0.53036-0.48421-0.83869 S17.24348,17.43072,17.51181,17.58564z" class="st16"/><pattern id="SVGID_6_" patternTransform="matrix(0.05494 0 0 0.05494 -7304.65918 -7148.0249)" xlink:href="#Unnamed_Pattern_12"/><path d="M19.07618,18.48883c0.26798,0.15472,0.48474,0.52976,0.48387,0.83809 c-0.00088,0.30833-0.21905,0.43266-0.48703,0.27794c-0.26833-0.15492-0.48509-0.53036-0.48421-0.83869 S18.80785,18.33391,19.07618,18.48883z" class="st17"/><polygon points="27.62 23.317 23.992 21.222 23.992 22.596 27.62 24.691" class="st8"/></g><g><path d="M38.79904,11.91084l-0.01154,5.34284c-0.0011,0.46147-0.30436,0.92185-0.90976,1.27345l-3.65482,2.16333 c-1.21906,0.70814-3.20175,0.70869-4.4285,0l-15.74066-9.08773c-0.6175-0.35654-0.92569-0.82406-0.9246-1.29158l0.01154-5.34009 c0,0.46587,16.66471,10.37656,16.66471,10.37656c1.2273,0.70814,3.20999,0.70814,4.42906-0.00055 C34.23446,15.34707,38.79794,12.37177,38.79904,11.91084z" class="st20"/><path d="M28.59615,15.93407L15.20912,8.20473c-0.293-0.16917-0.65926,0.04228-0.65926,0.38061v1.76793 c0,0.31404,0.16754,0.60422,0.43951,0.76124l13.38702,7.72888c0.293,0.16916,0.65925-0.04229,0.65925-0.38062V16.6953 C29.03563,16.38127,28.8681,16.09109,28.59615,15.93407z" class="st19"/><path d="M37.87474,10.61919c1.22695,0.70838,1.23341,1.85662,0.01443,2.56501l-3.65492,2.16309 c-1.21897,0.70839-3.20165,0.7086-4.42859,0.00022L14.06493,6.25959c-1.22695-0.70838-1.23306-1.85682-0.01409-2.56521 l3.65492-2.16309c1.21897-0.70839,3.2013-0.7084,4.42825-0.00002L37.87474,10.61919z" class="st19"/><pattern id="SVGID_7_" patternTransform="matrix(0.05494 0 0 0.05494 -7304.65918 -7155.00732)" xlink:href="#Unnamed_Pattern_12"/><path d="M15.94744,9.70014c0.26833,0.15492,0.48474,0.52976,0.48386,0.83809 c-0.00087,0.30833-0.2187,0.43287-0.48703,0.27795c-0.26833-0.15492-0.48509-0.53036-0.48422-0.8387 C15.46093,9.66915,15.67911,9.54523,15.94744,9.70014z" class="st18"/><pattern id="SVGID_8_" patternTransform="matrix(0.05494 0 0 0.05494 -7304.65918 -7155.00732)" xlink:href="#Unnamed_Pattern_12"/><path d="M17.51181,10.60333c0.26798,0.15472,0.48474,0.52976,0.48387,0.83809 c-0.00087,0.30833-0.21905,0.43266-0.48703,0.27794c-0.26832-0.15492-0.48509-0.53036-0.48421-0.83869 C17.0253,10.57234,17.24348,10.44842,17.51181,10.60333z" class="st22"/><pattern id="SVGID_9_" patternTransform="matrix(0.05494 0 0 0.05494 -7304.65918 -7155.00732)" xlink:href="#Unnamed_Pattern_12"/><path d="M19.07618,11.50653c0.26798,0.15472,0.48474,0.52976,0.48387,0.83809 c-0.00088,0.30833-0.21905,0.43266-0.48703,0.27794c-0.26833-0.15492-0.48509-0.53036-0.48421-0.83869 C18.58968,11.47554,18.80785,11.35161,19.07618,11.50653z" class="st23"/><polygon points="27.62 16.334 23.992 14.239 23.992 15.614 27.62 17.708" class="st8"/></g></g></g></g></svg>