<svg xmlns="http://www.w3.org/2000/svg" xmlns:xlink="http://www.w3.org/1999/xlink" id="Layer_1" version="1.1" viewBox="0 0 50 50" xml:space="preserve" style="enable-background:new 0 0 50 50"><style type="text/css">.st0{fill:#b7c5fd}.st1{fill:#9aadfd}.st2{fill:#fff}.st4{fill:#4466fb}.st6{fill:#798ffe}.st7{fill:#6bb5fb}.st8{enable-background:new}.st9{fill:#1b2a4f}.st11{fill:#384e85}.st13{fill:#d9ddf6}</style><g><g><path d="M41.03586,1.08364c-0.22511-0.13083-0.53674-0.11255-0.88039,0.08585L8.15094,19.64732 c-0.68569,0.39588-1.23857,1.3535-1.23633,2.1382l0.06643,25.39545c0.00109,0.38943,0.13872,0.6637,0.36087,0.79283 l1.62189,0.94253c-0.22218-0.1291-0.35978-0.40337-0.3609-0.79284L8.53646,22.72805 c-0.00221-0.78471,0.55067-1.74232,1.23636-2.1382L41.77736,2.11202c0.34365-0.19841,0.65528-0.21666,0.88039-0.08585 L41.03586,1.08364z" class="st7"/><g><path d="M41.77735,2.11203c0.68291-0.39428,1.2394-0.07715,1.24162,0.70756l0.06642,25.39545 c0.00222,0.78472-0.55066,1.74233-1.23356,2.13661L9.84731,48.82948c-0.68569,0.39589-1.24218,0.07876-1.24441-0.70596 L8.53648,22.72807c-0.00222-0.78472,0.55065-1.74233,1.23635-2.13822L41.77735,2.11203z" class="st4"/></g><g><g><polygon points="41.483 6.747 41.537 28.753 10.152 46.873 10.097 24.868" class="st2"/></g></g><g><g><path d="M36.77227,6.72606c0.35073-0.20249,0.63628-0.03976,0.63742,0.36325 c0.00114,0.40301-0.28256,0.89228-0.63329,1.09478c-0.34889,0.20143-0.63444,0.04081-0.63558-0.3622 C36.13968,7.41888,36.42338,6.9275,36.77227,6.72606z" class="st13"/></g><g><path d="M40.84512,4.37507c0.35073-0.20249,0.63628-0.03976,0.63742,0.36325 c0.00114,0.40301-0.28256,0.89228-0.63329,1.09478c-0.34889,0.20143-0.63444,0.04081-0.63558-0.3622 C40.21253,5.06789,40.49622,4.5765,40.84512,4.37507z" class="st13"/></g><g><path d="M38.80869,5.55033c0.35073-0.20249,0.63628-0.03976,0.63742,0.36325 c0.00114,0.40301-0.28256,0.89228-0.63329,1.09478c-0.35073,0.20249-0.63444,0.04081-0.63558-0.3622 C38.17611,6.24315,38.45797,5.75283,38.80869,5.55033z" class="st13"/></g></g></g><g><g><path d="M29.15597,27.54902l9.14851-5.28189c0.34112-0.19694,0.65051-0.21527,0.87414-0.08529l1.22299,0.71072 c-0.22363-0.12996-0.533-0.11166-0.87414,0.08529l-9.14848,5.28189c-0.6786,0.39179-1.22799,1.34336-1.22577,2.12631 l0.02981,10.50913c0.00109,0.38935,0.1384,0.66301,0.35962,0.79158l-1.22299-0.71075 c-0.22125-0.12855-0.35854-0.40223-0.35965-0.79158l-0.02979-10.50913C27.928,28.89238,28.47739,27.94079,29.15597,27.54902z" class="st13"/><g><path d="M30.37898,28.25976c-0.67859,0.39178-1.22798,1.34336-1.22576,2.12629l0.02979,10.50914 c0.00222,0.78294,0.5552,1.09806,1.23379,0.70628l9.14849-5.28188c0.67859-0.39179,1.22797-1.34336,1.22575-2.12629 l-0.02979-10.50914c-0.00222-0.78293-0.55519-1.09806-1.23379-0.70627L30.37898,28.25976z" class="st0"/></g><g><g><path d="M39.6567,25.51173l0.0748-0.04318l0.02306,8.13488l-0.0748,0.04318 c-0.63704,0.36779-1.1533,1.26198-1.15122,1.994l0.00025,0.08911l-7.07948,4.08733l-0.00025-0.08911 c-0.00208-0.73202-0.52171-1.02813-1.15876-0.66032l-0.07754,0.04477l-0.02306-8.13488l0.07753-0.04476 c0.63705-0.3678,1.15331-1.262,1.15124-1.99401l-0.00025-0.08911l7.07948-4.08734l0.00025,0.08911 C38.50003,25.58339,39.01967,25.87952,39.6567,25.51173z M39.60173,33.51951l-0.02208-7.78797 c-0.65933,0.33604-1.19286,0.032-1.23378-0.70309l-6.77759,3.91304c-0.03662,0.77985-0.56391,1.69636-1.223,2.12151 l0.02208,7.78797c0.65933-0.33923,1.19008-0.03358,1.231,0.70151l6.77759-3.91304 C38.41258,34.85958,38.94265,33.94147,39.60173,33.51951" class="st1"/></g><g><polygon points="35.708 33.39 35.71 33.805 31.245 36.382 31.243 35.968" class="st1"/></g><g><polygon points="38.704 29.302 38.706 29.716 31.238 34.027 31.237 33.613" class="st1"/></g><g><polygon points="38.707 30.479 38.709 30.894 31.242 35.205 31.24 34.79" class="st1"/></g><g><polygon points="38.55 26.736 38.552 27.605 31.376 31.748 31.373 30.879" class="st11"/></g></g></g><g><g><g class="st8"><g><polygon points="35.455 41.452 35.729 42.188 35.986 42.338 35.713 41.601" class="st11"/><polygon points="36.729 39.37 36.472 39.221 37.226 41.323 37.484 41.473" class="st11"/><polygon points="37.135 37.417 35.798 38.189 34.715 42.285 34.972 42.434 36.056 38.339 37.393 37.567" class="st11"/></g><g><polygon points="37.393 37.567 38.491 40.403 37.75 40.425 37.484 41.473 36.729 39.37 35.986 42.338 35.713 41.601 34.972 42.434 36.056 38.339" class="st9"/></g></g></g><g><g class="st8"><g><path d="M34.3113,38.3304c0,0.59265,0.20918,1.01096,0.54828,1.20745l0.44684,0.25988 c-0.3391-0.19649-0.54826-0.61482-0.54826-1.20745c-0.00317-1.19793,0.83664-2.65575,1.87931-3.25788 c0.5229-0.30107,0.99827-0.32961,1.34055-0.12994l-0.44684-0.25988c-0.34227-0.19964-0.81765-0.17113-1.34056,0.12995 C35.14796,35.67466,34.30813,37.13247,34.3113,38.3304z" class="st7"/></g><g><ellipse cx="36.643" cy="37.5" class="st4" rx="2.658" ry="1.54" transform="matrix(0.50245 -0.8646 0.8646 0.50245 -14.19097 50.33978)"/></g><g><polygon points="36.729 36.233 37.053 36.794 37.77 36.498 37.221 37.434 37.528 38.133 36.793 38.043 36.095 38.87 36.216 37.979 35.695 37.696 36.412 37.163" class="st2"/></g></g></g></g></g><path d="M37.72798,13.10737c-0.00161-0.56551-0.40443-0.80254-0.90308-0.51462L13.16276,26.25409 c-0.49215,0.28415-0.89874,0.98844-0.89719,1.55401l0.00644,3.28377c0.00161,0.5655,0.41093,0.79883,0.90308,0.51462 l23.66215-13.66134c0.49865-0.28786,0.8988-0.98844,0.89719-1.55401L37.72798,13.10737z M13.1739,31.1898 c-0.29789,0.17197-0.53827,0.03498-0.53926-0.3073l-0.00644-3.28377c-0.00099-0.34227,0.23784-0.75593,0.53579-0.92796 L32.9276,15.26025l0.0099,4.51897L13.1739,31.1898z" class="st11"/><g><path d="M36.14058,16.08666l0.90928,0.51665l-0.42388,0.7342l-0.90821-0.51851 c-0.17317,0.21329-0.36695,0.38186-0.56084,0.4938c-0.28985,0.16735-0.57987,0.20803-0.80103,0.08199 c-0.44294-0.25241-0.44529-1.07928-0.00522-1.84151c0.22003-0.3811,0.50994-0.67552,0.80022-0.84311 c0.29028-0.16759,0.58091-0.20835,0.80238-0.08215C36.32346,14.83774,36.3848,15.44747,36.14058,16.08666z M35.71422,16.33033 c0.30632-0.53057,0.30469-1.10502-0.00363-1.28073c-0.15416-0.08785-0.35623-0.05961-0.55803,0.0569 c-0.20181,0.11652-0.40338,0.32131-0.55653,0.58659c-0.30632,0.53057-0.30469,1.10502,0.00363,1.28073 c0.15416,0.08785,0.35622,0.05962,0.55803-0.0569C35.35949,16.80041,35.56106,16.5956,35.71422,16.33033" class="st2"/></g><g><g><polygon points="17.911 39.049 17.902 35.724 13.155 38.465 13.164 41.79" class="st6"/></g><g><polygon points="24.432 35.284 24.423 31.96 19.675 34.701 19.685 38.025" class="st11"/></g></g></g></svg>