<svg xmlns="http://www.w3.org/2000/svg" xmlns:xlink="http://www.w3.org/1999/xlink" id="Layer_1" version="1.1" viewBox="0 0 50 50" xml:space="preserve" style="enable-background:new 0 0 50 50"><style type="text/css">.st0{fill:#b7c5fd}.st1{fill:#9aadfd}.st5{fill:#aabafd}.st8{enable-background:new}.st9{fill:#1b2a4f}.st11{fill:#384e85}.st13{fill:#d9ddf6}</style><g><g><g><g><g><path d="M42.58408,33.68399l-12.81105,7.44497c-0.32873,0.19176-0.85833,0.19176-1.18706,0.00305L5.01837,27.52349 c-0.32873-0.18871-0.32873-0.49613,0-0.68789l12.81105-7.44495c0.32568-0.18871,0.85529-0.18871,1.18402,0l23.5676,13.60547 C42.90976,33.18788,42.9128,33.49529,42.58408,33.68399z" class="st0"/></g><g><path d="M24.95806,32.80642c0.16869,0.09739,0.1677,0.25606,0.0001,0.35345l-3.47985,2.02227 c-0.16759,0.09739-0.44152,0.09849-0.61021,0.0011l-6.8574-3.95912c-0.16869-0.09739-0.16769-0.25607-0.0001-0.35346 l3.47985-2.02227c0.16759-0.0974,0.44152-0.09849,0.61021-0.0011L24.95806,32.80642z" class="st1"/></g><g><path d="M42.82757,33.3431l-0.00305,1.24185c0,0.12175-0.08217,0.24654-0.24349,0.3409l-12.81105,7.44497 c-0.32873,0.18871-0.85833,0.18871-1.18706,0L5.01532,28.76534c-0.16435-0.09436-0.24654-0.21914-0.24654-0.34699 l0.00305-1.2388c0,0.1248,0.08217,0.24959,0.24654,0.34394l23.5676,13.60852c0.32873,0.18871,0.85833,0.18871,1.18706-0.00305 l12.81105-7.44497C42.74843,33.58964,42.82757,33.4679,42.82757,33.3431z" class="st1"/></g><g><g><polygon points="21.671 23.064 21.229 23.32 20.162 22.704 20.604 22.448" class="st11"/></g><g><polygon points="15.854 24.785 14.877 25.353 12.375 23.909 13.353 23.341" class="st11"/></g><g><polygon points="15.65 23.242 14.673 23.81 13.606 23.194 14.583 22.626" class="st11"/></g><g><polygon points="17.085 24.07 16.107 24.638 15.04 24.022 16.018 23.454" class="st11"/></g><g><polygon points="18.315 23.354 17.338 23.923 14.836 22.478 15.814 21.91" class="st11"/></g><g><polygon points="19.747 24.181 18.77 24.75 17.703 24.134 18.681 23.566" class="st11"/></g><g><polygon points="21.51 23.775 20.534 24.342 19.467 23.726 20.443 23.159" class="st11"/></g><g><polygon points="20.077 22.948 19.102 23.515 18.035 22.899 19.01 22.332" class="st11"/></g><g><polygon points="20.239 22.237 19.797 22.493 18.73 21.877 19.172 21.621" class="st11"/></g><g><polygon points="18.643 22.12 17.667 22.687 16.067 21.763 17.043 21.196" class="st11"/></g><g><polygon points="18.805 21.408 18.363 21.665 17.296 21.049 17.738 20.792" class="st11"/></g><g><polygon points="27.405 26.374 26.963 26.631 25.896 26.015 26.338 25.758" class="st11"/></g><g><polygon points="27.243 27.086 26.267 27.653 25.2 27.037 26.176 26.47" class="st11"/></g><g><polygon points="25.811 26.259 24.835 26.826 23.768 26.21 24.744 25.643" class="st11"/></g><g><polygon points="21.384 26.552 20.406 27.12 19.339 26.504 20.317 25.936" class="st11"/></g><g><polygon points="22.818 27.38 21.84 27.948 20.773 27.332 21.751 26.764" class="st11"/></g><g class="st8"><g><polygon points="23.106 23.892 22.664 24.148 21.597 23.532 22.039 23.276" class="st11"/></g><g><polygon points="24.538 24.719 24.096 24.975 23.029 24.359 23.471 24.103" class="st11"/></g><g><polygon points="22.944 24.604 21.968 25.17 20.901 24.554 21.877 23.988" class="st11"/></g><g><polygon points="21.182 25.01 20.204 25.578 19.137 24.962 20.115 24.394" class="st11"/></g><g><polygon points="24.376 25.431 23.401 25.997 22.334 25.381 23.309 24.815" class="st11"/></g><g><polygon points="19.951 25.725 18.974 26.293 17.907 25.677 18.884 25.109" class="st11"/></g><g><polygon points="22.614 25.837 21.637 26.405 20.57 25.789 21.547 25.221" class="st11"/></g><g><polygon points="23.02 28.922 22.044 29.489 15.244 25.563 16.219 24.996" class="st11"/></g></g><g><polygon points="25.972 25.547 25.53 25.804 24.463 25.188 24.905 24.931" class="st11"/></g><g><polygon points="28.839 27.202 28.397 27.459 27.328 26.842 27.77 26.585" class="st11"/></g><g><polygon points="31.704 28.856 31.262 29.113 30.195 28.497 30.637 28.24" class="st11"/></g><g class="st8"><g><polygon points="24.048 26.665 23.071 27.233 22.004 26.617 22.982 26.049" class="st11"/></g><g><polygon points="25.481 27.492 24.503 28.06 23.436 27.444 24.414 26.876" class="st11"/></g></g><g><polygon points="26.915 28.32 25.938 28.888 24.869 28.271 25.846 27.703" class="st11"/></g><g><polygon points="28.675 27.913 27.7 28.48 26.635 27.865 27.61 27.298" class="st11"/></g><g><polygon points="28.348 29.147 27.37 29.715 26.303 29.099 27.281 28.531" class="st11"/></g><g><polygon points="27.319 31.404 26.341 31.972 25.274 31.356 26.252 30.788" class="st11"/></g><g><polygon points="28.549 30.689 27.572 31.257 26.505 30.641 27.482 30.073" class="st11"/></g><g><polygon points="31.214 30.802 30.237 31.37 27.736 29.926 28.713 29.358" class="st11"/></g><g class="st8"><g><polygon points="33.138 29.684 32.696 29.941 31.629 29.325 32.071 29.068" class="st11"/></g><g><polygon points="32.443 30.088 31.467 30.655 29.5 29.519 30.475 28.952" class="st11"/></g></g><g><polygon points="30.11 28.741 29.134 29.308 28.067 28.692 29.043 28.125" class="st11"/></g><g><polygon points="30.271 28.029 29.829 28.286 28.762 27.67 29.204 27.413" class="st11"/></g><g><polygon points="35.314 33.169 34.336 33.737 33.27 33.121 34.247 32.553" class="st11"/></g><g><polygon points="38.181 34.824 37.203 35.392 36.136 34.776 37.114 34.208" class="st11"/></g><g><polygon points="31.419 33.771 30.441 34.339 29.374 33.723 30.352 33.155" class="st11"/></g><g class="st8"><g><polygon points="35.803 31.223 35.361 31.48 34.295 30.864 34.736 30.607" class="st11"/></g><g><polygon points="35.108 31.627 34.133 32.194 33.066 31.578 34.041 31.011" class="st11"/></g><g><polygon points="37.238 32.051 36.796 32.308 35.729 31.692 36.171 31.435" class="st11"/></g><g><polygon points="33.88 32.341 32.902 32.909 31.835 32.293 32.813 31.725" class="st11"/></g><g><polygon points="36.543 32.455 35.567 33.022 34.5 32.406 35.476 31.839" class="st11"/></g><g><polygon points="32.649 33.056 31.672 33.624 30.605 33.008 31.582 32.44" class="st11"/></g><g><polygon points="37.975 33.282 36.999 33.849 35.932 33.233 36.908 32.666" class="st11"/></g><g><polygon points="34.083 33.884 33.106 34.452 32.039 33.836 33.016 33.268" class="st11"/></g><g><polygon points="36.746 33.996 35.769 34.564 34.702 33.948 35.679 33.38" class="st11"/></g><g><polygon points="35.516 34.711 34.538 35.279 33.471 34.663 34.449 34.095" class="st11"/></g></g><g><polygon points="18.517 24.897 17.539 25.465 16.473 24.849 17.45 24.281" class="st11"/></g><g><polygon points="24.454 29.75 23.477 30.318 22.408 29.701 23.385 29.133" class="st11"/></g><g><polygon points="25.685 29.035 24.707 29.603 23.638 28.986 24.616 28.418" class="st11"/></g><g><polygon points="25.886 30.577 24.909 31.145 23.842 30.529 24.82 29.961" class="st11"/></g><g><polygon points="27.117 29.862 26.14 30.43 25.073 29.814 26.05 29.246" class="st11"/></g><g><polygon points="24.25 28.207 23.273 28.775 22.206 28.159 23.183 27.591" class="st11"/></g><g><polygon points="28.753 32.232 27.776 32.8 26.709 32.184 27.686 31.616" class="st11"/></g><g><polygon points="39.409 34.11 38.434 34.677 37.367 34.061 38.342 33.494" class="st11"/></g><g><polygon points="40.104 33.706 39.662 33.963 38.595 33.347 39.037 33.09" class="st11"/></g><g><polygon points="38.67 32.878 38.228 33.135 37.161 32.519 37.603 32.262" class="st11"/></g><g><polygon points="32.853 34.599 31.875 35.167 30.808 34.551 31.786 33.983" class="st11"/></g><g><polygon points="36.95 35.539 34.742 36.822 33.675 36.206 35.883 34.923" class="st11"/></g><g><polygon points="34.285 35.426 33.308 35.994 32.241 35.378 33.218 34.81" class="st11"/></g></g></g><g><g><path d="M42.2873,14.8526c0.32841,0.18961,0.59378,0.64924,0.59271,1.02662L42.838,32.46009 c-0.00106,0.37515-0.26817,0.52959-0.59659,0.33998L19.01343,19.39065c-0.32841-0.18961-0.59378-0.65147-0.59271-1.02662 l0.04202-16.58087c0.00107-0.37738,0.26817-0.52959,0.59659-0.33998L42.2873,14.8526z" class="st9"/></g><g><path d="M43.50378,15.51782l-0.04262,16.58023c0,0.18566-0.06697,0.31959-0.17349,0.38047l-0.62298,0.36229 c0.10654-0.06086,0.1735-0.19478,0.1735-0.38047l0.04261-16.58021c0-0.37744-0.2648-0.83703-0.59353-1.02878L19.05919,1.44344 c-0.16437-0.09435-0.31351-0.10348-0.42308-0.04262l0.62298-0.36229c0.10652-0.06088,0.25871-0.05176,0.42306,0.0426 l23.2281,13.41095C43.23898,14.6808,43.50378,15.1404,43.50378,15.51782z" class="st11"/></g><g><polygon points="42.042 15.677 42.001 31.695 19.259 18.566 19.3 2.548" class="st13"/></g></g></g><g><g><polygon points="22.197 5.825 22.196 7.305 21.907 7.139 21.907 6.016 21.705 6.011 21.642 5.682 21.956 5.686" class="st5"/></g><g><polygon points="23.121 9.37 23.121 10.851 22.832 10.685 22.832 9.562 22.63 9.557 22.567 9.228 22.88 9.231" class="st5"/></g><g><polygon points="25.036 8.793 25.037 10.274 24.741 10.104 24.74 8.985 24.55 8.979 24.475 8.647 24.795 8.655" class="st5"/></g><g><path d="M26.47738,10.69057c0.13032,0.21181,0.19646,0.46444,0.19657,0.75045 c0.00051,0.47614-0.16802,0.6413-0.47393,0.46576c-0.07416-0.04282-0.13807-0.09892-0.19083-0.15712 c-0.05091-0.05607-0.09067-0.11317-0.12118-0.16279c-0.13216-0.21501-0.202-0.47191-0.20582-0.76219 c-0.00057-0.45271,0.18099-0.62955,0.47392-0.46043C26.31093,10.45363,26.41639,10.59134,26.47738,10.69057z M26.14426,11.60144 c0.14925,0.0851,0.23414-0.05686,0.23416-0.38974c-0.00024-0.24233-0.04713-0.4049-0.09149-0.47746 c-0.00278-0.0048-0.00925-0.01494-0.02035-0.02775c-0.01203-0.01335-0.02963-0.02885-0.05466-0.0433 c-0.10845-0.06262-0.23399,0.00467-0.23418,0.39613c0.00027,0.23381,0.04994,0.39799,0.09615,0.47375 C26.08128,11.54374,26.09976,11.57574,26.14426,11.60144" class="st5"/></g><g><path d="M21.34135,10.1952c0.13974,0.08068,0.25486,0.19513,0.34353,0.33919 c0.08688,0.14191,0.13473,0.29437,0.13527,0.43018c-0.00073,0.25884-0.17652,0.36433-0.42847,0.4792l0.46443,0.26707 l-0.00079,0.27908l-0.9446-0.5443l0.00064-0.22475l0.14409-0.06191c0.33094-0.13755,0.46861-0.22557,0.46913-0.41091 c-0.00074-0.06658-0.0173-0.11882-0.03394-0.14549c-0.02049-0.03343-0.06599-0.07336-0.12073-0.10497 c-0.00204-0.00118-0.0041-0.00235-0.00617-0.00351c-0.08343-0.04817-0.16788-0.06172-0.25058-0.04012l-0.06133,0.01581 l-0.11508-0.34811l0.01951-0.0058c0.07805-0.02002,0.20712-0.02339,0.38047,0.0767 C21.33828,10.19343,21.33981,10.1943,21.34135,10.1952z" class="st5"/></g><g><path d="M23.27835,12.77202c0.12939,0.21128,0.19553,0.46391,0.19565,0.74885 c0.0005,0.4804-0.16804,0.64876-0.47302,0.47268c-0.07508-0.04335-0.13807-0.09892-0.19083-0.15712 c-0.05091-0.05607-0.09067-0.11317-0.12118-0.16172c-0.13309-0.21661-0.20292-0.47564-0.20673-0.77018 c0.00035-0.45217,0.18098-0.62849,0.47391-0.46043C23.11097,12.53348,23.21643,12.67119,23.27835,12.77202z M22.94428,13.68769 c0.14924,0.08616,0.23414-0.05687,0.23416-0.38974c-0.00024-0.2434-0.04621-0.40544-0.09057-0.47693l-0.02035-0.02668 c-0.01481-0.01709-0.03333-0.03205-0.05558-0.04489c-0.10753-0.06208-0.234,0.00467-0.23418,0.39612 c0.00027,0.23381,0.04994,0.39799,0.09708,0.47428C22.88131,13.62998,22.90071,13.66253,22.94428,13.68769" class="st5"/></g><g><polygon points="24.86 11.795 24.86 13.27 24.564 13.099 24.564 11.983 24.373 11.985 24.298 11.642 24.619 11.656" class="st5"/></g><g><path d="M26.47679,14.1748c0.13032,0.21287,0.19645,0.46551,0.19657,0.75044 c-0.00043,0.47987-0.16804,0.64877-0.47395,0.47215c-0.07416-0.04282-0.13807-0.09892-0.1899-0.15659 c-0.05091-0.05606-0.0916-0.1137-0.12117-0.16171c-0.13403-0.21608-0.20292-0.47564-0.20673-0.77018 c-0.00057-0.45271,0.18098-0.62849,0.47299-0.46097C26.30941,13.93733,26.41579,14.07557,26.47679,14.1748z M26.14364,15.09206 c0.14832,0.08457,0.23415-0.05687,0.23416-0.38974c-0.00024-0.2434-0.04713-0.40596-0.09057-0.47692l-0.02035-0.02669 c-0.01574-0.01762-0.03426-0.03259-0.05651-0.04543c-0.10753-0.06208-0.234,0.00467-0.23325,0.39666 c-0.00066,0.23328,0.04994,0.39799,0.09615,0.47375C26.07974,15.03383,26.10008,15.06691,26.14364,15.09206" class="st5"/></g><g><path d="M22.63379,17.74944c0.13031,0.21287,0.19645,0.46551,0.19657,0.75151 c0.00051,0.47721-0.16802,0.64237-0.473,0.46629c-0.00187-0.00105-0.00373-0.00212-0.00559-0.00319 c-0.07174-0.04142-0.13288-0.09664-0.18431-0.15233c-0.0509-0.05713-0.09159-0.11477-0.1221-0.16438 c-0.13309-0.21553-0.20293-0.47245-0.20675-0.76272c0.00035-0.45217,0.18376-0.62688,0.47948-0.45722 C22.46918,17.51464,22.57371,17.65074,22.63379,17.74944z M22.30712,18.67151c0.14739,0.0851,0.22765-0.05741,0.22768-0.39881 c-0.00025-0.23913-0.04622-0.40011-0.08966-0.47l-0.02127-0.02829c-0.01481-0.01708-0.03334-0.03098-0.05559-0.04383 c-0.11031-0.06369-0.22843,0.00575-0.22766,0.39242c-0.00068,0.23967,0.04806,0.40437,0.09428,0.47906 C22.24137,18.61221,22.26077,18.64475,22.30712,18.67151" class="st5"/></g><g><path d="M21.52147,14.13373c0.13031,0.21287,0.19645,0.46551,0.19657,0.75257 c0.00051,0.47615-0.16802,0.64131-0.473,0.46523c-0.07602-0.04389-0.13992-0.09999-0.19268-0.15819 c-0.05091-0.05607-0.0916-0.1137-0.12117-0.16171c-0.13217-0.21395-0.20108-0.47032-0.20489-0.76272 c0.00035-0.45217,0.18376-0.62688,0.47948-0.45721C21.35686,13.89893,21.4614,14.03503,21.52147,14.13373z M21.19481,15.0558 c0.14739,0.08403,0.22764-0.05742,0.22769-0.39987c-0.00025-0.23914-0.04622-0.39905-0.08966-0.47l-0.02128-0.02722 c-0.01481-0.01708-0.03334-0.03205-0.05559-0.0449c-0.10753-0.06102-0.23399,0.00254-0.23416,0.38974 c0.00026,0.237,0.04992,0.40224,0.09706,0.47854C21.12535,14.99329,21.1466,15.02797,21.19481,15.0558" class="st5"/></g><g><path d="M24.42343,16.29463c0.13032,0.2118,0.19553,0.46391,0.19564,0.75097 c0.00051,0.4772-0.16802,0.64237-0.473,0.46629c-0.07601-0.04388-0.13992-0.09999-0.19268-0.15819 c-0.05091-0.05606-0.0916-0.1137-0.12117-0.16171c-0.13217-0.21501-0.20015-0.46977-0.2049-0.76272 c0.00035-0.45217,0.18377-0.62688,0.47948-0.45722C24.26024,16.06064,24.36285,16.19608,24.42343,16.29463z M24.09028,17.21188 c0.14832,0.08563,0.23415-0.05793,0.23325-0.3956c0.00067-0.23754-0.04622-0.39904-0.08966-0.47 c-0.01756-0.02827-0.04349-0.05285-0.07686-0.07211c-0.10753-0.06208-0.23399,0.00254-0.23416,0.38973 c0.00025,0.23808,0.05085,0.40492,0.09706,0.48067c0.00631,0.00989,0.02583,0.04162,0.06725,0.06553 C24.08818,17.2107,24.08922,17.2113,24.09028,17.21188" class="st5"/></g><g><path d="M26.47727,17.27983c0.12939,0.21127,0.19553,0.46391,0.19565,0.74991 c0.00051,0.47615-0.16802,0.64131-0.473,0.46523c-0.00202-0.00114-0.00402-0.00228-0.00602-0.00343 c-0.07337-0.04236-0.13531-0.09706-0.18666-0.15476c-0.05091-0.055-0.0916-0.11263-0.12117-0.16171 c-0.13217-0.21395-0.20108-0.47032-0.2049-0.76272c0.00035-0.45217,0.18191-0.62795,0.47391-0.45936 C26.31134,17.04319,26.41578,17.17969,26.47727,17.27983z M26.1432,18.19549c0.14924,0.08616,0.23414-0.05793,0.23417-0.39506 c-0.00025-0.23913-0.04622-0.40011-0.08966-0.47l-0.02035-0.02775c-0.01574-0.01656-0.03427-0.03152-0.05651-0.04436 c-0.10753-0.06208-0.23399,0.00253-0.23415,0.38867c0.00025,0.23913,0.05085,0.40491,0.09705,0.48174 C26.08022,18.13886,26.09963,18.17034,26.1432,18.19549" class="st5"/></g><g><path d="M28.36778,9.39741c0.13032,0.21181,0.19553,0.46391,0.19565,0.74885 c0.00053,0.46975-0.17451,0.63862-0.47949,0.46255c-0.07231-0.04175-0.13529-0.09731-0.18712-0.15391 c-0.05091-0.05713-0.09252-0.11637-0.12303-0.16492c-0.13216-0.21607-0.20198-0.4783-0.20211-0.76111 c0.00035-0.45111,0.18191-0.62689,0.47391-0.45936C28.20039,9.15887,28.30585,9.29657,28.36778,9.39741z M28.03372,10.30668 c0.14924,0.08617,0.23414-0.0558,0.23416-0.38974c0.00068-0.23967-0.04714-0.40277-0.09151-0.47533l-0.0222-0.02989 c-0.01574-0.01656-0.03519-0.03206-0.05837-0.04544c-0.11402-0.06583-0.2285,0.03238-0.22861,0.39827 c0.00026,0.23595,0.04901,0.39852,0.0943,0.47268C27.96796,10.24737,27.9883,10.28045,28.03372,10.30668" class="st5"/></g><g><path d="M29.61821,13.09286c0.13032,0.21181,0.19646,0.46445,0.19657,0.75045 c-0.0004,0.46815-0.17544,0.63702-0.47949,0.46255c-0.07323-0.04228-0.13621-0.09785-0.18805-0.15551 c-0.05091-0.05606-0.0916-0.1137-0.1221-0.16332c-0.13217-0.21501-0.20477-0.47885-0.2086-0.76486 c0.00035-0.45217,0.18377-0.62688,0.47947-0.45615C29.45082,12.85539,29.55629,12.99203,29.61821,13.09286z M29.28508,14.00267 c0.14647,0.08456,0.22764-0.05528,0.22767-0.39242c-0.00006-0.30731-0.06745-0.44118-0.08871-0.47586 c-0.01663-0.02774-0.04349-0.05285-0.07779-0.07265c-0.1131-0.06423-0.22851,0.03237-0.22769,0.3988 c-0.00067,0.23541,0.04808,0.39905,0.09337,0.47214C29.2184,13.9439,29.23873,13.97591,29.28508,14.00267" class="st5"/></g><g><path d="M31.04774,11.26049c0.13032,0.21074,0.19553,0.46284,0.19565,0.74885 c0.00052,0.46975-0.17451,0.63863-0.47949,0.46255c-0.07231-0.04175-0.13529-0.09731-0.18712-0.15391 c-0.05091-0.05713-0.09252-0.1153-0.1221-0.16438c-0.13309-0.21448-0.20477-0.47884-0.2086-0.7638 c-0.00058-0.4527,0.18376-0.62688,0.47948-0.45721C30.88035,11.02195,30.98581,11.15966,31.04774,11.26049z M30.71368,12.16976 c0.14553,0.08295,0.22858-0.06008,0.22859-0.39295c-0.00024-0.24233-0.04713-0.40491-0.09149-0.47746 c-0.00278-0.0048-0.00924-0.01494-0.02035-0.02668c-0.01204-0.01335-0.02963-0.02991-0.05466-0.04436 c-0.13905-0.07922-0.22863,0.07712-0.22861,0.39934c0.00026,0.23594,0.04901,0.39852,0.0943,0.47268 C30.64792,12.11045,30.66733,12.143,30.71368,12.16976" class="st5"/></g><g><polygon points="32.436 13.711 32.437 15.191 32.147 15.024 32.147 13.902 31.946 13.897 31.881 13.568 32.195 13.573" class="st5"/></g><g><polygon points="33.865 12.32 33.865 13.801 33.575 13.634 33.574 12.511 33.373 12.506 33.31 12.177 33.624 12.181" class="st5"/></g><g><polygon points="35.281 14.91 35.281 16.39 34.992 16.224 34.991 15.101 34.79 15.096 34.727 14.767 35.041 14.771" class="st5"/></g><g><polygon points="37.857 15.672 37.857 17.153 37.562 16.983 37.562 15.864 37.371 15.858 37.296 15.526 37.617 15.534" class="st5"/></g><g><polygon points="39.679 19.37 39.68 20.851 39.384 20.68 39.384 19.561 39.193 19.557 39.118 19.224 39.438 19.231" class="st5"/></g><g><path d="M40.69403,16.18716c0.13032,0.21181,0.19645,0.46444,0.19657,0.75044 c0.00051,0.47614-0.16802,0.6413-0.473,0.46522c-0.00189-0.00106-0.00378-0.00215-0.00566-0.00323 c-0.07265-0.04194-0.13464-0.09767-0.18517-0.15389c-0.05091-0.05606-0.0916-0.1137-0.1221-0.16225 c-0.13217-0.21501-0.20201-0.47192-0.20582-0.76325c0.00035-0.45217,0.18098-0.62849,0.47392-0.46043 C40.52757,15.94916,40.63303,16.08686,40.69403,16.18716z M40.3609,17.09697c0.14924,0.08616,0.23415-0.0558,0.23416-0.38867 c-0.00024-0.24339-0.04713-0.40597-0.0915-0.47746c-0.00277-0.00587-0.00924-0.016-0.02035-0.02775 c-0.01203-0.01335-0.02962-0.02884-0.05466-0.04329c-0.10845-0.06262-0.23399,0.0036-0.23417,0.39506 c0.00027,0.23381,0.04994,0.39799,0.09708,0.47428C40.29792,17.04033,40.31733,17.07181,40.3609,17.09697" class="st5"/></g><g><path d="M28.54831,16.45906c0.12939,0.21127,0.19553,0.46391,0.19565,0.74991 c0.0005,0.4804-0.16804,0.6477-0.47302,0.47269c-0.07508-0.04335-0.13899-0.10052-0.19175-0.15872 c-0.05276-0.05713-0.09345-0.11583-0.12395-0.16545c-0.13494-0.21981-0.20292-0.47671-0.20303-0.76591 c0.00035-0.45217,0.18191-0.62795,0.47391-0.45936C28.38235,16.2224,28.48681,16.35997,28.54831,16.45906z M28.21424,17.37472 c0.14924,0.08616,0.23414-0.0558,0.23416-0.38867c-0.00024-0.2434-0.04621-0.40544-0.08964-0.47639l-0.02127-0.02829 c-0.01481-0.01708-0.03334-0.03099-0.05559-0.04383c-0.10753-0.06208-0.234,0.00467-0.23417,0.39506 c0.00026,0.23381,0.04994,0.39799,0.09708,0.47428C28.15126,17.31808,28.17067,17.34956,28.21424,17.37472" class="st5"/></g><g><polygon points="30.13 15.484 30.13 16.957 29.834 16.788 29.834 15.671 29.642 15.672 29.568 15.33 29.889 15.344" class="st5"/></g><g><polygon points="28.04 13.325 28.04 14.799 27.745 14.629 27.745 13.514 27.554 13.514 27.479 13.172 27.8 13.187" class="st5"/></g><g><path d="M31.74675,17.8629c0.13032,0.21181,0.19646,0.46445,0.19658,0.75045 c-0.00043,0.47987-0.16804,0.6477-0.47395,0.47108c-0.00197-0.00111-0.00393-0.00222-0.00588-0.00335 c-0.07166-0.04137-0.13357-0.09603-0.18402-0.15217c-0.05091-0.05606-0.0916-0.1137-0.12117-0.16278 c-0.13309-0.21554-0.20293-0.47458-0.20673-0.77018c-0.00058-0.45271,0.18098-0.62848,0.47298-0.4599 C31.58171,17.62678,31.68617,17.76435,31.74675,17.8629z M31.41361,18.77909c0.14832,0.08563,0.23414-0.0558,0.23416-0.38867 c-0.00024-0.2434-0.04713-0.40597-0.09057-0.47693l-0.02035-0.02776c-0.01573-0.01762-0.03426-0.03152-0.05558-0.04383 c-0.10846-0.06262-0.234,0.00467-0.23417,0.39506c0.00026,0.23381,0.04994,0.39799,0.09615,0.47374 C31.3497,18.72193,31.37004,18.75394,31.41361,18.77909" class="st5"/></g><g><path d="M33.01002,16.69098c0.13886,0.08018,0.25488,0.19514,0.34356,0.3392 c0.08688,0.14191,0.13473,0.29437,0.13435,0.42965c0.00019,0.25937-0.17652,0.36433-0.42847,0.4792l0.46442,0.26707 l-0.00079,0.27908l-0.94368-0.54377l-0.00029-0.22529l0.1441-0.06191c0.33094-0.13754,0.46953-0.22504,0.46913-0.41091 c0.00019-0.06604-0.01731-0.11775-0.03394-0.14549c-0.02055-0.03248-0.06621-0.07348-0.12113-0.10519 c-0.00191-0.0011-0.00384-0.0022-0.00577-0.00328c-0.08343-0.04817-0.16788-0.06172-0.25058-0.04012l-0.06041,0.0174 l-0.116-0.34971l0.02044-0.0042c0.07713-0.02162,0.2062-0.02498,0.38047,0.07563 C33.00697,16.68922,33.00848,16.69009,33.01002,16.69098z" class="st5"/></g><g><path d="M35.90595,21.64589c0.14183,0.08189,0.2585,0.19619,0.34815,0.34291 c0.08688,0.14191,0.13472,0.29437,0.13434,0.42965c0.00019,0.25937-0.17652,0.36433-0.42754,0.47867l0.4635,0.26653 l0.00013,0.27961l-0.94461-0.54323l-0.00029-0.22529l0.14502-0.06137c0.33001-0.13915,0.46861-0.22664,0.4682-0.41145 c0.00019-0.06604-0.0173-0.11882-0.03394-0.14549c-0.02125-0.03468-0.06849-0.07582-0.12597-0.109 c-0.08343-0.04817-0.16789-0.06066-0.25059-0.03905l-0.06133,0.0158l-0.11507-0.34811l0.01951-0.00581 C35.60353,21.55024,35.7326,21.54688,35.90595,21.64589z" class="st5"/></g><g><path d="M34.94612,19.26728c0.13032,0.21181,0.19553,0.4639,0.19565,0.74884 c0.0005,0.4804-0.16804,0.6477-0.47302,0.47268c-0.07508-0.04335-0.13807-0.09892-0.19083-0.15711 c-0.05091-0.05607-0.09068-0.11317-0.12118-0.16172c-0.13309-0.2166-0.20292-0.47564-0.20673-0.77018 c0.00035-0.45217,0.18191-0.62795,0.47392-0.46043C34.77874,19.02875,34.8842,19.16645,34.94612,19.26728z M34.61205,20.18294 c0.14925,0.0851,0.23415-0.05686,0.23416-0.38973c-0.00024-0.2434-0.0462-0.40544-0.08964-0.47639l-0.02128-0.02722 c-0.01481-0.01708-0.03334-0.03205-0.05558-0.04489c-0.10754-0.06102-0.234,0.00467-0.23418,0.39612 c0.00027,0.23381,0.04994,0.39799,0.09708,0.47429C34.54907,20.12525,34.56848,20.15779,34.61205,20.18294" class="st5"/></g><g><polygon points="36.527 18.291 36.528 19.765 36.232 19.595 36.232 18.478 36.04 18.48 35.966 18.138 36.286 18.152" class="st5"/></g><g><path d="M38.14456,20.67006c0.13032,0.21287,0.19645,0.46551,0.19657,0.75045 c-0.00043,0.48093-0.16804,0.64876-0.47395,0.47215c-0.07416-0.04282-0.13807-0.09892-0.1899-0.15658 c-0.05091-0.05606-0.0916-0.1137-0.12117-0.16171c-0.13309-0.21554-0.20292-0.47565-0.20673-0.77018 c-0.00058-0.45271,0.18098-0.62849,0.47298-0.46097C37.9781,20.43313,38.08356,20.57083,38.14456,20.67006z M37.81141,21.58733 c0.14832,0.08457,0.23415-0.05687,0.23416-0.38974c-0.00024-0.24339-0.04713-0.40597-0.09057-0.47692l-0.02035-0.02669 c-0.01574-0.01762-0.03426-0.03258-0.05559-0.0449c-0.10845-0.06262-0.23399,0.00467-0.23417,0.39613 c0.00026,0.23381,0.04994,0.39799,0.09615,0.47375C37.74751,21.52909,37.76785,21.56217,37.81141,21.58733" class="st5"/></g><g><path d="M26.96483,20.52524c0.13032,0.2118,0.19552,0.4639,0.19564,0.7499 c0.00051,0.47614-0.16987,0.64023-0.47949,0.46255c-0.07323-0.04228-0.13714-0.09838-0.18897-0.15605 c-0.05184-0.0566-0.09253-0.1153-0.1221-0.16438c-0.13309-0.21661-0.20108-0.47245-0.20119-0.75951 c0.00035-0.45217,0.18191-0.62795,0.47391-0.45936C26.79886,20.28857,26.90332,20.42615,26.96483,20.52524z M26.63075,21.44089 c0.14924,0.08616,0.23507-0.05739,0.23417-0.39506c-0.00008-0.29878-0.06841-0.43426-0.08967-0.46787 c-0.01848-0.03094-0.04626-0.05658-0.08242-0.07746c-0.10568-0.06101-0.22843,0.00575-0.2286,0.39295 c0.00025,0.23913,0.04899,0.40491,0.09428,0.478C26.56499,21.38266,26.58533,21.41467,26.63075,21.44089" class="st5"/></g><g><path d="M29.612,21.50732c0.13032,0.21181,0.19646,0.46444,0.19657,0.74938 c-0.00042,0.47561-0.16987,0.6413-0.47949,0.46254c-0.07416-0.04282-0.13714-0.09838-0.1899-0.15658 c-0.05091-0.05606-0.0916-0.1137-0.1221-0.16331c-0.13309-0.21554-0.20201-0.47192-0.20675-0.76272 c0.00035-0.45217,0.18377-0.62688,0.48041-0.45668C29.44554,21.26931,29.551,21.40701,29.612,21.50732z M29.27885,22.42351 c0.14739,0.08403,0.22857-0.05688,0.22769-0.39987c-0.00007-0.30305-0.06655-0.43425-0.08688-0.46839l-0.02035-0.02668 c-0.01574-0.01762-0.03519-0.03312-0.0593-0.04704c-0.10475-0.06048-0.2275,0.00628-0.22767,0.39348 c0.00025,0.2402,0.04899,0.40491,0.09428,0.47907C29.2131,22.36421,29.2325,22.39675,29.27885,22.42351" class="st5"/></g><g><path d="M31.54964,22.24152c0.13031,0.21287,0.19646,0.46444,0.19657,0.75044 c-0.00042,0.47668-0.1708,0.6397-0.47949,0.46255c-0.07416-0.04282-0.13714-0.09838-0.1899-0.15658 c-0.05091-0.05606-0.09159-0.11476-0.1221-0.16331c-0.13309-0.21554-0.20293-0.47351-0.20675-0.76272 c0.00035-0.45217,0.18376-0.62795,0.47948-0.45722C31.38368,22.00486,31.48905,22.14297,31.54964,22.24152z M31.21649,23.15772 c0.14739,0.08509,0.22764-0.05742,0.22768-0.39881c0.00068-0.2386-0.04622-0.39904-0.08966-0.47l-0.02035-0.02775 c-0.01573-0.01655-0.03426-0.03152-0.05651-0.04437c-0.11031-0.06369-0.22843,0.00575-0.22767,0.39348 c0.00025,0.2402,0.04899,0.40385,0.09428,0.47907C31.15073,23.09948,31.17014,23.13095,31.21649,23.15772" class="st5"/></g><g><polygon points="32.436 19.916 32.437 21.391 32.148 21.224 32.147 20.104 31.946 20.105 31.882 19.767 32.195 19.778" class="st5"/></g><g><path d="M33.80699,23.79914c0.13032,0.21287,0.19553,0.46497,0.19564,0.75097 c0.0005,0.47721-0.16803,0.64237-0.47301,0.46629c-0.00196-0.0011-0.00392-0.00222-0.00587-0.00335 c-0.07161-0.04135-0.13267-0.09551-0.18402-0.15216c-0.05091-0.05607-0.09159-0.11477-0.1221-0.16332 c-0.13309-0.2166-0.20293-0.47351-0.20675-0.76378c0.00035-0.45217,0.18377-0.62688,0.47947-0.45615 C33.6438,23.56621,33.74641,23.70164,33.80699,23.79914z M33.4794,24.72066c0.14739,0.0851,0.22858-0.05688,0.22769-0.3988 c0.00068-0.2386-0.04622-0.40011-0.08966-0.47l-0.02035-0.02775c-0.01574-0.01656-0.03426-0.03152-0.05651-0.04437 c-0.11031-0.06369-0.22843,0.00575-0.22767,0.39241c0.00025,0.2402,0.04807,0.40438,0.09428,0.47907 C33.41365,24.66243,33.43305,24.69391,33.4794,24.72066" class="st5"/></g><g><path d="M35.90356,25.25807c0.13032,0.21288,0.19646,0.46551,0.19657,0.75258 c-0.00042,0.47561-0.16802,0.6413-0.47393,0.46576c-0.07508-0.04335-0.13992-0.10105-0.19267-0.15926 c-0.05091-0.05607-0.09068-0.11317-0.12118-0.16172c-0.13124-0.21341-0.20015-0.46978-0.20396-0.76218 c-0.00057-0.45271,0.18376-0.62689,0.47947-0.45722C35.73896,25.02327,35.84257,25.15884,35.90356,25.25807z M35.57598,26.17961 c0.14739,0.08403,0.22857-0.05688,0.22861-0.39827c-0.00025-0.23913-0.04622-0.4001-0.08966-0.47l-0.02128-0.02829 c-0.0148-0.01708-0.03426-0.03152-0.05558-0.04383c-0.10846-0.06262-0.23399,0.00147-0.23415,0.38867 c0.00026,0.23701,0.04993,0.40225,0.09706,0.47854C35.50744,26.11763,35.5287,26.15231,35.57598,26.17961" class="st5"/></g><g><path d="M40.91594,28.43727c0.13032,0.21287,0.19645,0.46551,0.19656,0.75257 c-0.00042,0.47561-0.16802,0.64131-0.47393,0.46576c-0.07601-0.04388-0.13992-0.09999-0.19268-0.15819 c-0.05091-0.05713-0.09068-0.11316-0.12118-0.16278c-0.13124-0.21341-0.20015-0.46978-0.20396-0.76219 c-0.00058-0.45271,0.18283-0.62741,0.47947-0.45615C40.75275,28.20434,40.85536,28.33978,40.91594,28.43727z M40.58279,29.35559 c0.14832,0.08563,0.23415-0.05793,0.23417-0.39506c-0.00025-0.23913-0.04622-0.40011-0.08966-0.47 c-0.01756-0.02828-0.04349-0.05285-0.07686-0.07212c-0.10845-0.06262-0.23492,0.002-0.23415,0.38867 c0.00025,0.23807,0.04992,0.40438,0.09706,0.48067C40.51981,29.29896,40.53922,29.33044,40.58279,29.35559" class="st5"/></g><g><path d="M39.55898,25.35627c0.13032,0.21181,0.19646,0.46444,0.19658,0.75044 c-0.00042,0.47561-0.16802,0.6413-0.47393,0.46469c-0.00191-0.00107-0.00383-0.00217-0.00573-0.00327 c-0.07351-0.04244-0.13552-0.09819-0.18695-0.15492c-0.05091-0.055-0.09068-0.11317-0.12117-0.16172 c-0.13124-0.21341-0.20016-0.46978-0.20396-0.76218c-0.00058-0.45271,0.18098-0.62849,0.47391-0.45936 C39.39398,25.12016,39.49841,25.25666,39.55898,25.35627z M39.22585,26.27246c0.14924,0.08617,0.23414-0.05792,0.23417-0.39507 c-0.00024-0.23913-0.04622-0.4001-0.08966-0.47l-0.02128-0.02829c-0.01481-0.01709-0.03427-0.03152-0.05558-0.04383 c-0.10846-0.06262-0.23399,0.00254-0.23416,0.38867c0.00026,0.23807,0.04992,0.40438,0.09706,0.48068 C39.16287,26.21477,39.18227,26.2473,39.22585,26.27246" class="st5"/></g></g><g><polygon points="38.293 36.545 38.295 37.121 39.52 36.414 39.518 35.838" class="st11"/></g><g><polygon points="40.5 35.271 40.501 35.847 41.726 35.14 41.725 34.564" class="st11"/></g><g><path d="M37.09007,45.11707l-0.17049-0.29274l7.90591-4.59427c0.05022-0.02874,0.0674-0.05617,0.0674-0.0641 c0-0.00859-0.01784-0.03767-0.06939-0.06806l-6.0445-3.48943l0.16917-0.29274l6.04516,3.48976 c0.15199,0.08822,0.23789,0.22005,0.23789,0.36146c-0.00066,0.14042-0.08657,0.27027-0.23591,0.35617L37.09007,45.11707z" class="st11"/></g><g><g><g class="st8"><path d="M39.03005,43.75431c-1.16285-0.66639-2.7961-0.83914-4.05831-0.33761 c-0.25606,0.10174-0.47832,0.26933-0.68525,0.45126c-0.54656,0.48052-1.55189,1.01761-2.91469,1.59881 c-1.29353,0.74963-0.83786,1.71242,0.46303,2.46945c0.56959,0.32705,1.20719,0.56223,1.85303,0.66052 c0.82775,0.12598,1.58793-0.38469,1.93201-1.14801c0.19068-0.42301,0.65536-0.84105,1.57955-1.19793 c0.71708-0.27688,1.4268-0.47704,1.86766-0.33808c0.43406,0.13683,0.91706-0.06195,1.02638-0.50373 C40.2349,44.83751,39.84582,44.23015,39.03005,43.75431z" class="st13"/><g><path d="M40.12126,45.1871c-0.00087,0.07431-0.00961,0.14841-0.02779,0.2219 c-0.10932,0.44178-0.59232,0.64055-1.02638,0.50373c-0.44086-0.13896-1.15058,0.0612-1.86766,0.33808 c-0.92419,0.35688-1.38887,0.77492-1.57955,1.19793c-0.34409,0.76332-1.10427,1.27399-1.93201,1.14801 c-0.64585-0.0983-1.28345-0.33347-1.85303-0.66052c-0.7607-0.44268-1.22868-0.95559-1.2306-1.45522 c-0.00043-0.00231-0.00412-0.00396-0.00412-0.00635v0.35622c0,0.49976,0.47039,1.01424,1.23473,1.45523 c1.30825,0.75699,2.96921,1.0142,4.2701,0.26458l3.14563-1.83004c0.59533-0.34544,0.86724-0.76438,0.87461-1.19062v-0.34892 C40.12516,45.18298,40.12164,45.18518,40.12126,45.1871z" class="st5"/></g></g></g><g><g class="st8"><g><path d="M37.77395,44.2956c-0.16143-0.09417-0.38678-0.08072-0.63397,0.06222 c-0.36156,0.20853-0.67099,0.63399-0.81224,1.07122l-0.47422-0.27579c0.14126-0.43724,0.45068-0.86269,0.81224-1.07121 c0.24888-0.14295,0.47255-0.15639,0.63398-0.06222L37.77395,44.2956z" class="st5"/></g><g><path d="M37.14035,44.35719c0.36075-0.20828,0.67175-0.14068,0.81448,0.13281l-1.62661,0.93913 C36.46893,44.99199,36.77852,44.56609,37.14035,44.35719z" class="st1"/></g></g></g></g></g></g></svg>