<svg xmlns="http://www.w3.org/2000/svg" xmlns:xlink="http://www.w3.org/1999/xlink" id="Layer_1" version="1.1" viewBox="0 0 50 50" xml:space="preserve" style="enable-background:new 0 0 50 50"><style type="text/css">.st2{fill:#fff}.st5{fill:#aabafd}.st6{fill:#798ffe}.st8{enable-background:new}.st9{fill:#1b2a4f}.st11{fill:#384e85}.st12{fill:#2e4277}.st13{fill:#d9ddf6}</style><g><g><g><g><g><g><g><path d="M2.76942,37.70081l17.41666,10.12146c0.36913,0.21532,0.96382,0.21532,1.33295,0.00342L47.98306,32.5447 c0.36913-0.2119,0.36913-0.5571,0-0.77242L30.56639,21.65084c-0.36571-0.2119-0.9604-0.2119-1.32953,0L2.77284,36.92841 C2.40371,37.14373,2.40029,37.48891,2.76942,37.70081z" class="st5"/></g><g><path d="M23.35059,38.72942c-0.20812,0.12016-0.2069,0.31592-0.00012,0.43608l4.29328,2.49498 c0.20676,0.12016,0.54473,0.12151,0.75285,0.00135l8.46034-4.88458c0.20812-0.12016,0.20689-0.31592,0.00012-0.43608 l-4.29328-2.49498c-0.20677-0.12016-0.54473-0.12151-0.75284-0.00135L23.35059,38.72942z" class="st12"/></g><g><path d="M2.496,37.31802l0.00342,1.0188c0,0.13672,0.09227,0.27684,0.27342,0.38279L20.1895,48.84107 c0.36913,0.2119,0.96382,0.2119,1.33295,0L47.98648,33.5635c0.18456-0.10595,0.27684-0.24607,0.27684-0.38963 l-0.00342-1.01538c0,0.14014-0.09227,0.28026-0.27684,0.38621L21.51903,47.82569 c-0.36913,0.2119-0.96382,0.2119-1.33295-0.00342L2.76942,37.70081C2.58487,37.59486,2.496,37.45816,2.496,37.31802z" class="st6"/></g></g><g><g><path d="M29.18533,1.49765c0.36878-0.21291,0.6687-0.042,0.66991,0.38176l0.04718,18.61863 c0.00119,0.42126-0.29678,0.93988-0.66556,1.15279L3.1542,36.70825c-0.36878,0.21291-0.66871,0.0395-0.66991-0.38176 L2.43711,17.70786c-0.0012-0.42376,0.29678-0.93988,0.66556-1.15279L29.18533,1.49765z" class="st9"/></g><g><path d="M1.73668,17.30204l0.04785,18.61792c0,0.20848,0.0752,0.35886,0.19482,0.42723L2.67889,36.754 c-0.11964-0.06834-0.19482-0.21872-0.19482-0.42723l-0.04785-18.6179c0-0.42383,0.29735-0.9399,0.66648-1.15522 L29.18548,1.49794c0.18457-0.10595,0.35204-0.11619,0.47508-0.04785l-0.69954-0.40681 c-0.11962-0.06836-0.2905-0.05812-0.47506,0.04783L2.40316,16.15025C2.03403,16.36215,1.73668,16.87824,1.73668,17.30204z" class="st11"/></g><g><polygon points="3.378 17.481 3.424 35.468 28.961 20.725 28.916 2.738" class="st11"/></g><g><polygon points="3.378 17.481 3.386 20.498 28.923 5.755 28.916 2.738" class="st5"/></g><g><g><path d="M24.70504,6.30753c0.2462-0.14214,0.44634-0.03296,0.44714,0.24993 c0.0008,0.28288-0.19805,0.62733-0.44425,0.76948c-0.24195,0.13969-0.44211,0.02561-0.44291-0.25727 C24.26421,6.78677,24.46308,6.44722,24.70504,6.30753z" class="st2"/></g><g><path d="M26.12703,5.48654c0.24195-0.13969,0.44209-0.03051,0.4429,0.25238 c0.0008,0.28288-0.19805,0.62733-0.44001,0.76702c-0.2462,0.14214-0.44635,0.02806-0.44715-0.25482 C25.68197,5.96823,25.88083,5.62868,26.12703,5.48654z" class="st2"/></g><g><path d="M27.54478,4.668c0.2462-0.14214,0.44634-0.03296,0.44714,0.24993 c0.0008,0.28288-0.19805,0.62733-0.44425,0.76948c-0.2462,0.14214-0.44635,0.02806-0.44715-0.25483 C27.09972,5.14969,27.29859,4.81014,27.54478,4.668z" class="st2"/></g></g></g></g><g><g><polygon points="8.11 36.451 6.439 37.423 5.719 37.007 7.39 36.036" class="st11"/></g><g><polygon points="26.098 25.998 24.424 26.971 23.704 26.555 25.378 25.583" class="st11"/></g><g><polygon points="30.594 23.385 28.921 24.358 28.2 23.942 29.874 22.969" class="st11"/></g><g><polygon points="27.594 29.468 25.922 30.44 24.436 29.582 26.108 28.61" class="st11"/></g><g><polygon points="35.839 29.019 34.165 29.992 32.677 29.133 34.351 28.16" class="st11"/></g><g><polygon points="38.089 27.712 36.415 28.685 33.052 26.743 34.726 25.77" class="st11"/></g><g class="st8"><g><polygon points="32.469 24.467 29.382 26.261 27.893 25.401 30.98 23.608" class="st11"/></g><g><polygon points="28.809 26.594 27.135 27.567 25.646 26.707 27.32 25.734" class="st11"/></g><g><polygon points="34.341 25.548 30.417 27.828 28.931 26.97 32.854 24.69" class="st11"/></g><g><polygon points="29.844 28.161 28.17 29.134 26.683 28.276 28.357 27.303" class="st11"/></g><g><polygon points="31.718 29.243 30.044 30.216 28.555 29.356 30.229 28.384" class="st11"/></g></g><g><polygon points="26.559 27.901 24.885 28.874 23.397 28.015 25.071 27.042" class="st11"/></g><g><polygon points="23.848 27.306 22.176 28.277 21.456 27.861 23.128 26.89" class="st11"/></g><g><polygon points="21.601 28.612 19.927 29.584 19.207 29.169 20.881 28.196" class="st11"/></g><g><polygon points="22.724 34.47 21.05 35.443 19.562 34.583 21.236 33.61" class="st11"/></g><g class="st8"><g><polygon points="19.351 29.919 17.68 30.89 16.959 30.475 18.631 29.503" class="st11"/></g><g><polygon points="22.062 30.515 20.391 31.486 18.902 30.627 20.574 29.655" class="st11"/></g><g><polygon points="17.104 31.225 15.43 32.198 14.71 31.782 16.384 30.809" class="st11"/></g><g><polygon points="19.815 31.821 18.141 32.793 16.652 31.934 18.326 30.961" class="st11"/></g><g><polygon points="23.097 32.082 21.426 33.053 19.939 32.195 21.611 31.223" class="st11"/></g><g><polygon points="14.857 32.531 13.183 33.504 12.463 33.088 14.137 32.115" class="st11"/></g><g><polygon points="17.568 33.126 15.894 34.099 14.405 33.24 16.079 32.267" class="st11"/></g><g><polygon points="24.972 33.164 23.3 34.135 21.811 33.276 23.483 32.304" class="st11"/></g><g><polygon points="20.85 33.388 19.176 34.36 17.69 33.502 19.364 32.529" class="st11"/></g><g><polygon points="12.607 33.838 10.933 34.811 10.213 34.395 11.887 33.422" class="st11"/></g><g><polygon points="15.318 34.434 13.644 35.407 12.156 34.547 13.83 33.574" class="st11"/></g><g><polygon points="18.603 34.694 16.929 35.666 15.442 34.808 17.116 33.835" class="st11"/></g><g><polygon points="13.071 35.74 11.397 36.713 9.908 35.853 11.582 34.88" class="st11"/></g><g><polygon points="20.477 35.776 18.803 36.748 17.314 35.889 18.988 34.916" class="st11"/></g><g><polygon points="16.353 36.001 14.679 36.974 13.193 36.116 14.867 35.143" class="st11"/></g><g><polygon points="18.227 37.083 16.553 38.056 15.065 37.196 16.739 36.223" class="st11"/></g><g><polygon points="26.942 34.19 18.428 39.138 16.939 38.278 25.453 33.33" class="st11"/></g><g><polygon points="15.98 38.389 14.306 39.362 12.818 38.502 14.491 37.529" class="st11"/></g><g><polygon points="14.106 37.307 10.185 39.586 8.698 38.727 12.62 36.449" class="st11"/></g><g><polygon points="13.731 39.696 12.059 40.668 10.57 39.808 12.242 38.837" class="st11"/></g><g><polygon points="17.854 39.471 13.933 41.75 12.444 40.89 16.366 38.611" class="st11"/></g></g><g><polygon points="10.36 35.144 8.686 36.117 7.966 35.701 9.64 34.728" class="st11"/></g><g><polygon points="28.345 24.692 26.671 25.665 25.951 25.249 27.625 24.277" class="st11"/></g><g><polygon points="24.312 29.207 22.638 30.18 21.149 29.321 22.823 28.348" class="st11"/></g><g><polygon points="29.095 32.939 27.421 33.911 25.933 33.052 27.607 32.079" class="st11"/></g><g><polygon points="27.221 31.856 25.547 32.829 24.058 31.97 25.732 30.997" class="st11"/></g><g><polygon points="25.347 30.774 23.673 31.747 22.187 30.889 23.86 29.916" class="st11"/></g><g><polygon points="33.592 30.325 31.918 31.298 30.429 30.439 32.103 29.466" class="st11"/></g><g><polygon points="31.343 31.633 29.671 32.604 28.182 31.745 29.854 30.773" class="st11"/></g><g><polygon points="10.822 37.047 8.313 38.505 6.824 37.645 9.333 36.188" class="st11"/></g></g></g></g></g><g><g><path d="M5.75239,22.23503c0.32412-0.18713,0.51549-0.14618,0.65245-0.02211l-0.18398,0.29829 c-0.11766-0.11859-0.26871-0.10895-0.45323-0.00241c-0.37547,0.21677-0.6136,0.68853-0.61231,1.14209 c0.00128,0.45172,0.24132,0.6511,0.61678,0.43432c0.18452-0.10653,0.33512-0.27658,0.45173-0.52675l0.18507,0.08706 c-0.13581,0.2834-0.32632,0.54483-0.65044,0.73196c-0.5295,0.30571-0.88704,0.04305-0.88875-0.5617 C4.868,23.21103,5.22289,22.54074,5.75239,22.23503z" class="st13"/></g><g><path d="M6.94609,23.21718c0.10911-0.06299,0.20248-0.00979,0.20283,0.11559 c0.00036,0.12721-0.09241,0.28604-0.20152,0.34903c-0.11071,0.06392-0.20247,0.01163-0.20283-0.11558 C6.74422,23.44084,6.83538,23.2811,6.94609,23.21718z" class="st13"/></g><g><ellipse cx="6.942" cy="21.801" class="st13" rx=".285" ry=".165" transform="matrix(0.50245 -0.8646 0.8646 0.50245 -15.39538 16.84926)"/></g><g><polygon points="7.56 20.379 8.44 22.863 8.223 22.988 7.343 20.504" class="st13"/></g><g><polygon points="9.274 19.103 10.81 19.98 9.284 22.624 9.038 22.484 10.322 20.261 9.03 19.527" class="st13"/></g><g><polygon points="12.525 19.983 12.527 20.643 10.921 21.571 10.919 20.911" class="st13"/></g></g></g></svg>