<svg xmlns="http://www.w3.org/2000/svg" xmlns:xlink="http://www.w3.org/1999/xlink" id="Layer_1" version="1.1" viewBox="0 0 50 50" xml:space="preserve" style="enable-background:new 0 0 50 50"><style type="text/css">.st0{fill:#b7c5fd}.st2{fill:#fff}.st5{fill:#aabafd}.st7{fill:#6bb5fb}.st8{enable-background:new}.st9{fill:#1b2a4f}.st11{fill:#384e85}.st12{fill:#2e4277}</style><g><g><g><g><path d="M22.42982,17.96816l16.98163-9.80408c0.50977-0.29547,0.97156-0.32135,1.30774-0.12927L28.82001,1.12472 c-0.3324-0.1958-0.79419-0.16626-1.30395,0.12561l-16.98169,9.80401c-0.45355,0.26154-0.86316,0.69476-1.18274,1.19385 l11.89807,6.90948C21.56891,18.66066,21.97748,18.22902,22.42982,17.96816z" class="st0"/><path d="M20.6012,21.13399c-0.00201-0.64362,0.25336-1.36115,0.6485-1.97632L9.35163,12.24819 c-0.39362,0.61475-0.64789,1.33142-0.64581,1.97571l0.04065,26.56305c0,0.57996,0.20685,0.98633,0.53564,1.17841 l11.57373,6.72332l0.07117-0.04108c-0.17603-0.22192-0.28253-0.53918-0.28516-0.94684L20.6012,21.13399z" class="st5"/></g><g><path d="M19.28674,20.3685l0.04065,26.56307c0,0.57997,0.20687,0.98631,0.53562,1.17841l1.31449,0.76551 c-0.32878-0.1921-0.53195-0.59844-0.53564-1.17471c0,0,19.74112-39.85804,20.0773-39.66596l-1.31819-0.76551 c-0.33245-0.19577-0.79421-0.16624-1.304,0.12561l-16.98166,9.80406C20.10314,17.78265,19.28304,19.20116,19.28674,20.3685z" class="st11"/></g><g><path d="M8.70581,14.2239l0.04065,26.56307c0,0.57997,0.20687,0.98631,0.53562,1.17841l1.31449,0.76551 c-0.32878-0.1921-0.53195-0.59844-0.53565-1.17471L10.02031,14.9894c-0.0037-1.16362,0.8164-2.58215,1.82857-3.16582 l16.98164-9.80406c0.50978-0.29552,0.97154-0.32138,1.30772-0.12931l-1.31819-0.76551 c-0.33245-0.19577-0.79421-0.16624-1.304,0.12561l-16.98166,9.80406C9.52221,11.63805,8.70212,13.05656,8.70581,14.2239z" class="st11"/></g><g><path d="M22.43035,17.96743c-1.01181,0.58417-1.83227,2.00254-1.82897,3.1679l0.04144,26.56413 c0.00331,1.16536,0.82911,1.63326,1.84092,1.04909l16.98148-9.80426c1.01181-0.58417,1.83227-2.00254,1.82896-3.1679 L41.25275,9.21226c-0.0033-1.16536-0.82911-1.63326-1.84092-1.04909L22.43035,17.96743z" class="st12"/></g></g><g><g><path d="M26.83031,30.54027l0.83623,1.12562l-0.90277,0.52122l-0.72463-1.08328l-0.57196,0.33022l0.00425,1.49919 l-0.78221,0.45161l-0.01196-4.21695l1.7159-0.99068c0.76365-0.44089,1.23831-0.13847,1.24054,0.64666 C27.6358,29.56282,27.22575,30.20523,26.83031,30.54027z M26.29042,30.16876c0.30608-0.17672,0.54353-0.53085,0.54251-0.88969 c-0.00099-0.34814-0.23966-0.42386-0.54574-0.24715l-0.82548,0.47659l0.00322,1.13684L26.29042,30.16876" class="st11"/></g><g><path d="M30.52677,25.79068l1.42178,3.40299l-0.88423,0.51051l-0.2339-0.5802l-1.57059,0.90678l-0.22986,0.84796 l-0.88423,0.51051l1.40096-5.03269L30.52677,25.79068z M29.47092,29.11536l1.14393-0.66045l-0.57711-1.48159L29.47092,29.11536" class="st11"/></g><g><polygon points="33.365 24.152 33.377 28.369 32.598 28.819 32.586 24.602" class="st11"/></g><g><path d="M35.84143,22.72226c1.14702-0.66223,1.94706-0.28079,1.95064,0.9804 c0.00363,1.27892-0.79166,2.57432-1.9325,3.23298l-1.45311,0.83895l-0.01196-4.21695L35.84143,22.72226z M35.85114,26.14698 c0.72345-0.41769,1.14532-1.26262,1.14328-1.9838c-0.00209-0.73895-0.39946-1.08245-1.14456-0.65227l-0.6709,0.38734 l0.00747,2.63249L35.85114,26.14698" class="st11"/></g></g><g><g><polygon points="14.558 31.875 14.555 32.784 10.87 30.657 10.873 29.747" class="st11"/></g><g><polygon points="14.552 33.956 14.549 34.865 10.864 32.738 10.867 31.828" class="st11"/></g><g class="st8"><g><polygon points="14.564 29.798 14.561 30.707 10.876 28.58 10.879 27.67" class="st11"/></g><g><polygon points="14.569 27.716 14.567 28.626 10.882 26.498 10.885 25.589" class="st11"/></g><g><polygon points="14.575 25.635 14.573 26.544 10.888 24.417 10.891 23.508" class="st11"/></g><g><polygon points="14.581 23.558 14.579 24.468 10.894 22.34 10.896 21.431" class="st11"/></g><g><polygon points="14.587 21.477 14.585 22.386 10.9 20.259 10.902 19.349" class="st11"/></g><g><polygon points="14.593 19.395 14.59 20.305 10.906 18.178 10.908 17.268" class="st11"/></g></g><g><polygon points="14.599 17.319 14.596 18.228 10.912 16.101 10.914 15.191" class="st11"/></g><g><polygon points="18.315 23.629 18.312 24.539 16.997 23.779 17 22.87" class="st11"/></g><g><polygon points="18.321 21.548 18.318 22.457 17.003 21.698 17.006 20.788" class="st11"/></g><g><polygon points="18.327 19.471 18.324 20.38 17.009 19.621 17.011 18.711" class="st11"/></g><g><ellipse cx="15.762" cy="18.446" class="st2" rx=".323" ry=".558" transform="matrix(0.86461 -0.50245 0.50245 0.86461 -7.13391 10.4171)"/></g><g><ellipse cx="15.756" cy="20.523" class="st2" rx=".323" ry=".558" transform="matrix(0.86461 -0.50245 0.50245 0.86461 -8.17827 10.69534)"/></g><g><ellipse cx="15.75" cy="22.604" class="st2" rx=".323" ry=".558" transform="matrix(0.86461 -0.50245 0.50245 0.86461 -9.22482 10.97418)"/></g><g><polygon points="18.303 27.787 18.301 28.697 16.985 27.937 16.988 27.028" class="st11"/></g><g><polygon points="18.309 25.71 18.307 26.62 16.991 25.86 16.994 24.951" class="st11"/></g><g><ellipse cx="15.744" cy="24.685" class="st2" rx=".323" ry=".558" transform="matrix(0.86461 -0.50245 0.50245 0.86461 -10.27137 11.25301)"/></g><g><path d="M15.73976,26.3073c0.2169,0.12523,0.39516,0.43398,0.39446,0.68321 c-0.00072,0.2536-0.18014,0.35148-0.39703,0.22626c-0.2207-0.12742-0.39517-0.42962-0.39445-0.68322 C15.34343,26.28431,15.51906,26.17988,15.73976,26.3073z" class="st2"/></g><g><polygon points="18.286 34.027 18.283 34.936 16.968 34.177 16.97 33.267" class="st11"/></g><g><polygon points="18.291 31.95 18.289 32.859 16.973 32.1 16.976 31.191" class="st11"/></g><g><polygon points="18.297 29.869 18.295 30.778 16.979 30.019 16.982 29.109" class="st11"/></g><g><path d="M15.73386,28.3886c0.2169,0.12523,0.39516,0.43398,0.39445,0.68321s-0.18014,0.35148-0.39703,0.22626 c-0.2207-0.12742-0.39516-0.43399-0.39445-0.68322S15.51316,28.26118,15.73386,28.3886z" class="st2"/></g><g><path d="M15.72796,30.4699c0.2169,0.12523,0.39517,0.42962,0.39445,0.68322 c-0.00071,0.24923-0.18013,0.35147-0.39703,0.22624c-0.2207-0.12742-0.39516-0.43398-0.39445-0.68321 C15.33165,30.44255,15.50726,30.34248,15.72796,30.4699z" class="st2"/></g><g><ellipse cx="15.721" cy="33.002" class="st2" rx=".323" ry=".558" transform="matrix(0.86461 -0.50245 0.50245 0.86461 -14.45318 12.36717)"/></g><g><polygon points="18.28 36.108 18.277 37.018 16.962 36.258 16.964 35.349" class="st11"/></g><g><ellipse cx="15.715" cy="35.083" class="st2" rx=".323" ry=".558" transform="matrix(0.86461 -0.50245 0.50245 0.86461 -15.49973 12.646)"/></g><g><polygon points="14.54 38.114 14.537 39.024 10.853 36.896 10.855 35.987" class="st11"/></g><g><polygon points="14.546 36.037 14.543 36.947 10.858 34.819 10.861 33.91" class="st11"/></g><g><polygon points="18.256 44.425 18.254 45.338 16.938 44.579 16.941 43.665" class="st11"/></g><g><polygon points="18.262 42.348 18.259 43.257 16.944 42.498 16.947 41.588" class="st11"/></g><g><polygon points="18.268 40.266 18.265 41.176 16.95 40.416 16.952 39.507" class="st11"/></g><g><polygon points="18.274 38.189 18.271 39.099 16.956 38.34 16.958 37.43" class="st11"/></g><g><ellipse cx="15.709" cy="37.164" class="st2" rx=".323" ry=".558" transform="matrix(0.86461 -0.50245 0.50245 0.86461 -16.54628 12.92483)"/></g><g><ellipse cx="15.703" cy="39.241" class="st2" rx=".323" ry=".558" transform="matrix(0.86461 -0.50245 0.50245 0.86461 -17.59063 13.20308)"/></g><g><polygon points="14.534 40.195 14.532 41.105 10.847 38.977 10.849 38.068" class="st11"/></g><g><ellipse cx="15.697" cy="41.322" class="st2" rx=".323" ry=".558" transform="matrix(0.86461 -0.50245 0.50245 0.86461 -18.63718 13.48191)"/></g><g><polygon points="14.528 42.272 14.526 43.186 10.841 41.059 10.843 40.145" class="st11"/></g><g><path d="M15.69259,42.94458c0.2169,0.12523,0.39516,0.43399,0.39444,0.68758 c-0.00071,0.24923-0.18014,0.35148-0.39703,0.22626c-0.2207-0.12742-0.39516-0.43399-0.39445-0.68322 C15.29627,42.92161,15.47189,42.81716,15.69259,42.94458z" class="st2"/></g></g></g><g><g class="st8"><g><path d="M29.3384,9.26226l0.00001,0.93088c-0.00188,0.66274-0.43744,1.3245-1.30767,1.83023 c-1.75146,1.01784-4.60095,1.01786-6.36389,0.00003c-0.88725-0.51226-1.33032-1.18461-1.32841-1.85593l-0.00001-0.93088 c-0.0019,0.67132,0.44116,1.34367,1.32841,1.85593c1.76294,1.01783,4.61243,1.01781,6.36389-0.00003 C28.90096,10.58676,29.33652,9.925,29.3384,9.26226z" class="st9"/></g><ellipse cx="24.838" cy="9.249" class="st11" rx="2.607" ry="4.5" transform="matrix(0.00284 -1 1 0.00284 15.51859 34.06147)"/></g></g><path d="M28.32931,9.00092c-0.0033,0.51486-0.33995,1.02641-1.01322,1.41916c-1.35975,0.7888-3.57101,0.7888-4.93737,0 c-0.68977-0.39603-1.033-0.91749-1.02972-1.43896c0,0,0-4.08587,0.0033-4.13536c0.07921-1.86142,1.60728-3.34329,3.4852-3.34329 c0.96373,0,1.83501,0.38944,2.4687,1.02311c0.60726,0.60398,0.99011,1.43568,1.01981,2.35317 C28.32931,4.91504,28.32931,9.00092,28.32931,9.00092z" class="st7"/><g><path d="M27.17594,5.48831c-0.12255,0-0.22363-0.09661-0.229-0.21916 c-0.05635-1.34626-1.15573-2.40002-2.50199-2.40002c-0.12613,0-0.229-0.10287-0.229-0.229c0-0.12613,0.10287-0.229,0.229-0.229 c1.59226,0,2.89201,1.24697,2.95999,2.83834c0.00537,0.12613-0.09303,0.23347-0.21916,0.23884 C27.1822,5.48831,27.17862,5.48831,27.17594,5.48831z" class="st2"/></g></g></svg>