<svg xmlns="http://www.w3.org/2000/svg" xmlns:xlink="http://www.w3.org/1999/xlink" id="Layer_1" version="1.1" viewBox="0 0 50 50" xml:space="preserve" style="enable-background:new 0 0 50 50"><style type="text/css">.st0{fill:#b7c5fd}.st2{fill:#fff}.st3{fill:#3955d1}.st4{fill:#4466fb}.st6{fill:#798ffe}.st7{fill:#6bb5fb}.st8{enable-background:new}.st9{fill:#1b2a4f}.st11{fill:#384e85}.st12{fill:#2e4277}.st17{fill:#8ca1fd}.st19{opacity:.3;fill:#4466fb}.st20{opacity:.2}</style><g><g><g><g><g><polygon points="15.416 10.601 24.226 5.943 24.215 27.46 15.405 32.579" class="st9"/></g><g><polygon points="6.829 6.105 15.639 .986 24.226 5.943 15.416 11.063" class="st11"/></g><g><polygon points="15.416 11.063 15.405 32.579 6.818 27.622 6.829 6.105" class="st12"/><g><polygon points="7.866 7.304 7.348 7.004 7.338 27.322 14.886 31.681 14.887 31.032 7.857 26.973" class="st11"/><polygon points="7.866 7.304 7.857 26.973 14.887 31.032 14.897 11.362" class="st9"/></g></g></g><g><polygon points="14.366 12.098 14.359 14.429 8.567 11.085 8.574 8.754" class="st12"/><g><g><g><polygon points="9.974 10.248 10.183 10.127 10.175 11.626 9.966 11.748" class="st3"/></g><g><polygon points="9.607 10.036 9.816 9.915 10.183 10.127 9.974 10.248" class="st7"/></g><polygon points="9.974 10.248 9.966 11.748 9.599 11.536 9.607 10.036" class="st4"/></g><g><g><polygon points="10.722 10.68 10.932 10.559 10.924 12.059 10.715 12.18" class="st3"/></g><g><polygon points="10.355 10.469 10.565 10.347 10.932 10.559 10.722 10.68" class="st7"/></g><polygon points="10.722 10.68 10.715 12.18 10.348 11.968 10.355 10.469" class="st4"/></g><g><g><polygon points="11.471 11.113 11.68 10.991 11.672 12.491 11.463 12.612" class="st3"/></g><g><polygon points="11.104 10.901 11.313 10.779 11.68 10.991 11.471 11.113" class="st7"/></g><polygon points="11.471 11.113 11.463 12.612 11.096 12.401 11.104 10.901" class="st4"/></g><g><g><polygon points="12.219 11.545 12.429 11.423 12.421 12.923 12.212 13.045" class="st3"/></g><g><polygon points="11.853 11.333 12.062 11.211 12.429 11.423 12.219 11.545" class="st7"/></g><polygon points="12.219 11.545 12.212 13.045 11.845 12.833 11.853 11.333" class="st4"/></g><g><g><polygon points="12.968 11.977 13.177 11.855 13.17 13.355 12.96 13.477" class="st3"/></g><g><polygon points="12.601 11.765 12.81 11.644 13.177 11.855 12.968 11.977" class="st7"/></g><polygon points="12.968 11.977 12.96 13.477 12.593 13.265 12.601 11.765" class="st4"/></g><g><g><polygon points="13.717 12.409 13.926 12.288 13.918 13.787 13.709 13.909" class="st3"/></g><g><polygon points="13.35 12.197 13.559 12.076 13.926 12.288 13.717 12.409" class="st7"/></g><polygon points="13.717 12.409 13.709 13.909 13.342 13.697 13.35 12.197" class="st4"/></g><g><g><polygon points="9.225 9.816 9.434 9.694 9.427 11.194 9.217 11.316" class="st3"/></g><g><polygon points="8.858 9.604 9.068 9.483 9.434 9.694 9.225 9.816" class="st7"/></g><polygon points="9.225 9.816 9.217 11.316 8.851 11.104 8.858 9.604" class="st4"/></g></g></g><g><polygon points="14.366 15.199 14.359 17.531 8.567 14.187 8.574 11.855" class="st12"/><g><g><g><polygon points="9.974 13.35 10.183 13.228 10.175 14.728 9.966 14.849" class="st3"/></g><g><polygon points="9.607 13.138 9.816 13.016 10.183 13.228 9.974 13.35" class="st7"/></g><polygon points="9.974 13.35 9.966 14.849 9.599 14.638 9.607 13.138" class="st4"/></g><g><g><polygon points="10.722 13.782 10.932 13.66 10.924 15.16 10.715 15.282" class="st3"/></g><g><polygon points="10.355 13.57 10.565 13.448 10.932 13.66 10.722 13.782" class="st7"/></g><polygon points="10.722 13.782 10.715 15.282 10.348 15.07 10.355 13.57" class="st4"/></g><g><g><polygon points="11.471 14.214 11.68 14.092 11.672 15.592 11.463 15.714" class="st3"/></g><g><polygon points="11.104 14.002 11.313 13.881 11.68 14.092 11.471 14.214" class="st7"/></g><polygon points="11.471 14.214 11.463 15.714 11.096 15.502 11.104 14.002" class="st4"/></g><g><g><polygon points="12.219 14.646 12.429 14.525 12.421 16.024 12.212 16.146" class="st3"/></g><g><polygon points="11.853 14.434 12.062 14.313 12.429 14.525 12.219 14.646" class="st7"/></g><polygon points="12.219 14.646 12.212 16.146 11.845 15.934 11.853 14.434" class="st4"/></g><g><g><polygon points="12.968 15.078 13.177 14.957 13.17 16.457 12.96 16.578" class="st3"/></g><g><polygon points="12.601 14.867 12.81 14.745 13.177 14.957 12.968 15.078" class="st7"/></g><polygon points="12.968 15.078 12.96 16.578 12.593 16.366 12.601 14.867" class="st4"/></g><g><g><polygon points="13.717 15.511 13.926 15.389 13.918 16.889 13.709 17.01" class="st3"/></g><g><polygon points="13.35 15.299 13.559 15.177 13.926 15.389 13.717 15.511" class="st7"/></g><polygon points="13.717 15.511 13.709 17.01 13.342 16.799 13.35 15.299" class="st4"/></g><g><g><polygon points="9.225 12.917 9.434 12.796 9.427 14.296 9.217 14.417" class="st3"/></g><g><polygon points="8.858 12.706 9.068 12.584 9.434 12.796 9.225 12.917" class="st7"/></g><polygon points="9.225 12.917 9.217 14.417 8.851 14.205 8.858 12.706" class="st4"/></g></g></g><g><polygon points="14.366 18.301 14.359 20.632 8.567 17.288 8.574 14.957" class="st12"/><g><g><g><polygon points="9.974 16.451 10.183 16.329 10.175 17.829 9.966 17.951" class="st3"/></g><g><polygon points="9.607 16.239 9.816 16.118 10.183 16.329 9.974 16.451" class="st7"/></g><polygon points="9.974 16.451 9.966 17.951 9.599 17.739 9.607 16.239" class="st4"/></g><g><g><polygon points="10.722 16.883 10.932 16.762 10.924 18.261 10.715 18.383" class="st3"/></g><g><polygon points="10.355 16.671 10.565 16.55 10.932 16.762 10.722 16.883" class="st7"/></g><polygon points="10.722 16.883 10.715 18.383 10.348 18.171 10.355 16.671" class="st4"/></g><g><g><polygon points="11.471 17.315 11.68 17.194 11.672 18.694 11.463 18.815" class="st3"/></g><g><polygon points="11.104 17.104 11.313 16.982 11.68 17.194 11.471 17.315" class="st7"/></g><polygon points="11.471 17.315 11.463 18.815 11.096 18.603 11.104 17.104" class="st4"/></g><g><g><polygon points="12.219 17.748 12.429 17.626 12.421 19.126 12.212 19.247" class="st3"/></g><g><polygon points="11.853 17.536 12.062 17.414 12.429 17.626 12.219 17.748" class="st7"/></g><polygon points="12.219 17.748 12.212 19.247 11.845 19.036 11.853 17.536" class="st4"/></g><g><g><polygon points="12.968 18.18 13.177 18.058 13.17 19.558 12.96 19.68" class="st3"/></g><g><polygon points="12.601 17.968 12.81 17.846 13.177 18.058 12.968 18.18" class="st7"/></g><polygon points="12.968 18.18 12.96 19.68 12.593 19.468 12.601 17.968" class="st4"/></g><g><g><polygon points="13.717 18.612 13.926 18.49 13.918 19.99 13.709 20.112" class="st3"/></g><g><polygon points="13.35 18.4 13.559 18.279 13.926 18.49 13.717 18.612" class="st7"/></g><polygon points="13.717 18.612 13.709 20.112 13.342 19.9 13.35 18.4" class="st4"/></g><g><g><polygon points="9.225 16.019 9.434 15.897 9.427 17.397 9.217 17.519" class="st3"/></g><g><polygon points="8.858 15.807 9.068 15.685 9.434 15.897 9.225 16.019" class="st7"/></g><polygon points="9.225 16.019 9.217 17.519 8.851 17.307 8.858 15.807" class="st4"/></g></g></g><g><polygon points="14.366 21.402 14.359 23.733 8.567 20.39 8.574 18.058" class="st12"/><g><g><g><polygon points="9.974 19.552 10.183 19.431 10.175 20.931 9.966 21.052" class="st3"/></g><g><polygon points="9.607 19.341 9.816 19.219 10.183 19.431 9.974 19.552" class="st7"/></g><polygon points="9.974 19.552 9.966 21.052 9.599 20.84 9.607 19.341" class="st4"/></g><g><g><polygon points="10.722 19.985 10.932 19.863 10.924 21.363 10.715 21.484" class="st3"/></g><g><polygon points="10.355 19.773 10.565 19.651 10.932 19.863 10.722 19.985" class="st7"/></g><polygon points="10.722 19.985 10.715 21.484 10.348 21.273 10.355 19.773" class="st4"/></g><g><g><polygon points="11.471 20.417 11.68 20.295 11.672 21.795 11.463 21.917" class="st3"/></g><g><polygon points="11.104 20.205 11.313 20.083 11.68 20.295 11.471 20.417" class="st7"/></g><polygon points="11.471 20.417 11.463 21.917 11.096 21.705 11.104 20.205" class="st4"/></g><g><g><polygon points="12.219 20.849 12.429 20.727 12.421 22.227 12.212 22.349" class="st3"/></g><g><polygon points="11.853 20.637 12.062 20.516 12.429 20.727 12.219 20.849" class="st7"/></g><polygon points="12.219 20.849 12.212 22.349 11.845 22.137 11.853 20.637" class="st4"/></g><g><g><polygon points="12.968 21.281 13.177 21.16 13.17 22.659 12.96 22.781" class="st3"/></g><g><polygon points="12.601 21.069 12.81 20.948 13.177 21.16 12.968 21.281" class="st7"/></g><polygon points="12.968 21.281 12.96 22.781 12.593 22.569 12.601 21.069" class="st4"/></g><g><g><polygon points="13.717 21.713 13.926 21.592 13.918 23.092 13.709 23.213" class="st3"/></g><g><polygon points="13.35 21.502 13.559 21.38 13.926 21.592 13.717 21.713" class="st7"/></g><polygon points="13.717 21.713 13.709 23.213 13.342 23.001 13.35 21.502" class="st4"/></g><g><g><polygon points="9.225 19.12 9.434 18.999 9.427 20.498 9.217 20.62" class="st3"/></g><g><polygon points="8.858 18.908 9.068 18.787 9.434 18.999 9.225 19.12" class="st7"/></g><polygon points="9.225 19.12 9.217 20.62 8.851 20.408 8.858 18.908" class="st4"/></g></g></g><g><polygon points="14.366 24.503 14.359 26.835 8.567 23.491 8.574 21.16" class="st12"/><g><g><g><polygon points="9.974 22.654 10.183 22.532 10.175 24.032 9.966 24.154" class="st3"/></g><g><polygon points="9.607 22.442 9.816 22.32 10.183 22.532 9.974 22.654" class="st7"/></g><polygon points="9.974 22.654 9.966 24.154 9.599 23.942 9.607 22.442" class="st4"/></g><g><g><polygon points="10.722 23.086 10.932 22.964 10.924 24.464 10.715 24.586" class="st3"/></g><g><polygon points="10.355 22.874 10.565 22.753 10.932 22.964 10.722 23.086" class="st7"/></g><polygon points="10.722 23.086 10.715 24.586 10.348 24.374 10.355 22.874" class="st4"/></g><g><g><polygon points="11.471 23.518 11.68 23.397 11.672 24.896 11.463 25.018" class="st3"/></g><g><polygon points="11.104 23.306 11.313 23.185 11.68 23.397 11.471 23.518" class="st7"/></g><polygon points="11.471 23.518 11.463 25.018 11.096 24.806 11.104 23.306" class="st4"/></g><g><g><polygon points="12.219 23.95 12.429 23.829 12.421 25.329 12.212 25.45" class="st3"/></g><g><polygon points="11.853 23.739 12.062 23.617 12.429 23.829 12.219 23.95" class="st7"/></g><polygon points="12.219 23.95 12.212 25.45 11.845 25.238 11.853 23.739" class="st4"/></g><g><g><polygon points="12.968 24.383 13.177 24.261 13.17 25.761 12.96 25.882" class="st3"/></g><g><polygon points="12.601 24.171 12.81 24.049 13.177 24.261 12.968 24.383" class="st7"/></g><polygon points="12.968 24.383 12.96 25.882 12.593 25.67 12.601 24.171" class="st4"/></g><g><g><polygon points="13.717 24.815 13.926 24.693 13.918 26.193 13.709 26.315" class="st3"/></g><g><polygon points="13.35 24.603 13.559 24.481 13.926 24.693 13.717 24.815" class="st7"/></g><polygon points="13.717 24.815 13.709 26.315 13.342 26.103 13.35 24.603" class="st4"/></g><g><g><polygon points="9.225 22.222 9.434 22.1 9.427 23.6 9.217 23.721" class="st3"/></g><g><polygon points="8.858 22.01 9.068 21.888 9.434 22.1 9.225 22.222" class="st7"/></g><polygon points="9.225 22.222 9.217 23.721 8.851 23.51 8.858 22.01" class="st4"/></g></g></g><g><polygon points="14.366 27.605 14.359 29.936 8.567 26.592 8.574 24.261" class="st12"/><g><g><g><polygon points="9.974 25.755 10.183 25.634 10.175 27.133 9.966 27.255" class="st3"/></g><g><polygon points="9.607 25.543 9.816 25.422 10.183 25.634 9.974 25.755" class="st7"/></g><polygon points="9.974 25.755 9.966 27.255 9.599 27.043 9.607 25.543" class="st4"/></g><g><g><polygon points="10.722 26.187 10.932 26.066 10.924 27.566 10.715 27.687" class="st3"/></g><g><polygon points="10.355 25.976 10.565 25.854 10.932 26.066 10.722 26.187" class="st7"/></g><polygon points="10.722 26.187 10.715 27.687 10.348 27.475 10.355 25.976" class="st4"/></g><g><g><polygon points="11.471 26.62 11.68 26.498 11.672 27.998 11.463 28.119" class="st3"/></g><g><polygon points="11.104 26.408 11.313 26.286 11.68 26.498 11.471 26.62" class="st7"/></g><polygon points="11.471 26.62 11.463 28.119 11.096 27.907 11.104 26.408" class="st4"/></g><g><g><polygon points="12.219 27.052 12.429 26.93 12.421 28.43 12.212 28.552" class="st3"/></g><g><polygon points="11.853 26.84 12.062 26.718 12.429 26.93 12.219 27.052" class="st7"/></g><polygon points="12.219 27.052 12.212 28.552 11.845 28.34 11.853 26.84" class="st4"/></g><g><g><polygon points="12.968 27.484 13.177 27.362 13.17 28.862 12.96 28.984" class="st3"/></g><g><polygon points="12.601 27.272 12.81 27.15 13.177 27.362 12.968 27.484" class="st7"/></g><polygon points="12.968 27.484 12.96 28.984 12.593 28.772 12.601 27.272" class="st4"/></g><g><g><polygon points="13.717 27.916 13.926 27.794 13.918 29.294 13.709 29.416" class="st3"/></g><g><polygon points="13.35 27.704 13.559 27.583 13.926 27.794 13.717 27.916" class="st7"/></g><polygon points="13.717 27.916 13.709 29.416 13.342 29.204 13.35 27.704" class="st4"/></g><g><g><polygon points="9.225 25.323 9.434 25.201 9.427 26.701 9.217 26.823" class="st3"/></g><g><polygon points="8.858 25.111 9.068 24.99 9.434 25.201 9.225 25.323" class="st7"/></g><polygon points="9.225 25.323 9.217 26.823 8.851 26.611 8.858 25.111" class="st4"/></g></g></g><path d="M22.16124,26.98102c-0.03095,0.01787-0.05643,0.06201-0.05633,0.09757 c0.0001,0.03633,0.02575,0.05095,0.0567,0.03308l1.37521-0.79398c0.03095-0.01787,0.05643-0.06201,0.05633-0.09834 c-0.0001-0.03556-0.02575-0.05018-0.0567-0.03231L22.16124,26.98102z" class="st11"/><path d="M22.16038,26.67797c-0.03095,0.01787-0.05643,0.062-0.05633,0.09834 c0.0001,0.03556,0.02575,0.05018,0.0567,0.03231l1.37521-0.79398c0.03095-0.01787,0.05643-0.06201,0.05633-0.09757 c-0.0001-0.03633-0.02575-0.05095-0.0567-0.03308L22.16038,26.67797z" class="st11"/><path d="M22.15953,26.37568c-0.03095,0.01787-0.05643,0.06124-0.05633,0.09757 c0.0001,0.03556,0.02575,0.05018,0.0567,0.03231l1.37521-0.79398c0.03095-0.01787,0.05643-0.06201,0.05633-0.09757 c-0.0001-0.03634-0.02575-0.05018-0.0567-0.03231L22.15953,26.37568z" class="st11"/><path d="M22.15867,26.07263c-0.03095,0.01787-0.05643,0.06123-0.05633,0.09757 c0.0001,0.03556,0.02575,0.05018,0.0567,0.03231l1.37521-0.79398c0.03095-0.01787,0.05643-0.06201,0.05633-0.09757 c-0.0001-0.03634-0.02575-0.05018-0.0567-0.03231L22.15867,26.07263z" class="st11"/><path d="M22.15695,25.46651c-0.03095,0.01787-0.05643,0.06123-0.05633,0.09757 c0.0001,0.03556,0.02575,0.05018,0.0567,0.03231l1.37521-0.79398c0.03095-0.01787,0.05643-0.06201,0.05633-0.09757 c-0.0001-0.03633-0.02575-0.05018-0.0567-0.03231L22.15695,25.46651z" class="st11"/><path d="M22.15781,25.76957c-0.03095,0.01787-0.05643,0.06123-0.05633,0.09757 c0.0001,0.03556,0.02575,0.05018,0.0567,0.03231l1.37521-0.79398c0.03095-0.01787,0.05643-0.06201,0.05633-0.09757 c-0.0001-0.03633-0.02575-0.05018-0.0567-0.03231L22.15781,25.76957z" class="st11"/><path d="M22.16124,24.22253c-0.03095,0.01787-0.05643,0.06201-0.05633,0.09757 c0.0001,0.03633,0.02575,0.05095,0.0567,0.03308l1.37521-0.79398c0.03095-0.01787,0.05643-0.06201,0.05633-0.09834 c-0.0001-0.03556-0.02575-0.05018-0.0567-0.03231L22.16124,24.22253z" class="st11"/><path d="M22.16038,23.91948c-0.03095,0.01787-0.05643,0.06201-0.05633,0.09834 c0.0001,0.03556,0.02575,0.05018,0.0567,0.03232l1.37521-0.79398c0.03095-0.01787,0.05643-0.06201,0.05633-0.09757 c-0.0001-0.03633-0.02575-0.05095-0.0567-0.03308L22.16038,23.91948z" class="st11"/><path d="M22.15953,23.61719c-0.03095,0.01787-0.05643,0.06123-0.05633,0.09757 c0.0001,0.03556,0.02575,0.05018,0.0567,0.03231l1.37521-0.79398c0.03095-0.01787,0.05643-0.06201,0.05633-0.09757 c-0.0001-0.03634-0.02575-0.05018-0.0567-0.03231L22.15953,23.61719z" class="st11"/><path d="M22.15867,23.31414c-0.03095,0.01787-0.05643,0.06123-0.05633,0.09757 c0.0001,0.03556,0.02575,0.05018,0.0567,0.03231l1.37521-0.79398c0.03095-0.01787,0.05643-0.06201,0.05633-0.09757 c-0.0001-0.03634-0.02575-0.05018-0.0567-0.03231L22.15867,23.31414z" class="st11"/><path d="M22.15695,22.70802c-0.03095,0.01787-0.05643,0.06124-0.05633,0.09757 c0.0001,0.03556,0.02575,0.05018,0.0567,0.03232l1.37521-0.79398c0.03095-0.01787,0.05643-0.06201,0.05633-0.09757 c-0.0001-0.03633-0.02575-0.05018-0.0567-0.03231L22.15695,22.70802z" class="st11"/><path d="M22.15781,23.01108c-0.03095,0.01787-0.05643,0.06123-0.05633,0.09757 c0.0001,0.03556,0.02575,0.05018,0.0567,0.03231l1.37521-0.79398c0.03095-0.01787,0.05643-0.06201,0.05633-0.09757 c-0.0001-0.03633-0.02575-0.05018-0.0567-0.03231L22.15781,23.01108z" class="st11"/><path d="M22.16124,21.46404c-0.03095,0.01787-0.05643,0.06201-0.05633,0.09757 c0.0001,0.03633,0.02575,0.05095,0.0567,0.03308l1.37521-0.79398c0.03095-0.01787,0.05643-0.06201,0.05633-0.09834 c-0.0001-0.03556-0.02575-0.05018-0.0567-0.03231L22.16124,21.46404z" class="st11"/><path d="M22.16038,21.16099c-0.03095,0.01787-0.05643,0.062-0.05633,0.09834 c0.0001,0.03556,0.02575,0.05018,0.0567,0.03232l1.37521-0.79398c0.03095-0.01787,0.05643-0.06201,0.05633-0.09757 c-0.0001-0.03633-0.02575-0.05095-0.0567-0.03308L22.16038,21.16099z" class="st11"/><path d="M22.15953,20.8587c-0.03095,0.01787-0.05643,0.06123-0.05633,0.09757 c0.0001,0.03556,0.02575,0.05018,0.0567,0.03231l1.37521-0.79398c0.03095-0.01787,0.05643-0.06201,0.05633-0.09757 c-0.0001-0.03634-0.02575-0.05018-0.0567-0.03232L22.15953,20.8587z" class="st11"/><path d="M22.15867,20.55564c-0.03095,0.01787-0.05643,0.06123-0.05633,0.09757 c0.0001,0.03556,0.02575,0.05018,0.0567,0.03231l1.37521-0.79398c0.03095-0.01787,0.05643-0.06201,0.05633-0.09757 c-0.0001-0.03634-0.02575-0.05018-0.0567-0.03231L22.15867,20.55564z" class="st11"/><path d="M22.15695,19.94953c-0.03095,0.01787-0.05643,0.06123-0.05633,0.09757 c0.0001,0.03556,0.02575,0.05018,0.0567,0.03232l1.37521-0.79398c0.03095-0.01787,0.05643-0.06201,0.05633-0.09757 c-0.0001-0.03633-0.02575-0.05018-0.0567-0.03231L22.15695,19.94953z" class="st11"/><path d="M22.15781,20.25259c-0.03095,0.01787-0.05643,0.06123-0.05633,0.09757 c0.0001,0.03556,0.02575,0.05018,0.0567,0.03231l1.37521-0.79398c0.03095-0.01787,0.05643-0.06201,0.05633-0.09757 c-0.0001-0.03633-0.02575-0.05018-0.0567-0.03231L22.15781,20.25259z" class="st11"/><path d="M22.16124,18.70555c-0.03095,0.01787-0.05643,0.06201-0.05633,0.09757 c0.0001,0.03633,0.02575,0.05095,0.0567,0.03308l1.37521-0.79398c0.03095-0.01787,0.05643-0.06201,0.05633-0.09834 c-0.0001-0.03556-0.02575-0.05018-0.0567-0.03232L22.16124,18.70555z" class="st11"/><path d="M22.16038,18.40249c-0.03095,0.01787-0.05643,0.06201-0.05633,0.09834 c0.0001,0.03556,0.02575,0.05018,0.0567,0.03232l1.37521-0.79398c0.03095-0.01787,0.05643-0.06201,0.05633-0.09757 c-0.0001-0.03633-0.02575-0.05095-0.0567-0.03308L22.16038,18.40249z" class="st11"/><path d="M22.15953,18.10021c-0.03095,0.01787-0.05643,0.06123-0.05633,0.09757 c0.0001,0.03556,0.02575,0.05018,0.0567,0.03231l1.37521-0.79398c0.03095-0.01787,0.05643-0.06201,0.05633-0.09757 c-0.0001-0.03634-0.02575-0.05018-0.0567-0.03231L22.15953,18.10021z" class="st11"/><path d="M22.15867,17.79716c-0.03095,0.01787-0.05643,0.06123-0.05633,0.09757 c0.0001,0.03556,0.02575,0.05018,0.0567,0.03231l1.37521-0.79398c0.03095-0.01787,0.05643-0.06201,0.05633-0.09757 c-0.0001-0.03634-0.02575-0.05018-0.0567-0.03231L22.15867,17.79716z" class="st11"/><path d="M22.15695,17.19104c-0.03095,0.01787-0.05643,0.06124-0.05633,0.09757 c0.0001,0.03556,0.02575,0.05018,0.0567,0.03232l1.37521-0.79398c0.03095-0.01787,0.05643-0.06201,0.05633-0.09757 c-0.0001-0.03633-0.02575-0.05018-0.0567-0.03231L22.15695,17.19104z" class="st11"/><path d="M22.15781,17.4941c-0.03095,0.01787-0.05643,0.06123-0.05633,0.09757 c0.0001,0.03556,0.02575,0.05018,0.0567,0.03231L23.53339,16.83c0.03095-0.01787,0.05643-0.06201,0.05633-0.09757 c-0.0001-0.03633-0.02575-0.05018-0.0567-0.03231L22.15781,17.4941z" class="st11"/><path d="M22.16124,15.94706c-0.03095,0.01787-0.05643,0.06201-0.05633,0.09757 c0.0001,0.03633,0.02575,0.05095,0.0567,0.03308l1.37521-0.79398c0.03095-0.01787,0.05643-0.06201,0.05633-0.09834 c-0.0001-0.03556-0.02575-0.05018-0.0567-0.03231L22.16124,15.94706z" class="st11"/><path d="M22.16038,15.644c-0.03095,0.01787-0.05643,0.06201-0.05633,0.09834 c0.0001,0.03556,0.02575,0.05019,0.0567,0.03232l1.37521-0.79398c0.03095-0.01787,0.05643-0.06201,0.05633-0.09757 c-0.0001-0.03633-0.02575-0.05095-0.0567-0.03308L22.16038,15.644z" class="st11"/><path d="M22.15953,15.34172c-0.03095,0.01787-0.05643,0.06123-0.05633,0.09757 c0.0001,0.03556,0.02575,0.05018,0.0567,0.03231l1.37521-0.79398c0.03095-0.01787,0.05643-0.06201,0.05633-0.09757 c-0.0001-0.03634-0.02575-0.05018-0.0567-0.03232L22.15953,15.34172z" class="st11"/><path d="M22.15867,15.03866c-0.03095,0.01787-0.05643,0.06123-0.05633,0.09757 c0.0001,0.03556,0.02575,0.05018,0.0567,0.03231l1.37521-0.79398c0.03095-0.01787,0.05643-0.06201,0.05633-0.09757 c-0.0001-0.03634-0.02575-0.05018-0.0567-0.03231L22.15867,15.03866z" class="st11"/><path d="M22.15695,14.43255c-0.03095,0.01787-0.05643,0.06123-0.05633,0.09757 c0.0001,0.03556,0.02575,0.05019,0.0567,0.03232l1.37521-0.79398c0.03095-0.01787,0.05643-0.06201,0.05633-0.09757 c-0.0001-0.03633-0.02575-0.05018-0.0567-0.03231L22.15695,14.43255z" class="st11"/><path d="M22.15781,14.73561c-0.03095,0.01787-0.05643,0.06123-0.05633,0.09757 c0.0001,0.03556,0.02575,0.05018,0.0567,0.03231l1.37521-0.79398c0.03095-0.01787,0.05643-0.06201,0.05633-0.09757 c-0.0001-0.03633-0.02575-0.05018-0.0567-0.03231L22.15781,14.73561z" class="st11"/><path d="M22.16124,13.18857c-0.03095,0.01787-0.05643,0.06201-0.05633,0.09757 c0.0001,0.03633,0.02575,0.05095,0.0567,0.03308l1.37521-0.79398c0.03095-0.01787,0.05643-0.06201,0.05633-0.09834 c-0.0001-0.03556-0.02575-0.05018-0.0567-0.03232L22.16124,13.18857z" class="st11"/><path d="M22.16038,12.88551c-0.03095,0.01787-0.05643,0.06201-0.05633,0.09834 c0.0001,0.03556,0.02575,0.05018,0.0567,0.03232l1.37521-0.79398c0.03095-0.01787,0.05643-0.06201,0.05633-0.09757 c-0.0001-0.03633-0.02575-0.05095-0.0567-0.03308L22.16038,12.88551z" class="st11"/><path d="M22.15953,12.58323c-0.03095,0.01787-0.05643,0.06123-0.05633,0.09757 c0.0001,0.03556,0.02575,0.05018,0.0567,0.03231l1.37521-0.79398c0.03095-0.01787,0.05643-0.06201,0.05633-0.09757 c-0.0001-0.03634-0.02575-0.05018-0.0567-0.03232L22.15953,12.58323z" class="st11"/><path d="M22.15867,12.28017c-0.03095,0.01787-0.05643,0.06123-0.05633,0.09757 c0.0001,0.03556,0.02575,0.05018,0.0567,0.03231l1.37521-0.79398c0.03095-0.01787,0.05643-0.06201,0.05633-0.09757 c-0.0001-0.03634-0.02575-0.05018-0.0567-0.03231L22.15867,12.28017z" class="st11"/><path d="M22.15695,11.67406c-0.03095,0.01787-0.05643,0.06123-0.05633,0.09757 c0.0001,0.03556,0.02575,0.05018,0.0567,0.03232l1.37521-0.79398c0.03095-0.01787,0.05643-0.06201,0.05633-0.09757 c-0.0001-0.03633-0.02575-0.05018-0.0567-0.03231L22.15695,11.67406z" class="st11"/><path d="M22.15781,11.97712c-0.03095,0.01787-0.05643,0.06123-0.05633,0.09757 c0.0001,0.03556,0.02575,0.05018,0.0567,0.03231l1.37521-0.79398c0.03095-0.01787,0.05643-0.06201,0.05633-0.09757 c-0.0001-0.03633-0.02575-0.05018-0.0567-0.03231L22.15781,11.97712z" class="st11"/><path d="M22.16124,10.43008c-0.03095,0.01787-0.05643,0.06201-0.05633,0.09757 c0.0001,0.03633,0.02575,0.05095,0.0567,0.03308l1.37521-0.79398c0.03095-0.01787,0.05643-0.06201,0.05633-0.09834 c-0.0001-0.03556-0.02575-0.05018-0.0567-0.03231L22.16124,10.43008z" class="st11"/><path d="M22.16038,10.12702c-0.03095,0.01787-0.05643,0.06201-0.05633,0.09834 c0.0001,0.03556,0.02575,0.05018,0.0567,0.03232l1.37521-0.79398c0.03095-0.01787,0.05643-0.06201,0.05633-0.09757 c-0.0001-0.03633-0.02575-0.05095-0.0567-0.03308L22.16038,10.12702z" class="st11"/><path d="M22.15953,9.82474c-0.03095,0.01787-0.05643,0.06123-0.05633,0.09757 c0.0001,0.03556,0.02575,0.05018,0.0567,0.03231l1.37521-0.79398c0.03095-0.01787,0.05643-0.06201,0.05633-0.09757 c-0.0001-0.03634-0.02575-0.05018-0.0567-0.03231L22.15953,9.82474z" class="st11"/><path d="M22.15867,9.52168c-0.03095,0.01787-0.05643,0.06123-0.05633,0.09757 c0.0001,0.03556,0.02575,0.05018,0.0567,0.03231l1.37521-0.79398c0.03095-0.01787,0.05643-0.06201,0.05633-0.09757 c-0.0001-0.03634-0.02575-0.05018-0.0567-0.03231L22.15867,9.52168z" class="st11"/><path d="M22.15695,8.91557C22.126,8.93343,22.10052,8.9768,22.10062,9.01313 c0.0001,0.03556,0.02575,0.05018,0.0567,0.03232l1.37521-0.79398c0.03095-0.01787,0.05643-0.06201,0.05633-0.09757 c-0.0001-0.03633-0.02575-0.05018-0.0567-0.03231L22.15695,8.91557z" class="st11"/><path d="M22.15781,9.21862c-0.03095,0.01787-0.05643,0.06123-0.05633,0.09757 c0.0001,0.03556,0.02575,0.05018,0.0567,0.03231l1.37521-0.79398c0.03095-0.01787,0.05643-0.06201,0.05633-0.09757 c-0.0001-0.03633-0.02575-0.05018-0.0567-0.03231L22.15781,9.21862z" class="st11"/><g><g><g><g><g><g><g><g><g><g><polygon points="14.585 11.546 15.416 11.063 15.405 32.579 14.574 33.063" class="st9"/></g><g><polygon points="5.998 6.588 6.829 6.105 15.416 11.063 14.585 11.546" class="st9"/></g><path d="M6.00042,6.59077l-0.0122,21.51547l8.58416,4.95528l0.01223-21.51547L6.00042,6.59077z M13.58029,30.41419l-6.70426-3.87036L6.8819,7.67699l6.71019,3.87036L13.58029,30.41419z" class="st12"/></g></g><polygon points="6.885 7.676 6.875 27.358 13.579 31.228 13.589 11.546" class="st19"/></g></g></g></g></g></g><g><polygon points="8.455 28.27 13.582 25.408 13.582 24.738 7.769 27.874" class="st19"/><polygon points="6.875 27.358 7.008 27.434 13.583 23.994 13.584 22.3 6.876 25.793" class="st19"/><polygon points="13.586 17.749 6.878 20.429 6.878 21.099 13.586 18.419" class="st19"/><polygon points="13.587 15.311 6.88 17.991 6.879 19.685 13.586 17.005" class="st19"/><polygon points="12.785 11.082 6.882 13.44 6.881 14.109 13.47 11.477" class="st19"/><polygon points="10.289 9.641 6.883 11.002 6.882 12.696 12.023 10.642" class="st19"/></g></g><g><g><g class="st8"><g><path d="M14.38024,22.16862l-0.37701,0.21672c-0.02686,0.01612-0.05015,0.01701-0.06805,0.00716l-0.2194-0.12716 l0.0009,0.17641c0.00089,0.08955,0.03224,0.15314,0.08418,0.18359l-0.31612-0.18359 c-0.05105-0.03044-0.08328-0.09313-0.08328-0.18358l-0.00269-1.49263c-0.00089-0.18179,0.12717-0.40298,0.28477-0.49343 l0.37701-0.21761l0.31522,0.18268l-0.37612,0.21761c-0.15851,0.09134-0.28567,0.31254-0.28567,0.49433l0.00179,1.23741 l0.34835-0.20149L14.38024,22.16862z" class="st0"/></g></g></g><g><path d="M14.37602,20.23763l0.00062,0.21878l-0.37679,0.21754c-0.0526,0.03037-0.09477,0.10407-0.0946,0.16451 l0.00271,1.49304c0.00017,0.06044,0.04262,0.08463,0.09522,0.05426l0.37679-0.21754l0.00062,0.21944l-0.37679,0.21754 c-0.1578,0.09111-0.28629,0.01723-0.28681-0.16344l-0.00271-1.49304c-0.00051-0.18133,0.12714-0.40244,0.28494-0.49354 L14.37602,20.23763z" class="st6"/></g></g></g><g><g><g><g><g><g><g><polygon points="35.198 21.778 44.008 17.349 43.997 38.866 35.187 43.986" class="st9"/></g><g><polygon points="26.611 17.511 35.421 12.392 44.008 17.349 35.198 22.469" class="st11"/></g><g><polygon points="35.198 22.469 35.187 43.986 26.6 39.028 26.611 17.511" class="st12"/><g><polygon points="27.648 18.71 27.13 18.41 27.119 38.728 34.668 43.087 34.669 42.438 27.638 38.379" class="st11"/><polygon points="27.648 18.71 27.638 38.379 34.669 42.438 34.679 22.768" class="st9"/></g></g></g><g><polygon points="34.148 23.504 34.141 25.835 28.349 22.491 28.356 20.16" class="st12"/><g><g><g><polygon points="29.756 21.654 29.965 21.533 29.957 23.032 29.748 23.154" class="st3"/></g><g><polygon points="29.389 21.442 29.598 21.321 29.965 21.533 29.756 21.654" class="st7"/></g><polygon points="29.756 21.654 29.748 23.154 29.381 22.942 29.389 21.442" class="st4"/></g><g><g><polygon points="30.504 22.086 30.714 21.965 30.706 23.465 30.497 23.586" class="st3"/></g><g><polygon points="30.137 21.875 30.347 21.753 30.714 21.965 30.504 22.086" class="st7"/></g><polygon points="30.504 22.086 30.497 23.586 30.13 23.374 30.137 21.875" class="st4"/></g><g><g><polygon points="31.253 22.519 31.462 22.397 31.454 23.897 31.245 24.018" class="st3"/></g><g><polygon points="30.886 22.307 31.095 22.185 31.462 22.397 31.253 22.519" class="st7"/></g><polygon points="31.253 22.519 31.245 24.018 30.878 23.807 30.886 22.307" class="st4"/></g><g><g><polygon points="32.001 22.951 32.211 22.829 32.203 24.329 31.994 24.451" class="st3"/></g><g><polygon points="31.635 22.739 31.844 22.617 32.211 22.829 32.001 22.951" class="st7"/></g><polygon points="32.001 22.951 31.994 24.451 31.627 24.239 31.635 22.739" class="st4"/></g><g><g><polygon points="32.75 23.383 32.959 23.261 32.952 24.761 32.742 24.883" class="st3"/></g><g><polygon points="32.383 23.171 32.592 23.05 32.959 23.261 32.75 23.383" class="st7"/></g><polygon points="32.75 23.383 32.742 24.883 32.375 24.671 32.383 23.171" class="st4"/></g><g><g><polygon points="33.499 23.815 33.708 23.694 33.7 25.193 33.491 25.315" class="st3"/></g><g><polygon points="33.132 23.603 33.341 23.482 33.708 23.694 33.499 23.815" class="st7"/></g><polygon points="33.499 23.815 33.491 25.315 33.124 25.103 33.132 23.603" class="st4"/></g><g><g><polygon points="29.007 21.222 29.216 21.1 29.209 22.6 28.999 22.722" class="st3"/></g><g><polygon points="28.64 21.01 28.849 20.889 29.216 21.1 29.007 21.222" class="st7"/></g><polygon points="29.007 21.222 28.999 22.722 28.633 22.51 28.64 21.01" class="st4"/></g></g></g><g><polygon points="34.148 26.605 34.141 28.937 28.349 25.593 28.356 23.261" class="st12"/><g><g><g><polygon points="29.756 24.756 29.965 24.634 29.957 26.134 29.748 26.255" class="st3"/></g><g><polygon points="29.389 24.544 29.598 24.422 29.965 24.634 29.756 24.756" class="st7"/></g><polygon points="29.756 24.756 29.748 26.255 29.381 26.044 29.389 24.544" class="st4"/></g><g><g><polygon points="30.504 25.188 30.714 25.066 30.706 26.566 30.497 26.688" class="st3"/></g><g><polygon points="30.137 24.976 30.347 24.854 30.714 25.066 30.504 25.188" class="st7"/></g><polygon points="30.504 25.188 30.497 26.688 30.13 26.476 30.137 24.976" class="st4"/></g><g><g><polygon points="31.253 25.62 31.462 25.498 31.454 26.998 31.245 27.12" class="st3"/></g><g><polygon points="30.886 25.408 31.095 25.287 31.462 25.498 31.253 25.62" class="st7"/></g><polygon points="31.253 25.62 31.245 27.12 30.878 26.908 30.886 25.408" class="st4"/></g><g><g><polygon points="32.001 26.052 32.211 25.931 32.203 27.43 31.994 27.552" class="st3"/></g><g><polygon points="31.635 25.84 31.844 25.719 32.211 25.931 32.001 26.052" class="st7"/></g><polygon points="32.001 26.052 31.994 27.552 31.627 27.34 31.635 25.84" class="st4"/></g><g><g><polygon points="32.75 26.484 32.959 26.363 32.952 27.863 32.742 27.984" class="st3"/></g><g><polygon points="32.383 26.273 32.592 26.151 32.959 26.363 32.75 26.484" class="st7"/></g><polygon points="32.75 26.484 32.742 27.984 32.375 27.772 32.383 26.273" class="st4"/></g><g><g><polygon points="33.499 26.917 33.708 26.795 33.7 28.295 33.491 28.416" class="st3"/></g><g><polygon points="33.132 26.705 33.341 26.583 33.708 26.795 33.499 26.917" class="st7"/></g><polygon points="33.499 26.917 33.491 28.416 33.124 28.205 33.132 26.705" class="st4"/></g><g><g><polygon points="29.007 24.323 29.216 24.202 29.209 25.702 28.999 25.823" class="st3"/></g><g><polygon points="28.64 24.112 28.849 23.99 29.216 24.202 29.007 24.323" class="st7"/></g><polygon points="29.007 24.323 28.999 25.823 28.633 25.611 28.64 24.112" class="st4"/></g></g></g><g><polygon points="34.148 29.707 34.141 32.038 28.349 28.694 28.356 26.363" class="st12"/><g><g><g><polygon points="29.756 27.857 29.965 27.735 29.957 29.235 29.748 29.357" class="st3"/></g><g><polygon points="29.389 27.645 29.598 27.524 29.965 27.735 29.756 27.857" class="st7"/></g><polygon points="29.756 27.857 29.748 29.357 29.381 29.145 29.389 27.645" class="st4"/></g><g><g><polygon points="30.504 28.289 30.714 28.168 30.706 29.667 30.497 29.789" class="st3"/></g><g><polygon points="30.137 28.077 30.347 27.956 30.714 28.168 30.504 28.289" class="st7"/></g><polygon points="30.504 28.289 30.497 29.789 30.13 29.577 30.137 28.077" class="st4"/></g><g><g><polygon points="31.253 28.721 31.462 28.6 31.454 30.1 31.245 30.221" class="st3"/></g><g><polygon points="30.886 28.51 31.095 28.388 31.462 28.6 31.253 28.721" class="st7"/></g><polygon points="31.253 28.721 31.245 30.221 30.878 30.009 30.886 28.51" class="st4"/></g><g><g><polygon points="32.001 29.154 32.211 29.032 32.203 30.532 31.994 30.653" class="st3"/></g><g><polygon points="31.635 28.942 31.844 28.82 32.211 29.032 32.001 29.154" class="st7"/></g><polygon points="32.001 29.154 31.994 30.653 31.627 30.442 31.635 28.942" class="st4"/></g><g><g><polygon points="32.75 29.586 32.959 29.464 32.952 30.964 32.742 31.086" class="st3"/></g><g><polygon points="32.383 29.374 32.592 29.252 32.959 29.464 32.75 29.586" class="st7"/></g><polygon points="32.75 29.586 32.742 31.086 32.375 30.874 32.383 29.374" class="st4"/></g><g><g><polygon points="33.499 30.018 33.708 29.896 33.7 31.396 33.491 31.518" class="st3"/></g><g><polygon points="33.132 29.806 33.341 29.685 33.708 29.896 33.499 30.018" class="st7"/></g><polygon points="33.499 30.018 33.491 31.518 33.124 31.306 33.132 29.806" class="st4"/></g><g><g><polygon points="29.007 27.425 29.216 27.303 29.209 28.803 28.999 28.925" class="st3"/></g><g><polygon points="28.64 27.213 28.849 27.091 29.216 27.303 29.007 27.425" class="st7"/></g><polygon points="29.007 27.425 28.999 28.925 28.633 28.713 28.64 27.213" class="st4"/></g></g></g><g><polygon points="34.148 32.808 34.141 35.139 28.349 31.796 28.356 29.464" class="st12"/><g><g><g><polygon points="29.756 30.958 29.965 30.837 29.957 32.337 29.748 32.458" class="st3"/></g><g><polygon points="29.389 30.747 29.598 30.625 29.965 30.837 29.756 30.958" class="st7"/></g><polygon points="29.756 30.958 29.748 32.458 29.381 32.246 29.389 30.747" class="st4"/></g><g><g><polygon points="30.504 31.391 30.714 31.269 30.706 32.769 30.497 32.89" class="st3"/></g><g><polygon points="30.137 31.179 30.347 31.057 30.714 31.269 30.504 31.391" class="st7"/></g><polygon points="30.504 31.391 30.497 32.89 30.13 32.679 30.137 31.179" class="st4"/></g><g><g><polygon points="31.253 31.823 31.462 31.701 31.454 33.201 31.245 33.323" class="st3"/></g><g><polygon points="30.886 31.611 31.095 31.489 31.462 31.701 31.253 31.823" class="st7"/></g><polygon points="31.253 31.823 31.245 33.323 30.878 33.111 30.886 31.611" class="st4"/></g><g><g><polygon points="32.001 32.255 32.211 32.133 32.203 33.633 31.994 33.755" class="st3"/></g><g><polygon points="31.635 32.043 31.844 31.922 32.211 32.133 32.001 32.255" class="st7"/></g><polygon points="32.001 32.255 31.994 33.755 31.627 33.543 31.635 32.043" class="st4"/></g><g><g><polygon points="32.75 32.687 32.959 32.566 32.952 34.065 32.742 34.187" class="st3"/></g><g><polygon points="32.383 32.475 32.592 32.354 32.959 32.566 32.75 32.687" class="st7"/></g><polygon points="32.75 32.687 32.742 34.187 32.375 33.975 32.383 32.475" class="st4"/></g><g><g><polygon points="33.499 33.119 33.708 32.998 33.7 34.498 33.491 34.619" class="st3"/></g><g><polygon points="33.132 32.908 33.341 32.786 33.708 32.998 33.499 33.119" class="st7"/></g><polygon points="33.499 33.119 33.491 34.619 33.124 34.407 33.132 32.908" class="st4"/></g><g><g><polygon points="29.007 30.526 29.216 30.405 29.209 31.904 28.999 32.026" class="st3"/></g><g><polygon points="28.64 30.314 28.849 30.193 29.216 30.405 29.007 30.526" class="st7"/></g><polygon points="29.007 30.526 28.999 32.026 28.633 31.814 28.64 30.314" class="st4"/></g></g></g><g><polygon points="34.148 35.909 34.141 38.241 28.349 34.897 28.356 32.566" class="st12"/><g><g><g><polygon points="29.756 34.06 29.965 33.938 29.957 35.438 29.748 35.56" class="st3"/></g><g><polygon points="29.389 33.848 29.598 33.726 29.965 33.938 29.756 34.06" class="st7"/></g><polygon points="29.756 34.06 29.748 35.56 29.381 35.348 29.389 33.848" class="st4"/></g><g><g><polygon points="30.504 34.492 30.714 34.37 30.706 35.87 30.497 35.992" class="st3"/></g><g><polygon points="30.137 34.28 30.347 34.159 30.714 34.37 30.504 34.492" class="st7"/></g><polygon points="30.504 34.492 30.497 35.992 30.13 35.78 30.137 34.28" class="st4"/></g><g><g><polygon points="31.253 34.924 31.462 34.803 31.454 36.302 31.245 36.424" class="st3"/></g><g><polygon points="30.886 34.712 31.095 34.591 31.462 34.803 31.253 34.924" class="st7"/></g><polygon points="31.253 34.924 31.245 36.424 30.878 36.212 30.886 34.712" class="st4"/></g><g><g><polygon points="32.001 35.356 32.211 35.235 32.203 36.735 31.994 36.856" class="st3"/></g><g><polygon points="31.635 35.145 31.844 35.023 32.211 35.235 32.001 35.356" class="st7"/></g><polygon points="32.001 35.356 31.994 36.856 31.627 36.644 31.635 35.145" class="st4"/></g><g><g><polygon points="32.75 35.789 32.959 35.667 32.952 37.167 32.742 37.288" class="st3"/></g><g><polygon points="32.383 35.577 32.592 35.455 32.959 35.667 32.75 35.789" class="st7"/></g><polygon points="32.75 35.789 32.742 37.288 32.375 37.077 32.383 35.577" class="st4"/></g><g><g><polygon points="33.499 36.221 33.708 36.099 33.7 37.599 33.491 37.721" class="st3"/></g><g><polygon points="33.132 36.009 33.341 35.887 33.708 36.099 33.499 36.221" class="st7"/></g><polygon points="33.499 36.221 33.491 37.721 33.124 37.509 33.132 36.009" class="st4"/></g><g><g><polygon points="29.007 33.628 29.216 33.506 29.209 35.006 28.999 35.127" class="st3"/></g><g><polygon points="28.64 33.416 28.849 33.294 29.216 33.506 29.007 33.628" class="st7"/></g><polygon points="29.007 33.628 28.999 35.127 28.633 34.916 28.64 33.416" class="st4"/></g></g></g><g><polygon points="34.148 39.011 34.141 41.342 28.349 37.998 28.356 35.667" class="st12"/><g><g><g><polygon points="29.756 37.161 29.965 37.04 29.957 38.539 29.748 38.661" class="st3"/></g><g><polygon points="29.389 36.949 29.598 36.828 29.965 37.04 29.756 37.161" class="st7"/></g><polygon points="29.756 37.161 29.748 38.661 29.381 38.449 29.389 36.949" class="st4"/></g><g><g><polygon points="30.504 37.593 30.714 37.472 30.706 38.972 30.497 39.093" class="st3"/></g><g><polygon points="30.137 37.382 30.347 37.26 30.714 37.472 30.504 37.593" class="st7"/></g><polygon points="30.504 37.593 30.497 39.093 30.13 38.881 30.137 37.382" class="st4"/></g><g><g><polygon points="31.253 38.026 31.462 37.904 31.454 39.404 31.245 39.525" class="st3"/></g><g><polygon points="30.886 37.814 31.095 37.692 31.462 37.904 31.253 38.026" class="st7"/></g><polygon points="31.253 38.026 31.245 39.525 30.878 39.314 30.886 37.814" class="st4"/></g><g><g><polygon points="32.001 38.458 32.211 38.336 32.203 39.836 31.994 39.958" class="st3"/></g><g><polygon points="31.635 38.246 31.844 38.124 32.211 38.336 32.001 38.458" class="st7"/></g><polygon points="32.001 38.458 31.994 39.958 31.627 39.746 31.635 38.246" class="st4"/></g><g><g><polygon points="32.75 38.89 32.959 38.768 32.952 40.268 32.742 40.39" class="st3"/></g><g><polygon points="32.383 38.678 32.592 38.557 32.959 38.768 32.75 38.89" class="st7"/></g><polygon points="32.75 38.89 32.742 40.39 32.375 40.178 32.383 38.678" class="st4"/></g><g><g><polygon points="33.499 39.322 33.708 39.201 33.7 40.7 33.491 40.822" class="st3"/></g><g><polygon points="33.132 39.11 33.341 38.989 33.708 39.201 33.499 39.322" class="st7"/></g><polygon points="33.499 39.322 33.491 40.822 33.124 40.61 33.132 39.11" class="st4"/></g><g><g><polygon points="29.007 36.729 29.216 36.607 29.209 38.107 28.999 38.229" class="st3"/></g><g><polygon points="28.64 36.517 28.849 36.396 29.216 36.607 29.007 36.729" class="st7"/></g><polygon points="29.007 36.729 28.999 38.229 28.633 38.017 28.64 36.517" class="st4"/></g></g></g></g></g></g><g><g><g><path d="M41.94329,38.38718c-0.03095,0.01787-0.05643,0.06201-0.05633,0.09757 c0.0001,0.03633,0.02575,0.05095,0.0567,0.03308l1.37523-0.79398c0.03095-0.01787,0.05643-0.06201,0.05633-0.09834 c-0.0001-0.03556-0.02575-0.05018-0.0567-0.03231L41.94329,38.38718z" class="st11"/></g><g><path d="M41.94243,38.08413c-0.03095,0.01787-0.05643,0.062-0.05633,0.09834 c0.0001,0.03556,0.02575,0.05018,0.0567,0.03231l1.37523-0.79399c0.03095-0.01787,0.05643-0.06201,0.05633-0.09757 c-0.0001-0.03633-0.02575-0.05095-0.0567-0.03308L41.94243,38.08413z" class="st11"/></g><g><path d="M41.94157,37.78183c-0.03095,0.01787-0.05643,0.06123-0.05633,0.09757 c0.0001,0.03556,0.02575,0.05018,0.0567,0.03231l1.37523-0.79399c0.03095-0.01787,0.05643-0.06201,0.05633-0.09757 c-0.0001-0.03634-0.02575-0.05019-0.0567-0.03232L41.94157,37.78183z" class="st11"/></g><g><path d="M41.94072,37.47878c-0.03095,0.01787-0.05643,0.06123-0.05633,0.09757 c0.0001,0.03556,0.02575,0.05018,0.0567,0.03231l1.37523-0.79399c0.03095-0.01787,0.05643-0.062,0.05633-0.09757 c-0.0001-0.03634-0.02575-0.05018-0.0567-0.03231L41.94072,37.47878z" class="st11"/></g><g><path d="M41.939,36.87266c-0.03095,0.01787-0.05643,0.06123-0.05633,0.09757 c0.0001,0.03556,0.02575,0.05019,0.0567,0.03231l1.37523-0.79398c0.03095-0.01787,0.05643-0.06201,0.05633-0.09758 c-0.0001-0.03633-0.02575-0.05018-0.0567-0.03231L41.939,36.87266z" class="st11"/></g><g><path d="M41.93986,37.17572c-0.03095,0.01787-0.05643,0.06124-0.05633,0.09757 c0.0001,0.03556,0.02575,0.05018,0.0567,0.03231l1.37522-0.79399c0.03095-0.01787,0.05643-0.06201,0.05634-0.09757 c-0.0001-0.03633-0.02575-0.05017-0.0567-0.03231L41.93986,37.17572z" class="st11"/></g></g><g><g><path d="M41.94329,35.62867c-0.03095,0.01787-0.05643,0.06201-0.05633,0.09757 c0.0001,0.03633,0.02575,0.05095,0.0567,0.03308l1.37523-0.79399c0.03095-0.01787,0.05643-0.062,0.05633-0.09834 c-0.0001-0.03556-0.02575-0.05018-0.0567-0.03231L41.94329,35.62867z" class="st11"/></g><g><path d="M41.94243,35.32561c-0.03095,0.01787-0.05643,0.06201-0.05633,0.09834 c0.0001,0.03556,0.02575,0.05018,0.0567,0.03231l1.37523-0.79399c0.03095-0.01787,0.05643-0.06201,0.05633-0.09757 c-0.0001-0.03633-0.02575-0.05095-0.0567-0.03308L41.94243,35.32561z" class="st11"/></g><g><path d="M41.94157,35.02332c-0.03095,0.01787-0.05643,0.06123-0.05633,0.09757 c0.0001,0.03556,0.02575,0.05018,0.0567,0.03231l1.37523-0.79398c0.03095-0.01787,0.05643-0.06201,0.05633-0.09757 c-0.0001-0.03634-0.02575-0.05018-0.0567-0.03231L41.94157,35.02332z" class="st11"/></g><g><path d="M41.94072,34.72026c-0.03095,0.01787-0.05643,0.06123-0.05633,0.09757 c0.0001,0.03556,0.02575,0.05018,0.0567,0.03231l1.37523-0.79399c0.03095-0.01787,0.05643-0.062,0.05633-0.09757 c-0.0001-0.03634-0.02575-0.05018-0.0567-0.03231L41.94072,34.72026z" class="st11"/></g><g><path d="M41.939,34.11414c-0.03095,0.01787-0.05643,0.06123-0.05633,0.09757 c0.0001,0.03556,0.02575,0.05018,0.0567,0.03231l1.37523-0.79399c0.03095-0.01787,0.05643-0.06201,0.05633-0.09757 c-0.0001-0.03633-0.02575-0.05018-0.0567-0.03231L41.939,34.11414z" class="st11"/></g><g><path d="M41.93986,34.4172c-0.03095,0.01787-0.05643,0.06124-0.05633,0.09757 c0.0001,0.03556,0.02575,0.05018,0.0567,0.03231l1.37522-0.79398c0.03095-0.01787,0.05643-0.06201,0.05634-0.09757 c-0.0001-0.03633-0.02575-0.05018-0.0567-0.03231L41.93986,34.4172z" class="st11"/></g></g><g><g><path d="M41.94329,32.87015c-0.03095,0.01787-0.05643,0.06201-0.05633,0.09758 c0.0001,0.03633,0.02575,0.05095,0.0567,0.03308l1.37523-0.79399c0.03095-0.01787,0.05643-0.062,0.05633-0.09834 c-0.0001-0.03556-0.02575-0.05018-0.0567-0.03231L41.94329,32.87015z" class="st11"/></g><g><path d="M41.94243,32.56709c-0.03095,0.01787-0.05643,0.06201-0.05633,0.09834 c0.0001,0.03556,0.02575,0.05019,0.0567,0.03232l1.37523-0.79399c0.03095-0.01787,0.05643-0.06201,0.05633-0.09757 c-0.0001-0.03633-0.02575-0.05095-0.0567-0.03308L41.94243,32.56709z" class="st11"/></g><g><path d="M41.94157,32.2648c-0.03095,0.01787-0.05643,0.06123-0.05633,0.09757 c0.0001,0.03556,0.02575,0.05018,0.0567,0.03231l1.37523-0.79399c0.03095-0.01787,0.05643-0.06201,0.05633-0.09757 c-0.0001-0.03634-0.02575-0.05018-0.0567-0.03232L41.94157,32.2648z" class="st11"/></g><g><path d="M41.94072,31.96175c-0.03095,0.01787-0.05643,0.06123-0.05633,0.09757 c0.0001,0.03556,0.02575,0.05018,0.0567,0.03231l1.37523-0.79399c0.03095-0.01787,0.05643-0.06201,0.05633-0.09757 c-0.0001-0.03634-0.02575-0.05018-0.0567-0.03231L41.94072,31.96175z" class="st11"/></g><g><path d="M41.939,31.35563c-0.03095,0.01787-0.05643,0.06124-0.05633,0.09757 c0.0001,0.03556,0.02575,0.05018,0.0567,0.03232l1.37523-0.79399c0.03095-0.01787,0.05643-0.06201,0.05633-0.09758 c-0.0001-0.03633-0.02575-0.05018-0.0567-0.03231L41.939,31.35563z" class="st11"/></g><g><path d="M41.93986,31.65869c-0.03095,0.01787-0.05643,0.06124-0.05633,0.09757 c0.0001,0.03556,0.02575,0.05018,0.0567,0.03231l1.37522-0.79399c0.03095-0.01787,0.05643-0.06201,0.05634-0.09757 c-0.0001-0.03633-0.02575-0.05018-0.0567-0.03231L41.93986,31.65869z" class="st11"/></g></g><g><g><path d="M41.94329,30.11164c-0.03095,0.01787-0.05643,0.06201-0.05633,0.09757 c0.0001,0.03633,0.02575,0.05095,0.0567,0.03308l1.37523-0.79399c0.03095-0.01787,0.05643-0.06201,0.05633-0.09834 c-0.0001-0.03556-0.02575-0.05018-0.0567-0.03232L41.94329,30.11164z" class="st11"/></g><g><path d="M41.94243,29.80858c-0.03095,0.01787-0.05643,0.06201-0.05633,0.09834 c0.0001,0.03556,0.02575,0.05019,0.0567,0.03232l1.37523-0.79399c0.03095-0.01787,0.05643-0.06201,0.05633-0.09757 c-0.0001-0.03633-0.02575-0.05095-0.0567-0.03308L41.94243,29.80858z" class="st11"/></g><g><path d="M41.94157,29.50629c-0.03095,0.01787-0.05643,0.06124-0.05633,0.09757 c0.0001,0.03556,0.02575,0.05018,0.0567,0.03231l1.37523-0.79399c0.03095-0.01787,0.05643-0.06201,0.05633-0.09757 c-0.0001-0.03634-0.02575-0.05018-0.0567-0.03231L41.94157,29.50629z" class="st11"/></g><g><path d="M41.94072,29.20323c-0.03095,0.01787-0.05643,0.06123-0.05633,0.09757 c0.0001,0.03556,0.02575,0.05018,0.0567,0.03231l1.37523-0.79399c0.03095-0.01787,0.05643-0.06201,0.05633-0.09757 c-0.0001-0.03634-0.02575-0.05018-0.0567-0.03231L41.94072,29.20323z" class="st11"/></g><g><path d="M41.939,28.59711c-0.03095,0.01787-0.05643,0.06123-0.05633,0.09757 c0.0001,0.03556,0.02575,0.05018,0.0567,0.03232l1.37523-0.79399c0.03095-0.01787,0.05643-0.06201,0.05633-0.09757 c-0.0001-0.03633-0.02575-0.05018-0.0567-0.03231L41.939,28.59711z" class="st11"/></g><g><path d="M41.93986,28.90017c-0.03095,0.01787-0.05643,0.06123-0.05633,0.09757 c0.0001,0.03556,0.02575,0.05018,0.0567,0.03231l1.37522-0.79399c0.03095-0.01787,0.05643-0.06201,0.05634-0.09757 c-0.0001-0.03633-0.02575-0.05018-0.0567-0.03231L41.93986,28.90017z" class="st11"/></g></g><g><g><path d="M41.94329,27.35312c-0.03095,0.01787-0.05643,0.06201-0.05633,0.09757 c0.0001,0.03633,0.02575,0.05095,0.0567,0.03308l1.37523-0.79399c0.03095-0.01787,0.05643-0.06201,0.05633-0.09834 c-0.0001-0.03556-0.02575-0.05018-0.0567-0.03231L41.94329,27.35312z" class="st11"/></g><g><path d="M41.94243,27.05006c-0.03095,0.01787-0.05643,0.06201-0.05633,0.09834 c0.0001,0.03556,0.02575,0.05018,0.0567,0.03232l1.37523-0.79399c0.03095-0.01787,0.05643-0.06201,0.05633-0.09758 c-0.0001-0.03633-0.02575-0.05095-0.0567-0.03308L41.94243,27.05006z" class="st11"/></g><g><path d="M41.94157,26.74777c-0.03095,0.01787-0.05643,0.06124-0.05633,0.09757 c0.0001,0.03556,0.02575,0.05018,0.0567,0.03231l1.37523-0.79399c0.03095-0.01787,0.05643-0.06201,0.05633-0.09757 c-0.0001-0.03634-0.02575-0.05018-0.0567-0.03231L41.94157,26.74777z" class="st11"/></g><g><path d="M41.94072,26.44472c-0.03095,0.01787-0.05643,0.06123-0.05633,0.09757 c0.0001,0.03556,0.02575,0.05018,0.0567,0.03231l1.37523-0.79399c0.03095-0.01787,0.05643-0.06201,0.05633-0.09757 c-0.0001-0.03634-0.02575-0.05018-0.0567-0.03231L41.94072,26.44472z" class="st11"/></g><g><path d="M41.939,25.8386c-0.03095,0.01787-0.05643,0.06123-0.05633,0.09757 c0.0001,0.03556,0.02575,0.05019,0.0567,0.03232l1.37523-0.79399c0.03095-0.01787,0.05643-0.06201,0.05633-0.09757 c-0.0001-0.03633-0.02575-0.05018-0.0567-0.03231L41.939,25.8386z" class="st11"/></g><g><path d="M41.93986,26.14166c-0.03095,0.01787-0.05643,0.06123-0.05633,0.09757 c0.0001,0.03556,0.02575,0.05018,0.0567,0.03231l1.37522-0.79399c0.03095-0.01787,0.05643-0.06201,0.05634-0.09757 c-0.0001-0.03633-0.02575-0.05018-0.0567-0.03231L41.93986,26.14166z" class="st11"/></g></g><g><g><path d="M41.94329,24.5946c-0.03095,0.01787-0.05643,0.06201-0.05633,0.09757 c0.0001,0.03633,0.02575,0.05095,0.0567,0.03308l1.37523-0.79399c0.03095-0.01787,0.05643-0.06201,0.05633-0.09834 c-0.0001-0.03556-0.02575-0.05018-0.0567-0.03231L41.94329,24.5946z" class="st11"/></g><g><path d="M41.94243,24.29155c-0.03095,0.01787-0.05643,0.062-0.05633,0.09834 c0.0001,0.03556,0.02575,0.05018,0.0567,0.03232l1.37523-0.79399c0.03095-0.01787,0.05643-0.06201,0.05633-0.09757 c-0.0001-0.03633-0.02575-0.05095-0.0567-0.03308L41.94243,24.29155z" class="st11"/></g><g><path d="M41.94157,23.98926c-0.03095,0.01787-0.05643,0.06123-0.05633,0.09757 c0.0001,0.03556,0.02575,0.05018,0.0567,0.03231l1.37523-0.79399c0.03095-0.01787,0.05643-0.06201,0.05633-0.09757 c-0.0001-0.03634-0.02575-0.05018-0.0567-0.03232L41.94157,23.98926z" class="st11"/></g><g><path d="M41.94072,23.6862c-0.03095,0.01787-0.05643,0.06123-0.05633,0.09757 c0.0001,0.03556,0.02575,0.05018,0.0567,0.03231l1.37523-0.79399c0.03095-0.01787,0.05643-0.06201,0.05633-0.09757 c-0.0001-0.03634-0.02575-0.05018-0.0567-0.03231L41.94072,23.6862z" class="st11"/></g><g><path d="M41.939,23.08008c-0.03095,0.01787-0.05643,0.06124-0.05633,0.09757 c0.0001,0.03556,0.02575,0.05018,0.0567,0.03232l1.37523-0.79399c0.03095-0.01787,0.05643-0.06201,0.05633-0.09758 c-0.0001-0.03633-0.02575-0.05018-0.0567-0.03231L41.939,23.08008z" class="st11"/></g><g><path d="M41.93986,23.38314c-0.03095,0.01787-0.05643,0.06124-0.05633,0.09757 c0.0001,0.03556,0.02575,0.05018,0.0567,0.03231l1.37522-0.79399c0.03095-0.01787,0.05643-0.06201,0.05634-0.09757 c-0.0001-0.03633-0.02575-0.05018-0.0567-0.03231L41.93986,23.38314z" class="st11"/></g></g><g><g><path d="M41.94329,21.83609c-0.03095,0.01787-0.05643,0.06201-0.05633,0.09757 c0.0001,0.03633,0.02575,0.05095,0.0567,0.03308l1.37523-0.79399c0.03095-0.01787,0.05643-0.06201,0.05633-0.09834 c-0.0001-0.03556-0.02575-0.05018-0.0567-0.03232L41.94329,21.83609z" class="st11"/></g><g><path d="M41.94243,21.53303c-0.03095,0.01787-0.05643,0.06201-0.05633,0.09834 c0.0001,0.03556,0.02575,0.05019,0.0567,0.03232l1.37523-0.79399c0.03095-0.01787,0.05643-0.06201,0.05633-0.09757 c-0.0001-0.03633-0.02575-0.05095-0.0567-0.03308L41.94243,21.53303z" class="st11"/></g><g><path d="M41.94157,21.23074c-0.03095,0.01787-0.05643,0.06124-0.05633,0.09757 c0.0001,0.03556,0.02575,0.05018,0.0567,0.03231l1.37523-0.79399c0.03095-0.01787,0.05643-0.06201,0.05633-0.09757 c-0.0001-0.03634-0.02575-0.05018-0.0567-0.03231L41.94157,21.23074z" class="st11"/></g><g><path d="M41.94072,20.92769c-0.03095,0.01787-0.05643,0.06123-0.05633,0.09757 c0.0001,0.03556,0.02575,0.05018,0.0567,0.03231l1.37523-0.79399c0.03095-0.01787,0.05643-0.06201,0.05633-0.09757 c-0.0001-0.03634-0.02575-0.05018-0.0567-0.03231L41.94072,20.92769z" class="st11"/></g><g><path d="M41.939,20.32157c-0.03095,0.01787-0.05643,0.06123-0.05633,0.09757 c0.0001,0.03556,0.02575,0.05018,0.0567,0.03232l1.37523-0.79399c0.03095-0.01787,0.05643-0.06201,0.05633-0.09757 c-0.0001-0.03633-0.02575-0.05018-0.0567-0.03231L41.939,20.32157z" class="st11"/></g><g><path d="M41.93986,20.62463c-0.03095,0.01787-0.05643,0.06124-0.05633,0.09757 c0.0001,0.03556,0.02575,0.05018,0.0567,0.03231l1.37522-0.79399c0.03095-0.01787,0.05643-0.06201,0.05634-0.09757 c-0.0001-0.03633-0.02575-0.05018-0.0567-0.03231L41.93986,20.62463z" class="st11"/></g></g></g></g></g></g><g><g><path d="M37.53482,39.30094c-0.00653,0.33247-0.23471,0.73665-0.52155,0.89962 c-0.08475,0.05217-0.17599,0.07823-0.25421,0.07823c-0.05869,0-0.11734-0.01305-0.16298-0.04564 c-0.11734-0.06517-0.18908-0.20209-0.18908-0.37811c0-0.33244,0.22819-0.73012,0.52151-0.89958 c0.14996-0.09128,0.30641-0.0978,0.42375-0.03263C37.46961,38.99457,37.53482,39.12492,37.53482,39.30094z" class="st17"/></g></g><path d="M38.26741,40.21591l-1.32804-0.76641l-0.10823,0.18819l1.32707,0.7664 c0.12091,0.07021,0.19599,0.19989,0.19599,0.33835v3.64286c0,0.31592-0.16966,0.61039-0.44366,0.76933l-6.01325,3.49465 c-0.27302,0.15991-0.61429,0.15991-0.89121,0.00097l-17.02471-9.8287c-0.12188-0.07021-0.19501-0.19599-0.19501-0.33737 c-0.00098-0.14139,0.07118-0.26815,0.19404-0.33835l3.33474-1.93844c0.3403-0.19696,0.55091-0.56456,0.55091-0.95752v-5.88455 c0-0.20476-0.11018-0.39685-0.28765-0.50021l-0.7118-0.41051l-0.0429-0.02535l-0.11018,0.18819l0.75665,0.43586 c0.11018,0.06435,0.17941,0.18331,0.17941,0.31202v5.88455c0,0.3169-0.16966,0.61137-0.44366,0.76933l-3.33474,1.93844 c-0.18916,0.11018-0.30227,0.30715-0.30227,0.52654c0,0.21841,0.11311,0.41538,0.30325,0.52556l17.02472,9.8287 c0.16771,0.09653,0.3598,0.14724,0.55384,0.14724c0.19404,0,0.38613-0.05168,0.55579-0.14919l6.01326-3.49465 c0.3403-0.19794,0.55091-0.56456,0.55091-0.95654v-3.64286C38.57066,40.52696,38.45463,40.32512,38.26741,40.21591z" class="st17"/><g><g><path d="M17.34041,28.30209c-0.00653,0.33248-0.23471,0.73665-0.52155,0.89962 c-0.08475,0.05216-0.17599,0.07822-0.25421,0.07822c-0.05869,0-0.11734-0.01305-0.16298-0.04564 c-0.11734-0.06517-0.18908-0.20209-0.18908-0.37811c0-0.33244,0.22819-0.73012,0.52151-0.89958 c0.14996-0.09127,0.30641-0.0978,0.42375-0.03263C17.27519,27.99572,17.34041,28.12607,17.34041,28.30209z" class="st17"/></g></g><g><g><g><g><g><polygon points="26.614 27.424 26.14 27.149 26.151 48.666 26.625 48.941" class="st12"/></g><g><polygon points="35.201 22.466 34.727 22.191 26.14 27.149 26.614 27.424" class="st11"/></g><path d="M26.61383,27.42418l0.01229,21.51561l8.58412-4.95522l-0.01226-21.51561L26.61383,27.42418z M27.64847,27.42554l6.51795-3.75921l0.00611,19.66738l-6.51176,3.75922L27.64847,27.42554z" class="st9"/><g><g><g class="st8"><g><path d="M26.82687,37.69172l0.39301,0.22591c0.02801,0.0168,0.05228,0.01773,0.07094,0.00747l0.22871-0.13256 l-0.00093,0.1839c-0.00093,0.09335-0.03361,0.15963-0.08775,0.19137l0.32953-0.19137 c0.05321-0.03174,0.08682-0.09708,0.08682-0.19137l0.0028-1.55596c0.00093-0.18951-0.13256-0.42008-0.29686-0.51437 l-0.39301-0.22684l-0.3286,0.19043l0.39208,0.22684c0.16523,0.09522,0.29779,0.3258,0.29779,0.5153l-0.00187,1.28991 l-0.36313-0.21004L26.82687,37.69172z" class="st0"/></g></g></g><g><path d="M26.83127,35.67878l-0.00065,0.22806l0.39278,0.22677c0.05483,0.03166,0.09879,0.10848,0.09861,0.17149 l-0.00282,1.55639c-0.00018,0.06301-0.04442,0.08822-0.09926,0.05656l-0.39277-0.22677l-0.00065,0.22875l0.39277,0.22677 c0.1645,0.09497,0.29844,0.01796,0.29898-0.17038l0.00282-1.55639c0.00054-0.18902-0.13254-0.41951-0.29704-0.51448 L26.83127,35.67878z" class="st6"/></g></g></g></g><polygon points="34.164 23.665 34.173 43.334 27.662 47.094 27.652 27.424" class="st19"/></g><g class="st20"><polygon points="34.164 24.286 27.653 30.701 27.654 32.682 34.164 24.913" class="st2"/><polygon points="34.165 27.128 27.655 34.898 27.656 36.878 34.168 30.574" class="st2"/><polygon points="34.169 34.134 27.658 39.565 27.659 41.58 34.169 35.351" class="st2"/><polygon points="27.66 43.795 27.661 45.69 34.172 39.505 34.17 37.567" class="st2"/></g></g></g></svg>