<svg xmlns="http://www.w3.org/2000/svg" xmlns:xlink="http://www.w3.org/1999/xlink" id="Layer_1" version="1.1" viewBox="0 0 50 50" xml:space="preserve" style="enable-background:new 0 0 50 50"><style type="text/css">.st0{fill:none}.st1{fill:#b7c5fd}.st2{fill:#d9ddf6}.st3{fill:#6bb5fb}.st6{fill:#3955d1}.st7{fill:#4466fb}.st10{enable-background:new}.st12{fill:url(#SVGID_1_)}.st13{fill:url(#SVGID_2_)}.st14{fill:url(#SVGID_3_)}.st15{fill:url(#SVGID_4_)}.st16{fill:url(#SVGID_5_)}.st17{fill:url(#SVGID_6_)}.st18{fill:url(#SVGID_7_)}.st19{fill:url(#SVGID_8_)}.st20{fill:url(#SVGID_9_)}</style><pattern id="Unnamed_Pattern_12" width="32.252" height="32.252" x="-70" patternUnits="userSpaceOnUse" viewBox="0 -32.252 32.252 32.252" style="overflow:visible"><g><rect width="32.252" height="32.252" y="-32.252" class="st0"/><g><rect width="32.252" height="32.252" x="0" y="-32.252" class="st1"/></g></g></pattern><pattern id="Unnamed_Pattern_13" width="32.252" height="32.252" x="-70" patternUnits="userSpaceOnUse" viewBox="0 -32.252 32.252 32.252" style="overflow:visible"><g><rect width="32.252" height="32.252" y="-32.252" class="st0"/><g><rect width="32.252" height="32.252" x="0" y="-32.252" class="st2"/></g></g></pattern><pattern id="Unnamed_Pattern_2" width="32.252" height="32.252" x="-70" patternUnits="userSpaceOnUse" viewBox="0 -32.252 32.252 32.252" style="overflow:visible"><g><rect width="32.252" height="32.252" y="-32.252" class="st0"/><g><rect width="32.252" height="32.252" x="0" y="-32.252" class="st3"/></g></g></pattern><g><g><g class="st10"><g><pattern id="SVGID_1_" patternTransform="matrix(0.20089 0 0 0.20089 -6435.3291 -6329.86475)" xlink:href="#Unnamed_Pattern_12"/><path d="M47.77985,35.47271c-0.00603,2.03901-0.7252,3.47537-1.88634,4.15035l-5.3818,3.12582 c1.16113-0.67498,1.88232-2.10933,1.88834-4.15035c0.01005-3.85706-2.53722-8.50562-5.80768-10.86606 c0.01004-4.10616-2.87672-9.10828-6.44851-11.16939c-1.42833-0.82565-2.75016-1.05668-3.8209-0.77343 c-1.6272-4.26687-4.7249-8.30071-8.28464-10.3558c-2.64972-1.52876-5.05034-1.67139-6.78401-0.66494l5.3798-3.12582 c1.73366-1.00645,4.13428-0.86583,6.78399,0.66494c3.55975,2.05509,6.65745,6.08893,8.28464,10.3558 c1.07275-0.28325,2.39259-0.05423,3.82291,0.77142c3.57179,2.06313,6.45857,7.06323,6.44651,11.1694 C45.24263,26.96709,47.78989,31.61565,47.77985,35.47271z" class="st12"/><pattern id="SVGID_2_" patternTransform="matrix(0.20089 0 0 0.20089 -6435.3291 -6329.86475)" xlink:href="#Unnamed_Pattern_12"/><path d="M13.87189,7.15346l-5.3798,3.12783c-1.63925-0.73325-3.10975-0.72118-4.21464-0.07835l5.3818-3.12784 C10.76213,6.43427,12.23263,6.42222,13.87189,7.15346z" class="st13"/></g><g><pattern id="SVGID_3_" patternTransform="matrix(0.20089 0 0 0.20089 -6435.3291 -6329.86475)" xlink:href="#Unnamed_Pattern_13"/><path d="M18.03807,5.43469c3.55923,2.05492,6.65678,6.08863,8.28396,10.35549 c1.07224-0.28291,2.39355-0.05297,3.82237,0.77196c3.57205,2.06232,6.45873,7.06374,6.44709,11.16978 c3.27187,2.3614,5.8191,7.01036,5.80817,10.86732c-0.01164,4.10456-2.91591,5.76256-6.48924,3.6995L9.25277,26.90793 c-3.89655-2.24968-7.04532-7.70355-7.03262-12.18246c0.0118-4.16057,2.75347-6.01578,6.27168-4.44513 C8.78265,4.67474,12.95126,2.49782,18.03807,5.43469z" class="st14"/></g></g></g><g><g><g><g><g><g><g><path d="M20.84289,44.62598L6.19143,36.16577c-0.19229-0.11031-0.36533-0.12017-0.4855-0.04788 l10.22141-5.94025c0.12017-0.07206,0.29324-0.06267,0.4855,0.04811l14.65146,8.45998 c0.15872,0.09154,0.3026,0.23988,0.41799,0.41169l-10.22141,5.94025C21.14549,44.86586,21.00161,44.71753,20.84289,44.62598 z" class="st3"/><path d="M31.73247,42.57938c0,0.21148-0.0769,0.36545-0.19707,0.43258l-10.22141,5.94025 c0.12017-0.06736,0.19707-0.2211,0.19707-0.43727l0.00962-2.71117c0-0.25232-0.10263-0.53186-0.2598-0.7661 l10.22141-5.94025c0.15717,0.23425,0.2598,0.51379,0.2598,0.7661L31.73247,42.57938z" class="st3"/></g><path d="M6.18977,36.16612c-0.37749-0.21795-0.68232-0.04419-0.68355,0.38955l-0.0077,2.71553 c-0.00122,0.4303,0.30162,0.95834,0.67911,1.17628l14.65164,8.45913c0.37749,0.21795,0.68233,0.04075,0.68355-0.38955 l0.0077-2.71553c0.00123-0.43374-0.30161-0.95834-0.67911-1.17628L6.18977,36.16612z" class="st7"/></g></g></g></g><g><pattern id="SVGID_4_" patternTransform="matrix(-0.89115 0 0 0.89115 -15094.82031 -894.58459)" xlink:href="#Unnamed_Pattern_2"/><polygon points="13.593 42.152 20.322 46.041 20.322 47.125 13.593 43.23" class="st15"/></g><g><g><pattern id="SVGID_5_" patternTransform="matrix(-0.89115 0 0 0.89115 -15094.82031 -894.79828)" xlink:href="#Unnamed_Pattern_12"/><path d="M6.98856,38.12718c-0.26087-0.1506-0.47333-0.0295-0.47417,0.26667 c-0.00033,0.11594,0.03116,0.24125,0.08482,0.36c0.08513,0.18829,0.22628,0.36023,0.38629,0.45261 c0.15812,0.09129,0.29907,0.08221,0.38471-0.00748c0.05399-0.0566,0.08606-0.14522,0.08639-0.26116 C7.45744,38.64165,7.24637,38.27602,6.98856,38.12718 M8.44022,38.96527c-0.26087-0.15061-0.47025-0.02773-0.47109,0.26844 c-0.00033,0.11594,0.0307,0.24099,0.0838,0.35942c0.08423,0.18777,0.22424,0.35905,0.38423,0.45142 c0.15812,0.09129,0.29908,0.08222,0.38471-0.00748c0.05399-0.0566,0.08606-0.14522,0.08639-0.26116 C8.9091,39.47974,8.69802,39.11411,8.44022,38.96527 M9.89189,39.80338c-0.26088-0.15062-0.47025-0.02773-0.47109,0.26844 c-0.00033,0.11594,0.03069,0.24098,0.08379,0.35941c0.08423,0.18777,0.22424,0.35905,0.38424,0.45142 c0.15812,0.09129,0.29907,0.08221,0.38471-0.00748c0.05398-0.05661,0.08606-0.14522,0.08639-0.26116 C10.36076,40.31784,10.14968,39.95221,9.89189,39.80338" class="st16"/></g></g></g><g><g><g><path d="M21.41761,40.30533l9.10448-5.23949v3.47883l-8.61575,4.96528 c-0.27448,0.15848-0.61293,0.15805-0.88703-0.0013l-13.98889-8.1344L6.9855,31.9222L21.41761,40.30533z" class="st6"/><g><g><g><path d="M20.84289,38.12208L6.19143,29.66187c-0.19229-0.11032-0.36533-0.12017-0.4855-0.04788 l10.22141-5.94025c0.12017-0.07206,0.29324-0.06267,0.4855,0.04811l14.65146,8.45998 c0.15872,0.09154,0.3026,0.23988,0.41799,0.41169l-10.22141,5.94025C21.14549,38.36195,21.00161,38.21362,20.84289,38.12208 z" class="st3"/><path d="M31.73247,36.07548c0,0.21148-0.0769,0.36544-0.19707,0.43258L21.31399,42.4483 c0.12017-0.06736,0.19707-0.2211,0.19707-0.43727l0.00962-2.71116c0-0.25232-0.10263-0.53186-0.2598-0.7661 l10.22141-5.94025c0.15717,0.23424,0.2598,0.51378,0.2598,0.7661L31.73247,36.07548z" class="st3"/></g><path d="M6.18977,29.66221c-0.37749-0.21795-0.68232-0.04419-0.68355,0.38955l-0.0077,2.71553 c-0.00122,0.4303,0.30162,0.95834,0.67911,1.17628l14.65164,8.45913c0.37749,0.21795,0.68233,0.04074,0.68355-0.38955 l0.0077-2.71553c0.00123-0.43374-0.30161-0.95834-0.67911-1.17628L6.18977,29.66221z" class="st7"/></g></g></g></g><g><pattern id="SVGID_6_" patternTransform="matrix(-0.89115 0 0 0.89115 -15094.82031 -901.0885)" xlink:href="#Unnamed_Pattern_2"/><polygon points="13.593 35.648 20.322 39.537 20.322 40.621 13.593 36.726" class="st17"/></g><g><g><pattern id="SVGID_7_" patternTransform="matrix(-0.89115 0 0 0.89115 -15094.82031 -901.30219)" xlink:href="#Unnamed_Pattern_12"/><path d="M6.98856,31.62327c-0.26087-0.15061-0.47333-0.0295-0.47417,0.26667 c-0.00033,0.11594,0.03116,0.24125,0.08482,0.36001c0.08513,0.18829,0.22628,0.36023,0.38629,0.45261 c0.15812,0.09129,0.29907,0.08221,0.38471-0.00748c0.05399-0.0566,0.08606-0.14522,0.08639-0.26116 C7.45744,32.13774,7.24637,31.77211,6.98856,31.62327 M8.44022,32.46137c-0.26087-0.15061-0.47025-0.02773-0.47109,0.26844 c-0.00033,0.11594,0.0307,0.24098,0.0838,0.35942c0.08423,0.18777,0.22424,0.35905,0.38423,0.45142 c0.15812,0.09129,0.29908,0.08222,0.38471-0.00748c0.05399-0.05661,0.08606-0.14522,0.08639-0.26116 C8.9091,32.97583,8.69802,32.61021,8.44022,32.46137 M9.89189,33.29947c-0.26088-0.15061-0.47025-0.02773-0.47109,0.26844 c-0.00033,0.11594,0.03069,0.24098,0.08379,0.35941c0.08423,0.18777,0.22424,0.35905,0.38424,0.45143 c0.15812,0.09129,0.29907,0.08221,0.38471-0.00748c0.05398-0.05661,0.08606-0.14522,0.08639-0.26116 C10.36076,33.81393,10.14968,33.4483,9.89189,33.29947" class="st18"/></g></g></g><g><g><g><path d="M21.41761,33.80143l9.10448-5.2395v3.47883l-8.61575,4.96529 c-0.27448,0.15848-0.61293,0.15805-0.88703-0.0013l-13.98889-8.1344L6.9855,25.41829L21.41761,33.80143z" class="st6"/><g><g><g><path d="M20.84289,31.61817L6.19143,23.15796c-0.19229-0.11032-0.36533-0.12017-0.4855-0.04788 l10.22141-5.94025c0.12017-0.07206,0.29324-0.06267,0.4855,0.04811l14.65146,8.45998 c0.15872,0.09154,0.3026,0.23988,0.41799,0.41169l-10.22141,5.94025C21.14549,31.85805,21.00161,31.70971,20.84289,31.61817 z" class="st3"/><path d="M31.73247,29.57157c0,0.21148-0.0769,0.36545-0.19707,0.43258l-10.22141,5.94025 c0.12017-0.06736,0.19707-0.2211,0.19707-0.43727l0.00962-2.71117c0-0.25232-0.10263-0.53186-0.2598-0.7661 l10.22141-5.94025c0.15717,0.23424,0.2598,0.51379,0.2598,0.7661L31.73247,29.57157z" class="st3"/></g><path d="M6.18977,23.15831c-0.37749-0.21795-0.68232-0.04419-0.68355,0.38955l-0.0077,2.71553 c-0.00122,0.4303,0.30162,0.95834,0.67911,1.17628l14.65164,8.45913c0.37749,0.21795,0.68233,0.04075,0.68355-0.38955 l0.0077-2.71553c0.00123-0.43374-0.30161-0.95834-0.67911-1.17628L6.18977,23.15831z" class="st7"/></g></g></g></g><g><pattern id="SVGID_8_" patternTransform="matrix(-0.89115 0 0 0.89115 -15094.82031 -907.59241)" xlink:href="#Unnamed_Pattern_2"/><polygon points="13.593 29.144 20.322 33.033 20.322 34.117 13.593 30.222" class="st19"/></g><g><g><pattern id="SVGID_9_" patternTransform="matrix(-0.89115 0 0 0.89115 -15094.82031 -907.80609)" xlink:href="#Unnamed_Pattern_12"/><path d="M6.98856,25.11937c-0.26087-0.15061-0.47333-0.0295-0.47417,0.26667 c-0.00033,0.11594,0.03116,0.24125,0.08482,0.36001c0.08513,0.18829,0.22628,0.36023,0.38629,0.4526 c0.15812,0.09129,0.29907,0.08221,0.38471-0.00748C7.4242,26.13456,7.45627,26.04594,7.4566,25.93 C7.45744,25.63383,7.24637,25.2682,6.98856,25.11937 M8.44022,25.95746c-0.26087-0.15061-0.47025-0.02773-0.47109,0.26844 c-0.00033,0.11594,0.0307,0.24099,0.0838,0.35942c0.08423,0.18777,0.22424,0.35905,0.38423,0.45142 c0.15812,0.09129,0.29908,0.08222,0.38471-0.00748c0.05399-0.0566,0.08606-0.14522,0.08639-0.26116 C8.9091,26.47192,8.69802,26.1063,8.44022,25.95746 M9.89189,26.79556C9.63101,26.64494,9.42164,26.76783,9.4208,27.064 c-0.00033,0.11594,0.03069,0.24098,0.08379,0.35941c0.08423,0.18777,0.22424,0.35905,0.38424,0.45143 c0.15812,0.09129,0.29907,0.08221,0.38471-0.00748c0.05398-0.05661,0.08606-0.14522,0.08639-0.26116 C10.36076,27.31002,10.14968,26.94439,9.89189,26.79556" class="st20"/></g></g></g></g></g></svg>