<svg xmlns="http://www.w3.org/2000/svg" xmlns:xlink="http://www.w3.org/1999/xlink" id="Layer_1" version="1.1" viewBox="0 0 50 50" xml:space="preserve" style="enable-background:new 0 0 50 50"><style type="text/css">.st0{fill:#b7c5fd}.st3{fill:#3955d1}.st4{fill:#4466fb}.st6{fill:#798ffe}.st7{fill:#6bb5fb}.st8{enable-background:new}.st9{fill:#1b2a4f}.st11{fill:#384e85}.st12{fill:#2e4277}.st19{opacity:.3;fill:#4466fb}</style><g><g><g><g><polygon points="14.169 11.608 14.098 42.018 13.072 42.614 13.143 12.204" class="st12"/><path d="M10.79757,40.70855l0.07072-30.40989c-0.00083,0.2958,0.95182,1.04328,2.27427,1.90539l-0.07073,30.4099 C11.74938,41.75185,10.79673,41.00436,10.79757,40.70855z" class="st11"/><polygon points="21.452 15.813 21.381 46.223 14.098 42.018 14.169 11.608" class="st9"/><polygon points="21.452 17.687 21.444 18.62 14.161 14.415 14.169 13.482" class="st3"/><polygon points="21.452 20.104 21.444 21.037 14.161 16.832 14.169 15.899" class="st3"/><polygon points="21.452 22.52 21.444 23.454 14.161 19.249 14.169 18.315" class="st3"/><polygon points="21.452 24.937 21.444 25.871 14.161 21.666 14.169 20.732" class="st3"/><polygon points="21.452 27.354 21.444 28.287 14.161 24.082 14.169 23.149" class="st3"/><g><polygon points="19.585 28.751 19.58 29.338 15.392 26.919 15.397 26.332" class="st12"/><polygon points="19.585 30.132 19.58 30.718 15.392 28.3 15.397 27.713" class="st12"/><polygon points="19.585 32.893 19.58 33.48 15.392 31.062 15.397 30.475" class="st12"/><polygon points="19.585 31.512 19.58 32.099 15.392 29.681 15.397 29.094" class="st12"/><polygon points="19.585 35.655 19.58 36.242 15.392 33.823 15.397 33.236" class="st12"/><polygon points="19.585 34.274 19.58 34.861 15.392 32.442 15.397 31.856" class="st12"/><polygon points="19.585 37.036 19.58 37.622 15.392 35.204 15.397 34.617" class="st12"/></g><g><polygon points="39.758 8.464 39.687 39.47 23.819 48.692 23.89 17.006" class="st12"/><path d="M23.88952,17.68601l-0.07072,30.4099c-0.3087,0.1794-1.95371-0.50577-3.45702-1.28111l0.07072-30.40989 C22.12755,17.27913,23.57062,17.87133,23.88952,17.68601z" class="st11"/></g><path d="M39.75808,8.46421l-15.86856,9.2218c-0.3189,0.18532-1.76197-0.40688-3.45702-1.2811l1.01908-0.59223 l-7.28304-4.20487l-1.02599,0.59624c-1.50786-0.98298-2.53497-1.81694-2.21607-2.00226l15.86856-9.2218L39.75808,8.46421z" class="st11"/><g><g><polygon points="14.169 13.482 14.161 14.415 13.135 15.012 13.143 14.078" class="st4"/></g><g><polygon points="14.169 15.899 14.161 16.832 13.135 17.428 13.143 16.495" class="st4"/></g><g><polygon points="14.169 18.315 14.161 19.249 13.135 19.845 13.143 18.912" class="st4"/></g><g><polygon points="14.169 20.732 14.161 21.666 13.135 22.262 13.143 21.328" class="st4"/></g><g><polygon points="14.169 23.149 14.161 24.082 13.135 24.679 13.143 23.745" class="st4"/></g><g><path d="M10.86032,13.10616l0.00796-0.93343c-0.00083,0.2958,0.95182,1.04328,2.27427,1.90539l-0.00797,0.93344 C11.81214,14.14945,10.85949,13.40197,10.86032,13.10616z" class="st7"/></g><g><path d="M10.86032,15.52294l0.00796-0.93343c-0.00083,0.2958,0.95182,1.04328,2.27427,1.90539l-0.00797,0.93344 C11.81214,16.56623,10.85949,15.81875,10.86032,15.52294z" class="st7"/></g><g><path d="M10.86032,17.93972l0.00796-0.93343c-0.00083,0.2958,0.95182,1.04328,2.27427,1.90539l-0.00797,0.93344 C11.81214,18.98301,10.85949,18.23553,10.86032,17.93972z" class="st7"/></g><g><path d="M10.86032,20.3565l0.00796-0.93343c-0.00083,0.2958,0.95182,1.04328,2.27427,1.90539l-0.00797,0.93344 C11.81214,21.3998,10.85949,20.65232,10.86032,20.3565z" class="st7"/></g><g><path d="M10.86032,22.77328l0.00796-0.93343c-0.00083,0.2958,0.95182,1.04328,2.27427,1.90539l-0.00797,0.93344 C11.81214,23.81658,10.85949,23.0691,10.86032,22.77328z" class="st7"/></g><g><path d="M23.88952,19.56007l-0.00786,0.89898c-0.3087,0.1794-1.95381-0.47131-3.45712-1.24664l0.00796-0.93343 C21.9358,19.0543,23.58082,19.73947,23.88952,19.56007z" class="st7"/></g><g><path d="M23.88952,21.97685l-0.00786,0.89898c-0.3087,0.1794-1.95381-0.47131-3.45712-1.24664l0.00796-0.93343 C21.9358,21.47108,23.58082,22.15625,23.88952,21.97685z" class="st7"/></g><g><path d="M23.88952,24.39364l-0.00786,0.89898c-0.3087,0.1794-1.95381-0.47131-3.45712-1.24664l0.00796-0.93343 C21.9358,23.88787,23.58082,24.57303,23.88952,24.39364z" class="st7"/></g><g><path d="M23.88952,26.81042l-0.00786,0.89898c-0.3087,0.1794-1.95381-0.47131-3.45712-1.24664l0.00796-0.93343 C21.9358,26.30465,23.58082,26.98981,23.88952,26.81042z" class="st7"/></g><g><path d="M23.88952,29.2272l-0.00786,0.89898c-0.3087,0.1794-1.95381-0.47131-3.45712-1.24664l0.00796-0.93343 C21.9358,28.72143,23.58082,29.4066,23.88952,29.2272z" class="st7"/></g></g></g><g><g><g><g><polygon points="38.612 37.791 38.197 38.029 38.185 35.022 38.599 34.784" class="st9"/></g><g><polygon points="37.829 38.241 37.411 38.481 37.398 35.474 37.816 35.234" class="st9"/></g><g><polygon points="37.043 38.693 36.628 38.93 36.616 35.923 37.03 35.686" class="st9"/></g><g><polygon points="36.26 39.142 35.845 39.38 35.833 36.373 36.247 36.135" class="st9"/></g><g><polygon points="35.477 39.592 35.059 39.832 35.047 36.825 35.465 36.585" class="st9"/></g></g><g><g><polygon points="31.278 41.996 30.863 42.234 30.851 39.227 31.265 38.989" class="st9"/></g><g><polygon points="30.495 42.446 30.077 42.685 30.064 39.679 30.482 39.439" class="st9"/></g><g><polygon points="29.708 42.897 29.294 43.135 29.281 40.128 29.696 39.891" class="st9"/></g><g><polygon points="28.926 43.347 28.511 43.585 28.499 40.578 28.913 40.34" class="st9"/></g><g><polygon points="28.143 43.797 27.725 44.036 27.712 41.03 28.131 40.79" class="st9"/></g></g></g><g><g><g><polygon points="38.612 32.235 38.197 32.473 38.185 29.466 38.599 29.229" class="st9"/></g><g><polygon points="37.829 32.685 37.411 32.925 37.398 29.918 37.816 29.678" class="st9"/></g><g><polygon points="37.043 33.137 36.628 33.374 36.616 30.368 37.03 30.13" class="st9"/></g><g><polygon points="36.26 33.586 35.845 33.824 35.833 30.817 36.247 30.58" class="st9"/></g><g><polygon points="35.477 34.036 35.059 34.276 35.047 31.269 35.465 31.029" class="st9"/></g></g><g><g><polygon points="31.278 36.44 30.863 36.678 30.851 33.671 31.265 33.433" class="st9"/></g><g><polygon points="30.495 36.89 30.077 37.13 30.064 34.123 30.482 33.883" class="st9"/></g><g><polygon points="29.708 37.342 29.294 37.579 29.281 34.572 29.696 34.335" class="st9"/></g><g><polygon points="28.926 37.791 28.511 38.029 28.499 35.022 28.913 34.784" class="st9"/></g><g><polygon points="28.143 38.241 27.725 38.481 27.712 35.474 28.131 35.234" class="st9"/></g></g></g></g></g></g><g><g><g><g><g><g><g><g><g><polygon points="23.201 18.086 24.446 17.363 24.43 48.257 23.186 48.98" class="st9"/></g><g><polygon points="10.238 10.602 11.483 9.879 24.446 17.363 23.201 18.086" class="st9"/></g><path d="M10.2422,10.60526l-0.0176,30.89247l12.95897,7.48069l0.01765-30.89247L10.2422,10.60526z M21.7661,46.36595l-10.03452-5.79293l0.00877-28.23874l10.0434,5.79292L21.7661,46.36595z" class="st12"/></g></g><polygon points="11.744 12.332 11.731 40.574 21.765 46.368 21.779 18.125" class="st19"/></g></g></g></g></g><g><polygon points="11.731 40.574 11.929 40.688 21.77 36.757 21.771 34.222 11.732 38.233" class="st19"/><g><g class="st8"><g><path d="M22.96342,33.93107l-0.56429,0.32437c-0.04021,0.02412-0.07506,0.02546-0.10186,0.01072l-0.32839-0.19033 l0.00134,0.26405c0.00133,0.13403,0.04825,0.2292,0.12599,0.27478l-0.47315-0.27478 c-0.0764-0.04557-0.12465-0.13939-0.12465-0.27477l-0.00402-2.23408c-0.00133-0.27209,0.19033-0.60316,0.42623-0.73853 l0.56429-0.3257l0.47181,0.27343l-0.56295,0.3257c-0.23725,0.13672-0.42757,0.46779-0.42757,0.73988l0.00268,1.85208 l0.52139-0.30158L22.96342,33.93107z" class="st0"/></g></g></g><g><path d="M22.9571,31.04087l0.00093,0.32745l-0.56395,0.3256c-0.07873,0.04546-0.14184,0.15577-0.14159,0.24623 l0.00406,2.23469c0.00026,0.09047,0.06379,0.12667,0.14252,0.08122l0.56395-0.3256l0.00093,0.32844l-0.56396,0.3256 c-0.23619,0.13637-0.42851,0.02578-0.42927-0.24463l-0.00406-2.23469c-0.00077-0.2714,0.1903-0.60235,0.42649-0.73871 L22.9571,31.04087z" class="st6"/></g></g></g><g><polygon points="14.094 41.939 21.769 38.873 21.769 37.87 13.069 41.347" class="st19"/><polygon points="21.775 27.41 11.735 31.421 11.735 32.423 21.774 28.412" class="st19"/><polygon points="21.776 23.761 11.737 27.772 11.736 30.307 21.775 26.296" class="st19"/><polygon points="20.575 17.43 11.74 20.96 11.74 21.962 21.601 18.022" class="st19"/><polygon points="16.84 15.274 11.742 17.311 11.741 19.846 19.435 16.772" class="st19"/></g></g></svg>