<svg xmlns="http://www.w3.org/2000/svg" xmlns:xlink="http://www.w3.org/1999/xlink" version="1.1"><metadata>Created by FontForge 20170731 at Wed Aug 4 20:12:24 2021 By Aleksey,,, Copyright 2010 The Josefin Sans Project Authors (https://github.com/ThomasJockin/JosefinSansFont-master), with Reserved Font Name &quot;Josefin Sans&quot;.</metadata><defs><font id="JosefinSans-ThinItalic" horiz-adv-x="869"><font-face x-height="378" ascent="750" bbox="-97 -288 1378 1213" cap-height="702" descent="-250" font-family="Josefin Sans Thin" font-stretch="normal" font-style="italic" font-weight="100" panose-1="0 0 0 0 0 0 0 0 0 0" slope="-7" underline-position="-175" underline-thickness="50" unicode-range="U+000D-FB02" units-per-em="1000"/><glyph d="M93 0l43 357h-65l2 18h65l26 210q12 97 44 134.5t87 37.5q9 0 19.5 -2t19.5 -6l-10 -14q-5 3 -12 5t-17 2q-48 0 -74.5 -33.5t-36.5 -119.5l-26 -214h129l-2 -18h-129l-44 -357h-19zM404 378h19l-46 -378h-20zM408 501q1 10 8.5 17t17.5 7q9 0 15 -6.5t5 -14.5 q0 -10 -7.5 -17t-17.5 -7t-15.5 7t-5.5 14z" glyph-name="fi" horiz-adv-x="510" unicode="fi"/><glyph d="M93 0l43 357h-65l2 18h65l26 210q12 97 44 134.5t87 37.5q9 0 19.5 -2t19.5 -6l-10 -14q-5 3 -12 5t-17 2q-48 0 -74.5 -33.5t-36.5 -119.5l-26 -214h129l-2 -18h-129l-44 -357h-19zM444 752h20l-93 -752h-19z" glyph-name="fl" horiz-adv-x="489" unicode="fl"/><glyph glyph-name=".notdef" horiz-adv-x="300"/><glyph glyph-name=".null" horiz-adv-x="0"/><glyph glyph-name="nonmarkingreturn" horiz-adv-x="333"/><glyph glyph-name="NULL" horiz-adv-x="0"/><glyph glyph-name="NULL" horiz-adv-x="0"/><glyph glyph-name="CR" horiz-adv-x="300"/><glyph glyph-name="space" horiz-adv-x="300"/><glyph d="M159 717h19l-72 -583h-19zM68 17q-1 8 4.5 15.5t14.5 8.5q7 1 13.5 -3t7.5 -11q2 -9 -4 -16t-15 -9q-10 -1 -14.5 4t-6.5 11z" glyph-name="exclam" horiz-adv-x="199" unicode="!"/><glyph d="M174 721q-9 -63 -17.5 -124.5t-16.5 -124.5h-19l30 249h23zM307 721q-8 -63 -17 -124.5t-17 -124.5h-19l30 249h23z" glyph-name="quotedbl" horiz-adv-x="296" unicode="&quot;"/><glyph d="M294 644q-14 -55 -27.5 -110t-26.5 -110h165q13 55 26.5 110t27.5 110h19q-14 -55 -27.5 -110t-26.5 -110h134q-1 -5 -2 -9.5t-2 -9.5h-135q-10 -41 -19.5 -82t-19.5 -82h133q-1 -5 -2 -9t-2 -9h-134q-13 -56 -26 -111.5t-27 -111.5h-19q14 56 27 111.5t26 111.5h-165 q-14 -56 -27 -111.5t-27 -111.5h-19q14 56 27 111.5t27 111.5h-115q0 5 1.5 9t2.5 9h116q10 41 19.5 82t19.5 82h-114q0 5 1.5 9.5t2.5 9.5h115q13 55 26.5 110t27.5 110h19zM235 405q-10 -41 -19.5 -82t-19.5 -82h165q10 41 19.5 82t19.5 82h-165z" glyph-name="numbersign" horiz-adv-x="572" unicode="#"/><glyph d="M254 -68l55 447l1 9l46 378h17l-47 -385l-1 -9l-53 -440h-18zM500 639q-28 14 -76 30t-98 17q-53 0 -86.5 -16t-52.5 -39.5t-26.5 -47t-7.5 -38.5q0 -39 22.5 -65.5t59 -47t77.5 -40.5q43 -19 83.5 -42.5t66.5 -58.5t26 -89q0 -31 -11.5 -67t-37.5 -68.5t-68.5 -53 t-104.5 -20.5q-55 0 -98.5 13.5t-74.5 33.5t-49 38l12 16q19 -20 51.5 -39t74 -31.5t86.5 -12.5q69 0 113 29.5t65.5 73.5t21.5 86q0 49 -24.5 81.5t-63.5 55t-82 41.5q-31 13 -60.5 28.5t-53.5 34.5t-38 43.5t-13 57.5q0 49 26.5 85.5t70.5 56t97 19.5q29 0 62 -6.5 t64.5 -17.5t57.5 -25z" glyph-name="dollar" horiz-adv-x="568" unicode="$"/><glyph d="M225 223q-20 2 -39 11t-33 27t-21 44.5t-3 61.5q4 44 22 75t45.5 47.5t60.5 15.5q19 -1 38 -10.5t33 -27t20.5 -44t3.5 -61.5q-5 -44 -23 -75.5t-45.5 -48t-58.5 -15.5zM227 240q27 -1 49.5 13.5t38 42.5t18.5 66q3 30 -2 53t-16.5 39t-27 24.5t-33.5 9.5 q-27 1 -49.5 -13t-38 -41.5t-19.5 -68.5t6.5 -68t30 -41.5t43.5 -15.5zM533 3q-21 1 -39.5 10.5t-32.5 27t-20.5 44t-3.5 61.5q4 44 22 75.5t45.5 47.5t60.5 15q20 -1 38.5 -10.5t32.5 -27.5t21 -44t3 -61q-4 -44 -23 -75.5t-46 -48t-58 -14.5zM535 19q27 -1 50 14t38 43 t18 66q5 39 -5.5 66.5t-30 42.5t-43.5 16q-27 2 -49.5 -12t-38 -42t-19.5 -68q-4 -41 6.5 -68.5t30 -41.5t43.5 -16zM586 508l-369 -508h-21l369 508h21z" glyph-name="percent" horiz-adv-x="758" unicode="%"/><glyph d="M559 0h-4.5h-8.5h-8.5h-3.5l-314 505q-9 14 -15.5 28t-9.5 28t-3 28q0 49 21.5 84.5t61 55.5t94.5 20q41 0 74 -14.5t57 -30.5l-12 -14q-28 18 -57.5 29.5t-61.5 11.5q-78 0 -116.5 -41.5t-38.5 -99.5q0 -12 3.5 -24.5t9.5 -25t13 -22.5zM306 367q-36 2 -75 -10 t-73 -36.5t-55 -61t-21 -82.5q0 -48 27 -85.5t72 -59t99 -21.5q43 0 82.5 13t70 35.5t45.5 48.5l11 -18q-29 -43 -86 -70t-125 -27q-65 0 -114.5 25.5t-77 68t-27.5 92.5q1 47 22 85.5t56.5 66.5t79 42.5t88.5 13.5zM620 387h22l-148 -295l-12 16z" glyph-name="ampersand" horiz-adv-x="701" unicode="&amp;"/><glyph d="M176 721q-8 -63 -17 -124.5t-17 -124.5h-19l30 249h23z" glyph-name="quotesingle" horiz-adv-x="148" unicode="'"/><glyph d="M108 222q0 87 20 166t53 146.5t73 121.5t81 92l5 -21q-51 -51 -99 -125.5t-80 -170t-32 -206.5q-1 -78 13.5 -148t39 -126.5t52.5 -93.5l-11 -20q-31 38 -57.5 96.5t-42.5 132t-15 156.5v0z" glyph-name="parenleft" horiz-adv-x="324" unicode="("/><glyph d="M242 363q-1 -88 -21 -166.5t-52.5 -146t-73 -121.5t-80.5 -92l-5 21q50 50 98.5 125t80 170t32.5 206q0 78 -14.5 148.5t-38.5 127t-52 93.5l11 20q31 -38 57.5 -96.5t42 -132.5t15.5 -156v0z" glyph-name="parenright" horiz-adv-x="324" unicode=")"/><glyph d="M225 559q-29 -16 -57.5 -31.5t-57.5 -30.5q-2 4 -4.5 8.5t-3.5 8.5q29 16 58 31.5t58 30.5q-25 16 -50.5 32.5t-50.5 32.5q2 3 5 7t5 7q26 -16 51.5 -31.5t50.5 -31.5l16 128h21q-5 -32 -9 -64t-9 -64q30 15 60 31t60 31q1 -3 3 -7t4 -7q-30 -16 -60 -32.5t-59 -32.5v0 q25 -16 50.5 -31.5t51.5 -31.5q-3 -4 -6 -8.5t-7 -8.5q-25 16 -50.5 32t-50.5 32l-8 -62t-9 -63h-17z" glyph-name="asterisk" horiz-adv-x="335" unicode="*"/><glyph d="M308 411h19l-21 -169h171l-3 -19h-170l-21 -172h-19l21 172h-171l2 19h171z" glyph-name="plus" horiz-adv-x="544" unicode="+"/><glyph d="M19 -181l-9 9q30 18 45 50.5t15 75.5l21 -1q0 -26 -6.5 -52t-22 -48t-43.5 -34z" glyph-name="comma" horiz-adv-x="200" unicode=","/><glyph d="M79 202h184l-3 -19h-184z" glyph-name="hyphen" horiz-adv-x="300" unicode="-"/><glyph d="M66 20q0 10 8 17.5t18 7.5q8 0 14 -6t6 -14q0 -7 -4 -12.5t-9.5 -9t-12.5 -3.5q-8 0 -14 6t-6 14v0z" glyph-name="period" horiz-adv-x="163" unicode="."/><glyph d="M405 737q-93 -189 -185.5 -378t-185.5 -378h-19q93 189 185.5 378t185.5 378h19z" glyph-name="slash" horiz-adv-x="326" unicode="/"/><glyph d="M286 -5q-66 4 -113.5 34t-76 78.5t-38.5 108.5t-3 123q5 40 17 80t31 76t45 66t59 52t72.5 33t86.5 8q66 -4 113.5 -34t76 -78t39 -108t2.5 -123t-32 -121.5t-63.5 -104t-93.5 -70t-122 -20.5zM288 14q53 -4 101 15t87 58t65.5 95.5t35.5 129.5q11 97 -14.5 168.5 t-77.5 111.5t-121 43q-53 4 -101 -15t-87 -58t-65.5 -95.5t-35.5 -128.5q-11 -98 14 -169.5t77.5 -111.5t121.5 -43z" glyph-name="zero" horiz-adv-x="619" unicode="0"/><glyph d="M118 651h130l-80 -651h-20l77 631h-110z" glyph-name="one" horiz-adv-x="310" unicode="1"/><glyph d="M69 0q101 86 168.5 152t108.5 115t62 86t27.5 65.5t6.5 53.5q0 60 -22.5 97t-59 54t-77.5 17q-47 0 -81 -17.5t-56 -45t-32.5 -58.5t-10.5 -58q0 -30 6 -54.5t20 -43.5l-13 -11q-10 15 -17.5 31t-11.5 34.5t-4 41.5q0 34 12.5 69t37 64.5t62.5 48t90 18.5q50 0 90.5 -21 t64 -61.5t22.5 -99.5q0 -43 -16.5 -87t-56 -97t-108 -121.5t-172.5 -159.5l-4 7h367l-3 -19h-400z" glyph-name="two" horiz-adv-x="537" unicode="2"/><glyph d="M436 651l-235 -271l-16 3q20 11 44.5 14.5t49.5 2.5q51 -1 89.5 -22t60.5 -60t22 -93q0 -29 -10 -68t-34.5 -76t-69.5 -61.5t-114 -25.5q-30 0 -60 6.5t-57 23.5t-49 47l12 12q29 -41 71 -56t82 -14q63 0 104 23t64 57t32 70.5t9 62.5q0 69 -42 110.5t-117 46.5 q-27 1 -54.5 -4.5t-46.5 -14.5l-4 4l235 271l2 -7h-291l2 19h321z" glyph-name="three" horiz-adv-x="511" unicode="3"/><glyph d="M33 181v1l426 477h1l-56 -460h96l-2 -18h-97l-21 -181h-20l22 181h-349zM438 611l-373 -419l-4 7h323l51 417z" glyph-name="four" horiz-adv-x="505" unicode="4"/><glyph d="M232 -6q-25 2 -49.5 9.5t-47 21.5t-40.5 35l14 13q15 -20 35 -32.5t42 -19.5t46 -8q54 -3 99 21t74 65t35 90q4 38 -7.5 72t-34.5 60t-55 42t-70 19q-35 2 -65 -8.5t-49 -26.5l-5 1l39 303h289l-3 -19h-270l-33 -266l-1 13q20 11 49 16.5t55 3.5q41 -2 76 -19t60 -46 t37 -66t8 -79q-5 -39 -23.5 -75t-49 -64t-70 -43.5t-85.5 -12.5z" glyph-name="five" horiz-adv-x="542" unicode="5"/><glyph d="M234 -7q-56 3 -99.5 32t-66 76t-16.5 104q8 69 42 128t87 110.5t118.5 97t134.5 86.5l11 -17q-90 -49 -158 -99t-113 -100t-67 -97l-4 4q32 42 80 61.5t99 17.5q41 -3 75.5 -20t59.5 -45.5t37 -66t7 -78.5q-4 -42 -23.5 -78t-50.5 -63t-70 -41t-83 -12zM235 11 q42 -2 77.5 11.5t63.5 38t45 57t21 69.5q5 50 -15.5 93t-60 70t-89.5 29q-43 2 -78.5 -11t-63 -37t-44 -57t-20.5 -71q-6 -51 14.5 -93.5t59.5 -69t90 -29.5z" glyph-name="six" horiz-adv-x="521" unicode="6"/><glyph d="M476 651l-370 -651h-25l366 641l12 -9h-389l3 19h403z" glyph-name="seven" horiz-adv-x="468" unicode="7"/><glyph d="M52 205q5 47 29 86.5t61.5 66t82.5 35.5q-39 16 -61.5 51t-16.5 76q3 31 16 57t34 45t49 28.5t62 8.5q44 -3 74.5 -24t44.5 -55t10 -75q-5 -42 -34 -74t-71 -45q41 -13 72 -42t47 -69t11 -87q-4 -33 -17.5 -63t-35 -55t-49.5 -43t-60 -27t-67 -7q-56 3 -99 32t-65.5 76.5 t-16.5 103.5zM72 204q-5 -49 14.5 -92.5t57.5 -71t89 -29.5q52 -3 97.5 20.5t76 65t35.5 92.5q5 49 -15.5 91.5t-60.5 69.5t-91 30q-51 2 -95.5 -20.5t-73.5 -63t-34 -92.5zM165 518q-6 -48 28 -83t88 -38q37 -1 66.5 13t48 39.5t21.5 56.5q6 58 -25 95t-84 40 q-54 2 -94.5 -30t-48.5 -93z" glyph-name="eight" horiz-adv-x="512" unicode="8"/><glyph d="M259 229q-42 3 -77 20.5t-59.5 47t-36 66.5t-6.5 79t24.5 77.5t51 62t70.5 40t83 11.5q56 -3 99.5 -30t66 -74t14.5 -110q-8 -71 -45 -131.5t-92 -111.5t-119.5 -94.5t-126.5 -81.5l-12 18q95 52 163 104t110.5 98t62.5 83l15 2q-41 -42 -83.5 -60.5t-102.5 -15.5z M263 248q85 -5 140.5 38t67.5 142q4 52 -16.5 93t-59 65.5t-87.5 27.5q-52 3 -97 -19t-75.5 -62.5t-36.5 -90.5q-6 -51 14.5 -94t59.5 -70t90 -30z" glyph-name="nine" horiz-adv-x="525" unicode="9"/><glyph d="M65 20q0 10 8 17.5t18 7.5q8 0 14 -6t6 -14q0 -7 -4 -12.5t-9.5 -9t-12.5 -3.5q-8 0 -14 6t-6 14v0zM96 272q0 10 8 17t18 7q8 0 13.5 -6t5.5 -14q0 -7 -3.5 -12.5t-9 -8.5t-12.5 -3q-8 0 -14 5.5t-6 14.5v0z" glyph-name="colon" horiz-adv-x="175" unicode=":"/><glyph d="M120 270q0 7 3.5 12.5t9 9t11.5 3.5q9 0 14.5 -6t5.5 -14q0 -10 -7.5 -17.5t-17.5 -7.5q-9 0 -14 6t-5 14v0zM125 86q-28 -52 -56 -103t-55 -103h-19l51.5 103l51.5 103h27z" glyph-name="semicolon" horiz-adv-x="201" unicode=";"/><glyph d="M546 -15q-102 63 -203.5 126.5t-203.5 126.5q117 63 234.5 126.5t234.5 126.5l-3 -22q-107 -58 -214 -115.5t-214 -115.5q92 -57 185.5 -114.5t186.5 -115.5v0z" glyph-name="less" horiz-adv-x="675" unicode="&lt;"/><glyph d="M120 166h507l-3 -18h-506zM144 360h507l-3 -18h-506z" glyph-name="equal" horiz-adv-x="709" unicode="="/><glyph d="M114 8q107 58 214 115.5t214 114.5q-92 58 -186 115.5t-186 115.5l3 22q102 -63 203.5 -126.5t203.5 -126.5q-117 -63 -234.5 -126.5t-234.5 -126.5v0z" glyph-name="greater" horiz-adv-x="646" unicode="&gt;"/><glyph d="M234 261q4 31 17.5 50.5t34 33t45.5 28t52 35.5q39 32 57.5 69t18.5 80q0 45 -20 80.5t-55 56t-81 20.5q-40 0 -76 -15t-64 -42t-44 -63v0q-4 1 -8.5 2t-7.5 2q13 29 33.5 53t47 42.5t57.5 29t64 10.5q51 0 90 -23.5t61 -63.5t22 -88q0 -61 -32 -106.5t-87 -81.5 q-28 -19 -50.5 -31t-37 -32.5t-20.5 -64.5l-10 -78h-19zM214 23q-7 0 -13 6t-6 14q0 11 8 18t17 7q7 0 13.5 -5.5t6.5 -14.5q0 -10 -8.5 -17.5t-17.5 -7.5v0z" glyph-name="question" horiz-adv-x="452" unicode="?"/><glyph d="M398 -208q-83 0 -147 23t-108.5 67.5t-68 107.5t-23.5 144q0 51 17.5 112.5t55 121.5t97 110.5t143.5 80.5t194 30q78 0 143.5 -25t113 -69.5t74 -104.5t26.5 -130q0 -52 -16 -100.5t-44.5 -87t-65.5 -60.5t-79 -22q-37 0 -57.5 17.5t-26 49.5t4.5 78l4 -13 q-18 -36 -48.5 -65t-68 -46t-77.5 -17q-54 0 -95 22.5t-64 62t-21 89.5q0 58 29 107.5t78 80t108 30.5q44 0 79 -15.5t59.5 -42.5t34.5 -62l20 112h15l-39 -278q-2 -21 1.5 -42t18.5 -35.5t45 -14.5q37 0 70 21t58.5 57t40.5 81.5t15 92.5q0 88 -43.5 158.5t-120 111.5 t-174.5 41q-106 0 -185.5 -30t-136.5 -79t-93 -107t-53 -115t-17 -103q0 -77 21.5 -138t64 -103t103.5 -64t140 -22q62 0 119.5 20t108.5 52l10 -16q-36 -23 -75 -39.5t-80.5 -25.5t-84.5 -9zM444 11q42 0 84 22t72 60.5t37 87.5l5 41q-2 41 -24 74t-59 53t-84 20 q-51 0 -95 -27t-71 -72.5t-27 -101.5q-1 -44 19.5 -79.5t57.5 -56.5t85 -21z" glyph-name="at" horiz-adv-x="963" unicode="@"/><glyph d="M60 0h-21l381 734h3l200 -734h-21l-191 700l14 3zM195 281h344l-1 -18h-347z" glyph-name="A" horiz-adv-x="709" unicode="A"/><glyph d="M320 702q90 0 137.5 -33.5t47.5 -109.5q0 -41 -13 -85.5t-45 -78.5t-89 -45l1 4q38 -6 70 -26t51 -52t19 -74q0 -50 -15.5 -87.5t-44 -63t-68.5 -38.5t-90 -13h-185l86 702h138zM311 361q58 0 92.5 21.5t52 54t23.5 64t6 51.5q0 70 -43 100.5t-123 30.5h-120l-39 -322 h151zM283 18q72 0 115 27t62 68.5t19 86.5q0 49 -26 80.5t-65 47t-78 15.5h-153l-39 -325h165z" glyph-name="B" horiz-adv-x="577" unicode="B"/><glyph d="M600 29q-25 -13 -52 -22t-56.5 -14t-60.5 -5q-77 0 -139 25.5t-106 70.5t-68 105t-24 129q0 49 12.5 102.5t40.5 104t72.5 91t108 64.5t148.5 24q56 0 107 -17t93 -46l-12 -16q-38 28 -87 44t-102 16q-100 0 -169 -33.5t-111.5 -88.5t-61.5 -119.5t-19 -125.5 q0 -69 24.5 -126.5t68 -98.5t101 -63.5t122.5 -22.5q29 0 57 5t54 14t50 20z" glyph-name="C" horiz-adv-x="697" unicode="C"/><glyph d="M96 0l86 702h146q100 0 167.5 -25.5t107 -70t56 -101t16.5 -119.5q-1 -95 -31 -167t-84 -120.5t-126.5 -73.5t-157.5 -25h-180zM118 20h165q76 0 143 23t118.5 69t81 114t29.5 158q0 60 -16 113.5t-52.5 95t-98 65t-152.5 23.5h-137z" glyph-name="D" horiz-adv-x="731" unicode="D"/><glyph d="M182 702h419l-3 -20h-399l-39 -319h360l-3 -19h-360l-39 -324h413l-2 -20h-433z" glyph-name="E" horiz-adv-x="631" unicode="E"/><glyph d="M182 702h379l-3 -20h-359l-40 -328h320l-3 -20h-320l-40 -334h-20z" glyph-name="F" horiz-adv-x="571" unicode="F"/><glyph d="M621 28q-25 -12 -56.5 -21.5t-65.5 -14t-66 -4.5q-53 0 -99 12t-83.5 33.5t-67 52t-49.5 67.5t-30.5 79t-9.5 87q0 47 14 99.5t42.5 103t73.5 92t108 66t146 24.5q56 -1 106.5 -17.5t92.5 -45.5l-12 -16q-38 28 -87 44t-102 16q-80 0 -140 -24t-102 -64t-68.5 -88.5 t-39 -97.5t-12.5 -92q-1 -49 12 -94t38 -83t61.5 -67t83 -46.5t102.5 -20.5q46 -2 99 6.5t93 26.5l29 239h-171l3 19h191z" glyph-name="G" horiz-adv-x="740" unicode="G"/><glyph d="M679 702l-86 -702h-20l43 344h-458l-42 -344h-20l86 702h20l-42 -339h458l41 339h20z" glyph-name="H" horiz-adv-x="736" unicode="H"/><glyph d="M182 702h20l-86 -702h-20z" glyph-name="I" horiz-adv-x="258" unicode="I"/><glyph d="M179 93q-10 -75 -42 -127t-78.5 -79t-98.5 -29v0l3 19q49 3 90.5 29.5t70 74.5t36.5 115l75 606h18z" glyph-name="J" horiz-adv-x="310" unicode="J"/><glyph d="M160 365l-5 -34l-3 3l430 368h26l-325 -279l281 -423h-25l-273 410l-113 -96l-37 -314h-20l86 702h20z" glyph-name="K" horiz-adv-x="641" unicode="K"/><glyph d="M182 702h20l-84 -682h403l-3 -20h-422z" glyph-name="L" horiz-adv-x="561" unicode="L"/><glyph d="M115 0h-19l88 714h1l275 -472h-12l392 472h1l-89 -714h-19l81 665l2 -8l-363 -437h-2l-257 437l3 7z" glyph-name="M" horiz-adv-x="896" unicode="M"/><glyph d="M670 -13h-1l-477 679l6 10l-83 -676h-19l87 713h1l481 -687l-10 2l83 674h19z" glyph-name="N" horiz-adv-x="813" unicode="N"/><glyph d="M432 -7q-72 0 -133.5 24.5t-107.5 68.5t-71.5 104.5t-25.5 133.5q0 66 25 133.5t73.5 124.5t119.5 92t164 35q71 0 132.5 -24.5t107.5 -69t71.5 -105t25.5 -132.5q0 -66 -25 -133.5t-73.5 -124.5t-119.5 -92t-163 -35zM432 12q85 0 152.5 33t114 87t70.5 118.5t24 126.5 q0 64 -24 120.5t-67 100t-101 68t-126 24.5q-86 0 -153 -33t-113.5 -87.5t-70.5 -118.5t-24 -127t23.5 -119.5t66.5 -100t101 -68t127 -24.5z" glyph-name="O" unicode="O"/><glyph d="M326 702q28 0 59.5 -9t59.5 -28.5t45.5 -51t17.5 -77.5q0 -40 -14.5 -79t-44.5 -70.5t-75.5 -50.5t-107.5 -19h-112l-38 -317h-20l86 702h144zM271 337q63 0 105 20.5t66.5 51.5t35 65t10.5 60q0 45 -22.5 78t-61.5 51.5t-90 18.5h-115l-42 -345h114z" glyph-name="P" horiz-adv-x="530" unicode="P"/><glyph d="M591 18l214 2l-2 -20h-270zM476 -7q-72 0 -133.5 24.5t-107.5 68.5t-71.5 104.5t-25.5 133.5q0 66 25 133.5t73.5 124.5t119.5 92t164 35q71 0 132.5 -24.5t107.5 -69t71.5 -105t25.5 -132.5q0 -66 -25 -133.5t-73.5 -124.5t-119.5 -92t-163 -35zM476 12q85 0 152.5 33 t114 87t70.5 118.5t24 126.5q0 64 -24 120.5t-67 100t-101 68t-126 24.5q-86 0 -153 -33t-113.5 -87.5t-70.5 -118.5t-24 -127t23.5 -119.5t66.5 -100t101 -68t127 -24.5z" glyph-name="Q" horiz-adv-x="903" unicode="Q"/><glyph d="M326 702q30 0 64 -10t62.5 -32t44 -57.5t9.5 -87.5q-5 -38 -20.5 -73.5t-44.5 -63.5t-72.5 -44.5t-102.5 -16.5h-112l-39 -317h-19l86 702h144zM265 336q79 0 125.5 27.5t68.5 68.5t27 82q5 37 -5.5 68.5t-33 54t-54 34.5t-69.5 12h-125l-42 -347h108zM356 335l160 -335 h-22l-161 335h23z" glyph-name="R" horiz-adv-x="617" unicode="R"/><glyph d="M500 639q-28 14 -76 30t-98 17q-53 0 -86.5 -16t-52.5 -39.5t-26.5 -47t-7.5 -38.5q0 -39 22.5 -65.5t59 -47t77.5 -40.5q43 -19 83.5 -42.5t66.5 -58.5t26 -89q0 -31 -11.5 -67t-37.5 -68.5t-68.5 -53t-104.5 -20.5q-55 0 -98.5 13.5t-74.5 33.5t-49 38l12 16 q19 -20 51.5 -39t74 -31.5t86.5 -12.5q69 0 113 29.5t65.5 73.5t21.5 86q0 49 -24.5 81.5t-63.5 55t-82 41.5q-31 13 -60.5 28.5t-53.5 34.5t-38 43.5t-13 57.5q0 49 26.5 85.5t70.5 56t97 19.5q29 0 62 -6.5t64.5 -17.5t57.5 -25z" glyph-name="S" horiz-adv-x="546" unicode="S"/><glyph d="M122 702h456l-3 -19h-218l-83 -683h-20l83 683h-217z" glyph-name="T" horiz-adv-x="575" unicode="T"/><glyph d="M145 230q-9 -70 11.5 -119t64.5 -74.5t105 -25.5q66 0 115.5 25.5t80 74.5t39.5 119l57 472h20l-58 -474q-9 -77 -41.5 -129.5t-86.5 -79.5t-128 -27v0q-66 0 -114.5 27t-72 79.5t-13.5 129.5l58 474h20z" glyph-name="U" horiz-adv-x="695" unicode="U"/><glyph d="M318 -30l-202 732h22l191 -700h-12l362 700h21l-381 -732h-1z" glyph-name="V" horiz-adv-x="691" unicode="V"/><glyph d="M116 701h22l173 -692l-7 1l202 414l8 -23l-212 -433zM431 701h21l176 -697l-10 4l353 693h21l-375 -733z" glyph-name="W" horiz-adv-x="983" unicode="W"/><glyph d="M121 702h24l371 -702h-25zM25 0l277 364l13 -12l-265 -352h-25zM309 369l252 333h25l-264 -347z" glyph-name="X" horiz-adv-x="586" unicode="X"/><glyph d="M319 261l-207 441h22l202 -425l-9 -1l305 426h25l-317 -441l-31 -261h-22z" glyph-name="Y" horiz-adv-x="643" unicode="Y"/><glyph d="M14 0l598 689l7 -6h-441q-18 0 -30.5 3.5t-18 13t-3.5 28.5l2 9h21l-2 -12q-1 -10 5.5 -16.5t22.5 -6.5h472l-599 -688l-3 5h550l-2 -19h-579z" glyph-name="Z" horiz-adv-x="631" unicode="Z"/><glyph d="M188 747h165l-2 -19h-145l-105 -858h145l-3 -19h-165z" glyph-name="bracketleft" horiz-adv-x="352" unicode="["/><glyph d="M126 737l92 -378t93 -378h-20q-46 189 -92.5 378t-92.5 378h20z" glyph-name="backslash" horiz-adv-x="325" unicode="\"/><glyph d="M177 747h165l-110 -896h-165l3 19h144l105 858h-144z" glyph-name="bracketright" horiz-adv-x="393" unicode="]"/><glyph d="M392 480q-13 24 -27 49l-28 50t-27 50l-40 -50l-40 -50t-40 -49h-19q35 45 71 90.5t71 90.5v0q25 -45 49.5 -90.5t48.5 -90.5h-19z" glyph-name="asciicircum" horiz-adv-x="470" unicode="^"/><glyph d="M103 19h400l-2 -19h-401z" glyph-name="underscore" horiz-adv-x="601" unicode="_"/><glyph d="M82 613l73 -133h-19l-76 133h22z" glyph-name="grave" horiz-adv-x="200" unicode="`"/><glyph d="M238 -5q-53 0 -94.5 24.5t-65 65.5t-23.5 92q0 30 11 66t35 68.5t63.5 53.5t96.5 21q45 0 82 -17t62.5 -46.5t36.5 -67.5l-5 -12l21 135h15l-45 -378h-19l14 120l1 -15q-13 -24 -32.5 -44t-43.5 -35t-52 -23t-58 -8zM243 12q47 0 87 20t66.5 56t33.5 82l4 41 q-3 44 -26 79.5t-61 56.5t-85 21q-52 0 -88 -19.5t-58 -49.5t-31.5 -62.5t-9.5 -57.5q0 -46 21.5 -84t59.5 -60.5t87 -22.5z" glyph-name="a" horiz-adv-x="545" unicode="a"/><glyph d="M283 -5q-66 0 -115.5 39t-64.5 97l5 20l-18 -151h-19l92 752h20l-61 -491l1 16q26 48 75.5 78t107.5 30q56 0 97 -23t64 -64t23 -95q0 -51 -20 -98.5t-65.5 -78.5t-121.5 -31zM285 12q53 0 89 18t57 46.5t30 62t9 63.5q0 46 -19.5 83.5t-57 60t-91.5 22.5 q-65 0 -115.5 -38.5t-67.5 -98.5l-8 -57q1 -16 8.5 -43t26.5 -54t52.5 -46t86.5 -19z" glyph-name="b" horiz-adv-x="544" unicode="b"/><glyph d="M358 28q-26 -17 -55.5 -26t-61.5 -9q-39 0 -73 13.5t-59.5 38.5t-39.5 58.5t-14 72.5q0 42 16.5 79.5t45 66t66 45t79.5 16.5q41 0 75 -13.5t58 -37.5l-13 -14q-22 21 -53 34.5t-66 13.5q-50 0 -93 -25.5t-69 -68.5t-26 -96q0 -45 21.5 -83t59.5 -60.5t87 -22.5 q29 0 55 8.5t49 23.5z" glyph-name="c" horiz-adv-x="423" unicode="c"/><glyph d="M229 -3q-55 3 -96 31t-61.5 73.5t-14.5 99.5q5 44 24.5 79.5t49.5 60t67 36.5t78 9q61 -3 107 -42t61 -92l-5 -11l63 511h20l-94 -752h-19l15 121l1 -15q-28 -52 -81.5 -83t-114.5 -26zM232 13q48 -3 91 17.5t72 58t36 85.5l3 33q-2 43 -23 79t-56 58.5t-79 24.5 q-50 3 -93 -17t-71.5 -59t-34.5 -92q-6 -49 13 -90.5t56 -67.5t86 -30z" glyph-name="d" horiz-adv-x="547" unicode="d"/><glyph d="M242 11q32 0 62 11t54 30l11 -15q-27 -20 -60 -31.5t-68 -11.5q-55 0 -97 24.5t-65.5 66t-23.5 92.5q0 43 16.5 80.5t45 66.5t66 45t79.5 16q35 0 62.5 -10t49 -28.5t36 -43.5t22.5 -56l-358 -117l-4 18l348 112l-8 -9q-15 48 -52.5 82t-94.5 34q-51 0 -94 -25t-68.5 -68 t-25.5 -95q0 -43 20 -81.5t57.5 -62.5t89.5 -24z" glyph-name="e" horiz-adv-x="470" unicode="e"/><glyph d="M93 0l43 357h-65l2 18h65l26 210q12 97 44 134.5t87 37.5q9 0 19.5 -2t19.5 -6l-10 -14q-5 3 -12 5t-17 2q-48 0 -74.5 -33.5t-36.5 -119.5l-26 -214h130l-2 -18h-130l-44 -357h-19z" glyph-name="f" horiz-adv-x="291" unicode="f"/><glyph d="M230 -181q-27 0 -56.5 5t-60.5 24t-66 59l13 12q34 -39 64 -56t56.5 -21.5t49.5 -4.5q61 0 97.5 20t54 53t23.5 73l18 136l6 -5q-27 -54 -79 -86.5t-111 -32.5q-53 0 -94.5 24.5t-65.5 66t-24 93.5q0 27 11 62t35 68t63.5 54.5t96.5 21.5q66 0 115 -36.5t65 -92.5l-3 -10 l22 132h15l-49 -397q-5 -42 -25.5 -79t-61.5 -60t-109 -23zM263 368q-54 0 -90.5 -20.5t-58 -51t-30.5 -62.5t-9 -55q0 -46 21.5 -84t59 -60.5t86.5 -22.5q46 0 86.5 21.5t67.5 56.5t33 77l6 43q-3 44 -26 80t-61 57t-85 21z" glyph-name="g" horiz-adv-x="546" unicode="g"/><glyph d="M123 287q24 42 72 70t105 28q53 0 80.5 -31.5t22.5 -80.5l-33 -273h-20l34 277q3 36 -18.5 62t-63.5 28q-45 0 -85 -19.5t-67 -53t-33 -76.5l-27 -218h-19l92 752h20l-58 -475z" glyph-name="h" horiz-adv-x="487" unicode="h"/><glyph d="M117 378h20l-47 -378h-19zM122 500q0 10 8 17t18 7q9 0 14.5 -6t5.5 -14q0 -10 -8 -17t-17 -7q-10 0 -15.5 6.5t-5.5 13.5z" glyph-name="i" horiz-adv-x="208" unicode="i"/><glyph d="M9 -171q31 28 51.5 68t27.5 91l48 390h19l-47 -384q-7 -59 -30 -103t-57 -72zM134 500q0 10 8 17t18 7q9 0 14.5 -6t5.5 -14q0 -10 -8 -17t-17 -7q-10 0 -15.5 6.5t-5.5 13.5z" glyph-name="j" horiz-adv-x="226" unicode="j"/><glyph d="M71 0l92 752h20l-93 -752h-19zM203 242l148 -242h-23l-141 231zM100 148l1 22l257 215l13 -11z" glyph-name="k" horiz-adv-x="423" unicode="k"/><glyph d="M163 752h20l-93 -752h-19z" glyph-name="l" horiz-adv-x="208" unicode="l"/><glyph d="M132 378l-10 -106l-1 9q27 47 74.5 75.5t104.5 28.5q48 0 78 -28.5t26 -71.5l-1 1q26 44 73 71.5t102 27.5q53 0 81.5 -30.5t22.5 -76.5l-34 -278h-20l34 277q3 35 -18 61t-64 29q-44 0 -83 -18.5t-66 -51t-34 -73.5l-28 -224h-20l34 277q3 35 -18 61t-64 29 q-44 0 -84 -19.5t-67 -53t-33 -76.5l-27 -218h-19l46 378h15z" glyph-name="m" horiz-adv-x="766" unicode="m"/><glyph d="M132 378l-7 -104l-5 7q24 46 70 75t104 29q57 0 86.5 -31t22.5 -81l-33 -273h-20l33 272q6 42 -19 68.5t-73 26.5q-43 0 -81 -19.5t-63 -53t-30 -76.5l-27 -218h-19l46 378h15z" glyph-name="n" horiz-adv-x="487" unicode="n"/><glyph d="M240 -6q-40 0 -73.5 13.5t-58.5 38t-39 58t-14 72.5q0 37 12.5 74t38 67.5t65 49t92.5 18.5q54 0 95.5 -23.5t65.5 -65t24 -93.5q0 -29 -8 -59t-24 -57t-41 -48t-58.5 -33t-76.5 -12zM241 11q64 0 105.5 28.5t61.5 72t20 90.5q0 34 -12 64t-34.5 53t-53 36t-66.5 13 q-64 0 -105.5 -28.5t-61.5 -72t-20 -89.5t21.5 -84t59 -60.5t85.5 -22.5z" glyph-name="o" horiz-adv-x="502" unicode="o"/><glyph d="M268 -6q-61 0 -106.5 33.5t-59.5 86.5l-4 -50l-29 -245h-19l67 559h19l-16 -141v29q27 53 81.5 86.5t115.5 33.5q50 0 89 -22.5t61.5 -61.5t22.5 -88q0 -60 -31 -110.5t-81 -80t-110 -29.5zM269 11q53 0 99 27.5t74 73t28 99.5q0 45 -20 81t-55.5 56.5t-81.5 20.5 q-48 0 -91 -22t-71.5 -60.5t-35.5 -87.5l-3 -24q-3 -19 3 -46t24 -54t49.5 -45.5t80.5 -18.5z" glyph-name="p" horiz-adv-x="543" unicode="p"/><glyph d="M227 -6q-49 0 -88.5 22.5t-62 61t-22.5 87.5q0 45 17.5 85t48.5 70.5t70.5 48t83.5 17.5q62 0 107.5 -35t60.5 -88l-6 -24l17 139h19l-67 -559h-20l36 303l4 -7q-14 -26 -34.5 -48t-46 -38.5t-55.5 -25.5t-62 -9zM230 11q48 0 90 22.5t71.5 61t37.5 84.5l3 22 q2 21 -4 49.5t-23.5 55.5t-49 45t-81.5 18q-53 0 -99 -28t-74 -74t-28 -101q0 -43 20.5 -78.5t56 -56t80.5 -20.5z" glyph-name="q" horiz-adv-x="544" unicode="q"/><glyph d="M132 378l-12 -107q16 36 44 61t63.5 38.5t72.5 14.5l-2 -18q-44 -1 -83.5 -20.5t-66 -52.5t-31.5 -76l-27 -218h-19l46 378h15z" glyph-name="r" horiz-adv-x="321" unicode="r"/><glyph d="M150 -7q-19 1 -40 6.5t-40.5 17t-32.5 30.5l13 12q9 -14 24.5 -24.5t35.5 -17t43 -7.5q36 -2 68.5 16.5t38.5 65.5q2 30 -11.5 48t-37 29t-47.5 22q-35 14 -61 35t-22 64q3 23 13 40.5t26 29t35.5 17.5t39.5 5q14 -1 31.5 -6t35.5 -15.5t32 -28.5l-13 -13q-15 22 -41 33 t-46 12q-19 1 -39.5 -6.5t-35.5 -23.5t-17 -42q-3 -24 7 -39.5t28 -26t39 -19.5q26 -12 51.5 -24.5t40.5 -32.5t11 -54q-2 -23 -11.5 -42.5t-25.5 -33.5t-39 -21.5t-53 -5.5z" glyph-name="s" horiz-adv-x="346" unicode="s"/><glyph d="M176 543h20l-21 -173h126l-3 -18h-126l-43 -352h-19l43 352h-88l2 18h88z" glyph-name="t" horiz-adv-x="304" unicode="t"/><glyph d="M188 -8q-53 0 -81.5 29.5t-22.5 79.5l33 277h20l-34 -277q-5 -37 18.5 -63t71.5 -28q40 0 79 19.5t65.5 53.5t31.5 77l27 218h20l-47 -378h-16l13 115l1 -7q-12 -31 -40.5 -57.5t-65 -42.5t-73.5 -16z" glyph-name="u" horiz-adv-x="487" unicode="u"/><glyph d="M188 -17l-131 395h21l120 -371h-11l211 371h22l-227 -395h-5z" glyph-name="v" horiz-adv-x="431" unicode="v"/><glyph d="M420 -22l-88 274l-143 -274h-3l-129 400h20l119 -370l-7 4l136 260l-35 106h20l119 -368h-7l206 368h20l-225 -400h-3z" glyph-name="w" horiz-adv-x="659" unicode="w"/><glyph d="M329 0h-22l-233 378h25zM204 202l146 175h23l-160 -190zM202 176l-146 -176h-24l161 191z" glyph-name="x" horiz-adv-x="359" unicode="x"/><glyph d="M97 -181l312 559h22l-311 -559h-23zM197 -5l-129 383h22l124 -371z" glyph-name="y" horiz-adv-x="422" unicode="y"/><glyph d="M118 359q-31 0 -44 9t-11 39v6h17v-12q0 -10 6 -16.5t23 -6.5h246l-303 -365l-8 5h263l-3 -18h-286l304 367l5 -8h-209z" glyph-name="z" horiz-adv-x="368" unicode="z"/><glyph d="M269 728q-21 0 -33.5 -11t-20 -35.5t-12.5 -64.5l-18 -149q-7 -61 -20.5 -94t-31 -49t-35.5 -26q16 -10 29 -26t18.5 -49t-2.5 -93l-18 -149q-5 -40 -3.5 -64.5t11.5 -35.5t31 -11h56l-3 -19h-39q-20 0 -36 2t-26 15t-12 44.5t5 89.5l18 147q3 27 0.5 58t-17 53.5 t-46.5 23.5v0l3 28q33 2 53 24t30 53t13 58l22 181q6 45 16.5 69.5t24.5 34.5t30 12t33 2h38l-2 -19h-56z" glyph-name="braceleft" horiz-adv-x="277" unicode="{"/><glyph d="M183 701h19l-114 -933h-19z" glyph-name="bar" horiz-adv-x="257" unicode="|"/><glyph d="M126 -129q20 0 32.5 11t20 35.5t12.5 64.5l22 183q6 45 20.5 71.5t32 41t30.5 21.5q-16 10 -29 26t-18 49t2 94l18 149q5 40 3.5 64.5t-11.5 35.5t-30 11h-56l2 19h39q17 0 32.5 -2t27 -12t15.5 -34.5t-2 -69.5l-18 -147q-2 -18 -4.5 -45.5t1 -55t17.5 -47t45 -21.5v0 l-4 -28q-31 -1 -49.5 -21t-28.5 -47.5t-14.5 -55t-7.5 -44.5l-18 -147q-5 -46 -15.5 -70.5t-24.5 -34.5t-29.5 -11.5t-32.5 -1.5h-39l3 19h56z" glyph-name="braceright" horiz-adv-x="323" unicode="}"/><glyph d="M260 453q-28 2 -43.5 17.5t-28.5 33.5q-11 16 -23.5 30t-33.5 15q-11 1 -25 -6t-27 -27t-20 -57l-16 3q6 38 20.5 61.5t32.5 34t36 9.5q29 -1 44 -17t27 -34q12 -17 25 -30t34 -15q14 -1 27 6t24 27t18 58l16 -3q-6 -39 -19 -62.5t-30.5 -34t-37.5 -9.5z" glyph-name="asciitilde" horiz-adv-x="487" unicode="~"/><glyph glyph-name="uni00A0" horiz-adv-x="300"/><glyph d="M83 -177h-19l72 584h19zM174 524q1 -9 -4.5 -16t-14.5 -8q-8 -2 -14 2t-7 12q-2 8 4 15.5t15 8.5q10 2 14.5 -3t6.5 -11z" glyph-name="exclamdown" horiz-adv-x="199" unicode="¡"/><glyph d="M269 441h17l-62 -509h-17zM358 28q-26 -17 -55.5 -26t-61.5 -9q-39 0 -73 13.5t-59.5 38.5t-39.5 58.5t-14 72.5q0 42 16.5 79.5t45 66t66 45t79.5 16.5q41 0 75 -13.5t58 -37.5l-13 -14q-22 21 -53 34.5t-66 13.5q-50 0 -93 -25.5t-69 -68.5t-26 -96q0 -45 21.5 -83 t59.5 -60.5t87 -22.5q29 0 55 8.5t49 23.5z" glyph-name="cent" horiz-adv-x="423" unicode="¢"/><glyph d="M289 329l-2 -19h-215l3 19h214zM161 503q6 46 30 76t62.5 45t86.5 15q67 0 99.5 -25t48.5 -65l-16 -9q-12 30 -28 47t-41 24.5t-65 7.5q-56 0 -89 -16t-48.5 -42t-19.5 -57l-44 -353l-3 -37q-3 -17 -7 -35.5t-11 -34t-17 -24.5h-5h249q58 0 84.5 10.5t29.5 40.5l7 56h19 l-4 -39q-3 -22 -10 -42.5t-33.5 -33t-86.5 -12.5h-346l3 20h44q24 0 36.5 13t19.5 45t14 88z" glyph-name="sterling" horiz-adv-x="566" unicode="£"/><glyph d="M403 446q10 -14 15.5 -33t5.5 -40q0 -30 -12.5 -55.5t-33.5 -46.5l35 -40l-13 -12l-18 20t-17 20q-41 -32 -91 -32q-25 0 -46.5 8.5t-36.5 23.5v0l-45 -41l-11 13l45 40q-12 15 -18 35t-6 42v0q0 29 11.5 54t31.5 46q-8 10 -16 19t-16 19l13 11l33 -37q19 16 43.5 25.5 t50.5 9.5t48 -9.5t37 -26.5v0l42 37l11 -12zM173 350q0 -45 29.5 -75.5t73.5 -30.5q35 0 64.5 17t48 46.5t18.5 64.5q0 45 -29 75.5t-73 30.5q-34 0 -64.5 -17.5t-49 -46.5t-18.5 -64v0z" glyph-name="currency" horiz-adv-x="500" unicode="¤"/><glyph d="M152 279h333v-19h-334zM151 117h333l-1 -19h-333zM321 278l-209 424h22l204 -408l-9 -2l303 410h25l-314 -424l-34 -278h-22z" glyph-name="yen" horiz-adv-x="643" unicode="¥"/><glyph d="M114 117h19l-43 -350h-19zM186 701h19l-43 -351h-19z" glyph-name="brokenbar" horiz-adv-x="215" unicode="¦"/><glyph d="M342 129l-3 7q33 -13 61 -31t43 -45.5t10 -67.5q-5 -42 -37.5 -75.5t-82.5 -51t-109 -13.5q-57 4 -98.5 21t-68.5 36t-38 28l11 15q19 -16 48.5 -34t66.5 -31.5t77 -15.5q48 -3 94.5 10.5t79 42t36.5 71.5q6 43 -16.5 69.5t-62 43t-84.5 30.5q-34 12 -67 26t-59 32.5 t-39.5 46t-8.5 67.5q5 45 34.5 78.5t73.5 51t93 14.5l-3 -5q-37 13 -68.5 32t-49.5 47.5t-13 72.5q5 34 33 63t72.5 45.5t97.5 13.5q37 -3 85.5 -17t82.5 -32l-11 -15q-26 14 -68.5 29t-88.5 18q-52 2 -92 -12.5t-63.5 -40.5t-27.5 -56q-5 -41 15 -67t59.5 -43.5t90.5 -33.5 q34 -11 67.5 -25t59 -33.5t39 -48t8.5 -67.5q-8 -62 -58 -101.5t-121 -48.5zM500 279q6 45 -17.5 74.5t-66 49t-92.5 37.5q-88 5 -144.5 -32t-63.5 -97q-7 -49 17 -77.5t72 -48t113 -42.5q35 1 75.5 16.5t71 45t35.5 74.5z" glyph-name="section" horiz-adv-x="560" unicode="§"/><glyph d="M138 502q0 10 7 16.5t16 6.5q9 -1 15.5 -7.5t6.5 -15.5q-1 -9 -7.5 -15.5t-15.5 -6.5t-15.5 6.5t-6.5 15.5v0zM305 502q0 10 6.5 16.5t15.5 6.5q9 -1 15.5 -7.5t6.5 -15.5t-7 -15.5t-16 -6.5t-15.5 6.5t-5.5 15.5v0z" glyph-name="dieresis" horiz-adv-x="370" unicode="¨"/><glyph d="M500 228q-19 -10 -41.5 -15.5t-48.5 -4.5q-48 3 -81.5 27.5t-49 62.5t-9.5 82q5 47 32 83t67 55.5t83 16.5q23 -1 44 -8t38 -20l-10 -15q-16 12 -34.5 18t-39.5 8q-37 2 -71.5 -15t-59 -49.5t-30.5 -75.5q-5 -40 9.5 -73.5t44.5 -54.5t70 -24q22 -1 42 3.5t38 13.5z M389 110q-55 3 -100 25.5t-76 59.5t-45 86t-7 105q6 56 32 102t65.5 79t89 49.5t104.5 13.5t99.5 -25.5t76 -60t45.5 -86.5t7 -105t-31 -102t-62 -79t-88.5 -49.5t-109.5 -12.5zM390 129q67 -4 125.5 24t98 80t47.5 120q9 71 -17 127.5t-77 91.5t-118 40q-66 4 -124.5 -24.5 t-97.5 -81.5t-48 -122q-8 -70 13.5 -126t71.5 -90t126 -39z" glyph-name="copyright" horiz-adv-x="796" unicode="©"/><glyph d="M216 414q-40 0 -70.5 19t-46 52t-10.5 74q6 47 29.5 79.5t58.5 49.5t75 17q45 0 77 -23.5t43 -62.5l13 80h14l-34 -281h-17l12 96l1 -10q-13 -26 -35.5 -46.5t-50.5 -32t-59 -11.5zM220 430q35 0 66.5 16t52 43.5t25.5 63.5l4 29q-4 45 -36.5 76t-80.5 31 q-53 0 -94.5 -35t-49.5 -95q-4 -36 9.5 -65t40.5 -46.5t63 -17.5z" glyph-name="ordfeminine" horiz-adv-x="416" unicode="ª"/><glyph d="M146 239q15 13 31 26.5t32.5 27.5t32.5 28t32 27.5l32 27t32 26.5l-3 -22q-19 -18 -38.5 -35.5l-39 -35t-39 -35.5t-38.5 -35q14 -17 29 -35t30.5 -36t30.5 -36t30 -35l-3 -22zM317 239q16 13 31.5 26.5t32 27.5t32.5 28t32.5 27.5t32 27t31.5 26.5l-3 -22 q-19 -18 -38.5 -35.5l-39 -35t-39 -35.5t-38.5 -35q15 -17 30 -35l30 -36l30 -36t30 -35l-3 -22z" glyph-name="guillemotleft" horiz-adv-x="602" unicode="«"/><glyph d="M127 245h360l-12 -99h-20l10 79h-341z" glyph-name="logicalnot" horiz-adv-x="555" unicode="¬"/><glyph d="M79 202h184l-3 -19h-184z" glyph-name="uni00AD" horiz-adv-x="600" unicode="­"/><glyph d="M208 420q-40 3 -69 22.5t-43.5 52t-9.5 72.5q4 40 26.5 70.5t56 46.5t72.5 14q39 -3 68.5 -22.5t44 -52t9.5 -73.5q-5 -40 -27 -70t-55.5 -46t-72.5 -14zM208 436q34 -2 64 12.5t50 41.5t24 61q4 36 -9 64.5t-39 46.5t-59 20q-34 2 -63.5 -12.5t-49 -41.5t-23.5 -62 q-5 -35 8 -63.5t38.5 -46.5t58.5 -20zM185 648l46 -3q18 0 34 -12t12 -38q-2 -24 -17 -36t-43 -10l-28 1l-8 -67l-17 1zM217 563q20 -1 31 8.5t13 24.5q2 18 -9.5 25.5t-22.5 7.5l-28 2l-8 -66zM239 552l31 -74l-18 1l-30 74z" glyph-name="registered" horiz-adv-x="358" unicode="®"/><glyph d="M147 508h231l-3 -16h-230z" glyph-name="macron" horiz-adv-x="399" unicode="¯"/><glyph d="M124 552q0 25 12.5 44.5t32.5 30.5t44 11q31 0 50 -20t19 -50q0 -24 -12.5 -43.5t-32.5 -30.5t-43 -11q-32 0 -51 19.5t-19 49.5v0zM196 499q28 0 48.5 19.5t20.5 47.5q0 24 -15.5 40t-38.5 16q-28 0 -49 -19.5t-21 -47.5q0 -24 16 -40t39 -16v0z" glyph-name="degree" horiz-adv-x="282" unicode="°"/><glyph d="M327 572h19l-21 -170h171l-2 -19h-170l-22 -172h-19l22 172h-171l1 19h171zM105 152h361l-3 -19h-360z" glyph-name="plusminus" horiz-adv-x="525" unicode="±"/><glyph d="M163 656q9 12 22.5 22t30 16t35.5 6q44 0 67 -24t17 -74q-3 -30 -22 -59t-46.5 -58t-59.5 -56.5t-61 -54.5l-2 14h180l-2 -18h-201v5q35 29 68 58t60.5 58t45 56.5t20.5 52.5q6 45 -15.5 63.5t-53.5 18.5q-27 0 -44.5 -10.5t-30.5 -26.5z" glyph-name="uni00B2" horiz-adv-x="397" unicode="²"/><glyph d="M190 371q-31 0 -51.5 12.5t-32.5 27.5l9 13q7 -9 17.5 -17.5t25.5 -14t35 -5.5q41 0 68.5 28t32.5 68q4 38 -17.5 57t-53.5 19q-24 0 -38 -4.5t-28 -9.5l-1 3l128 145l8 -11h-145l2 17h162l-123 -138l-17 -2q10 7 26 11t31 4q25 2 46 -9t31.5 -32t7.5 -51 q-4 -32 -21 -57.5t-43 -39.5t-59 -14z" glyph-name="uni00B3" horiz-adv-x="412" unicode="³"/><glyph d="M283 613l-107 -133h-19l104 133h22z" glyph-name="acute" horiz-adv-x="222" unicode="´"/><glyph d="M188 -8q-43 0 -69.5 20.5t-33.5 55.5l14 9l-34 -278h-18l38 309l32 270h20l-33 -270q-4 -41 18 -68.5t71 -29.5q40 0 79 19.5t65.5 53.5t31.5 77l27 218h20l-47 -378h-16l12 107q-13 -31 -40.5 -57t-63.5 -42t-73 -16z" glyph-name="uni00B5" horiz-adv-x="487" unicode="µ"/><glyph d="M253 423q-42 0 -74.5 19.5t-51 53t-18.5 74.5q0 49 25.5 90t67.5 66t91 25h182l-92 -751h-19l91 732h-144l-91 -732h-19z" glyph-name="paragraph" horiz-adv-x="494" unicode="¶"/><glyph d="M98 278q0 10 8 17.5t18 7.5q8 0 14 -6t6 -14q0 -7 -4 -12.5t-9.5 -9t-12.5 -3.5q-8 0 -14 6t-6 14v0z" glyph-name="periodcentered" horiz-adv-x="167" unicode="·"/><glyph d="M134 -175q10 -12 29 -20.5t45 -10.5q41 -2 67 12t30 43q3 27 -15 46.5t-60 22.5q-17 0 -39.5 -3t-34.5 -8l-13 14l84 84l15 -9l-78 -80l-15 5q12 7 37 11.5t48 2.5q48 -3 71.5 -26t19.5 -61q-3 -26 -19.5 -42.5t-42 -23t-55.5 -4.5q-28 1 -50 10t-35 22z" glyph-name="cedilla" horiz-adv-x="452" unicode="¸"/><glyph d="M135 651h65l-37 -304h-20l35 286h-45z" glyph-name="uni00B9" horiz-adv-x="252" unicode="¹"/><glyph d="M90 563q5 41 28.5 73t59 50t76.5 16q40 -3 71 -25t47 -56.5t11 -75.5q-6 -40 -29.5 -72t-59 -49.5t-76.5 -14.5q-40 2 -71 23t-46.5 55t-10.5 76zM108 562q-4 -36 9.5 -66t40.5 -49t62 -22q35 -2 66.5 14t52.5 44t25 63q5 37 -9 67.5t-41 50t-62 21.5q-37 2 -68 -15 t-51.5 -45.5t-24.5 -62.5z" glyph-name="ordmasculine" horiz-adv-x="383" unicode="º"/><glyph d="M430 239q-15 13 -31 26.5t-32 27.5t-32.5 28t-32.5 27.5l-32 27t-31 26.5l3 -22q19 -18 38.5 -35.5l39 -35t39 -35.5t38.5 -35q-15 -17 -30 -35l-30 -36l-30 -36t-30 -35l3 -22zM259 239q-15 13 -31 26.5t-32 27.5t-32.5 28t-32.5 27.5l-32 27t-31 26.5l3 -22 q19 -18 38 -35.5t39 -35t39.5 -35.5t38.5 -35q-15 -17 -30 -35t-30.5 -36t-30.5 -36t-29 -35l2 -22z" glyph-name="guillemotright" horiz-adv-x="602" unicode="»"/><glyph d="M584 755q-93 -189 -185.5 -377.5t-185.5 -377.5h-19q93 189 185.5 377.5t185.5 377.5h19zM135 651h65l-37 -304h-20l35 286h-45zM702 125l-3 -16h-219l2 9l198 196h8l-39 -314h-19l36 290l4 -8l-167 -163l-4 6h203z" glyph-name="onequarter" horiz-adv-x="769" unicode="¼"/><glyph d="M136 651h65l-37 -304h-20l35 286h-45zM559 756l-186 -378l-186 -378h-19l186 378l186 378h19zM482 286q9 12 22.5 22t30 16t35.5 6q44 0 67 -24t17 -74q-3 -30 -22 -59t-46.5 -58t-59.5 -56.5t-61 -54.5l-2 14h180l-2 -18h-201v5q35 29 68 58t60.5 58t45 56.5t20.5 52.5 q6 45 -15.5 63.5t-53.5 18.5q-27 0 -44.5 -10.5t-30.5 -26.5z" glyph-name="onehalf" horiz-adv-x="763" unicode="½"/><glyph d="M162 371q-31 0 -51.5 12.5t-32.5 27.5l9 13q7 -9 17.5 -17.5t25.5 -14t35 -5.5q41 0 68.5 28t32.5 68q4 38 -17.5 57t-53.5 19q-24 0 -38 -4.5t-28 -9.5l-1 3l128 145l8 -11h-145l2 17h162l-123 -138l-17 -2q10 7 26 11t31 4q25 2 46 -9t31.5 -32t7.5 -51 q-4 -32 -21 -57.5t-43 -39.5t-59 -14zM583 756l-186 -378l-186 -378h-19l186 378l186 378h19zM672 124l-2 -15h-219l1 9l198 196h8l-39 -314h-18l36 290l4 -8l-168 -164l-4 6h203z" glyph-name="threequarters" horiz-adv-x="739" unicode="¾"/><glyph d="M278 278q-4 -31 -17.5 -50.5t-34 -33t-45.5 -28t-51 -35.5q-40 -32 -58.5 -69t-18.5 -80q0 -45 20 -80.5t55.5 -56t80.5 -20.5q40 0 76 15t64 42t44 64v0q4 -2 8.5 -3t7.5 -2q-13 -29 -33.5 -53t-47 -42.5t-57.5 -29t-64 -10.5q-51 0 -90 23.5t-61 63.5t-22 89 q0 60 32 105.5t87 81.5q28 19 50.5 31t37 32.5t20.5 64.5l10 78h19zM298 516q7 0 13 -6t6 -14q0 -11 -8 -18t-17 -7q-7 0 -13.5 5.5t-6.5 14.5q0 10 8.5 17.5t17.5 7.5v0z" glyph-name="questiondown" horiz-adv-x="412" unicode="¿"/><glyph d="M60 0h-21l381 734h3l200 -734h-21l-191 700l14 3zM195 281h344l-1 -18h-347zM373 962l73 -133h-19l-76 133h22z" glyph-name="Agrave" horiz-adv-x="709" unicode="À"/><glyph d="M60 0h-21l381 734h3l200 -734h-21l-191 700l14 3zM195 281h344l-1 -18h-347zM574 962l-107 -133h-19l104 133h22z" glyph-name="Aacute" horiz-adv-x="709" unicode="Á"/><glyph d="M60 0h-21l381 734h3l200 -734h-21l-191 700l14 3zM195 281h344l-1 -18h-347zM529 829l-87 156h9l-126 -156h-21l145 181v0l101 -181h-21z" glyph-name="Acircumflex" horiz-adv-x="709" unicode="Â"/><glyph d="M60 0h-21l381 734h3l200 -734h-21l-191 700l14 3zM195 281h344l-1 -18h-347zM512 793q-27 1 -42.5 16.5t-29.5 33.5q-11 16 -23 30t-33 15q-11 1 -25.5 -6t-27 -26.5t-19.5 -57.5l-16 3q6 38 20.5 62t32.5 34t36 9q28 -1 43.5 -17t27.5 -34q11 -16 24 -29.5t35 -15.5 q13 -1 26.5 6t24.5 27t17 58l16 -3q-6 -39 -19 -62.5t-30.5 -34t-37.5 -8.5z" glyph-name="Atilde" horiz-adv-x="709" unicode="Ã"/><glyph d="M60 0h-21l381 734h3l200 -734h-21l-191 700l14 3zM195 281h344l-1 -18h-347zM335 851q0 10 7 16.5t16 6.5q9 -1 15.5 -7.5t6.5 -15.5q-1 -9 -7.5 -15.5t-15.5 -6.5t-15.5 6.5t-6.5 15.5v0zM502 851q0 10 6.5 16.5t15.5 6.5q9 -1 15.5 -7.5t6.5 -15.5t-7 -15.5t-16 -6.5 t-15.5 6.5t-5.5 15.5v0z" glyph-name="Adieresis" horiz-adv-x="709" unicode="Ä"/><glyph d="M60 0h-21l381 734h3l200 -734h-21l-191 700l14 3zM195 281h344l-1 -18h-347zM371 818q0 32 20.5 50.5t48.5 18.5t46 -17t17 -43q0 -32 -20.5 -51t-48.5 -18q-28 0 -45.5 16.5t-17.5 43.5zM389 820q0 -20 13 -33t31 -13q20 0 36.5 13.5t16.5 36.5q0 20 -13 33.5t-32 13.5 q-20 0 -36 -13.5t-16 -37.5z" glyph-name="Aring" horiz-adv-x="709" unicode="Å"/><glyph d="M526 702h367l-2 -20h-348l-39 -319h308l-1 -19h-309l-40 -324h362l-3 -20h-381zM538 694q-3 -6 -6 -13t-6 -13l-503 -668h-22l525 702zM170 224h306l-2 -18h-307z" glyph-name="AE" horiz-adv-x="923" unicode="Æ"/><glyph d="M600 29q-25 -13 -52 -22t-56.5 -14t-60.5 -5q-77 0 -139 25.5t-106 70.5t-68 105t-24 129q0 49 12.5 102.5t40.5 104t72.5 91t108 64.5t148.5 24q56 0 107 -17t93 -46l-12 -16q-38 28 -87 44t-102 16q-100 0 -169 -33.5t-111.5 -88.5t-61.5 -119.5t-19 -125.5 q0 -69 24.5 -126.5t68 -98.5t101 -63.5t122.5 -22.5q29 0 57 5t54 14t50 20zM320 -179q10 -12 29 -20.5t45 -10.5q41 -2 67 12t30 43q3 27 -15 46.5t-60 22.5q-17 0 -39.5 -3t-34.5 -8l-13 14l84 84l15 -9l-78 -80l-15 5q12 7 37 11.5t48 2.5q48 -3 71.5 -26t19.5 -61 q-3 -26 -19.5 -42.5t-42 -23t-55.5 -4.5q-28 1 -50 10t-35 22z" glyph-name="Ccedilla" horiz-adv-x="697" unicode="Ç"/><glyph d="M182 702h419l-3 -20h-399l-39 -319h360l-3 -19h-360l-39 -324h413l-2 -20h-433zM327 937l73 -133h-19l-76 133h22z" glyph-name="Egrave" horiz-adv-x="631" unicode="È"/><glyph d="M182 702h419l-3 -20h-399l-39 -319h360l-3 -19h-360l-39 -324h413l-2 -20h-433zM528 937l-107 -133h-19l104 133h22z" glyph-name="Eacute" horiz-adv-x="631" unicode="É"/><glyph d="M182 702h419l-3 -20h-399l-39 -319h360l-3 -19h-360l-39 -324h413l-2 -20h-433zM482 804l-87 156h9l-126 -156h-21l145 181v0l101 -181h-21z" glyph-name="Ecircumflex" horiz-adv-x="631" unicode="Ê"/><glyph d="M182 702h419l-3 -20h-399l-39 -319h360l-3 -19h-360l-39 -324h413l-2 -20h-433zM289 826q0 10 7 16.5t16 6.5q9 -1 15.5 -7.5t6.5 -15.5q-1 -9 -7.5 -15.5t-15.5 -6.5t-15.5 6.5t-6.5 15.5v0zM456 826q0 10 6.5 16.5t15.5 6.5q9 -1 15.5 -7.5t6.5 -15.5t-7 -15.5 t-16 -6.5t-15.5 6.5t-5.5 15.5v0z" glyph-name="Edieresis" horiz-adv-x="631" unicode="Ë"/><glyph d="M182 702h20l-86 -702h-20zM140 937l73 -133h-19l-76 133h22z" glyph-name="Igrave" horiz-adv-x="258" unicode="Ì"/><glyph d="M182 702h20l-86 -702h-20zM341 937l-107 -133h-19l104 133h22z" glyph-name="Iacute" horiz-adv-x="258" unicode="Í"/><glyph d="M182 702h20l-86 -702h-20zM295 804l-87 156h9l-126 -156h-21l145 181v0l101 -181h-21z" glyph-name="Icircumflex" horiz-adv-x="258" unicode="Î"/><glyph d="M182 702h20l-86 -702h-20zM102 826q0 10 7 16.5t16 6.5q9 -1 15.5 -7.5t6.5 -15.5q-1 -9 -7.5 -15.5t-15.5 -6.5t-15.5 6.5t-6.5 15.5v0zM269 826q0 10 6.5 16.5t15.5 6.5q9 -1 15.5 -7.5t6.5 -15.5t-7 -15.5t-16 -6.5t-15.5 6.5t-5.5 15.5v0z" glyph-name="Idieresis" horiz-adv-x="258" unicode="Ï"/><glyph d="M96 0l86 702h146q100 0 167.5 -25.5t107 -70t56 -101t16.5 -119.5q-1 -95 -31 -167t-84 -120.5t-126.5 -73.5t-157.5 -25h-180zM118 20h165q76 0 143 23t118.5 69t81 114t29.5 158q0 60 -16 113.5t-52.5 95t-98 65t-152.5 23.5h-137zM32 360h232l-3 -20h-232z" glyph-name="Eth" horiz-adv-x="731" unicode="Ð"/><glyph d="M670 -13h-1l-477 679l6 10l-83 -676h-19l87 713h1l481 -687l-10 2l83 674h19zM556 766q-27 1 -42.5 16.5t-29.5 33.5q-11 16 -23 30t-33 15q-11 1 -25.5 -6t-27 -26.5t-19.5 -57.5l-16 3q6 38 20.5 62t32.5 34t36 9q28 -1 43.5 -17t27.5 -34q11 -16 24 -29.5t35 -15.5 q13 -1 26.5 6t24.5 27t17 58l16 -3q-6 -39 -19 -62.5t-30.5 -34t-37.5 -8.5z" glyph-name="Ntilde" horiz-adv-x="813" unicode="Ñ"/><glyph d="M432 -7q-72 0 -133.5 24.5t-107.5 68.5t-71.5 104.5t-25.5 133.5q0 66 25 133.5t73.5 124.5t119.5 92t164 35q71 0 132.5 -24.5t107.5 -69t71.5 -105t25.5 -132.5q0 -66 -25 -133.5t-73.5 -124.5t-119.5 -92t-163 -35zM432 12q85 0 152.5 33t114 87t70.5 118.5t24 126.5 q0 64 -24 120.5t-67 100t-101 68t-126 24.5q-86 0 -153 -33t-113.5 -87.5t-70.5 -118.5t-24 -127t23.5 -119.5t66.5 -100t101 -68t127 -24.5zM445 937l73 -133h-19l-76 133h22z" glyph-name="Ograve" unicode="Ò"/><glyph d="M432 -7q-72 0 -133.5 24.5t-107.5 68.5t-71.5 104.5t-25.5 133.5q0 66 25 133.5t73.5 124.5t119.5 92t164 35q71 0 132.5 -24.5t107.5 -69t71.5 -105t25.5 -132.5q0 -66 -25 -133.5t-73.5 -124.5t-119.5 -92t-163 -35zM432 12q85 0 152.5 33t114 87t70.5 118.5t24 126.5 q0 64 -24 120.5t-67 100t-101 68t-126 24.5q-86 0 -153 -33t-113.5 -87.5t-70.5 -118.5t-24 -127t23.5 -119.5t66.5 -100t101 -68t127 -24.5zM646 937l-107 -133h-19l104 133h22z" glyph-name="Oacute" unicode="Ó"/><glyph d="M432 -7q-72 0 -133.5 24.5t-107.5 68.5t-71.5 104.5t-25.5 133.5q0 66 25 133.5t73.5 124.5t119.5 92t164 35q71 0 132.5 -24.5t107.5 -69t71.5 -105t25.5 -132.5q0 -66 -25 -133.5t-73.5 -124.5t-119.5 -92t-163 -35zM432 12q85 0 152.5 33t114 87t70.5 118.5t24 126.5 q0 64 -24 120.5t-67 100t-101 68t-126 24.5q-86 0 -153 -33t-113.5 -87.5t-70.5 -118.5t-24 -127t23.5 -119.5t66.5 -100t101 -68t127 -24.5zM600 804l-87 156h9l-126 -156h-21l145 181v0l101 -181h-21z" glyph-name="Ocircumflex" unicode="Ô"/><glyph d="M432 -7q-72 0 -133.5 24.5t-107.5 68.5t-71.5 104.5t-25.5 133.5q0 66 25 133.5t73.5 124.5t119.5 92t164 35q71 0 132.5 -24.5t107.5 -69t71.5 -105t25.5 -132.5q0 -66 -25 -133.5t-73.5 -124.5t-119.5 -92t-163 -35zM432 12q85 0 152.5 33t114 87t70.5 118.5t24 126.5 q0 64 -24 120.5t-67 100t-101 68t-126 24.5q-86 0 -153 -33t-113.5 -87.5t-70.5 -118.5t-24 -127t23.5 -119.5t66.5 -100t101 -68t127 -24.5zM583 768q-27 1 -42.5 16.5t-29.5 33.5q-11 16 -23 30t-33 15q-11 1 -25.5 -6t-27 -26.5t-19.5 -57.5l-16 3q6 38 20.5 62t32.5 34 t36 9q28 -1 43.5 -17t27.5 -34q11 -16 24 -29.5t35 -15.5q13 -1 26.5 6t24.5 27t17 58l16 -3q-6 -39 -19 -62.5t-30.5 -34t-37.5 -8.5z" glyph-name="Otilde" unicode="Õ"/><glyph d="M432 -7q-72 0 -133.5 24.5t-107.5 68.5t-71.5 104.5t-25.5 133.5q0 66 25 133.5t73.5 124.5t119.5 92t164 35q71 0 132.5 -24.5t107.5 -69t71.5 -105t25.5 -132.5q0 -66 -25 -133.5t-73.5 -124.5t-119.5 -92t-163 -35zM432 12q85 0 152.5 33t114 87t70.5 118.5t24 126.5 q0 64 -24 120.5t-67 100t-101 68t-126 24.5q-86 0 -153 -33t-113.5 -87.5t-70.5 -118.5t-24 -127t23.5 -119.5t66.5 -100t101 -68t127 -24.5zM407 826q0 10 7 16.5t16 6.5q9 -1 15.5 -7.5t6.5 -15.5q-1 -9 -7.5 -15.5t-15.5 -6.5t-15.5 6.5t-6.5 15.5v0zM574 826 q0 10 6.5 16.5t15.5 6.5q9 -1 15.5 -7.5t6.5 -15.5t-7 -15.5t-16 -6.5t-15.5 6.5t-5.5 15.5v0z" glyph-name="Odieresis" unicode="Ö"/><glyph d="M281 150l68 60l68 60q3 -3 6 -7t6 -7q-34 -31 -67.5 -60.5t-67.5 -59.5q26 -31 52.5 -61t53.5 -61l-16 -14q-26 30 -53 60.5t-53 60.5q-34 -30 -67.5 -60.5t-67.5 -60.5q-3 3 -6.5 7t-6.5 7q34 31 67.5 61t67.5 60l-104 120l15 14z" glyph-name="multiply" horiz-adv-x="501" unicode="×"/><glyph d="M802 707l-680 -708l-9 10l679 708zM432 -7q-72 0 -133.5 24.5t-107.5 68.5t-71.5 104.5t-25.5 133.5q0 66 25 133.5t73.5 124.5t119.5 92t164 35q71 0 132.5 -24.5t107.5 -69t71.5 -105t25.5 -132.5q0 -66 -25 -133.5t-73.5 -124.5t-119.5 -92t-163 -35zM432 12 q85 0 152.5 33t114 87t70.5 118.5t24 126.5q0 64 -24 120.5t-67 100t-101 68t-126 24.5q-86 0 -153 -33t-113.5 -87.5t-70.5 -118.5t-24 -127t23.5 -119.5t66.5 -100t101 -68t127 -24.5z" glyph-name="Oslash" horiz-adv-x="837" unicode="Ø"/><glyph d="M145 230q-9 -70 11.5 -119t64.5 -74.5t105 -25.5q66 0 115.5 25.5t80 74.5t39.5 119l57 472h20l-58 -474q-9 -77 -41.5 -129.5t-86.5 -79.5t-128 -27v0q-66 0 -114.5 27t-72 79.5t-13.5 129.5l58 474h20zM358 937l73 -133h-19l-76 133h22z" glyph-name="Ugrave" horiz-adv-x="695" unicode="Ù"/><glyph d="M145 230q-9 -70 11.5 -119t64.5 -74.5t105 -25.5q66 0 115.5 25.5t80 74.5t39.5 119l57 472h20l-58 -474q-9 -77 -41.5 -129.5t-86.5 -79.5t-128 -27v0q-66 0 -114.5 27t-72 79.5t-13.5 129.5l58 474h20zM559 937l-107 -133h-19l104 133h22z" glyph-name="Uacute" horiz-adv-x="695" unicode="Ú"/><glyph d="M145 230q-9 -70 11.5 -119t64.5 -74.5t105 -25.5q66 0 115.5 25.5t80 74.5t39.5 119l57 472h20l-58 -474q-9 -77 -41.5 -129.5t-86.5 -79.5t-128 -27v0q-66 0 -114.5 27t-72 79.5t-13.5 129.5l58 474h20zM514 804l-87 156h9l-126 -156h-21l145 181v0l101 -181h-21z" glyph-name="Ucircumflex" horiz-adv-x="695" unicode="Û"/><glyph d="M145 230q-9 -70 11.5 -119t64.5 -74.5t105 -25.5q66 0 115.5 25.5t80 74.5t39.5 119l57 472h20l-58 -474q-9 -77 -41.5 -129.5t-86.5 -79.5t-128 -27v0q-66 0 -114.5 27t-72 79.5t-13.5 129.5l58 474h20zM320 826q0 10 7 16.5t16 6.5q9 -1 15.5 -7.5t6.5 -15.5 q-1 -9 -7.5 -15.5t-15.5 -6.5t-15.5 6.5t-6.5 15.5v0zM487 826q0 10 6.5 16.5t15.5 6.5q9 -1 15.5 -7.5t6.5 -15.5t-7 -15.5t-16 -6.5t-15.5 6.5t-5.5 15.5v0z" glyph-name="Udieresis" horiz-adv-x="695" unicode="Ü"/><glyph d="M319 261l-207 441h22l202 -425l-9 -1l305 426h25l-317 -441l-31 -261h-22zM543 937l-107 -133h-19l104 133h22z" glyph-name="Yacute" horiz-adv-x="643" unicode="Ý"/><glyph d="M306 539q28 0 60 -9t59.5 -28.5t45 -51t17.5 -77.5q0 -40 -14.5 -79t-44.5 -70.5t-75.5 -50.5t-107.5 -19h-111l-19 -154h-20l86 701h20l-20 -162h124zM251 174q63 0 105 20.5t66.5 51.5t35 65t10.5 60q0 45 -22 78t-61 51.5t-90 18.5h-115l-43 -345h114z" glyph-name="Thorn" horiz-adv-x="530" unicode="Þ"/><glyph d="M275 -4q-20 0 -50 6.5t-61 29.5l10 14q30 -22 58 -27.5t44 -5.5q36 0 70 13.5t61.5 37.5t45 55.5t22.5 68.5q6 49 -13 92t-56.5 70.5t-88.5 31.5h-4l2 19q39 -2 65.5 10t42.5 32t23 41t7 37q0 45 -27.5 81.5t-90.5 40.5q-52 3 -87.5 -24t-56 -76.5t-28.5 -112.5l-53 -430 h-20l46 368h-65l3 19h65l8 62q8 67 31 115.5t62 73.5t95 23q50 -3 80 -23.5t43.5 -50.5t13.5 -62q0 -18 -7 -44.5t-29.5 -51.5t-69.5 -40q42 -13 73 -42.5t46 -71t9 -89.5q-5 -41 -24.5 -76t-49.5 -60.5t-67.5 -39.5t-77.5 -14z" glyph-name="germandbls" horiz-adv-x="549" unicode="ß"/><glyph d="M238 -5q-53 0 -94.5 24.5t-65 65.5t-23.5 92q0 30 11 66t35 68.5t63.5 53.5t96.5 21q45 0 82 -17t62.5 -46.5t36.5 -67.5l-5 -12l21 135h15l-45 -378h-19l14 120l1 -15q-13 -24 -32.5 -44t-43.5 -35t-52 -23t-58 -8zM243 12q47 0 87 20t66.5 56t33.5 82l4 41 q-3 44 -26 79.5t-61 56.5t-85 21q-52 0 -88 -19.5t-58 -49.5t-31.5 -62.5t-9.5 -57.5q0 -46 21.5 -84t59.5 -60.5t87 -22.5zM216 615l73 -133h-19l-76 133h22z" glyph-name="agrave" horiz-adv-x="545" unicode="à"/><glyph d="M238 -5q-53 0 -94.5 24.5t-65 65.5t-23.5 92q0 30 11 66t35 68.5t63.5 53.5t96.5 21q45 0 82 -17t62.5 -46.5t36.5 -67.5l-5 -12l21 135h15l-45 -378h-19l14 120l1 -15q-13 -24 -32.5 -44t-43.5 -35t-52 -23t-58 -8zM243 12q47 0 87 20t66.5 56t33.5 82l4 41 q-3 44 -26 79.5t-61 56.5t-85 21q-52 0 -88 -19.5t-58 -49.5t-31.5 -62.5t-9.5 -57.5q0 -46 21.5 -84t59.5 -60.5t87 -22.5zM417 615l-107 -133h-19l104 133h22z" glyph-name="aacute" horiz-adv-x="545" unicode="á"/><glyph d="M238 -5q-53 0 -94.5 24.5t-65 65.5t-23.5 92q0 30 11 66t35 68.5t63.5 53.5t96.5 21q45 0 82 -17t62.5 -46.5t36.5 -67.5l-5 -12l21 135h15l-45 -378h-19l14 120l1 -15q-13 -24 -32.5 -44t-43.5 -35t-52 -23t-58 -8zM243 12q47 0 87 20t66.5 56t33.5 82l4 41 q-3 44 -26 79.5t-61 56.5t-85 21q-52 0 -88 -19.5t-58 -49.5t-31.5 -62.5t-9.5 -57.5q0 -46 21.5 -84t59.5 -60.5t87 -22.5zM371 482l-87 156h9l-126 -156h-21l145 181v0l101 -181h-21z" glyph-name="acircumflex" horiz-adv-x="545" unicode="â"/><glyph d="M238 -5q-53 0 -94.5 24.5t-65 65.5t-23.5 92q0 30 11 66t35 68.5t63.5 53.5t96.5 21q45 0 82 -17t62.5 -46.5t36.5 -67.5l-5 -12l21 135h15l-45 -378h-19l14 120l1 -15q-13 -24 -32.5 -44t-43.5 -35t-52 -23t-58 -8zM243 12q47 0 87 20t66.5 56t33.5 82l4 41 q-3 44 -26 79.5t-61 56.5t-85 21q-52 0 -88 -19.5t-58 -49.5t-31.5 -62.5t-9.5 -57.5q0 -46 21.5 -84t59.5 -60.5t87 -22.5zM354 446q-27 1 -42.5 16.5t-29.5 33.5q-11 16 -23 30t-33 15q-11 1 -25.5 -6t-27 -26.5t-19.5 -57.5l-16 3q6 38 20.5 62t32.5 34t36 9 q28 -1 43.5 -17t27.5 -34q11 -16 24 -29.5t35 -15.5q13 -1 26.5 6t24.5 27t17 58l16 -3q-6 -39 -19 -62.5t-30.5 -34t-37.5 -8.5z" glyph-name="atilde" horiz-adv-x="545" unicode="ã"/><glyph d="M238 -5q-53 0 -94.5 24.5t-65 65.5t-23.5 92q0 30 11 66t35 68.5t63.5 53.5t96.5 21q45 0 82 -17t62.5 -46.5t36.5 -67.5l-5 -12l21 135h15l-45 -378h-19l14 120l1 -15q-13 -24 -32.5 -44t-43.5 -35t-52 -23t-58 -8zM243 12q47 0 87 20t66.5 56t33.5 82l4 41 q-3 44 -26 79.5t-61 56.5t-85 21q-52 0 -88 -19.5t-58 -49.5t-31.5 -62.5t-9.5 -57.5q0 -46 21.5 -84t59.5 -60.5t87 -22.5zM178 504q0 10 7 16.5t16 6.5q9 -1 15.5 -7.5t6.5 -15.5q-1 -9 -7.5 -15.5t-15.5 -6.5t-15.5 6.5t-6.5 15.5v0zM345 504q0 10 6.5 16.5t15.5 6.5 q9 -1 15.5 -7.5t6.5 -15.5t-7 -15.5t-16 -6.5t-15.5 6.5t-5.5 15.5v0z" glyph-name="adieresis" horiz-adv-x="545" unicode="ä"/><glyph d="M238 -5q-53 0 -94.5 24.5t-65 65.5t-23.5 92q0 30 11 66t35 68.5t63.5 53.5t96.5 21q45 0 82 -17t62.5 -46.5t36.5 -67.5l-5 -12l21 135h15l-45 -378h-19l14 120l1 -15q-13 -24 -32.5 -44t-43.5 -35t-52 -23t-58 -8zM243 12q47 0 87 20t66.5 56t33.5 82l4 41 q-3 44 -26 79.5t-61 56.5t-85 21q-52 0 -88 -19.5t-58 -49.5t-31.5 -62.5t-9.5 -57.5q0 -46 21.5 -84t59.5 -60.5t87 -22.5zM214 471q0 32 20.5 50.5t48.5 18.5t46 -17t17 -43q0 -32 -20.5 -51t-48.5 -18q-28 0 -45.5 16.5t-17.5 43.5zM232 473q0 -20 13 -33t31 -13 q20 0 36.5 13.5t16.5 36.5q0 20 -13 33.5t-32 13.5q-20 0 -36 -13.5t-16 -37.5z" glyph-name="aring" horiz-adv-x="545" unicode="å"/><glyph d="M516 -6q-19 0 -43.5 6.5t-48.5 20.5t-43.5 38t-29 59t-4.5 83q7 53 36.5 95t74.5 66t100 23q21 0 45 -6t47.5 -21.5t42.5 -42t31 -68.5l-361 -116l-3 18l349 111l-7 -9q-15 46 -40.5 71t-54 35t-52.5 10q-47 1 -87.5 -21t-67.5 -60.5t-33 -85.5q-6 -53 8 -89t39 -58 t53 -31.5t51 -10.5q34 0 65 10.5t56 30.5l11 -15q-29 -21 -63 -32.5t-71 -10.5zM195 -10q-45 0 -79 12.5t-53 36t-19 54.5q0 32 15 60.5t46 46.5t81 17q11 0 33 -4t47.5 -15t49 -32t38.5 -54l-7 -13q-29 46 -61.5 66.5t-60 26.5t-39.5 6q-52 1 -86.5 -27t-33.5 -78 q1 -33 22.5 -51.5t51.5 -26t57 -6.5q30 0 68.5 7.5t64.5 31.5l17 150l13 -49l-13 -108q-20 -22 -48.5 -33t-56 -14.5t-47.5 -3.5zM347 199l7 56q5 35 -4.5 57t-26.5 33t-35.5 15.5t-33.5 4.5q-37 0 -73.5 -11.5t-76.5 -46.5l-9 16q32 29 72 45t92 16q22 -1 41 -6t34.5 -14.5 t26 -24t14.5 -34.5t1 -45l-3 -21z" glyph-name="ae" horiz-adv-x="761" unicode="æ"/><glyph d="M350 51q3 -4 5.5 -7.5t5.5 -6.5q-28 -20 -60.5 -31.5t-68.5 -11.5q-50 0 -89.5 23t-61.5 63t-22 89q0 44 17.5 83.5t48.5 69.5t71 47t84 17q35 0 65.5 -11.5t53.5 -31.5q-3 -4 -7.5 -7.5t-7.5 -7.5q-20 19 -47 29.5t-59 10.5q-53 0 -99 -27t-74 -71.5t-28 -97.5 q0 -45 20 -81t55.5 -57.5t81.5 -21.5q32 0 61.5 10.5t54.5 28.5v0zM230 -6q-3 -18 2 -28t14.5 -15.5t17.5 -11.5q18 -13 25.5 -30.5t7.5 -30.5q0 -34 -13.5 -57t-36 -34.5t-47.5 -11.5q-27 0 -48.5 14.5t-27.5 44.5q4 1 9 3t10 3q2 -21 18 -34.5t41 -13.5q32 0 54.5 23 t22.5 57q0 24 -11 37.5t-25 23t-24 21t-8 30.5l2 16h18z" glyph-name="ccedilla" horiz-adv-x="383" unicode="ç"/><glyph d="M242 11q32 0 62 11t54 30l11 -15q-27 -20 -60 -31.5t-68 -11.5q-55 0 -97 24.5t-65.5 66t-23.5 92.5q0 43 16.5 80.5t45 66.5t66 45t79.5 16q35 0 62.5 -10t49 -28.5t36 -43.5t22.5 -56l-358 -117l-4 18l348 112l-8 -9q-15 48 -52.5 82t-94.5 34q-51 0 -94 -25t-68.5 -68 t-25.5 -95q0 -43 20 -81.5t57.5 -62.5t89.5 -24zM207 615l73 -133h-19l-76 133h22z" glyph-name="egrave" horiz-adv-x="470" unicode="è"/><glyph d="M242 11q32 0 62 11t54 30l11 -15q-27 -20 -60 -31.5t-68 -11.5q-55 0 -97 24.5t-65.5 66t-23.5 92.5q0 43 16.5 80.5t45 66.5t66 45t79.5 16q35 0 62.5 -10t49 -28.5t36 -43.5t22.5 -56l-358 -117l-4 18l348 112l-8 -9q-15 48 -52.5 82t-94.5 34q-51 0 -94 -25t-68.5 -68 t-25.5 -95q0 -43 20 -81.5t57.5 -62.5t89.5 -24zM414 613l-107 -133h-19l104 133h22z" glyph-name="eacute" horiz-adv-x="426" unicode="é"/><glyph d="M242 11q32 0 62 11t54 30l11 -15q-27 -20 -60 -31.5t-68 -11.5q-55 0 -97 24.5t-65.5 66t-23.5 92.5q0 43 16.5 80.5t45 66.5t66 45t79.5 16q35 0 62.5 -10t49 -28.5t36 -43.5t22.5 -56l-358 -117l-4 18l348 112l-8 -9q-15 48 -52.5 82t-94.5 34q-51 0 -94 -25t-68.5 -68 t-25.5 -95q0 -43 20 -81.5t57.5 -62.5t89.5 -24zM362 482l-87 156h9l-126 -156h-21l145 181v0l101 -181h-21z" glyph-name="ecircumflex" horiz-adv-x="470" unicode="ê"/><glyph d="M242 11q32 0 62 11t54 30l11 -15q-27 -20 -60 -31.5t-68 -11.5q-55 0 -97 24.5t-65.5 66t-23.5 92.5q0 43 16.5 80.5t45 66.5t66 45t79.5 16q35 0 62.5 -10t49 -28.5t36 -43.5t22.5 -56l-358 -117l-4 18l348 112l-8 -9q-15 48 -52.5 82t-94.5 34q-51 0 -94 -25t-68.5 -68 t-25.5 -95q0 -43 20 -81.5t57.5 -62.5t89.5 -24zM169 504q0 10 7 16.5t16 6.5q9 -1 15.5 -7.5t6.5 -15.5q-1 -9 -7.5 -15.5t-15.5 -6.5t-15.5 6.5t-6.5 15.5v0zM336 504q0 10 6.5 16.5t15.5 6.5q9 -1 15.5 -7.5t6.5 -15.5t-7 -15.5t-16 -6.5t-15.5 6.5t-5.5 15.5v0z" glyph-name="edieresis" horiz-adv-x="470" unicode="ë"/><glyph d="M117 378h20l-47 -378h-19zM78 613l73 -133h-19l-76 133h22z" glyph-name="igrave" horiz-adv-x="208" unicode="ì"/><glyph d="M117 378h20l-47 -378h-19zM279 613l-107 -133h-19l104 133h22z" glyph-name="iacute" horiz-adv-x="208" unicode="í"/><glyph d="M117 378h20l-47 -378h-19zM233 480l-87 156h9l-126 -156h-21l145 181v0l101 -181h-21z" glyph-name="icircumflex" horiz-adv-x="208" unicode="î"/><glyph d="M117 378h20l-47 -378h-19zM40 502q0 10 7 16.5t16 6.5q9 -1 15.5 -7.5t6.5 -15.5q-1 -9 -7.5 -15.5t-15.5 -6.5t-15.5 6.5t-6.5 15.5v0zM207 502q0 10 6.5 16.5t15.5 6.5q9 -1 15.5 -7.5t6.5 -15.5t-7 -15.5t-16 -6.5t-15.5 6.5t-5.5 15.5v0z" glyph-name="idieresis" horiz-adv-x="208" unicode="ï"/><glyph d="M237 -5q-24 0 -49 6.5t-49 20t-42.5 36t-29.5 54.5t-11 75q0 40 13 76t39 64.5t65.5 44.5t93.5 14q19 0 43 -6.5t48.5 -20.5t46 -38t34.5 -60l-5 -20q0 58 -19.5 125.5t-53 134.5t-75 124.5t-86.5 95.5l12 12q47 -41 91 -99.5t78 -127t54 -141t20 -139.5 q-1 -45 -14.5 -86t-41 -74t-68 -52t-94.5 -19zM239 12q55 -1 92.5 20t59.5 52.5t31.5 63t9.5 52.5q0 52 -20.5 85t-49 51t-55.5 24.5t-40 7.5q-50 1 -86 -14t-59.5 -41.5t-34.5 -59t-11 -64.5q-1 -64 25 -102.5t64 -56t74 -18.5zM381 680l-182 -101l-8 13l186 101z" glyph-name="eth" horiz-adv-x="507" unicode="ð"/><glyph d="M132 378l-7 -104l-5 7q24 46 70 75t104 29q57 0 86.5 -31t22.5 -81l-33 -273h-20l33 272q6 42 -19 68.5t-73 26.5q-43 0 -81 -19.5t-63 -53t-30 -76.5l-27 -218h-19l46 378h15zM353 447q-27 1 -42.5 16.5t-29.5 33.5q-11 16 -23 30t-33 15q-11 1 -25.5 -6t-27 -26.5 t-19.5 -57.5l-16 3q6 38 20.5 62t32.5 34t36 9q28 -1 43.5 -17t27.5 -34q11 -16 24 -29.5t35 -15.5q13 -1 26.5 6t24.5 27t17 58l16 -3q-6 -39 -19 -62.5t-30.5 -34t-37.5 -8.5z" glyph-name="ntilde" horiz-adv-x="487" unicode="ñ"/><glyph d="M240 -6q-40 0 -73.5 13.5t-58.5 38t-39 58t-14 72.5q0 37 12.5 74t38 67.5t65 49t92.5 18.5q54 0 95.5 -23.5t65.5 -65t24 -93.5q0 -29 -8 -59t-24 -57t-41 -48t-58.5 -33t-76.5 -12zM241 11q64 0 105.5 28.5t61.5 72t20 90.5q0 34 -12 64t-34.5 53t-53 36t-66.5 13 q-64 0 -105.5 -28.5t-61.5 -72t-20 -89.5t21.5 -84t59 -60.5t85.5 -22.5zM212 614l73 -133h-19l-76 133h22z" glyph-name="ograve" horiz-adv-x="502" unicode="ò"/><glyph d="M240 -6q-40 0 -73.5 13.5t-58.5 38t-39 58t-14 72.5q0 37 12.5 74t38 67.5t65 49t92.5 18.5q54 0 95.5 -23.5t65.5 -65t24 -93.5q0 -29 -8 -59t-24 -57t-41 -48t-58.5 -33t-76.5 -12zM241 11q64 0 105.5 28.5t61.5 72t20 90.5q0 34 -12 64t-34.5 53t-53 36t-66.5 13 q-64 0 -105.5 -28.5t-61.5 -72t-20 -89.5t21.5 -84t59 -60.5t85.5 -22.5zM414 614l-107 -133h-19l104 133h22z" glyph-name="oacute" horiz-adv-x="502" unicode="ó"/><glyph d="M240 -6q-40 0 -73.5 13.5t-58.5 38t-39 58t-14 72.5q0 37 12.5 74t38 67.5t65 49t92.5 18.5q54 0 95.5 -23.5t65.5 -65t24 -93.5q0 -29 -8 -59t-24 -57t-41 -48t-58.5 -33t-76.5 -12zM241 11q64 0 105.5 28.5t61.5 72t20 90.5q0 34 -12 64t-34.5 53t-53 36t-66.5 13 q-64 0 -105.5 -28.5t-61.5 -72t-20 -89.5t21.5 -84t59 -60.5t85.5 -22.5zM368 481l-87 156h9l-126 -156h-21l145 181v0l101 -181h-21z" glyph-name="ocircumflex" horiz-adv-x="502" unicode="ô"/><glyph d="M240 -6q-40 0 -73.5 13.5t-58.5 38t-39 58t-14 72.5q0 37 12.5 74t38 67.5t65 49t92.5 18.5q54 0 95.5 -23.5t65.5 -65t24 -93.5q0 -29 -8 -59t-24 -57t-41 -48t-58.5 -33t-76.5 -12zM241 11q64 0 105.5 28.5t61.5 72t20 90.5q0 34 -12 64t-34.5 53t-53 36t-66.5 13 q-64 0 -105.5 -28.5t-61.5 -72t-20 -89.5t21.5 -84t59 -60.5t85.5 -22.5zM351 445q-27 1 -42.5 16.5t-29.5 33.5q-11 16 -23 30t-33 15q-11 1 -25.5 -6t-27 -26.5t-19.5 -57.5l-16 3q6 38 20.5 62t32.5 34t36 9q28 -1 43.5 -17t27.5 -34q11 -16 24 -29.5t35 -15.5 q13 -1 26.5 6t24.5 27t17 58l16 -3q-6 -39 -19 -62.5t-30.5 -34t-37.5 -8.5z" glyph-name="otilde" horiz-adv-x="502" unicode="õ"/><glyph d="M240 -6q-40 0 -73.5 13.5t-58.5 38t-39 58t-14 72.5q0 37 12.5 74t38 67.5t65 49t92.5 18.5q54 0 95.5 -23.5t65.5 -65t24 -93.5q0 -29 -8 -59t-24 -57t-41 -48t-58.5 -33t-76.5 -12zM241 11q64 0 105.5 28.5t61.5 72t20 90.5q0 34 -12 64t-34.5 53t-53 36t-66.5 13 q-64 0 -105.5 -28.5t-61.5 -72t-20 -89.5t21.5 -84t59 -60.5t85.5 -22.5zM174 503q0 10 7 16.5t16 6.5q9 -1 15.5 -7.5t6.5 -15.5q-1 -9 -7.5 -15.5t-15.5 -6.5t-15.5 6.5t-6.5 15.5v0zM341 503q0 10 6.5 16.5t15.5 6.5q9 -1 15.5 -7.5t6.5 -15.5t-7 -15.5t-16 -6.5 t-15.5 6.5t-5.5 15.5v0z" glyph-name="odieresis" horiz-adv-x="502" unicode="ö"/><glyph d="M240 90q0 10 8 17t18 7q8 0 14 -5.5t6 -14.5q0 -7 -4 -12.5t-9.5 -8.5t-12.5 -3q-8 0 -14 5.5t-6 14.5v0zM271 343q0 10 8 17t18 7q8 0 13.5 -5.5t5.5 -14.5q0 -10 -7.5 -17t-17.5 -7q-8 0 -14 5.5t-6 14.5v0zM97 229h360l-3 -19h-360z" glyph-name="divide" horiz-adv-x="501" unicode="÷"/><glyph d="M429 369q-17 -18 -40.5 -42t-51 -53t-57.5 -60t-59.5 -61.5t-57.5 -59.5t-51.5 -53t-39.5 -42l-9 12q16 17 39.5 41.5t51 53t57.5 59.5t59.5 61.5t57.5 59.5t51 53t40 41zM240 -6q-40 0 -73.5 13.5t-58.5 38t-39 58t-14 72.5q0 37 12.5 74t38 67.5t65 49t92.5 18.5 q54 0 95.5 -23.5t65.5 -65t24 -93.5q0 -29 -8 -59t-24 -57t-41 -48t-58.5 -33t-76.5 -12zM241 11q64 0 105.5 28.5t61.5 72t20 90.5q0 34 -12 64t-34.5 53t-53 36t-66.5 13q-64 0 -105.5 -28.5t-61.5 -72t-20 -89.5t21.5 -84t59 -60.5t85.5 -22.5z" glyph-name="oslash" horiz-adv-x="472" unicode="ø"/><glyph d="M188 -8q-53 0 -81.5 29.5t-22.5 79.5l33 277h20l-34 -277q-5 -37 18.5 -63t71.5 -28q40 0 79 19.5t65.5 53.5t31.5 77l27 218h20l-47 -378h-16l13 115l1 -7q-12 -31 -40.5 -57.5t-65 -42.5t-73.5 -16zM215 616l73 -133h-19l-76 133h22z" glyph-name="ugrave" horiz-adv-x="487" unicode="ù"/><glyph d="M188 -8q-53 0 -81.5 29.5t-22.5 79.5l33 277h20l-34 -277q-5 -37 18.5 -63t71.5 -28q40 0 79 19.5t65.5 53.5t31.5 77l27 218h20l-47 -378h-16l13 115l1 -7q-12 -31 -40.5 -57.5t-65 -42.5t-73.5 -16zM416 616l-107 -133h-19l104 133h22z" glyph-name="uacute" horiz-adv-x="487" unicode="ú"/><glyph d="M188 -8q-53 0 -81.5 29.5t-22.5 79.5l33 277h20l-34 -277q-5 -37 18.5 -63t71.5 -28q40 0 79 19.5t65.5 53.5t31.5 77l27 218h20l-47 -378h-16l13 115l1 -7q-12 -31 -40.5 -57.5t-65 -42.5t-73.5 -16zM370 483l-87 156h9l-126 -156h-21l145 181v0l101 -181h-21z" glyph-name="ucircumflex" horiz-adv-x="487" unicode="û"/><glyph d="M188 -8q-53 0 -81.5 29.5t-22.5 79.5l33 277h20l-34 -277q-5 -37 18.5 -63t71.5 -28q40 0 79 19.5t65.5 53.5t31.5 77l27 218h20l-47 -378h-16l13 115l1 -7q-12 -31 -40.5 -57.5t-65 -42.5t-73.5 -16zM177 505q0 10 7 16.5t16 6.5q9 -1 15.5 -7.5t6.5 -15.5 q-1 -9 -7.5 -15.5t-15.5 -6.5t-15.5 6.5t-6.5 15.5v0zM344 505q0 10 6.5 16.5t15.5 6.5q9 -1 15.5 -7.5t6.5 -15.5t-7 -15.5t-16 -6.5t-15.5 6.5t-5.5 15.5v0z" glyph-name="udieresis" horiz-adv-x="487" unicode="ü"/><glyph d="M97 -181l312 559h22l-311 -559h-23zM197 -5l-129 383h22l124 -371zM424 613l-107 -133h-19l104 133h22z" glyph-name="yacute" horiz-adv-x="461" unicode="ý"/><glyph d="M182 752l-62 -506l-2 21q17 34 47.5 61t69.5 42.5t81 15.5q50 0 89 -23.5t61.5 -63t22.5 -89.5q0 -69 -31.5 -117.5t-82 -73.5t-108.5 -25q-63 0 -108 33.5t-60 85.5l5 13l-37 -307h-18l114 933h19zM470 208q0 45 -20.5 81t-56 57.5t-80.5 21.5q-54 0 -99.5 -27 t-73.5 -71.5t-28 -97.5q0 -49 20 -85t56 -55.5t81 -19.5q54 0 99.5 25t73.5 69t28 102z" glyph-name="thorn" horiz-adv-x="542" unicode="þ"/><glyph d="M97 -181l312 559h22l-311 -559h-23zM197 -5l-129 383h22l124 -371zM209 502q0 10 7 16.5t16 6.5q9 -1 15.5 -7.5t6.5 -15.5q-1 -9 -7.5 -15.5t-15.5 -6.5t-15.5 6.5t-6.5 15.5v0zM376 502q0 10 6.5 16.5t15.5 6.5q9 -1 15.5 -7.5t6.5 -15.5t-7 -15.5t-16 -6.5t-15.5 6.5 t-5.5 15.5v0z" glyph-name="ydieresis" horiz-adv-x="457" unicode="ÿ"/><glyph d="M60 0h-21l381 734h3l200 -734h-21l-191 700l14 3zM195 281h344l-1 -18h-347zM326 857h231l-3 -16h-230z" glyph-name="Amacron" horiz-adv-x="709" unicode="Ā"/><glyph d="M238 -5q-53 0 -94.5 24.5t-65 65.5t-23.5 92q0 30 11 66t35 68.5t63.5 53.5t96.5 21q45 0 82 -17t62.5 -46.5t36.5 -67.5l-5 -12l21 135h15l-45 -378h-19l14 120l1 -15q-13 -24 -32.5 -44t-43.5 -35t-52 -23t-58 -8zM243 12q47 0 87 20t66.5 56t33.5 82l4 41 q-3 44 -26 79.5t-61 56.5t-85 21q-52 0 -88 -19.5t-58 -49.5t-31.5 -62.5t-9.5 -57.5q0 -46 21.5 -84t59.5 -60.5t87 -22.5zM169 510h231l-3 -16h-230z" glyph-name="amacron" horiz-adv-x="545" unicode="ā"/><glyph d="M60 0h-21l381 734h3l200 -734h-21l-191 700l14 3zM195 281h344l-1 -18h-347zM445 811q-21 0 -42 8t-39 26.5t-27 48.5t-5 75h17q-4 -51 10 -81.5t38.5 -45t48.5 -14.5q32 0 56 20t39 52t21 69h17q-6 -44 -24 -80t-46.5 -57t-63.5 -21z" glyph-name="Abreve" horiz-adv-x="709" unicode="Ă"/><glyph d="M238 -5q-53 0 -94.5 24.5t-65 65.5t-23.5 92q0 30 11 66t35 68.5t63.5 53.5t96.5 21q45 0 82 -17t62.5 -46.5t36.5 -67.5l-5 -12l21 135h15l-45 -378h-19l14 120l1 -15q-13 -24 -32.5 -44t-43.5 -35t-52 -23t-58 -8zM243 12q47 0 87 20t66.5 56t33.5 82l4 41 q-3 44 -26 79.5t-61 56.5t-85 21q-52 0 -88 -19.5t-58 -49.5t-31.5 -62.5t-9.5 -57.5q0 -46 21.5 -84t59.5 -60.5t87 -22.5zM287 463q-21 0 -42 8t-39 26.5t-27 48.5t-5 75h17q-4 -51 10 -81.5t38.5 -45t48.5 -14.5q32 0 56 20t39 52t21 69h17q-6 -44 -24 -80t-46.5 -57 t-63.5 -21z" glyph-name="abreve" horiz-adv-x="545" unicode="ă"/><glyph d="M60 0h-21l381 734h3l200 -734h-21l-191 700l14 3zM195 281h344l-1 -18h-347zM582 -186q-29 0 -50.5 21.5t-21.5 55.5q0 25 13.5 48t36 42.5t49.5 32.5l14 -12q-45 -25 -69 -53t-24 -57q-1 -28 16 -44t38 -16q19 0 35 13t27 32l12 -9q-11 -22 -31 -38t-45 -16z" glyph-name="Aogonek" horiz-adv-x="709" unicode="Ą"/><glyph d="M238 -5q-53 0 -94.5 24.5t-65 65.5t-23.5 92q0 30 11 66t35 68.5t63.5 53.5t96.5 21q45 0 82 -17t62.5 -46.5t36.5 -67.5l-5 -12l21 135h15l-45 -378h-19l14 120l1 -15q-13 -24 -32.5 -44t-43.5 -35t-52 -23t-58 -8zM243 12q47 0 87 20t66.5 56t33.5 82l4 41 q-3 44 -26 79.5t-61 56.5t-85 21q-52 0 -88 -19.5t-58 -49.5t-31.5 -62.5t-9.5 -57.5q0 -46 21.5 -84t59.5 -60.5t87 -22.5zM390 -195q-29 0 -50.5 21.5t-21.5 55.5q0 25 13.5 48t36 42.5t49.5 32.5l14 -12q-45 -25 -69 -53t-24 -57q-1 -28 16 -44t38 -16q19 0 35 13t27 32 l12 -9q-11 -22 -31 -38t-45 -16z" glyph-name="aogonek" horiz-adv-x="545" unicode="ą"/><glyph d="M600 29q-25 -13 -52 -22t-56.5 -14t-60.5 -5q-77 0 -139 25.5t-106 70.5t-68 105t-24 129q0 49 12.5 102.5t40.5 104t72.5 91t108 64.5t148.5 24q56 0 107 -17t93 -46l-12 -16q-38 28 -87 44t-102 16q-100 0 -169 -33.5t-111.5 -88.5t-61.5 -119.5t-19 -125.5 q0 -69 24.5 -126.5t68 -98.5t101 -63.5t122.5 -22.5q29 0 57 5t54 14t50 20zM612 937l-107 -133h-19l104 133h22z" glyph-name="Cacute" horiz-adv-x="697" unicode="Ć"/><glyph d="M358 28q-26 -17 -55.5 -26t-61.5 -9q-39 0 -73 13.5t-59.5 38.5t-39.5 58.5t-14 72.5q0 42 16.5 79.5t45 66t66 45t79.5 16.5q41 0 75 -13.5t58 -37.5l-13 -14q-22 21 -53 34.5t-66 13.5q-50 0 -93 -25.5t-69 -68.5t-26 -96q0 -45 21.5 -83t59.5 -60.5t87 -22.5 q29 0 55 8.5t49 23.5zM379 613l-107 -133h-19l104 133h22z" glyph-name="cacute" horiz-adv-x="383" unicode="ć"/><glyph d="M600 29q-25 -13 -52 -22t-56.5 -14t-60.5 -5q-77 0 -139 25.5t-106 70.5t-68 105t-24 129q0 49 12.5 102.5t40.5 104t72.5 91t108 64.5t148.5 24q56 0 107 -17t93 -46l-12 -16q-38 28 -87 44t-102 16q-100 0 -169 -33.5t-111.5 -88.5t-61.5 -119.5t-19 -125.5 q0 -69 24.5 -126.5t68 -98.5t101 -63.5t122.5 -22.5q29 0 57 5t54 14t50 20zM566 804l-87 156h9l-126 -156h-21l145 181v0l101 -181h-21z" glyph-name="Ccircumflex" horiz-adv-x="697" unicode="Ĉ"/><glyph d="M358 28q-26 -17 -55.5 -26t-61.5 -9q-39 0 -73 13.5t-59.5 38.5t-39.5 58.5t-14 72.5q0 42 16.5 79.5t45 66t66 45t79.5 16.5q41 0 75 -13.5t58 -37.5l-13 -14q-22 21 -53 34.5t-66 13.5q-50 0 -93 -25.5t-69 -68.5t-26 -96q0 -45 21.5 -83t59.5 -60.5t87 -22.5 q29 0 55 8.5t49 23.5zM338 481l-87 156h9l-126 -156h-21l145 181v0l101 -181h-21z" glyph-name="ccircumflex" horiz-adv-x="423" unicode="ĉ"/><glyph d="M600 29q-25 -13 -52 -22t-56.5 -14t-60.5 -5q-77 0 -139 25.5t-106 70.5t-68 105t-24 129q0 49 12.5 102.5t40.5 104t72.5 91t108 64.5t148.5 24q56 0 107 -17t93 -46l-12 -16q-38 28 -87 44t-102 16q-100 0 -169 -33.5t-111.5 -88.5t-61.5 -119.5t-19 -125.5 q0 -69 24.5 -126.5t68 -98.5t101 -63.5t122.5 -22.5q29 0 57 5t54 14t50 20zM455 824q0 10 8 17t18 7q9 0 14.5 -6t5.5 -14q0 -10 -8 -17t-17 -7q-10 0 -15.5 6.5t-5.5 13.5z" glyph-name="Cdotaccent" horiz-adv-x="697" unicode="Ċ"/><glyph d="M358 28q-26 -17 -55.5 -26t-61.5 -9q-39 0 -73 13.5t-59.5 38.5t-39.5 58.5t-14 72.5q0 42 16.5 79.5t45 66t66 45t79.5 16.5q41 0 75 -13.5t58 -37.5l-13 -14q-22 21 -53 34.5t-66 13.5q-50 0 -93 -25.5t-69 -68.5t-26 -96q0 -45 21.5 -83t59.5 -60.5t87 -22.5 q29 0 55 8.5t49 23.5zM227 501q0 10 8 17t18 7q9 0 14.5 -6t5.5 -14q0 -10 -8 -17t-17 -7q-10 0 -15.5 6.5t-5.5 13.5z" glyph-name="cdotaccent" horiz-adv-x="423" unicode="ċ"/><glyph d="M600 29q-25 -13 -52 -22t-56.5 -14t-60.5 -5q-77 0 -139 25.5t-106 70.5t-68 105t-24 129q0 49 12.5 102.5t40.5 104t72.5 91t108 64.5t148.5 24q56 0 107 -17t93 -46l-12 -16q-38 28 -87 44t-102 16q-100 0 -169 -33.5t-111.5 -88.5t-61.5 -119.5t-19 -125.5 q0 -69 24.5 -126.5t68 -98.5t101 -63.5t122.5 -22.5q29 0 57 5t54 14t50 20zM396 948l87 -157h-11l128 157h21l-145 -181h-1l-100 181h21z" glyph-name="Ccaron" horiz-adv-x="697" unicode="Č"/><glyph d="M358 28q-26 -17 -55.5 -26t-61.5 -9q-39 0 -73 13.5t-59.5 38.5t-39.5 58.5t-14 72.5q0 42 16.5 79.5t45 66t66 45t79.5 16.5q41 0 75 -13.5t58 -37.5l-13 -14q-22 21 -53 34.5t-66 13.5q-50 0 -93 -25.5t-69 -68.5t-26 -96q0 -45 21.5 -83t59.5 -60.5t87 -22.5 q29 0 55 8.5t49 23.5zM212 661l87 -157h-11l128 157h21l-145 -181h-1l-100 181h21z" glyph-name="ccaron" horiz-adv-x="383" unicode="č"/><glyph d="M96 0l86 702h146q100 0 167.5 -25.5t107 -70t56 -101t16.5 -119.5q-1 -95 -31 -167t-84 -120.5t-126.5 -73.5t-157.5 -25h-180zM118 20h165q76 0 143 23t118.5 69t81 114t29.5 158q0 60 -16 113.5t-52.5 95t-98 65t-152.5 23.5h-137zM334 947l87 -157h-11l128 157h21 l-145 -181h-1l-100 181h21z" glyph-name="Dcaron" horiz-adv-x="731" unicode="Ď"/><glyph d="M229 -3q-55 3 -96 31t-61.5 73.5t-14.5 99.5q5 44 24.5 79.5t49.5 60t67 36.5t78 9q61 -3 107 -42t61 -92l-5 -11l63 511h20l-94 -752h-19l15 121l1 -15q-28 -52 -81.5 -83t-114.5 -26zM232 13q48 -3 91 17.5t72 58t36 85.5l3 33q-2 43 -23 79t-56 58.5t-79 24.5 q-50 3 -93 -17t-71.5 -59t-34.5 -92q-6 -49 13 -90.5t56 -67.5t86 -30zM614 572q-2 5 -3 9.5t-3 9.5q24 20 37 49.5t10 64.5q5 1 11 3t11 4q4 -40 -13 -76.5t-50 -63.5v0z" glyph-name="dcaron" horiz-adv-x="606" unicode="ď"/><glyph d="M96 0l86 702h146q100 0 167.5 -25.5t107 -70t56 -101t16.5 -119.5q-1 -95 -31 -167t-84 -120.5t-126.5 -73.5t-157.5 -25h-180zM118 20h165q76 0 143 23t118.5 69t81 114t29.5 158q0 60 -16 113.5t-52.5 95t-98 65t-152.5 23.5h-137zM32 360h232l-3 -20h-232z" glyph-name="Dcroat" horiz-adv-x="731" unicode="Đ"/><glyph d="M292 633h282l-3 -18h-282zM229 -3q-55 3 -96 31t-61.5 73.5t-14.5 99.5q5 44 24.5 79.5t49.5 60t67 36.5t78 9q61 -3 107 -42t61 -92l-5 -11l63 511h20l-94 -752h-19l15 121l1 -15q-28 -52 -81.5 -83t-114.5 -26zM232 13q48 -3 91 17.5t72 58t36 85.5l3 33q-2 43 -23 79 t-56 58.5t-79 24.5q-50 3 -93 -17t-71.5 -59t-34.5 -92q-6 -49 13 -90.5t56 -67.5t86 -30z" glyph-name="dcroat" horiz-adv-x="509" unicode="đ"/><glyph d="M182 702h419l-3 -20h-399l-39 -319h360l-3 -19h-360l-39 -324h413l-2 -20h-433zM279 832h231l-3 -16h-230z" glyph-name="Emacron" horiz-adv-x="631" unicode="Ē"/><glyph d="M242 11q32 0 62 11t54 30l11 -15q-27 -20 -60 -31.5t-68 -11.5q-55 0 -97 24.5t-65.5 66t-23.5 92.5q0 43 16.5 80.5t45 66.5t66 45t79.5 16q35 0 62.5 -10t49 -28.5t36 -43.5t22.5 -56l-358 -117l-4 18l348 112l-8 -9q-15 48 -52.5 82t-94.5 34q-51 0 -94 -25t-68.5 -68 t-25.5 -95q0 -43 20 -81.5t57.5 -62.5t89.5 -24zM159 510h231l-3 -16h-230z" glyph-name="emacron" horiz-adv-x="470" unicode="ē"/><glyph d="M182 702h419l-3 -20h-399l-39 -319h360l-3 -19h-360l-39 -324h413l-2 -20h-433zM398 785q-21 0 -42 8t-39 26.5t-27 48.5t-5 75h17q-4 -51 10 -81.5t38.5 -45t48.5 -14.5q32 0 56 20t39 52t21 69h17q-6 -44 -24 -80t-46.5 -57t-63.5 -21z" glyph-name="Ebreve" horiz-adv-x="631" unicode="Ĕ"/><glyph d="M242 11q32 0 62 11t54 30l11 -15q-27 -20 -60 -31.5t-68 -11.5q-55 0 -97 24.5t-65.5 66t-23.5 92.5q0 43 16.5 80.5t45 66.5t66 45t79.5 16q35 0 62.5 -10t49 -28.5t36 -43.5t22.5 -56l-358 -117l-4 18l348 112l-8 -9q-15 48 -52.5 82t-94.5 34q-51 0 -94 -25t-68.5 -68 t-25.5 -95q0 -43 20 -81.5t57.5 -62.5t89.5 -24zM278 464q-21 0 -42 8t-39 26.5t-27 48.5t-5 75h17q-4 -51 10 -81.5t38.5 -45t48.5 -14.5q32 0 56 20t39 52t21 69h17q-6 -44 -24 -80t-46.5 -57t-63.5 -21z" glyph-name="ebreve" horiz-adv-x="470" unicode="ĕ"/><glyph d="M182 702h419l-3 -20h-399l-39 -319h360l-3 -19h-360l-39 -324h413l-2 -20h-433zM371 824q0 10 8 17t18 7q9 0 14.5 -6t5.5 -14q0 -10 -8 -17t-17 -7q-10 0 -15.5 6.5t-5.5 13.5z" glyph-name="Edotaccent" horiz-adv-x="631" unicode="Ė"/><glyph d="M242 11q32 0 62 11t54 30l11 -15q-27 -20 -60 -31.5t-68 -11.5q-55 0 -97 24.5t-65.5 66t-23.5 92.5q0 43 16.5 80.5t45 66.5t66 45t79.5 16q35 0 62.5 -10t49 -28.5t36 -43.5t22.5 -56l-358 -117l-4 18l348 112l-8 -9q-15 48 -52.5 82t-94.5 34q-51 0 -94 -25t-68.5 -68 t-25.5 -95q0 -43 20 -81.5t57.5 -62.5t89.5 -24zM251 502q0 10 8 17t18 7q9 0 14.5 -6t5.5 -14q0 -10 -8 -17t-17 -7q-10 0 -15.5 6.5t-5.5 13.5z" glyph-name="edotaccent" horiz-adv-x="470" unicode="ė"/><glyph d="M182 702h419l-3 -20h-399l-39 -319h360l-3 -19h-360l-39 -324h413l-2 -20h-433zM489 -186q-29 0 -50.5 21.5t-21.5 55.5q0 25 13.5 48t36 42.5t49.5 32.5l14 -12q-45 -25 -69 -53t-24 -57q-1 -28 16 -44t38 -16q19 0 35 13t27 32l12 -9q-11 -22 -31 -38t-45 -16z" glyph-name="Eogonek" horiz-adv-x="631" unicode="Ę"/><glyph d="M301 -187q-29 0 -50.5 21.5t-21.5 55.5q0 31 15.5 58t41 49.5t54.5 38.5l-9 -20q-21 -10 -44 -16t-47 -6q-55 0 -96.5 24.5t-65.5 66t-24 92.5q0 43 16.5 80.5t45 66.5t66 45t80.5 16q34 0 62 -10t49 -28.5t35.5 -43.5t22.5 -56l-358 -117l-4 18l348 112l-7 -9 q-16 48 -53.5 82t-94.5 34q-51 0 -94 -25t-68.5 -68t-25.5 -95q0 -43 20 -81.5t58 -62.5t89 -24q33 0 63 11t53 30l11 -15q-9 -5 -17.5 -10.5t-17.5 -11.5q-41 -29 -63 -59.5t-22 -64.5q0 -27 17 -43.5t38 -16.5q19 0 34.5 13t26.5 32l13 -9q-11 -22 -31 -38t-45 -16z" glyph-name="eogonek" horiz-adv-x="453" unicode="ę"/><glyph d="M182 702h419l-3 -20h-399l-39 -319h360l-3 -19h-360l-39 -324h413l-2 -20h-433zM312 948l87 -157h-11l128 157h21l-145 -181h-1l-100 181h21z" glyph-name="Ecaron" horiz-adv-x="631" unicode="Ě"/><glyph d="M242 11q32 0 62 11t54 30l11 -15q-27 -20 -60 -31.5t-68 -11.5q-55 0 -97 24.5t-65.5 66t-23.5 92.5q0 43 16.5 80.5t45 66.5t66 45t79.5 16q35 0 62.5 -10t49 -28.5t36 -43.5t22.5 -56l-358 -117l-4 18l348 112l-8 -9q-15 48 -52.5 82t-94.5 34q-51 0 -94 -25t-68.5 -68 t-25.5 -95q0 -43 20 -81.5t57.5 -62.5t89.5 -24zM204 661l87 -157h-11l128 157h21l-145 -181h-1l-100 181h21z" glyph-name="ecaron" horiz-adv-x="451" unicode="ě"/><glyph d="M621 28q-25 -12 -56.5 -21.5t-65.5 -14t-66 -4.5q-53 0 -99 12t-83.5 33.5t-67 52t-49.5 67.5t-30.5 79t-9.5 87q0 47 14 99.5t42.5 103t73.5 92t108 66t146 24.5q56 -1 106.5 -17.5t92.5 -45.5l-12 -16q-38 28 -87 44t-102 16q-80 0 -140 -24t-102 -64t-68.5 -88.5 t-39 -97.5t-12.5 -92q-1 -49 12 -94t38 -83t61.5 -67t83 -46.5t102.5 -20.5q46 -2 99 6.5t93 26.5l29 239h-171l3 19h191zM557 804l-87 156h9l-126 -156h-21l145 181v0l101 -181h-21z" glyph-name="Gcircumflex" horiz-adv-x="740" unicode="Ĝ"/><glyph d="M230 -181q-27 0 -56.5 5t-60.5 24t-66 59l13 12q34 -39 64 -56t56.5 -21.5t49.5 -4.5q61 0 97.5 20t54 53t23.5 73l18 136l6 -5q-27 -54 -79 -86.5t-111 -32.5q-53 0 -94.5 24.5t-65.5 66t-24 93.5q0 27 11 62t35 68t63.5 54.5t96.5 21.5q66 0 115 -36.5t65 -92.5l-3 -10 l22 132h15l-49 -397q-5 -42 -25.5 -79t-61.5 -60t-109 -23zM263 368q-54 0 -90.5 -20.5t-58 -51t-30.5 -62.5t-9 -55q0 -46 21.5 -84t59 -60.5t86.5 -22.5q46 0 86.5 21.5t67.5 56.5t33 77l6 43q-3 44 -26 80t-61 57t-85 21zM399 483l-87 156h9l-126 -156h-21l145 181v0 l101 -181h-21z" glyph-name="gcircumflex" horiz-adv-x="546" unicode="ĝ"/><glyph d="M621 28q-25 -12 -56.5 -21.5t-65.5 -14t-66 -4.5q-53 0 -99 12t-83.5 33.5t-67 52t-49.5 67.5t-30.5 79t-9.5 87q0 47 14 99.5t42.5 103t73.5 92t108 66t146 24.5q56 -1 106.5 -17.5t92.5 -45.5l-12 -16q-38 28 -87 44t-102 16q-80 0 -140 -24t-102 -64t-68.5 -88.5 t-39 -97.5t-12.5 -92q-1 -49 12 -94t38 -83t61.5 -67t83 -46.5t102.5 -20.5q46 -2 99 6.5t93 26.5l29 239h-171l3 19h191zM473 786q-21 0 -42 8t-39 26.5t-27 48.5t-5 75h17q-4 -51 10 -81.5t38.5 -45t48.5 -14.5q32 0 56 20t39 52t21 69h17q-6 -44 -24 -80t-46.5 -57 t-63.5 -21z" glyph-name="Gbreve" horiz-adv-x="740" unicode="Ğ"/><glyph d="M230 -181q-27 0 -56.5 5t-60.5 24t-66 59l13 12q34 -39 64 -56t56.5 -21.5t49.5 -4.5q61 0 97.5 20t54 53t23.5 73l18 136l6 -5q-27 -54 -79 -86.5t-111 -32.5q-53 0 -94.5 24.5t-65.5 66t-24 93.5q0 27 11 62t35 68t63.5 54.5t96.5 21.5q66 0 115 -36.5t65 -92.5l-3 -10 l22 132h15l-49 -397q-5 -42 -25.5 -79t-61.5 -60t-109 -23zM263 368q-54 0 -90.5 -20.5t-58 -51t-30.5 -62.5t-9 -55q0 -46 21.5 -84t59 -60.5t86.5 -22.5q46 0 86.5 21.5t67.5 56.5t33 77l6 43q-3 44 -26 80t-61 57t-85 21zM315 464q-21 0 -42 8t-39 26.5t-27 48.5t-5 75 h17q-4 -51 10 -81.5t38.5 -45t48.5 -14.5q32 0 56 20t39 52t21 69h17q-6 -44 -24 -80t-46.5 -57t-63.5 -21z" glyph-name="gbreve" horiz-adv-x="546" unicode="ğ"/><glyph d="M621 28q-25 -12 -56.5 -21.5t-65.5 -14t-66 -4.5q-53 0 -99 12t-83.5 33.5t-67 52t-49.5 67.5t-30.5 79t-9.5 87q0 47 14 99.5t42.5 103t73.5 92t108 66t146 24.5q56 -1 106.5 -17.5t92.5 -45.5l-12 -16q-38 28 -87 44t-102 16q-80 0 -140 -24t-102 -64t-68.5 -88.5 t-39 -97.5t-12.5 -92q-1 -49 12 -94t38 -83t61.5 -67t83 -46.5t102.5 -20.5q46 -2 99 6.5t93 26.5l29 239h-171l3 19h191zM446 824q0 10 8 17t18 7q9 0 14.5 -6t5.5 -14q0 -10 -8 -17t-17 -7q-10 0 -15.5 6.5t-5.5 13.5z" glyph-name="Gdotaccent" horiz-adv-x="740" unicode="Ġ"/><glyph d="M230 -181q-27 0 -56.5 5t-60.5 24t-66 59l13 12q34 -39 64 -56t56.5 -21.5t49.5 -4.5q61 0 97.5 20t54 53t23.5 73l18 136l6 -5q-27 -54 -79 -86.5t-111 -32.5q-53 0 -94.5 24.5t-65.5 66t-24 93.5q0 27 11 62t35 68t63.5 54.5t96.5 21.5q66 0 115 -36.5t65 -92.5l-3 -10 l22 132h15l-49 -397q-5 -42 -25.5 -79t-61.5 -60t-109 -23zM263 368q-54 0 -90.5 -20.5t-58 -51t-30.5 -62.5t-9 -55q0 -46 21.5 -84t59 -60.5t86.5 -22.5q46 0 86.5 21.5t67.5 56.5t33 77l6 43q-3 44 -26 80t-61 57t-85 21zM288 503q0 10 8 17t18 7q9 0 14.5 -6t5.5 -14 q0 -10 -8 -17t-17 -7q-10 0 -15.5 6.5t-5.5 13.5z" glyph-name="gdotaccent" horiz-adv-x="546" unicode="ġ"/><glyph d="M621 28q-25 -12 -56.5 -21.5t-65.5 -14t-66 -4.5q-53 0 -99 12t-83.5 33.5t-67 52t-49.5 67.5t-30.5 79t-9.5 87q0 47 14 99.5t42.5 103t73.5 92t108 66t146 24.5q56 -1 106.5 -17.5t92.5 -45.5l-12 -16q-38 28 -87 44t-102 16q-80 0 -140 -24t-102 -64t-68.5 -88.5 t-39 -97.5t-12.5 -92q-1 -49 12 -94t38 -83t61.5 -67t83 -46.5t102.5 -20.5q46 -2 99 6.5t93 26.5l29 239h-171l3 19h191zM310 -182l-9 9q30 18 45 50.5t15 75.5l21 -1q0 -26 -6.5 -52t-22 -48t-43.5 -34z" glyph-name="uni0122" horiz-adv-x="740" unicode="Ģ"/><glyph d="M364 564l9 -10q-31 -18 -45.5 -50.5t-14.5 -75.5l-22 1q0 27 6.5 53t22.5 47.5t44 34.5zM230 -181q-27 0 -56.5 5t-60.5 24t-66 59l13 12q34 -39 64 -56t56.5 -21.5t49.5 -4.5q61 0 97.5 20t54 53t23.5 73l18 136l6 -5q-27 -54 -79 -86.5t-111 -32.5q-53 0 -94.5 24.5 t-65.5 66t-24 93.5q0 27 11 62t35 68t63.5 54.5t96.5 21.5q66 0 115 -36.5t65 -92.5l-3 -10l22 132h15l-49 -397q-5 -42 -25.5 -79t-61.5 -60t-109 -23zM263 368q-54 0 -90.5 -20.5t-58 -51t-30.5 -62.5t-9 -55q0 -46 21.5 -84t59 -60.5t86.5 -22.5q46 0 86.5 21.5 t67.5 56.5t33 77l6 43q-3 44 -26 80t-61 57t-85 21z" glyph-name="uni0123" horiz-adv-x="546" unicode="ģ"/><glyph d="M679 702l-86 -702h-20l43 344h-458l-42 -344h-20l86 702h20l-42 -339h458l41 339h20zM534 804l-87 156h9l-126 -156h-21l145 181v0l101 -181h-21z" glyph-name="Hcircumflex" horiz-adv-x="736" unicode="Ĥ"/><glyph d="M123 287q24 42 72 70t105 28q53 0 80.5 -31.5t22.5 -80.5l-33 -273h-20l34 277q3 36 -18.5 62t-63.5 28q-45 0 -85 -19.5t-67 -53t-33 -76.5l-27 -218h-19l92 752h20l-58 -475zM269 720l-87 156h9l-126 -156h-21l145 181v0l101 -181h-21z" glyph-name="hcircumflex" horiz-adv-x="487" unicode="ĥ"/><glyph d="M158 510h656l-2 -16h-656zM754 702l-86 -702h-20l43 344h-458l-42 -344h-20l86 702h20l-42 -339h458l41 339h20z" glyph-name="Hbar" horiz-adv-x="894" unicode="Ħ"/><glyph d="M123 287q24 42 72 70t105 28q53 0 80.5 -31.5t22.5 -80.5l-33 -273h-20l34 277q3 36 -18.5 62t-63.5 28q-45 0 -85 -19.5t-67 -53t-33 -76.5l-27 -218h-19l92 752h20l-58 -475zM37 584h232l-3 -20h-232z" glyph-name="hbar" horiz-adv-x="487" unicode="ħ"/><glyph d="M182 702h20l-86 -702h-20zM278 768q-27 1 -42.5 16.5t-29.5 33.5q-11 16 -23 30t-33 15q-11 1 -25.5 -6t-27 -26.5t-19.5 -57.5l-16 3q6 38 20.5 62t32.5 34t36 9q28 -1 43.5 -17t27.5 -34q11 -16 24 -29.5t35 -15.5q13 -1 26.5 6t24.5 27t17 58l16 -3q-6 -39 -19 -62.5 t-30.5 -34t-37.5 -8.5z" glyph-name="Itilde" horiz-adv-x="258" unicode="Ĩ"/><glyph d="M117 378h20l-47 -378h-19zM216 444q-27 1 -42.5 16.5t-29.5 33.5q-11 16 -23 30t-33 15q-11 1 -25.5 -6t-27 -26.5t-19.5 -57.5l-16 3q6 38 20.5 62t32.5 34t36 9q28 -1 43.5 -17t27.5 -34q11 -16 24 -29.5t35 -15.5q13 -1 26.5 6t24.5 27t17 58l16 -3q-6 -39 -19 -62.5 t-30.5 -34t-37.5 -8.5z" glyph-name="itilde" horiz-adv-x="208" unicode="ĩ"/><glyph d="M182 702h20l-86 -702h-20zM92 832h231l-3 -16h-230z" glyph-name="Imacron" horiz-adv-x="258" unicode="Ī"/><glyph d="M117 378h20l-47 -378h-19zM30 508h231l-3 -16h-230z" glyph-name="imacron" horiz-adv-x="208" unicode="ī"/><glyph d="M182 702h20l-86 -702h-20zM211 785q-21 0 -42 8t-39 26.5t-27 48.5t-5 75h17q-4 -51 10 -81.5t38.5 -45t48.5 -14.5q32 0 56 20t39 52t21 69h17q-6 -44 -24 -80t-46.5 -57t-63.5 -21z" glyph-name="Ibreve" horiz-adv-x="258" unicode="Ĭ"/><glyph d="M117 378h20l-47 -378h-19zM149 462q-21 0 -42 8t-39 26.5t-27 48.5t-5 75h17q-4 -51 10 -81.5t38.5 -45t48.5 -14.5q32 0 56 20t39 52t21 69h17q-6 -44 -24 -80t-46.5 -57t-63.5 -21z" glyph-name="ibreve" horiz-adv-x="208" unicode="ĭ"/><glyph d="M78 -186q-28 0 -50 21t-22 56q0 25 14 48t36.5 42.5t48.5 33.5l-9 -15l86 702h20l-86 -702q-42 -25 -66 -52.5t-24 -55.5t16.5 -44t37.5 -16q20 0 35.5 13t26.5 32l12 -9q-10 -22 -30.5 -38t-45.5 -16z" glyph-name="Iogonek" horiz-adv-x="257" unicode="Į"/><glyph d="M60 -186q-28 0 -50 21t-22 56q0 25 14 48t36.5 42.5t48.5 32.5l2 -7l-11 -7l47 378h19l-45 -377q-44 -25 -67.5 -52.5t-23.5 -56.5q0 -28 16.5 -44t37.5 -16q20 0 35.5 13t26.5 32l12 -9q-10 -22 -30.5 -38t-45.5 -16zM130 501q0 10 8 17t18 7q8 0 14 -6t6 -15 q-1 -10 -8.5 -17t-17.5 -7t-15 7t-5 14z" glyph-name="iogonek" horiz-adv-x="179" unicode="į"/><glyph d="M182 702h20l-86 -702h-20zM184 824q0 10 8 17t18 7q9 0 14.5 -6t5.5 -14q0 -10 -8 -17t-17 -7q-10 0 -15.5 6.5t-5.5 13.5z" glyph-name="Idotaccent" horiz-adv-x="258" unicode="İ"/><glyph d="M117 378h20l-47 -378h-19z" glyph-name="dotlessi" horiz-adv-x="208" unicode="ı"/><glyph d="M182 702h20l-86 -702h-20zM437 93q-10 -75 -42 -127t-78.5 -79t-98.5 -29v0l3 19q49 3 90.5 29.5t70 74.5t36.5 115l75 606h18z" glyph-name="IJ" horiz-adv-x="568" unicode="Ĳ"/><glyph d="M117 378h20l-47 -378h-19zM122 500q0 10 8 17t18 7q9 0 14.5 -6t5.5 -14q0 -10 -8 -17t-17 -7q-10 0 -15.5 6.5t-5.5 13.5zM217 -171q31 28 51.5 68t27.5 91l48 390h19l-47 -384q-7 -59 -30 -103t-57 -72zM342 500q0 10 8 17t18 7q9 0 14.5 -6t5.5 -14q0 -10 -8 -17 t-17 -7q-10 0 -15.5 6.5t-5.5 13.5z" glyph-name="ij" horiz-adv-x="434" unicode="ĳ"/><glyph d="M179 93q-10 -75 -42 -127t-78.5 -79t-98.5 -29v0l3 19q49 3 90.5 29.5t70 74.5t36.5 115l75 606h18zM342 804l-87 156h9l-126 -156h-21l145 181v0l101 -181h-21z" glyph-name="Jcircumflex" horiz-adv-x="310" unicode="Ĵ"/><glyph d="M9 -171q31 28 51.5 68t27.5 91l48 390h19l-47 -384q-7 -59 -30 -103t-57 -72zM245 480l-87 156h9l-126 -156h-21l145 181v0l101 -181h-21z" glyph-name="jcircumflex" horiz-adv-x="226" unicode="ĵ"/><glyph d="M160 365l-5 -34l-3 3l430 368h26l-325 -279l281 -423h-25l-273 410l-113 -96l-37 -314h-20l86 702h20zM230 -182l-9 9q30 18 45 50.5t15 75.5l21 -1q0 -26 -6.5 -52t-22 -48t-43.5 -34z" glyph-name="uni0136" horiz-adv-x="641" unicode="Ķ"/><glyph d="M71 0l92 752h20l-93 -752h-19zM203 242l148 -242h-23l-141 231zM100 148l1 22l257 215l13 -11zM130 -288l-9 9q30 18 45 50.5t15 75.5l21 -1q0 -26 -6.5 -52t-22 -48t-43.5 -34z" glyph-name="uni0137" horiz-adv-x="394" unicode="ķ"/><glyph d="M102 141l-3 19l254 218h27zM90 0h-19l46 378h20zM167 211l175 -211h-24l-164 198z" glyph-name="kgreenlandic" horiz-adv-x="420" unicode="ĸ"/><glyph d="M182 702h20l-84 -682h403l-3 -20h-422zM334 938l-107 -133h-19l104 133h22z" glyph-name="Lacute" horiz-adv-x="561" unicode="Ĺ"/><glyph d="M163 752h20l-93 -752h-19zM315 987l-107 -133h-19l104 133h22z" glyph-name="lacute" horiz-adv-x="208" unicode="ĺ"/><glyph d="M182 702h20l-84 -682h403l-3 -20h-422zM236 -182l-9 9q30 18 45 50.5t15 75.5l21 -1q0 -26 -6.5 -52t-22 -48t-43.5 -34z" glyph-name="uni013B" horiz-adv-x="561" unicode="Ļ"/><glyph d="M163 752h20l-93 -752h-19zM14 -182l-9 9q30 18 45 50.5t15 75.5l21 -1q0 -26 -6.5 -52t-22 -48t-43.5 -34z" glyph-name="uni013C" horiz-adv-x="208" unicode="ļ"/><glyph d="M182 702h20l-84 -682h403l-3 -20h-422zM512 563l-9 9q30 18 45 50.5t15 75.5l21 -1q0 -26 -6.5 -52t-22 -48t-43.5 -34z" glyph-name="Lcaron" horiz-adv-x="561" unicode="Ľ"/><glyph d="M163 752h20l-93 -752h-19zM254 615l-9 9q30 18 45 50.5t15 75.5l21 -1q0 -26 -6.5 -52t-22 -48t-43.5 -34z" glyph-name="lcaron" horiz-adv-x="208" unicode="ľ"/><glyph d="M182 702h20l-84 -682h403l-3 -20h-422zM508 283q0 10 8 17.5t18 7.5q8 0 14 -6t6 -14q0 -7 -4 -12.5t-9.5 -9t-12.5 -3.5q-8 0 -14 6t-6 14v0z" glyph-name="Ldot" horiz-adv-x="600" unicode="Ŀ"/><glyph d="M163 752h20l-93 -752h-19zM327 278q0 10 8 17.5t18 7.5q8 0 14 -6t6 -14q0 -7 -4 -12.5t-9.5 -9t-12.5 -3.5q-8 0 -14 6t-6 14v0z" glyph-name="ldot" horiz-adv-x="484" unicode="ŀ"/><glyph d="M392 411l-3 -19l-333 -115l3 18zM182 702h20l-84 -682h403l-3 -20h-422z" glyph-name="Lslash" horiz-adv-x="554" unicode="Ł"/><glyph d="M222 352l-3 -19l-164 -56l3 18zM164 752h19l-92 -752h-20z" glyph-name="lslash" horiz-adv-x="180" unicode="ł"/><glyph d="M670 -13h-1l-477 679l6 10l-83 -676h-19l87 713h1l481 -687l-10 2l83 674h19zM619 936l-107 -133h-19l104 133h22z" glyph-name="Nacute" horiz-adv-x="813" unicode="Ń"/><glyph d="M132 378l-7 -104l-5 7q24 46 70 75t104 29q57 0 86.5 -31t22.5 -81l-33 -273h-20l33 272q6 42 -19 68.5t-73 26.5q-43 0 -81 -19.5t-63 -53t-30 -76.5l-27 -218h-19l46 378h15zM388 613l-107 -133h-19l104 133h22z" glyph-name="nacute" horiz-adv-x="460" unicode="ń"/><glyph d="M670 -13h-1l-477 679l6 10l-83 -676h-19l87 713h1l481 -687l-10 2l83 674h19zM317 -182l-9 9q30 18 45 50.5t15 75.5l21 -1q0 -26 -6.5 -52t-22 -48t-43.5 -34z" glyph-name="uni0145" horiz-adv-x="813" unicode="Ņ"/><glyph d="M132 378l-7 -104l-5 7q24 46 70 75t104 29q57 0 86.5 -31t22.5 -81l-33 -273h-20l33 272q6 42 -19 68.5t-73 26.5q-43 0 -81 -19.5t-63 -53t-30 -76.5l-27 -218h-19l46 378h15zM153 -182l-9 9q30 18 45 50.5t15 75.5l21 -1q0 -26 -6.5 -52t-22 -48t-43.5 -34z" glyph-name="uni0146" horiz-adv-x="487" unicode="ņ"/><glyph d="M670 -13h-1l-477 679l6 10l-83 -676h-19l87 713h1l481 -687l-10 2l83 674h19zM403 947l87 -157h-11l128 157h21l-145 -181h-1l-100 181h21z" glyph-name="Ncaron" horiz-adv-x="813" unicode="Ň"/><glyph d="M132 378l-7 -104l-5 7q24 46 70 75t104 29q57 0 86.5 -31t22.5 -81l-33 -273h-20l33 272q6 42 -19 68.5t-73 26.5q-43 0 -81 -19.5t-63 -53t-30 -76.5l-27 -218h-19l46 378h15zM209 661l87 -157h-11l128 157h21l-145 -181h-1l-100 181h21z" glyph-name="ncaron" horiz-adv-x="460" unicode="ň"/><glyph d="M128 699q-8 -63 -17 -124.5t-17 -124.5h-19l30 249h23zM132 378l-7 -104l-5 7q24 46 70 75t104 29q57 0 86.5 -31t22.5 -81l-33 -273h-20l33 272q6 42 -19 68.5t-73 26.5q-43 0 -81 -19.5t-63 -53t-30 -76.5l-27 -218h-19l46 378h15z" glyph-name="napostrophe" horiz-adv-x="600" unicode="ŉ"/><glyph d="M589 -181l-14 12q33 24 52 66t23 93l3 29l7 -20l-469 668l6 9l-82 -676h-20l87 713h1l481 -688l-11 3l83 674h20l-86 -709q-7 -59 -27.5 -104t-53.5 -70z" glyph-name="Eng" horiz-adv-x="811" unicode="Ŋ"/><glyph d="M369 -6q-7 -59 -27 -104.5t-54 -70.5l-14 12q33 24 51 66t24 93l34 282q5 42 -19.5 68.5t-72.5 26.5q-43 0 -81 -19.5t-63 -53t-30 -76.5l-27 -218h-19l46 378h15l-7 -105l-4 8q24 46 69.5 75t103.5 29q57 0 86 -31t23 -81z" glyph-name="eng" horiz-adv-x="487" unicode="ŋ"/><glyph d="M432 -7q-72 0 -133.5 24.5t-107.5 68.5t-71.5 104.5t-25.5 133.5q0 66 25 133.5t73.5 124.5t119.5 92t164 35q71 0 132.5 -24.5t107.5 -69t71.5 -105t25.5 -132.5q0 -66 -25 -133.5t-73.5 -124.5t-119.5 -92t-163 -35zM432 12q85 0 152.5 33t114 87t70.5 118.5t24 126.5 q0 64 -24 120.5t-67 100t-101 68t-126 24.5q-86 0 -153 -33t-113.5 -87.5t-70.5 -118.5t-24 -127t23.5 -119.5t66.5 -100t101 -68t127 -24.5zM397 832h231l-3 -16h-230z" glyph-name="Omacron" unicode="Ō"/><glyph d="M240 -6q-40 0 -73.5 13.5t-58.5 38t-39 58t-14 72.5q0 37 12.5 74t38 67.5t65 49t92.5 18.5q54 0 95.5 -23.5t65.5 -65t24 -93.5q0 -29 -8 -59t-24 -57t-41 -48t-58.5 -33t-76.5 -12zM241 11q64 0 105.5 28.5t61.5 72t20 90.5q0 34 -12 64t-34.5 53t-53 36t-66.5 13 q-64 0 -105.5 -28.5t-61.5 -72t-20 -89.5t21.5 -84t59 -60.5t85.5 -22.5zM165 509h231l-3 -16h-230z" glyph-name="omacron" horiz-adv-x="502" unicode="ō"/><glyph d="M432 -7q-72 0 -133.5 24.5t-107.5 68.5t-71.5 104.5t-25.5 133.5q0 66 25 133.5t73.5 124.5t119.5 92t164 35q71 0 132.5 -24.5t107.5 -69t71.5 -105t25.5 -132.5q0 -66 -25 -133.5t-73.5 -124.5t-119.5 -92t-163 -35zM432 12q85 0 152.5 33t114 87t70.5 118.5t24 126.5 q0 64 -24 120.5t-67 100t-101 68t-126 24.5q-86 0 -153 -33t-113.5 -87.5t-70.5 -118.5t-24 -127t23.5 -119.5t66.5 -100t101 -68t127 -24.5zM516 785q-21 0 -42 8t-39 26.5t-27 48.5t-5 75h17q-4 -51 10 -81.5t38.5 -45t48.5 -14.5q32 0 56 20t39 52t21 69h17 q-6 -44 -24 -80t-46.5 -57t-63.5 -21z" glyph-name="Obreve" unicode="Ŏ"/><glyph d="M240 -6q-40 0 -73.5 13.5t-58.5 38t-39 58t-14 72.5q0 37 12.5 74t38 67.5t65 49t92.5 18.5q54 0 95.5 -23.5t65.5 -65t24 -93.5q0 -29 -8 -59t-24 -57t-41 -48t-58.5 -33t-76.5 -12zM241 11q64 0 105.5 28.5t61.5 72t20 90.5q0 34 -12 64t-34.5 53t-53 36t-66.5 13 q-64 0 -105.5 -28.5t-61.5 -72t-20 -89.5t21.5 -84t59 -60.5t85.5 -22.5zM284 462q-21 0 -42 8t-39 26.5t-27 48.5t-5 75h17q-4 -51 10 -81.5t38.5 -45t48.5 -14.5q32 0 56 20t39 52t21 69h17q-6 -44 -24 -80t-46.5 -57t-63.5 -21z" glyph-name="obreve" horiz-adv-x="502" unicode="ŏ"/><glyph d="M432 -7q-72 0 -133.5 24.5t-107.5 68.5t-71.5 104.5t-25.5 133.5q0 66 25 133.5t73.5 124.5t119.5 92t164 35q71 0 132.5 -24.5t107.5 -69t71.5 -105t25.5 -132.5q0 -66 -25 -133.5t-73.5 -124.5t-119.5 -92t-163 -35zM432 12q85 0 152.5 33t114 87t70.5 118.5t24 126.5 q0 64 -24 120.5t-67 100t-101 68t-126 24.5q-86 0 -153 -33t-113.5 -87.5t-70.5 -118.5t-24 -127t23.5 -119.5t66.5 -100t101 -68t127 -24.5zM564 937q-27 -33 -54 -66.5t-54 -66.5h-19q26 33 53 66.5t53 66.5h21zM677 937q-27 -33 -54 -66.5t-54 -66.5h-19q26 33 53 66.5 t53 66.5h21z" glyph-name="Ohungarumlaut" unicode="Ő"/><glyph d="M240 -6q-40 0 -73.5 13.5t-58.5 38t-39 58t-14 72.5q0 37 12.5 74t38 67.5t65 49t92.5 18.5q54 0 95.5 -23.5t65.5 -65t24 -93.5q0 -29 -8 -59t-24 -57t-41 -48t-58.5 -33t-76.5 -12zM241 11q64 0 105.5 28.5t61.5 72t20 90.5q0 34 -12 64t-34.5 53t-53 36t-66.5 13 q-64 0 -105.5 -28.5t-61.5 -72t-20 -89.5t21.5 -84t59 -60.5t85.5 -22.5zM332 614q-27 -33 -54 -66.5t-54 -66.5h-19q26 33 53 66.5t53 66.5h21zM445 614q-27 -33 -54 -66.5t-54 -66.5h-19q26 33 53 66.5t53 66.5h21z" glyph-name="ohungarumlaut" horiz-adv-x="502" unicode="ő"/><glyph d="M585 682q-17 4 -35.5 6t-37.5 2q-75 0 -143.5 -30t-122.5 -82t-85 -120t-31 -144q0 -63 22 -118t62 -96.5t94 -64.5t118 -23q20 0 39 2t38 7l14 -18q-22 -5 -44.5 -8t-46.5 -3q-68 0 -126 25t-100.5 69t-66 102t-23.5 126q0 80 33 152t89.5 126.5t129.5 86t153 31.5 q24 0 46 -3t43 -9zM581 702h389l-2 -20h-369l-39 -319h329l-2 -19h-330l-39 -324h383l-3 -20h-403z" glyph-name="OE" horiz-adv-x="990" unicode="Œ"/><glyph d="M241 -7q-39 0 -73 13.5t-59.5 38.5t-39.5 58.5t-14 72.5q0 42 16.5 79.5t45 66t66 45t79.5 16.5q36 0 66.5 -10.5t54.5 -28.5l-17 -13q-21 16 -47 25.5t-56 9.5q-50 0 -93 -25.5t-69 -68.5t-26 -96q0 -45 21.5 -83t59.5 -60.5t87 -22.5q29 0 55 8.5t49 23.5l11 -14 q-26 -17 -55.5 -26t-61.5 -9zM468 11q32 0 62 11t54 30l11 -15q-27 -20 -60 -31.5t-68 -11.5q-55 0 -97 24.5t-65.5 66t-23.5 92.5q0 43 16.5 80.5t45 66.5t66 45t79.5 16q35 0 62.5 -10t49 -28.5t36 -43.5t22.5 -56l-358 -117l-4 18l348 112l-8 -9q-15 48 -52.5 82 t-94.5 34q-51 0 -94 -25t-68.5 -68t-25.5 -95q0 -43 20 -81.5t57.5 -62.5t89.5 -24z" glyph-name="oe" horiz-adv-x="696" unicode="œ"/><glyph d="M326 702q30 0 64 -10t62.5 -32t44 -57.5t9.5 -87.5q-5 -38 -20.5 -73.5t-44.5 -63.5t-72.5 -44.5t-102.5 -16.5h-112l-39 -317h-19l86 702h144zM265 336q79 0 125.5 27.5t68.5 68.5t27 82q5 37 -5.5 68.5t-33 54t-54 34.5t-69.5 12h-125l-42 -347h108zM356 335l160 -335 h-22l-161 335h23zM491 937l-107 -133h-19l104 133h22z" glyph-name="Racute" horiz-adv-x="617" unicode="Ŕ"/><glyph d="M132 378l-12 -107q16 36 44 61t63.5 38.5t72.5 14.5l-2 -18q-44 -1 -83.5 -20.5t-66 -52.5t-31.5 -76l-27 -218h-19l46 378h15zM332 616l-107 -133h-19l104 133h22z" glyph-name="racute" horiz-adv-x="321" unicode="ŕ"/><glyph d="M326 702q30 0 64 -10t62.5 -32t44 -57.5t9.5 -87.5q-5 -38 -20.5 -73.5t-44.5 -63.5t-72.5 -44.5t-102.5 -16.5h-112l-39 -317h-19l86 702h144zM265 336q79 0 125.5 27.5t68.5 68.5t27 82q5 37 -5.5 68.5t-33 54t-54 34.5t-69.5 12h-125l-42 -347h108zM356 335l160 -335 h-22l-161 335h23zM219 -182l-9 9q30 18 45 50.5t15 75.5l21 -1q0 -26 -6.5 -52t-22 -48t-43.5 -34z" glyph-name="uni0156" horiz-adv-x="617" unicode="Ŗ"/><glyph d="M132 378l-12 -107q16 36 44 61t63.5 38.5t72.5 14.5l-2 -18q-44 -1 -83.5 -20.5t-66 -52.5t-31.5 -76l-27 -218h-19l46 378h15zM14 -182l-9 9q30 18 45 50.5t15 75.5l21 -1q0 -26 -6.5 -52t-22 -48t-43.5 -34z" glyph-name="uni0157" horiz-adv-x="321" unicode="ŗ"/><glyph d="M326 702q30 0 64 -10t62.5 -32t44 -57.5t9.5 -87.5q-5 -38 -20.5 -73.5t-44.5 -63.5t-72.5 -44.5t-102.5 -16.5h-112l-39 -317h-19l86 702h144zM265 336q79 0 125.5 27.5t68.5 68.5t27 82q5 37 -5.5 68.5t-33 54t-54 34.5t-69.5 12h-125l-42 -347h108zM356 335l160 -335 h-22l-161 335h23zM275 948l87 -157h-11l128 157h21l-145 -181h-1l-100 181h21z" glyph-name="Rcaron" horiz-adv-x="617" unicode="Ř"/><glyph d="M132 378l-12 -107q16 36 44 61t63.5 38.5t72.5 14.5l-2 -18q-44 -1 -83.5 -20.5t-66 -52.5t-31.5 -76l-27 -218h-19l46 378h15zM116 627l87 -157h-11l128 157h21l-145 -181h-1l-100 181h21z" glyph-name="rcaron" horiz-adv-x="321" unicode="ř"/><glyph d="M500 639q-28 14 -76 30t-98 17q-53 0 -86.5 -16t-52.5 -39.5t-26.5 -47t-7.5 -38.5q0 -39 22.5 -65.5t59 -47t77.5 -40.5q43 -19 83.5 -42.5t66.5 -58.5t26 -89q0 -31 -11.5 -67t-37.5 -68.5t-68.5 -53t-104.5 -20.5q-55 0 -98.5 13.5t-74.5 33.5t-49 38l12 16 q19 -20 51.5 -39t74 -31.5t86.5 -12.5q69 0 113 29.5t65.5 73.5t21.5 86q0 49 -24.5 81.5t-63.5 55t-82 41.5q-31 13 -60.5 28.5t-53.5 34.5t-38 43.5t-13 57.5q0 49 26.5 85.5t70.5 56t97 19.5q29 0 62 -6.5t64.5 -17.5t57.5 -25zM485 936l-107 -133h-19l104 133h22z" glyph-name="Sacute" horiz-adv-x="546" unicode="Ś"/><glyph d="M150 -7q-19 1 -40 6.5t-40.5 17t-32.5 30.5l13 12q9 -14 24.5 -24.5t35.5 -17t43 -7.5q36 -2 68.5 16.5t38.5 65.5q2 30 -11.5 48t-37 29t-47.5 22q-35 14 -61 35t-22 64q3 23 13 40.5t26 29t35.5 17.5t39.5 5q14 -1 31.5 -6t35.5 -15.5t32 -28.5l-13 -13q-15 22 -41 33 t-46 12q-19 1 -39.5 -6.5t-35.5 -23.5t-17 -42q-3 -24 7 -39.5t28 -26t39 -19.5q26 -12 51.5 -24.5t40.5 -32.5t11 -54q-2 -23 -11.5 -42.5t-25.5 -33.5t-39 -21.5t-53 -5.5zM347 616l-107 -133h-19l104 133h22z" glyph-name="sacute" horiz-adv-x="346" unicode="ś"/><glyph d="M500 639q-28 14 -76 30t-98 17q-53 0 -86.5 -16t-52.5 -39.5t-26.5 -47t-7.5 -38.5q0 -39 22.5 -65.5t59 -47t77.5 -40.5q43 -19 83.5 -42.5t66.5 -58.5t26 -89q0 -31 -11.5 -67t-37.5 -68.5t-68.5 -53t-104.5 -20.5q-55 0 -98.5 13.5t-74.5 33.5t-49 38l12 16 q19 -20 51.5 -39t74 -31.5t86.5 -12.5q69 0 113 29.5t65.5 73.5t21.5 86q0 49 -24.5 81.5t-63.5 55t-82 41.5q-31 13 -60.5 28.5t-53.5 34.5t-38 43.5t-13 57.5q0 49 26.5 85.5t70.5 56t97 19.5q29 0 62 -6.5t64.5 -17.5t57.5 -25zM439 802l-87 156h9l-126 -156h-21l145 181 v0l101 -181h-21z" glyph-name="Scircumflex" horiz-adv-x="546" unicode="Ŝ"/><glyph d="M150 -7q-19 1 -40 6.5t-40.5 17t-32.5 30.5l13 12q9 -14 24.5 -24.5t35.5 -17t43 -7.5q36 -2 68.5 16.5t38.5 65.5q2 30 -11.5 48t-37 29t-47.5 22q-35 14 -61 35t-22 64q3 23 13 40.5t26 29t35.5 17.5t39.5 5q14 -1 31.5 -6t35.5 -15.5t32 -28.5l-13 -13q-15 22 -41 33 t-46 12q-19 1 -39.5 -6.5t-35.5 -23.5t-17 -42q-3 -24 7 -39.5t28 -26t39 -19.5q26 -12 51.5 -24.5t40.5 -32.5t11 -54q-2 -23 -11.5 -42.5t-25.5 -33.5t-39 -21.5t-53 -5.5zM301 483l-87 156h9l-126 -156h-21l145 181v0l101 -181h-21z" glyph-name="scircumflex" horiz-adv-x="346" unicode="ŝ"/><glyph d="M500 639q-28 14 -76 30t-98 17q-53 0 -86.5 -16t-52.5 -39.5t-26.5 -47t-7.5 -38.5q0 -39 22.5 -65.5t59 -47t77.5 -40.5q43 -19 83.5 -42.5t66.5 -58.5t26 -89q0 -31 -11.5 -67t-37.5 -68.5t-68.5 -53t-104.5 -20.5q-55 0 -98.5 13.5t-74.5 33.5t-49 38l12 16 q19 -20 51.5 -39t74 -31.5t86.5 -12.5q69 0 113 29.5t65.5 73.5t21.5 86q0 49 -24.5 81.5t-63.5 55t-82 41.5q-31 13 -60.5 28.5t-53.5 34.5t-38 43.5t-13 57.5q0 49 26.5 85.5t70.5 56t97 19.5q29 0 62 -6.5t64.5 -17.5t57.5 -25zM148 -175q10 -12 29 -20.5t45 -10.5 q41 -2 67 12t30 43q3 27 -15 46.5t-60 22.5q-17 0 -39.5 -3t-34.5 -8l-13 14l84 84l15 -9l-78 -80l-15 5q12 7 37 11.5t48 2.5q48 -3 71.5 -26t19.5 -61q-3 -26 -19.5 -42.5t-42 -23t-55.5 -4.5q-28 1 -50 10t-35 22z" glyph-name="Scedilla" horiz-adv-x="546" unicode="Ş"/><glyph d="M150 -7q-19 1 -40 6.5t-40.5 17t-32.5 30.5l13 12q9 -14 24.5 -24.5t35.5 -17t43 -7.5q36 -2 68.5 16.5t38.5 65.5q2 30 -11.5 48t-37 29t-47.5 22q-35 14 -61 35t-22 64q3 23 13 40.5t26 29t35.5 17.5t39.5 5q14 -1 31.5 -6t35.5 -15.5t32 -28.5l-13 -13q-15 22 -41 33 t-46 12q-19 1 -39.5 -6.5t-35.5 -23.5t-17 -42q-3 -24 7 -39.5t28 -26t39 -19.5q26 -12 51.5 -24.5t40.5 -32.5t11 -54q-2 -23 -11.5 -42.5t-25.5 -33.5t-39 -21.5t-53 -5.5zM45 -175q10 -12 29 -20.5t45 -10.5q41 -2 67 12t30 43q3 27 -15 46.5t-60 22.5q-17 0 -39.5 -3 t-34.5 -8l-13 14l84 84l15 -9l-78 -80l-15 5q12 7 37 11.5t48 2.5q48 -3 71.5 -26t19.5 -61q-3 -26 -19.5 -42.5t-42 -23t-55.5 -4.5q-28 1 -50 10t-35 22z" glyph-name="scedilla" horiz-adv-x="346" unicode="ş"/><glyph d="M500 639q-28 14 -76 30t-98 17q-53 0 -86.5 -16t-52.5 -39.5t-26.5 -47t-7.5 -38.5q0 -39 22.5 -65.5t59 -47t77.5 -40.5q43 -19 83.5 -42.5t66.5 -58.5t26 -89q0 -31 -11.5 -67t-37.5 -68.5t-68.5 -53t-104.5 -20.5q-55 0 -98.5 13.5t-74.5 33.5t-49 38l12 16 q19 -20 51.5 -39t74 -31.5t86.5 -12.5q69 0 113 29.5t65.5 73.5t21.5 86q0 49 -24.5 81.5t-63.5 55t-82 41.5q-31 13 -60.5 28.5t-53.5 34.5t-38 43.5t-13 57.5q0 49 26.5 85.5t70.5 56t97 19.5q29 0 62 -6.5t64.5 -17.5t57.5 -25zM269 947l87 -157h-11l128 157h21 l-145 -181h-1l-100 181h21z" glyph-name="Scaron" horiz-adv-x="546" unicode="Š"/><glyph d="M150 -7q-19 1 -40 6.5t-40.5 17t-32.5 30.5l13 12q9 -14 24.5 -24.5t35.5 -17t43 -7.5q36 -2 68.5 16.5t38.5 65.5q2 30 -11.5 48t-37 29t-47.5 22q-35 14 -61 35t-22 64q3 23 13 40.5t26 29t35.5 17.5t39.5 5q14 -1 31.5 -6t35.5 -15.5t32 -28.5l-13 -13q-15 22 -41 33 t-46 12q-19 1 -39.5 -6.5t-35.5 -23.5t-17 -42q-3 -24 7 -39.5t28 -26t39 -19.5q26 -12 51.5 -24.5t40.5 -32.5t11 -54q-2 -23 -11.5 -42.5t-25.5 -33.5t-39 -21.5t-53 -5.5zM131 627l87 -157h-11l128 157h21l-145 -181h-1l-100 181h21z" glyph-name="scaron" horiz-adv-x="346" unicode="š"/><glyph d="M122 702h456l-3 -19h-218l-83 -683h-20l83 683h-217zM160 -175q10 -12 29 -20.5t45 -10.5q41 -2 67 12t30 43q3 27 -15 46.5t-60 22.5q-17 0 -39.5 -3t-34.5 -8l-13 14l84 84l15 -9l-78 -80l-15 5q12 7 37 11.5t48 2.5q48 -3 71.5 -26t19.5 -61q-3 -26 -19.5 -42.5 t-42 -23t-55.5 -4.5q-28 1 -50 10t-35 22z" glyph-name="uni0162" horiz-adv-x="575" unicode="Ţ"/><glyph d="M176 543h20l-21 -173h126l-3 -18h-126l-43 -352h-19l43 352h-88l2 18h88zM18 -175q10 -12 29 -20.5t45 -10.5q41 -2 67 12t30 43q3 27 -15 46.5t-60 22.5q-17 0 -39.5 -3t-34.5 -8l-13 14l84 84l15 -9l-78 -80l-15 5q12 7 37 11.5t48 2.5q48 -3 71.5 -26t19.5 -61 q-3 -26 -19.5 -42.5t-42 -23t-55.5 -4.5q-28 1 -50 10t-35 22z" glyph-name="uni0163" horiz-adv-x="304" unicode="ţ"/><glyph d="M122 702h456l-3 -19h-218l-83 -683h-20l83 683h-217zM283 947l87 -157h-11l128 157h21l-145 -181h-1l-100 181h21z" glyph-name="Tcaron" horiz-adv-x="575" unicode="Ť"/><glyph d="M176 543h20l-21 -173h126l-3 -18h-126l-43 -352h-19l43 352h-88l2 18h88zM114 789l87 -157h-11l128 157h21l-145 -181h-1l-100 181h21z" glyph-name="tcaron" horiz-adv-x="304" unicode="ť"/><glyph d="M122 702h456l-3 -19h-218l-83 -683h-20l83 683h-217zM192 360h232l-3 -20h-232z" glyph-name="Tbar" horiz-adv-x="575" unicode="Ŧ"/><glyph d="M176 543h20l-21 -173h126l-3 -18h-126l-43 -352h-19l43 352h-88l2 18h88zM31 199h232l-3 -20h-232z" glyph-name="tbar" horiz-adv-x="304" unicode="ŧ"/><glyph d="M145 230q-9 -70 11.5 -119t64.5 -74.5t105 -25.5q66 0 115.5 25.5t80 74.5t39.5 119l57 472h20l-58 -474q-9 -77 -41.5 -129.5t-86.5 -79.5t-128 -27v0q-66 0 -114.5 27t-72 79.5t-13.5 129.5l58 474h20zM497 768q-27 1 -42.5 16.5t-29.5 33.5q-11 16 -23 30t-33 15 q-11 1 -25.5 -6t-27 -26.5t-19.5 -57.5l-16 3q6 38 20.5 62t32.5 34t36 9q28 -1 43.5 -17t27.5 -34q11 -16 24 -29.5t35 -15.5q13 -1 26.5 6t24.5 27t17 58l16 -3q-6 -39 -19 -62.5t-30.5 -34t-37.5 -8.5z" glyph-name="Utilde" horiz-adv-x="695" unicode="Ũ"/><glyph d="M188 -8q-53 0 -81.5 29.5t-22.5 79.5l33 277h20l-34 -277q-5 -37 18.5 -63t71.5 -28q40 0 79 19.5t65.5 53.5t31.5 77l27 218h20l-47 -378h-16l13 115l1 -7q-12 -31 -40.5 -57.5t-65 -42.5t-73.5 -16zM353 447q-27 1 -42.5 16.5t-29.5 33.5q-11 16 -23 30t-33 15 q-11 1 -25.5 -6t-27 -26.5t-19.5 -57.5l-16 3q6 38 20.5 62t32.5 34t36 9q28 -1 43.5 -17t27.5 -34q11 -16 24 -29.5t35 -15.5q13 -1 26.5 6t24.5 27t17 58l16 -3q-6 -39 -19 -62.5t-30.5 -34t-37.5 -8.5z" glyph-name="utilde" horiz-adv-x="487" unicode="ũ"/><glyph d="M145 230q-9 -70 11.5 -119t64.5 -74.5t105 -25.5q66 0 115.5 25.5t80 74.5t39.5 119l57 472h20l-58 -474q-9 -77 -41.5 -129.5t-86.5 -79.5t-128 -27v0q-66 0 -114.5 27t-72 79.5t-13.5 129.5l58 474h20zM311 832h231l-3 -16h-230z" glyph-name="Umacron" horiz-adv-x="695" unicode="Ū"/><glyph d="M188 -8q-53 0 -81.5 29.5t-22.5 79.5l33 277h20l-34 -277q-5 -37 18.5 -63t71.5 -28q40 0 79 19.5t65.5 53.5t31.5 77l27 218h20l-47 -378h-16l13 115l1 -7q-12 -31 -40.5 -57.5t-65 -42.5t-73.5 -16zM167 511h231l-3 -16h-230z" glyph-name="umacron" horiz-adv-x="487" unicode="ū"/><glyph d="M145 230q-9 -70 11.5 -119t64.5 -74.5t105 -25.5q66 0 115.5 25.5t80 74.5t39.5 119l57 472h20l-58 -474q-9 -77 -41.5 -129.5t-86.5 -79.5t-128 -27v0q-66 0 -114.5 27t-72 79.5t-13.5 129.5l58 474h20zM430 785q-21 0 -42 8t-39 26.5t-27 48.5t-5 75h17 q-4 -51 10 -81.5t38.5 -45t48.5 -14.5q32 0 56 20t39 52t21 69h17q-6 -44 -24 -80t-46.5 -57t-63.5 -21z" glyph-name="Ubreve" horiz-adv-x="695" unicode="Ŭ"/><glyph d="M188 -8q-53 0 -81.5 29.5t-22.5 79.5l33 277h20l-34 -277q-5 -37 18.5 -63t71.5 -28q40 0 79 19.5t65.5 53.5t31.5 77l27 218h20l-47 -378h-16l13 115l1 -7q-12 -31 -40.5 -57.5t-65 -42.5t-73.5 -16zM286 464q-21 0 -42 8t-39 26.5t-27 48.5t-5 75h17q-4 -51 10 -81.5 t38.5 -45t48.5 -14.5q32 0 56 20t39 52t21 69h17q-6 -44 -24 -80t-46.5 -57t-63.5 -21z" glyph-name="ubreve" horiz-adv-x="487" unicode="ŭ"/><glyph d="M145 230q-9 -70 11.5 -119t64.5 -74.5t105 -25.5q66 0 115.5 25.5t80 74.5t39.5 119l57 472h20l-58 -474q-9 -77 -41.5 -129.5t-86.5 -79.5t-128 -27v0q-66 0 -114.5 27t-72 79.5t-13.5 129.5l58 474h20zM356 793q0 32 20.5 50.5t48.5 18.5t46 -17t17 -43 q0 -32 -20.5 -51t-48.5 -18q-28 0 -45.5 16.5t-17.5 43.5zM374 795q0 -20 13 -33t31 -13q20 0 36.5 13.5t16.5 36.5q0 20 -13 33.5t-32 13.5q-20 0 -36 -13.5t-16 -37.5z" glyph-name="Uring" horiz-adv-x="695" unicode="Ů"/><glyph d="M227 467q0 19 10 35.5t26.5 26t36.5 9.5q25 0 41 -16.5t16 -40.5q0 -20 -10 -36t-26.5 -26t-36.5 -10q-25 0 -41 16.5t-16 41.5v0zM244 470q0 -18 12.5 -31t30.5 -13q20 0 37 15.5t17 36.5q0 17 -12.5 30.5t-29.5 13.5q-21 0 -38 -16t-17 -36v0zM188 -8q-53 0 -81.5 29.5 t-22.5 79.5l33 277h20l-34 -277q-5 -37 18.5 -63t71.5 -28q40 0 79 19.5t65.5 53.5t31.5 77l27 218h20l-47 -378h-16l13 115l1 -7q-12 -31 -40.5 -57.5t-65 -42.5t-73.5 -16z" glyph-name="uring" horiz-adv-x="458" unicode="ů"/><glyph d="M145 230q-9 -70 11.5 -119t64.5 -74.5t105 -25.5q66 0 115.5 25.5t80 74.5t39.5 119l57 472h20l-58 -474q-9 -77 -41.5 -129.5t-86.5 -79.5t-128 -27v0q-66 0 -114.5 27t-72 79.5t-13.5 129.5l58 474h20zM478 937q-27 -33 -54 -66.5t-54 -66.5h-19q26 33 53 66.5t53 66.5 h21zM591 937q-27 -33 -54 -66.5t-54 -66.5h-19q26 33 53 66.5t53 66.5h21z" glyph-name="Uhungarumlaut" horiz-adv-x="695" unicode="Ű"/><glyph d="M188 -8q-53 0 -81.5 29.5t-22.5 79.5l33 277h20l-34 -277q-5 -37 18.5 -63t71.5 -28q40 0 79 19.5t65.5 53.5t31.5 77l27 218h20l-47 -378h-16l13 115l1 -7q-12 -31 -40.5 -57.5t-65 -42.5t-73.5 -16zM334 616q-27 -33 -54 -66.5t-54 -66.5h-19q26 33 53 66.5t53 66.5h21 zM447 616q-27 -33 -54 -66.5t-54 -66.5h-19q26 33 53 66.5t53 66.5h21z" glyph-name="uhungarumlaut" horiz-adv-x="487" unicode="ű"/><glyph d="M324 -8q-66 0 -114.5 27t-72 79.5t-13.5 129.5l58 474h20l-57 -472q-9 -70 11.5 -119t64.5 -74.5t105 -25.5q66 0 115.5 25.5t80 74.5t39.5 119l57 472h20l-58 -474q-7 -58 -27.5 -101.5t-52 -73t-71.5 -44.5q-44 -16 -70 -51t-26 -66q0 -27 16.5 -43.5t37.5 -16.5 q20 0 35.5 13t26.5 32l12 -9q-10 -22 -30.5 -38t-45.5 -16q-19 0 -35.5 10t-26.5 27.5t-10 40.5q0 39 30 73t70 55l10 -12q-23 -8 -43 -12t-56 -4z" glyph-name="Uogonek" horiz-adv-x="694" unicode="Ų"/><glyph d="M332 -195q-29 0 -50.5 21t-21.5 56q0 41 29.5 75.5t69.5 55.5l10 -10l-16 -3l12 107q-13 -31 -41 -57t-63.5 -42t-72.5 -16q-53 0 -81.5 29.5t-22.5 79.5l33 277h20l-34 -277q-5 -37 18.5 -63t71.5 -28q40 0 79 19.5t65.5 53.5t31.5 77l27 218h20l-47 -378 q-44 -27 -67 -56.5t-23 -60.5q0 -28 17 -44.5t38 -16.5q19 0 34.5 13t26.5 32l13 -9q-11 -21 -31 -37t-45 -16z" glyph-name="uogonek" horiz-adv-x="487" unicode="ų"/><glyph d="M116 701h22l173 -692l-7 1l202 414l8 -23l-212 -433zM431 701h21l176 -697l-10 4l353 693h21l-375 -733zM681 804l-87 156h9l-126 -156h-21l145 181v0l101 -181h-21z" glyph-name="Wcircumflex" horiz-adv-x="983" unicode="Ŵ"/><glyph d="M420 -22l-88 274l-143 -274h-3l-129 400h20l119 -370l-7 4l136 260l-35 106h20l119 -368h-7l206 368h20l-225 -400h-3zM450 480l-87 156h9l-126 -156h-21l145 181v0l101 -181h-21z" glyph-name="wcircumflex" horiz-adv-x="659" unicode="ŵ"/><glyph d="M319 261l-207 441h22l202 -425l-9 -1l305 426h25l-317 -441l-31 -261h-22zM497 804l-87 156h9l-126 -156h-21l145 181v0l101 -181h-21z" glyph-name="Ycircumflex" horiz-adv-x="643" unicode="Ŷ"/><glyph d="M97 -181l312 559h22l-311 -559h-23zM197 -5l-129 383h22l124 -371zM392 480l-87 156h9l-126 -156h-21l145 181v0l101 -181h-21z" glyph-name="ycircumflex" horiz-adv-x="600" unicode="ŷ"/><glyph d="M319 261l-207 441h22l202 -425l-9 -1l305 426h25l-317 -441l-31 -261h-22zM304 826q0 10 7 16.5t16 6.5q9 -1 15.5 -7.5t6.5 -15.5q-1 -9 -7.5 -15.5t-15.5 -6.5t-15.5 6.5t-6.5 15.5v0zM471 826q0 10 6.5 16.5t15.5 6.5q9 -1 15.5 -7.5t6.5 -15.5t-7 -15.5t-16 -6.5 t-15.5 6.5t-5.5 15.5v0z" glyph-name="Ydieresis" horiz-adv-x="643" unicode="Ÿ"/><glyph d="M14 0l598 689l7 -6h-441q-18 0 -30.5 3.5t-18 13t-3.5 28.5l2 9h21l-2 -12q-1 -10 5.5 -16.5t22.5 -6.5h472l-599 -688l-3 5h550l-2 -19h-579zM531 937l-107 -133h-19l104 133h22z" glyph-name="Zacute" horiz-adv-x="631" unicode="Ź"/><glyph d="M118 359q-31 0 -44 9t-11 39v6h17v-12q0 -10 6 -16.5t23 -6.5h246l-303 -365l-8 5h263l-3 -18h-286l304 367l5 -8h-209zM378 613l-107 -133h-19l104 133h22z" glyph-name="zacute" horiz-adv-x="419" unicode="ź"/><glyph d="M14 0l598 689l7 -6h-441q-18 0 -30.5 3.5t-18 13t-3.5 28.5l2 9h21l-2 -12q-1 -10 5.5 -16.5t22.5 -6.5h472l-599 -688l-3 5h550l-2 -19h-579zM374 824q0 10 8 17t18 7q9 0 14.5 -6t5.5 -14q0 -10 -8 -17t-17 -7q-10 0 -15.5 6.5t-5.5 13.5z" glyph-name="Zdotaccent" horiz-adv-x="631" unicode="Ż"/><glyph d="M118 359q-31 0 -44 9t-11 39v6h17v-12q0 -10 6 -16.5t23 -6.5h246l-303 -365l-8 5h263l-3 -18h-286l304 367l5 -8h-209zM247 503q0 10 8 17t18 7q9 0 14.5 -6t5.5 -14q0 -10 -8 -17t-17 -7q-10 0 -15.5 6.5t-5.5 13.5z" glyph-name="zdotaccent" horiz-adv-x="419" unicode="ż"/><glyph d="M14 0l598 689l7 -6h-441q-18 0 -30.5 3.5t-18 13t-3.5 28.5l2 9h21l-2 -12q-1 -10 5.5 -16.5t22.5 -6.5h472l-599 -688l-3 5h550l-2 -19h-579zM315 949l87 -157h-11l128 157h21l-145 -181h-1l-100 181h21z" glyph-name="Zcaron" horiz-adv-x="631" unicode="Ž"/><glyph d="M118 359q-31 0 -44 9t-11 39v6h17v-12q0 -10 6 -16.5t23 -6.5h246l-303 -365l-8 5h263l-3 -18h-286l304 367l5 -8h-209zM207 661l87 -157h-11l128 157h21l-145 -181h-1l-100 181h21z" glyph-name="zcaron" horiz-adv-x="419" unicode="ž"/><glyph d="M420 711q34 -1 78.5 -11t90.5 -33t85 -62t63.5 -96.5t24.5 -136.5q0 -38 -13 -87.5t-41.5 -100t-74 -94t-109.5 -70t-149 -26.5q-26 0 -59.5 6t-70 21t-71.5 42t-63.5 70.5t-44.5 105.5l670 219l4 -18l-659 -215l9 10q21 -72 58.5 -116.5t80.5 -67.5t82.5 -30.5 t64.5 -7.5q78 -1 138.5 25t103.5 67t70.5 89.5t40.5 95t13 80.5q0 75 -23.5 129t-60.5 91t-80.5 59t-85.5 32t-73 10q-61 0 -122 -23.5t-106 -59.5l-11 16q33 27 72 46.5t82 30t86 10.5z" glyph-name="uni018F" horiz-adv-x="818" unicode="Ə"/><glyph d="M157 518q10 75 41.5 126t78 78t98.5 29l-2 -19q-46 0 -87.5 -26t-71 -73t-37.5 -112l-17 -146l130 -1l-3 -19l-130 1l-36 -295q-10 -75 -41.5 -126t-77.5 -78t-99 -29l3 20q45 0 87 25.5t71 72.5t37 112l36 298h-65l2 19h66z" glyph-name="florin" horiz-adv-x="284" unicode="ƒ"/><glyph d="M605 -13l-477 679l7 10l-83 -676h-20l89 713h1l480 -686l-11 1l83 674h20l-88 -713zM60 61l-8 -68q-8 -57 -29 -101t-53 -73l-14 12q29 28 49 68t26 91l10 77z" glyph-name="uni019D" horiz-adv-x="750" unicode="Ɲ"/><glyph d="M432 -7q-72 0 -133.5 24.5t-107.5 68.5t-71.5 104.5t-25.5 133.5q0 66 25 133.5t73.5 124.5t119.5 92t164 35q71 0 132.5 -24.5t107.5 -69t71.5 -105t25.5 -132.5q0 -66 -25 -133.5t-73.5 -124.5t-119.5 -92t-163 -35zM432 12q85 0 152.5 33t114 87t70.5 118.5t24 126.5 q0 64 -24 120.5t-67 100t-101 68t-126 24.5q-86 0 -153 -33t-113.5 -87.5t-70.5 -118.5t-24 -127t23.5 -119.5t66.5 -100t101 -68t127 -24.5zM721 603q51 -4 78.5 15.5t35.5 81.5h18q-7 -53 -25 -78t-46 -31.5t-63 -3.5z" glyph-name="Ohorn" unicode="Ơ"/><glyph d="M240 -6q-40 0 -73.5 13.5t-58.5 38t-39 58t-14 72.5q0 37 12.5 74t38 67.5t65 49t92.5 18.5q54 0 95.5 -23.5t65.5 -65t24 -93.5q0 -29 -8 -59t-24 -57t-41 -48t-58.5 -33t-76.5 -12zM241 11q64 0 105.5 28.5t61.5 72t20 90.5q0 34 -12 64t-34.5 53t-53 36t-66.5 13 q-64 0 -105.5 -28.5t-61.5 -72t-20 -89.5t21.5 -84t59 -60.5t85.5 -22.5zM410 310q25 -3 40.5 13.5t19.5 65.5l18 -1q-4 -44 -15.5 -64.5t-28.5 -26t-37 -3.5z" glyph-name="ohorn" horiz-adv-x="504" unicode="ơ"/><glyph d="M145 230q-9 -70 11.5 -119t64.5 -74.5t105 -25.5q66 0 115.5 25.5t80 74.5t39.5 119l57 472h20l-58 -474q-9 -77 -41.5 -129.5t-86.5 -79.5t-128 -27v0q-66 0 -114.5 27t-72 79.5t-13.5 129.5l58 474h20zM623 602q51 -4 78.5 15.5t35.5 81.5h18q-7 -53 -25 -78t-46 -31.5 t-63 -3.5z" glyph-name="Uhorn" horiz-adv-x="713" unicode="Ư"/><glyph d="M188 -8q-53 0 -81.5 29.5t-22.5 79.5l33 277h20l-34 -277q-5 -37 18.5 -63t71.5 -28q40 0 79 19.5t65.5 53.5t31.5 77l27 218h20l-47 -378h-16l13 115l1 -7q-12 -31 -40.5 -57.5t-65 -42.5t-73.5 -16zM395 276q51 -4 78.5 15.5t35.5 81.5h18q-7 -53 -25 -78t-46 -31.5 t-63 -3.5z" glyph-name="uhorn" horiz-adv-x="534" unicode="ư"/><glyph d="M96 0l86 702h146q100 0 167.5 -25.5t107 -70t56 -101t16.5 -119.5q-1 -95 -31 -167t-84 -120.5t-126.5 -73.5t-157.5 -25h-180zM118 20h165q76 0 143 23t118.5 69t81 114t29.5 158q0 60 -16 113.5t-52.5 95t-98 65t-152.5 23.5h-137zM745 0l598 689l7 -6h-441 q-18 0 -30.5 3.5t-18 13t-3.5 28.5l2 9h21l-2 -12q-1 -10 5.5 -16.5t22.5 -6.5h472l-599 -688l-3 5h550l-2 -19h-579zM1046 949l87 -157h-11l128 157h21l-145 -181h-1l-100 181h21z" glyph-name="uni01C4" horiz-adv-x="1362" unicode="Ǆ"/><glyph d="M96 0l86 702h146q100 0 167.5 -25.5t107 -70t56 -101t16.5 -119.5q-1 -95 -31 -167t-84 -120.5t-126.5 -73.5t-157.5 -25h-180zM118 20h165q76 0 143 23t118.5 69t81 114t29.5 158q0 60 -16 113.5t-52.5 95t-98 65t-152.5 23.5h-137zM849 359q-31 0 -44 9t-11 39v6h17 v-12q0 -10 6 -16.5t23 -6.5h246l-303 -365l-8 5h263l-3 -18h-286l304 367l5 -8h-209zM938 661l87 -157h-11l128 157h21l-145 -181h-1l-100 181h21z" glyph-name="uni01C5" horiz-adv-x="1149" unicode="ǅ"/><glyph d="M229 -3q-55 3 -96 31t-61.5 73.5t-14.5 99.5q5 44 24.5 79.5t49.5 60t67 36.5t78 9q61 -3 107 -42t61 -92l-5 -11l63 511h20l-94 -752h-19l15 121l1 -15q-28 -52 -81.5 -83t-114.5 -26zM232 13q48 -3 91 17.5t72 58t36 85.5l3 33q-2 43 -23 79t-56 58.5t-79 24.5 q-50 3 -93 -17t-71.5 -59t-34.5 -92q-6 -49 13 -90.5t56 -67.5t86 -30zM665 359q-31 0 -44 9t-11 39v6h17v-12q0 -10 6 -16.5t23 -6.5h246l-303 -365l-8 5h263l-3 -18h-286l304 367l5 -8h-209zM754 661l87 -157h-11l128 157h21l-145 -181h-1l-100 181h21z" glyph-name="uni01C6" horiz-adv-x="965" unicode="ǆ"/><glyph d="M182 702h20l-84 -682h403l-3 -20h-422zM740 93q-10 -75 -42 -127t-78.5 -79t-98.5 -29v0l3 19q49 3 90.5 29.5t70 74.5t36.5 115l75 606h18z" glyph-name="uni01C7" horiz-adv-x="870" unicode="Ǉ"/><glyph d="M182 702h20l-84 -682h403l-3 -20h-422zM570 -171q31 28 51.5 68t27.5 91l48 390h19l-47 -384q-7 -59 -30 -103t-57 -72zM695 500q0 10 8 17t18 7q9 0 14.5 -6t5.5 -14q0 -10 -8 -17t-17 -7q-10 0 -15.5 6.5t-5.5 13.5z" glyph-name="uni01C8" horiz-adv-x="787" unicode="ǈ"/><glyph d="M163 752h20l-93 -752h-19zM217 -171q31 28 51.5 68t27.5 91l48 390h19l-47 -384q-7 -59 -30 -103t-57 -72zM342 500q0 10 8 17t18 7q9 0 14.5 -6t5.5 -14q0 -10 -8 -17t-17 -7q-10 0 -15.5 6.5t-5.5 13.5z" glyph-name="uni01C9" horiz-adv-x="434" unicode="ǉ"/><glyph d="M670 -13h-1l-477 679l6 10l-83 -676h-19l87 713h1l481 -687l-10 2l83 674h19zM992 93q-10 -75 -42 -127t-78.5 -79t-98.5 -29v0l3 19q49 3 90.5 29.5t70 74.5t36.5 115l75 606h18z" glyph-name="uni01CA" horiz-adv-x="1123" unicode="Ǌ"/><glyph d="M670 -13h-1l-477 679l6 10l-83 -676h-19l87 713h1l481 -687l-10 2l83 674h19zM822 -171q31 28 51.5 68t27.5 91l48 390h19l-47 -384q-7 -59 -30 -103t-57 -72zM947 500q0 10 8 17t18 7q9 0 14.5 -6t5.5 -14q0 -10 -8 -17t-17 -7q-10 0 -15.5 6.5t-5.5 13.5z" glyph-name="uni01CB" horiz-adv-x="1039" unicode="ǋ"/><glyph d="M132 378l-7 -104l-5 7q24 46 70 75t104 29q57 0 86.5 -31t22.5 -81l-33 -273h-20l33 272q6 42 -19 68.5t-73 26.5q-43 0 -81 -19.5t-63 -53t-30 -76.5l-27 -218h-19l46 378h15zM496 -171q31 28 51.5 68t27.5 91l48 390h19l-47 -384q-7 -59 -30 -103t-57 -72zM621 500 q0 10 8 17t18 7q9 0 14.5 -6t5.5 -14q0 -10 -8 -17t-17 -7q-10 0 -15.5 6.5t-5.5 13.5z" glyph-name="uni01CC" horiz-adv-x="713" unicode="ǌ"/><glyph d="M145 230q-9 -70 11.5 -119t64.5 -74.5t105 -25.5q66 0 115.5 25.5t80 74.5t39.5 119l57 472h20l-58 -474q-9 -77 -41.5 -129.5t-86.5 -79.5t-128 -27v0q-66 0 -114.5 27t-72 79.5t-13.5 129.5l58 474h20zM344 948l87 -157h-11l128 157h21l-145 -181h-1l-100 181h21z" glyph-name="uni01D3" horiz-adv-x="695" unicode="Ǔ"/><glyph d="M621 28q-25 -12 -56.5 -21.5t-65.5 -14t-66 -4.5q-53 0 -99 12t-83.5 33.5t-67 52t-49.5 67.5t-30.5 79t-9.5 87q0 47 14 99.5t42.5 103t73.5 92t108 66t146 24.5q56 -1 106.5 -17.5t92.5 -45.5l-12 -16q-38 28 -87 44t-102 16q-80 0 -140 -24t-102 -64t-68.5 -88.5 t-39 -97.5t-12.5 -92q-1 -49 12 -94t38 -83t61.5 -67t83 -46.5t102.5 -20.5q46 -2 99 6.5t93 26.5l29 239h-171l3 19h191zM387 949l87 -157h-11l128 157h21l-145 -181h-1l-100 181h21z" glyph-name="Gcaron" horiz-adv-x="740" unicode="Ǧ"/><glyph d="M230 -181q-27 0 -56.5 5t-60.5 24t-66 59l13 12q34 -39 64 -56t56.5 -21.5t49.5 -4.5q61 0 97.5 20t54 53t23.5 73l18 136l6 -5q-27 -54 -79 -86.5t-111 -32.5q-53 0 -94.5 24.5t-65.5 66t-24 93.5q0 27 11 62t35 68t63.5 54.5t96.5 21.5q66 0 115 -36.5t65 -92.5l-3 -10 l22 132h15l-49 -397q-5 -42 -25.5 -79t-61.5 -60t-109 -23zM263 368q-54 0 -90.5 -20.5t-58 -51t-30.5 -62.5t-9 -55q0 -46 21.5 -84t59 -60.5t86.5 -22.5q46 0 86.5 21.5t67.5 56.5t33 77l6 43q-3 44 -26 80t-61 57t-85 21zM229 627l87 -157h-11l128 157h21l-145 -181h-1 l-100 181h21z" glyph-name="gcaron" horiz-adv-x="546" unicode="ǧ"/><glyph d="M496 -1q-16 -3 -31.5 -4.5t-32.5 -1.5q-72 0 -133.5 24.5t-107.5 68.5t-71.5 104.5t-25.5 133.5q0 66 25 133.5t73.5 124.5t119.5 92t164 35q71 0 132.5 -24.5t107.5 -69t71.5 -105t25.5 -132.5q0 -60 -20.5 -121.5t-60.5 -115.5t-99.5 -92t-136.5 -51q-44 -26 -68 -55 t-24 -60q0 -28 17 -44.5t38 -16.5q19 0 34.5 13t26.5 32l13 -9q-11 -21 -31 -37t-45 -16q-29 0 -50.5 21t-21.5 56q0 26 13.5 50t36 44t49.5 34zM432 12q85 0 152.5 33t114 87t70.5 118.5t24 126.5q0 64 -24 120.5t-67 100t-101 68t-126 24.5q-86 0 -153 -33t-113.5 -87.5 t-70.5 -118.5t-24 -127t23.5 -119.5t66.5 -100t101 -68t127 -24.5z" glyph-name="uni01EA" unicode="Ǫ"/><glyph d="M300 4q-14 -5 -28.5 -7.5t-31.5 -2.5q-40 0 -73.5 13.5t-58.5 38t-39 58t-14 72.5q0 37 12.5 74t38 67.5t65 49t92.5 18.5q54 0 95.5 -23.5t65.5 -65t24 -93.5q0 -51 -17.5 -91.5t-50 -68.5t-79.5 -41q-22 -6 -43.5 -23.5t-35.5 -43.5t-14 -57q0 -28 16.5 -44t37.5 -16 q20 -1 35.5 12.5t26.5 32.5l12 -9q-10 -22 -30.5 -38t-45.5 -16q-28 0 -49.5 21t-21.5 56q0 31 11.5 56.5t31.5 44t45 28.5zM241 11q64 0 105.5 28.5t61.5 72t20 90.5q0 34 -12 64t-34.5 53t-53 36t-66.5 13q-64 0 -105.5 -28.5t-61.5 -72t-20 -89.5t21.5 -84t59 -60.5 t85.5 -22.5z" glyph-name="uni01EB" horiz-adv-x="502" unicode="ǫ"/><glyph d="M229 -3q-55 3 -96 31t-61.5 73.5t-14.5 99.5q5 44 24.5 79.5t49.5 60t67 36.5t78 9q61 -3 107 -42t61 -92l-5 -11l63 511h20l-94 -752h-19l15 121l1 -15q-28 -52 -81.5 -83t-114.5 -26zM232 13q48 -3 91 17.5t72 58t36 85.5l3 33q-2 43 -23 79t-56 58.5t-79 24.5 q-50 3 -93 -17t-71.5 -59t-34.5 -92q-6 -49 13 -90.5t56 -67.5t86 -30zM665 359q-31 0 -44 9t-11 39v6h17v-12q0 -10 6 -16.5t23 -6.5h246l-303 -365l-8 5h263l-3 -18h-286l304 367l5 -8h-209z" glyph-name="uni01F3" horiz-adv-x="915" unicode="ǳ"/><glyph d="M60 0h-21l381 734h3l200 -734h-21l-191 700l14 3zM195 281h344l-1 -18h-347zM371 818q0 32 20.5 50.5t48.5 18.5t46 -17t17 -43q0 -32 -20.5 -51t-48.5 -18q-28 0 -45.5 16.5t-17.5 43.5zM389 820q0 -20 13 -33t31 -13q20 0 36.5 13.5t16.5 36.5q0 20 -13 33.5t-32 13.5 q-20 0 -36 -13.5t-16 -37.5zM594 1123l-107 -133h-19l104 133h22z" glyph-name="Aringacute" horiz-adv-x="709" unicode="Ǻ"/><glyph d="M238 -5q-53 0 -94.5 24.5t-65 65.5t-23.5 92q0 30 11 66t35 68.5t63.5 53.5t96.5 21q45 0 82 -17t62.5 -46.5t36.5 -67.5l-5 -12l21 135h15l-45 -378h-19l14 120l1 -15q-13 -24 -32.5 -44t-43.5 -35t-52 -23t-58 -8zM243 12q47 0 87 20t66.5 56t33.5 82l4 41 q-3 44 -26 79.5t-61 56.5t-85 21q-52 0 -88 -19.5t-58 -49.5t-31.5 -62.5t-9.5 -57.5q0 -46 21.5 -84t59.5 -60.5t87 -22.5zM214 471q0 32 20.5 50.5t48.5 18.5t46 -17t17 -43q0 -32 -20.5 -51t-48.5 -18q-28 0 -45.5 16.5t-17.5 43.5zM232 473q0 -20 13 -33t31 -13 q20 0 36.5 13.5t16.5 36.5q0 20 -13 33.5t-32 13.5q-20 0 -36 -13.5t-16 -37.5zM437 775l-107 -133h-19l104 133h22z" glyph-name="aringacute" horiz-adv-x="545" unicode="ǻ"/><glyph d="M526 702h367l-2 -20h-348l-39 -319h308l-1 -19h-309l-40 -324h362l-3 -20h-381zM538 694q-3 -6 -6 -13t-6 -13l-503 -668h-22l525 702zM170 224h306l-2 -18h-307zM807 937l-107 -133h-19l104 133h22z" glyph-name="AEacute" horiz-adv-x="923" unicode="Ǽ"/><glyph d="M516 -6q-19 0 -43.5 6.5t-48.5 20.5t-43.5 38t-29 59t-4.5 83q7 53 36.5 95t74.5 66t100 23q21 0 45 -6t47.5 -21.5t42.5 -42t31 -68.5l-361 -116l-3 18l349 111l-7 -9q-15 46 -40.5 71t-54 35t-52.5 10q-47 1 -87.5 -21t-67.5 -60.5t-33 -85.5q-6 -53 8 -89t39 -58 t53 -31.5t51 -10.5q34 0 65 10.5t56 30.5l11 -15q-29 -21 -63 -32.5t-71 -10.5zM195 -10q-45 0 -79 12.5t-53 36t-19 54.5q0 32 15 60.5t46 46.5t81 17q11 0 33 -4t47.5 -15t49 -32t38.5 -54l-7 -13q-29 46 -61.5 66.5t-60 26.5t-39.5 6q-52 1 -86.5 -27t-33.5 -78 q1 -33 22.5 -51.5t51.5 -26t57 -6.5q30 0 68.5 7.5t64.5 31.5l17 150l13 -49l-13 -108q-20 -22 -48.5 -33t-56 -14.5t-47.5 -3.5zM347 199l7 56q5 35 -4.5 57t-26.5 33t-35.5 15.5t-33.5 4.5q-37 0 -73.5 -11.5t-76.5 -46.5l-9 16q32 29 72 45t92 16q22 -1 41 -6t34.5 -14.5 t26 -24t14.5 -34.5t1 -45l-3 -21zM550 613l-107 -133h-19l104 133h22z" glyph-name="aeacute" horiz-adv-x="761" unicode="ǽ"/><glyph d="M802 707l-680 -708l-9 10l679 708zM432 -7q-72 0 -133.5 24.5t-107.5 68.5t-71.5 104.5t-25.5 133.5q0 66 25 133.5t73.5 124.5t119.5 92t164 35q71 0 132.5 -24.5t107.5 -69t71.5 -105t25.5 -132.5q0 -66 -25 -133.5t-73.5 -124.5t-119.5 -92t-163 -35zM432 12 q85 0 152.5 33t114 87t70.5 118.5t24 126.5q0 64 -24 120.5t-67 100t-101 68t-126 24.5q-86 0 -153 -33t-113.5 -87.5t-70.5 -118.5t-24 -127t23.5 -119.5t66.5 -100t101 -68t127 -24.5zM631 937l-107 -133h-19l104 133h22z" glyph-name="Oslashacute" horiz-adv-x="837" unicode="Ǿ"/><glyph d="M429 369q-17 -18 -40.5 -42t-51 -53t-57.5 -60t-59.5 -61.5t-57.5 -59.5t-51.5 -53t-39.5 -42l-9 12q16 17 39.5 41.5t51 53t57.5 59.5t59.5 61.5t57.5 59.5t51 53t40 41zM240 -6q-40 0 -73.5 13.5t-58.5 38t-39 58t-14 72.5q0 37 12.5 74t38 67.5t65 49t92.5 18.5 q54 0 95.5 -23.5t65.5 -65t24 -93.5q0 -29 -8 -59t-24 -57t-41 -48t-58.5 -33t-76.5 -12zM241 11q64 0 105.5 28.5t61.5 72t20 90.5q0 34 -12 64t-34.5 53t-53 36t-66.5 13q-64 0 -105.5 -28.5t-61.5 -72t-20 -89.5t21.5 -84t59 -60.5t85.5 -22.5zM414 614l-107 -133h-19 l104 133h22z" glyph-name="oslashacute" horiz-adv-x="472" unicode="ǿ"/><glyph d="M60 0h-21l381 734h3l200 -734h-21l-191 700l14 3zM195 281h344l-1 -18h-347zM331 962l73 -133h-19l-76 133h22zM413 962l73 -133h-19l-76 133h22z" glyph-name="uni0200" horiz-adv-x="709" unicode="Ȁ"/><glyph d="M238 -5q-53 0 -94.5 24.5t-65 65.5t-23.5 92q0 30 11 66t35 68.5t63.5 53.5t96.5 21q45 0 82 -17t62.5 -46.5t36.5 -67.5l-5 -12l21 135h15l-45 -378h-19l14 120l1 -15q-13 -24 -32.5 -44t-43.5 -35t-52 -23t-58 -8zM243 12q47 0 87 20t66.5 56t33.5 82l4 41 q-3 44 -26 79.5t-61 56.5t-85 21q-52 0 -88 -19.5t-58 -49.5t-31.5 -62.5t-9.5 -57.5q0 -46 21.5 -84t59.5 -60.5t87 -22.5zM174 615l73 -133h-19l-76 133h22zM256 615l73 -133h-19l-76 133h22z" glyph-name="uni0201" horiz-adv-x="545" unicode="ȁ"/><glyph d="M60 0h-21l381 734h3l200 -734h-21l-191 700l14 3zM195 281h344l-1 -18h-347zM454 930q20 0 41.5 -8t39 -26.5t27 -48.5t5.5 -74h-17q4 50 -10.5 80.5t-38.5 45t-48 14.5q-32 0 -56 -20t-39 -52t-21 -68h-18q6 43 24.5 79t47 57.5t63.5 20.5z" glyph-name="uni0202" horiz-adv-x="709" unicode="Ȃ"/><glyph d="M238 -5q-53 0 -94.5 24.5t-65 65.5t-23.5 92q0 30 11 66t35 68.5t63.5 53.5t96.5 21q45 0 82 -17t62.5 -46.5t36.5 -67.5l-5 -12l21 135h15l-45 -378h-19l14 120l1 -15q-13 -24 -32.5 -44t-43.5 -35t-52 -23t-58 -8zM243 12q47 0 87 20t66.5 56t33.5 82l4 41 q-3 44 -26 79.5t-61 56.5t-85 21q-52 0 -88 -19.5t-58 -49.5t-31.5 -62.5t-9.5 -57.5q0 -46 21.5 -84t59.5 -60.5t87 -22.5zM297 582q20 0 41.5 -8t39 -26.5t27 -48.5t5.5 -74h-17q4 50 -10.5 80.5t-38.5 45t-48 14.5q-32 0 -56 -20t-39 -52t-21 -68h-18q6 43 24.5 79 t47 57.5t63.5 20.5z" glyph-name="uni0203" horiz-adv-x="545" unicode="ȃ"/><glyph d="M182 702h419l-3 -20h-399l-39 -319h360l-3 -19h-360l-39 -324h413l-2 -20h-433zM285 937l73 -133h-19l-76 133h22zM367 937l73 -133h-19l-76 133h22z" glyph-name="uni0204" horiz-adv-x="631" unicode="Ȅ"/><glyph d="M242 11q32 0 62 11t54 30l11 -15q-27 -20 -60 -31.5t-68 -11.5q-55 0 -97 24.5t-65.5 66t-23.5 92.5q0 43 16.5 80.5t45 66.5t66 45t79.5 16q35 0 62.5 -10t49 -28.5t36 -43.5t22.5 -56l-358 -117l-4 18l348 112l-8 -9q-15 48 -52.5 82t-94.5 34q-51 0 -94 -25t-68.5 -68 t-25.5 -95q0 -43 20 -81.5t57.5 -62.5t89.5 -24zM165 615l73 -133h-19l-76 133h22zM247 615l73 -133h-19l-76 133h22z" glyph-name="uni0205" horiz-adv-x="470" unicode="ȅ"/><glyph d="M182 702h419l-3 -20h-399l-39 -319h360l-3 -19h-360l-39 -324h413l-2 -20h-433zM408 904q20 0 41.5 -8t39 -26.5t27 -48.5t5.5 -74h-17q4 50 -10.5 80.5t-38.5 45t-48 14.5q-32 0 -56 -20t-39 -52t-21 -68h-18q6 43 24.5 79t47 57.5t63.5 20.5z" glyph-name="uni0206" horiz-adv-x="631" unicode="Ȇ"/><glyph d="M242 11q32 0 62 11t54 30l11 -15q-27 -20 -60 -31.5t-68 -11.5q-55 0 -97 24.5t-65.5 66t-23.5 92.5q0 43 16.5 80.5t45 66.5t66 45t79.5 16q35 0 62.5 -10t49 -28.5t36 -43.5t22.5 -56l-358 -117l-4 18l348 112l-8 -9q-15 48 -52.5 82t-94.5 34q-51 0 -94 -25t-68.5 -68 t-25.5 -95q0 -43 20 -81.5t57.5 -62.5t89.5 -24zM287 582q20 0 41.5 -8t39 -26.5t27 -48.5t5.5 -74h-17q4 50 -10.5 80.5t-38.5 45t-48 14.5q-32 0 -56 -20t-39 -52t-21 -68h-18q6 43 24.5 79t47 57.5t63.5 20.5z" glyph-name="uni0207" horiz-adv-x="470" unicode="ȇ"/><glyph d="M182 702h20l-86 -702h-20zM98 937l73 -133h-19l-76 133h22zM180 937l73 -133h-19l-76 133h22z" glyph-name="uni0208" horiz-adv-x="258" unicode="Ȉ"/><glyph d="M117 378h20l-47 -378h-19zM36 613l73 -133h-19l-76 133h22zM118 613l73 -133h-19l-76 133h22z" glyph-name="uni0209" horiz-adv-x="208" unicode="ȉ"/><glyph d="M182 702h20l-86 -702h-20zM221 904q20 0 41.5 -8t39 -26.5t27 -48.5t5.5 -74h-17q4 50 -10.5 80.5t-38.5 45t-48 14.5q-32 0 -56 -20t-39 -52t-21 -68h-18q6 43 24.5 79t47 57.5t63.5 20.5z" glyph-name="uni020A" horiz-adv-x="258" unicode="Ȋ"/><glyph d="M117 378h20l-47 -378h-19zM159 580q20 0 41.5 -8t39 -26.5t27 -48.5t5.5 -74h-17q4 50 -10.5 80.5t-38.5 45t-48 14.5q-32 0 -56 -20t-39 -52t-21 -68h-18q6 43 24.5 79t47 57.5t63.5 20.5z" glyph-name="uni020B" horiz-adv-x="208" unicode="ȋ"/><glyph d="M432 -7q-72 0 -133.5 24.5t-107.5 68.5t-71.5 104.5t-25.5 133.5q0 66 25 133.5t73.5 124.5t119.5 92t164 35q71 0 132.5 -24.5t107.5 -69t71.5 -105t25.5 -132.5q0 -66 -25 -133.5t-73.5 -124.5t-119.5 -92t-163 -35zM432 12q85 0 152.5 33t114 87t70.5 118.5t24 126.5 q0 64 -24 120.5t-67 100t-101 68t-126 24.5q-86 0 -153 -33t-113.5 -87.5t-70.5 -118.5t-24 -127t23.5 -119.5t66.5 -100t101 -68t127 -24.5zM403 937l73 -133h-19l-76 133h22zM485 937l73 -133h-19l-76 133h22z" glyph-name="uni020C" unicode="Ȍ"/><glyph d="M240 -6q-40 0 -73.5 13.5t-58.5 38t-39 58t-14 72.5q0 37 12.5 74t38 67.5t65 49t92.5 18.5q54 0 95.5 -23.5t65.5 -65t24 -93.5q0 -29 -8 -59t-24 -57t-41 -48t-58.5 -33t-76.5 -12zM241 11q64 0 105.5 28.5t61.5 72t20 90.5q0 34 -12 64t-34.5 53t-53 36t-66.5 13 q-64 0 -105.5 -28.5t-61.5 -72t-20 -89.5t21.5 -84t59 -60.5t85.5 -22.5zM171 614l73 -133h-19l-76 133h22zM253 614l73 -133h-19l-76 133h22z" glyph-name="uni020D" horiz-adv-x="502" unicode="ȍ"/><glyph d="M432 -7q-72 0 -133.5 24.5t-107.5 68.5t-71.5 104.5t-25.5 133.5q0 66 25 133.5t73.5 124.5t119.5 92t164 35q71 0 132.5 -24.5t107.5 -69t71.5 -105t25.5 -132.5q0 -66 -25 -133.5t-73.5 -124.5t-119.5 -92t-163 -35zM432 12q85 0 152.5 33t114 87t70.5 118.5t24 126.5 q0 64 -24 120.5t-67 100t-101 68t-126 24.5q-86 0 -153 -33t-113.5 -87.5t-70.5 -118.5t-24 -127t23.5 -119.5t66.5 -100t101 -68t127 -24.5zM525 904q20 0 41.5 -8t39 -26.5t27 -48.5t5.5 -74h-17q4 50 -10.5 80.5t-38.5 45t-48 14.5q-32 0 -56 -20t-39 -52t-21 -68h-18 q6 43 24.5 79t47 57.5t63.5 20.5z" glyph-name="uni020E" unicode="Ȏ"/><glyph d="M240 -6q-40 0 -73.5 13.5t-58.5 38t-39 58t-14 72.5q0 37 12.5 74t38 67.5t65 49t92.5 18.5q54 0 95.5 -23.5t65.5 -65t24 -93.5q0 -29 -8 -59t-24 -57t-41 -48t-58.5 -33t-76.5 -12zM241 11q64 0 105.5 28.5t61.5 72t20 90.5q0 34 -12 64t-34.5 53t-53 36t-66.5 13 q-64 0 -105.5 -28.5t-61.5 -72t-20 -89.5t21.5 -84t59 -60.5t85.5 -22.5zM293 581q20 0 41.5 -8t39 -26.5t27 -48.5t5.5 -74h-17q4 50 -10.5 80.5t-38.5 45t-48 14.5q-32 0 -56 -20t-39 -52t-21 -68h-18q6 43 24.5 79t47 57.5t63.5 20.5z" glyph-name="uni020F" horiz-adv-x="502" unicode="ȏ"/><glyph d="M326 702q30 0 64 -10t62.5 -32t44 -57.5t9.5 -87.5q-5 -38 -20.5 -73.5t-44.5 -63.5t-72.5 -44.5t-102.5 -16.5h-112l-39 -317h-19l86 702h144zM265 336q79 0 125.5 27.5t68.5 68.5t27 82q5 37 -5.5 68.5t-33 54t-54 34.5t-69.5 12h-125l-42 -347h108zM356 335l160 -335 h-22l-161 335h23zM248 937l73 -133h-19l-76 133h22zM330 937l73 -133h-19l-76 133h22z" glyph-name="uni0210" horiz-adv-x="617" unicode="Ȑ"/><glyph d="M132 378l-12 -107q16 36 44 61t63.5 38.5t72.5 14.5l-2 -18q-44 -1 -83.5 -20.5t-66 -52.5t-31.5 -76l-27 -218h-19l46 378h15zM89 616l73 -133h-19l-76 133h22zM171 616l73 -133h-19l-76 133h22z" glyph-name="uni0211" horiz-adv-x="321" unicode="ȑ"/><glyph d="M326 702q30 0 64 -10t62.5 -32t44 -57.5t9.5 -87.5q-5 -38 -20.5 -73.5t-44.5 -63.5t-72.5 -44.5t-102.5 -16.5h-112l-39 -317h-19l86 702h144zM265 336q79 0 125.5 27.5t68.5 68.5t27 82q5 37 -5.5 68.5t-33 54t-54 34.5t-69.5 12h-125l-42 -347h108zM356 335l160 -335 h-22l-161 335h23zM370 904q20 0 41.5 -8t39 -26.5t27 -48.5t5.5 -74h-17q4 50 -10.5 80.5t-38.5 45t-48 14.5q-32 0 -56 -20t-39 -52t-21 -68h-18q6 43 24.5 79t47 57.5t63.5 20.5z" glyph-name="uni0212" horiz-adv-x="617" unicode="Ȓ"/><glyph d="M132 378l-12 -107q16 36 44 61t63.5 38.5t72.5 14.5l-2 -18q-44 -1 -83.5 -20.5t-66 -52.5t-31.5 -76l-27 -218h-19l46 378h15zM211 583q20 0 41.5 -8t39 -26.5t27 -48.5t5.5 -74h-17q4 50 -10.5 80.5t-38.5 45t-48 14.5q-32 0 -56 -20t-39 -52t-21 -68h-18q6 43 24.5 79 t47 57.5t63.5 20.5z" glyph-name="uni0213" horiz-adv-x="321" unicode="ȓ"/><glyph d="M145 230q-9 -70 11.5 -119t64.5 -74.5t105 -25.5q66 0 115.5 25.5t80 74.5t39.5 119l57 472h20l-58 -474q-9 -77 -41.5 -129.5t-86.5 -79.5t-128 -27v0q-66 0 -114.5 27t-72 79.5t-13.5 129.5l58 474h20zM316 937l73 -133h-19l-76 133h22zM398 937l73 -133h-19l-76 133 h22z" glyph-name="uni0214" horiz-adv-x="695" unicode="Ȕ"/><glyph d="M188 -8q-53 0 -81.5 29.5t-22.5 79.5l33 277h20l-34 -277q-5 -37 18.5 -63t71.5 -28q40 0 79 19.5t65.5 53.5t31.5 77l27 218h20l-47 -378h-16l13 115l1 -7q-12 -31 -40.5 -57.5t-65 -42.5t-73.5 -16zM173 616l73 -133h-19l-76 133h22zM255 616l73 -133h-19l-76 133h22z" glyph-name="uni0215" horiz-adv-x="487" unicode="ȕ"/><glyph d="M145 230q-9 -70 11.5 -119t64.5 -74.5t105 -25.5q66 0 115.5 25.5t80 74.5t39.5 119l57 472h20l-58 -474q-9 -77 -41.5 -129.5t-86.5 -79.5t-128 -27v0q-66 0 -114.5 27t-72 79.5t-13.5 129.5l58 474h20zM439 904q20 0 41.5 -8t39 -26.5t27 -48.5t5.5 -74h-17 q4 50 -10.5 80.5t-38.5 45t-48 14.5q-32 0 -56 -20t-39 -52t-21 -68h-18q6 43 24.5 79t47 57.5t63.5 20.5z" glyph-name="uni0216" horiz-adv-x="695" unicode="Ȗ"/><glyph d="M188 -8q-53 0 -81.5 29.5t-22.5 79.5l33 277h20l-34 -277q-5 -37 18.5 -63t71.5 -28q40 0 79 19.5t65.5 53.5t31.5 77l27 218h20l-47 -378h-16l13 115l1 -7q-12 -31 -40.5 -57.5t-65 -42.5t-73.5 -16zM296 583q20 0 41.5 -8t39 -26.5t27 -48.5t5.5 -74h-17 q4 50 -10.5 80.5t-38.5 45t-48 14.5q-32 0 -56 -20t-39 -52t-21 -68h-18q6 43 24.5 79t47 57.5t63.5 20.5z" glyph-name="uni0217" horiz-adv-x="487" unicode="ȗ"/><glyph d="M500 639q-28 14 -76 30t-98 17q-53 0 -86.5 -16t-52.5 -39.5t-26.5 -47t-7.5 -38.5q0 -39 22.5 -65.5t59 -47t77.5 -40.5q43 -19 83.5 -42.5t66.5 -58.5t26 -89q0 -31 -11.5 -67t-37.5 -68.5t-68.5 -53t-104.5 -20.5q-55 0 -98.5 13.5t-74.5 33.5t-49 38l12 16 q19 -20 51.5 -39t74 -31.5t86.5 -12.5q69 0 113 29.5t65.5 73.5t21.5 86q0 49 -24.5 81.5t-63.5 55t-82 41.5q-31 13 -60.5 28.5t-53.5 34.5t-38 43.5t-13 57.5q0 49 26.5 85.5t70.5 56t97 19.5q29 0 62 -6.5t64.5 -17.5t57.5 -25zM184 -182l-9 9q30 18 45 50.5t15 75.5 l21 -1q0 -26 -6.5 -52t-22 -48t-43.5 -34z" glyph-name="uni0218" horiz-adv-x="546" unicode="Ș"/><glyph d="M150 -7q-19 1 -40 6.5t-40.5 17t-32.5 30.5l13 12q9 -14 24.5 -24.5t35.5 -17t43 -7.5q36 -2 68.5 16.5t38.5 65.5q2 30 -11.5 48t-37 29t-47.5 22q-35 14 -61 35t-22 64q3 23 13 40.5t26 29t35.5 17.5t39.5 5q14 -1 31.5 -6t35.5 -15.5t32 -28.5l-13 -13q-15 22 -41 33 t-46 12q-19 1 -39.5 -6.5t-35.5 -23.5t-17 -42q-3 -24 7 -39.5t28 -26t39 -19.5q26 -12 51.5 -24.5t40.5 -32.5t11 -54q-2 -23 -11.5 -42.5t-25.5 -33.5t-39 -21.5t-53 -5.5zM82 -182l-9 9q30 18 45 50.5t15 75.5l21 -1q0 -26 -6.5 -52t-22 -48t-43.5 -34z" glyph-name="uni0219" horiz-adv-x="346" unicode="ș"/><glyph d="M122 702h456l-3 -19h-218l-83 -683h-20l83 683h-217zM197 -182l-9 9q30 18 45 50.5t15 75.5l21 -1q0 -26 -6.5 -52t-22 -48t-43.5 -34z" glyph-name="uni021A" horiz-adv-x="575" unicode="Ț"/><glyph d="M176 543h20l-21 -173h126l-3 -18h-126l-43 -352h-19l43 352h-88l2 18h88zM55 -182l-9 9q30 18 45 50.5t15 75.5l21 -1q0 -26 -6.5 -52t-22 -48t-43.5 -34z" glyph-name="uni021B" horiz-adv-x="304" unicode="ț"/><glyph d="M432 -7q-72 0 -133.5 24.5t-107.5 68.5t-71.5 104.5t-25.5 133.5q0 66 25 133.5t73.5 124.5t119.5 92t164 35q71 0 132.5 -24.5t107.5 -69t71.5 -105t25.5 -132.5q0 -66 -25 -133.5t-73.5 -124.5t-119.5 -92t-163 -35zM432 12q85 0 152.5 33t114 87t70.5 118.5t24 126.5 q0 64 -24 120.5t-67 100t-101 68t-126 24.5q-86 0 -153 -33t-113.5 -87.5t-70.5 -118.5t-24 -127t23.5 -119.5t66.5 -100t101 -68t127 -24.5zM407 826q0 10 7 16.5t16 6.5q9 -1 15.5 -7.5t6.5 -15.5q-1 -9 -7.5 -15.5t-15.5 -6.5t-15.5 6.5t-6.5 15.5v0zM574 826 q0 10 6.5 16.5t15.5 6.5q9 -1 15.5 -7.5t6.5 -15.5t-7 -15.5t-16 -6.5t-15.5 6.5t-5.5 15.5v0zM415 978h231l-3 -16h-230z" glyph-name="uni022A" unicode="Ȫ"/><glyph d="M240 -6q-40 0 -73.5 13.5t-58.5 38t-39 58t-14 72.5q0 37 12.5 74t38 67.5t65 49t92.5 18.5q54 0 95.5 -23.5t65.5 -65t24 -93.5q0 -29 -8 -59t-24 -57t-41 -48t-58.5 -33t-76.5 -12zM241 11q64 0 105.5 28.5t61.5 72t20 90.5q0 34 -12 64t-34.5 53t-53 36t-66.5 13 q-64 0 -105.5 -28.5t-61.5 -72t-20 -89.5t21.5 -84t59 -60.5t85.5 -22.5zM174 503q0 10 7 16.5t16 6.5q9 -1 15.5 -7.5t6.5 -15.5q-1 -9 -7.5 -15.5t-15.5 -6.5t-15.5 6.5t-6.5 15.5v0zM341 503q0 10 6.5 16.5t15.5 6.5q9 -1 15.5 -7.5t6.5 -15.5t-7 -15.5t-16 -6.5 t-15.5 6.5t-5.5 15.5v0zM183 655h231l-3 -16h-230z" glyph-name="uni022B" horiz-adv-x="502" unicode="ȫ"/><glyph d="M432 -7q-72 0 -133.5 24.5t-107.5 68.5t-71.5 104.5t-25.5 133.5q0 66 25 133.5t73.5 124.5t119.5 92t164 35q71 0 132.5 -24.5t107.5 -69t71.5 -105t25.5 -132.5q0 -66 -25 -133.5t-73.5 -124.5t-119.5 -92t-163 -35zM432 12q85 0 152.5 33t114 87t70.5 118.5t24 126.5 q0 64 -24 120.5t-67 100t-101 68t-126 24.5q-86 0 -153 -33t-113.5 -87.5t-70.5 -118.5t-24 -127t23.5 -119.5t66.5 -100t101 -68t127 -24.5zM583 768q-27 1 -42.5 16.5t-29.5 33.5q-11 16 -23 30t-33 15q-11 1 -25.5 -6t-27 -26.5t-19.5 -57.5l-16 3q6 38 20.5 62t32.5 34 t36 9q28 -1 43.5 -17t27.5 -34q11 -16 24 -29.5t35 -15.5q13 -1 26.5 6t24.5 27t17 58l16 -3q-6 -39 -19 -62.5t-30.5 -34t-37.5 -8.5zM417 988h231l-3 -16h-230z" glyph-name="uni022C" unicode="Ȭ"/><glyph d="M240 -6q-40 0 -73.5 13.5t-58.5 38t-39 58t-14 72.5q0 37 12.5 74t38 67.5t65 49t92.5 18.5q54 0 95.5 -23.5t65.5 -65t24 -93.5q0 -29 -8 -59t-24 -57t-41 -48t-58.5 -33t-76.5 -12zM241 11q64 0 105.5 28.5t61.5 72t20 90.5q0 34 -12 64t-34.5 53t-53 36t-66.5 13 q-64 0 -105.5 -28.5t-61.5 -72t-20 -89.5t21.5 -84t59 -60.5t85.5 -22.5zM351 445q-27 1 -42.5 16.5t-29.5 33.5q-11 16 -23 30t-33 15q-11 1 -25.5 -6t-27 -26.5t-19.5 -57.5l-16 3q6 38 20.5 62t32.5 34t36 9q28 -1 43.5 -17t27.5 -34q11 -16 24 -29.5t35 -15.5 q13 -1 26.5 6t24.5 27t17 58l16 -3q-6 -39 -19 -62.5t-30.5 -34t-37.5 -8.5zM185 665h231l-3 -16h-230z" glyph-name="uni022D" horiz-adv-x="502" unicode="ȭ"/><glyph d="M432 -7q-72 0 -133.5 24.5t-107.5 68.5t-71.5 104.5t-25.5 133.5q0 66 25 133.5t73.5 124.5t119.5 92t164 35q71 0 132.5 -24.5t107.5 -69t71.5 -105t25.5 -132.5q0 -66 -25 -133.5t-73.5 -124.5t-119.5 -92t-163 -35zM432 12q85 0 152.5 33t114 87t70.5 118.5t24 126.5 q0 64 -24 120.5t-67 100t-101 68t-126 24.5q-86 0 -153 -33t-113.5 -87.5t-70.5 -118.5t-24 -127t23.5 -119.5t66.5 -100t101 -68t127 -24.5zM489 824q0 10 8 17t18 7q9 0 14.5 -6t5.5 -14q0 -10 -8 -17t-17 -7q-10 0 -15.5 6.5t-5.5 13.5zM416 979h231l-3 -16h-230z" glyph-name="uni0230" unicode="Ȱ"/><glyph d="M240 -6q-40 0 -73.5 13.5t-58.5 38t-39 58t-14 72.5q0 37 12.5 74t38 67.5t65 49t92.5 18.5q54 0 95.5 -23.5t65.5 -65t24 -93.5q0 -29 -8 -59t-24 -57t-41 -48t-58.5 -33t-76.5 -12zM241 11q64 0 105.5 28.5t61.5 72t20 90.5q0 34 -12 64t-34.5 53t-53 36t-66.5 13 q-64 0 -105.5 -28.5t-61.5 -72t-20 -89.5t21.5 -84t59 -60.5t85.5 -22.5zM257 501q0 10 8 17t18 7q9 0 14.5 -6t5.5 -14q0 -10 -8 -17t-17 -7q-10 0 -15.5 6.5t-5.5 13.5zM183 656h231l-3 -16h-230z" glyph-name="uni0231" horiz-adv-x="502" unicode="ȱ"/><glyph d="M319 261l-207 441h22l202 -425l-9 -1l305 426h25l-317 -441l-31 -261h-22zM294 832h231l-3 -16h-230z" glyph-name="uni0232" horiz-adv-x="643" unicode="Ȳ"/><glyph d="M97 -181l312 559h22l-311 -559h-23zM197 -5l-129 383h22l124 -371zM145 508h231l-3 -16h-230z" glyph-name="uni0233" horiz-adv-x="422" unicode="ȳ"/><glyph d="M9 -171q31 28 51.5 68t27.5 91l48 390h19l-47 -384q-7 -59 -30 -103t-57 -72z" glyph-name="uni0237" horiz-adv-x="226" unicode="ȷ"/><glyph d="M228 367q-32 0 -62 -11t-54 -30l-11 15q27 20 60 31.5t69 11.5q54 0 96 -24.5t65.5 -66t23.5 -92.5q0 -43 -16.5 -80.5t-45 -66.5t-66 -45t-79.5 -16q-35 0 -62.5 10t-49 28.5t-36 43.5t-22.5 56l359 117l3 -18l-348 -112l8 9q15 -48 52.5 -82t94.5 -34q51 0 94 25t69 68 t26 95q0 43 -20.5 81.5t-58 62.5t-89.5 24z" glyph-name="uni0259" horiz-adv-x="470" unicode="ə"/><glyph d="M22 -181l-13 12q28 28 48 68t26 91l9 66h20l-8 -63q-8 -58 -29.5 -101t-52.5 -73zM147 378l-12 -122l-1 14q22 54 73 84.5t107 30.5q53 0 80.5 -31.5t22.5 -80.5l-33 -273h-20l33 271q4 40 -18 67.5t-69 29.5q-42 0 -80.5 -18.5t-65.5 -52t-33 -78.5l-26 -219h-20l46 378 h16z" glyph-name="uni0272" horiz-adv-x="501" unicode="ɲ"/><glyph d="M195 699q-8 -63 -17 -124.5t-17 -124.5h-19l30 249h23z" glyph-name="uni02BC" horiz-adv-x="200" unicode="ʼ"/><glyph d="M392 480l-87 156h9l-126 -156h-21l145 181v0l101 -181h-21z" glyph-name="circumflex" horiz-adv-x="451" unicode="ˆ"/><glyph d="M211 661l87 -157h-11l128 157h21l-145 -181h-1l-100 181h21z" glyph-name="caron" horiz-adv-x="446" unicode="ˇ"/><glyph d="M146 710h231l-3 -16h-230z" glyph-name="uni02C9" horiz-adv-x="399" unicode="ˉ"/><glyph d="M320 500q-21 0 -42 8t-39 26.5t-27 48.5t-5 75h17q-4 -51 10 -81.5t38.5 -45t48.5 -14.5q32 0 56 20t39 52t21 69h17q-6 -44 -24 -80t-46.5 -57t-63.5 -21z" glyph-name="breve" horiz-adv-x="506" unicode="˘"/><glyph d="M127 503q0 10 8 17t18 7q9 0 14.5 -6t5.5 -14q0 -10 -8 -17t-17 -7q-10 0 -15.5 6.5t-5.5 13.5z" glyph-name="dotaccent" horiz-adv-x="189" unicode="˙"/><glyph d="M219 469q0 32 20.5 50.5t48.5 18.5t46 -17t17 -43q0 -32 -20.5 -51t-48.5 -18q-28 0 -45.5 16.5t-17.5 43.5zM237 471q0 -20 13 -33t31 -13q20 0 36.5 13.5t16.5 36.5q0 20 -13 33.5t-32 13.5q-20 0 -36 -13.5t-16 -37.5z" glyph-name="ring" horiz-adv-x="419" unicode="˚"/><glyph d="M144 -188q-29 0 -50.5 21.5t-21.5 55.5q0 25 13.5 48t36 42.5t49.5 32.5l14 -12q-45 -25 -69 -53t-24 -57q-1 -28 16 -44t38 -16q19 0 35 13t27 32l12 -9q-11 -22 -31 -38t-45 -16z" glyph-name="ogonek" horiz-adv-x="356" unicode="˛"/><glyph d="M298 443q-28 2 -43.5 17.5t-28.5 33.5q-11 16 -23.5 30t-33.5 15q-11 1 -25 -6t-27 -27t-20 -57l-16 3q6 38 20.5 61.5t32.5 34t36 9.5q29 -1 44 -17t27 -34q12 -17 25 -30t34 -15q14 -1 27 6t24 27t18 58l16 -3q-6 -39 -19 -62.5t-30.5 -34t-37.5 -9.5z" glyph-name="tilde" horiz-adv-x="593" unicode="˜"/><glyph d="M284 613q-27 -33 -54 -66.5t-54 -66.5h-19q26 33 53 66.5t53 66.5h21zM397 613q-27 -33 -54 -66.5t-54 -66.5h-19q26 33 53 66.5t53 66.5h21z" glyph-name="hungarumlaut" horiz-adv-x="441" unicode="˝"/><glyph d="M82 613l73 -133h-19l-76 133h22z" glyph-name="gravecomb" horiz-adv-x="0" unicode="̀"/><glyph d="M283 613l-107 -133h-19l104 133h22z" glyph-name="acutecomb" horiz-adv-x="0" unicode="́"/><glyph d="M392 480l-87 156h9l-126 -156h-21l145 181v0l101 -181h-21z" glyph-name="uni0302" horiz-adv-x="0" unicode="̂"/><glyph d="M443 444q-27 1 -42.5 16.5t-29.5 33.5q-11 16 -23 30t-33 15q-11 1 -25.5 -6t-27 -26.5t-19.5 -57.5l-16 3q6 38 20.5 62t32.5 34t36 9q28 -1 43.5 -17t27.5 -34q11 -16 24 -29.5t35 -15.5q13 -1 26.5 6t24.5 27t17 58l16 -3q-6 -39 -19 -62.5t-30.5 -34t-37.5 -8.5z" glyph-name="tildecomb" horiz-adv-x="0" unicode="̃"/><glyph d="M147 508h231l-3 -16h-230z" glyph-name="uni0304" horiz-adv-x="0" unicode="̄"/><glyph d="M322 500q-21 0 -42 8t-39 26.5t-27 48.5t-5 75h17q-4 -51 10 -81.5t38.5 -45t48.5 -14.5q32 0 56 20t39 52t21 69h17q-6 -44 -24 -80t-46.5 -57t-63.5 -21z" glyph-name="uni0306" horiz-adv-x="0" unicode="̆"/><glyph d="M128 502q0 10 8 17t18 7q9 0 14.5 -6t5.5 -14q0 -10 -8 -17t-17 -7q-10 0 -15.5 6.5t-5.5 13.5z" glyph-name="uni0307" horiz-adv-x="0" unicode="̇"/><glyph d="M138 502q0 10 7 16.5t16 6.5q9 -1 15.5 -7.5t6.5 -15.5q-1 -9 -7.5 -15.5t-15.5 -6.5t-15.5 6.5t-6.5 15.5v0zM305 502q0 10 6.5 16.5t15.5 6.5q9 -1 15.5 -7.5t6.5 -15.5t-7 -15.5t-16 -6.5t-15.5 6.5t-5.5 15.5v0z" glyph-name="uni0308" horiz-adv-x="0" unicode="̈"/><glyph d="M130 533q25 19 43 33.5t21 35.5t-5 35t-31 15q-19 2 -32.5 -6t-30.5 -27l-11 8q18 23 36.5 32.5t40.5 8.5q20 -1 36.5 -15.5t11.5 -49.5q-3 -26 -23 -43t-48 -36z" glyph-name="hookabovecomb" horiz-adv-x="0" unicode="̉"/><glyph d="M219 469q0 32 20.5 50.5t48.5 18.5t46 -17t17 -43q0 -32 -20.5 -51t-48.5 -18q-28 0 -45.5 16.5t-17.5 43.5zM237 471q0 -20 13 -33t31 -13q20 0 36.5 13.5t16.5 36.5q0 20 -13 33.5t-32 13.5q-20 0 -36 -13.5t-16 -37.5z" glyph-name="uni030A" horiz-adv-x="0" unicode="̊"/><glyph d="M284 613q-27 -33 -54 -66.5t-54 -66.5h-19q26 33 53 66.5t53 66.5h21zM397 613q-27 -33 -54 -66.5t-54 -66.5h-19q26 33 53 66.5t53 66.5h21z" glyph-name="uni030B" horiz-adv-x="0" unicode="̋"/><glyph d="M211 661l87 -157h-11l128 157h21l-145 -181h-1l-100 181h21z" glyph-name="uni030C" horiz-adv-x="0" unicode="̌"/><glyph d="M82 613l73 -133h-19l-76 133h22zM164 613l73 -133h-19l-76 133h22z" glyph-name="uni030F" horiz-adv-x="0" unicode="̏"/><glyph d="M347 658q20 0 41.5 -8t39 -26.5t27 -48.5t5.5 -74h-17q4 50 -10.5 80.5t-38.5 45t-48 14.5q-32 0 -56 -20t-39 -52t-21 -68h-18q6 43 24.5 79t47 57.5t63.5 20.5z" glyph-name="uni0311" horiz-adv-x="0" unicode="̑"/><glyph d="M179 725l9 -9q-30 -19 -45 -51t-15 -75l-21 1q0 26 6.5 52t22 48t43.5 34z" glyph-name="uni0312" horiz-adv-x="0" unicode="̒"/><glyph d="M153 706q51 -4 78.5 15.5t35.5 81.5h18q-7 -53 -25 -78t-46 -31.5t-63 -3.5z" glyph-name="uni031B" horiz-adv-x="0" unicode="̛"/><glyph d="M31 -95q0 10 8 17t18 7q9 0 14.5 -6t5.5 -14q0 -10 -8 -17t-17 -7q-10 0 -15.5 6.5t-5.5 13.5z" glyph-name="dotbelowcomb" horiz-adv-x="0" unicode="̣"/><glyph d="M29 -106q0 10 7 16.5t16 6.5q9 -1 15.5 -7.5t6.5 -15.5q-1 -9 -7.5 -15.5t-15.5 -6.5t-15.5 6.5t-6.5 15.5v0zM196 -106q0 10 6.5 16.5t15.5 6.5q9 -1 15.5 -7.5t6.5 -15.5t-7 -15.5t-16 -6.5t-15.5 6.5t-5.5 15.5v0z" glyph-name="uni0324" horiz-adv-x="0" unicode="̤"/><glyph d="M12 -181l-9 9q30 18 45 50.5t15 75.5l21 -1q0 -26 -6.5 -52t-22 -48t-43.5 -34z" glyph-name="uni0326" horiz-adv-x="0" unicode="̦"/><glyph d="M134 -175q10 -12 29 -20.5t45 -10.5q41 -2 67 12t30 43q3 27 -15 46.5t-60 22.5q-17 0 -39.5 -3t-34.5 -8l-13 14l84 84l15 -9l-78 -80l-15 5q12 7 37 11.5t48 2.5q48 -3 71.5 -26t19.5 -61q-3 -26 -19.5 -42.5t-42 -23t-55.5 -4.5q-28 1 -50 10t-35 22z" glyph-name="uni0327" horiz-adv-x="0" unicode="̧"/><glyph d="M144 -188q-29 0 -50.5 21.5t-21.5 55.5q0 25 13.5 48t36 42.5t49.5 32.5l14 -12q-45 -25 -69 -53t-24 -57q-1 -28 16 -44t38 -16q19 0 35 13t27 32l12 -9q-11 -22 -31 -38t-45 -16z" glyph-name="uni0328" horiz-adv-x="0" unicode="̨"/><glyph d="M231 -192q-21 0 -42 8t-39 26.5t-27 48.5t-5 75h17q-4 -51 10 -81.5t38.5 -45t48.5 -14.5q32 0 56 20t39 52t21 69h17q-6 -44 -24 -80t-46.5 -57t-63.5 -21z" glyph-name="uni032E" horiz-adv-x="0" unicode="̮"/><glyph d="M44 -102h231l-3 -16h-230z" glyph-name="uni0331" horiz-adv-x="0" unicode="̱"/><glyph d="M65 229h232l-3 -20h-232z" glyph-name="uni0335" horiz-adv-x="0" unicode="̵"/><glyph d="M39 0l405 734h5l222 -734h-632zM646 6l-208 706l13 -4l-386 -699l-6 10h596z" glyph-name="uni0394" horiz-adv-x="757" unicode="Δ"/><glyph d="M188 -8q-53 0 -81.5 29.5t-22.5 79.5l33 277h20l-34 -277q-5 -37 18.5 -63t71.5 -28q40 0 79 19.5t65.5 53.5t31.5 77l27 218h20l-47 -378h-16l13 115l1 -7q-12 -31 -40.5 -57.5t-65 -42.5t-73.5 -16zM116 362h18l-73 -594h-18z" glyph-name="uni03BC" horiz-adv-x="487" unicode="μ"/><glyph d="M41 322h273l-3 -19h-39l-38 -303h-19l38 303h-145l-37 -303h-19l37 303h-51z" glyph-name="pi" horiz-adv-x="274" unicode="π"/><glyph d="M116 701h22l173 -692l-7 1l202 414l8 -23l-212 -433zM431 701h21l176 -697l-10 4l353 693h21l-375 -733zM525 937l73 -133h-19l-76 133h22z" glyph-name="Wgrave" horiz-adv-x="983" unicode="Ẁ"/><glyph d="M420 -22l-88 274l-143 -274h-3l-129 400h20l119 -370l-7 4l136 260l-35 106h20l119 -368h-7l206 368h20l-225 -400h-3zM294 613l73 -133h-19l-76 133h22z" glyph-name="wgrave" horiz-adv-x="659" unicode="ẁ"/><glyph d="M116 701h22l173 -692l-7 1l202 414l8 -23l-212 -433zM431 701h21l176 -697l-10 4l353 693h21l-375 -733zM727 937l-107 -133h-19l104 133h22z" glyph-name="Wacute" horiz-adv-x="983" unicode="Ẃ"/><glyph d="M420 -22l-88 274l-143 -274h-3l-129 400h20l119 -370l-7 4l136 260l-35 106h20l119 -368h-7l206 368h20l-225 -400h-3zM495 613l-107 -133h-19l104 133h22z" glyph-name="wacute" horiz-adv-x="659" unicode="ẃ"/><glyph d="M116 701h22l173 -692l-7 1l202 414l8 -23l-212 -433zM431 701h21l176 -697l-10 4l353 693h21l-375 -733zM487 826q0 10 7 16.5t16 6.5q9 -1 15.5 -7.5t6.5 -15.5q-1 -9 -7.5 -15.5t-15.5 -6.5t-15.5 6.5t-6.5 15.5v0zM654 826q0 10 6.5 16.5t15.5 6.5q9 -1 15.5 -7.5 t6.5 -15.5t-7 -15.5t-16 -6.5t-15.5 6.5t-5.5 15.5v0z" glyph-name="Wdieresis" horiz-adv-x="983" unicode="Ẅ"/><glyph d="M420 -22l-88 274l-143 -274h-3l-129 400h20l119 -370l-7 4l136 260l-35 106h20l119 -368h-7l206 368h20l-225 -400h-3zM256 502q0 10 7 16.5t16 6.5q9 -1 15.5 -7.5t6.5 -15.5q-1 -9 -7.5 -15.5t-15.5 -6.5t-15.5 6.5t-6.5 15.5v0zM423 502q0 10 6.5 16.5t15.5 6.5 q9 -1 15.5 -7.5t6.5 -15.5t-7 -15.5t-16 -6.5t-15.5 6.5t-5.5 15.5v0z" glyph-name="wdieresis" horiz-adv-x="659" unicode="ẅ"/><glyph d="M556 -8q-64 0 -106 15t-67 31l9 17q32 -19 74.5 -32t92.5 -13q34 0 72.5 16t68 46.5t34.5 74.5q5 39 -14 64.5t-51.5 44.5t-66.5 41q-41 21 -77 46t-57 58.5t-15 78.5q4 38 25.5 74t60.5 60.5t99 27.5q37 0 55 -9t30 -16l-7 -7q-40 39 -100.5 61.5t-124.5 22.5 q-87 0 -157 -37t-115.5 -115t-60.5 -199l-42 -343h-20l42 347q14 108 56 190t116 128.5t181 46.5q62 0 113 -16.5t88.5 -42t58.5 -53.5l-12 -14q-7 6 -33.5 22.5t-68.5 16.5q-38 0 -74 -18.5t-60 -49.5t-28 -70q-6 -44 14 -74.5t54 -54t73 -45.5q28 -16 54 -31.5t46.5 -33.5 t31 -42t6.5 -57q-5 -43 -32 -78.5t-70 -57t-96 -21.5z" glyph-name="uni1E9E" horiz-adv-x="834" unicode="ẞ"/><glyph d="M60 0h-21l381 734h3l200 -734h-21l-191 700l14 3zM195 281h344l-1 -18h-347zM297 -95q0 10 8 17t18 7q9 0 14.5 -6t5.5 -14q0 -10 -8 -17t-17 -7q-10 0 -15.5 6.5t-5.5 13.5z" glyph-name="uni1EA0" horiz-adv-x="709" unicode="Ạ"/><glyph d="M238 -5q-53 0 -94.5 24.5t-65 65.5t-23.5 92q0 30 11 66t35 68.5t63.5 53.5t96.5 21q45 0 82 -17t62.5 -46.5t36.5 -67.5l-5 -12l21 135h15l-45 -378h-19l14 120l1 -15q-13 -24 -32.5 -44t-43.5 -35t-52 -23t-58 -8zM243 12q47 0 87 20t66.5 56t33.5 82l4 41 q-3 44 -26 79.5t-61 56.5t-85 21q-52 0 -88 -19.5t-58 -49.5t-31.5 -62.5t-9.5 -57.5q0 -46 21.5 -84t59.5 -60.5t87 -22.5zM186 -96q0 10 8 17t18 7q9 0 14.5 -6t5.5 -14q0 -10 -8 -17t-17 -7q-10 0 -15.5 6.5t-5.5 13.5z" glyph-name="uni1EA1" horiz-adv-x="545" unicode="ạ"/><glyph d="M60 0h-21l381 734h3l200 -734h-21l-191 700l14 3zM195 281h344l-1 -18h-347zM419 788q25 19 43 33.5t21 35.5t-5 35t-31 15q-19 2 -32.5 -6t-30.5 -27l-11 8q18 23 36.5 32.5t40.5 8.5q20 -1 36.5 -15.5t11.5 -49.5q-3 -26 -23 -43t-48 -36z" glyph-name="uni1EA2" horiz-adv-x="709" unicode="Ả"/><glyph d="M238 -5q-53 0 -94.5 24.5t-65 65.5t-23.5 92q0 30 11 66t35 68.5t63.5 53.5t96.5 21q45 0 82 -17t62.5 -46.5t36.5 -67.5l-5 -12l21 135h15l-45 -378h-19l14 120l1 -15q-13 -24 -32.5 -44t-43.5 -35t-52 -23t-58 -8zM243 12q47 0 87 20t66.5 56t33.5 82l4 41 q-3 44 -26 79.5t-61 56.5t-85 21q-52 0 -88 -19.5t-58 -49.5t-31.5 -62.5t-9.5 -57.5q0 -46 21.5 -84t59.5 -60.5t87 -22.5zM261 440q25 19 43 33.5t21 35.5t-5 35t-31 15q-19 2 -32.5 -6t-30.5 -27l-11 8q18 23 36.5 32.5t40.5 8.5q20 -1 36.5 -15.5t11.5 -49.5 q-3 -26 -23 -43t-48 -36z" glyph-name="uni1EA3" horiz-adv-x="545" unicode="ả"/><glyph d="M60 0h-21l381 734h3l200 -734h-21l-191 700l14 3zM195 281h344l-1 -18h-347zM502 829l-87 156h9l-126 -156h-21l145 181v0l101 -181h-21zM658 1135l-107 -133h-19l104 133h22z" glyph-name="uni1EA4" horiz-adv-x="709" unicode="Ấ"/><glyph d="M238 -5q-53 0 -94.5 24.5t-65 65.5t-23.5 92q0 30 11 66t35 68.5t63.5 53.5t96.5 21q45 0 82 -17t62.5 -46.5t36.5 -67.5l-5 -12l21 135h15l-45 -378h-19l14 120l1 -15q-13 -24 -32.5 -44t-43.5 -35t-52 -23t-58 -8zM243 12q47 0 87 20t66.5 56t33.5 82l4 41 q-3 44 -26 79.5t-61 56.5t-85 21q-52 0 -88 -19.5t-58 -49.5t-31.5 -62.5t-9.5 -57.5q0 -46 21.5 -84t59.5 -60.5t87 -22.5zM345 482l-87 156h9l-126 -156h-21l145 181v0l101 -181h-21zM501 788l-107 -133h-19l104 133h22z" glyph-name="uni1EA5" horiz-adv-x="545" unicode="ấ"/><glyph d="M60 0h-21l381 734h3l200 -734h-21l-191 700l14 3zM195 281h344l-1 -18h-347zM527 772l-87 156h9l-126 -156h-21l145 181v0l101 -181h-21zM272 1015l73 -133h-19l-76 133h22z" glyph-name="uni1EA6" horiz-adv-x="709" unicode="Ầ"/><glyph d="M238 -5q-53 0 -94.5 24.5t-65 65.5t-23.5 92q0 30 11 66t35 68.5t63.5 53.5t96.5 21q45 0 82 -17t62.5 -46.5t36.5 -67.5l-5 -12l21 135h15l-45 -378h-19l14 120l1 -15q-13 -24 -32.5 -44t-43.5 -35t-52 -23t-58 -8zM243 12q47 0 87 20t66.5 56t33.5 82l4 41 q-3 44 -26 79.5t-61 56.5t-85 21q-52 0 -88 -19.5t-58 -49.5t-31.5 -62.5t-9.5 -57.5q0 -46 21.5 -84t59.5 -60.5t87 -22.5zM369 424l-87 156h9l-126 -156h-21l145 181v0l101 -181h-21zM114 667l73 -133h-19l-76 133h22z" glyph-name="uni1EA7" horiz-adv-x="545" unicode="ầ"/><glyph d="M60 0h-21l381 734h3l200 -734h-21l-191 700l14 3zM195 281h344l-1 -18h-347zM524 772l-87 156h9l-126 -156h-21l145 181v0l101 -181h-21zM547 885q25 19 43 33.5t21 35.5t-5 35t-31 15q-19 2 -32.5 -6t-30.5 -27l-11 8q18 23 36.5 32.5t40.5 8.5q20 -1 36.5 -15.5 t11.5 -49.5q-3 -26 -23 -43t-48 -36z" glyph-name="uni1EA8" horiz-adv-x="709" unicode="Ẩ"/><glyph d="M238 -5q-53 0 -94.5 24.5t-65 65.5t-23.5 92q0 30 11 66t35 68.5t63.5 53.5t96.5 21q45 0 82 -17t62.5 -46.5t36.5 -67.5l-5 -12l21 135h15l-45 -378h-19l14 120l1 -15q-13 -24 -32.5 -44t-43.5 -35t-52 -23t-58 -8zM243 12q47 0 87 20t66.5 56t33.5 82l4 41 q-3 44 -26 79.5t-61 56.5t-85 21q-52 0 -88 -19.5t-58 -49.5t-31.5 -62.5t-9.5 -57.5q0 -46 21.5 -84t59.5 -60.5t87 -22.5zM367 424l-87 156h9l-126 -156h-21l145 181v0l101 -181h-21zM390 537q25 19 43 33.5t21 35.5t-5 35t-31 15q-19 2 -32.5 -6t-30.5 -27l-11 8 q18 23 36.5 32.5t40.5 8.5q20 -1 36.5 -15.5t11.5 -49.5q-3 -26 -23 -43t-48 -36z" glyph-name="uni1EA9" horiz-adv-x="545" unicode="ẩ"/><glyph d="M60 0h-21l381 734h3l200 -734h-21l-191 700l14 3zM195 281h344l-1 -18h-347zM530 1008q-27 1 -42.5 16.5t-28.5 33.5q-11 16 -23.5 30t-32.5 15q-11 1 -25.5 -6t-27 -26.5t-19.5 -57.5l-16 3q7 38 21 61.5t32 34t36 9.5q28 -2 43 -17.5t27 -33.5q11 -16 24 -29.5 t35 -14.5q20 -2 39 15.5t29 73.5l16 -3q-6 -38 -19 -61.5t-30.5 -33.5t-37.5 -9zM524 762l-87 156h9l-126 -156h-21l145 181v0l101 -181h-21z" glyph-name="uni1EAA" horiz-adv-x="709" unicode="Ẫ"/><glyph d="M238 -5q-53 0 -94.5 24.5t-65 65.5t-23.5 92q0 30 11 66t35 68.5t63.5 53.5t96.5 21q45 0 82 -17t62.5 -46.5t36.5 -67.5l-5 -12l21 135h15l-45 -378h-19l14 120l1 -15q-13 -24 -32.5 -44t-43.5 -35t-52 -23t-58 -8zM243 12q47 0 87 20t66.5 56t33.5 82l4 41 q-3 44 -26 79.5t-61 56.5t-85 21q-52 0 -88 -19.5t-58 -49.5t-31.5 -62.5t-9.5 -57.5q0 -46 21.5 -84t59.5 -60.5t87 -22.5zM373 660q-27 1 -42.5 16.5t-28.5 33.5q-11 16 -23.5 30t-32.5 15q-11 1 -25.5 -6t-27 -26.5t-19.5 -57.5l-16 3q7 38 21 61.5t32 34t36 9.5 q28 -2 43 -17.5t27 -33.5q11 -16 24 -29.5t35 -14.5q20 -2 39 15.5t29 73.5l16 -3q-6 -38 -19 -61.5t-30.5 -33.5t-37.5 -9zM367 414l-87 156h9l-126 -156h-21l145 181v0l101 -181h-21z" glyph-name="uni1EAB" horiz-adv-x="545" unicode="ẫ"/><glyph d="M60 0h-21l381 734h3l200 -734h-21l-191 700l14 3zM195 281h344l-1 -18h-347zM297 -95q0 10 8 17t18 7q9 0 14.5 -6t5.5 -14q0 -10 -8 -17t-17 -7q-10 0 -15.5 6.5t-5.5 13.5zM529 829l-87 156h9l-126 -156h-21l145 181v0l101 -181h-21z" glyph-name="uni1EAC" horiz-adv-x="709" unicode="Ậ"/><glyph d="M238 -5q-53 0 -94.5 24.5t-65 65.5t-23.5 92q0 30 11 66t35 68.5t63.5 53.5t96.5 21q45 0 82 -17t62.5 -46.5t36.5 -67.5l-5 -12l21 135h15l-45 -378h-19l14 120l1 -15q-13 -24 -32.5 -44t-43.5 -35t-52 -23t-58 -8zM243 12q47 0 87 20t66.5 56t33.5 82l4 41 q-3 44 -26 79.5t-61 56.5t-85 21q-52 0 -88 -19.5t-58 -49.5t-31.5 -62.5t-9.5 -57.5q0 -46 21.5 -84t59.5 -60.5t87 -22.5zM186 -96q0 10 8 17t18 7q9 0 14.5 -6t5.5 -14q0 -10 -8 -17t-17 -7q-10 0 -15.5 6.5t-5.5 13.5zM371 482l-87 156h9l-126 -156h-21l145 181v0 l101 -181h-21z" glyph-name="uni1EAD" horiz-adv-x="545" unicode="ậ"/><glyph d="M60 0h-21l381 734h3l200 -734h-21l-191 700l14 3zM195 281h344l-1 -18h-347zM447 849q-21 0 -42 8t-39 26.5t-27 48.5t-5 75h17q-4 -51 10 -81.5t38.5 -45t48.5 -14.5q32 0 56 20t39 52t21 69h17q-6 -44 -24 -80t-46.5 -57t-63.5 -21zM598 1213l-107 -133h-19l104 133h22 z" glyph-name="uni1EAE" horiz-adv-x="709" unicode="Ắ"/><glyph d="M238 -5q-53 0 -94.5 24.5t-65 65.5t-23.5 92q0 30 11 66t35 68.5t63.5 53.5t96.5 21q45 0 82 -17t62.5 -46.5t36.5 -67.5l-5 -12l21 135h15l-45 -378h-19l14 120l1 -15q-13 -24 -32.5 -44t-43.5 -35t-52 -23t-58 -8zM243 12q47 0 87 20t66.5 56t33.5 82l4 41 q-3 44 -26 79.5t-61 56.5t-85 21q-52 0 -88 -19.5t-58 -49.5t-31.5 -62.5t-9.5 -57.5q0 -46 21.5 -84t59.5 -60.5t87 -22.5zM289 502q-21 0 -42 8t-39 26.5t-27 48.5t-5 75h17q-4 -51 10 -81.5t38.5 -45t48.5 -14.5q32 0 56 20t39 52t21 69h17q-6 -44 -24 -80t-46.5 -57 t-63.5 -21zM440 866l-107 -133h-19l104 133h22z" glyph-name="uni1EAF" horiz-adv-x="545" unicode="ắ"/><glyph d="M60 0h-21l381 734h3l200 -734h-21l-191 700l14 3zM195 281h344l-1 -18h-347zM445 849q-21 0 -42 8t-39 26.5t-27 48.5t-5 75h17q-4 -51 10 -81.5t38.5 -45t48.5 -14.5q32 0 56 20t39 52t21 69h17q-6 -44 -24 -80t-46.5 -57t-63.5 -21zM395 1128l73 -133h-19l-76 133h22z" glyph-name="uni1EB0" horiz-adv-x="709" unicode="Ằ"/><glyph d="M238 -5q-53 0 -94.5 24.5t-65 65.5t-23.5 92q0 30 11 66t35 68.5t63.5 53.5t96.5 21q45 0 82 -17t62.5 -46.5t36.5 -67.5l-5 -12l21 135h15l-45 -378h-19l14 120l1 -15q-13 -24 -32.5 -44t-43.5 -35t-52 -23t-58 -8zM243 12q47 0 87 20t66.5 56t33.5 82l4 41 q-3 44 -26 79.5t-61 56.5t-85 21q-52 0 -88 -19.5t-58 -49.5t-31.5 -62.5t-9.5 -57.5q0 -46 21.5 -84t59.5 -60.5t87 -22.5zM288 502q-21 0 -42 8t-39 26.5t-27 48.5t-5 75h17q-4 -51 10 -81.5t38.5 -45t48.5 -14.5q32 0 56 20t39 52t21 69h17q-6 -44 -24 -80t-46.5 -57 t-63.5 -21zM238 781l73 -133h-19l-76 133h22z" glyph-name="uni1EB1" horiz-adv-x="545" unicode="ằ"/><glyph d="M60 0h-21l381 734h3l200 -734h-21l-191 700l14 3zM195 281h344l-1 -18h-347zM445 811q-21 0 -42 8t-39 26.5t-27 48.5t-5 75h17q-4 -51 10 -81.5t38.5 -45t48.5 -14.5q32 0 56 20t39 52t21 69h17q-6 -44 -24 -80t-46.5 -57t-63.5 -21zM440 1020q25 19 43 33.5t21 35.5 t-5 35t-31 15q-19 2 -32.5 -6t-30.5 -27l-11 8q18 23 36.5 32.5t40.5 8.5q20 -1 36.5 -15.5t11.5 -49.5q-3 -26 -23 -43t-48 -36z" glyph-name="uni1EB2" horiz-adv-x="709" unicode="Ẳ"/><glyph d="M238 -5q-53 0 -94.5 24.5t-65 65.5t-23.5 92q0 30 11 66t35 68.5t63.5 53.5t96.5 21q45 0 82 -17t62.5 -46.5t36.5 -67.5l-5 -12l21 135h15l-45 -378h-19l14 120l1 -15q-13 -24 -32.5 -44t-43.5 -35t-52 -23t-58 -8zM243 12q47 0 87 20t66.5 56t33.5 82l4 41 q-3 44 -26 79.5t-61 56.5t-85 21q-52 0 -88 -19.5t-58 -49.5t-31.5 -62.5t-9.5 -57.5q0 -46 21.5 -84t59.5 -60.5t87 -22.5zM287 463q-21 0 -42 8t-39 26.5t-27 48.5t-5 75h17q-4 -51 10 -81.5t38.5 -45t48.5 -14.5q32 0 56 20t39 52t21 69h17q-6 -44 -24 -80t-46.5 -57 t-63.5 -21zM282 672q25 19 43 33.5t21 35.5t-5 35t-31 15q-19 2 -32.5 -6t-30.5 -27l-11 8q18 23 36.5 32.5t40.5 8.5q20 -1 36.5 -15.5t11.5 -49.5q-3 -26 -23 -43t-48 -36z" glyph-name="uni1EB3" horiz-adv-x="545" unicode="ẳ"/><glyph d="M60 0h-21l381 734h3l200 -734h-21l-191 700l14 3zM195 281h344l-1 -18h-347zM515 1062q-27 1 -42.5 16.5t-28.5 33.5q-11 16 -23.5 30t-32.5 15q-12 1 -26 -6t-26.5 -26.5t-19.5 -57.5l-16 3q6 38 20.5 61.5t32.5 34t36 9.5q28 -2 43 -17.5t27 -33.5q11 -16 24 -29.5 t34 -14.5q21 -2 40 15.5t29 73.5l16 -3q-6 -38 -19 -61.5t-30.5 -33.5t-37.5 -9zM427 849q-21 0 -42.5 8t-39 26.5t-26.5 48.5t-5 75h17q-5 -51 9.5 -81.5t38.5 -45t49 -14.5q31 0 55 20t39.5 52t21.5 69h17q-6 -44 -24 -80t-46.5 -57t-63.5 -21z" glyph-name="uni1EB4" horiz-adv-x="709" unicode="Ẵ"/><glyph d="M238 -5q-53 0 -94.5 24.5t-65 65.5t-23.5 92q0 30 11 66t35 68.5t63.5 53.5t96.5 21q45 0 82 -17t62.5 -46.5t36.5 -67.5l-5 -12l21 135h15l-45 -378h-19l14 120l1 -15q-13 -24 -32.5 -44t-43.5 -35t-52 -23t-58 -8zM243 12q47 0 87 20t66.5 56t33.5 82l4 41 q-3 44 -26 79.5t-61 56.5t-85 21q-52 0 -88 -19.5t-58 -49.5t-31.5 -62.5t-9.5 -57.5q0 -46 21.5 -84t59.5 -60.5t87 -22.5zM358 715q-27 1 -42.5 16.5t-28.5 33.5q-11 16 -23.5 30t-32.5 15q-12 1 -26 -6t-26.5 -26.5t-19.5 -57.5l-16 3q6 38 20.5 61.5t32.5 34t36 9.5 q28 -2 43 -17.5t27 -33.5q11 -16 24 -29.5t34 -14.5q21 -2 40 15.5t29 73.5l16 -3q-6 -38 -19 -61.5t-30.5 -33.5t-37.5 -9zM270 502q-21 0 -42.5 8t-39 26.5t-26.5 48.5t-5 75h17q-5 -51 9.5 -81.5t38.5 -45t49 -14.5q31 0 55 20t39.5 52t21.5 69h17q-6 -44 -24 -80 t-46.5 -57t-63.5 -21z" glyph-name="uni1EB5" horiz-adv-x="545" unicode="ẵ"/><glyph d="M60 0h-21l381 734h3l200 -734h-21l-191 700l14 3zM195 281h344l-1 -18h-347zM297 -95q0 10 8 17t18 7q9 0 14.5 -6t5.5 -14q0 -10 -8 -17t-17 -7q-10 0 -15.5 6.5t-5.5 13.5zM445 811q-21 0 -42 8t-39 26.5t-27 48.5t-5 75h17q-4 -51 10 -81.5t38.5 -45t48.5 -14.5 q32 0 56 20t39 52t21 69h17q-6 -44 -24 -80t-46.5 -57t-63.5 -21z" glyph-name="uni1EB6" horiz-adv-x="709" unicode="Ặ"/><glyph d="M238 -5q-53 0 -94.5 24.5t-65 65.5t-23.5 92q0 30 11 66t35 68.5t63.5 53.5t96.5 21q45 0 82 -17t62.5 -46.5t36.5 -67.5l-5 -12l21 135h15l-45 -378h-19l14 120l1 -15q-13 -24 -32.5 -44t-43.5 -35t-52 -23t-58 -8zM243 12q47 0 87 20t66.5 56t33.5 82l4 41 q-3 44 -26 79.5t-61 56.5t-85 21q-52 0 -88 -19.5t-58 -49.5t-31.5 -62.5t-9.5 -57.5q0 -46 21.5 -84t59.5 -60.5t87 -22.5zM186 -96q0 10 8 17t18 7q9 0 14.5 -6t5.5 -14q0 -10 -8 -17t-17 -7q-10 0 -15.5 6.5t-5.5 13.5zM287 463q-21 0 -42 8t-39 26.5t-27 48.5t-5 75h17 q-4 -51 10 -81.5t38.5 -45t48.5 -14.5q32 0 56 20t39 52t21 69h17q-6 -44 -24 -80t-46.5 -57t-63.5 -21z" glyph-name="uni1EB7" horiz-adv-x="545" unicode="ặ"/><glyph d="M182 702h419l-3 -20h-399l-39 -319h360l-3 -19h-360l-39 -324h413l-2 -20h-433zM260 -95q0 10 8 17t18 7q9 0 14.5 -6t5.5 -14q0 -10 -8 -17t-17 -7q-10 0 -15.5 6.5t-5.5 13.5z" glyph-name="uni1EB8" horiz-adv-x="631" unicode="Ẹ"/><glyph d="M242 11q32 0 62 11t54 30l11 -15q-27 -20 -60 -31.5t-68 -11.5q-55 0 -97 24.5t-65.5 66t-23.5 92.5q0 43 16.5 80.5t45 66.5t66 45t79.5 16q35 0 62.5 -10t49 -28.5t36 -43.5t22.5 -56l-358 -117l-4 18l348 112l-8 -9q-15 48 -52.5 82t-94.5 34q-51 0 -94 -25t-68.5 -68 t-25.5 -95q0 -43 20 -81.5t57.5 -62.5t89.5 -24zM178 -96q0 10 8 17t18 7q9 0 14.5 -6t5.5 -14q0 -10 -8 -17t-17 -7q-10 0 -15.5 6.5t-5.5 13.5z" glyph-name="uni1EB9" horiz-adv-x="470" unicode="ẹ"/><glyph d="M182 702h419l-3 -20h-399l-39 -319h360l-3 -19h-360l-39 -324h413l-2 -20h-433zM372 762q25 19 43 33.5t21 35.5t-5 35t-31 15q-19 2 -32.5 -6t-30.5 -27l-11 8q18 23 36.5 32.5t40.5 8.5q20 -1 36.5 -15.5t11.5 -49.5q-3 -26 -23 -43t-48 -36z" glyph-name="uni1EBA" horiz-adv-x="631" unicode="Ẻ"/><glyph d="M242 11q32 0 62 11t54 30l11 -15q-27 -20 -60 -31.5t-68 -11.5q-55 0 -97 24.5t-65.5 66t-23.5 92.5q0 43 16.5 80.5t45 66.5t66 45t79.5 16q35 0 62.5 -10t49 -28.5t36 -43.5t22.5 -56l-358 -117l-4 18l348 112l-8 -9q-15 48 -52.5 82t-94.5 34q-51 0 -94 -25t-68.5 -68 t-25.5 -95q0 -43 20 -81.5t57.5 -62.5t89.5 -24zM252 441q25 19 43 33.5t21 35.5t-5 35t-31 15q-19 2 -32.5 -6t-30.5 -27l-11 8q18 23 36.5 32.5t40.5 8.5q20 -1 36.5 -15.5t11.5 -49.5q-3 -26 -23 -43t-48 -36z" glyph-name="uni1EBB" horiz-adv-x="470" unicode="ẻ"/><glyph d="M182 702h419l-3 -20h-399l-39 -319h360l-3 -19h-360l-39 -324h413l-2 -20h-433zM465 768q-27 1 -42.5 16.5t-29.5 33.5q-11 16 -23 30t-33 15q-11 1 -25.5 -6t-27 -26.5t-19.5 -57.5l-16 3q6 38 20.5 62t32.5 34t36 9q28 -1 43.5 -17t27.5 -34q11 -16 24 -29.5t35 -15.5 q13 -1 26.5 6t24.5 27t17 58l16 -3q-6 -39 -19 -62.5t-30.5 -34t-37.5 -8.5z" glyph-name="uni1EBC" horiz-adv-x="631" unicode="Ẽ"/><glyph d="M242 11q32 0 62 11t54 30l11 -15q-27 -20 -60 -31.5t-68 -11.5q-55 0 -97 24.5t-65.5 66t-23.5 92.5q0 43 16.5 80.5t45 66.5t66 45t79.5 16q35 0 62.5 -10t49 -28.5t36 -43.5t22.5 -56l-358 -117l-4 18l348 112l-8 -9q-15 48 -52.5 82t-94.5 34q-51 0 -94 -25t-68.5 -68 t-25.5 -95q0 -43 20 -81.5t57.5 -62.5t89.5 -24zM345 446q-27 1 -42.5 16.5t-29.5 33.5q-11 16 -23 30t-33 15q-11 1 -25.5 -6t-27 -26.5t-19.5 -57.5l-16 3q6 38 20.5 62t32.5 34t36 9q28 -1 43.5 -17t27.5 -34q11 -16 24 -29.5t35 -15.5q13 -1 26.5 6t24.5 27t17 58l16 -3 q-6 -39 -19 -62.5t-30.5 -34t-37.5 -8.5z" glyph-name="uni1EBD" horiz-adv-x="470" unicode="ẽ"/><glyph d="M182 702h419l-3 -20h-399l-39 -319h360l-3 -19h-360l-39 -324h413l-2 -20h-433zM456 804l-87 156h9l-126 -156h-21l145 181v0l101 -181h-21zM612 1110l-107 -133h-19l104 133h22z" glyph-name="uni1EBE" horiz-adv-x="631" unicode="Ế"/><glyph d="M242 11q32 0 62 11t54 30l11 -15q-27 -20 -60 -31.5t-68 -11.5q-55 0 -97 24.5t-65.5 66t-23.5 92.5q0 43 16.5 80.5t45 66.5t66 45t79.5 16q35 0 62.5 -10t49 -28.5t36 -43.5t22.5 -56l-358 -117l-4 18l348 112l-8 -9q-15 48 -52.5 82t-94.5 34q-51 0 -94 -25t-68.5 -68 t-25.5 -95q0 -43 20 -81.5t57.5 -62.5t89.5 -24zM336 482l-87 156h9l-126 -156h-21l145 181v0l101 -181h-21zM492 788l-107 -133h-19l104 133h22z" glyph-name="uni1EBF" horiz-adv-x="470" unicode="ế"/><glyph d="M182 702h419l-3 -20h-399l-39 -319h360l-3 -19h-360l-39 -324h413l-2 -20h-433zM480 746l-87 156h9l-126 -156h-21l145 181v0l101 -181h-21zM225 989l73 -133h-19l-76 133h22z" glyph-name="uni1EC0" horiz-adv-x="631" unicode="Ề"/><glyph d="M242 11q32 0 62 11t54 30l11 -15q-27 -20 -60 -31.5t-68 -11.5q-55 0 -97 24.5t-65.5 66t-23.5 92.5q0 43 16.5 80.5t45 66.5t66 45t79.5 16q35 0 62.5 -10t49 -28.5t36 -43.5t22.5 -56l-358 -117l-4 18l348 112l-8 -9q-15 48 -52.5 82t-94.5 34q-51 0 -94 -25t-68.5 -68 t-25.5 -95q0 -43 20 -81.5t57.5 -62.5t89.5 -24zM360 424l-87 156h9l-126 -156h-21l145 181v0l101 -181h-21zM105 667l73 -133h-19l-76 133h22z" glyph-name="uni1EC1" horiz-adv-x="470" unicode="ề"/><glyph d="M182 702h419l-3 -20h-399l-39 -319h360l-3 -19h-360l-39 -324h413l-2 -20h-433zM478 746l-87 156h9l-126 -156h-21l145 181v0l101 -181h-21zM501 859q25 19 43 33.5t21 35.5t-5 35t-31 15q-19 2 -32.5 -6t-30.5 -27l-11 8q18 23 36.5 32.5t40.5 8.5q20 -1 36.5 -15.5 t11.5 -49.5q-3 -26 -23 -43t-48 -36z" glyph-name="uni1EC2" horiz-adv-x="631" unicode="Ể"/><glyph d="M242 11q32 0 62 11t54 30l11 -15q-27 -20 -60 -31.5t-68 -11.5q-55 0 -97 24.5t-65.5 66t-23.5 92.5q0 43 16.5 80.5t45 66.5t66 45t79.5 16q35 0 62.5 -10t49 -28.5t36 -43.5t22.5 -56l-358 -117l-4 18l348 112l-8 -9q-15 48 -52.5 82t-94.5 34q-51 0 -94 -25t-68.5 -68 t-25.5 -95q0 -43 20 -81.5t57.5 -62.5t89.5 -24zM358 424l-87 156h9l-126 -156h-21l145 181v0l101 -181h-21zM381 537q25 19 43 33.5t21 35.5t-5 35t-31 15q-19 2 -32.5 -6t-30.5 -27l-11 8q18 23 36.5 32.5t40.5 8.5q20 -1 36.5 -15.5t11.5 -49.5q-3 -26 -23 -43t-48 -36z" glyph-name="uni1EC3" horiz-adv-x="470" unicode="ể"/><glyph d="M182 702h419l-3 -20h-399l-39 -319h360l-3 -19h-360l-39 -324h413l-2 -20h-433zM484 983q-27 1 -42.5 16.5t-28.5 33.5q-11 16 -23.5 30t-32.5 15q-11 1 -25.5 -6t-27 -26.5t-19.5 -57.5l-16 3q7 38 21 61.5t32 34t36 9.5q28 -2 43 -17.5t27 -33.5q11 -16 24 -29.5 t35 -14.5q20 -2 39 15.5t29 73.5l16 -3q-6 -38 -19 -61.5t-30.5 -33.5t-37.5 -9zM478 737l-87 156h9l-126 -156h-21l145 181v0l101 -181h-21z" glyph-name="uni1EC4" horiz-adv-x="631" unicode="Ễ"/><glyph d="M242 11q32 0 62 11t54 30l11 -15q-27 -20 -60 -31.5t-68 -11.5q-55 0 -97 24.5t-65.5 66t-23.5 92.5q0 43 16.5 80.5t45 66.5t66 45t79.5 16q35 0 62.5 -10t49 -28.5t36 -43.5t22.5 -56l-358 -117l-4 18l348 112l-8 -9q-15 48 -52.5 82t-94.5 34q-51 0 -94 -25t-68.5 -68 t-25.5 -95q0 -43 20 -81.5t57.5 -62.5t89.5 -24zM362 482l-87 156h9l-126 -156h-21l145 181v0l101 -181h-21zM369 729q-27 1 -42.5 16.5t-29.5 33.5q-11 16 -23 30t-33 15q-11 1 -25.5 -6t-27 -26.5t-19.5 -57.5l-16 3q6 38 20.5 62t32.5 34t36 9q28 -1 43.5 -17t27.5 -34 q11 -16 24 -29.5t35 -15.5q13 -1 26.5 6t24.5 27t17 58l16 -3q-6 -39 -19 -62.5t-30.5 -34t-37.5 -8.5z" glyph-name="uni1EC5" horiz-adv-x="470" unicode="ễ"/><glyph d="M182 702h419l-3 -20h-399l-39 -319h360l-3 -19h-360l-39 -324h413l-2 -20h-433zM260 -95q0 10 8 17t18 7q9 0 14.5 -6t5.5 -14q0 -10 -8 -17t-17 -7q-10 0 -15.5 6.5t-5.5 13.5zM482 804l-87 156h9l-126 -156h-21l145 181v0l101 -181h-21z" glyph-name="uni1EC6" horiz-adv-x="631" unicode="Ệ"/><glyph d="M242 11q32 0 62 11t54 30l11 -15q-27 -20 -60 -31.5t-68 -11.5q-55 0 -97 24.5t-65.5 66t-23.5 92.5q0 43 16.5 80.5t45 66.5t66 45t79.5 16q35 0 62.5 -10t49 -28.5t36 -43.5t22.5 -56l-358 -117l-4 18l348 112l-8 -9q-15 48 -52.5 82t-94.5 34q-51 0 -94 -25t-68.5 -68 t-25.5 -95q0 -43 20 -81.5t57.5 -62.5t89.5 -24zM178 -96q0 10 8 17t18 7q9 0 14.5 -6t5.5 -14q0 -10 -8 -17t-17 -7q-10 0 -15.5 6.5t-5.5 13.5zM362 482l-87 156h9l-126 -156h-21l145 181v0l101 -181h-21z" glyph-name="uni1EC7" horiz-adv-x="470" unicode="ệ"/><glyph d="M182 702h20l-86 -702h-20zM185 762q25 19 43 33.5t21 35.5t-5 35t-31 15q-19 2 -32.5 -6t-30.5 -27l-11 8q18 23 36.5 32.5t40.5 8.5q20 -1 36.5 -15.5t11.5 -49.5q-3 -26 -23 -43t-48 -36z" glyph-name="uni1EC8" horiz-adv-x="258" unicode="Ỉ"/><glyph d="M117 378h20l-47 -378h-19zM123 439q25 19 43 33.5t21 35.5t-5 35t-31 15q-19 2 -32.5 -6t-30.5 -27l-11 8q18 23 36.5 32.5t40.5 8.5q20 -1 36.5 -15.5t11.5 -49.5q-3 -26 -23 -43t-48 -36z" glyph-name="uni1EC9" horiz-adv-x="208" unicode="ỉ"/><glyph d="M182 702h20l-86 -702h-20zM70 -95q0 10 8 17t18 7q9 0 14.5 -6t5.5 -14q0 -10 -8 -17t-17 -7q-10 0 -15.5 6.5t-5.5 13.5z" glyph-name="uni1ECA" horiz-adv-x="258" unicode="Ị"/><glyph d="M117 378h20l-47 -378h-19zM122 500q0 10 8 17t18 7q9 0 14.5 -6t5.5 -14q0 -10 -8 -17t-17 -7q-10 0 -15.5 6.5t-5.5 13.5zM60 -95q0 10 8 17t18 7q9 0 14.5 -6t5.5 -14q0 -10 -8 -17t-17 -7q-10 0 -15.5 6.5t-5.5 13.5z" glyph-name="uni1ECB" horiz-adv-x="208" unicode="ị"/><glyph d="M432 -7q-72 0 -133.5 24.5t-107.5 68.5t-71.5 104.5t-25.5 133.5q0 66 25 133.5t73.5 124.5t119.5 92t164 35q71 0 132.5 -24.5t107.5 -69t71.5 -105t25.5 -132.5q0 -66 -25 -133.5t-73.5 -124.5t-119.5 -92t-163 -35zM432 12q85 0 152.5 33t114 87t70.5 118.5t24 126.5 q0 64 -24 120.5t-67 100t-101 68t-126 24.5q-86 0 -153 -33t-113.5 -87.5t-70.5 -118.5t-24 -127t23.5 -119.5t66.5 -100t101 -68t127 -24.5zM379 -95q0 10 8 17t18 7q9 0 14.5 -6t5.5 -14q0 -10 -8 -17t-17 -7q-10 0 -15.5 6.5t-5.5 13.5z" glyph-name="uni1ECC" unicode="Ọ"/><glyph d="M240 -6q-40 0 -73.5 13.5t-58.5 38t-39 58t-14 72.5q0 37 12.5 74t38 67.5t65 49t92.5 18.5q54 0 95.5 -23.5t65.5 -65t24 -93.5q0 -29 -8 -59t-24 -57t-41 -48t-58.5 -33t-76.5 -12zM241 11q64 0 105.5 28.5t61.5 72t20 90.5q0 34 -12 64t-34.5 53t-53 36t-66.5 13 q-64 0 -105.5 -28.5t-61.5 -72t-20 -89.5t21.5 -84t59 -60.5t85.5 -22.5zM184 -95q0 10 8 17t18 7q9 0 14.5 -6t5.5 -14q0 -10 -8 -17t-17 -7q-10 0 -15.5 6.5t-5.5 13.5z" glyph-name="uni1ECD" horiz-adv-x="502" unicode="ọ"/><glyph d="M432 -7q-72 0 -133.5 24.5t-107.5 68.5t-71.5 104.5t-25.5 133.5q0 66 25 133.5t73.5 124.5t119.5 92t164 35q71 0 132.5 -24.5t107.5 -69t71.5 -105t25.5 -132.5q0 -66 -25 -133.5t-73.5 -124.5t-119.5 -92t-163 -35zM432 12q85 0 152.5 33t114 87t70.5 118.5t24 126.5 q0 64 -24 120.5t-67 100t-101 68t-126 24.5q-86 0 -153 -33t-113.5 -87.5t-70.5 -118.5t-24 -127t23.5 -119.5t66.5 -100t101 -68t127 -24.5zM490 762q25 19 43 33.5t21 35.5t-5 35t-31 15q-19 2 -32.5 -6t-30.5 -27l-11 8q18 23 36.5 32.5t40.5 8.5q20 -1 36.5 -15.5 t11.5 -49.5q-3 -26 -23 -43t-48 -36z" glyph-name="uni1ECE" unicode="Ỏ"/><glyph d="M240 -6q-40 0 -73.5 13.5t-58.5 38t-39 58t-14 72.5q0 37 12.5 74t38 67.5t65 49t92.5 18.5q54 0 95.5 -23.5t65.5 -65t24 -93.5q0 -29 -8 -59t-24 -57t-41 -48t-58.5 -33t-76.5 -12zM241 11q64 0 105.5 28.5t61.5 72t20 90.5q0 34 -12 64t-34.5 53t-53 36t-66.5 13 q-64 0 -105.5 -28.5t-61.5 -72t-20 -89.5t21.5 -84t59 -60.5t85.5 -22.5zM258 439q25 19 43 33.5t21 35.5t-5 35t-31 15q-19 2 -32.5 -6t-30.5 -27l-11 8q18 23 36.5 32.5t40.5 8.5q20 -1 36.5 -15.5t11.5 -49.5q-3 -26 -23 -43t-48 -36z" glyph-name="uni1ECF" horiz-adv-x="502" unicode="ỏ"/><glyph d="M432 -7q-72 0 -133.5 24.5t-107.5 68.5t-71.5 104.5t-25.5 133.5q0 66 25 133.5t73.5 124.5t119.5 92t164 35q71 0 132.5 -24.5t107.5 -69t71.5 -105t25.5 -132.5q0 -66 -25 -133.5t-73.5 -124.5t-119.5 -92t-163 -35zM432 12q85 0 152.5 33t114 87t70.5 118.5t24 126.5 q0 64 -24 120.5t-67 100t-101 68t-126 24.5q-86 0 -153 -33t-113.5 -87.5t-70.5 -118.5t-24 -127t23.5 -119.5t66.5 -100t101 -68t127 -24.5zM574 804l-87 156h9l-126 -156h-21l145 181v0l101 -181h-21zM730 1110l-107 -133h-19l104 133h22z" glyph-name="uni1ED0" unicode="Ố"/><glyph d="M240 -6q-40 0 -73.5 13.5t-58.5 38t-39 58t-14 72.5q0 37 12.5 74t38 67.5t65 49t92.5 18.5q54 0 95.5 -23.5t65.5 -65t24 -93.5q0 -29 -8 -59t-24 -57t-41 -48t-58.5 -33t-76.5 -12zM241 11q64 0 105.5 28.5t61.5 72t20 90.5q0 34 -12 64t-34.5 53t-53 36t-66.5 13 q-64 0 -105.5 -28.5t-61.5 -72t-20 -89.5t21.5 -84t59 -60.5t85.5 -22.5zM341 481l-87 156h9l-126 -156h-21l145 181v0l101 -181h-21zM497 787l-107 -133h-19l104 133h22z" glyph-name="uni1ED1" horiz-adv-x="502" unicode="ố"/><glyph d="M432 -7q-72 0 -133.5 24.5t-107.5 68.5t-71.5 104.5t-25.5 133.5q0 66 25 133.5t73.5 124.5t119.5 92t164 35q71 0 132.5 -24.5t107.5 -69t71.5 -105t25.5 -132.5q0 -66 -25 -133.5t-73.5 -124.5t-119.5 -92t-163 -35zM432 12q85 0 152.5 33t114 87t70.5 118.5t24 126.5 q0 64 -24 120.5t-67 100t-101 68t-126 24.5q-86 0 -153 -33t-113.5 -87.5t-70.5 -118.5t-24 -127t23.5 -119.5t66.5 -100t101 -68t127 -24.5zM598 746l-87 156h9l-126 -156h-21l145 181v0l101 -181h-21zM343 989l73 -133h-19l-76 133h22z" glyph-name="uni1ED2" unicode="Ồ"/><glyph d="M240 -6q-40 0 -73.5 13.5t-58.5 38t-39 58t-14 72.5q0 37 12.5 74t38 67.5t65 49t92.5 18.5q54 0 95.5 -23.5t65.5 -65t24 -93.5q0 -29 -8 -59t-24 -57t-41 -48t-58.5 -33t-76.5 -12zM241 11q64 0 105.5 28.5t61.5 72t20 90.5q0 34 -12 64t-34.5 53t-53 36t-66.5 13 q-64 0 -105.5 -28.5t-61.5 -72t-20 -89.5t21.5 -84t59 -60.5t85.5 -22.5zM366 423l-87 156h9l-126 -156h-21l145 181v0l101 -181h-21zM111 666l73 -133h-19l-76 133h22z" glyph-name="uni1ED3" horiz-adv-x="502" unicode="ồ"/><glyph d="M432 -7q-72 0 -133.5 24.5t-107.5 68.5t-71.5 104.5t-25.5 133.5q0 66 25 133.5t73.5 124.5t119.5 92t164 35q71 0 132.5 -24.5t107.5 -69t71.5 -105t25.5 -132.5q0 -66 -25 -133.5t-73.5 -124.5t-119.5 -92t-163 -35zM432 12q85 0 152.5 33t114 87t70.5 118.5t24 126.5 q0 64 -24 120.5t-67 100t-101 68t-126 24.5q-86 0 -153 -33t-113.5 -87.5t-70.5 -118.5t-24 -127t23.5 -119.5t66.5 -100t101 -68t127 -24.5zM596 746l-87 156h9l-126 -156h-21l145 181v0l101 -181h-21zM619 859q25 19 43 33.5t21 35.5t-5 35t-31 15q-19 2 -32.5 -6 t-30.5 -27l-11 8q18 23 36.5 32.5t40.5 8.5q20 -1 36.5 -15.5t11.5 -49.5q-3 -26 -23 -43t-48 -36z" glyph-name="uni1ED4" unicode="Ổ"/><glyph d="M240 -6q-40 0 -73.5 13.5t-58.5 38t-39 58t-14 72.5q0 37 12.5 74t38 67.5t65 49t92.5 18.5q54 0 95.5 -23.5t65.5 -65t24 -93.5q0 -29 -8 -59t-24 -57t-41 -48t-58.5 -33t-76.5 -12zM241 11q64 0 105.5 28.5t61.5 72t20 90.5q0 34 -12 64t-34.5 53t-53 36t-66.5 13 q-64 0 -105.5 -28.5t-61.5 -72t-20 -89.5t21.5 -84t59 -60.5t85.5 -22.5zM363 423l-87 156h9l-126 -156h-21l145 181v0l101 -181h-21zM386 536q25 19 43 33.5t21 35.5t-5 35t-31 15q-19 2 -32.5 -6t-30.5 -27l-11 8q18 23 36.5 32.5t40.5 8.5q20 -1 36.5 -15.5t11.5 -49.5 q-3 -26 -23 -43t-48 -36z" glyph-name="uni1ED5" horiz-adv-x="502" unicode="ổ"/><glyph d="M432 -7q-72 0 -133.5 24.5t-107.5 68.5t-71.5 104.5t-25.5 133.5q0 66 25 133.5t73.5 124.5t119.5 92t164 35q71 0 132.5 -24.5t107.5 -69t71.5 -105t25.5 -132.5q0 -66 -25 -133.5t-73.5 -124.5t-119.5 -92t-163 -35zM432 12q85 0 152.5 33t114 87t70.5 118.5t24 126.5 q0 64 -24 120.5t-67 100t-101 68t-126 24.5q-86 0 -153 -33t-113.5 -87.5t-70.5 -118.5t-24 -127t23.5 -119.5t66.5 -100t101 -68t127 -24.5zM602 983q-27 1 -42.5 16.5t-28.5 33.5q-11 16 -23.5 30t-32.5 15q-11 1 -25.5 -6t-27 -26.5t-19.5 -57.5l-16 3q7 38 21 61.5 t32 34t36 9.5q28 -2 43 -17.5t27 -33.5q11 -16 24 -29.5t35 -14.5q20 -2 39 15.5t29 73.5l16 -3q-6 -38 -19 -61.5t-30.5 -33.5t-37.5 -9zM596 737l-87 156h9l-126 -156h-21l145 181v0l101 -181h-21z" glyph-name="uni1ED6" unicode="Ỗ"/><glyph d="M240 -6q-40 0 -73.5 13.5t-58.5 38t-39 58t-14 72.5q0 37 12.5 74t38 67.5t65 49t92.5 18.5q54 0 95.5 -23.5t65.5 -65t24 -93.5q0 -29 -8 -59t-24 -57t-41 -48t-58.5 -33t-76.5 -12zM241 11q64 0 105.5 28.5t61.5 72t20 90.5q0 34 -12 64t-34.5 53t-53 36t-66.5 13 q-64 0 -105.5 -28.5t-61.5 -72t-20 -89.5t21.5 -84t59 -60.5t85.5 -22.5zM369 660q-27 1 -42.5 16.5t-28.5 33.5q-11 16 -23.5 30t-32.5 15q-11 1 -25.5 -6t-27 -26.5t-19.5 -57.5l-16 3q7 38 21 61.5t32 34t36 9.5q28 -2 43 -17.5t27 -33.5q11 -16 24 -29.5t35 -14.5 q20 -2 39 15.5t29 73.5l16 -3q-6 -38 -19 -61.5t-30.5 -33.5t-37.5 -9zM363 414l-87 156h9l-126 -156h-21l145 181v0l101 -181h-21z" glyph-name="uni1ED7" horiz-adv-x="502" unicode="ỗ"/><glyph d="M432 -7q-72 0 -133.5 24.5t-107.5 68.5t-71.5 104.5t-25.5 133.5q0 66 25 133.5t73.5 124.5t119.5 92t164 35q71 0 132.5 -24.5t107.5 -69t71.5 -105t25.5 -132.5q0 -66 -25 -133.5t-73.5 -124.5t-119.5 -92t-163 -35zM432 12q85 0 152.5 33t114 87t70.5 118.5t24 126.5 q0 64 -24 120.5t-67 100t-101 68t-126 24.5q-86 0 -153 -33t-113.5 -87.5t-70.5 -118.5t-24 -127t23.5 -119.5t66.5 -100t101 -68t127 -24.5zM379 -95q0 10 8 17t18 7q9 0 14.5 -6t5.5 -14q0 -10 -8 -17t-17 -7q-10 0 -15.5 6.5t-5.5 13.5zM600 804l-87 156h9l-126 -156h-21 l145 181v0l101 -181h-21z" glyph-name="uni1ED8" unicode="Ộ"/><glyph d="M240 -6q-40 0 -73.5 13.5t-58.5 38t-39 58t-14 72.5q0 37 12.5 74t38 67.5t65 49t92.5 18.5q54 0 95.5 -23.5t65.5 -65t24 -93.5q0 -29 -8 -59t-24 -57t-41 -48t-58.5 -33t-76.5 -12zM241 11q64 0 105.5 28.5t61.5 72t20 90.5q0 34 -12 64t-34.5 53t-53 36t-66.5 13 q-64 0 -105.5 -28.5t-61.5 -72t-20 -89.5t21.5 -84t59 -60.5t85.5 -22.5zM184 -95q0 10 8 17t18 7q9 0 14.5 -6t5.5 -14q0 -10 -8 -17t-17 -7q-10 0 -15.5 6.5t-5.5 13.5zM368 481l-87 156h9l-126 -156h-21l145 181v0l101 -181h-21z" glyph-name="uni1ED9" horiz-adv-x="502" unicode="ộ"/><glyph d="M432 -7q-72 0 -133.5 24.5t-107.5 68.5t-71.5 104.5t-25.5 133.5q0 66 25 133.5t73.5 124.5t119.5 92t164 35q71 0 132.5 -24.5t107.5 -69t71.5 -105t25.5 -132.5q0 -66 -25 -133.5t-73.5 -124.5t-119.5 -92t-163 -35zM432 12q85 0 152.5 33t114 87t70.5 118.5t24 126.5 q0 64 -24 120.5t-67 100t-101 68t-126 24.5q-86 0 -153 -33t-113.5 -87.5t-70.5 -118.5t-24 -127t23.5 -119.5t66.5 -100t101 -68t127 -24.5zM721 603q51 -4 78.5 15.5t35.5 81.5h18q-7 -53 -25 -78t-46 -31.5t-63 -3.5zM646 937l-107 -133h-19l104 133h22z" glyph-name="uni1EDA" unicode="Ớ"/><glyph d="M240 -6q-40 0 -73.5 13.5t-58.5 38t-39 58t-14 72.5q0 37 12.5 74t38 67.5t65 49t92.5 18.5q54 0 95.5 -23.5t65.5 -65t24 -93.5q0 -29 -8 -59t-24 -57t-41 -48t-58.5 -33t-76.5 -12zM241 11q64 0 105.5 28.5t61.5 72t20 90.5q0 34 -12 64t-34.5 53t-53 36t-66.5 13 q-64 0 -105.5 -28.5t-61.5 -72t-20 -89.5t21.5 -84t59 -60.5t85.5 -22.5zM410 310q25 -3 40.5 13.5t19.5 65.5l18 -1q-4 -44 -15.5 -64.5t-28.5 -26t-37 -3.5zM414 614l-107 -133h-19l104 133h22z" glyph-name="uni1EDB" horiz-adv-x="504" unicode="ớ"/><glyph d="M432 -7q-72 0 -133.5 24.5t-107.5 68.5t-71.5 104.5t-25.5 133.5q0 66 25 133.5t73.5 124.5t119.5 92t164 35q71 0 132.5 -24.5t107.5 -69t71.5 -105t25.5 -132.5q0 -66 -25 -133.5t-73.5 -124.5t-119.5 -92t-163 -35zM432 12q85 0 152.5 33t114 87t70.5 118.5t24 126.5 q0 64 -24 120.5t-67 100t-101 68t-126 24.5q-86 0 -153 -33t-113.5 -87.5t-70.5 -118.5t-24 -127t23.5 -119.5t66.5 -100t101 -68t127 -24.5zM721 603q51 -4 78.5 15.5t35.5 81.5h18q-7 -53 -25 -78t-46 -31.5t-63 -3.5zM445 937l73 -133h-19l-76 133h22z" glyph-name="uni1EDC" unicode="Ờ"/><glyph d="M240 -6q-40 0 -73.5 13.5t-58.5 38t-39 58t-14 72.5q0 37 12.5 74t38 67.5t65 49t92.5 18.5q54 0 95.5 -23.5t65.5 -65t24 -93.5q0 -29 -8 -59t-24 -57t-41 -48t-58.5 -33t-76.5 -12zM241 11q64 0 105.5 28.5t61.5 72t20 90.5q0 34 -12 64t-34.5 53t-53 36t-66.5 13 q-64 0 -105.5 -28.5t-61.5 -72t-20 -89.5t21.5 -84t59 -60.5t85.5 -22.5zM410 310q25 -3 40.5 13.5t19.5 65.5l18 -1q-4 -44 -15.5 -64.5t-28.5 -26t-37 -3.5zM212 614l73 -133h-19l-76 133h22z" glyph-name="uni1EDD" horiz-adv-x="504" unicode="ờ"/><glyph d="M432 -7q-72 0 -133.5 24.5t-107.5 68.5t-71.5 104.5t-25.5 133.5q0 66 25 133.5t73.5 124.5t119.5 92t164 35q71 0 132.5 -24.5t107.5 -69t71.5 -105t25.5 -132.5q0 -66 -25 -133.5t-73.5 -124.5t-119.5 -92t-163 -35zM432 12q85 0 152.5 33t114 87t70.5 118.5t24 126.5 q0 64 -24 120.5t-67 100t-101 68t-126 24.5q-86 0 -153 -33t-113.5 -87.5t-70.5 -118.5t-24 -127t23.5 -119.5t66.5 -100t101 -68t127 -24.5zM721 603q51 -4 78.5 15.5t35.5 81.5h18q-7 -53 -25 -78t-46 -31.5t-63 -3.5zM490 762q25 19 43 33.5t21 35.5t-5 35t-31 15 q-19 2 -32.5 -6t-30.5 -27l-11 8q18 23 36.5 32.5t40.5 8.5q20 -1 36.5 -15.5t11.5 -49.5q-3 -26 -23 -43t-48 -36z" glyph-name="uni1EDE" unicode="Ở"/><glyph d="M240 -6q-40 0 -73.5 13.5t-58.5 38t-39 58t-14 72.5q0 37 12.5 74t38 67.5t65 49t92.5 18.5q54 0 95.5 -23.5t65.5 -65t24 -93.5q0 -29 -8 -59t-24 -57t-41 -48t-58.5 -33t-76.5 -12zM241 11q64 0 105.5 28.5t61.5 72t20 90.5q0 34 -12 64t-34.5 53t-53 36t-66.5 13 q-64 0 -105.5 -28.5t-61.5 -72t-20 -89.5t21.5 -84t59 -60.5t85.5 -22.5zM410 310q25 -3 40.5 13.5t19.5 65.5l18 -1q-4 -44 -15.5 -64.5t-28.5 -26t-37 -3.5zM258 439q25 19 43 33.5t21 35.5t-5 35t-31 15q-19 2 -32.5 -6t-30.5 -27l-11 8q18 23 36.5 32.5t40.5 8.5 q20 -1 36.5 -15.5t11.5 -49.5q-3 -26 -23 -43t-48 -36z" glyph-name="uni1EDF" horiz-adv-x="504" unicode="ở"/><glyph d="M432 -7q-72 0 -133.5 24.5t-107.5 68.5t-71.5 104.5t-25.5 133.5q0 66 25 133.5t73.5 124.5t119.5 92t164 35q71 0 132.5 -24.5t107.5 -69t71.5 -105t25.5 -132.5q0 -66 -25 -133.5t-73.5 -124.5t-119.5 -92t-163 -35zM432 12q85 0 152.5 33t114 87t70.5 118.5t24 126.5 q0 64 -24 120.5t-67 100t-101 68t-126 24.5q-86 0 -153 -33t-113.5 -87.5t-70.5 -118.5t-24 -127t23.5 -119.5t66.5 -100t101 -68t127 -24.5zM721 603q51 -4 78.5 15.5t35.5 81.5h18q-7 -53 -25 -78t-46 -31.5t-63 -3.5zM583 768q-27 1 -42.5 16.5t-29.5 33.5q-11 16 -23 30 t-33 15q-11 1 -25.5 -6t-27 -26.5t-19.5 -57.5l-16 3q6 38 20.5 62t32.5 34t36 9q28 -1 43.5 -17t27.5 -34q11 -16 24 -29.5t35 -15.5q13 -1 26.5 6t24.5 27t17 58l16 -3q-6 -39 -19 -62.5t-30.5 -34t-37.5 -8.5z" glyph-name="uni1EE0" unicode="Ỡ"/><glyph d="M240 -6q-40 0 -73.5 13.5t-58.5 38t-39 58t-14 72.5q0 37 12.5 74t38 67.5t65 49t92.5 18.5q54 0 95.5 -23.5t65.5 -65t24 -93.5q0 -29 -8 -59t-24 -57t-41 -48t-58.5 -33t-76.5 -12zM241 11q64 0 105.5 28.5t61.5 72t20 90.5q0 34 -12 64t-34.5 53t-53 36t-66.5 13 q-64 0 -105.5 -28.5t-61.5 -72t-20 -89.5t21.5 -84t59 -60.5t85.5 -22.5zM410 310q25 -3 40.5 13.5t19.5 65.5l18 -1q-4 -44 -15.5 -64.5t-28.5 -26t-37 -3.5zM351 445q-27 1 -42.5 16.5t-29.5 33.5q-11 16 -23 30t-33 15q-11 1 -25.5 -6t-27 -26.5t-19.5 -57.5l-16 3 q6 38 20.5 62t32.5 34t36 9q28 -1 43.5 -17t27.5 -34q11 -16 24 -29.5t35 -15.5q13 -1 26.5 6t24.5 27t17 58l16 -3q-6 -39 -19 -62.5t-30.5 -34t-37.5 -8.5z" glyph-name="uni1EE1" horiz-adv-x="504" unicode="ỡ"/><glyph d="M432 -7q-72 0 -133.5 24.5t-107.5 68.5t-71.5 104.5t-25.5 133.5q0 66 25 133.5t73.5 124.5t119.5 92t164 35q71 0 132.5 -24.5t107.5 -69t71.5 -105t25.5 -132.5q0 -66 -25 -133.5t-73.5 -124.5t-119.5 -92t-163 -35zM432 12q85 0 152.5 33t114 87t70.5 118.5t24 126.5 q0 64 -24 120.5t-67 100t-101 68t-126 24.5q-86 0 -153 -33t-113.5 -87.5t-70.5 -118.5t-24 -127t23.5 -119.5t66.5 -100t101 -68t127 -24.5zM721 603q51 -4 78.5 15.5t35.5 81.5h18q-7 -53 -25 -78t-46 -31.5t-63 -3.5zM379 -95q0 10 8 17t18 7q9 0 14.5 -6t5.5 -14 q0 -10 -8 -17t-17 -7q-10 0 -15.5 6.5t-5.5 13.5z" glyph-name="uni1EE2" unicode="Ợ"/><glyph d="M240 -6q-40 0 -73.5 13.5t-58.5 38t-39 58t-14 72.5q0 37 12.5 74t38 67.5t65 49t92.5 18.5q54 0 95.5 -23.5t65.5 -65t24 -93.5q0 -29 -8 -59t-24 -57t-41 -48t-58.5 -33t-76.5 -12zM241 11q64 0 105.5 28.5t61.5 72t20 90.5q0 34 -12 64t-34.5 53t-53 36t-66.5 13 q-64 0 -105.5 -28.5t-61.5 -72t-20 -89.5t21.5 -84t59 -60.5t85.5 -22.5zM410 310q25 -3 40.5 13.5t19.5 65.5l18 -1q-4 -44 -15.5 -64.5t-28.5 -26t-37 -3.5zM184 -95q0 10 8 17t18 7q9 0 14.5 -6t5.5 -14q0 -10 -8 -17t-17 -7q-10 0 -15.5 6.5t-5.5 13.5z" glyph-name="uni1EE3" horiz-adv-x="504" unicode="ợ"/><glyph d="M145 230q-9 -70 11.5 -119t64.5 -74.5t105 -25.5q66 0 115.5 25.5t80 74.5t39.5 119l57 472h20l-58 -474q-9 -77 -41.5 -129.5t-86.5 -79.5t-128 -27v0q-66 0 -114.5 27t-72 79.5t-13.5 129.5l58 474h20zM289 -95q0 10 8 17t18 7q9 0 14.5 -6t5.5 -14q0 -10 -8 -17 t-17 -7q-10 0 -15.5 6.5t-5.5 13.5z" glyph-name="uni1EE4" horiz-adv-x="695" unicode="Ụ"/><glyph d="M188 -8q-53 0 -81.5 29.5t-22.5 79.5l33 277h20l-34 -277q-5 -37 18.5 -63t71.5 -28q40 0 79 19.5t65.5 53.5t31.5 77l27 218h20l-47 -378h-16l13 115l1 -7q-12 -31 -40.5 -57.5t-65 -42.5t-73.5 -16zM177 -96q0 10 8 17t18 7q9 0 14.5 -6t5.5 -14q0 -10 -8 -17t-17 -7 q-10 0 -15.5 6.5t-5.5 13.5z" glyph-name="uni1EE5" horiz-adv-x="487" unicode="ụ"/><glyph d="M145 230q-9 -70 11.5 -119t64.5 -74.5t105 -25.5q66 0 115.5 25.5t80 74.5t39.5 119l57 472h20l-58 -474q-9 -77 -41.5 -129.5t-86.5 -79.5t-128 -27v0q-66 0 -114.5 27t-72 79.5t-13.5 129.5l58 474h20zM404 762q25 19 43 33.5t21 35.5t-5 35t-31 15q-19 2 -32.5 -6 t-30.5 -27l-11 8q18 23 36.5 32.5t40.5 8.5q20 -1 36.5 -15.5t11.5 -49.5q-3 -26 -23 -43t-48 -36z" glyph-name="uni1EE6" horiz-adv-x="695" unicode="Ủ"/><glyph d="M188 -8q-53 0 -81.5 29.5t-22.5 79.5l33 277h20l-34 -277q-5 -37 18.5 -63t71.5 -28q40 0 79 19.5t65.5 53.5t31.5 77l27 218h20l-47 -378h-16l13 115l1 -7q-12 -31 -40.5 -57.5t-65 -42.5t-73.5 -16zM260 442q25 19 43 33.5t21 35.5t-5 35t-31 15q-19 2 -32.5 -6 t-30.5 -27l-11 8q18 23 36.5 32.5t40.5 8.5q20 -1 36.5 -15.5t11.5 -49.5q-3 -26 -23 -43t-48 -36z" glyph-name="uni1EE7" horiz-adv-x="487" unicode="ủ"/><glyph d="M145 230q-9 -70 11.5 -119t64.5 -74.5t105 -25.5q66 0 115.5 25.5t80 74.5t39.5 119l57 472h20l-58 -474q-9 -77 -41.5 -129.5t-86.5 -79.5t-128 -27v0q-66 0 -114.5 27t-72 79.5t-13.5 129.5l58 474h20zM623 602q51 -4 78.5 15.5t35.5 81.5h18q-7 -53 -25 -78t-46 -31.5 t-63 -3.5zM559 937l-107 -133h-19l104 133h22z" glyph-name="uni1EE8" horiz-adv-x="713" unicode="Ứ"/><glyph d="M188 -8q-53 0 -81.5 29.5t-22.5 79.5l33 277h20l-34 -277q-5 -37 18.5 -63t71.5 -28q40 0 79 19.5t65.5 53.5t31.5 77l27 218h20l-47 -378h-16l13 115l1 -7q-12 -31 -40.5 -57.5t-65 -42.5t-73.5 -16zM395 276q51 -4 78.5 15.5t35.5 81.5h18q-7 -53 -25 -78t-46 -31.5 t-63 -3.5zM416 616l-107 -133h-19l104 133h22z" glyph-name="uni1EE9" horiz-adv-x="534" unicode="ứ"/><glyph d="M145 230q-9 -70 11.5 -119t64.5 -74.5t105 -25.5q66 0 115.5 25.5t80 74.5t39.5 119l57 472h20l-58 -474q-9 -77 -41.5 -129.5t-86.5 -79.5t-128 -27v0q-66 0 -114.5 27t-72 79.5t-13.5 129.5l58 474h20zM623 602q51 -4 78.5 15.5t35.5 81.5h18q-7 -53 -25 -78t-46 -31.5 t-63 -3.5zM358 937l73 -133h-19l-76 133h22z" glyph-name="uni1EEA" horiz-adv-x="713" unicode="Ừ"/><glyph d="M188 -8q-53 0 -81.5 29.5t-22.5 79.5l33 277h20l-34 -277q-5 -37 18.5 -63t71.5 -28q40 0 79 19.5t65.5 53.5t31.5 77l27 218h20l-47 -378h-16l13 115l1 -7q-12 -31 -40.5 -57.5t-65 -42.5t-73.5 -16zM395 276q51 -4 78.5 15.5t35.5 81.5h18q-7 -53 -25 -78t-46 -31.5 t-63 -3.5zM215 616l73 -133h-19l-76 133h22z" glyph-name="uni1EEB" horiz-adv-x="534" unicode="ừ"/><glyph d="M145 230q-9 -70 11.5 -119t64.5 -74.5t105 -25.5q66 0 115.5 25.5t80 74.5t39.5 119l57 472h20l-58 -474q-9 -77 -41.5 -129.5t-86.5 -79.5t-128 -27v0q-66 0 -114.5 27t-72 79.5t-13.5 129.5l58 474h20zM623 602q51 -4 78.5 15.5t35.5 81.5h18q-7 -53 -25 -78t-46 -31.5 t-63 -3.5zM404 762q25 19 43 33.5t21 35.5t-5 35t-31 15q-19 2 -32.5 -6t-30.5 -27l-11 8q18 23 36.5 32.5t40.5 8.5q20 -1 36.5 -15.5t11.5 -49.5q-3 -26 -23 -43t-48 -36z" glyph-name="uni1EEC" horiz-adv-x="713" unicode="Ử"/><glyph d="M188 -8q-53 0 -81.5 29.5t-22.5 79.5l33 277h20l-34 -277q-5 -37 18.5 -63t71.5 -28q40 0 79 19.5t65.5 53.5t31.5 77l27 218h20l-47 -378h-16l13 115l1 -7q-12 -31 -40.5 -57.5t-65 -42.5t-73.5 -16zM395 276q51 -4 78.5 15.5t35.5 81.5h18q-7 -53 -25 -78t-46 -31.5 t-63 -3.5zM260 442q25 19 43 33.5t21 35.5t-5 35t-31 15q-19 2 -32.5 -6t-30.5 -27l-11 8q18 23 36.5 32.5t40.5 8.5q20 -1 36.5 -15.5t11.5 -49.5q-3 -26 -23 -43t-48 -36z" glyph-name="uni1EED" horiz-adv-x="534" unicode="ử"/><glyph d="M145 230q-9 -70 11.5 -119t64.5 -74.5t105 -25.5q66 0 115.5 25.5t80 74.5t39.5 119l57 472h20l-58 -474q-9 -77 -41.5 -129.5t-86.5 -79.5t-128 -27v0q-66 0 -114.5 27t-72 79.5t-13.5 129.5l58 474h20zM623 602q51 -4 78.5 15.5t35.5 81.5h18q-7 -53 -25 -78t-46 -31.5 t-63 -3.5zM497 768q-27 1 -42.5 16.5t-29.5 33.5q-11 16 -23 30t-33 15q-11 1 -25.5 -6t-27 -26.5t-19.5 -57.5l-16 3q6 38 20.5 62t32.5 34t36 9q28 -1 43.5 -17t27.5 -34q11 -16 24 -29.5t35 -15.5q13 -1 26.5 6t24.5 27t17 58l16 -3q-6 -39 -19 -62.5t-30.5 -34 t-37.5 -8.5z" glyph-name="uni1EEE" horiz-adv-x="713" unicode="Ữ"/><glyph d="M188 -8q-53 0 -81.5 29.5t-22.5 79.5l33 277h20l-34 -277q-5 -37 18.5 -63t71.5 -28q40 0 79 19.5t65.5 53.5t31.5 77l27 218h20l-47 -378h-16l13 115l1 -7q-12 -31 -40.5 -57.5t-65 -42.5t-73.5 -16zM395 276q51 -4 78.5 15.5t35.5 81.5h18q-7 -53 -25 -78t-46 -31.5 t-63 -3.5zM353 447q-27 1 -42.5 16.5t-29.5 33.5q-11 16 -23 30t-33 15q-11 1 -25.5 -6t-27 -26.5t-19.5 -57.5l-16 3q6 38 20.5 62t32.5 34t36 9q28 -1 43.5 -17t27.5 -34q11 -16 24 -29.5t35 -15.5q13 -1 26.5 6t24.5 27t17 58l16 -3q-6 -39 -19 -62.5t-30.5 -34 t-37.5 -8.5z" glyph-name="uni1EEF" horiz-adv-x="534" unicode="ữ"/><glyph d="M145 230q-9 -70 11.5 -119t64.5 -74.5t105 -25.5q66 0 115.5 25.5t80 74.5t39.5 119l57 472h20l-58 -474q-9 -77 -41.5 -129.5t-86.5 -79.5t-128 -27v0q-66 0 -114.5 27t-72 79.5t-13.5 129.5l58 474h20zM623 602q51 -4 78.5 15.5t35.5 81.5h18q-7 -53 -25 -78t-46 -31.5 t-63 -3.5zM289 -95q0 10 8 17t18 7q9 0 14.5 -6t5.5 -14q0 -10 -8 -17t-17 -7q-10 0 -15.5 6.5t-5.5 13.5z" glyph-name="uni1EF0" horiz-adv-x="713" unicode="Ự"/><glyph d="M188 -8q-53 0 -81.5 29.5t-22.5 79.5l33 277h20l-34 -277q-5 -37 18.5 -63t71.5 -28q40 0 79 19.5t65.5 53.5t31.5 77l27 218h20l-47 -378h-16l13 115l1 -7q-12 -31 -40.5 -57.5t-65 -42.5t-73.5 -16zM395 276q51 -4 78.5 15.5t35.5 81.5h18q-7 -53 -25 -78t-46 -31.5 t-63 -3.5zM177 -96q0 10 8 17t18 7q9 0 14.5 -6t5.5 -14q0 -10 -8 -17t-17 -7q-10 0 -15.5 6.5t-5.5 13.5z" glyph-name="uni1EF1" horiz-adv-x="534" unicode="ự"/><glyph d="M319 261l-207 441h22l202 -425l-9 -1l305 426h25l-317 -441l-31 -261h-22zM342 937l73 -133h-19l-76 133h22z" glyph-name="Ygrave" horiz-adv-x="643" unicode="Ỳ"/><glyph d="M97 -181l312 559h22l-311 -559h-23zM197 -5l-129 383h22l124 -371zM192 613l73 -133h-19l-76 133h22z" glyph-name="ygrave" horiz-adv-x="422" unicode="ỳ"/><glyph d="M319 261l-207 441h22l202 -425l-9 -1l305 426h25l-317 -441l-31 -261h-22zM272 -95q0 10 8 17t18 7q9 0 14.5 -6t5.5 -14q0 -10 -8 -17t-17 -7q-10 0 -15.5 6.5t-5.5 13.5z" glyph-name="uni1EF4" horiz-adv-x="643" unicode="Ỵ"/><glyph d="M97 -181l312 559h22l-311 -559h-23zM197 -5l-129 383h22l124 -371zM269 -104q0 10 8 17t18 7q9 0 14.5 -6t5.5 -14q0 -10 -8 -17t-17 -7q-10 0 -15.5 6.5t-5.5 13.5z" glyph-name="uni1EF5" horiz-adv-x="422" unicode="ỵ"/><glyph d="M319 261l-207 441h22l202 -425l-9 -1l305 426h25l-317 -441l-31 -261h-22zM387 763q25 19 43 33.5t21 35.5t-5 35t-31 15q-19 2 -32.5 -6t-30.5 -27l-11 8q18 23 36.5 32.5t40.5 8.5q20 -1 36.5 -15.5t11.5 -49.5q-3 -26 -23 -43t-48 -36z" glyph-name="uni1EF6" horiz-adv-x="643" unicode="Ỷ"/><glyph d="M97 -181l312 559h22l-311 -559h-23zM197 -5l-129 383h22l124 -371zM238 439q25 19 43 33.5t21 35.5t-5 35t-31 15q-19 2 -32.5 -6t-30.5 -27l-11 8q18 23 36.5 32.5t40.5 8.5q20 -1 36.5 -15.5t11.5 -49.5q-3 -26 -23 -43t-48 -36z" glyph-name="uni1EF7" horiz-adv-x="422" unicode="ỷ"/><glyph d="M319 261l-207 441h22l202 -425l-9 -1l305 426h25l-317 -441l-31 -261h-22zM480 768q-27 1 -42.5 16.5t-29.5 33.5q-11 16 -23 30t-33 15q-11 1 -25.5 -6t-27 -26.5t-19.5 -57.5l-16 3q6 38 20.5 62t32.5 34t36 9q28 -1 43.5 -17t27.5 -34q11 -16 24 -29.5t35 -15.5 q13 -1 26.5 6t24.5 27t17 58l16 -3q-6 -39 -19 -62.5t-30.5 -34t-37.5 -8.5z" glyph-name="uni1EF8" horiz-adv-x="643" unicode="Ỹ"/><glyph d="M97 -181l312 559h22l-311 -559h-23zM197 -5l-129 383h22l124 -371zM298 443q-28 2 -43.5 17.5t-28.5 33.5q-11 16 -23.5 30t-33.5 15q-11 1 -25 -6t-27 -27t-20 -57l-16 3q6 38 20.5 61.5t32.5 34t36 9.5q29 -1 44 -17t27 -34q12 -17 25 -30t34 -15q14 -1 27 6t24 27 t18 58l16 -3q-6 -39 -19 -62.5t-30.5 -34t-37.5 -9.5z" glyph-name="uni1EF9" horiz-adv-x="600" unicode="ỹ"/><glyph d="M125 197h301l-3 -19h-301z" glyph-name="endash" horiz-adv-x="510" unicode="–"/><glyph d="M124 197h502l-2 -19h-503z" glyph-name="emdash" horiz-adv-x="701" unicode="—"/><glyph d="M166 591q-2 -5 -5 -9.5t-6 -9.5q-25 27 -33 63.5t5 76.5l10 -4t10 -3q-11 -35 -5 -64.5t24 -49.5v0z" glyph-name="quoteleft" horiz-adv-x="164" unicode="‘"/><glyph d="M136 572q-2 5 -3 9.5t-3 9.5q24 20 37 49.5t10 64.5q5 1 11 3t11 4q4 -40 -13 -76.5t-50 -63.5v0z" glyph-name="quoteright" horiz-adv-x="164" unicode="’"/><glyph d="M22 -47q-1 4 -3 8.5t-3 9.5q23 20 36 50t11 64q5 2 11 4t11 3q3 -40 -13.5 -76.5t-49.5 -62.5v0z" glyph-name="quotesinglbase" horiz-adv-x="146" unicode="‚"/><glyph d="M158 591q-3 -5 -5.5 -9.5t-5.5 -9.5q-26 27 -34 63.5t5 76.5q5 -2 10.5 -4t10.5 -3q-11 -35 -5 -64.5t24 -49.5v0zM262 591q-3 -5 -5.5 -9.5t-5.5 -9.5q-25 27 -33.5 63.5t4.5 76.5q5 -2 10.5 -4t10.5 -3q-11 -35 -5 -64.5t24 -49.5v0z" glyph-name="quotedblleft" horiz-adv-x="249" unicode="“"/><glyph d="M120 572q-1 5 -2.5 9.5t-3.5 9.5q24 20 37 49.5t10 64.5q6 1 11.5 3t10.5 4q4 -40 -13 -76.5t-50 -63.5v0zM224 572q-1 5 -2.5 9.5t-3.5 9.5q24 20 37 49.5t10 64.5q6 1 11.5 3t10.5 4q4 -40 -13 -76.5t-50 -63.5v0z" glyph-name="quotedblright" horiz-adv-x="248" unicode="”"/><glyph d="M22 -47q-1 4 -3 8.5t-3 9.5q23 20 36 50t11 64q5 2 11 4t11 3q3 -40 -13.5 -76.5t-49.5 -62.5v0zM127 -47q-2 4 -4 8.5t-3 9.5q23 20 36 50t11 64q5 2 11 4t12 3q3 -40 -14 -76.5t-49 -62.5v0z" glyph-name="quotedblbase" horiz-adv-x="242" unicode="„"/><glyph d="M111 440h187l-3 -19h-187zM211 574h19l-62 -505h-19z" glyph-name="dagger" horiz-adv-x="300" unicode="†"/><glyph d="M36 295h301l-2 -19h-301zM110 440h187l-2 -19h-187zM211 574h19l-62 -505h-19z" glyph-name="daggerdbl" horiz-adv-x="300" unicode="‡"/><glyph d="M206 293q0 21 11 39t29 28.5t39 10.5q18 0 32 -8.5t22 -23t8 -31.5q0 -22 -11 -39.5t-29 -27.5t-39 -10q-18 0 -32 8.5t-22 22.5t-8 31v0z" glyph-name="bullet" horiz-adv-x="479" unicode="•"/><glyph d="M66 20q0 10 8 17.5t18 7.5q8 0 14 -6t6 -14q0 -7 -4 -12.5t-9.5 -9t-12.5 -3.5q-8 0 -14 6t-6 14v0zM229 20q0 10 8 17.5t18 7.5q8 0 14 -6t6 -14q0 -7 -4 -12.5t-9.5 -9t-12.5 -3.5q-8 0 -14 6t-6 14v0zM392 20q0 10 8 17.5t18 7.5q8 0 14 -6t6 -14q0 -7 -4 -12.5 t-9.5 -9t-12.5 -3.5q-8 0 -14 6t-6 14v0z" glyph-name="ellipsis" horiz-adv-x="490" unicode="…"/><glyph d="M234 223q-11 0 -28.5 4t-35.5 16t-30.5 36t-12.5 65q0 40 14 77t41 60t67 24q10 0 27.5 -4.5t35 -16.5t30 -36t12.5 -64q0 -39 -14 -75t-40.5 -60t-65.5 -26zM235 240q33 2 55.5 23.5t33.5 54t11 65.5q0 35 -10 55.5t-25 31.5t-29 14.5t-23 3.5q-34 0 -56.5 -21.5 t-34 -54t-11.5 -66.5q0 -36 10 -57.5t25 -32t30 -13.5t24 -3zM541 3q-11 0 -28.5 3.5t-35 15.5t-30 36.5t-12.5 64.5t14 76.5t41.5 60.5t67.5 24q10 0 27 -4t35 -16.5t30 -36.5t12 -64q0 -41 -14.5 -77t-42 -59t-64.5 -24zM542 19q34 1 56.5 23.5t33.5 55t11 65.5 q0 36 -11 57t-26 31t-29.5 13t-21.5 3q-34 0 -56.5 -21.5t-33.5 -53.5t-11 -66q0 -36 11 -59t30.5 -34.5t46.5 -13.5zM586 508l-369 -508h-21l369 508h21zM818 3q-12 0 -30 4t-35.5 16t-29.5 36t-12 64t14 76.5t41 60t67 24.5q10 0 27.5 -4t35 -16.5t30 -36.5t12.5 -64 t-14.5 -76t-41 -59t-64.5 -25zM818 19q34 2 56.5 23.5t33.5 54t11 66.5q0 35 -10.5 55.5t-25.5 31.5t-29.5 14t-22.5 3q-34 -1 -56.5 -22.5t-33.5 -53.5t-11 -65q0 -37 10 -58t25 -31.5t29.5 -14t23.5 -3.5z" glyph-name="perthousand" horiz-adv-x="1029" unicode="‰"/><glyph d="M146 239q15 13 31 26.5t32.5 27.5t32.5 28t32 27.5l32 27t32 26.5l-3 -22q-19 -18 -38.5 -35.5l-39 -35t-39 -35.5t-38.5 -35q14 -17 29 -35t30.5 -36t30.5 -36t30 -35l-3 -22z" glyph-name="guilsinglleft" horiz-adv-x="392" unicode="‹"/><glyph d="M259 239q-15 13 -31 26.5t-32 27.5t-32.5 28t-32.5 27.5l-32 27t-31 26.5l3 -22q18 -18 37.5 -35.5t39.5 -35t39.5 -35.5t38.5 -35q-15 -17 -30 -35t-30.5 -36t-30.5 -36t-29 -35l2 -22z" glyph-name="guilsinglright" horiz-adv-x="392" unicode="›"/><glyph d="M392 756l-186 -378l-186 -378h-19l186 378l186 378h19z" glyph-name="fraction" horiz-adv-x="300" unicode="⁄"/><glyph d="M298 471l-2 -15h-219l1 9l198 196h8l-39 -314h-18l36 290l4 -8l-168 -164l-4 6h203z" glyph-name="uni2074" horiz-adv-x="351" unicode="⁴"/><glyph d="M549 721l-373 -762h-20l374 762h19zM670 721l-373 -762h-20l373 762h20zM600 29q-25 -13 -52 -22t-56.5 -14t-60.5 -5q-77 0 -139 25.5t-106 70.5t-68 105t-24 129q0 49 12.5 102.5t40.5 104t72.5 91t108 64.5t148.5 24q56 0 107 -17t93 -46l-12 -16q-38 28 -87 44 t-102 16q-100 0 -169 -33.5t-111.5 -88.5t-61.5 -119.5t-19 -125.5q0 -69 24.5 -126.5t68 -98.5t101 -63.5t122.5 -22.5q29 0 57 5t54 14t50 20z" glyph-name="colonmonetary" horiz-adv-x="697" unicode="₡"/><glyph d="M182 702h379l-3 -20h-359l-40 -328h320l-3 -20h-320l-40 -334h-20zM23 169h231l-3 -16h-230z" glyph-name="franc" horiz-adv-x="571" unicode="₣"/><glyph d="M291 333l-3 -19h-215l3 19h215zM277 220l-2 -19h-215l3 19h214zM162 503q6 46 30 76t62.5 45t86.5 15q67 0 99.5 -25t48.5 -65l-16 -9q-10 22 -21 37.5t-26 24.5t-36.5 13t-50.5 4q-56 0 -89 -16t-49 -42t-19 -57l-44 -353l-3 -37q-2 -13 -5 -27t-7 -26.5t-9.5 -23.5 t-13.5 -17v0h243q59 0 85.5 10.5t29.5 40.5l7 56h19l-4 -39q-3 -22 -10.5 -42.5t-33.5 -33t-86 -12.5h-346l3 20h44q24 0 36.5 13t19.5 45t13 88z" glyph-name="lira" horiz-adv-x="599" unicode="₤"/><glyph d="M453 347h357v-17h-357v17zM452 330h-418v17h419zM689 -13h-2l-476 680l6 9l-82 -676h-20l87 713h1l481 -688l-11 3l83 674h20z" glyph-name="uni20A6" horiz-adv-x="818" unicode="₦"/><glyph d="M497 515h75l-2 -18h-75zM162 497h-80l2 18h79zM322 702q29 0 60.5 -9t59.5 -28.5t45.5 -51t17.5 -77.5q0 -40 -15 -79t-44.5 -70.5t-75 -50.5t-108.5 -19h-111l-39 -317h-20l87 702h143zM268 337q62 0 104 20.5t66.5 51.5t35 65t10.5 60q0 45 -22 78t-61 51.5t-90 18.5 h-115l-42 -345h114z" glyph-name="peseta" horiz-adv-x="543" unicode="₧"/><glyph d="M66 416h894l-1 -18h-893v18zM117 701h22l173 -692l-7 1l202 414l8 -23l-212 -433zM432 701h20l177 -697l-11 4l354 693h21l-375 -733z" glyph-name="uni20A9" horiz-adv-x="992" unicode="₩"/><glyph d="M389 670h205l-2 -17h-204zM68 17h466l-1 -17h-466zM289 107q-55 3 -96 31.5t-61.5 74.5t-14.5 101q8 58 40 100.5t79 64.5t101 19q40 -3 74 -23.5t56 -54t27 -74.5l-8 -1l53 426h19l-81 -659h-19l17 130l1 -17q-25 -61 -75.5 -91.5t-111.5 -26.5zM293 125q48 -3 88 17 t66 57.5t33 85.5l4 34q-3 42 -21.5 77.5t-51 58.5t-76.5 25q-49 3 -92 -17t-71 -59t-35 -91q-6 -50 13 -91.5t56 -67.5t87 -29z" glyph-name="dong" horiz-adv-x="602" unicode="₫"/><glyph d="M99 398h330l-1 -19h-330zM87 290h329l-2 -19h-328zM649 29q-25 -13 -52 -22t-56.5 -14t-61.5 -5q-76 0 -138 25.5t-106.5 70.5t-68 105t-23.5 129q0 49 12.5 102.5t40.5 104t72.5 91t108 64.5t148.5 24q56 0 107 -17t93 -46l-12 -16q-39 28 -87.5 44t-102.5 16 q-99 0 -168 -33.5t-111.5 -88.5t-61.5 -119.5t-19 -125.5q0 -69 24.5 -126.5t68 -98.5t100.5 -63.5t123 -22.5q29 0 56.5 5t54 14t50.5 20z" glyph-name="Euro" horiz-adv-x="743" unicode="€"/><glyph d="M38 420h491l-2 -19h-492zM160 365l-5 -34l-3 3l430 368h26l-325 -279l281 -423h-25l-273 410l-113 -96l-37 -314h-20l86 702h20z" glyph-name="uni20AD" horiz-adv-x="579" unicode="₭"/><glyph d="M492 588h103l-2 -18h-103zM477 457h102l-2 -18h-102zM161 439h-116l3 18h115zM177 570h-116l3 18h115zM326 702q29 0 60.5 -9t59.5 -28.5t45.5 -51t17.5 -77.5q0 -40 -15 -79t-44.5 -70.5t-75 -50.5t-108.5 -19h-111l-39 -317h-20l87 702h143zM272 337q62 0 104 20.5 t66.5 51.5t35 65t10.5 60q0 45 -22 78t-61 51.5t-90 18.5h-115l-42 -345h114z" glyph-name="uni20B1" horiz-adv-x="540" unicode="₱"/><glyph d="M621 28q-25 -12 -56.5 -21.5t-65.5 -14t-66 -4.5q-53 0 -99 12t-83.5 33.5t-67 52t-49.5 67.5t-30.5 79t-9.5 87q0 47 14 99.5t42.5 103t73.5 92t108 66t146 24.5q56 -1 106.5 -17.5t92.5 -45.5l-12 -16q-38 28 -87 44t-102 16q-80 0 -140 -24t-102 -64t-68.5 -88.5 t-39 -97.5t-12.5 -92q-1 -49 12 -94t38 -83t61.5 -67t83 -46.5t102.5 -20.5q46 -2 99 6.5t93 26.5l29 239h-171l3 19h191zM470 791h19l-114 -933h-19z" glyph-name="uni20B2" horiz-adv-x="739" unicode="₲"/><glyph d="M600 29q-25 -13 -52 -22t-56.5 -14t-60.5 -5q-77 0 -139 25.5t-106 70.5t-68 105t-24 129q0 49 12.5 102.5t40.5 104t72.5 91t108 64.5t148.5 24q56 0 107 -17t93 -46l-12 -16q-38 28 -87 44t-102 16q-100 0 -169 -33.5t-111.5 -88.5t-61.5 -119.5t-19 -125.5 q0 -69 24.5 -126.5t68 -98.5t101 -63.5t122.5 -22.5q29 0 57 5t54 14t50 20zM449 800h19l-114 -933h-19z" glyph-name="uni20B5" horiz-adv-x="697" unicode="₵"/><glyph d="M165 317l3 19h89q79 0 125.5 27.5t68.5 68.5t27 82q5 37 -5.5 68.5t-33 54t-54 34.5t-69.5 12h-106l3 19h381l-2 -19h-226l-49 15q31 0 65 -9.5t62.5 -30.5t44 -56t9.5 -87q-5 -38 -20.5 -73.5t-44.5 -63.5t-72.5 -44.5t-102.5 -16.5h-93zM486 0l-161 335h23l160 -335 h-22zM182 492l1 18h402l-2 -18h-401z" glyph-name="uni20B9" horiz-adv-x="608" unicode="₹"/><glyph d="M558 314q0 -8 -1 -16t-1 -16q-10 -79 -44.5 -133t-87.5 -87t-118.5 -47.5t-137.5 -14.5h-20l86 702h20l-85 -693l1 10q67 0 129 13t112 43t82.5 81t41.5 126q1 7 1.5 14t0.5 14zM453 360l7 -13l-400 -209l-7 13zM443 487l7 -13l-400 -207l-6 13z" glyph-name="uni20BA" horiz-adv-x="621" unicode="₺"/><glyph d="M417 831h18l-101 -831h-18zM588 464q9 70 -11.5 119t-64.5 74.5t-105 25.5q-59 0 -109.5 -25.5t-84 -74.5t-42.5 -119l-57 -472h-19l58 474q9 77 45.5 129.5t91.5 79.5t119 27v0q65 0 113.5 -27t72 -79.5t14.5 -129.5l-58 -474h-20z" glyph-name="uni20BC" horiz-adv-x="694" unicode="₼"/><glyph d="M14 180h247l-2 -19h-247zM33 336h123l-1 -19h-123zM332 702q28 0 60 -9t59.5 -28.5t45 -51t17.5 -77.5q0 -40 -14.5 -79t-44 -70.5t-75.5 -50.5t-108 -19h-111l-39 -317h-20l86 702h144zM277 337q63 0 105 20.5t66.5 51.5t35 65t10.5 60q0 45 -22 78t-61 51.5t-90 18.5 h-115l-43 -345h114z" glyph-name="uni20BD" horiz-adv-x="536" unicode="₽"/><glyph d="M872 236h367l-3 -19h-367zM670 -13h-1l-477 679l6 10l-83 -676h-19l87 713h1l481 -687l-10 2l83 674h19zM1063 321q-39 0 -73 13.5t-59 38.5t-38.5 58t-13.5 73q0 37 12.5 74t38 67.5t65 49t92.5 18.5t95 -24t66 -65t24 -94q0 -29 -8 -58.5t-24.5 -56.5t-41 -48 t-58.5 -33.5t-77 -12.5zM1065 339q64 0 105.5 28t61.5 72t20 90q0 35 -12.5 65t-34.5 53t-52.5 35.5t-66.5 12.5q-64 0 -105.5 -28t-62 -72t-20.5 -90t21.5 -83.5t59 -60t86.5 -22.5z" glyph-name="uni2116" horiz-adv-x="1289" unicode="№"/><glyph d="M538 676l11 -1l-134 -155l-96 155l10 1l-29 -236h-16l34 270l102 -165h-5l144 165l-34 -270h-16zM113 699h153l-1 -16h-69l-31 -243h-17l31 243h-68z" glyph-name="trademark" horiz-adv-x="564" unicode="™"/><glyph d="M495 19q51 18 98.5 51.5t82 86.5t43.5 129q9 71 -3 124.5t-41 89t-72.5 53t-95.5 18.5q-54 0 -102 -17.5t-86 -52.5t-63.5 -88t-34.5 -123q-10 -77 12.5 -130.5t64 -87.5t87.5 -53l-3 -16q-39 16 -72.5 38t-58.5 52t-39 70t-14 90q0 52 18 110.5t56 110t97 84t141 31.5 q65 0 110 -24t72 -63.5t38.5 -86.5t10.5 -93q0 -54 -12.5 -97.5t-34.5 -78.5t-52.5 -61.5t-68 -47t-81.5 -34.5zM169 19h216l-3 -19h-216zM495 19h205l-3 -19h-205z" glyph-name="uni2126" horiz-adv-x="833" unicode="Ω"/><glyph d="M326 731l98 -447h-19l-86 392l-182 -392h-19l208 447v0zM134 301h281l-2 -17h-282z" glyph-name="uni2206" horiz-adv-x="500" unicode="∆"/><glyph d="M293 751h185l-98 -803h-19l97 784h-147l-97 -784h-19z" glyph-name="product" horiz-adv-x="542" unicode="∏"/><glyph d="M173 751h332l-18 -19h-291l60 -385l-154 -386h291l13 -19h-332l163 405z" glyph-name="summation" horiz-adv-x="489" unicode="∑"/><glyph d="M111 203h361l-3 -18h-360z" glyph-name="minus" horiz-adv-x="820" unicode="−"/><glyph d="M380 737q-93 -189 -185.5 -378t-185.5 -378h-19q93 189 185.5 378t185.5 378h19z" glyph-name="uni2215" horiz-adv-x="327" unicode="∕"/><glyph d="M95 238q-18 1 -29.5 15t-9.5 33t17 30.5t33 10.5t30 -15t9 -33q-2 -18 -16.5 -30t-33.5 -11z" glyph-name="uni2219" horiz-adv-x="178" unicode="∙"/><glyph d="M540 600h19l-316 -542l-99 299h-89l2 17h101l91 -263z" glyph-name="radical" horiz-adv-x="521" unicode="√"/><glyph d="M257 301q-2 -20 -17 -34.5t-36.5 -22.5t-44.5 -8q-24 0 -40 8.5t-24 22.5t-8 28q0 17 10.5 33t30 26.5t47.5 10.5q23 0 42.5 -8t30.5 -22.5t9 -33.5v0zM240 295q0 21 14.5 37t37.5 24.5t47 8.5t39 -8.5t22 -22t7 -27.5q0 -17 -9.5 -33t-28 -27t-46.5 -11q-22 0 -41 7.5 t-30.5 20.5t-11.5 31v0zM240 300q3 21 -19 35t-49 14q-32 0 -48.5 -18t-16.5 -34q0 -15 12.5 -30t41.5 -15q26 0 51.5 14t27.5 34v0zM257 300q-3 -20 19 -34t48 -14q33 0 50 18.5t17 33.5t-13 30t-42 15q-26 0 -51 -14t-28 -35v0z" glyph-name="infinity" horiz-adv-x="428" unicode="∞"/><glyph d="M270 728q-21 0 -33.5 -11t-20 -35.5t-12.5 -64.5l-75 -614q-7 -58 -17 -89.5t-23.5 -44.5t-30 -15t-36.5 -2h-39l3 19h56q20 0 32.5 11t20 35.5t12.5 64.5l79 647v0q6 45 16.5 69.5t24.5 34.5t30 12t33 2h38l-2 -19h-56z" glyph-name="integral" horiz-adv-x="311" unicode="∫"/><glyph d="M197 160q-28 2 -43.5 17.5t-28.5 33.5q-11 16 -23.5 30t-33.5 15q-11 1 -25 -6t-27 -27t-20 -57l-16 3q6 38 20.5 61.5t32.5 34t36 9.5q29 -1 44 -17t27 -34q12 -17 25 -30t34 -15q14 -1 27 6t24 27t18 58l16 -3q-6 -39 -19 -62.5t-30.5 -34t-37.5 -9.5zM215 312 q-28 2 -43.5 17.5t-28.5 33.5q-11 16 -23.5 30t-33.5 15q-11 1 -25 -6t-27 -27t-20 -57l-16 3q6 38 20.5 61.5t32.5 34t36 9.5q29 -1 44 -17t27 -34q12 -17 25 -30t34 -15q14 -1 27 6t24 27t18 58l16 -3q-6 -39 -19 -62.5t-30.5 -34t-37.5 -9.5z" glyph-name="approxequal" horiz-adv-x="489" unicode="≈"/><glyph d="M613 511q-48 -50 -97 -101t-99 -103t-99.5 -104t-98.5 -103t-97 -101l-9 10q47 50 96 101t99 103t99.5 104t98.5 103t97 102zM120 166h507l-3 -18h-506zM144 360h507l-3 -18h-506z" glyph-name="notequal" horiz-adv-x="709" unicode="≠"/><glyph d="M485 220q-101 63 -203 126.5t-204 126.5q118 63 235 126.5t234 126.5l-3 -23q-106 -57 -213.5 -114.5t-214.5 -115.5q93 -58 186 -115.5t186 -114.5v0zM73 112h360l-2 -18h-360z" glyph-name="lessequal" horiz-adv-x="554" unicode="≤"/><glyph d="M150 726q102 -63 204 -126.5t204 -126.5q-118 -63 -235 -126.5t-235 -126.5l3 23q107 57 214.5 114.5t213.5 115.5q-92 58 -185 115.5t-187 114.5zM74 112h361l-3 -18h-360z" glyph-name="greaterequal" horiz-adv-x="554" unicode="≥"/><glyph d="M326 731l112 -337l-194 -336l-112 336zM319 678l-168 -284l99 -283l169 283z" glyph-name="lozenge" horiz-adv-x="447" unicode="◊"/><glyph d="M93 0l43 357h-65l2 18h65l26 210q12 97 44 134.5t87 37.5q9 0 19.5 -2t19.5 -6l-10 -14q-5 3 -12 5t-17 2q-48 0 -74.5 -33.5t-36.5 -119.5l-26 -214h130l-2 -18h-130l-44 -357h-19zM384 0l43 357h-65l2 18h65l26 210q12 97 44 134.5t87 37.5q9 0 19.5 -2t19.5 -6 l-10 -14q-5 3 -12 5t-17 2q-48 0 -74.5 -33.5t-36.5 -119.5l-26 -214h130l-2 -18h-130l-44 -357h-19z" glyph-name="f_f" horiz-adv-x="581" unicode="ﬀ"/><glyph d="M398 726q-27 1 -42.5 16.5t-28.5 33.5q-11 16 -23.5 30t-32.5 15q-11 1 -25.5 -6t-27 -26.5t-19.5 -57.5l-16 3q7 38 21 61.5t32 34t36 9.5q28 -2 43 -17.5t27 -33.5q11 -16 24 -29.5t35 -14.5q20 -2 39 15.5t29 73.5l16 -3q-6 -38 -19 -61.5t-30.5 -33.5t-37.5 -9z M392 480l-87 156h9l-126 -156h-21l145 181v0l101 -181h-21z" glyph-name="uni03020303" horiz-adv-x="0"/><glyph d="M410 713q-27 1 -42.5 16.5t-28.5 33.5q-11 16 -23.5 30t-32.5 15q-12 1 -26 -6t-26.5 -26.5t-19.5 -57.5l-16 3q6 38 20.5 61.5t32.5 34t36 9.5q28 -2 43 -17.5t27 -33.5q11 -16 24 -29.5t34 -14.5q21 -2 40 15.5t29 73.5l16 -3q-6 -38 -19 -61.5t-30.5 -33.5t-37.5 -9z M322 500q-21 0 -42.5 8t-39 26.5t-26.5 48.5t-5 75h17q-5 -51 9.5 -81.5t38.5 -45t49 -14.5q31 0 55 20t39.5 52t21.5 69h17q-6 -44 -24 -80t-46.5 -57t-63.5 -21z" glyph-name="uni03060303" horiz-adv-x="0"/></font>
</defs>
</svg>
