<svg xmlns="http://www.w3.org/2000/svg" xmlns:xlink="http://www.w3.org/1999/xlink" id="Layer_1" width="24" height="24" x="0" y="0" baseProfile="tiny" overflow="visible" version="1.1" viewBox="0 0 24 24" xml:space="preserve"><g><rect width="24" height="24" y="0" fill="none"/><polygon fill="#5C85DE" fill-rule="evenodd" points="6 2.4 .8 5.4 .8 19.1 6 22.1 6 19.5 3 17.8 3 6.7 6 5"/><polygon fill="#3367D6" fill-rule="evenodd" points=".8 8 .8 16.5 3 17.8 3 6.7"/><polygon fill="#3367D6" fill-rule="evenodd" points=".8 8 3 7.5 3 6.7"/><polygon fill="#5C85DE" fill-rule="evenodd" points="18 2.4 18 5 21 6.7 21 17.8 18 19.5 18 22.1 23.2 19.1 23.2 5.4"/><polygon fill="#3367D6" fill-rule="evenodd" points="21 17.8 23.2 16.5 23.2 8 21 6.7"/><polygon fill="#3367D6" fill-rule="evenodd" points="21 7.5 23.2 8 21 6.7"/><polygon fill="#3367D6" fill-rule="evenodd" points="21 17.1 21 17.8 23.2 16.5"/><g><g transform="translate(6.860000, 6.500000) translate(4.540000, 0.000000)"><polygon fill="#5C85DE" fill-rule="evenodd" points=".6 -1 -2.4 .6 .6 2.2 3.6 .6"/><polygon fill="#3367D6" fill-rule="evenodd" points="1 5.9 3.9 4.3 3.9 1.2 1 2.8"/><polygon fill="#3367D6" fill-rule="evenodd" points=".3 2.8 -2.7 1.2 -2.7 4.3 .3 5.9"/></g><g transform="translate(6.860000, 6.500000) translate(0.000000, 7.976190)"><polygon fill="#5C85DE" fill-rule="evenodd" points="1.7 -3.1 -1.2 -1.5 1.7 .1 4.5 -1.5"/><polygon fill="#3367D6" fill-rule="evenodd" points="1.9 3.8 4.8 2.2 4.8 -1 1.9 .6"/><polygon fill="#3367D6" fill-rule="evenodd" points="1.4 .6 -1.5 -1 -1.5 2.2 1.4 3.8"/></g><g transform="translate(6.860000, 6.500000) translate(9.360000, 7.976190)"><polygon fill="#5C85DE" fill-rule="evenodd" points="-.7 -3.1 -3.6 -1.5 -.7 .1 2.2 -1.5"/><polygon fill="#3367D6" fill-rule="evenodd" points="-.4 3.8 2.5 2.2 2.5 -1 -.4 .6"/><polygon fill="#3367D6" fill-rule="evenodd" points="-1 .6 -3.9 -1 -3.9 2.2 -1 3.8"/></g></g></g></svg>