<svg xmlns="http://www.w3.org/2000/svg" xmlns:xlink="http://www.w3.org/1999/xlink" id="Layer_1" enable-background="new 0 0 50 50" version="1.1" viewBox="0 0 50 50" xml:space="preserve"><g><g><path fill="#E7E3E6" d="M45.47913,47.26579H4.5208c-1.9445,0-3.52083-1.57633-3.52083-3.52083V6.25508 c0-1.9445,1.57633-3.52083,3.52083-3.52083h40.95833c1.9445,0,3.52083,1.57633,3.52083,3.52083v37.48988 C48.99996,45.68946,47.42363,47.26579,45.47913,47.26579z"/><path fill="#53B1E2" d="M48.99997,9.76048V6.25507c0-1.94453-1.57633-3.52086-3.52081-3.52086H4.52079 c-1.94448,0-3.52081,1.57633-3.52081,3.52086v3.50541H48.99997z"/><path fill="#E7E3E6" d="M17.06462,10.40814H4.45078v-2.7194c0-0.67552,0.54762-1.22313,1.22313-1.22313h10.16758 c0.67552,0,1.22313,0.54762,1.22313,1.22313V10.40814z"/><path fill="#D2D2D2" d="M29.67847,9.76048H17.06462V7.68875c0-0.67552,0.54762-1.22313,1.22313-1.22313h10.16758 c0.67552,0,1.22313,0.54762,1.22313,1.22313V9.76048z"/><circle cx="40.43" cy="6.549" r="1.35" fill="#E7E3E6"/><circle cx="36.315" cy="6.549" r="1.35" fill="#E7E3E6"/></g><g><rect width="41.915" height="8.073" x="4.269" y="12.189" fill="#D2D2D2"/><g><circle cx="10.197" cy="25.563" r="2.831" fill="#EC6E62"/><circle cx="25.226" cy="25.563" r="2.831" fill="#85BD57"/><circle cx="40.256" cy="25.563" r="2.831" fill="#53B1E2"/><rect width="8.938" height=".796" x="5.728" y="31.618" fill="#D2D2D2"/><rect width="8.938" height=".796" x="5.728" y="30.115" fill="#D2D2D2"/><rect width="6.333" height=".796" x="5.728" y="33.121" fill="#D2D2D2"/><g><rect width="8.938" height=".796" x="20.758" y="31.618" fill="#D2D2D2"/><rect width="8.938" height=".796" x="20.758" y="30.115" fill="#D2D2D2"/><rect width="6.333" height=".796" x="20.758" y="33.121" fill="#D2D2D2"/></g><rect width="8.938" height=".796" x="35.787" y="31.618" fill="#D2D2D2"/><rect width="8.938" height=".796" x="35.787" y="30.115" fill="#D2D2D2"/><rect width="6.333" height=".796" x="35.787" y="33.121" fill="#D2D2D2"/><rect width="11.237" height="7.46" x="4.578" y="35.937" fill="#EC6E62"/><rect width="11.237" height="7.46" x="19.608" y="35.937" fill="#85BD57"/><rect width="11.237" height="7.46" x="34.638" y="35.937" fill="#53B1E2"/></g></g></g></svg>