<svg xmlns="http://www.w3.org/2000/svg" xmlns:xlink="http://www.w3.org/1999/xlink" id="Layer_1" enable-background="new 0 0 50 50" version="1.1" viewBox="0 0 50 50" xml:space="preserve"><g><path fill="#656766" d="M27.42716,37.97365H3.37195c-1.31001,0-2.37198,1.06197-2.37198,2.37198v5.68487 c0,1.31001,1.06197,2.37199,2.37198,2.37199h24.05521c1.31001,0,2.37198-1.06197,2.37198-2.37199v-5.68487 C29.79915,39.03562,28.73717,37.97365,27.42716,37.97365z"/><path fill="#656766" d="M27.42716,24.453H3.37195c-1.31001,0-2.37198,1.06197-2.37198,2.37198v5.68487 c0,1.31001,1.06197,2.37198,2.37198,2.37198h24.05521c1.31001,0,2.37198-1.06197,2.37198-2.37198v-5.68487 C29.79915,25.51497,28.73717,24.453,27.42716,24.453z"/><path fill="#656766" d="M27.42716,10.93911H3.37195c-1.31001,0-2.37198,1.06197-2.37198,2.37198v5.68487 c0,1.31001,1.06197,2.37198,2.37198,2.37198h24.05521c1.31001,0,2.37198-1.06197,2.37198-2.37198v-5.68487 C29.79915,12.00108,28.73717,10.93911,27.42716,10.93911z"/><rect width="23.709" height="3.092" x="3.545" y="34.882" fill="#4E4C4D"/><rect width="23.709" height="3.092" x="3.545" y="21.361" fill="#4E4C4D"/><g><circle cx="6.555" cy="16.154" r="2.007" fill="#EC6E62"/><circle cx="12.259" cy="16.154" r="2.007" fill="#85BD57"/></g><g><circle cx="6.555" cy="29.667" r="2.007" fill="#EC6E62"/><circle cx="12.259" cy="29.667" r="2.007" fill="#85BD57"/></g><g><circle cx="6.555" cy="43.188" r="2.007" fill="#EC6E62"/><circle cx="12.259" cy="43.188" r="2.007" fill="#85BD57"/></g><path fill="#53B1E2" d="M46.78577,5.77846c-4.501,0.5352-8.20477-0.81942-11.28495-3.63849 c-0.7902-0.72327-1.97526-0.72327-2.76546,0C29.65517,4.9591,25.9514,6.31365,21.45034,5.77846 c-1.21568-0.1445-2.2832,0.8556-2.21071,2.0777C20.192,23.90665,30.21903,29.86,33.25307,31.30178 c0.55103,0.26179,1.17901,0.26179,1.73003,0C38.01715,29.86,48.04412,23.90665,48.99648,7.85616 C49.06897,6.63406,48.00145,5.63396,46.78577,5.77846z"/><path fill="#22A7D4" d="M34.11381,28.38583c-2.84101-1.44447-10.58167-6.53286-11.78457-19.51692 c0.34131,0.01907,0.67969,0.02885,1.01513,0.02885c4.01556,0,7.62721-1.33493,10.77335-3.97546 c3.14614,2.64053,6.75877,3.97546,10.77335,3.97546c0.33447,0,0.67285-0.00978,1.01416-0.02836 C44.69352,21.82803,36.91375,26.94919,34.11381,28.38583z"/></g></svg>