<svg xmlns="http://www.w3.org/2000/svg" width="24" height="24" viewBox="0 0 24 24"><defs><style>.cls-1{fill:#aecbfa}.cls-2{fill:#4285f4}.cls-3{fill:#669df6}</style></defs><title>Icon_24px_QuantamEngine_Color</title><g data-name="Product Icons"><rect width="2" height="3" x="7.01" y="2" class="cls-1"/><rect width="2" height="3" x="11.01" y="2" class="cls-1"/><rect width="2" height="3" x="15.01" y="2" class="cls-1"/><rect width="2" height="3" x="7.01" y="19" class="cls-2"/><rect width="2" height="3" x="11.01" y="19" class="cls-2"/><rect width="2" height="3" x="15.01" y="19" class="cls-2"/><rect width="3" height="2" x="19" y="15" class="cls-2"/><rect width="3" height="2" x="19" y="11" class="cls-2"/><rect width="3" height="2" x="19" y="7" class="cls-2"/><rect width="3" height="2" x="2" y="15" class="cls-1"/><rect width="3" height="2" x="2" y="11" class="cls-1"/><rect width="3" height="2" x="2" y="7" class="cls-1"/><g data-name="colored-32/quantum-engine"><g><path d="M11,13H9V7H7v8h4v3h2V15h4V7H15v6H13V6H11ZM4,20V4H20V20Z" class="cls-3"/></g></g></g></svg>